<svg xmlns="http://www.w3.org/2000/svg" xmlns:xlink="http://www.w3.org/1999/xlink" width="591.447" height="593.245" viewBox="0 0 591.447 593.245"><defs><style>.a{fill:none;}.b{fill:#6cd3f8;}.c{clip-path:url(#a);}.d{fill:#4eaeeb;}</style><clipPath id="a"><rect class="a" width="591.447" height="591.447"/></clipPath></defs><g transform="translate(0 1.798)"><rect class="b" width="591.447" height="591.447" transform="translate(0 0)"/></g><g transform="translate(0 0)"><g class="c"><path class="d" d="M367.1,624.994l-1.775-60.535c-.591-84.586-15.178-134.474-15.178-134.474C321.752,310.5,250.77,248.2,250.77,248.2s86.16,37.62,142.354,122.242c0,0,4.578,6.341,11.463,17.745A408.913,408.913,0,0,1,462.922,599.18v25.814Z" transform="translate(46.002 46.885)"/><path class="d" d="M15.012,535.35q9.89-4.732,19.378-10.292l42.648-22.75c74-40.98,111-79.854,111-79.854,91.341-82.09,112.1-174.224,112.1-174.224s8.139,93.684-39.253,183.487c0,0-3.383,7.1-10.127,18.562A408.439,408.439,0,0,1,110.873,592.313,285.406,285.406,0,0,1,82.4,607.491L28.759,632.335h0L-19,551.688Z" transform="translate(-3.373 46.89)"/><path class="d" d="M645.712,346.635q-9.3-5.832-19.035-10.908l-42.021-23.956C510.539,271,457.918,260.428,457.918,260.428c-118.149-33.539-207.148-2-207.148-2s74.921-56.785,176.176-64.581c0,0,7.772-.911,21.105-1.337a408.511,408.511,0,0,1,194.773,42.648,283.775,283.775,0,0,1,28.014,16.006l49.616,32.143h0l-42.814,83.344Z" transform="translate(46.002 36.656)"/><path class="d" d="M527.705,13.582q-9.736,5.04-19.07,10.848L466.649,48.422C393.87,91.508,358,131.447,358,131.447c-88.952,84.681-107.052,177.371-107.052,177.371s-10.836-93.4,33.965-184.552c0,0,3.17-7.1,9.582-18.846A408.475,408.475,0,0,1,430.248-40.612a281.071,281.071,0,0,1,28-15.983L511.167-83h0L561.173-3.737Z" transform="translate(45.824 -13.734)"/><path class="d" d="M162.92-72.261q-.39,10.967.095,21.945l.308,48.35c1.81,84.563,19.011,135.409,19.011,135.409C212.453,252.5,284.358,313.76,284.358,313.76s-86.7-36.39-144.069-120.148c0,0-4.673-6.27-11.724-17.6A408.51,408.51,0,0,1,67.876-13.926,282.413,282.413,0,0,1,67.7-46.2l2.969-59.069h0l93.6-4.732Z" transform="translate(12.426 -18.675)"/><path class="d" d="M-70.212,171.862q9.2,5.915,18.928,11.191l41.643,24.571c73.5,41.855,125.957,53.236,125.957,53.236,117.64,35.29,207.124,5.075,207.124,5.075s-75.714,55.7-177.123,61.955c0,0-7.784.793-21.129,1.017a408.4,408.4,0,0,1-194.17-45.547,283.341,283.341,0,0,1-27.777-16.408l-49.131-32.876h0l44.044-82.717Z" transform="translate(-26.597 29.16)"/><path class="d" d="M169.86,630.672l29.883-52.645c43.382-72.626,56.785-122.833,56.785-122.833,37.715-116.907,9.322-206.994,9.322-206.994s54.123,76.9,58.288,178.353c0,0,.627,7.8.58,21.141a409.019,409.019,0,0,1-59.565,210.579l-13.392,22.064h0Z" transform="translate(31.193 46.885)"/><path class="d" d="M-67.7,363.545l60.535-1.621c84.586-.367,134.51-14.823,134.51-14.823,119.568-28.085,182.032-98.9,182.032-98.9s-37.857,86.124-122.6,142.034c0,0-6.353,4.566-17.8,11.416A408.9,408.9,0,0,1-42.136,459.429l-25.814-.059h0Z" transform="translate(-12.332 46.885)"/><path class="d" d="M550.176,520.964q-5.182-9.677-11.12-18.928l-24.583-41.631c-44.127-72.165-84.563-107.466-84.563-107.466C343.962,265.218,251,248.443,251,248.443s93.246-12.173,185,31.326c0,0,7.193,3.076,18.988,9.322A408.414,408.414,0,0,1,602.95,422.773a284.738,284.738,0,0,1,16.4,27.73l27.139,52.514h0l-78.529,51.131Z" transform="translate(46.044 46.642)"/><path class="d" d="M637.85,162.518q-10.967-.461-21.945,0H567.531C482.956,163.736,432,180.642,432,180.642,312.742,209.957,251,281.436,251,281.436s36.981-86.467,121.106-143.383c0,0,6.306-4.626,17.674-11.605A408.629,408.629,0,0,1,580.118,67.071a282.214,282.214,0,0,1,32.261,0l59.021,3.36h0l4.081,93.648Z" transform="translate(46.044 13.649)"/><path class="d" d="M351.328-73.647q-5.915,9.287-11.014,18.988L316.157-12.78C275,61.123,264.1,113.685,264.1,113.685c-34.107,117.971-3.052,207.16-3.052,207.16S204.645,245.628,197.4,144.337c0,0-.864-7.772-1.183-21.105A408.31,408.31,0,0,1,239.84-71.328,282.408,282.408,0,0,1,255.988-99.26l32.391-49.451h0l83.131,43.251Z" transform="translate(35.993 -25.76)"/><path class="d" d="M13.486,22.5q5.17,9.689,11.085,18.928l24.512,41.69c43.985,72.247,84.362,107.655,84.362,107.655,85.769,87.9,178.637,104.852,178.637,104.852s-93.27,11.984-184.954-31.681c0,0-7.181-3.088-18.928-9.358A408.333,408.333,0,0,1-39.49,120.625,285.807,285.807,0,0,1-55.816,92.8L-82.86,40.227h0L-4.236-10.75Z" transform="translate(-15.061 -0.51)"/></g></g></svg>