<svg xmlns="http://www.w3.org/2000/svg" width="1664.45" height="58.103" viewBox="0 0 1664.45 58.103"><defs><style>.a{fill:#fff;}</style></defs><g transform="translate(0 -718)"><g transform="translate(0 718.013)"><path class="a" d="M531.45,58.09a37.57,37.57,0,0,0-55.27-8.55,29.67,29.67,0,0,0-36.59-22,42,42,0,0,0-78,11.66,30.94,30.94,0,0,0-44.76,1.44A35.66,35.66,0,0,0,257,37.57a33.63,33.63,0,0,0-20.91-7.26,34.3,34.3,0,0,0-5.77.5,33.78,33.78,0,0,0-61.48-.6,27.76,27.76,0,0,0-26.34-6.48,34.41,34.41,0,0,0-65.43,0A25.89,25.89,0,0,0,38.28,43.22,30,30,0,0,0,0,58.09Z"/></g><g transform="translate(575 718.013)"><path class="a" d="M531.45,58.09a37.57,37.57,0,0,0-55.27-8.55,29.67,29.67,0,0,0-36.59-22,42,42,0,0,0-78,11.66,30.94,30.94,0,0,0-44.76,1.44A35.66,35.66,0,0,0,257,37.57a33.63,33.63,0,0,0-20.91-7.26,34.3,34.3,0,0,0-5.77.5,33.78,33.78,0,0,0-61.48-.6,27.76,27.76,0,0,0-26.34-6.48,34.41,34.41,0,0,0-65.43,0A25.89,25.89,0,0,0,38.28,43.22,30,30,0,0,0,0,58.09Z"/></g><g transform="translate(1133 718.013)"><path class="a" d="M531.45,58.09a37.57,37.57,0,0,0-55.27-8.55,29.67,29.67,0,0,0-36.59-22,42,42,0,0,0-78,11.66,30.94,30.94,0,0,0-44.76,1.44A35.66,35.66,0,0,0,257,37.57a33.63,33.63,0,0,0-20.91-7.26,34.3,34.3,0,0,0-5.77.5,33.78,33.78,0,0,0-61.48-.6,27.76,27.76,0,0,0-26.34-6.48,34.41,34.41,0,0,0-65.43,0A25.89,25.89,0,0,0,38.28,43.22,30,30,0,0,0,0,58.09Z"/></g></g></svg>