<svg xmlns="http://www.w3.org/2000/svg" width="40.001" height="40" viewBox="0 0 40.001 40"><defs><style>.a{fill:#aeaeae;}</style></defs><path class="a" d="M37.657,21.38V17.663a1.172,1.172,0,0,0-1.172-1.172,35.352,35.352,0,0,0-6.811.621,10.581,10.581,0,0,0-4.4-2.547,8.2,8.2,0,1,0-10.549,0,10.583,10.583,0,0,0-4.4,2.547,35.359,35.359,0,0,0-6.811-.621,1.172,1.172,0,0,0-1.172,1.172V21.38A3.521,3.521,0,0,0,0,24.694v2.344a3.521,3.521,0,0,0,2.344,3.314v3.717a1.172,1.172,0,0,0,1.172,1.172A27.272,27.272,0,0,1,19.35,39.81a1.176,1.176,0,0,0,1.3,0,27.271,27.271,0,0,1,15.835-4.569,1.172,1.172,0,0,0,1.172-1.172V30.352A3.521,3.521,0,0,0,40,27.038V24.694A3.522,3.522,0,0,0,37.657,21.38ZM14.141,8.287A5.859,5.859,0,1,1,20,14.147,5.906,5.906,0,0,1,14.141,8.287ZM3.516,28.21a1.173,1.173,0,0,1-1.172-1.172V24.694a1.172,1.172,0,0,1,2.344,0v2.344A1.173,1.173,0,0,1,3.516,28.21Zm15.313,8.522A29.322,29.322,0,0,0,4.688,32.914V30.352a3.521,3.521,0,0,0,2.344-3.314V24.694A3.521,3.521,0,0,0,4.688,21.38V18.851a26.489,26.489,0,0,1,14.141,4.134ZM20,20.955a27.851,27.851,0,0,0-6.818-3.134,8.22,8.22,0,0,1,4.474-1.33h4.688a8.22,8.22,0,0,1,4.474,1.33A27.85,27.85,0,0,0,20,20.955ZM35.313,32.914a29.323,29.323,0,0,0-14.141,3.818V22.986a26.486,26.486,0,0,1,14.141-4.135V21.38a3.521,3.521,0,0,0-2.344,3.314v2.344a3.521,3.521,0,0,0,2.344,3.314Zm2.344-5.876a1.172,1.172,0,0,1-2.344,0V24.694a1.172,1.172,0,0,1,2.344,0Z" transform="translate(0 -0.006)"/></svg>