<svg xmlns="http://www.w3.org/2000/svg" width="40" height="40" viewBox="0 0 40 40"><defs><style>.a{fill:#aeaeae;}</style></defs><path class="a" d="M34.318,5.681A19.269,19.269,0,0,0,20.6,0h0A19.4,19.4,0,0,0,3.363,28.294L.1,37.609A1.8,1.8,0,0,0,1.792,40a1.812,1.812,0,0,0,.6-.1l9.315-3.26A19.4,19.4,0,0,0,34.318,5.682ZM32.659,31.455a17.058,17.058,0,0,1-20.062,3,1.807,1.807,0,0,0-1.441-.112L2.694,37.306l2.962-8.463A1.807,1.807,0,0,0,5.544,27.4,17.053,17.053,0,0,1,20.6,2.346h0A17.052,17.052,0,0,1,32.659,31.455Zm0,0" transform="translate(0)"/><path class="a" d="M145.209,126.026a2.291,2.291,0,0,0-3.237,0L141,127a14.206,14.206,0,0,1-5.705-5.7l.976-.976a2.291,2.291,0,0,0,0-3.237l-2.63-2.63a2.291,2.291,0,0,0-3.237,0l-2.1,2.1c-1.205,1.205-1.265,3.277-.169,5.834A25.607,25.607,0,0,0,139.9,134.167a8.493,8.493,0,0,0,3.275.78,3.488,3.488,0,0,0,2.559-.95l2.1-2.1h0a2.288,2.288,0,0,0,0-3.237Zm-1.133,6.312c-.344.344-1.4.464-3.251-.328a23.323,23.323,0,0,1-10.542-10.542c-.793-1.849-.672-2.907-.328-3.251l2.064-2.064,2.549,2.549-1.222,1.222a1.79,1.79,0,0,0-.331,2.085,16.551,16.551,0,0,0,7.269,7.269,1.79,1.79,0,0,0,2.085-.331l1.222-1.222,2.549,2.549Zm0,0" transform="translate(-117.398 -104.896)"/></svg>