<svg xmlns="http://www.w3.org/2000/svg" width="33.372" height="40" viewBox="0 0 33.372 40"><defs><style>.a{fill:#aeaeae;}</style></defs><g transform="translate(0 0)"><path class="a" d="M96.666,19.268a9.322,9.322,0,0,0,6.812-2.823A9.323,9.323,0,0,0,106.3,9.634a9.323,9.323,0,0,0-2.823-6.812,9.632,9.632,0,0,0-13.624,0,9.322,9.322,0,0,0-2.823,6.812,9.323,9.323,0,0,0,2.823,6.812A9.325,9.325,0,0,0,96.666,19.268ZM91.512,4.48a7.288,7.288,0,0,1,10.309,0,6.965,6.965,0,0,1,2.136,5.154,6.965,6.965,0,0,1-2.136,5.154,7.287,7.287,0,0,1-10.309,0,6.964,6.964,0,0,1-2.136-5.154A6.964,6.964,0,0,1,91.512,4.48Zm0,0" transform="translate(-80.232)"/><path class="a" d="M33.291,258.753a23.8,23.8,0,0,0-.324-2.527,19.913,19.913,0,0,0-.622-2.541,12.553,12.553,0,0,0-1.045-2.37,8.934,8.934,0,0,0-1.575-2.053,6.945,6.945,0,0,0-2.263-1.422,7.821,7.821,0,0,0-2.889-.523,2.932,2.932,0,0,0-1.566.664c-.469.306-1.018.66-1.631,1.052a9.346,9.346,0,0,1-2.111.93,8.2,8.2,0,0,1-5.163,0,9.319,9.319,0,0,1-2.109-.93c-.607-.388-1.156-.742-1.633-1.052a2.929,2.929,0,0,0-1.565-.664,7.811,7.811,0,0,0-2.888.523,6.94,6.94,0,0,0-2.263,1.422,8.936,8.936,0,0,0-1.575,2.053,12.576,12.576,0,0,0-1.045,2.37A19.96,19.96,0,0,0,.4,256.225a23.634,23.634,0,0,0-.324,2.528c-.053.764-.08,1.559-.08,2.362a6.642,6.642,0,0,0,1.973,5.025,7.1,7.1,0,0,0,5.083,1.854h19.26a7.1,7.1,0,0,0,5.083-1.854,6.64,6.64,0,0,0,1.973-5.025c0-.806-.027-1.6-.081-2.363Zm-3.508,5.69a4.781,4.781,0,0,1-3.467,1.208H7.056a4.781,4.781,0,0,1-3.467-1.208,4.337,4.337,0,0,1-1.245-3.327c0-.75.025-1.49.074-2.2a21.318,21.318,0,0,1,.293-2.276,17.605,17.605,0,0,1,.547-2.24,10.238,10.238,0,0,1,.85-1.927,6.623,6.623,0,0,1,1.158-1.517,4.607,4.607,0,0,1,1.505-.936,5.394,5.394,0,0,1,1.846-.356c.082.044.228.127.465.281.482.314,1.037.672,1.651,1.064a11.614,11.614,0,0,0,2.649,1.184,10.538,10.538,0,0,0,6.6,0,11.626,11.626,0,0,0,2.651-1.185c.628-.4,1.168-.75,1.65-1.064.237-.154.383-.238.465-.281a5.4,5.4,0,0,1,1.847.356,4.614,4.614,0,0,1,1.505.936,6.605,6.605,0,0,1,1.158,1.517,10.2,10.2,0,0,1,.851,1.927,17.564,17.564,0,0,1,.547,2.24,21.5,21.5,0,0,1,.293,2.277h0c.05.708.075,1.447.075,2.2a4.337,4.337,0,0,1-1.245,3.327Zm0,0" transform="translate(0 -227.994)"/></g></svg>