<svg xmlns="http://www.w3.org/2000/svg" width="40" height="40" viewBox="0 0 40 40"><defs><style>.a{fill:#aeaeae;}</style></defs><g transform="translate(5.686)"><g transform="translate(0 0)"><path class="a" d="M34.285,17.143v-10a1.429,1.429,0,0,0-1.429-1.429h-10a5.714,5.714,0,0,0-11.429,0h-10A1.429,1.429,0,0,0,0,7.143v12.54a1.429,1.429,0,0,0,2.384,1.061,2.857,2.857,0,1,1,0,4.226A1.429,1.429,0,0,0,0,26.031v12.54A1.429,1.429,0,0,0,1.428,40h12.54a1.429,1.429,0,0,0,1.061-2.384,2.857,2.857,0,1,1,4.226,0A1.429,1.429,0,0,0,20.316,40h12.54a1.429,1.429,0,0,0,1.429-1.429v-10a5.714,5.714,0,0,0,0-11.429Zm0,8.571a2.828,2.828,0,0,1-.951-.18,1.429,1.429,0,0,0-1.906,1.346V37.143H22.67a5.572,5.572,0,0,0,.186-1.429,5.714,5.714,0,1,0-11.429,0,5.572,5.572,0,0,0,.186,1.429H2.856V28.386a5.572,5.572,0,0,0,1.429.186,5.714,5.714,0,1,0,0-11.429,5.572,5.572,0,0,0-1.429.186V8.571H13.119a1.429,1.429,0,0,0,1.346-1.906,2.826,2.826,0,0,1-.18-.951,2.857,2.857,0,0,1,5.714,0,2.828,2.828,0,0,1-.18.951,1.429,1.429,0,0,0,1.346,1.906H31.428V18.834a1.429,1.429,0,0,0,1.906,1.346,2.826,2.826,0,0,1,.951-.18,2.857,2.857,0,0,1,0,5.714Z" transform="translate(-5.685)"/></g></g></svg>