<svg xmlns="http://www.w3.org/2000/svg" xmlns:xlink="http://www.w3.org/1999/xlink" width="202.047" height="96.516" viewBox="0 0 202.047 96.516"><defs><style>.a{fill:#fff;}.b{fill:#ffd500;}.c{fill:#ffda20;font-size:24px;font-family:FredokaOne-Regular, Fredoka One;}.d{filter:url(#a);}</style><filter id="a" x="0" y="0" width="202.047" height="96.516" filterUnits="userSpaceOnUse"><feOffset dx="-4" dy="8" input="SourceAlpha"/><feGaussianBlur stdDeviation="6" result="b"/><feFlood flood-opacity="0.161"/><feComposite operator="in" in2="b"/><feComposite in="SourceGraphic"/></filter></defs><g transform="matrix(0.995, -0.105, 0.105, 0.995, 21.213, 26.312)"><g transform="translate(0.012 0.006)"><g class="d" transform="matrix(0.99, 0.1, -0.1, 0.99, -18.36, -28.39)"><path class="a" d="M139.815,47.825c-1.2,0-2.4-.022-3.6-.045-.7-.013-1.4-.027-2.109-.036-5.768-.073-11.632-.091-17.3-.109l-16.669-.042c-12.832-.031-26.1-.064-39.151-.156-1.3,0-2.6-.013-3.911-.013q-2.919,0-5.852.015t-5.882.016c-7.441,0-15.406-.1-23.288-.858-8.694-.831-14-3.792-16.206-9.05-3.873-9.215-1.906-18.667,5.013-24.076a.779.779,0,0,0,.162-.181A14.444,14.444,0,0,1,15.9,8.67C21.854,5.236,29.065,5.087,36.04,4.94c1.089-.024,2.178-.045,3.251-.082C55.82,4.314,72.041,4.04,87.5,4.04c21.5,0,42.426.534,62.185,1.584,6.3.5,14.177,2.839,15.79,11.157.6,3.085,1.715,10.866-.853,16.769a14.854,14.854,0,0,1-5.34,6.587.741.741,0,0,0-.181.182,15.137,15.137,0,0,1-5.97,5.225C148.716,47.549,144.122,47.825,139.815,47.825Z" transform="matrix(0.99, -0.1, 0.1, 0.99, 17.72, 23.36)"/></g><path class="b" d="M163.038,13.341c-1.592-8.167-8.946-11.155-16.48-11.75C109.895-.358,72.791-.382,36.1.825,28.18,1.094,19.43.655,12.37,4.724A15.137,15.137,0,0,0,7.233,9.582c-7.654,5.991-8.921,16.2-5.227,24.945,2.842,6.759,10.117,8.855,16.812,9.5,12.886,1.232,26.076.751,39,.844,18.163.131,36.327.14,54.49.2,6.209.02,12.418.033,18.627.113,6.627.085,13.126.557,19.344-2.263a15.952,15.952,0,0,0,6.265-5.469,15.656,15.656,0,0,0,5.6-6.9C164.354,25.449,164.085,18.687,163.038,13.341Zm-1.506,10.135C161.276,35.669,150.2,39.555,139.6,39.054c-12.043-.57-24.181-.22-36.233-.249-18.3-.044-36.6-.073-54.9-.285-6.676-.076-13.353-.169-20.027-.414-6.367-.234-13.525-.488-18.286-5.276-6.113-6.146-4.919-18.4.668-24.272C15.982,3.137,24.33,3.4,31.237,3.09c13.593-.621,27.225-.67,40.821-.682,24.8-.025,49.731-.058,74.5,1.27,6.086.479,11.8,2.381,14.023,8.53C161.858,15.73,161.61,19.788,161.532,23.476Z" transform="translate(-0.012 -0.006)"/><text class="c" transform="translate(19.834 5.194)"><tspan x="-37.44" y="23">Nando</tspan></text></g></g></svg>