<svg xmlns="http://www.w3.org/2000/svg" width="126.641" height="132.569" viewBox="0 0 126.641 132.569"><g transform="matrix(0.819, -0.574, 0.574, 0.819, -0.003, 46.449)"><g transform="translate(0 0.006)"><path d="M35.108,70.471A57.266,57.266,0,0,0,52.215,81.3V79.345A194.13,194.13,0,0,1,.843,102.887L2.3,104.011A172.994,172.994,0,0,1,9.762,54.9l-1.714.7q8.762,4.024,17.517,8.037a1.281,1.281,0,0,0,1.686-.444Q48.332,31.935,71.07,1.851L69.384,2.3,79.14,6.707c-.152-.562-.3-1.124-.45-1.686Q57.419,37.83,36.1,70.623c-.854,1.315,1.253,2.535,2.1,1.225Q59.5,39.05,80.826,6.257a1.248,1.248,0,0,0-.444-1.686L70.626.149A1.3,1.3,0,0,0,68.94.6Q46.2,30.671,25.121,61.94l1.686-.444q-8.784-3.973-17.591-7.913a1.186,1.186,0,0,0-1.714.7A179.94,179.94,0,0,0,0,103.972,1.163,1.163,0,0,0,1.456,105.1a186.122,186.122,0,0,0,51.9-23.806,1.124,1.124,0,0,0-.27-2.074,88.951,88.951,0,0,1-17.22-9.745c-.562-.4-1.27.5-.759.989Z" transform="translate(0 -0.006)" fill="#ffd500"/><path d="M3.691,99.927C12,97.825,20.354,96.46,28.818,95.19c1.276-.191,1.6-1.8,1.124-2.754-1.686-3.316-7.581-2.113-10.481-1.961a109.026,109.026,0,0,0-15.387,1.95L4.95,95.6q13.9-2.81,27.813-5.553c2.366-.472,1.338-3.973-.989-3.586A235.823,235.823,0,0,1,5.045,89.468q.242,1.821.495,3.642a260.626,260.626,0,0,1,29.786-6.244c2.45-.371,1.4-4.069-1.023-3.72a240.532,240.532,0,0,1-28.3,2.411c.169,1.265.343,2.529.511,3.794,10.678-2.1,21.356-4.1,32.034-6.137,2.248-.433,1.782-4.294-.562-4.069-9.312.882-18.608,1.866-27.909,2.81q.27,2.012.562,4.03a183.272,183.272,0,0,1,24.728-4.94l-.562-4.131a199.917,199.917,0,0,1-26.9,2.619c.18,1.354.365,2.714.562,4.069a188.373,188.373,0,0,1,27.055-5.058c2.737-.315,2.844-4.586,0-4.367q-12.718.978-25.43,2.085.287,2.158.562,4.322c7.227-3.012,14.842-3.934,22.575-4.665V71.529c-9.087,1.124-18.355,2.287-27.454.669v4.3q12.892-2.04,25.784-4.041c2.484-.388,1.928-4.659-.6-4.423a109.64,109.64,0,0,1-20.417,0l.607,4.5a49.682,49.682,0,0,1,13.246-2.49V65.488a81.276,81.276,0,0,1-17.765-.045v4.569a254.019,254.019,0,0,1,30.679-.427v-4.6L19.736,66.112l.618,4.552Q30.976,68.253,41.5,65.4c2.467-.669,2.074-4.856-.624-4.6L29.829,61.8c.393,1.461.792,2.922,1.186,4.384a76.308,76.308,0,0,1,14.5-5.687c2.99-.843,1.686-5.125-1.265-4.586L32.128,58.086l1.843,4.384a109.026,109.026,0,0,1,14.185-5.435c3.007-.922,1.753-5.266-1.287-4.67l-9.633,1.9q.939,2.248,1.877,4.451A45.122,45.122,0,0,1,51.174,52.8a2.459,2.459,0,0,0-1.309-4.738L39.726,50.23l1.905,4.5a55.362,55.362,0,0,1,12.325-6.418c-.646-1.529-1.287-3.057-1.933-4.58a26.375,26.375,0,0,1-8.992,2.04c.427,1.574.849,3.147,1.276,4.721A47.332,47.332,0,0,1,54.72,44.722c2.99-1.175,1.866-5.968-1.366-4.951-2.922.91-5.845,1.81-8.767,2.726l2,4.732a73.722,73.722,0,0,1,13.628-8.053l-2.63-4.5a37.238,37.238,0,0,1-8.143,3.22q1.276,2.181,2.54,4.367a64.282,64.282,0,0,1,9.627-6.8c3.007-1.737.371-5.811-2.647-4.5L51.4,34.162l3.181,4.131a129.921,129.921,0,0,1,10.807-8.481c2.248-1.585.944-6.03-2.034-4.828l-9.116,3.653q1.293,2.209,2.574,4.429A66.069,66.069,0,0,1,68.7,24.53l-2.686-4.6a21.193,21.193,0,0,1-8.25,3.659l2.6,4.5A97.225,97.225,0,0,1,75.064,16.448c2.894-1.866.281-6.429-2.714-4.642a62.876,62.876,0,0,1-10.56,5.058q1.309,2.248,2.625,4.5a122.42,122.42,0,0,1,10.155-7.9c2.81-1.978.157-6.654-2.726-4.67A34.81,34.81,0,0,1,63.116,13.2l2.091,4.951q5.322-4.013,10.329-8.43c1.922-1.686.23-4.434-1.916-4.631a4.243,4.243,0,0,0-3.372,1.276C67.64,8.7,71.49,12.548,74.087,10.2l-.461.309L71.7,5.888c-2.979,2.641-6.047,5.176-9.228,7.576-2.248,1.686-1.085,6.019,2.091,4.951a40.273,40.273,0,0,0,10-4.951l-2.726-4.67A135.93,135.93,0,0,0,60.6,17.578c-1.989,1.725.112,5.435,2.625,4.5a69.873,69.873,0,0,0,11.841-5.62l-2.72-4.676A104.318,104.318,0,0,0,56.586,24.294c-2.018,1.945.1,5,2.6,4.468A24.835,24.835,0,0,0,68.7,24.552c2.726-1.973.36-6.328-2.686-4.6A72.778,72.778,0,0,0,53.09,29.34c-1.871,1.686.09,5.435,2.574,4.429l9.116-3.692-2.063-4.811a143.556,143.556,0,0,0-11.852,9.307c-2.445,2.141.674,5.2,3.187,4.131L61.6,35.466l-2.647-4.5A71.329,71.329,0,0,0,48.28,38.6c-2.04,1.753.146,5.007,2.54,4.361a43.055,43.055,0,0,0,9.385-3.76c3-1.624.365-5.862-2.63-4.5a74,74,0,0,0-13.606,8.048c-2.175,1.619-1.04,5.687,2,4.732l8.756-2.765-1.366-4.951A52.491,52.491,0,0,0,41.721,46.11c-1.843,1.343-1.467,4.878,1.281,4.721a33.315,33.315,0,0,0,11.549-2.776c2.58-1.124.731-5.581-1.928-4.58a61.257,61.257,0,0,0-13.46,7,2.484,2.484,0,0,0,1.905,4.5l10.116-2.186c-.438-1.579-.871-3.158-1.309-4.738a50.085,50.085,0,0,0-13.224,6.44,2.45,2.45,0,0,0,1.877,4.5l9.627-1.95q-.641-2.338-1.287-4.67a119.144,119.144,0,0,0-15.314,5.963c-2.613,1.236-.652,4.839,1.843,4.384L45.515,60.5,44.25,55.912a82.564,82.564,0,0,0-15.612,6.182c-1.989,1.04-1.152,4.62,1.191,4.389L40.85,65.421l-.618-4.6Q29.711,63.69,19.089,66.129c-2.512.562-2.012,4.726.618,4.552l17.585-1.124a2.3,2.3,0,0,0,0-4.6,257.5,257.5,0,0,0-30.679.455,2.286,2.286,0,0,0,0,4.569,80.927,80.927,0,0,0,17.765.034c2.849-.309,2.984-4.7,0-4.558A54.323,54.323,0,0,0,9.94,68.09a2.3,2.3,0,0,0,.6,4.5,108.685,108.685,0,0,0,20.417-.039c-.2-1.478-.4-2.95-.6-4.423Q17.477,70.164,4.584,72.2c-2.152.337-2.107,3.934,0,4.3,9.554,1.714,19.108.68,28.662-.562,2.731-.365,2.81-4.687,0-4.389-8.037.854-16.2,1.742-23.744,4.811-2.085.849-2.124,4.535.562,4.322q12.724-1.023,25.43-2.119V74.16a222.818,222.818,0,0,0-28.15,5.446,2.081,2.081,0,0,0,.562,4.069,189.6,189.6,0,0,0,28.016-2.7c2.7-.472,1.5-4.417-1.124-4.058a202.407,202.407,0,0,0-25.29,5.114c-2.164.562-1.815,4.26.562,4.03,9.3-.916,18.608-1.793,27.909-2.765-.185-1.354-.371-2.714-.562-4.069C26.8,81.359,16.15,83.545,5.495,85.63c-2.147.416-1.641,3.844.517,3.788A235.614,235.614,0,0,0,35.3,86.866L34.28,83.152a282.35,282.35,0,0,0-29.73,6.39c-1.978.534-1.635,3.749.495,3.642a209.488,209.488,0,0,0,27.718-3.13c-.326-1.2-.658-2.388-.989-3.586l-27.7,5.957c-2.091.444-1.186,3.535.877,3.175a104.429,104.429,0,0,1,11.8-1.416q2.681-.157,5.373-.185c.652,0,4.221-.354,4.547.332l1.124-2.759A151.333,151.333,0,0,0,3.033,97.539,1.239,1.239,0,0,0,3.691,99.927Z" transform="translate(-0.948 -2.227)" fill="#ffd500"/><path d="M42.1,143.174l-.27.146a1.006,1.006,0,0,0-.455,1.124l.067.365a1.012,1.012,0,0,0,.708.708c2.1.534,5.058-1.248,6.969-1.973l9.666-3.653c1.866-.708,1.124-3.608-.843-3.046-6.744,1.905-13.376,4.226-20.046,6.362a1.383,1.383,0,0,0,.736,2.664c5.457-1.028,10.863-2.433,16.3-3.7l-1.242-2.945c-4.62,3-9.768,4.563-15.011,6.041-2,.562-1.124,3.372.843,3.063a64.815,64.815,0,0,0,19.507-6.469c1.737-.9.562-3.934-1.354-3.22-7.12,2.613-14.28,5.283-21.963,5.305q.236,1.753.478,3.518c8.16-2.383,16.337-4.687,24.52-6.986a1.952,1.952,0,0,0,1.158-2.849c-2-2.619-4.828-1.658-7.7-1.231a103.634,103.634,0,0,1-13.645,1.124c.337,1.248.674,2.5,1.017,3.749,2.664-1.652,6.536-1.888,9.554-2.557,3.271-.714,6.536-1.433,9.807-2.13,2.029-.433,1.843-3.372,0-3.934-2.849-.826-6.058-.489-8.992-.511q-5.058-.034-10.116-.045l1.062,3.934c3.423-1.484,7.194-1.433,10.852-1.4a2.124,2.124,0,0,0,1.815-3.17c-1.568-3.04-6.907-2.012-9.711-2.079q.562,1.973,1.068,3.934a10.33,10.33,0,0,1,4.631-1.855c2.636-.332,2.81-4.1,0-4.226a90.405,90.405,0,0,0-16.54.708c-2.186.3-1.686,4.069.528,3.878a123.772,123.772,0,0,1,16.011-.36v-4.226a14.764,14.764,0,0,0-6.744,2.439,2.131,2.131,0,0,0,1.062,3.934l3.692.079,1.585.034c1.124.208,1.366.163.8-.135l1.821-3.17c-4.5-.034-8.784.163-12.977,1.984-2,.865-.877,3.934,1.062,3.934h8.992c2.883,0,6.261-.506,9.048.27V132.67c-3.625.815-7.261,1.6-10.891,2.4-3.136.691-6.677,1.012-9.447,2.731a2.031,2.031,0,0,0,1.017,3.754c3.164-.051,6.322-.225,9.475-.562,1.225-.135,2.45-.287,3.67-.466.764-.107,4.558-1.27,5.165-.511q.421-1.619.854-3.237-12.207,3.687-24.447,7.267a1.8,1.8,0,0,0,.478,3.518c8.008,0,15.517-2.625,22.9-5.491-.45-1.068-.9-2.141-1.354-3.215A58.926,58.926,0,0,1,38.711,145.3l.843,3.063c5.5-1.512,11-3.108,15.77-6.328a1.621,1.621,0,0,0-1.236-2.945c-5.39,1.343-10.835,2.563-16.157,4.142.247.888.489,1.776.736,2.664,6.71-1.973,13.488-3.777,20.153-5.98l-1.22-2.889c-1.433.618-14.713,5.558-14.28,6.913l-.455,1.124.253-.174a.976.976,0,1,0-.983-1.686Z" transform="translate(-14.697 -55.685)" fill="#ffd500"/><path d="M14.754,168.094l7.829-.433c1.545-.09,1.557-2.5,0-2.417a54.215,54.215,0,0,0-15.64,3.243,1.166,1.166,0,1,0,.618,2.248c7.031-.989,14-2,21.092-2.45,2.136-.135,2.107-3.524,0-3.321-1.124.112-2.248.264-3.333.483a1.281,1.281,0,0,0,0,2.45,20.739,20.739,0,0,0,3.333.388v-3.3a153.185,153.185,0,0,0-21.71,3.535c.208.742.41,1.489.618,2.248A55.755,55.755,0,0,1,22.583,167.7v-2.417l-7.829.528c-1.484.1-1.5,2.405,0,2.321Z" transform="translate(-2.665 -72.254)" fill="#ffd500"/><path d="M49.4,163.119a6.064,6.064,0,0,0,4.541-1.456,1.4,1.4,0,0,0,.112-1.855,1.45,1.45,0,0,0-1.821-.365,11.451,11.451,0,0,1-1.439.6,12.928,12.928,0,0,0-1.6.433c-.753.309-1.2,1.54-.259,1.978a5.176,5.176,0,0,0,4.726-.562l-1.686-2.214a3.709,3.709,0,0,1-2.546,1.444,1.006,1.006,0,0,0,0,2.006Z" transform="translate(-21.199 -69.763)" fill="#ffd500"/></g></g></svg>