<svg xmlns="http://www.w3.org/2000/svg" width="126.641" height="132.569" viewBox="0 0 126.641 132.569"><g transform="matrix(0.819, 0.574, -0.574, 0.819, 60.299, 0)"><g transform="translate(0 0)"><path d="M35.108,34.662a57.266,57.266,0,0,1,17.107-10.83v1.956A194.131,194.131,0,0,0,.843,2.246L2.3,1.122A172.994,172.994,0,0,0,9.762,50.229l-1.714-.7q8.762-4.024,17.517-8.037a1.281,1.281,0,0,1,1.686.444Q48.332,73.2,71.07,103.282l-1.686-.444,9.756-4.412c-.152.562-.3,1.124-.45,1.686Q57.419,67.3,36.1,34.51c-.854-1.315,1.253-2.535,2.1-1.225Q59.5,66.083,80.826,98.876a1.248,1.248,0,0,1-.444,1.686l-9.756,4.423a1.3,1.3,0,0,1-1.686-.45Q46.2,74.463,25.121,43.193l1.686.444Q18.023,47.61,9.217,51.55a1.186,1.186,0,0,1-1.714-.7A179.94,179.94,0,0,1,0,1.161,1.163,1.163,0,0,1,1.456.037a186.123,186.123,0,0,1,51.9,23.806,1.124,1.124,0,0,1-.27,2.074,88.951,88.951,0,0,0-17.22,9.745c-.562.4-1.27-.5-.759-.989Z" fill="#ffd500"/><path d="M1.526.051c8.306,2.1,16.663,3.468,25.127,4.738,1.276.191,1.6,1.8,1.124,2.754C26.091,10.858,20.2,9.655,17.3,9.5A109.027,109.027,0,0,1,1.908,7.553l.877-3.175q13.9,2.81,27.813,5.553c2.366.472,1.338,3.973-.989,3.586A235.825,235.825,0,0,0,2.88,10.51q.242-1.821.495-3.642a260.624,260.624,0,0,0,29.786,6.244c2.45.371,1.4,4.069-1.023,3.72a240.534,240.534,0,0,0-28.3-2.411c.169-1.265.343-2.529.511-3.794,10.678,2.1,21.356,4.1,32.034,6.137,2.248.433,1.782,4.294-.562,4.069-9.312-.882-18.608-1.866-27.909-2.81q.27-2.012.562-4.03a183.272,183.272,0,0,0,24.728,4.94l-.562,4.131a199.917,199.917,0,0,0-26.9-2.619c.18-1.354.365-2.714.562-4.069a188.373,188.373,0,0,0,27.055,5.058c2.737.315,2.844,4.586,0,4.367q-12.718-.978-25.43-2.085.287-2.158.562-4.322c7.227,3.012,14.842,3.934,22.575,4.665v4.389c-9.087-1.124-18.355-2.287-27.454-.669v-4.3q12.892,2.04,25.784,4.041c2.484.388,1.928,4.659-.6,4.423a109.64,109.64,0,0,0-20.417,0l.607-4.5a49.682,49.682,0,0,0,13.246,2.49V34.49a81.276,81.276,0,0,0-17.765.045V29.966a254.016,254.016,0,0,0,30.679.427v4.6L17.571,33.866l.618-4.552q10.622,2.411,21.148,5.26c2.467.669,2.074,4.856-.624,4.6l-11.049-.989c.393-1.461.792-2.922,1.186-4.384a76.308,76.308,0,0,0,14.5,5.687c2.99.843,1.686,5.125-1.265,4.586L29.963,41.892l1.843-4.384a109.026,109.026,0,0,0,14.185,5.435c3.007.922,1.753,5.266-1.287,4.67l-9.633-1.9q.939-2.248,1.877-4.451a45.122,45.122,0,0,0,12.06,5.912A2.459,2.459,0,0,1,47.7,51.912L37.561,49.748l1.905-4.5A55.362,55.362,0,0,0,51.791,51.67c-.646,1.529-1.287,3.057-1.933,4.58a26.375,26.375,0,0,0-8.992-2.04c.427-1.574.849-3.147,1.276-4.721a47.332,47.332,0,0,0,10.414,5.766c2.99,1.175,1.866,5.968-1.366,4.951-2.922-.91-5.845-1.81-8.767-2.726l2-4.732A73.722,73.722,0,0,0,58.046,60.8l-2.63,4.5a37.238,37.238,0,0,0-8.143-3.22q1.276-2.181,2.54-4.367a64.282,64.282,0,0,0,9.627,6.8c3.007,1.737.371,5.811-2.647,4.5l-7.559-3.192,3.181-4.131a129.922,129.922,0,0,0,10.807,8.481c2.248,1.585.944,6.03-2.034,4.828L52.072,71.34q1.293-2.209,2.574-4.429a66.069,66.069,0,0,0,11.886,8.537l-2.686,4.6a21.193,21.193,0,0,0-8.25-3.659l2.6-4.5A97.225,97.225,0,0,0,72.9,83.53c2.894,1.866.281,6.429-2.714,4.642a62.876,62.876,0,0,0-10.56-5.058q1.309-2.248,2.625-4.5a122.42,122.42,0,0,0,10.155,7.9c2.81,1.978.157,6.654-2.726,4.67a34.81,34.81,0,0,0-8.728-4.406l2.091-4.951q5.322,4.013,10.329,8.43c1.922,1.686.23,4.434-1.916,4.631a4.243,4.243,0,0,1-3.372-1.276c-2.608-2.338,1.242-6.182,3.838-3.838l-.461-.309L69.539,94.09c-2.979-2.641-6.047-5.176-9.228-7.576-2.248-1.686-1.085-6.019,2.091-4.951a40.273,40.273,0,0,1,10,4.951l-2.726,4.67A135.928,135.928,0,0,1,58.439,82.4c-1.989-1.725.112-5.435,2.625-4.5a69.873,69.873,0,0,1,11.841,5.62L70.185,88.2A104.318,104.318,0,0,1,54.421,75.684c-2.018-1.945.1-5,2.6-4.468a24.835,24.835,0,0,1,9.515,4.209c2.726,1.973.36,6.328-2.686,4.6a72.778,72.778,0,0,1-12.926-9.391c-1.871-1.686.09-5.435,2.574-4.429L62.615,69.9l-2.063,4.811A143.557,143.557,0,0,1,48.7,65.406c-2.445-2.141.674-5.2,3.187-4.131l7.553,3.237-2.647,4.5a71.329,71.329,0,0,1-10.678-7.632c-2.04-1.753.146-5.007,2.54-4.361a43.055,43.055,0,0,1,9.385,3.76c3,1.624.365,5.862-2.63,4.5A74,74,0,0,1,41.8,57.223c-2.175-1.619-1.04-5.687,2-4.732l8.756,2.765L51.19,60.207a52.491,52.491,0,0,1-11.633-6.339c-1.843-1.343-1.467-4.878,1.281-4.721a33.315,33.315,0,0,1,11.549,2.776c2.58,1.124.731,5.581-1.928,4.58A61.257,61.257,0,0,1,37,49.5a2.484,2.484,0,0,1,1.905-4.5L49.02,47.191c-.438,1.579-.871,3.158-1.309,4.738a50.085,50.085,0,0,1-13.224-6.44,2.45,2.45,0,0,1,1.877-4.5l9.627,1.95q-.641,2.338-1.287,4.67A119.143,119.143,0,0,1,29.39,41.65c-2.613-1.236-.652-4.839,1.843-4.384L43.35,39.481l-1.264,4.586a82.564,82.564,0,0,1-15.612-6.182c-1.989-1.04-1.152-4.62,1.191-4.389l11.021,1.062-.618,4.6q-10.521-2.866-21.142-5.305c-2.512-.562-2.012-4.726.618-4.552l17.585,1.124a2.3,2.3,0,0,1,0,4.6,257.5,257.5,0,0,1-30.679-.455,2.286,2.286,0,0,1,0-4.569,80.927,80.927,0,0,1,17.765-.034c2.849.309,2.984,4.7,0,4.558a54.323,54.323,0,0,1-14.438-2.63,2.3,2.3,0,0,1,.6-4.5,108.685,108.685,0,0,1,20.417.039c-.2,1.478-.4,2.95-.6,4.423Q15.312,29.814,2.419,27.78c-2.152-.337-2.107-3.934,0-4.3,9.554-1.714,19.108-.68,28.662.562,2.731.365,2.81,4.687,0,4.389-8.037-.854-16.2-1.742-23.744-4.811-2.085-.849-2.124-4.535.562-4.322q12.724,1.023,25.43,2.119v4.406a222.818,222.818,0,0,1-28.15-5.446A2.081,2.081,0,0,1,5.741,16.3a189.594,189.594,0,0,1,28.016,2.7c2.7.472,1.5,4.417-1.124,4.058A202.406,202.406,0,0,1,7.343,17.95c-2.164-.562-1.815-4.26.562-4.03,9.3.916,18.608,1.793,27.909,2.765-.185,1.354-.371,2.714-.562,4.069C24.635,18.619,13.985,16.433,3.33,14.348c-2.147-.416-1.641-3.844.517-3.788a235.616,235.616,0,0,1,29.291,2.551l-1.023,3.715a282.349,282.349,0,0,1-29.73-6.39C.407,9.9.75,6.688,2.88,6.795A209.488,209.488,0,0,1,30.6,9.925c-.326,1.2-.658,2.388-.989,3.586L1.908,7.553C-.183,7.11.722,4.019,2.785,4.378a104.427,104.427,0,0,0,11.8,1.416q2.681.157,5.373.185c.652,0,4.221.354,4.547-.332L25.63,8.408A151.333,151.333,0,0,1,.868,2.439,1.239,1.239,0,0,1,1.526.051Z" transform="translate(1.217 7.377)" fill="#ffd500"/><path d="M8.546,5.193l-.27-.146a1.006,1.006,0,0,1-.455-1.124l.067-.365A1.012,1.012,0,0,1,8.6,2.849c2.1-.534,5.058,1.248,6.969,1.973l9.666,3.653c1.866.708,1.124,3.608-.843,3.046C17.644,9.616,11.013,7.295,4.342,5.159A1.383,1.383,0,0,1,5.078,2.5c5.457,1.028,10.863,2.433,16.3,3.7L20.134,9.138c-4.62-3-9.768-4.563-15.011-6.041C3.122,2.535,4-.275,5.966.034A64.815,64.815,0,0,1,25.473,6.5c1.737.9.562,3.934-1.354,3.22C17,7.109,9.838,4.44,2.156,4.417Q2.392,2.664,2.634.9c8.16,2.383,16.337,4.687,24.52,6.986a1.952,1.952,0,0,1,1.158,2.849c-2,2.619-4.828,1.658-7.7,1.231A103.637,103.637,0,0,0,6.961,10.841c.337-1.248.674-2.5,1.017-3.749,2.664,1.652,6.536,1.888,9.554,2.557,3.271.714,6.536,1.433,9.807,2.13,2.029.433,1.843,3.372,0,3.934-2.849.826-6.058.489-8.992.511q-5.058.034-10.116.045l1.062-3.934c3.423,1.484,7.194,1.433,10.852,1.4a2.124,2.124,0,0,1,1.815,3.17c-1.568,3.04-6.907,2.012-9.711,2.079q.562-1.973,1.068-3.934A10.33,10.33,0,0,0,17.948,16.9c2.636.332,2.81,4.1,0,4.226a90.405,90.405,0,0,1-16.54-.708c-2.186-.3-1.686-4.069.528-3.878a123.772,123.772,0,0,0,16.011.36v4.226A14.764,14.764,0,0,1,11.2,18.692a2.131,2.131,0,0,1,1.062-3.934l3.692-.079,1.585-.034c1.124-.208,1.366-.163.8.135l1.821,3.17c-4.5.034-8.784-.163-12.977-1.984-2-.865-.877-3.934,1.062-3.934H17.24c2.883,0,6.261.506,9.048-.27V15.7c-3.625-.815-7.261-1.6-10.892-2.4-3.136-.691-6.677-1.012-9.447-2.731A2.031,2.031,0,0,1,6.967,6.811c3.164.051,6.322.225,9.475.562,1.225.135,2.45.287,3.67.466.764.107,4.558,1.27,5.165.511q.421,1.619.854,3.237Q13.924,7.9,1.684,4.322A1.8,1.8,0,0,1,2.161.8c8.008,0,15.517,2.625,22.9,5.491-.45,1.068-.9,2.141-1.354,3.215A58.926,58.926,0,0,0,5.157,3.063L6,0c5.5,1.512,11,3.108,15.77,6.328a1.621,1.621,0,0,1-1.236,2.945C15.144,7.93,9.7,6.71,4.376,5.131c.247-.888.489-1.776.736-2.664C11.822,4.44,18.6,6.244,25.265,8.447l-1.22,2.889c-1.433-.618-14.713-5.558-14.28-6.913L9.31,3.3l.253.174a.976.976,0,1,1-.983,1.686Z" transform="translate(18.857 12.446)" fill="#ffd500"/><path d="M8.669,2.683l7.829.433c1.545.09,1.557,2.5,0,2.417A54.216,54.216,0,0,1,.857,2.29,1.166,1.166,0,1,1,1.475.042c7.031.989,14,2,21.092,2.45,2.136.135,2.107,3.524,0,3.321-1.124-.112-2.248-.264-3.333-.483a1.281,1.281,0,0,1,0-2.45,20.74,20.74,0,0,1,3.333-.388V5.8A153.185,153.185,0,0,1,.857,2.262c.208-.742.41-1.489.618-2.248A55.756,55.756,0,0,0,16.5,3.077V5.493L8.669,4.965c-1.484-.1-1.5-2.405,0-2.321Z" transform="translate(3.42 6.604)" fill="#ffd500"/><path d="M1,.027A6.064,6.064,0,0,1,5.541,1.482a1.4,1.4,0,0,1,.112,1.855A1.45,1.45,0,0,1,3.833,3.7a11.453,11.453,0,0,0-1.439-.6,12.928,12.928,0,0,1-1.6-.433C.039,2.359-.41,1.128.534.69a5.176,5.176,0,0,1,4.726.562L3.574,3.466A3.709,3.709,0,0,0,1.028,2.022a1.006,1.006,0,0,1,0-2.006Z" transform="translate(27.201 11.745)" fill="#ffd500"/></g></g></svg>