<svg xmlns="http://www.w3.org/2000/svg" xmlns:xlink="http://www.w3.org/1999/xlink" width="203.208" height="280.757" viewBox="0 0 203.208 280.757"><defs><style>.a{fill:#fff;}.b{fill:#5cbef1;}.c{filter:url(#a);}</style><filter id="a" x="0" y="0" width="203.208" height="280.757" filterUnits="userSpaceOnUse"><feOffset dx="-4" dy="8" input="SourceAlpha"/><feGaussianBlur stdDeviation="6" result="b"/><feFlood flood-opacity="0.161"/><feComposite operator="in" in2="b"/><feComposite in="SourceGraphic"/></filter></defs><g transform="translate(20.094 21.245) rotate(-5)"><g transform="translate(0 0)"><g class="c" transform="matrix(1, 0.09, -0.09, 1, -18.17, -22.92)"><path class="a" d="M137.273,232.789c2.8,0,5.509-3.385,8.937-7.671l1.008-1.257a1.111,1.111,0,0,0,.163-.3.888.888,0,0,0,0-.819c-9.829-20.164-20.8-40.423-30.307-57.846a1.716,1.716,0,0,1,1.523-2.574,1.421,1.421,0,0,1,.266,0c3.17.485,6.255.884,9.168,1.184h0c.768,0,2.055-1.853,2.673-2.746.313-.455.6-.858.858-1.184,2.244-2.784,4.213-5.354,6.006-7.86.172-.24.129-.3.086-.373a1.559,1.559,0,0,1-.167-.339,2.271,2.271,0,0,1-.3-.39c-8.975-15.947-18.933-31.534-28.342-46a1.738,1.738,0,0,1,1.454-2.686,1.845,1.845,0,0,1,.262,0l5.5.832c.429.064.94.176,1.48.3a13.3,13.3,0,0,0,2.613.429,1.944,1.944,0,0,0,.523-.056c.94-.257,2.317-2.244,3.136-3.432.382-.545.729-1.047,1.038-1.433l.343-.429c1.665-2.081,3.385-4.23,4.874-6.435.2-.292.124-.39.039-.5C116.6,68.124,104.8,43.807,93.362,20.287Q88.9,11.106,84.416,1.964a.811.811,0,0,0-.566-.245C59.168,1.586,34.083.771,9.851,0H9.517a.429.429,0,0,0-.429.223,2.489,2.489,0,0,1-.279.365A124.673,124.673,0,0,1,.254,11.441a.805.805,0,0,0,.026,1.2c11.374,13.536,22.1,28.067,32.469,42.109q3.805,5.148,7.615,10.3a1.738,1.738,0,0,1-1.394,2.776h-.176l-15.3-1.575a1.953,1.953,0,0,1-.382-.082,1.226,1.226,0,0,1-.193.03c-.107.124-.382.352-.429.429C19.2,70.488,16.278,74.216,13.541,78a.944.944,0,0,0,.292.819c13.81,16.093,28.221,32.151,42.156,47.678l.317.356a1.716,1.716,0,0,1-1.287,2.9c-.056,0-15.793-1.51-15.793-1.51a1.339,1.339,0,0,1-.262-.047,1.427,1.427,0,0,1-.223.051l-.219.154-.06.056a143.015,143.015,0,0,0-9.074,11.549.815.815,0,0,0,.133.665c16.595,14.922,33.769,29.783,50.376,44.151q9.7,8.4,19.422,16.835l32.773,28.513c2.025,1.763,3.715,2.617,5.178,2.617Z" transform="translate(22 22.85) rotate(-5)"/></g><path class="b" d="M.691,15.5a2.518,2.518,0,0,1,0-3.467A124.673,124.673,0,0,0,9.216,1.219c.039-.052.082-.086.116-.133a2.145,2.145,0,0,1,2-1.081C36.086.811,60.85,1.618,85.617,1.751a2.428,2.428,0,0,1,2.115,1.214c14.66,29.8,28.745,60.257,45.477,88.937a2.055,2.055,0,0,1,.039,2.548c-1.63,2.424-3.479,4.719-5.3,6.985-1.206,1.5-3.037,4.887-5.067,5.444-1.514.429-3.861-.395-5.341-.618l-5.5-.832c9.868,15.149,19.564,30.422,28.423,46.129a1.828,1.828,0,0,1,.429.648,1.969,1.969,0,0,1-.142,2.317c-1.948,2.707-3.981,5.341-6.075,7.937-1.133,1.4-2.866,4.8-5.063,4.569-3.089-.317-6.178-.725-9.254-1.2,10.473,19.135,20.812,38.342,30.362,57.914a2.493,2.493,0,0,1,.069,2.145,2.63,2.63,0,0,1-.455.858c-6.32,7.851-9.893,13.257-17.616,6.53q-16.38-14.3-32.778-28.543C76.621,184.452,53.08,164.382,30.1,143.729a2.42,2.42,0,0,1-.382-2.969,140.978,140.978,0,0,1,9.1-11.584c.051-.069.107-.129.163-.193l.03-.039h.026a2.145,2.145,0,0,1,.648-.481,2.3,2.3,0,0,1,.309-.154h0a1.93,1.93,0,0,1,1.124-.026q7.813.746,15.629,1.5c-14.287-15.917-28.573-31.83-42.5-48.051a2.465,2.465,0,0,1-.382-2.969c2.857-3.96,5.869-7.765,9.01-11.485a1.939,1.939,0,0,1,.982-.884l.206-.1h.03a1.918,1.918,0,0,1,1.287,0q7.645.785,15.3,1.575C27.634,50.244,14.785,32.289.691,15.5ZM55.744,64.65c-.3.545-.656,1.064-.974,1.557-.6.935-1.2,1.888-1.841,2.806q3.243.309,6.487.6C58.194,67.958,56.967,66.311,55.744,64.65Zm-4.925,4.17c.832-1.343,1.858-2.574,2.8-3.861a11.871,11.871,0,0,1,1.24-1.514c-.982-1.33-1.956-2.664-2.935-3.994-.708,1.313-1.639,2.574-2.317,3.788-.742,1.343-1.356,3.677-2.467,5.088l.124.167c1.188.116,2.377.21,3.561.326Zm-28.05-48.36c-.592,1.652-1.48,3.282-2.042,4.719-.648,1.682-.935,4.02-1.759,5.809.914,1.2,1.819,2.4,2.733,3.6.5-1.051,1.137-2.059,1.489-2.75.858-1.716,1.575-5.071,3-6.976C25.052,23.408,23.919,21.928,22.769,20.461Zm4.839,6.277a42.646,42.646,0,0,1-2.145,5.118c-.588,1.381-1.33,2.75-1.913,4.166-.1.249-.176.485-.249.708l3,3.951c.356-.982.815-1.935,1.2-2.81a47.253,47.253,0,0,1,3.325-6.916C29.767,29.543,28.685,28.14,27.609,26.737Zm4.573,6.006c-.429,1.253-1.068,2.475-1.566,3.608-.734,1.669-1.562,3.269-2.184,4.994A13.452,13.452,0,0,0,28,42.907c1.034,1.369,2.076,2.724,3.11,4.093a31.591,31.591,0,0,1,1.673-3.522c.888-1.823,1.793-4.089,2.922-6.006-1.163-1.587-2.347-3.145-3.527-4.719Zm4.994,6.671c-.489,1.214-1.133,2.39-1.643,3.432a42.559,42.559,0,0,0-2.1,4.968c-.223.661-.322,1.15-.5,1.583l3.561,4.749c.824-1.871,1.66-3.737,2.574-5.577a43.083,43.083,0,0,1,2.076-3.793Zm5.234,7.079c-.755,1.656-1.647,3.286-2.36,4.839-.575,1.236-1.043,3.539-2.1,4.758q1.716,2.287,3.432,4.578a27.2,27.2,0,0,1,2.737-5.68,24.025,24.025,0,0,1,2.111-3.282Zm5.054,6.864c-.536.905-1.133,1.785-1.6,2.63-1.176,2.145-1.9,4.483-2.982,6.659l2.874,3.827a30.378,30.378,0,0,1,1.883-3.462,22.911,22.911,0,0,1,3.239-4.994ZM17.024,28.44c.523-1.716,1.4-3.475,1.918-4.775a23.48,23.48,0,0,1,2.373-5.054q-1.935-2.458-3.887-4.9a40.414,40.414,0,0,1-1.609,3.831A44.108,44.108,0,0,0,14.06,22.22c-.2.631-.283,1.218-.429,1.776l2.754,3.6ZM12.841,8.156A34.752,34.752,0,0,1,11.383,13.3a21.091,21.091,0,0,1-2.046,5.208c.824,1.047,1.652,2.085,2.463,3.145.382-1.18.957-2.342,1.339-3.269a35.3,35.3,0,0,1,3-6.268C15.059,10.79,13.957,9.473,12.841,8.156ZM5.462,13.768a1.017,1.017,0,0,1,.33.275c.828,1.013,1.626,2.055,2.437,3.08.395-1.472,1.158-2.96,1.609-4.247.691-1.943,1.244-3.96,2.094-5.843-.167-.2-.33-.4-.5-.6-1.339,1.806-2.7,3.591-4.119,5.35a13.755,13.755,0,0,1-1.832,1.978ZM87.389,13.3q-1.931-3.887-3.861-7.787c.253.511-24.523.708-27.484.639Q36.331,5.728,16.63,5.05C34.22,26.373,50.218,49.171,66.727,71.3c1.09,1.454-.369,3.831-2.115,3.69-11.292-.914-22.563-2.1-33.833-3.265C48.8,92.559,67.268,113.01,85.725,133.458c1.287,1.4.566,4.479-1.716,4.183-11.983-1.527-24.026-2.686-36.038-3.831,30.62,27.436,61.831,54.259,92.876,81.215-8.7-17.208-17.869-34.2-27.119-51.131h0l-7.933-14.527c-1.111-2.038.691-3.921,2.767-3.6,8.473,1.287,16.925,2.754,25.368,4.23C122.136,129.515,109,109.728,96.1,89.933c-.952-1.463.275-3.861,2.119-3.69,9.464.987,18.877,2.3,28.316,3.775C112.307,65.131,100.088,38.96,87.389,13.3ZM26.811,78.418c-.931,2.351-1.772,4.788-2.746,7.118.858,1,1.75,1.995,2.626,3a27.887,27.887,0,0,1,4.14-9.31c-1.025-1.18-2.055-2.36-3.076-3.544a20.909,20.909,0,0,1-.944,2.741Zm6.972,12.776a41.7,41.7,0,0,1,2.4-5.809c-1.493-1.716-2.973-3.432-4.462-5.148-.708,3.475-2.8,6.68-3.3,10.254q1.931,2.2,3.861,4.4c.4-1.3,1.051-2.6,1.5-3.685Zm7,5.148c-.485,1.866-.764,4.346-1.862,6.066.914,1.034,1.841,2.064,2.763,3.1a32.688,32.688,0,0,1,1.4-3.908c.742-1.768,1.5-3.793,2.471-5.577q-1.931-2.169-3.861-4.337a30.158,30.158,0,0,1-.914,4.646Zm11.584,21.151c.674-1.75,1.39-3.484,2-5.26.5-1.442.858-3.153,1.5-4.621-1.176-1.313-2.36-2.621-3.531-3.938a34.977,34.977,0,0,1-1.45,4.4c-.6,1.635-1.158,3.754-2.338,5.148q1.918,2.115,3.831,4.256Zm21.323,9.932c-.3.789-.7,1.562-.935,2.2a12.907,12.907,0,0,1-.686,1.716c1.922.21,3.861.429,5.766.669Zm-1.21-1.33-4.8-5.32c-.459,1.785-1.437,3.668-1.926,5.2-.429,1.36-.708,3.068-1.227,4.569q2.87.3,5.74.609A14.483,14.483,0,0,1,72.476,126.1Zm-8.495-1.553c.523-1.54,1.2-3.8,2.42-5.183q-1.974-2.2-3.947-4.4a30.168,30.168,0,0,1-1.218,3.149c-.858,2.145-1.6,4.393-2.493,6.534,1.287,1.416,2.527,2.84,3.8,4.256.4-1.557,1.047-3.128,1.459-4.359Zm-5.517-5.552a58.151,58.151,0,0,1,2.338-5.873l-3.342-3.728c-.257,1.188-.686,2.368-1.021,3.406a46.229,46.229,0,0,1-2.514,6.435c1.047,1.171,2.089,2.347,3.136,3.514a30.96,30.96,0,0,1,1.42-3.754ZM48.9,108.214c.811-1.866,1.472-3.861,2.415-5.685-1.433-1.6-2.853-3.222-4.29-4.831-.3.94-.686,1.862-1.043,2.754a39.5,39.5,0,0,0-2.433,7.165l3.934,4.415a18.039,18.039,0,0,1,1.433-3.818ZM44.8,150.164c1.193-3.115,2.433-6.217,3.694-9.3-1.5-1.339-3-2.669-4.5-4.007a29.175,29.175,0,0,1-1.347,5.075,50.347,50.347,0,0,1-1.5,5.024Zm11.056,9.675a55.344,55.344,0,0,0,2.355-5.35c.429-1.193.785-2.574,1.326-3.805l-4.183-3.72c-.545,1.716-1.326,3.432-1.866,4.977a25.06,25.06,0,0,1-1.716,4.329Zm5.406,4.719a48.57,48.57,0,0,0,2.639-5.522c.429-1.064.759-2.265,1.244-3.368-1.39-1.227-2.763-2.467-4.153-3.694-.3,1.321-.747,2.634-1.133,3.81a22.069,22.069,0,0,1-2.39,5.462Zm5.6,4.882c.686-1.841,1.364-3.69,2.115-5.509a22.113,22.113,0,0,1,1.643-3.462c-1.377-1.206-2.759-2.4-4.132-3.612-.335,1.416-.858,2.832-1.257,4.093a15.874,15.874,0,0,1-2.45,4.938Zm10.726,9.353c.549-1.287,1.188-2.518,1.738-3.775a31.748,31.748,0,0,1,2.373-4.874L77.985,166.9c-.339,1.094-.824,2.145-1.171,3.072a26.5,26.5,0,0,1-2.621,5.861Zm54.667,47.575a41.816,41.816,0,0,1,1.9-4.209c.747-1.467,1.287-3.162,2.1-4.642l-4.247-3.685a32.988,32.988,0,0,1-1.579,3.467c-.777,1.609-1.394,3.741-2.39,5.4Zm6.157.309a22.987,22.987,0,0,1,2.643-5l-3.432-3a21.394,21.394,0,0,1-1.107,2.849c-.905,2.055-1.943,4.046-2.737,6.144l2.982,2.574c.438-1.266,1.193-2.557,1.652-3.565Zm-10.4-8.8a57.9,57.9,0,0,1,2.626-5.234q-2.145-1.866-4.29-3.737a37.751,37.751,0,0,1-1.742,4.011,49.742,49.742,0,0,1-2.145,4.912l3.861,3.355a34.553,34.553,0,0,1,1.69-3.308Zm-5.53-5.148a36.152,36.152,0,0,1,2.424-5.045l-3.956-3.432a37.857,37.857,0,0,1-1.514,3.861,48.049,48.049,0,0,1-2.179,5.2l3.432,3c.545-1.231,1.231-2.428,1.793-3.6Zm-5.187-3.75c.858-1.841,1.6-3.836,2.6-5.642q-2.107-1.823-4.2-3.638a33.035,33.035,0,0,1-1.575,3.467c-.7,1.51-1.386,3.029-1.943,4.6-.124.339-.2.639-.27.914l3.891,3.389c.429-1.06,1.012-2.085,1.489-3.1Zm-5.873-4.346a50.891,50.891,0,0,1,2.844-6.174l-4.132-3.587a28.261,28.261,0,0,1-1.811,3.771c-.729,1.424-1.317,3.475-2.394,4.822q2.145,1.866,4.29,3.728c.348-.922.867-1.841,1.2-2.57Zm-4.767-6.006c.789-1.463,1.48-3.2,2.385-4.694l-4.29-3.737c-.36.892-.8,1.759-1.18,2.574-.819,1.759-1.635,4.367-2.9,6.127l4.093,3.561a16.394,16.394,0,0,1,1.892-3.848Zm-5.243-4.977c.746-1.42,1.321-3.05,2.016-4.582l-3.685-3.192a25.8,25.8,0,0,1-1.21,3.042,46.984,46.984,0,0,1-2.608,5.86l3.432,2.969a23.611,23.611,0,0,1,2.055-4.114Zm-5.093-3.969c.751-1.575,1.351-3.312,2.145-4.9L94.7,181.522c-.27.858-.661,1.695-1.008,2.518-.9,2.1-1.682,4.38-2.737,6.435l3.492,3.02c.506-1.343,1.3-2.63,1.871-3.831Zm-4.9-4.925c.618-1.377,1.18-3,1.974-4.385-1.377-1.193-2.741-2.394-4.114-3.591a46.119,46.119,0,0,1-1.75,4.346c-.635,1.587-1.133,3.239-1.716,4.852l3.733,3.256a33.966,33.966,0,0,1,1.875-4.5Zm-5.83-4.166a26.038,26.038,0,0,1,2.227-5.088q-2.574-2.252-5.148-4.518A34.235,34.235,0,0,1,81.3,174.91a55.629,55.629,0,0,1-2.145,5.234q2.514,2.2,5.032,4.389c.4-1.334.91-2.664,1.4-3.96ZM75.1,169.47c.455-1.15.824-2.613,1.381-3.913-1.472-1.287-2.952-2.574-4.423-3.861-.386,1.261-1,2.514-1.437,3.642-.721,1.841-1.381,3.707-2.038,5.577l4.162,3.63C73.377,172.825,74.454,171.1,75.1,169.47ZM50.566,154.257c.7-1.411,1.188-2.922,1.75-4.389A25.694,25.694,0,0,1,54.08,145.8l-4.093-3.638a82.37,82.37,0,0,1-3.634,9.336l3.861,3.4a7.129,7.129,0,0,0,.352-.622Zm64.676,2.188a30,30,0,0,1,1.459-3.033c.2-.386.4-.858.618-1.287l-4.869-.794Zm10.563,1.716a34.662,34.662,0,0,1,2.69-4.136c-1.206-.21-2.407-.429-3.612-.631a21.464,21.464,0,0,1-1.935,4.067,28.116,28.116,0,0,1-1.815,3.587c.94.142,1.879.283,2.823.408a20.093,20.093,0,0,1,1.849-3.3ZM107.356,95.682c.253-1.064.429-2.244.725-3.372q-2.484-.317-4.985-.6l3.754,5.745c.172-.644.378-1.261.511-1.776Zm19.521-.669c-1.677-.266-3.351-.532-5.032-.785a33.493,33.493,0,0,1-1.287,4.436c-.3.91-.463,2.008-.742,3.029l1.472.223c1.926-2.231,3.827-4.522,5.595-6.912Zm-9.01,6.384a24.405,24.405,0,0,1,.858-2.458,34.123,34.123,0,0,1,2.175-4.857q-2.368-.352-4.745-.691c-.227,1.5-.528,3-.858,4.475a20.8,20.8,0,0,1-.691,3.038Zm-5.492-.837c.223-1.111.824-2.308,1.051-3.213a20.782,20.782,0,0,1,1.36-4.157c-1.6-.227-3.213-.429-4.822-.639a25.449,25.449,0,0,1-.429,3,11.48,11.48,0,0,1-1.2,4.157c.056.082.112.167.163.253C109.8,100.161,111.089,100.367,112.376,100.56Zm17.813,59.691c1.424-1.716,2.789-3.467,4.132-5.238l-3.475-.6c-.768,1.48-1.918,2.857-2.763,4.2-.5.785-.957,2.059-1.549,3.149.528.064,1.051.142,1.579.2C130.3,162.215,128.679,162.057,130.189,160.251Zm-11.082.429a19.177,19.177,0,0,1,2.046-4.29,20.879,20.879,0,0,1,1.858-3.342c-1.214-.206-2.428-.395-3.638-.6-.2.631-.493,1.253-.691,1.793a17.765,17.765,0,0,1-1.935,4.076,1.034,1.034,0,0,1-.313.3c.322.588.639,1.18.965,1.768.553.116,1.137.2,1.708.3Zm26.248,64.732-2.947-2.553c-.566,1.4-1.54,2.84-2.046,3.969-.661,1.467-1.321,2.926-1.9,4.428l-.116.283C141.121,233.044,143.1,228.946,145.355,225.411ZM35.237,141.751l2.488,2.188,1.553,1.36c.348-1,.815-1.986,1.124-2.892a66.912,66.912,0,0,1,2.274-6.74c-.566-.511-1.141-1.012-1.716-1.523-1.33,1.527-2.613,3.085-3.81,4.719a32.171,32.171,0,0,0-1.913,2.874Zm1.991-41.238c.292-1.261.858-2.518,1.223-3.707a56.314,56.314,0,0,1,2.089-6.435c-1.06-1.206-2.124-2.4-3.183-3.6a25.055,25.055,0,0,1-1.424,4.084c-.541,1.437-1.068,2.866-1.514,4.333-.18.592-.275,1.167-.4,1.716l.4.455c.935,1.047,1.879,2.089,2.814,3.145ZM21.255,82.352c.5.575,1,1.141,1.506,1.716a29.66,29.66,0,0,1,1.5-3.9c.635-1.493,1.223-3,1.828-4.509a13.3,13.3,0,0,0,.429-1.373c-.532-.618-1.068-1.223-1.6-1.841-1.686,2-3.329,4.037-4.882,6.144-2.025,2.647-1.12,1.051,1.214,3.75Zm95.733.455c-8.825-21.666-19.971-42.9-31.233-63.423-.073-.129-.3-.039-.245.107,8.533,21.756,19.624,43.109,30.916,63.552C116.593,83.343,117.121,83.137,116.988,82.807ZM85.06,17.208a4.181,4.181,0,0,0-.609-2.4,2.574,2.574,0,0,0-1.287-1.562.27.27,0,0,0-.4.232c-.026,1.184.708,3.625,2.055,3.861a.2.2,0,0,0,.245-.129Zm-10.134,99.14c-7.4-11.875-17.277-22.52-27.136-32.383-.193-.193-.472.094-.3.3,9.138,10.7,18.053,21.563,27.132,32.314.142.172.425-.047.3-.227ZM46.486,82.519c-.382-1.287-1.326-2.87-2.759-3.106a.275.275,0,0,0-.33.33c.223,1.347,1.673,2.334,2.75,3.038a.232.232,0,0,0,.339-.257ZM117.228,188.9a291.873,291.873,0,0,0-35.236-31.087c-.339-.253-.716.283-.429.571,10.8,11.223,23.489,20.774,35.318,30.89a.255.255,0,0,0,.348-.373ZM79.512,156.535a.262.262,0,0,0,.249-.249c.12-1.317-1.815-2.506-2.93-2.729-.193-.039-.429.129-.356.352C76.882,154.948,78.26,156.672,79.512,156.535Z"/></g></g></svg>