<svg id="Layer_1" data-name="Layer 1" xmlns="http://www.w3.org/2000/svg" width="2159.4166" height="2891.4866" viewBox="0 0 2159.4166 2891.4866"><defs><style>.cls-1{opacity:0.3;}.cls-2{fill:#371a45;}.cls-3{fill:#f92323;}.cls-4{opacity:0.7;}.cls-5{fill:#fff;}.cls-6{opacity:0.35;}.cls-7{fill:#ff2261;}.cls-8{opacity:0.6;}.cls-9{fill:#33aef1;}.cls-10{fill:#421861;}.cls-11{fill:#ffce00;}.cls-12{fill:#111a28;}</style></defs><title>about-us</title><g class="cls-1"><ellipse class="cls-2" cx="902.7747" cy="2753.9866" rx="890" ry="137.5"/></g><path class="cls-3" d="M455.1313,1364.784c-8.7242-76.7915-96.0745-273.0451-179.5852-365.9372,0,0,271.65,129.8033,510.4147,129.8033" transform="translate(-99.2253 -103.5134)"/><g class="cls-4"><path class="cls-5" d="M718.6351,1176.6916c-187.9317-28.6944-344.4827-114.968-353.2795-107.56s84.7929,175.1492,102.071,278.2144l-12.3121,17.4548c-8.7234-76.829-96.0027-272.997-179.518-365.9,4.2068,1.9927,273.44,129.7454,510.3468,129.7454Z" transform="translate(-99.2253 -103.5134)"/></g><g class="cls-6"><path class="cls-2" d="M661.9988,1217.1209,515.6919,1321.5372c-33.034-64.6512-92.8916-186.6844-87.8609-203.2426S494.0637,1181.8154,661.9988,1217.1209Z" transform="translate(-99.2253 -103.5134)"/></g><path class="cls-2" d="M455.1106,1381.2722a16.4894,16.4894,0,0,1-16.3623-14.629c-8.1055-71.3549-91.6944-263.5937-175.4639-356.7724A16.4874,16.4874,0,0,1,282.65,983.97c2.6856,1.2817,271.1524,128.1909,503.3106,128.1909a16.4893,16.4893,0,0,1,0,32.9785c-174.6143,0-363.457-66.87-457.51-105.271,73.086,105.4078,135.6445,257.7491,143.0615,323.0542a16.4834,16.4834,0,0,1-14.5214,18.2422A16.2875,16.2875,0,0,1,455.1106,1381.2722Z" transform="translate(-99.2253 -103.5134)"/><path class="cls-3" d="M1503.8793,1364.784c8.7242-76.7915,96.0745-273.0451,179.5853-365.9372,0,0-271.65,129.8033-510.4148,129.8033" transform="translate(-99.2253 -103.5134)"/><g class="cls-4"><path class="cls-5" d="M1240.3755,1176.6916c187.9317-28.6944,344.4827-114.968,353.2795-107.56s-84.7929,175.1492-102.071,278.2144l12.3121,17.4548c8.7234-76.829,96.0027-272.997,179.518-365.9-4.2068,1.9927-273.44,129.7454-510.3468,129.7454Z" transform="translate(-99.2253 -103.5134)"/></g><g class="cls-6"><path class="cls-2" d="M1297.0118,1217.1209l146.3069,104.4163c33.034-64.6512,92.8916-186.6844,87.8609-203.2426S1464.9469,1181.8154,1297.0118,1217.1209Z" transform="translate(-99.2253 -103.5134)"/></g><path class="cls-2" d="M1503.9,1381.2722a16.2845,16.2845,0,0,1-1.88-.1075,16.4847,16.4847,0,0,1-14.5215-18.2422c7.4218-65.3125,69.98-217.6513,143.0615-323.0566-94.0527,38.4033-282.8955,105.2734-457.51,105.2734a16.4893,16.4893,0,0,1,0-32.9785c232.1582,0,500.625-126.9092,503.3106-128.1909a16.4874,16.4874,0,0,1,19.3652,25.9009c-83.7646,93.1714-167.3535,285.4126-175.4639,356.7749A16.4929,16.4929,0,0,1,1503.9,1381.2722Z" transform="translate(-99.2253 -103.5134)"/><path class="cls-7" d="M1359.5914,1282.8373c-198.8789-.3684-396.3-48.061-396.3-48.061l-7.99-.0286s-197.6389,45.6451-396.5161,44.59c0,0-101.6867,645.8453-394.869,1153.1565,0,0,273.27,68.0555,565.022-32.5965,0,0,103.0164,69.2323,227.4838,69.6777s227.8042-68.0485,227.8042-68.0485c291.2785,102.7383,564.861,36.64,564.861,36.64C1458.2708,1928.7658,1359.5914,1282.8373,1359.5914,1282.8373Z" transform="translate(-99.2253 -103.5134)"/><path class="cls-3" d="M1749.0708,2438.145s-29.3588,7.0852-79.043,13.0188c-102.025,12.1775-289.9123,19.44-485.8146-49.64,0,0-103.3094,68.5037-227.7852,68.061s-227.4752-69.6994-227.4752-69.6994c-195.9023,67.574-383.48,59.116-485.5492,46.23-49.994-6.2882-79.4857-13.6388-79.4857-13.6388,293.1893-507.2914,394.86-1153.14,394.86-1153.14,198.8691,1.0627,396.5427-44.5917,396.5427-44.5917l7.9707.044s197.408,47.6915,396.3214,48.0458C1359.613,1282.835,1458.2728,1928.7725,1749.0708,2438.145Z" transform="translate(-99.2253 -103.5134)"/><g class="cls-4"><path class="cls-5" d="M1749.0708,2438.145s-9.255,2.2584-26.2147,5.2695c-261.8822-420.72-367.7156-922.0338-367.7156-922.0338-196.6993-.31-391.9376-40.6063-391.9376-40.6063l-7.882-.0443s-195.46,38.5692-392.1146,37.6838c0,0-104.505,501.2248-368.3353,920.3511-19.9711-3.5425-30.9531-6.2879-30.9531-6.2879,293.1893-507.2914,394.86-1153.14,394.86-1153.14,198.8691,1.0627,396.5427-44.5917,396.5427-44.5917l7.9707.044s197.408,47.6915,396.3214,48.0458C1359.613,1282.835,1458.2728,1928.7725,1749.0708,2438.145Z" transform="translate(-99.2253 -103.5134)"/></g><g class="cls-6"><path class="cls-2" d="M1670.0278,2451.1638c-102.025,12.1775-289.9123,19.44-485.8146-49.64,0,0-103.3094,68.5037-227.7852,68.061s-227.4752-69.6994-227.4752-69.6994c-195.9023,67.574-383.48,59.116-485.5492,46.23,262.5022-394.9043,353.5011-894.978,353.5011-894.978,179.6953.8856,358.2392-34.6281,358.2392-34.6281h7.262s178.3669,37.2851,358.0622,37.6394C1320.4681,1554.1492,1409.2529,2054.4,1670.0278,2451.1638Z" transform="translate(-99.2253 -103.5134)"/></g><path class="cls-2" d="M957.6448,2486.0646c-.43,0-.8545,0-1.2842-.0024-110.7276-.3931-203.6866-52.1509-229.585-68.01-290.0683,97.39-555.5859,33.2471-566.8457,30.4419l-21.2451-5.2905,10.9521-18.9575C437.8547,1925.53,541.4826,1283.2033,542.4934,1276.7726l2.207-13.9965,14.17.0756c194.4629.8448,390.7618-43.7158,392.72-44.1674l1.86-.43,11.8262.039,1.8848.4541c1.9531.4737,197.93,47.2412,392.4609,47.6l14.1357.0269,2.1338,13.9722c.9815,6.4306,101.6211,648.8671,387.5147,1149.646l10.874,19.05-21.3232,5.1514c-11.2647,2.7222-277.07,64.9756-566.6895-34.4995C1160.3791,2435.3176,1067.7961,2486.0646,957.6448,2486.0646ZM731.3215,2381.6335l6.8164,4.58c.9766.6567,100.6006,66.4526,218.34,66.8725.3808.0025.7617.0025,1.1425.0025,117.2364,0,216.5186-64.6582,217.51-65.315l6.8408-4.5141,7.7393,2.7172c237.0263,83.6011,464.2627,53.11,533.8574,40.5152-257.334-461.6968-361.7725-1031.565-377.9932-1127.27-183.3545-2.3438-363.6621-43.169-384.2285-47.9639l-4.2383-.0146c-20.4492,4.5532-200.9765,43.5693-384.39,44.5825-16.6895,95.791-123.7891,665.3442-383.2422,1125.1513,69.5459,13.0591,296.9385,45.1514,534.0869-36.665Z" transform="translate(-99.2253 -103.5134)"/><g class="cls-8"><path class="cls-5" d="M2241.1917,1065.2568c-17.9892,41.0262-47.9885,69.1276-79.47,88.3362,23.4579-37.0183,39.1357-80.7139,28.4894-125.1825-18.9792-79.0807-147.96-110.5339-239.585-128.6678,13.3474-6.8444,55.7323-28.56,60.2683-30.5459C2063.4482,846.3333,2292.6268,947.8794,2241.1917,1065.2568Z" transform="translate(-99.2253 -103.5134)"/></g><path class="cls-5" d="M2234.786,1070.2226c-1.0023,2.2359-2.0042,4.4719-3.105,6.6258-.8272,1.7471-1.6413,3.4388-2.5535,5.0483-.6921,1.4262-1.4267,2.7833-2.2172,4.1272-1.2384,2.2388-2.5195,4.4085-3.7873,6.5228-1.1193,1.7367-2.1828,3.4871-3.3446,5.1548-1.9524,3.012-3.99,5.8859-6.1251,8.6774-1.1354,1.5565-2.3266,3.1-3.5042,4.5871-1.6156,2.09-3.3164,4.0427-5.0171,5.9952-1.6313,1.91-3.3056,3.7505-5.0357,5.5781s-3.4462,3.6-5.2189,5.358c-4.3011,4.2213-8.7295,8.2355-13.2724,11.987-1.3218,1.1-2.6433,2.2-4.0073,3.2308-2.6854,2.1307-5.4,4.1368-8.17,6.13-1.3508.975-2.7574,1.9371-4.164,2.8988-2.4546,1.6556-4.9655,3.2978-7.4627,4.8842q-1.242.7653-2.484,1.531c-5.0929,3.0906-10.2577,5.9876-15.3562,8.6055-1.2155.654-2.4868,1.2944-3.6891,1.8927-.6079.3266-1.2713.64-1.866.9116,0,0-.0558-.0133-.0133.0558-.3875.1434-.7324.356-1.12.5a280.898,280.898,0,0,1-30.6406,12.6929c-1.3564.5023-2.6435.9624-3.9735,1.3534-7.8781,2.6651-15.345,4.8385-22.2469,6.6161-2.2589.5828-4.5178,1.1656-6.6947,1.65-2.3147.5695-4.56,1.0965-6.6683,1.5387q-2.7034.5951-5.2,1.0625c-8.9593,1.76-15.8987,2.704-20.0905,3.24-.5972.0347-1.0831.0962-1.569.1574-1.8184.2164-2.8325.27-2.8325.27l-326.9253,207.88-401.569,255.3041-55.9822-384.3964s135.8182-73.6007,292.5262-158.027c61.8-33.2737,126.832-68.2536,188.0957-101.0066,29.9058-16.0481,58.9145-31.5435,86.238-46.1433,3.0256-1.5785,6.0088-3.2264,8.9787-4.8186,34.3965-18.3394,65.7969-34.9749,92.5153-49.0115,3.2325-1.7063,6.3405-3.3836,9.3662-4.9621,18.0291-9.4437,33.6271-17.58,46.173-24.0252,1.5339-.755,3.0257-1.5789,4.4906-2.2913l.1381-.0851q3.6069-1.7942,6.84-3.5006c3.745-1.8794,7.0759-3.5034,9.95-4.9413,1.1332-.5557,2.211-1.1245,3.206-1.595,2.9993-1.4673,5.3773-2.5517,7.092-3.3227C2057.0425,851.2991,2286.2211,952.8452,2234.786,1070.2226Z" transform="translate(-99.2253 -103.5134)"/><path class="cls-5" d="M2234.786,1070.2226c-1.0023,2.2359-2.0042,4.4719-3.105,6.6258-.8272,1.7471-1.6413,3.4388-2.5535,5.0483-.6921,1.4262-1.4267,2.7833-2.2172,4.1272-1.2384,2.2388-2.5195,4.4085-3.7873,6.5228-1.1193,1.7367-2.1828,3.4871-3.3446,5.1548-1.9524,3.012-3.99,5.8859-6.1251,8.6774-1.1354,1.5565-2.3266,3.1-3.5042,4.5871-1.6156,2.09-3.3164,4.0427-5.0171,5.9952-1.6313,1.91-3.3056,3.7505-5.0357,5.5781s-3.4462,3.6-5.2189,5.358c-4.3011,4.2213-8.7295,8.2355-13.2724,11.987-1.3218,1.1-2.6433,2.2-4.0073,3.2308-2.6854,2.1307-5.4,4.1368-8.17,6.13-1.3508.975-2.7574,1.9371-4.164,2.8988-2.4679,1.7114-4.9655,3.2978-7.4627,4.8842q-1.242.7653-2.484,1.531c-5.0929,3.0906-10.2577,5.9876-15.3562,8.6055-1.2155.654-2.4868,1.2944-3.6891,1.8927-.6079.3266-1.2713.64-1.866.9116a12.09,12.09,0,0,1-1.1333.5556,280.898,280.898,0,0,1-30.6406,12.6929c-1.3564.5023-2.6435.9624-3.9735,1.3534-7.8781,2.6651-15.345,4.8385-22.2469,6.6161-2.3279.6254-4.5736,1.1524-6.6947,1.65-2.3147.5695-4.56,1.0965-6.6683,1.5387q-2.7034.5951-5.2,1.0625c-8.9593,1.76-15.8987,2.704-20.0905,3.24-.5972.0347-1.0831.0962-1.569.1574-1.8184.2164-2.8325.27-2.8325.27l-326.9253,207.88c-25.6839-40.6763-39.389-81.6889-44.9561-121.0048-20.76-145.0064,68.0268-267.1211,68.0268-267.1211,29.9058-16.0481,58.9145-31.5435,86.238-46.1433,3.0256-1.5785,6.0088-3.2264,8.9787-4.8186,34.3965-18.3394,65.7969-34.9749,92.5153-49.0115,3.2325-1.7063,6.3405-3.3836,9.3662-4.9621,18.0291-9.4437,33.6271-17.58,46.173-24.0252,1.5339-.755,3.0257-1.5789,4.4906-2.2913l.1381-.0851q3.6069-1.7942,6.84-3.5006c3.745-1.8794,7.0759-3.5034,9.95-4.9413,1.1332-.5557,2.211-1.1245,3.206-1.595,2.9993-1.4673,5.3773-2.5517,7.092-3.3227C2057.0425,851.2991,2286.2211,952.8452,2234.786,1070.2226Z" transform="translate(-99.2253 -103.5134)"/><path class="cls-2" d="M1304.8615,1678.78a16.4981,16.4981,0,0,1-16.3183-14.1138l-55.9815-384.397a16.4855,16.4855,0,0,1,8.4668-16.8725c28.7305-15.5664,704.2823-381.47,756.8848-404.3531,44.0527-19.18,157.1436,24.6485,216.0693,83.7305,42.4073,42.5171,55.1612,90.1294,35.9082,134.065-50.4,115.0195-184.7753,135.3833-211.0107,138.2934l-725.1709,461.0718A16.4762,16.4762,0,0,1,1304.8615,1678.78Zm-38.0078-391.87,50.6543,347.8027,707.002-449.519a16.49,16.49,0,0,1,7.5879-2.5269c1.3818-.11,140.8349-12.3682,187.5879-119.0625,13.8232-31.54,4.0478-64.3579-29.0479-97.5415-57.8711-58.02-155.9082-87.07-179.57-76.78C1963.1672,910.1223,1353.3528,1240.0832,1266.8537,1286.9094Z" transform="translate(-99.2253 -103.5134)"/><path class="cls-2" d="M1997.0659,1005.4175c23.6475,2.0263,46.3489,8.103,68.396,16.8262a208.9647,208.9647,0,0,1,32.2241,16.1352c10.4554,6.4185,20.6958,13.87,29.7254,24.3433a62.7191,62.7191,0,0,1,11.6357,18.7817,46.8368,46.8368,0,0,1,2.7808,25.0855c-.4981,2.09-1.0462,4.1748-1.6406,6.2353a50.0556,50.0556,0,0,1-1.9532,5.1392,48.0082,48.0082,0,0,1-2.2668,4.8584,43.6421,43.6421,0,0,1-2.6831,4.7851,57.7779,57.7779,0,0,1-15.5689,16.8946,55.5565,55.5565,0,0,1-21.2219,9.1137,74.5409,74.5409,0,0,1-21.3281,1.0547,102.2218,102.2218,0,0,1-19.596-3.706c-3.1286-.9131-6.2121-1.9043-9.26-3.0176a101.3309,101.3309,0,0,1-9.4263-3.9795l21.5381-13.1323c-.0037,3.3935-.155,5.7251-.36,8.5009-.2051,2.6685-.48,5.3028-.813,7.93a150.6059,150.6059,0,0,1-2.8174,15.6372,131.3649,131.3649,0,0,1-11.0351,30.4395,98.7509,98.7509,0,0,1-20.3,26.8994,89.1729,89.1729,0,0,1-29.0674,18.0713c-10.59,4.2993-21.7383,5.81-32.4536,6.44-10.8191.7471-21.2659-.72-31.4-2.6587-4.967-1.2866-9.956-2.4951-14.7485-4.1455-4.7412-1.792-9.5337-3.3691-14.0418-5.61a139.8451,139.8451,0,0,1-25.7739-15.2271,2.5,2.5,0,0,1,1.648-4.5019l.0537.0048c19.74,1.3624,38.23,3.75,56.0693,4.1822,17.6831.1733,34.8047-.8594,49.0344-7.2754,14.1944-6.1939,25.4053-16.836,33.2557-31.0034a104.57,104.57,0,0,0,9.2248-23.0347,120.8275,120.8275,0,0,0,2.7222-12.4731c.35-2.1.6421-4.2139.8569-6.3038.221-1.98.3967-4.4189.4431-5.8032l.0208-.6128a14.692,14.692,0,0,1,15.17-14.1992,14.9592,14.9592,0,0,1,6.3488,1.68c1.5137.7959,4.1089,1.97,6.2915,2.8369,2.29.92,4.63,1.7359,6.9825,2.4341a73.3278,73.3278,0,0,0,13.9953,2.83c9.1675.8545,17.3206-.752,22.7088-5.1148a26.6661,26.6661,0,0,0,7.0788-8.4839,19.16,19.16,0,0,0,1.3782-2.7514,23.1664,23.1664,0,0,0,1.2244-2.9614,22.6964,22.6964,0,0,0,.9606-2.9078,14.7207,14.7207,0,0,1,.4627-2.0727,17.91,17.91,0,0,0-1.51-8.4668,38.9435,38.9435,0,0,0-6.5222-10.0855,102.2677,102.2677,0,0,0-10.1636-10.2172c-3.8916-3.2471-7.876-6.5528-12.19-9.67-8.5816-6.2231-17.7662-12.163-27.2046-17.9492-18.8648-11.6479-38.6255-22.7978-58.3374-35.19l-.0684-.0415a2.4637,2.4637,0,0,1,1.5222-4.541Z" transform="translate(-99.2253 -103.5134)"/><path class="cls-2" d="M2071.1162,966.936c3.2678,12.9981,5.9863,25.19,9.2078,36.6993,1.5161,5.769,3.4411,11.2793,4.7876,16.7236,1.2121,5.5273,2.8381,10.6738,3.1164,16.4233l.0769,1.5869a14.6481,14.6481,0,0,1-27.2253,8.1885,54.3876,54.3876,0,0,1-6.7578-20.271,81.1183,81.1183,0,0,1,.0427-20.9887,109.5672,109.5672,0,0,1,4.2029-20.2247,82.3318,82.3318,0,0,1,8.5-18.9111,2.2143,2.2143,0,0,1,4.0149.64Z" transform="translate(-99.2253 -103.5134)"/><path class="cls-2" d="M1706.4192,1419.3508a12.3587,12.3587,0,0,1-10.4688-5.7691c-51.1426-81.0473-63.2617-176.3452-35.0342-275.5908,21.1719-74.4507,57.0508-124.3457,58.5645-126.4331a12.366,12.366,0,0,1,20.0146,14.5288c-1.3818,1.9116-136.9921,193.0713-22.6269,374.2969a12.3672,12.3672,0,0,1-10.4492,18.9673Z" transform="translate(-99.2253 -103.5134)"/><g class="cls-6"><path class="cls-2" d="M2134.4052,1169.9686s-.0558-.0133-.0133.0558c-.3875.1434-.7324.356-1.12.5a280.898,280.898,0,0,1-30.6406,12.6929c-1.3564.5023-2.6435.9624-3.9735,1.3534-7.8781,2.6651-15.345,4.8385-22.2469,6.6161-2.3279.6254-4.5736,1.1524-6.6947,1.65-2.3147.5695-4.56,1.0965-6.6683,1.5387q-2.7034.5951-5.2,1.0625c-8.9593,1.76-15.8987,2.704-20.0905,3.24-.5972.0347-1.0831.0962-1.569.1574-1.8184.2164-2.8325.27-2.8325.27l-326.9253,207.88-401.569,255.3041-24.2784-166.7051,100.2888-88.599c87.8052-50.0458,175.9726-34.0752,255.7956-63.3721,17.6585-6.4811,33.8615-12.7327,45.9844-17.9816,92.8511-40.2018,158.6847-83.4128,158.6847-83.4128-44.6489-24.5631.5648-76.796.5648-76.796,136.09,22.2437,154.6286-76.9095,173.6211-82.472s109.9047,26.0986,109.9047,26.0986C2146.3512,1123.3838,2144.748,1146.5062,2134.4052,1169.9686Z" transform="translate(-99.2253 -103.5134)"/></g><path class="cls-5" d="M1554.7183,2764.1913c-.2657,2.5685-.62,5.0926-1.1071,7.5723-13.3288,75.3233-105.8331,102.2023-272.3326,81.4785-75.4116-9.3877-179.651-20.5025-207.15-77.7587-54.8652-114.2911,1.1511-345.5747-5.3582-493.7412v-.2657a644.179,644.179,0,0,1-135.7677,0c-.0443,1.1954-.0886,2.4355-.1329,3.6309-5.58,148.3,49.1969,376.9263-5.27,490.376-27.499,57.2562-131.6938,68.371-207.1057,77.7587-166.7205,20.7238-259.2251-6.2-272.4209-81.7442q-.6645-3.5866-1.0628-7.3066c-9.6093-92.0172,125.0073-134.7492,125.0073-134.7492s-29.3588-195.3266-48.71-371.5235C475.2626,1820.1936,645.88,1293.1968,645.88,1293.1968h709.969s170.6616,526.9968,122.5717,964.7218c-19.3511,176.1969-48.6655,371.5235-48.6655,371.5235S1564.3273,2672.1741,1554.7183,2764.1913Z" transform="translate(-99.2253 -103.5134)"/><path class="cls-9" d="M551.47,2484.5117c11.4258,84.2334,20.5481,144.9317,20.5481,144.9317s-134.6167,42.7295-125.0073,134.7485q.3992,3.717,1.0632,7.3071c13.1958,75.5445,105.7007,102.4658,272.4207,81.7432,75.4114-9.3872,179.6069-20.5029,207.1057-77.7588,34.8779-72.6489,24.96-192.5195,14.78-308.2886C753.1572,2534.3408,617.1709,2507.4121,551.47,2484.5117Z" transform="translate(-99.2253 -103.5134)"/><path class="cls-9" d="M1429.7551,2629.4434s10.0916-67.251,22.3413-158.4131c-60.5676,23.0371-197.5964,55.8325-392.1081-10.9058-10.3894,117.9395-21.438,241.2451,14.1406,315.3589,27.4988,57.2559,131.7383,68.3716,207.15,77.7588,166.5,20.7226,259.0039-6.1548,272.3327-81.4795.4871-2.478.8411-5.0024,1.1072-7.5708C1564.3267,2672.1729,1429.7551,2629.4434,1429.7551,2629.4434Z" transform="translate(-99.2253 -103.5134)"/><g class="cls-6"><path class="cls-2" d="M764.0338,2213.2932s125.3328,20.1578,222.1287,20.1578,251.7251-20.1578,251.7251-20.1578-93.0161,71.2722-241.32,68.2018C844.5483,2278.3477,764.0338,2213.2932,764.0338,2213.2932Z" transform="translate(-99.2253 -103.5134)"/></g><g class="cls-6"><path class="cls-2" d="M927.6005,2775.4834c-27.499,57.2562-131.6938,68.371-207.1057,77.7587-166.7205,20.7238-259.2251-6.2-272.4209-81.7442,136.4763,51.7211,377.0587,22.1852,418.1966-43.44,53.2707-84.9767,61.9057-169.909-20.9455-275.7867-82.8066-105.8332-89.2275-244.0365-89.2275-244.0365,39.5879,27.809,121.0218,58.0092,176.7726,76.873C927.2905,2433.4071,982.067,2662.0337,927.6005,2775.4834Z" transform="translate(-99.2253 -103.5134)"/></g><g class="cls-6"><path class="cls-2" d="M1553.6112,2771.7636c-13.3288,75.3233-105.8331,102.2023-272.3326,81.4785-75.4116-9.3877-179.651-20.5025-207.15-77.7587-54.8652-114.2911,1.1511-345.5747-5.3582-493.7412,46.1415-13.7718,131.5611-41.9349,176.5512-73.5078,0,0,22.6722,99.3682-73.8176,235.18-77.8473,109.5973-83.5152,196.788-30.2445,281.7206C1179.0323,2785.4025,1403.5847,2810.1558,1553.6112,2771.7636Z" transform="translate(-99.2253 -103.5134)"/></g><path class="cls-2" d="M651.126,1294.9c-12.2852,54.917-24.6338,109.8193-36.2268,164.7632-2.9639,13.7256-5.9522,27.4365-8.6731,41.2085l-8.5791,41.2109c-5.31,27.5513-11.01,55.02-15.9741,82.6172l-7.3658,41.4038-3.7036,20.6983-3.23,20.769c-4.3664,27.6758-9.2431,55.2905-12.5915,83.0981-3.6609,27.7686-7.6563,55.503-10.271,83.3716l-4.419,41.7578c-1.5576,13.9161-2.1106,27.8931-3.2165,41.8384l-2.8235,41.8653c-.5933,6.9775-.6714,13.9624-.8643,20.9448l-.5517,20.9521-1.1109,41.9043c-.3271,6.99-.0488,13.96.0831,20.9351l.49,20.9253.9851,41.8506c-.0061,6.99.7409,13.9135,1.2548,20.8593l1.6456,20.8277,3.2812,41.6552c1.178,13.9014,3.0176,27.9224,4.5288,41.8775,13.01,111.7285,28.1214,223.4375,44.5239,334.7436L590.34,2640.71l-13.3374,4.4312c-5.1184,1.7017-11.1633,4.0552-16.6894,6.4111-5.63,2.4-11.2073,4.9683-16.67,7.7222a242.6962,242.6962,0,0,0-31.2244,18.6279c-19.4971,13.7574-36.32,30.9888-44.2273,50.8228a68.4752,68.4752,0,0,0-4.91,30.852,76.5227,76.5227,0,0,0,8.2251,30.6275c9.6033,18.4082,28.4156,31.5259,50.5542,39.3335,22.13,7.937,46.7517,11.5722,71.57,13.11a583.7717,583.7717,0,0,0,75.5285-.9179c25.3076-1.6773,50.6409-5,76.3477-8.2276,25.48-3.291,50.6762-6.9751,74.9756-12.6562,24.1565-5.6787,47.9223-13.3277,66.91-25.6055,9.4336-6.1108,17.34-13.4644,22.5512-21.9019a29.876,29.876,0,0,0,1.8348-3.2177,28.73,28.73,0,0,0,1.7565-3.5987l3.5181-8.0493c1.991-5.5957,4.148-11.1059,5.7019-16.958,1.8372-5.7031,3.0322-11.7212,4.4885-17.6172,1.0865-6.05,2.4195-12.0117,3.2019-18.1762,1.9483-12.2,2.9761-24.6973,3.86-37.2095,1.4746-25.11,1.3587-50.5591.4382-76.0889-1.9812-51.1157-6.9934-102.5122-11.45-154.26-4.309-51.7871-8.8183-103.9283-6.7724-157.4024l.6726-17.5732,17.7185,1.9311c10.5627,1.15,21.8542,1.9776,32.83,2.5513q16.5783.8643,33.1335.8862,16.5345-.0257,33.1336-.8862c10.9765-.5737,22.268-1.4014,32.83-2.5513l17.72-1.9311.6714,17.5732c2.0459,53.4741-2.4634,105.6153-6.7725,157.4024-4.4568,51.748-9.469,103.1445-11.45,154.26-.9192,25.53-1.0351,50.979.4383,76.0889.8837,12.5122,1.9128,25.01,3.86,37.2095.7837,6.1645,2.1155,12.1264,3.2031,18.1762,1.4551,5.896,2.65,11.9141,4.4873,17.6172,1.5552,5.8521,3.7122,11.3623,5.702,16.958l3.5192,8.0493a28.5635,28.5635,0,0,0,1.7566,3.5987,29.4913,29.4913,0,0,0,1.8347,3.2177c5.21,8.4375,13.1177,15.7911,22.55,21.9019,18.988,12.2778,42.7551,19.9268,66.91,25.6055,24.2993,5.6811,49.4958,9.3652,74.9756,12.6562,25.708,3.2276,51.04,6.55,76.3489,8.2276a583.769,583.769,0,0,0,75.5285.9179c24.8181-1.5381,49.4385-5.1733,71.5686-13.11,22.14-7.8076,40.951-20.9253,50.5542-39.3335a76.5434,76.5434,0,0,0,8.2263-30.6275,68.476,68.476,0,0,0-4.9108-30.852c-7.9065-19.834-24.73-37.0654-44.2273-50.8228a242.7706,242.7706,0,0,0-31.2232-18.6279c-5.4638-2.7539-11.04-5.3223-16.67-7.7222-5.5273-2.3559-11.5723-4.7094-16.6895-6.4111l-13.341-4.4336,2.0263-13.7305q22.6666-153.6291,41.3855-308.0053c2.9322-25.6543,6.233-51.5284,8.5193-77.0215,1.0706-12.7686,2.5879-25.4883,3.2972-38.2959l2.2766-38.4107c2.0947-51.2988,1.7956-102.749-.3589-154.1626-4.0271-102.8808-16.93-205.4492-34.458-307.08-8.7879-50.7154-17.9627-101.8677-27.3474-152.1314-10.4224-50.5078-20.304-101.3183-31.0669-151.8188l-.0159-.0757a5.5308,5.5308,0,0,1,10.3943-3.5474c11.4441,23.8086,20.3955,48.4741,28.8159,73.2178,8.252,24.81,15.8,49.7632,22.5085,75.0317,12.7491,51.1084,23.1116,101.8994,31.399,153.53,8.5119,51.4844,14.94,103.3057,20.6579,155.1978,2.8162,25.9546,5.1087,51.9726,7.3633,77.9956l2.6978,39.104c.9082,13.0346,1.3159,26.1108,1.997,39.1626,2.19,52.2485,2.5,104.6362.3577,157.0239l-2.3254,39.2773c-.7288,13.0933-2.2754,26.1524-3.3777,39.231-2.3572,26.1816-5.6311,51.7847-8.5889,77.6709q-18.5577,154.8852-41.521,309.0039l-11.3135-18.1616c7.18,2.3852,13.2032,4.7851,19.6045,7.4878,6.2891,2.6831,12.489,5.5395,18.5974,8.6181a275.177,275.177,0,0,1,35.4725,21.1841,189.31,189.31,0,0,1,31.9067,28.0005,126.187,126.187,0,0,1,23.86,37.4634,101.62,101.62,0,0,1,7.2045,45.2392,109.3347,109.3347,0,0,1-11.9482,43.8526,104.0967,104.0967,0,0,1-29.9121,34.6216,144.6405,144.6405,0,0,1-38.5669,20.3515c-26.76,9.5508-54.0064,13.32-80.8264,15.0318a615.838,615.838,0,0,1-79.85-.94c-26.427-1.7553-52.5219-5.188-78.2373-8.4131-25.9082-3.3545-52.0874-7.1386-78.2837-13.2544-26.0925-6.2548-52.6709-14.2578-77.4389-30.1123-12.2364-7.9541-24.0381-18.4326-32.5061-32.0874a57.2946,57.2946,0,0,1-2.9822-5.2148,49.8068,49.8068,0,0,1-2.5147-5.1245l-4.259-9.7656c-2.3889-6.5967-4.9084-13.1861-6.7029-19.8682-2.113-6.65-3.4729-13.3569-5.1-20.044-1.2256-6.6992-2.688-13.4033-3.551-20.1-2.1265-13.4033-3.23-26.7675-4.1663-40.0976-1.5649-26.6431-1.4209-53.0884-.4773-79.3482,2.0411-52.5,7.118-104.3359,11.5491-155.8618,4.314-51.4477,8.6353-102.8906,6.6834-153.103l18.3911,15.6421c-11.9751,1.3037-23.302,2.1118-34.9622,2.7319q-17.3785.9046-34.84.93-17.4683-.0257-34.84-.93c-11.6589-.62-22.987-1.4282-34.9609-2.7319l18.39-15.6421c-1.9507,50.2124,2.3706,101.6553,6.6846,153.103,4.43,51.5259,9.508,103.3618,11.5478,155.8618.9448,26.26,1.0877,52.7051-.4773,79.3482-.9363,13.33-2.0385,26.6943-4.1662,40.0976-.8618,6.6968-2.3243,13.4009-3.55,20.1-1.6272,6.6871-2.9883,13.3936-5.1014,20.044-1.7944,6.6821-4.3127,13.2715-6.7028,19.8682l-4.2578,9.7656a50.3044,50.3044,0,0,1-2.5147,5.1245,57.8917,57.8917,0,0,1-2.9822,5.2148c-8.4692,13.6548-20.271,24.1333-32.5061,32.0874-24.7693,15.8545-51.3476,23.8575-77.44,30.1123-26.1963,6.1158-52.3755,9.9-78.2824,13.2544-25.7154,3.2251-51.8116,6.6578-78.2373,8.4131a615.8569,615.8569,0,0,1-79.8511.94c-26.8189-1.7115-54.0662-5.481-80.8264-15.0318a144.6752,144.6752,0,0,1-38.5669-20.3515,104.0934,104.0934,0,0,1-29.9109-34.6216,109.3366,109.3366,0,0,1-11.9495-43.8526,101.6382,101.6382,0,0,1,7.2046-45.2392,126.19,126.19,0,0,1,23.8611-37.4634,189.2985,189.2985,0,0,1,31.9055-28.0005,275.2574,275.2574,0,0,1,35.4724-21.1841c6.11-3.0786,12.3084-5.935,18.5974-8.6181,6.4014-2.7027,12.4256-5.1026,19.6058-7.4878l-11.3147,18.1616c-16.4734-111.792-31.5967-223.5889-44.6717-335.8594-1.5234-14.07-3.3557-28.01-4.5642-42.1972l-3.37-42.649-1.68-21.3256c-.5237-7.1094-1.2806-14.2139-1.2793-21.3331l-1.0132-42.6928-.5115-21.3477c-.1721-7.1142-.4895-14.2334-.2-21.3354l.8875-42.6392.4467-21.3208c.1575-7.1069.2027-14.2212.76-21.2988l2.6246-42.5269c.9692-14.1626,1.3891-28.3887,2.8125-42.5049l4.02-42.3877,2.013-21.1938c.6115-7.0752,1.36-14.1284,2.3242-21.1548l5.5041-42.1948c7.2791-56.2695,16.9349-112.1729,27.9859-167.7612,2.5928-13.9331,5.9289-27.71,8.8562-41.57,3.0871-13.8257,5.8887-27.7124,9.2846-41.4673,6.8091-27.5,13.3411-55.0561,21.222-82.2753,15.2868-54.5508,32.2253-108.5962,53.5107-161.3257a5.51,5.51,0,0,1,10.4859,3.2641Z" transform="translate(-99.2253 -103.5134)"/><g class="cls-6"><path class="cls-2" d="M1486.2586,1933.9534a69.0589,69.0589,0,0,1-45.5658,25.2406c-57.61,6.9523-139.1331,11.8232-199.6221-4.7382-42.776,70.9395-119.2063,142.0559-254.93,184.7876-135.9449-42.776-212.3752-114.1138-255.1072-185.1419-60.5774,17.0043-142.9413,12.0891-200.9505,5.0925a67.3227,67.3227,0,0,1-15.0556-3.5868c.6641-44.4587,3.0111-88.9178,6.465-132.8008a68.5171,68.5171,0,0,1,16.8713-2.0814c1.063,0,2.2141,0,3.2771.0443,40.03,1.86,93.3013,3.1,141.3915,0-8.1037-51.588-3.0112-87.5891-3.0112-87.5891,78.1571-78.113,306.12-83.7812,306.12-83.7812s228.0065,5.6682,306.1636,83.7812c0,0,5.0925,36.0451-3.0554,87.6778,47.6915,2.9668,100.2539,1.7711,139.8861-.0887,1.0627-.0443,2.214-.0443,3.2768-.0443a69.2993,69.2993,0,0,1,49.2412,20.5911C1483.8675,1872.0033,1485.4616,1902.9562,1486.2586,1933.9534Z" transform="translate(-99.2253 -103.5134)"/></g><path class="cls-3" d="M768.5455,1893.3437c-61.3036,24.8172-156.1764,19.6241-220.8567,11.798a69.451,69.451,0,0,1-60.3093-79.1482v0a69.4334,69.4334,0,0,1,71.883-59.2572c60.4985,2.8349,151.2437,4.1628,208.712-8.5854" transform="translate(-99.2253 -103.5134)"/><g class="cls-4"><path class="cls-5" d="M559.2625,1797.6509c60.4983,2.8354,151.2437,4.1638,208.7115-8.5842l.463,109.4686c.0352-.015.0729-.0251.1082-.04l-.5712-135.1911c-57.4678,12.748-148.2132,11.42-208.7115,8.5842a69.4344,69.4344,0,0,0-71.8826,59.2567h-.0012a69.38,69.38,0,0,0,.5183,23.1285A69.3784,69.3784,0,0,1,559.2625,1797.6509Z" transform="translate(-99.2253 -103.5134)"/></g><g class="cls-6"><path class="cls-2" d="M768.5606,1893.3332c-61.3222,24.853-156.1962,19.6123-220.8682,11.8326a69.5809,69.5809,0,0,1-53.1642-101.1953,69.31,69.31,0,0,0,53.1642,36.739c64.5638,7.8345,159.2759,13.021,220.5981-11.67Z" transform="translate(-99.2253 -103.5134)"/></g><path class="cls-2" d="M646.6633,1928.0959c-35.4785,0-70.7519-2.93-100.957-6.5845a85.984,85.984,0,0,1,14.3261-171.2451c89.1065,4.1748,161.68,1.2549,204.375-8.2129,8.6036-1.9141,30.0635-2.002,42.6856,38.5938,12.793,41.15,11.3574,110.2832-32.3633,127.9809h0C738.7483,1923.1935,692.5373,1928.0959,646.6633,1928.0959Zm-90.708-144.9487a53.0081,53.0081,0,0,0-6.2842,105.625c92.4414,11.184,167.9834,7.3852,212.6856-10.7105h0c13.0859-5.2978,16.914-26.5088,17.9541-35.3809,3.6767-31.3989-5.83-60.581-11.8409-67.771-58.3154,12.2266-146.0888,11.2891-209.98,8.2959Q557.2151,1783.1472,555.9553,1783.1472Z" transform="translate(-99.2253 -103.5134)"/><path class="cls-3" d="M1237.4458,1893.3437c61.3036,24.8172,156.1764,19.6241,220.8567,11.798a69.451,69.451,0,0,0,60.3093-79.1482v0a69.4334,69.4334,0,0,0-71.883-59.2572c-60.4985,2.8349-151.2436,4.1628-208.712-8.5854" transform="translate(-99.2253 -103.5134)"/><g class="cls-4"><path class="cls-5" d="M1238.0168,1789.0667c57.4691,12.748,148.2133,11.42,208.7115,8.5842a69.3928,69.3928,0,0,1,70.84,53.9431,69.3564,69.3564,0,0,0-70.84-84.8583c-60.4982,2.8354-151.2424,4.1638-208.7115-8.5842l-.5711,135.1911c.0415.0176.088.03.1308.0478Z" transform="translate(-99.2253 -103.5134)"/></g><g class="cls-6"><path class="cls-2" d="M1458.2886,1905.1658c-64.6723,7.78-159.5463,13.02-220.8686-11.8326l.27-64.8883c61.3226,24.6907,156.0343,19.5042,220.5985,11.67a69.1328,69.1328,0,0,0,53.0019-36.4692,69.4738,69.4738,0,0,1-53.0019,101.52Z" transform="translate(-99.2253 -103.5134)"/></g><path class="cls-2" d="M1359.3244,1928.0959c-45.8789,0-92.08-4.9-128.0664-19.4678-43.7207-17.6977-45.1562-86.8286-32.3632-127.9761,12.6269-40.5981,34.0917-40.5029,42.69-38.5986,42.6953,9.4653,115.249,12.38,204.37,8.2129a85.9829,85.9829,0,0,1,14.3311,171.2451C1430.0862,1925.1638,1394.7981,1928.0934,1359.3244,1928.0959ZM1237.5227,1774.91c-6.0108,7.19-15.5225,36.3721-11.8457,67.771,1.04,8.8746,4.8681,30.0831,17.9541,35.3809h0c44.7021,18.1006,120.2392,21.9043,212.69,10.7105a53.007,53.007,0,0,0-8.8232-105.5665C1383.6067,1786.2014,1295.843,1787.1437,1237.5227,1774.91Z" transform="translate(-99.2253 -103.5134)"/><path class="cls-2" d="M1291.0969,2519.5827c-58.5156,0-134.38-11.0132-231.582-42.72A16.4888,16.4888,0,0,1,1069.74,2445.51c287.1484,93.66,371.2256-2.61,372.0361-3.5962a16.5864,16.5864,0,0,1,23.125-2.373,16.4027,16.4027,0,0,1,2.6465,22.9468C1464.9446,2465.7863,1420.384,2519.5827,1291.0969,2519.5827Z" transform="translate(-99.2253 -103.5134)"/><path class="cls-2" d="M697.6594,2526.6262c-61.6748,0-120.9863-11.0694-159.0967-44.6705a16.488,16.488,0,0,1,21.8067-24.7363c95.5908,84.2725,371.4306-2.4512,374.2041-3.34a16.489,16.489,0,0,1,10.0293,31.416C936.7414,2487.8029,813.0989,2526.6262,697.6594,2526.6262Z" transform="translate(-99.2253 -103.5134)"/><path class="cls-9" d="M986.1625,2082.2757c326.88-102.9066,287.5333-381.36,287.5333-381.36-73.3967-73.3966-287.5333-78.6933-287.5333-78.6933s-214.1366,5.2967-287.5332,78.6933C698.6293,1700.9158,659.2826,1979.3691,986.1625,2082.2757Z" transform="translate(-99.2253 -103.5134)"/><g class="cls-4"><path class="cls-5" d="M1274.6364,1747.5718c-.4427-6.4653-.93-10.0077-.93-10.0077-73.4189-73.3749-287.5652-78.6887-287.5652-78.6887s-214.1023,5.3138-287.5215,78.6887c0,0-.487,3.5424-.93,10.0077-1.6384-28.6061.93-46.6731.93-46.6731,73.4192-73.3749,287.5215-78.6885,287.5215-78.6885s214.1463,5.3136,287.5652,78.6885C1273.7063,1700.8987,1276.2748,1718.9657,1274.6364,1747.5718Z" transform="translate(-99.2253 -103.5134)"/></g><g class="cls-6"><path class="cls-2" d="M1273.6958,1700.9158a122.4173,122.4173,0,0,0-10.42-9.2344c-3.4554,77.2861-38.1888,243.1821-262.83,320.1935a44.1077,44.1077,0,0,1-28.5669,0c-224.6414-77.0113-259.3748-242.9074-262.83-320.1935a122.4173,122.4173,0,0,0-10.42,9.2344s-39.3465,278.4531,287.5334,381.36C1313.0423,1979.3689,1273.6958,1700.9158,1273.6958,1700.9158Z" transform="translate(-99.2253 -103.5134)"/></g><path class="cls-5" d="M1032.3434,1770.7333l57.5617,8.1207a9.46,9.46,0,0,1,5.31,16.1135l-41.4588,40.7488a9.46,9.46,0,0,0-2.6858,8.3843l10.0643,57.2538a9.46,9.46,0,0,1-13.6841,10.0291l-51.5659-26.8376a9.46,9.46,0,0,0-8.8039.0365l-51.3417,27.2641a9.46,9.46,0,0,1-13.7667-9.9152l9.5893-57.3353a9.46,9.46,0,0,0-2.7553-8.3618l-41.7952-40.4037a9.46,9.46,0,0,1,5.1758-16.1569l57.4924-8.5977a9.46,9.46,0,0,0,7.1011-5.2043l25.5107-52.235a9.46,9.46,0,0,1,16.9656-.07l25.943,52.0217A9.46,9.46,0,0,0,1032.3434,1770.7333Z" transform="translate(-99.2253 -103.5134)"/><path class="cls-2" d="M986.16,2099.5607l-4.9512-1.5576c-175.1855-55.1489-247.2314-160.5151-276.8262-239.1919-32.1338-85.437-22.5048-157.19-22.08-160.2026l.7714-5.4566,3.8965-3.894c77.168-77.17,289.77-83.2959,298.7793-83.5181l.41-.0122.41.0122c9.0088.2222,221.6162,6.3477,298.7842,83.5181l3.8965,3.894.7715,5.4566c.4248,3.0127,10.0537,74.7656-22.085,160.2026-29.5947,78.6768-101.6406,184.043-276.8262,239.1919ZM714.4221,1708.67c-1.3916,17.5049-3.4277,74.9487,21.3574,139.939,39.0576,102.41,123.2813,175.1806,250.3809,216.3574,127.1-41.1768,211.3232-113.95,250.3808-216.3574,24.78-64.9707,22.7539-122.4,21.3623-139.939-70.1513-62.793-261.5087-69.6362-271.7431-69.9536C975.926,1639.0334,784.5735,1645.8766,714.4221,1708.67Z" transform="translate(-99.2253 -103.5134)"/><path class="cls-5" d="M390.7663,2139.2855c-171.4373-34.9582-121.9086-196.1228-120.7557-199.949l.0525-.0525c-7.023-4.4548-13.7318-8.9621-20.2307-13.4173,0,0,231.8149-28.2494,276.7838-135.5354a85.6253,85.6253,0,0,0,4.14-11.845h.0525C667.6026,1981.9993,546.0085,2170.9418,390.7663,2139.2855Z" transform="translate(-99.2253 -103.5134)"/><path class="cls-5" d="M471.3218,1706.3455c.3984.3984.797.797,1.1513,1.1954,222.87,227.6968,91.53,467.0838-81.7,431.7468-173.4958-35.381-120.712-199.9761-120.712-199.9761-440.2488-280.2589,201.26-625.258,201.26-625.258,121.199-66.91,245.9406-109.1986,245.9406-109.1986L638.928,1444.33l-62.2158,190.2787C492.6213,1671.0972,471.3218,1706.3455,471.3218,1706.3455Z" transform="translate(-99.2253 -103.5134)"/><g class="cls-6"><path class="cls-2" d="M595.269,1479.7913l-18.5568,154.8178c-84.0909,36.4881-105.39,71.7364-105.39,71.7364.3984.3984.797.797,1.1513,1.1954-22.5395-18.5981-52.784-39.8535-84.5339-51.7653,0,0,58.54-32.1483,78.0687-55.13,84.2239-99.1469,62.4815-181.4224,141.6572-171.326C620.1082,1430.9131,603.4915,1462.7764,595.269,1479.7913Z" transform="translate(-99.2253 -103.5134)"/></g><path class="cls-2" d="M424.1535,2159.1725a183.3731,183.3731,0,0,1-36.66-3.74c-56.6846-11.5552-97.1289-37.4072-120.2149-76.8359-29.2822-50.0171-21.5869-107.168-16.1377-131.919C147.1955,1877.715,96.1506,1798.4523,99.3684,1710.94c7.9883-217.4414,349.59-403.6084,364.1308-411.4282,120.9571-66.748,247.2022-109.8315,248.462-110.2588a16.4879,16.4879,0,1,1,10.5859,31.2305c-1.2354.4175-124.8145,42.6172-243.2764,107.9858-3.5449,1.9116-339.6924,185.105-346.9531,383.7158-2.8418,77.7466,46.48,149.4825,146.5918,213.2154l10.7324,6.831-3.8867,12.1143c-.1953.62-20.332,66.062,10.0977,117.79,18.1738,30.8838,51.2207,51.4014,98.2324,60.9863,64.6924,13.1885,124.9365-15.559,157.207-75.0244,40.083-73.86,37.0313-199.3945-91.7334-330.2075l-8.999-9.1406,6.6455-10.9693c2.1631-3.5742,23.2666-35.93,96.5381-70.82a16.4886,16.4886,0,1,1,14.18,29.773c-41.5088,19.7632-63.7989,38.2251-74.4287,48.8891,131.0156,139.8706,131.3427,276.0913,86.7822,358.2032C547.5422,2124.1457,488.675,2159.1677,424.1535,2159.1725Z" transform="translate(-99.2253 -103.5134)"/><path class="cls-2" d="M462.2905,1717.8979c-5.6213-5.852-11.9128-11.8579-18.1189-17.5952q-9.3933-8.6535-19.2407-16.88c-13.1787-10.8814-26.908-21.1817-42.0557-29.7,16.9446,3.9576,33.5364,10.188,49.7193,17.1875q12.1161,5.3175,24.0173,11.2378c7.9724,3.9942,15.6836,7.9883,23.7122,12.6026Z" transform="translate(-99.2253 -103.5134)"/><path class="cls-2" d="M276.9561,1926.3623c6.84,4.1162,13.9465,8.5742,20.9179,12.9614l21.1023,13.2129,21.3172,13.1568c7.1569,4.392,14.4189,8.6181,21.8566,12.9809a183.9637,183.9637,0,0,1-25.6213-3.1274c-8.45-1.6065-16.7871-3.6573-25.04-5.9644-8.23-2.3486-16.4172-4.8657-24.4336-7.7905-8.0847-2.8735-15.9472-5.8618-23.9-9.5337Z" transform="translate(-99.2253 -103.5134)"/><g class="cls-1"><path class="cls-10" d="M390.7663,2139.2855c-171.4373-34.9582-121.9086-196.1228-120.7557-199.949l.0525-.0525s29.7695,159.54,184.75,115.7766c99.11-28.04,90.7239-167.716,71.8035-264.7293a85.6253,85.6253,0,0,0,4.14-11.845h.0525C667.6026,1981.9993,546.0085,2170.9418,390.7663,2139.2855Z" transform="translate(-99.2253 -103.5134)"/></g><path class="cls-3" d="M983.6611,1448.0058v51.854s-229.6893,32.99-352.6151-194.53c-17.3143-31.9715-32.4586-69.08-44.5918-112.1656l125.76,19.75s50.3483,83.648,122.0847,151.399C878.2706,1405.8939,930.3017,1441.4522,983.6611,1448.0058Z" transform="translate(-99.2253 -103.5134)"/><g class="cls-6"><path class="cls-2" d="M983.6611,1448.0058v51.854s-229.6893,32.99-352.6151-194.53c30.9528,33.61,119.4276,125.4056,160.3439,123.1475,37.4181-2.0371-43.8072-59.6577-39.9548-74.0493s94.687,99.5113,114.1267,66.1227c5.3139-9.1664-39.5435-24.0449-31.2629-56.2378C878.2706,1405.8939,930.3017,1441.4522,983.6611,1448.0058Z" transform="translate(-99.2253 -103.5134)"/></g><path class="cls-2" d="M952.4055,1513.9333a385.1942,385.1942,0,0,1-134.834-24.7656c-82.041-31.0938-190.8008-107.1045-243.0176-292.6514l-5.22-18.5547,150.4834,23.6206,2.9785,4.9439c1.2793,2.1264,129.6826,212.8808,262.3779,229.2187l10.8594,1.3355v73.4887l-10.61,1.5235A251.7543,251.7543,0,0,1,952.4055,1513.9333ZM603.9,1208.423c41.0645,130.5884,115.83,217.2144,222.4366,257.6172,64.3505,24.3872,121.9531,23.999,144.9609,22.5342v-29.9878c-129.9609-24.7559-246.05-201.4819-266.6357-234.3481Z" transform="translate(-99.2253 -103.5134)"/><path class="cls-3" d="M1255.1284,1212.9043S1123.9939,1430.74,983.6639,1448.0181v51.8342s298.8214,42.8993,397.208-306.686Z" transform="translate(-99.2253 -103.5134)"/><path class="cls-2" d="M1014.925,1513.9333a251.5841,251.5841,0,0,1-33.0176-1.8408l-10.61-1.5235V1437.08l10.8594-1.3355c132.69-16.3379,261.0986-227.0923,262.3828-229.2187l2.9736-4.9414,150.4834-23.6231-5.22,18.5547c-52.2217,185.5469-160.9815,261.5576-243.0225,292.6514A385.1906,385.1906,0,0,1,1014.925,1513.9333Zm-18.8916-25.3784c23.1592,1.44,81.4453,1.7944,145.9961-22.91,106.06-40.5884,180.4737-127.0752,221.4014-257.2217l-100.7617,15.8155c-20.586,32.8662-136.68,209.5922-266.6358,234.3481Z" transform="translate(-99.2253 -103.5134)"/><path class="cls-2" d="M609.9358,1429.8975c-4.5435,41.7968-10.0256,83.0761-15.8789,124.3457-3.009,20.6079-5.8289,41.25-9.6,61.6943-3.7317,20.4419-7.749,40.8789-13.2935,60.9106l-.0171.066a16.5425,16.5425,0,0,1-32.3962-6.13c2.1875-20.94,6.1926-41.4209,10.6335-61.8652,4.4287-20.4346,9.9439-40.647,15.5884-60.8277q8.529-30.26,18.3643-60.2026c6.7151-19.917,13.7378-39.7632,22.0422-59.187a2.3817,2.3817,0,0,1,4.5569,1.1963Z" transform="translate(-99.2253 -103.5134)"/><path class="cls-2" d="M154.2561,1847.1291a12.3684,12.3684,0,0,1-12.3682-12.334c-.1221-48.74,40.5078-99.3359,103.5108-128.8989,71.6845-33.6353,180.63-42.5781,271.3867,33.2226a12.3654,12.3654,0,1,1-15.85,18.9844c-81.836-68.352-180.2295-60.2319-245.0342-29.8169-54.3359,25.4956-89.38,67.2778-89.2774,106.4453a12.3693,12.3693,0,0,1-12.3388,12.3975Z" transform="translate(-99.2253 -103.5134)"/><g class="cls-6"><path class="cls-2" d="M983.6611,1448.0058v51.854s229.6892,32.99,352.6151-194.53c-30.9529,33.61-119.4277,125.4056-160.344,123.1475-37.4181-2.0371,43.8073-59.6577,39.9548-74.0493S1121.2,1453.94,1101.76,1420.5511c-5.3138-9.1664,39.5436-24.0449,31.2629-56.2378C1089.0515,1405.8939,1037.0205,1441.4522,983.6611,1448.0058Z" transform="translate(-99.2253 -103.5134)"/></g><path class="cls-11" d="M955.8508,1422.94l17.7979-37.6058a10.0924,10.0924,0,0,1,18.098-.2972l19.0229,37.0013a10.0922,10.0922,0,0,0,7.6885,5.3954l41.2651,5.306a10.0924,10.0924,0,0,1,5.8752,17.12l-29.3118,29.5258a10.0923,10.0923,0,0,0-2.7555,8.98l7.7053,40.885a10.0924,10.0924,0,0,1-14.4669,10.8782l-37.1386-18.7533a10.0926,10.0926,0,0,0-9.3916.1542l-36.5029,19.9624a10.0923,10.0923,0,0,1-14.8162-10.3973l6.3589-41.116a10.0925,10.0925,0,0,0-3.0488-8.8843l-30.2654-28.5476a10.0923,10.0923,0,0,1,5.31-17.304l41.0686-6.6578A10.0927,10.0927,0,0,0,955.8508,1422.94Z" transform="translate(-99.2253 -103.5134)"/><g class="cls-4"><path class="cls-5" d="M1065.5823,1449.8656l-11.6018,11.69a9.9133,9.9133,0,0,0-8.3691-7.2179l-41.2706-5.3139a9.9739,9.9739,0,0,1-7.7049-5.4022l-18.9971-36.9752a10.0713,10.0713,0,0,0-11.6461-5.1368l7.6609-16.1629a10.1,10.1,0,0,1,18.1111-.31l18.997,37.02a10.0261,10.0261,0,0,0,7.705,5.3579l41.2706,5.3139A10.1026,10.1026,0,0,1,1065.5823,1449.8656Z" transform="translate(-99.2253 -103.5134)"/></g><g class="cls-6"><path class="cls-2" d="M969.5355,1527.3586l-25.8164,14.1259a10.0766,10.0766,0,0,1-14.79-10.4061l6.3323-41.0936a10.13,10.13,0,0,0-3.0111-8.9l-30.2886-28.5174a10.11,10.11,0,0,1,5.3136-17.3143l20.2368-3.2768a9.7687,9.7687,0,0,0,3.0111,5.4465l30.2445,28.5618a9.9152,9.9152,0,0,1,3.0554,8.8563l-6.3322,41.1377A10.0467,10.0467,0,0,0,969.5355,1527.3586Z" transform="translate(-99.2253 -103.5134)"/></g><path class="cls-2" d="M938.88,1555.12a22.5118,22.5118,0,0,1-22.1826-25.918l6.1816-39.9292L893.48,1461.5431a22.4591,22.4591,0,0,1,11.8164-38.5083l39.8926-6.4672,17.2852-36.5235a22.4549,22.4549,0,0,1,40.2685-.6592l18.4766,35.9375,40.083,5.1514a22.4572,22.4572,0,0,1,13.0713,38.0982l-28.4668,28.6767,7.4853,39.7119a22.4595,22.4595,0,0,1-32.1972,24.2041l-36.0694-18.2129-35.4541,19.39A22.4537,22.4537,0,0,1,938.88,1555.12ZM913.802,1446.7116l26.914,25.3857a22.4763,22.4763,0,0,1,6.7872,19.7535l-5.6592,36.582,32.4609-17.7539a22.4565,22.4565,0,0,1,20.8936-.3467l33.0322,16.68-6.8506-36.3574a22.4665,22.4665,0,0,1,6.1279-19.9781l26.0694-26.26L1016.883,1439.7a22.46,22.46,0,0,1-17.1093-12.0068l-16.919-32.9029L967.03,1428.23v0h0a22.4588,22.4588,0,0,1-16.709,12.561Z" transform="translate(-99.2253 -103.5134)"/><path class="cls-5" d="M1624.1775,901.405h0a12.83,12.83,0,0,1-13.75-11.8386l-27.5286-368.5382a12.83,12.83,0,0,1,11.8387-13.75h0a134.601,134.601,0,0,1,144.2534,124.2007l9.3874,125.6728A134.601,134.601,0,0,1,1624.1775,901.405Z" transform="translate(-99.2253 -103.5134)"/><path class="cls-2" d="M1623.1965,904.402a15.789,15.789,0,0,1-15.7226-14.6167l-27.5293-368.5376a15.7889,15.7889,0,0,1,14.5752-16.9238A137.567,137.567,0,0,1,1741.9465,631.26l9.3848,125.6714c5.6494,75.6421-51.294,141.7774-126.9336,147.4268h0C1623.9973,904.3874,1623.592,904.402,1623.1965,904.402ZM1604.969,509.8586q-4.98,0-10.01.3735a9.8675,9.8675,0,0,0-9.1064,10.5762l27.5293,368.5376a9.8674,9.8674,0,0,0,10.5761,9.104h0c72.3828-5.4053,126.87-68.6939,121.4649-141.0791l-9.3848-125.6714A131.6528,131.6528,0,0,0,1604.969,509.8586Z" transform="translate(-99.2253 -103.5134)"/><g class="cls-6"><path class="cls-2" d="M1743.9758,698.2215l4.4157,58.9406a134.6609,134.6609,0,0,1-124.22,144.27,12.8586,12.8586,0,0,1-13.7544-11.866l-7.35-97.9686a12.8539,12.8539,0,0,0,12.2082,6.7209l8.7378-.6774A134.4947,134.4947,0,0,0,1743.9758,698.2215Z" transform="translate(-99.2253 -103.5134)"/></g><path class="cls-2" d="M1623.1721,917.93a29.3158,29.3158,0,0,1-29.1846-27.1387L1566.4582,522.256a29.3135,29.3135,0,0,1,27.0557-31.4209,151.0831,151.0831,0,0,1,161.9189,139.4165l9.3848,125.6714c6.2061,83.0786-56.333,155.7178-139.4092,161.9239C1624.6614,917.903,1623.9143,917.93,1623.1721,917.93Zm-23.5547-394.4263,26.9775,361.13a118.259,118.259,0,0,0,105.3418-126.2549l-9.3847-125.6714a118.1193,118.1193,0,0,0-122.9346-109.2041Z" transform="translate(-99.2253 -103.5134)"/><path class="cls-5" d="M378.2793,598.1436h0a12.83,12.83,0,0,1,13.75,11.8387L419.5581,978.52a12.83,12.83,0,0,1-11.8386,13.75h0A134.601,134.601,0,0,1,263.4659,868.07L254.0785,742.397A134.6011,134.6011,0,0,1,378.2793,598.1436Z" transform="translate(-99.2253 -103.5134)"/><path class="cls-2" d="M397.4787,995.6154A137.5845,137.5845,0,0,1,260.511,868.2888l-9.3848-125.6714C245.4768,666.9753,302.42,600.84,378.06,595.1906h0a15.7892,15.7892,0,0,1,16.9238,14.5728L422.5129,978.301a15.81,15.81,0,0,1-14.5752,16.9238Q402.6935,995.6166,397.4787,995.6154ZM379.2561,601.07c-.2539,0-.5029.01-.7569.0293h0c-72.3828,5.4053-126.87,68.6939-121.4648,141.0791l9.3848,125.6714A131.6373,131.6373,0,0,0,407.4983,989.3166a9.8806,9.8806,0,0,0,9.1064-10.5762L389.0754,610.2028a9.871,9.871,0,0,0-9.8193-9.1333Z" transform="translate(-99.2253 -103.5134)"/><g class="cls-6"><path class="cls-2" d="M411.9505,876.2784l7.6251,102.24A12.86,12.86,0,0,1,407.71,992.2739a134.5447,134.5447,0,0,1-144.2283-124.182l-3.9585-52.9551A134.651,134.651,0,0,0,387.6913,884.84l13.4488-1.0069A12.9776,12.9776,0,0,0,411.9505,876.2784Z" transform="translate(-99.2253 -103.5134)"/></g><path class="cls-2" d="M397.4543,1009.1432a151.1028,151.1028,0,0,1-150.43-139.8461L237.64,743.6257c-6.2061-83.0786,56.333-155.7178,139.4091-161.9239A29.3133,29.3133,0,0,1,408.47,608.7575l27.5293,368.5352a29.35,29.35,0,0,1-27.0556,31.4209C405.1057,1008.9992,401.2678,1009.1432,397.4543,1009.1432ZM375.8625,614.9147A118.2592,118.2592,0,0,0,270.5207,741.17l9.3848,125.6714A118.1193,118.1193,0,0,0,402.84,976.0451Z" transform="translate(-99.2253 -103.5134)"/><circle class="cls-5" cx="902.0797" cy="646.2552" r="629.7685"/><path class="cls-2" d="M1001.2434,1382.5c-168.1445,0-326.3623-65.1953-445.7471-183.728C435.5647,1079.69,369.1828,921.0353,368.5774,752.0265c-1.24-348.8867,281.582-633.74,630.4687-634.9829,169.17-.791,328.1348,64.6436,448.0664,183.7232S1633.426,578.5012,1634.0315,747.51c.6054,169.0064-64.6436,328.1324-183.7256,448.0665-119.0772,119.934-277.7344,186.3159-446.7432,186.9189C1002.7912,1382.4977,1002.0149,1382.5,1001.2434,1382.5ZM1001.37,122.964c-.7763,0-1.5283,0-2.3046.0025C653.45,124.1994,373.27,406.3845,374.5051,752.007c.5957,167.4243,66.3574,324.5947,185.166,442.5611,118.2569,117.4169,275.0147,182,441.5723,182.0068.7764,0,1.5234,0,2.3-.0025,167.4219-.5981,324.5947-66.36,442.5586-185.1709,117.9687-118.8085,182.6025-276.4453,182.0019-443.872-.5957-167.4243-66.3574-324.5947-185.166-442.5586C1324.6809,187.5539,1167.928,122.964,1001.37,122.964Z" transform="translate(-99.2253 -103.5134)"/><g class="cls-6"><path class="cls-2" d="M1624.7226,660.3664a625.89,625.89,0,0,1,6.3589,87.1608c1.1937,347.8-279.7393,630.7537-627.5372,632.0277-347.8,1.195-630.7529-279.7386-632.0276-627.5362-.0422-10.0017.1547-20.0132.5984-29.8723,43.5511,306.4119,307.4374,541.5,625.669,540.3751C1335.58,1261.29,1610.2525,994.3693,1624.7226,660.3664Z" transform="translate(-99.2253 -103.5134)"/></g><path class="cls-2" d="M1001.2434,1396.0256c-171.7383,0-333.34-66.5869-455.2783-187.6563C423.47,1086.7433,355.6672,924.695,355.052,752.0754c-1.27-356.3452,287.6025-647.2876,643.9453-648.5572.791-.0048,1.5869-.0048,2.373-.0048,171.7383,0,333.34,66.5869,455.2735,187.6538,122.4951,121.6259,190.2978,283.6743,190.9131,456.2939h0c.6152,172.62-66.0254,335.1489-187.6514,457.6465-121.626,122.4951-283.6719,190.2979-456.294,190.9131C1002.8205,1396.0256,1002.03,1396.0256,1001.2434,1396.0256Zm.1269-1259.5362c-.7617,0-1.4941,0-2.2558.0025-338.1592,1.206-612.29,277.3047-611.084,615.4663.581,163.811,64.9268,317.59,181.1719,433.01,116.25,115.42,270.6347,178.4742,434.292,178.0787,163.8134-.586,317.5927-64.9292,433.0127-181.1744,115.42-116.2475,178.6572-270.4834,178.0712-434.2944h0c-.581-163.811-64.9218-317.59-181.1669-433.01C1317.7033,199.6852,1164.3342,136.4894,1001.37,136.4894Z" transform="translate(-99.2253 -103.5134)"/><path class="cls-2" d="M1629.1133,763.703c2.3013,123.2148-35.559,238.3547-102.1959,334.2794-49.9579,71.9151-258.4531,200.0365-518.7292,207.2382-241.3317,6.6774-463.3481-117.9131-515.9566-187.9124-70.1725-93.3694-112.3062-207.0152-114.6075-330.23-6.09-326.0624,271.526-466.4665,617.13-472.9216S1623.0233,437.6406,1629.1133,763.703Z" transform="translate(-99.2253 -103.5134)"/><path class="cls-2" d="M989.08,1321.97c-242.1436,0-456.2061-123.147-510.0293-194.7559-74.8486-99.5922-115.62-217.102-117.91-339.8291-2.9882-159.9926,58.8672-284.5532,183.8428-370.2221,108.999-74.7168,264.419-116.0376,449.4629-119.4922,185.0586-3.479,341.8994,32.0312,453.6133,102.6269,128.0908,80.9424,194.5508,203.1055,197.5391,363.0982h0c2.29,122.727-34.0674,241.68-105.1416,343.9941-49.292,70.9619-255.8985,206.6773-531.8165,214.3115C1002.1076,1321.8825,995.5744,1321.97,989.08,1321.97Zm29.9707-991.5552q-11.9093,0-23.9893.2246C811.8782,334.0627,386.6145,385.3566,394.11,786.77c2.1631,115.7495,40.6494,226.6211,111.2988,320.6323,50.1709,66.7456,266.86,187.9053,502.3242,181.3355,260.9131-7.2193,461.0987-136.04,505.6446-200.1612,67.09-96.582,101.4111-208.8159,99.2529-324.5654h0c-2.7686-148.2007-64.0625-261.1938-182.1875-335.8374C1328.9875,364.06,1187.1321,330.4152,1019.051,330.4152Z" transform="translate(-99.2253 -103.5134)"/><g class="cls-4"><ellipse class="cls-5" cx="1424.9157" cy="723.2066" rx="111.4491" ry="80.7582" transform="translate(383.9567 1910.6425) rotate(-80.7994)"/></g><g class="cls-4"><ellipse class="cls-5" cx="1330.1257" cy="945.7855" rx="51.1542" ry="43.8982" transform="translate(-64.9269 1834.5301) rotate(-72.8572)"/></g><g class="cls-6"><path class="cls-12" d="M1501.728,461.7892c77.8589,71.5659,124.9141,170.9376,127.3776,301.8951,2.303,123.24-35.5817,238.3726-102.171,334.2987-49.9737,71.9147-258.4889,200.0305-518.759,207.2585-91.9,2.5681-180.9692-13.9324-258.9927-39.2357,319.745-15.704,573.702-172.9158,635.6543-262.1107,84.5817-121.7459,132.626-267.8981,129.6837-424.247A637.5617,637.5617,0,0,0,1501.728,461.7892Z" transform="translate(-99.2253 -103.5134)"/></g><path class="cls-2" d="M419.5637,524.6486a16.4918,16.4918,0,0,1-13.5059-25.9375c107.52-164.436,320.2246-261.5747,583.6524-266.499,261.3281-4.917,477.5244,81.1011,592.8564,235.93a16.4905,16.4905,0,0,1-23.164,23.2983l-1.7774-1.3818-.9961-1.5308C1447.8645,341.9,1241.3557,260.5275,990.3254,265.1808c-252.5244,4.7217-455.498,96.5357-556.875,251.9l-.8642,1.2011A16.45,16.45,0,0,1,419.5637,524.6486Zm-1.0693-17.3266,1.0791.8374Z" transform="translate(-99.2253 -103.5134)"/><g class="cls-4"><path class="cls-5" d="M521.7766,978.426S414.7815,658.65,585.7419,527.2308,1006.1186,391.67,1000.5851,407.7741c0,0-274.8629,72.0012-378.8206,292.3025C541.6,869.9558,521.7766,978.426,521.7766,978.426Z" transform="translate(-99.2253 -103.5134)"/></g><path class="cls-2" d="M930.5205,2296.7529a174.5939,174.5939,0,0,1-25.155-4.0478c-8.1226-1.8408-16.117-4.1309-23.9954-6.7334a321.25,321.25,0,0,1-45.791-19.3164c-7.478-3.523-14.5923-7.8638-21.8066-11.8433-7.0716-4.3188-14.1016-8.6279-20.8509-13.4082a284,284,0,0,1-38.07-31.3379,2.2375,2.2375,0,0,1,2.4438-3.66l.083.0366c14.9426,6.47,29.3176,13.2055,44.2261,18.7207,7.2485,3.1225,14.8816,5.42,22.1619,8.3105,7.4816,2.5025,14.8864,5.0635,22.3754,7.39,14.9134,4.7924,30.0074,8.8232,44.9646,13.02l11.2269,3.0908q5.625,1.4685,11.206,3.0737c7.3694,1.99,15.1184,4.1162,21.9263,6.1866l.8105.2465a15.4961,15.4961,0,0,1-5.7556,30.271Z" transform="translate(-99.2253 -103.5134)"/><path class="cls-2" d="M1065.9514,2266.2354c6.8091-2.07,14.5581-4.1968,21.9275-6.1866q5.5793-1.6113,11.2048-3.0737l11.2268-3.0908c14.9585-4.1968,30.0513-8.2276,44.9659-13.02,7.489-2.3267,14.8938-4.8877,22.3742-7.39,7.2815-2.8906,14.9146-5.188,22.1619-8.3105,14.91-5.5152,29.2847-12.251,44.2273-18.7207l.0781-.0342a2.2375,2.2375,0,0,1,2.4488,3.6572,283.9429,283.9429,0,0,1-38.0713,31.3379c-6.7481,4.78-13.7781,9.0894-20.8509,13.4082-7.2143,3.9795-14.3274,8.32-21.8066,11.8433a321.2943,321.2943,0,0,1-45.79,19.3164c-7.8784,2.6025-15.874,4.8926-23.9966,6.7334a174.54,174.54,0,0,1-25.155,4.0478,15.4977,15.4977,0,0,1-5.7642-30.271Z" transform="translate(-99.2253 -103.5134)"/><path class="cls-2" d="M569.3682,2614.1968a231.1514,231.1514,0,0,1,31.52-5.1367c5.2246-.61,10.4639-.9766,15.708-1.233,5.2381-.3662,10.4908-.4882,15.7435-.5126a385.6594,385.6594,0,0,1,62.8772,4.707,343.3234,343.3234,0,0,1,61.1975,15.8569c19.6753,7.7368,38.4814,17.7295,54.8376,30.5957a2.2244,2.2244,0,0,1-2.1948,3.8159l-.0916-.0366a307.676,307.676,0,0,0-57.51-16.6406,462.6344,462.6344,0,0,0-58.9209-5.8521c-19.7571-.5151-39.4886.2027-59.1956,1.0743-19.5776.935-39.7,2.5048-58.6828,3.8232l-.6214.0415a15.4815,15.4815,0,0,1-4.6667-30.5029Z" transform="translate(-99.2253 -103.5134)"/><path class="cls-2" d="M1427.1392,2644.6582c-18.9832-1.3184-39.1053-2.8882-58.6829-3.8232-19.7083-.8716-39.4385-1.5894-59.1956-1.0743a462.6344,462.6344,0,0,0-58.9209,5.8521,307.69,307.69,0,0,0-57.5109,16.6406l-.0879.0342a2.2236,2.2236,0,0,1-2.1973-3.8135c16.3562-12.8662,35.1611-22.8589,54.8376-30.5957a343.3222,343.3222,0,0,1,61.1976-15.8569,385.6578,385.6578,0,0,1,62.8772-4.707c5.2526.0244,10.5053.1464,15.7434.5126,5.2441.2564,10.4834.6226,15.708,1.233a231.1489,231.1489,0,0,1,31.52,5.1367,15.4827,15.4827,0,0,1-4.6618,30.5053Z" transform="translate(-99.2253 -103.5134)"/></svg>