<svg id="Layer_1" data-name="Layer 1" xmlns="http://www.w3.org/2000/svg" width="2292.5" height="2727.5324" viewBox="0 0 2292.5 2727.5324"><defs><style>.cls-1{opacity:0.3;}.cls-2{fill:#371a45;}.cls-3{fill:#fff;}.cls-4{opacity:0.35;}.cls-5{fill:#22a7f0;}.cls-6{fill:#afafb2;}.cls-7{opacity:0.7;}.cls-8{opacity:0.6;}.cls-9{fill:#111a28;}.cls-10{fill:#23b574;}.cls-11{fill:#16b767;}.cls-12{opacity:0.4;}.cls-13{fill:#9b5639;}.cls-14{fill:#a34f31;}.cls-15{fill:#fcc0b4;}.cls-16{fill:#fcf7fb;}.cls-17{fill:#6b184e;}.cls-18{fill:#181558;}</style></defs><title>about-us-3</title><g class="cls-1"><ellipse class="cls-2" cx="1146.25" cy="2565.0324" rx="1146.25" ry="162.5"/></g><path class="cls-3" d="M893.6569,1141.419H1452.068A278.9822,278.9822,0,0,1,1731.05,1420.4012v609.168a278.9821,278.9821,0,0,1-278.9821,278.9821H893.6568a278.9821,278.9821,0,0,1-278.9821-278.9821v-609.168A278.9822,278.9822,0,0,1,893.6569,1141.419Z"/><path class="cls-2" d="M2239.5691,3038.34H1681.156c-163.3814,0-296.3013-132.92-296.3013-296.3037v-609.17c0-163.3789,132.92-296.2988,296.3013-296.2988h558.4131c163.3813,0,296.3012,132.92,296.3012,296.2988v609.17C2535.87,2905.42,2402.95,3038.34,2239.5691,3038.34ZM1681.156,1871.2063c-144.28,0-261.6626,117.3829-261.6626,261.66v609.17c0,144.2823,117.3828,261.6651,261.6626,261.6651h558.4131c144.28,0,261.6626-117.3828,261.6626-261.6651v-609.17c0-144.2773-117.3828-261.66-261.6626-261.66Z" transform="translate(-787.5 -712.4676)"/><path class="cls-3" d="M2472.4047,3080.569H1449.2918s-28.7519-162.1618-15.7183-397.1124c11.518-207.4977,55.6416-471.8495,180.9543-731.3085q21.7588-45.1408,46.8949-89.9357c23.0795-41.0494,48.367-81.8388,76.0363-122.0219h564.86c69.8443,139.0824,116.6959,284.1837,147.3961,425.4311C2554.1568,2645.4819,2472.4047,3080.569,2472.4047,3080.569Z" transform="translate(-787.5 -712.4676)"/><g class="cls-4"><path class="cls-2" d="M2472.4047,3080.569H1449.2918s-28.7519-162.1618-15.7183-397.1124C1442.4068,2524.4126,1530.9351,2258.0582,1600,2060c15,135,25.581,272.8084,230.5126,277.1363H2104.91c169.4363,0,307.8694-136.0946,309.8177-305.4876,0-1.1259.0433-2.2517.0433-3.4209,13.51,45.9855,25.0714,91.8846,34.9439,137.3938C2554.1568,2645.4819,2472.4047,3080.569,2472.4047,3080.569Z" transform="translate(-787.5 -712.4676)"/></g><path class="cls-2" d="M2472.4084,3097.8763H1449.2737a17.32,17.32,0,0,1-17.0557-14.2969c-.3272-1.8555-32.6318-188.4619-12.9126-446.86,18.2129-238.6181,85.7153-589.56,303.8769-906.3525a17.3208,17.3208,0,0,1,28.53,19.6484c-213.5522,310.0928-279.8071,654.2188-297.7856,888.3008-16.4112,213.6621,3.2861,377.085,10.188,424.9219h993.6718c7.6734-47.4951,30.8814-210.4053,27.3975-424.1113-3.8184-233.9551-41.3232-578.4717-198.335-891.1621a17.3209,17.3209,0,0,1,30.9571-15.5469c160.0854,318.8135,198.2226,669.1992,202.0263,906.9971,4.1187,257.4267-30.0561,442.5-30.4028,444.3408A17.3185,17.3185,0,0,1,2472.4084,3097.8763Zm0-17.3242h0Z" transform="translate(-787.5 -712.4676)"/><g class="cls-4"><path class="cls-2" d="M1213.1944,3072.5624v-2.1939C1230.4114,3071.112,1213.1944,3072.5624,1213.1944,3072.5624Z" transform="translate(-787.5 -712.4676)"/></g><path class="cls-3" d="M1756.9734,2527.5544c-64.873,23.4612-163.558,14.3239-230.6691,3.6274a72.4424,72.4424,0,0,1-59.7553-84.8662v0a72.424,72.424,0,0,1,77.2522-58.9438c62.9483,5.33,157.4826,10.2762,217.8841-.7555" transform="translate(-787.5 -712.4676)"/><g class="cls-4"><path class="cls-2" d="M1756.99,2527.544c-64.8937,23.4978-163.5782,14.3109-230.6824,3.663a72.5778,72.5778,0,0,1-51.4422-107.566,72.2954,72.2954,0,0,0,53.9725,40.3812c66.9894,10.7007,165.5072,19.8248,230.3946-3.5045Z" transform="translate(-787.5 -712.4676)"/></g><path class="cls-2" d="M1651.9079,2559.5657c-44.6631,0-90.393-5.2295-128.33-11.2793a89.8091,89.8091,0,0,1,21.6845-178.1738c92.7051,7.8516,168.4595,7.6514,213.313-.5371,9.1016-1.6309,31.5357-.8936,43.12,42.0019,11.731,43.4375,7.5025,115.5079-38.8305,132.2657h0C1730.968,2555.3763,1691.8615,2559.5657,1651.9079,2559.5657ZM1537.6013,2404.429a55.1735,55.1735,0,0,0-8.5693,109.6484c95.913,15.2881,174.768,14.3018,222.0507-2.8125h0c13.7305-4.9658,18.5547-26.7382,19.99-35.8691,5.12-32.5195-3.5987-63.34-9.585-71.1572-61.2646,10.4443-152.6733,6.0156-219.1479.3955Q1539.956,2404.4291,1537.6013,2404.429Z" transform="translate(-787.5 -712.4676)"/><path class="cls-3" d="M2245.723,2545.9618c62.9244,28.2742,162.0172,26.5856,229.7428,20.9674a72.4424,72.4424,0,0,0,65.9694-80.1312v0a72.424,72.424,0,0,0-72.6-64.5875c-63.1708.58-157.8094-1.5983-217.21-17.1421" transform="translate(-787.5 -712.4676)"/><g class="cls-4"><path class="cls-2" d="M2475.45,2566.9537c-67.7154,5.57-166.8113,7.3084-229.7537-21.004l2.8287-67.6245c62.9492,28.1433,161.8739,26.4552,229.4787,20.8243a72.1107,72.1107,0,0,0,56.6772-35.9324,72.4659,72.4659,0,0,1-59.2309,103.7366Z" transform="translate(-787.5 -712.4676)"/></g><path class="cls-2" d="M2398.9,2587.5931c-56.4673,0-116.2109-6.0352-160.2734-25.83h-.0025c-44.9438-20.1953-43.74-92.3828-28.7744-134.8145,14.7827-41.9091,37.2-40.9814,46.16-38.6377,56.5308,14.79,146.86,17.1729,212.6685,16.5821.2832-.0049.5664-.0049.85-.0049a89.8073,89.8073,0,0,1,7.3681,179.3017C2453.1384,2586.1624,2426.4074,2587.5931,2398.9,2587.5931Zm-146.0791-57.4317c45.8716,20.6153,124.4434,27.5537,221.211,19.5069a55.1667,55.1667,0,0,0-4.5166-110.1368h-.52c-66.6821.61-158.1933-1.8554-218.4985-16.875-6.5576,7.3438-17.5684,37.4219-14.9121,70.2344.7471,9.2139,3.9209,31.2891,17.2388,37.2705Z" transform="translate(-787.5 -712.4676)"/><path class="cls-3" d="M2277.48,2359.4066l-8.5051,225.8248a76.4841,76.4841,0,0,1-79.0648,73.3255l-415.8907-15.6633a76.4723,76.4723,0,0,1-73.2691-79.0627l8.505-225.8248a76.4239,76.4239,0,0,1,79.0064-73.2712l415.8906,15.6633a76.4147,76.4147,0,0,1,73.3277,79.0084Z" transform="translate(-787.5 -712.4676)"/><g class="cls-4"><path class="cls-2" d="M2277.48,2359.4066l-8.5051,225.8248a76.4841,76.4841,0,0,1-79.0648,73.3255l-415.8907-15.6633a76.4723,76.4723,0,0,1-73.2691-79.0627l3.1814-84.4734c84.3562,67.6938,272.0615,119.5416,394.0678,27.5868,96.7583-72.9407,143.8465-147.7521,165.668-194.0775A75.66,75.66,0,0,1,2277.48,2359.4066Z" transform="translate(-787.5 -712.4676)"/></g><path class="cls-2" d="M2192.8576,2675.9183c-1.1889,0-2.3779-.02-3.5742-.0635l-415.8984-15.6641a93.75,93.75,0,0,1-89.9414-96.9824l8.5058-225.8545a93.7541,93.7541,0,0,1,96.98-89.9463l415.9009,15.6641a93.75,93.75,0,0,1,89.9414,96.9824l-8.5059,225.8545a93.7688,93.7688,0,0,1-93.4082,90.01Zm-2.27-34.6827a59.1173,59.1173,0,0,0,61.0645-56.6259l8.5058-225.8545a59.1088,59.1088,0,0,0-56.6308-61.0645l-415.9009-15.664a58.943,58.943,0,0,0-61.062,56.6259l-8.5059,225.8545a59.1088,59.1088,0,0,0,56.6309,61.0645Z" transform="translate(-787.5 -712.4676)"/><circle class="cls-5" cx="2136.4444" cy="2467.1807" r="65.7218" transform="translate(-1906.3101 1520.8472) rotate(-45)"/><g class="cls-4"><path class="cls-2" d="M2202.1007,2469.64a65.7106,65.7106,0,1,1-131.328-4.9461,64.2129,64.2129,0,0,1,5.4-23.5954,65.6638,65.6638,0,0,0,122.3177,4.6068A64.2221,64.2221,0,0,1,2202.1007,2469.64Z" transform="translate(-787.5 -712.4676)"/></g><path class="cls-2" d="M2136.52,2545.8938q-1.5162,0-3.0372-.0537a78.7154,78.7154,0,1,1,81.6187-75.6982h0a78.705,78.705,0,0,1-78.5815,75.7519Zm-.127-131.4453a52.7773,52.7773,0,1,0,2.0361.0391C2137.7478,2414.4583,2137.0691,2414.4485,2136.3928,2414.4485Zm65.7275,55.2051h0Z" transform="translate(-787.5 -712.4676)"/><path class="cls-2" d="M1943.219,2662.2415c-.166,0-.3321,0-.4981-.0049a12.9937,12.9937,0,0,1-12.4927-13.4717l5.82-154.5605-75.7911-61.6553a12.999,12.999,0,0,1-4.7827-10.5664l5.82-154.5117a12.99,12.99,0,1,1,25.962.9766l-5.5762,148.0371,75.791,61.6552a12.999,12.999,0,0,1,4.7827,10.5664l-6.0644,161.0352A12.989,12.989,0,0,1,1943.219,2662.2415Z" transform="translate(-787.5 -712.4676)"/><path class="cls-3" d="M2891.6871,2758.1073s-103.5756,494.1065-137.35,505.1048c-48.324,15.7182-164.5-.8227-164.5-.8227s-404.2135-54.7324-635.0071-54.7324c-230.837,0-635.0074,54.7324-635.0074,54.7324s-116.2194,16.5409-164.5434.8227c-33.7746-10.9983-137.35-505.1048-137.35-505.1048,61.6171-89.113,203.99-79.6735,271.8427,77.552,26.3271-41.6554,64.9947-79.2406,121.6757-99.722,8.14-2.9445,16.2811-5.456,24.335-7.5344,112.1491-29.3147,214.3394,20.4813,286.3921,74.7807,6.5815,4.9364,12.8169,9.9158,18.8357,14.8522.6063.52,1.2123.9958,1.8186,1.5154,4.7633,3.9406,9.3531,7.8808,13.77,11.778a309.2,309.2,0,0,0,71.7062,47.0247c3.6807,1.6888,7.4045,3.3776,11.215,4.9364a296.3174,296.3174,0,0,0,115.31,23.3823c73.0485,0,143.3258-27.1062,198.1882-75.3434,60.8376-53.4767,154.9737-115.18,262.5329-111.4564a268.8365,268.8365,0,0,1,82.6615,16.0645c56.681,20.4814,95.3053,58.0666,121.6753,99.722C2687.74,2678.4338,2830.07,2668.9943,2891.6871,2758.1073Z" transform="translate(-787.5 -712.4676)"/><g class="cls-4"><path class="cls-2" d="M2891.6811,2758.0985S2788.1079,3252.2,2754.356,3263.1975c-48.3316,15.7593-164.5461-.8-164.5461-.8s-404.18-54.7363-635.0079-54.7363c-230.7857,0-635.0082,54.7363-635.0082,54.7363s-116.1723,16.56-164.5036.8c-33.752-10.9977-137.3254-505.099-137.3254-505.099a133.61,133.61,0,0,1,36.28-35.7744c33.2042,144.8678,80.3136,334.0219,101.0453,340.7637,48.3313,15.7171,164.5036-.8425,164.5036-.8425s404.2225-109.4724,635.0082-109.4724c230.8276,0,635.0079,109.4724,635.0079,109.4724s116.2145,16.56,164.5461.8425c20.7314-6.7418,67.8408-195.8959,101.045-340.7637A133.6075,133.6075,0,0,1,2891.6811,2758.0985Z" transform="translate(-787.5 -712.4676)"/></g><path class="cls-2" d="M1217.6086,3287.261c-25.3979,0-50.2319-1.9043-67.7-7.5927-13.4985-4.3946-30.2978-9.8682-92.7856-269.0723-29.8267-123.7207-55.8545-247.69-56.1157-248.9258a17.3282,17.3282,0,0,1,2.705-13.4033c31.04-44.9023,81.416-68.5449,134.8535-63.2617,61.9556,6.1377,116.941,48.1787,154.004,116.7041,30.144-38.2666,68.0273-65.8106,112.9492-82.0606,92.0849-33.33,192.93-17.73,291.6186,45.0977a17.3192,17.3192,0,1,1-18.6035,29.2187c-90.5615-57.6562-178.4521-71.6943-261.23-41.7431-46.6674,16.8847-84.6484,48.0664-112.893,92.6953a17.3237,17.3237,0,0,1-30.54-2.3975c-31.3159-72.5635-81.8774-117.4121-138.7207-123.042-38.2788-3.7988-74.685,12.0606-98.6474,42.6514,46.2524,219.668,105.2539,456.5332,126.8945,485.4346,38.0322,10.62,123.5083,2.0166,153.97-2.3242,4.1724-.5665,408.1226-54.8926,637.4512-54.8926,229.3262,0,633.2764,54.3261,637.3315,54.8779,30.5786,4.3506,116.062,12.9541,154.0869,2.3389,21.6407-28.9014,80.6421-265.7666,126.8946-485.4346-23.9624-30.5908-60.3272-46.44-98.6475-42.6514-56.8432,5.63-107.4048,50.4737-138.7182,123.042a17.3218,17.3218,0,0,1-30.5372,2.3975c-28.2495-44.6289-66.2329-75.8154-112.8955-92.69-83.4936-30.22-172.146-15.6934-263.4887,43.1884a17.3229,17.3229,0,0,1-18.77-29.1211c99.4947-64.1259,201.1695-80.2587,294.043-46.6406,44.917,16.2451,82.8027,43.7891,112.9492,82.0557,37.0606-68.5254,92.0459-110.5664,154.0039-116.7041,53.4034-5.293,103.8135,18.3642,134.8511,63.2617a17.3286,17.3286,0,0,1,2.7051,13.4033c-.2612,1.2354-26.2891,125.2051-56.1157,248.9258-62.4878,259.2041-79.2871,264.6777-92.7857,269.0723-51.58,16.8115-167.4389.5615-172.3437-.1319-3.9112-.5322-405.5738-54.5508-632.5635-54.5508-226.9922,0-628.6548,54.0186-632.6856,54.5655C1318.966,3280.0052,1267.2156,3287.261,1217.6086,3287.261Z" transform="translate(-787.5 -712.4676)"/><path class="cls-6" d="M2724.3382,3263.2h30.0227a89.2337,89.2337,0,0,0,81.5506-52.8526c44.94-100.6319,126.8688-321.734,50.1265-456.6669q-3.3511-5.9061-7.1556-11.358s-73.6758-67.0122-126.604,27.7893C2702.8336,2858.6658,2599.0593,3237.3413,2724.3382,3263.2Z" transform="translate(-787.5 -712.4676)"/><g class="cls-7"><path class="cls-3" d="M2725.171,2833.224c1.325-2.12,2.65-4.1268,3.9376-5.9819,65.0811-94.8013,155.68-27.7891,155.68-27.7891a141.6962,141.6962,0,0,1,8.7838,11.358,198.2037,198.2037,0,0,1,22.0348,41.1914c-3.6728-35.4369-12.8351-68.9429-29.5689-98.3222q-3.3511-5.9061-7.1556-11.358s-73.6758-67.0122-126.604,27.7893C2744.2526,2784.46,2734.8255,2806.3812,2725.171,2833.224Z" transform="translate(-787.5 -712.4676)"/></g><path class="cls-2" d="M2915.2112,2865.5423a17.4132,17.4132,0,0,1-2.8736-.2393l-184.15-30.7422a17.3213,17.3213,0,1,1,5.7032-34.17l184.15,30.7422a17.3229,17.3229,0,0,1-2.8295,34.4092Z" transform="translate(-787.5 -712.4676)"/><path class="cls-2" d="M2914.0393,2965.0345a17.9326,17.9326,0,0,1-2.3291-.1563l-215.4248-28.96a17.3223,17.3223,0,0,1,4.6142-34.336l215.4248,28.96a17.3235,17.3235,0,0,1-2.2851,34.4922Z" transform="translate(-787.5 -712.4676)"/><path class="cls-2" d="M2895.0329,3062.4905a17.4109,17.4109,0,0,1-2.1264-.1318l-218.6792-26.7676a17.3207,17.3207,0,1,1,4.209-34.3848l218.6792,26.7676a17.3226,17.3226,0,0,1-2.0826,34.5166Z" transform="translate(-787.5 -712.4676)"/><path class="cls-2" d="M2860.35,3168.7552c-.5224,0-1.0473-.02-1.5771-.0684l-195.5078-17.6416a17.3211,17.3211,0,1,1,3.1152-34.5019l195.5078,17.6416a17.32,17.32,0,0,1-1.5381,34.57Z" transform="translate(-787.5 -712.4676)"/><g class="cls-4"><path class="cls-2" d="M2724.3382,3263.2h30.0227a89.2337,89.2337,0,0,0,81.5506-52.8526c11.6228-26.0856,25.7449-60.1974,38.958-98.8523-18.0214,29.9092-54.6321,48.8771-94.8394,48.8771h-35.7775c-50.9219-8.8212-70.0788-58.7585-70.8363-124.2186C2656.19,3146.6287,2660.9228,3250.1,2724.3382,3263.2Z" transform="translate(-787.5 -712.4676)"/></g><path class="cls-2" d="M2754.3615,3280.5179h-30.0244a17.2056,17.2056,0,0,1-3.5009-.3565c-25.0318-5.166-44.7144-22.0068-56.9239-48.6963-51.6943-113.0127,32.5269-396.875,73.2447-469.7949,19.104-34.2236,43.3129-53.9453,71.9506-58.6181,43.8672-7.1338,79.917,25.083,81.4307,26.46a17.6275,17.6275,0,0,1,2.5464,2.8955c2.8369,4.0674,5.5371,8.35,8.0225,12.7344,78.7231,138.418,2.8515,355.3027-49.38,472.2656A106.6816,106.6816,0,0,1,2754.3615,3280.5179Zm-28.1054-34.6387h28.1054a72.0116,72.0116,0,0,0,65.7325-42.5879c39.9048-89.3555,124.7387-311.1963,50.8886-441.0449-1.5942-2.8174-3.291-5.5615-5.0634-8.1983-5.5225-4.4433-27.72-20.8056-51.4234-16.7724-17.605,2.9492-33.45,16.8408-47.0947,41.2793-42.2314,75.64-115.3076,343.7939-71.9873,438.501C2702.77,3233.14,2712.87,3242.5833,2726.2561,3245.8792Z" transform="translate(-787.5 -712.4676)"/><path class="cls-6" d="M1185.296,3263.2h-30.0227a89.2337,89.2337,0,0,1-81.5506-52.8526c-44.94-100.6319-126.8688-321.734-50.1265-456.6669q3.351-5.9061,7.1556-11.358s73.6758-67.0122,126.6039,27.7893C1206.8006,2858.6658,1310.5749,3237.3413,1185.296,3263.2Z" transform="translate(-787.5 -712.4676)"/><g class="cls-7"><path class="cls-3" d="M1184.4631,2833.224c-1.325-2.12-2.65-4.1268-3.9375-5.9819-65.0811-94.8013-155.68-27.7891-155.68-27.7891a141.7181,141.7181,0,0,0-8.7837,11.358,198.199,198.199,0,0,0-22.0348,41.1914c3.6728-35.4369,12.8351-68.9429,29.5689-98.3222q3.351-5.9061,7.1556-11.358s73.6758-67.0122,126.6039,27.7893C1165.3816,2784.46,1174.8087,2806.3812,1184.4631,2833.224Z" transform="translate(-787.5 -712.4676)"/></g><path class="cls-2" d="M994.4226,2865.5423a17.3229,17.3229,0,0,1-2.83-34.4092l184.15-30.7422a17.3213,17.3213,0,0,1,5.7031,34.17l-184.15,30.7422A17.4345,17.4345,0,0,1,994.4226,2865.5423Z" transform="translate(-787.5 -712.4676)"/><path class="cls-2" d="M995.5969,2965.0345a17.3235,17.3235,0,0,1-2.2852-34.4922l215.4224-28.96a17.3223,17.3223,0,0,1,4.6143,34.336l-215.4224,28.96A17.9044,17.9044,0,0,1,995.5969,2965.0345Z" transform="translate(-787.5 -712.4676)"/><path class="cls-2" d="M1014.6008,3062.4905a17.3226,17.3226,0,0,1-2.0825-34.5166l218.6792-26.7676a17.3207,17.3207,0,0,1,4.209,34.3848l-218.6792,26.7676A17.4125,17.4125,0,0,1,1014.6008,3062.4905Z" transform="translate(-787.5 -712.4676)"/><path class="cls-2" d="M1049.2834,3168.7552a17.32,17.32,0,0,1-1.5381-34.57l195.51-17.6416a17.3211,17.3211,0,1,1,3.1152,34.5019l-195.51,17.6416C1050.3308,3168.7356,1049.8034,3168.7552,1049.2834,3168.7552Z" transform="translate(-787.5 -712.4676)"/><g class="cls-4"><path class="cls-2" d="M1185.296,3263.2h-30.0227a89.2337,89.2337,0,0,1-81.5506-52.8526c-11.6228-26.0856-25.7449-60.1974-38.958-98.8523,18.0214,29.9092,54.6321,48.8771,94.8394,48.8771h35.7775c50.9219-8.8212,70.0788-58.7585,70.8363-124.2186C1253.4439,3146.6287,1248.7114,3250.1,1185.296,3263.2Z" transform="translate(-787.5 -712.4676)"/></g><path class="cls-2" d="M1185.2966,3280.5179h-30.0244a106.6841,106.6841,0,0,1-97.3682-63.1153c-52.2314-116.958-128.1006-333.8427-49.3628-472.2851,2.4805-4.37,5.1783-8.6572,8.0078-12.71a17.6322,17.6322,0,0,1,2.5464-2.8955c1.5113-1.3769,37.5757-33.6133,81.4307-26.46,28.6377,4.6728,52.8467,24.3945,71.9507,58.6181,40.7178,72.92,124.9389,356.7822,73.2446,469.7949-12.2095,26.6895-31.8921,43.53-56.9238,48.6963A17.2066,17.2066,0,0,1,1185.2966,3280.5179Zm-141.5869-526.46c-1.7627,2.6221-3.4546,5.3613-5.044,8.1641-73.8647,129.873,10.9693,351.7138,50.8716,441.0644a72.014,72.014,0,0,0,65.7349,42.5928h28.1055c13.3862-3.2959,23.4863-12.7393,30.8422-28.8232,43.32-94.7071-29.7558-362.8614-71.9873-438.501-13.645-24.4385-29.49-38.33-47.0947-41.2793C1071.4929,2733.2767,1049.32,2749.5462,1043.71,2754.0579Z" transform="translate(-787.5 -712.4676)"/><path class="cls-2" d="M1524.1589,3250.8646a12.9968,12.9968,0,0,1-11.499-19.0186c126.1621-241.06-89.9976-490.874-92.1973-493.3691a12.9918,12.9918,0,0,1,19.4824-17.1924c2.3633,2.6806,58.3521,66.6943,98.6963,163.0468,53.855,128.6231,52.83,252.959-2.9638,359.5655A12.9855,12.9855,0,0,1,1524.1589,3250.8646Z" transform="translate(-787.5 -712.4676)"/><path class="cls-2" d="M2390.6091,3250.8646a12.9852,12.9852,0,0,1-11.5185-6.9678c-55.7935-106.6065-56.8189-230.9424-2.9639-359.5655,40.3442-96.3525,96.333-160.3662,98.6963-163.0468a12.9918,12.9918,0,0,1,19.4824,17.1924c-2.2,2.4951-218.3594,252.3095-92.1973,493.3691a12.9968,12.9968,0,0,1-11.499,19.0186Z" transform="translate(-787.5 -712.4676)"/><path class="cls-3" d="M1625,1985s-65.5519,222.44.581,347.8084c31.9413,60.5513,152.54,33.7734,231.0882,46.5594,290.4723,47.2827,214.1465,316.8789,44.6569,367.8058-218.1484,65.5477-706.9751-4.5077-570.98-458.3426,81.1835-270.92,427.4959-498.5706,427.4959-498.5706" transform="translate(-787.5 -712.4676)"/><path class="cls-2" d="M1761.0248,1795.0708c-39.9866,37.876-81.3123,73.2178-121.9763,109.2139q-30.3819,27.0922-59.8993,55.1074-29.6678,27.8064-57.6642,57.2241c-18.7726,19.5142-36.2836,40.1148-53.4485,60.94-16.9324,21.0205-32.7332,42.8466-47.7179,65.1513-29.3494,44.9024-54.6246,92.5415-70.6757,142.9712-1.0125,3.1519-2.17,6.2354-3.0664,9.4434L1343.98,2304.8l-5.2057,19.3457-1.3019,4.8364-.9973,4.8877-1.9977,9.7754-3.955,19.5508-2.6947,19.6753-1.3593,9.8364c-.4034,3.2813-.4791,6.5723-.7373,9.8584l-1.3123,19.7168c-.1922,6.5625.0635,13.11.0605,19.6655l.0775,9.8291.8386,9.7461c.661,6.4771.9741,13.02,1.8915,19.4507l3.3349,19.18a72.318,72.318,0,0,0,2.15,9.4605l2.48,9.3725a265.6571,265.6571,0,0,0,30.863,70.5c27.8387,43.3667,68.4668,78.1177,115.0116,102.4829,22.9614,12.7979,47.8375,22.229,72.8943,30.8106l19.1186,5.6421c3.1983.9033,6.3453,1.97,9.5844,2.7417l9.729,2.2753,19.4592,4.5484,19.71,3.5229c52.6,9.3262,106.6083,11.1158,159.88,7.4732,26.5735-2.3609,53.0993-5.71,78.8653-11.67,12.6966-3.1861,25.8655-6.3477,37.3578-10.7032a84.7963,84.7963,0,0,0,8.7116-3.5669c2.8625-1.2939,5.7824-2.4633,8.6071-3.8427l8.3161-4.4776,4.1656-2.2265,3.9789-2.5635a201.152,201.152,0,0,0,55.4938-51.0889c7.8009-9.9927,14.0137-21.0571,19.7754-32.2388,2.4286-5.7885,5.39-11.3891,7.25-17.373,1.0132-2.959,2.1766-5.8789,3.0878-8.8623l2.42-9.0332a74.5644,74.5644,0,0,0,1.9543-9.104c.4944-3.0567,1.2463-6.0913,1.5558-9.16.5078-6.14,1.3959-12.28,1.1493-18.4082.29-6.1572-.4572-12.2119-.9845-18.2861-.1886-3.0518-1.0578-5.9766-1.5326-8.9746a61.9272,61.9272,0,0,0-2.0038-8.8623l-2.5781-8.7036c-.9564-2.8662-2.2852-5.5957-3.3887-8.4082-1.9995-5.73-5.4321-10.7984-8.1549-16.2012-6.6-10.1685-13.9081-20.0293-23.0548-28.3936-17.8015-17.1435-39.9341-30.31-63.8-39.9633-23.8952-9.6949-49.52-16.0474-75.4748-20.5176-25.04-3.8623-52.1594-3.7549-79.5422-3.9478-27.4939-.2319-55.5957-.0512-84.8713-4.6216-14.6112-2.4609-29.7064-6.1645-44.4812-13.7988a88.4235,88.4235,0,0,1-20.7775-15.1562c-1.5217-1.6211-3.09-3.1983-4.527-4.9l-4.06-5.3418a88.46,88.46,0,0,1-6.308-10.9619l-4.8889-10.044c-1.5631-3.3691-2.8137-6.8286-4.259-10.2295-3.0249-6.78-5.0611-13.7793-7.5409-20.6933-4.2053-13.9454-7.9987-28.0127-10.3406-42.2-5.1855-28.3569-6.2042-56.9482-4.7247-85.1147a320.1872,320.1872,0,0,1,5.144-41.9189,261.0048,261.0048,0,0,1,10.8179-40.8692,5.938,5.938,0,0,1,11.4648,1.1939l.01.0879c1.9306,13.9306,2.75,27.6,3.7335,41.1816,1.0016,13.5791,1.6492,27.0312,2.4878,40.3931,1.4246,26.7187,3.5254,53.1518,7.533,78.9575a333.0683,333.0683,0,0,0,7.9047,38.0566c3.6645,12.2681,7.846,24.3872,13.5882,35.5176a48.9706,48.9706,0,0,0,3.8519,6.9141l2.1662,2.8564c.7794.9155,1.6675,1.7481,2.47,2.6489a53.9274,53.9274,0,0,0,12.3913,8.97c9.6741,5.0341,21.5125,8.2129,33.9289,10.2636,25.0543,3.9624,52.1075,3.9917,79.461,4.1675,27.4634.2515,55.4987-.0781,84.8212,4.38,28.1329,4.8315,56.098,11.7065,83.1189,22.6562,26.9238,10.918,52.9559,26.128,74.7626,47.1143,11.0992,10.2393,20.4113,22.5171,28.637,35.3882,3.5608,6.7895,7.7265,13.2837,10.3717,20.5273,1.424,3.5645,3.0488,7.0606,4.2707,10.6934l3.2916,11.0351a87.7827,87.7827,0,0,1,2.5458,11.1963c.6262,3.772,1.6235,7.5049,1.9067,11.3111.72,7.5976,1.5534,15.2,1.2537,22.7954.2362,7.6245-.7495,15.1245-1.435,22.6538-.3985,3.7573-1.2524,7.4243-1.8707,11.1377a99.6665,99.6665,0,0,1-2.3694,11.0107l-2.9236,10.8545c-1.0925,3.5742-2.4438,7.0532-3.6645,10.5835-2.2815,7.1338-5.6824,13.7647-8.6182,20.603-6.7468,13.2154-14.1186,26.1646-23.197,37.8663a235.7412,235.7412,0,0,1-64.9689,59.7876l-4.69,2.9931L1950.19,2745l-9.8224,5.2686c-3.338,1.6333-6.7889,3.0468-10.1831,4.57a109.8342,109.8342,0,0,1-10.335,4.2212c-7.0343,2.4292-14.1462,5.0659-20.9925,6.67-6.9183,1.7724-13.8,3.86-20.7538,5.3491-27.774,6.416-55.8484,9.9609-83.9434,12.4438-56.2177,3.8526-112.7967,1.9532-168.3881-7.8686l-20.8295-3.7329-20.6451-4.8145-10.3192-2.4243c-3.4363-.8227-6.8061-1.9507-10.2118-2.9126l-20.379-6.0205c-26.8323-9.16-53.5273-19.3115-78.6023-33.2349-50.5756-26.4843-96.3361-65.1562-127.9248-114.475a300.386,300.386,0,0,1-34.9915-79.8023l-2.7814-10.5371a88.2126,88.2126,0,0,1-2.4029-10.603l-3.7146-21.3941c-1.0157-7.1509-1.3983-14.3506-2.1131-21.5234-.299-3.5889-.6726-7.18-.9021-10.7691l-.1092-10.7617c-.01-7.1679-.2606-14.36-.0488-21.5112l1.4074-21.3745c.28-3.5547.3827-7.1411.813-10.6714l1.4429-10.5615,2.9095-21.1255c1.2989-6.96,2.7979-13.8745,4.1931-20.8154l2.1338-10.398,1.0694-5.2,1.3672-5.1074,5.4882-20.4224,2.7509-10.21c.9521-3.3985,2.196-6.76,3.2812-10.1416,17.3328-54.3579,44.1022-104.58,74.7614-151.4942,31.1713-46.6455,66.2878-90.227,103.84-131.355a1134.93,1134.93,0,0,1,120.3809-115.2929c21.4337-17.6367,43.3966-34.6729,66.5283-50.0586,23.1671-15.3565,46.8146-29.8853,72.5183-41.4868a5.8462,5.8462,0,0,1,6.4331,9.5654Z" transform="translate(-787.5 -712.4676)"/><path class="cls-3" d="M2737.0594,1870.2286h0a14.2024,14.2024,0,0,1-8.276-18.3009l144.3816-382.77a14.2023,14.2023,0,0,1,18.3009-8.2761h0a148.9986,148.9986,0,0,1,86.8247,191.9965l-49.2347,130.5259A148.9985,148.9985,0,0,1,2737.0594,1870.2286Z" transform="translate(-787.5 -712.4676)"/><path class="cls-2" d="M2789.7131,1883.013a152.0324,152.0324,0,0,1-53.7524-9.8731h0a17.33,17.33,0,0,1-10.0879-22.3095l144.38-382.7735a17.3313,17.3313,0,0,1,22.3095-10.0879A152.1047,152.1047,0,0,1,2981.2,1653.9749l-49.2309,130.5273a152.42,152.42,0,0,1-142.2559,98.5108Zm-51.5552-15.6934a145.8921,145.8921,0,0,0,187.9883-85.0146l49.231-130.5274a145.8868,145.8868,0,0,0-85.01-187.9882,11.1128,11.1128,0,0,0-14.292,6.4648l-144.3823,382.7734a11.0973,11.0973,0,0,0,6.4648,14.292Z" transform="translate(-787.5 -712.4676)"/><g class="cls-4"><path class="cls-2" d="M2952.1423,1722.1978l-23.0781,61.2228a149.0648,149.0648,0,0,1-192.0232,86.832,14.2341,14.2341,0,0,1-8.2676-18.33l38.3486-101.7669a14.2287,14.2287,0,0,0,9.117,12.4443l9.0868,3.3983A148.8812,148.8812,0,0,0,2952.1423,1722.1978Z" transform="translate(-787.5 -712.4676)"/></g><path class="cls-2" d="M2789.72,1897.2269a166.3447,166.3447,0,0,1-58.7744-10.7911h0a31.5579,31.5579,0,0,1-18.3691-40.62l144.3823-382.7734a31.5728,31.5728,0,0,1,40.61-18.374,166.3209,166.3209,0,0,1,96.9262,214.3213l-49.2334,130.5273a166.6571,166.6571,0,0,1-155.542,107.71Zm-43.6181-42.1338A131.68,131.68,0,0,0,2912.85,1777.29l49.2334-130.5273a131.6817,131.6817,0,0,0-73.8257-168.5449Z" transform="translate(-787.5 -712.4676)"/><path class="cls-3" d="M1628.0312,984.3116h0a14.2024,14.2024,0,0,1,8.2761,18.3009l-144.3816,382.77a14.2024,14.2024,0,0,1-18.3009,8.276h0A148.9986,148.9986,0,0,1,1386.8,1201.6622l49.2346-130.5259A148.9986,148.9986,0,0,1,1628.0312,984.3116Z" transform="translate(-787.5 -712.4676)"/><path class="cls-2" d="M1478.6438,1397.6907a17.2641,17.2641,0,0,1-6.1182-1.123c-78.4741-29.6-118.2373-117.5293-88.6377-196.0059l49.2359-130.5224A152.0993,152.0993,0,0,1,1629.13,981.4017h0a17.33,17.33,0,0,1,10.0879,22.3095l-144.38,382.7686a17.3568,17.3568,0,0,1-16.1938,11.2109ZM1575.38,977.7591a146.1879,146.1879,0,0,0-136.4355,94.4775l-49.231,130.5225c-28.3911,75.2637,9.7437,159.5947,85.01,187.9883a11.1071,11.1071,0,0,0,14.292-6.4649l144.3823-382.7685a11.0972,11.0972,0,0,0-6.4649-14.292h0A145.8745,145.8745,0,0,0,1575.38,977.7591Z" transform="translate(-787.5 -712.4676)"/><g class="cls-4"><path class="cls-2" d="M1532.0106,1279.2062l-40.0666,106.1831a14.2358,14.2358,0,0,1-18.33,8.2684,148.9361,148.9361,0,0,1-86.8082-191.966l20.7431-55.0014a149.054,149.054,0,0,0,96.116,129.7863l13.9692,5.2665A14.3657,14.3657,0,0,0,1532.0106,1279.2062Z" transform="translate(-787.5 -712.4676)"/></g><path class="cls-2" d="M1478.6511,1411.91a31.472,31.472,0,0,1-11.14-2.0459c-85.8057-32.3682-129.2823-128.5108-96.9165-214.3164l49.2334-130.5225a166.3175,166.3175,0,0,1,214.3164-96.9189h0a31.5579,31.5579,0,0,1,18.3691,40.62l-144.3823,382.7685a31.59,31.59,0,0,1-29.48,20.4151Zm96.7358-419.9365a131.9455,131.9455,0,0,0-123.1469,85.2783l-49.2334,130.5224c-25.2588,66.9629,7.82,141.87,73.8257,168.545l142.1557-376.87A131.4769,131.4769,0,0,0,1575.3869,991.973Z" transform="translate(-787.5 -712.4676)"/><g class="cls-4"><path class="cls-2" d="M2449.7151,2165.6216c-180.9109,69.4979-388.6687,68.7185-578.63-18.7927a741.9315,741.9315,0,0,1-256.5577-194.6808q-12.2109-14.4191-23.5557-29.3579c24.9414-22.7763,48.8869-43.0844,70.4506-60.5778,23.0795-41.0494,48.367-81.8388,76.0363-122.0219h564.86C2372.1633,1879.2729,2419.0149,2024.3742,2449.7151,2165.6216Z" transform="translate(-787.5 -712.4676)"/></g><circle class="cls-3" cx="1395.1247" cy="714.8325" r="697.1317"/><path class="cls-2" d="M2181.5661,2127.51A696.1837,696.1837,0,0,1,1889.64,2063.306c-350.6934-161.5528-504.57-578.2959-343.02-928.9942,161.5552-350.6933,578.3033-504.5581,928.9893-343.0151,350.6934,161.55,504.57,578.2934,343.02,928.9917C2700.66,1976.3675,2446.6028,2127.51,2181.5661,2127.51Zm2.1045-1394.1993c-262.7026,0-514.4653,149.7754-631.3965,403.6084-160.1147,347.5782-7.6049,760.6153,339.9683,920.7325,347.5781,160.1074,760.62,7.6025,920.7324-339.9707l2.8272,1.3037-2.8272-1.3037c160.1172-347.5782,7.6075-760.6153-339.9682-920.73A690.1112,690.1112,0,0,0,2183.6706,733.3108Z" transform="translate(-787.5 -712.4676)"/><g class="cls-4"><path class="cls-2" d="M2850.11,1628.54a692.8429,692.8429,0,0,1-34.2992,90.4558c-161.1356,349.662-575.1906,502.5539-924.8884,341.5-349.6627-161.1346-502.5534-575.19-341.5-924.8874,4.626-10.059,9.4964-20.0161,14.5435-29.7052-99.3018,327.8892,55.8486,687.0271,375.7995,834.4314C2279.4039,2096.7621,2679.6914,1957.0423,2850.11,1628.54Z" transform="translate(-787.5 -712.4676)"/></g><path class="cls-2" d="M2181.5442,2141.719a710.2368,710.2368,0,0,1-297.8492-65.5078c-357.8076-164.834-514.8071-590.0341-349.98-947.8418,79.8486-173.33,222.417-305.19,401.438-371.2915,179.0258-66.1059,373.0713-58.53,546.4013,21.3135,357.8076,164.8316,514.81,590.0269,349.9805,947.8394C2711.1706,1987.51,2451.9592,2141.719,2181.5442,2141.719ZM2182.99,747.1268a679.9821,679.9821,0,0,0-235.8374,42.4462C1776.81,852.471,1641.156,977.94,1565.1794,1142.8616c-156.8384,340.4639-7.4512,745.0489,333.0078,901.8848,340.4639,156.831,745.0464,7.4512,901.8824-333.0078h0c156.8383-340.4639,7.4511-745.0489-333.0079-901.8823A677.7332,677.7332,0,0,0,2182.99,747.1268Zm632.8125,971.8579h0Z" transform="translate(-787.5 -712.4676)"/><path class="cls-2" d="M2806.2854,1734.3135c-55.2,124.7514-146.9434,222.6523-258.6028,287.8345-83.7114,48.8674-352.7892,80.1554-617.4035-34.0986-245.354-105.9379-410.0517-334.6212-430.1857-429.438-26.8561-126.4725-16.1042-260.21,39.0958-384.962,146.0753-330.1286,490.2661-341.4836,840.18-186.6538S2952.3607,1404.1849,2806.2854,1734.3135Z" transform="translate(-787.5 -712.4676)"/><path class="cls-2" d="M2307.5525,2083.9749c-111.6822,0-246.7041-20.6836-384.1382-80.0244-253.97-109.6582-419.148-342.31-440.2637-441.7383-28.6059-134.707-14.7046-271.4941,40.1978-395.5713,71.5429-161.6846,191.5307-257.6611,356.6357-285.2588,144.104-24.0844,319.209,6.9532,506.394,89.7754,187.1827,82.8223,327.9224,191.5381,407.0093,314.3848,90.6079,140.7519,100.2783,294.0967,28.7378,455.7764-54.9048,124.0869-146.7871,226.3671-265.71,295.7861C2514.3982,2061.636,2423.5705,2083.9749,2307.5525,2083.9749Zm-330.74-1175.9228c-163.645,0-328.8183,62.5-421.7846,272.6025-51.9361,117.3779-65.0733,246.8262-37.9908,374.36,19.2334,90.5762,180.4688,313.6622,420.1075,417.1289,265.559,114.668,527.0288,78.7012,601.8041,35.0489,112.5928-65.7276,199.5582-162.51,251.4966-279.8877,66.5284-150.3565,57.72-292.6758-26.1865-423.0127-75.41-117.1387-210.9253-221.3818-391.8994-301.4551C2282.467,963.0618,2130.3113,908.0521,1976.8127,908.0521Zm829.4727,826.26h0Z" transform="translate(-787.5 -712.4676)"/><g class="cls-8"><ellipse class="cls-3" cx="2620.223" cy="1598.3568" rx="123.3703" ry="89.3965" transform="translate(-960.6775 2157.5914) rotate(-55.861)"/></g><g class="cls-7"><ellipse class="cls-3" cx="2421.1897" cy="1777.5282" rx="56.626" ry="48.5938" transform="translate(-1308.2253 1670.7853) rotate(-47.9187)"/></g><g class="cls-4"><path class="cls-9" d="M2819.339,1371.81c44.748,108.1748,45.5986,229.8822-13.0526,362.481-55.21,124.7774-146.9745,222.66-258.5868,287.8655-83.7271,48.86-352.8223,80.1327-617.4429-34.0921-93.4434-40.316-175.1454-98.4512-241.6516-160.2666,328.2748,133.4767,656.5628,94.2081,760.3789,33.5944,141.7235-82.7247,258.164-207.001,328.1857-365.31A705.754,705.754,0,0,0,2819.339,1371.81Z" transform="translate(-787.5 -712.4676)"/></g><path class="cls-2" d="M2879.9084,1438.0228a17.3051,17.3051,0,0,1-15.2148-9.0235c-.1929-.3564-.43-.8252-.5957-1.1914a17.2421,17.2421,0,0,1-1.2207-3.7256c-40.791-198.2373-210.1758-376.5332-464.7193-489.165-255.9594-113.2495-502.8662-115.8057-677.4023-7.0117a17.7191,17.7191,0,0,1-1.7285.9472,17.32,17.32,0,0,1-16.1011-30.6494c184.4019-114.6484,442.8711-112.8222,709.2505,5.0342,264.5068,117.0459,441.0132,303.9453,484.4311,512.9a17.3338,17.3338,0,0,1-16.6992,21.8848Z" transform="translate(-787.5 -712.4676)"/><g class="cls-7"><path class="cls-3" d="M1594.5719,1432.998s41.8572-370.9152,274.7987-423.033,485.2268,60.1392,472.156,73.7211c0,0-309.5007-56.0195-516.6731,116.5867C1665.0981,1333.3734,1594.5719,1432.998,1594.5719,1432.998Z" transform="translate(-787.5 -712.4676)"/></g><path class="cls-10" d="M1926.3942,1956.6076l-16.4023,92.0381L1775.7536,2801.68c-5.4678,19.0353,36.0853,49.285,104.9559,80.672,49.3816,22.5692,112.8386,45.6935,183.1972,65.8464,70.3228,20.13,136.4237,34.0359,190.1915,41.0069,75.1142,9.7889,126.2948,6.0762,131.7264-12.9824l291.0436-726.6919,28.0886-70.1686Z" transform="translate(-787.5 -712.4676)"/><path class="cls-11" d="M2704.9542,2179.3479l-28.0155,70.1908-2.4682,6.1487-29.8775,74.5209-12.1678,30.3537-40.7893,101.757-2.3382,5.9756-59.0191,147.2229-.65,1.6888-30.2239,75.3867-11.4749,28.5788-15.5015,38.7543-44.99,112.3656-25.591,63.9121-16.0645,40.01c-5.4126,19.0525-56.5942,22.82-131.7211,12.99-53.7366-7.0147-119.8138-20.8708-190.1343-41.0491-27.3229-7.7941-53.693-16.0645-78.4612-24.5949-32.7354-11.215-62.8729-22.8627-89.5028-34.4242-3.9406-1.7319-7.751-3.4207-11.5182-5.11-1.2556-.5629-2.4682-1.1259-3.68-1.6888-46.5484-21.1739-80.5828-41.8285-96.128-58.8891-5.4993-6.0622-8.66-11.6046-9.2231-16.6276a12.2546,12.2546,0,0,1,.3465-5.1959l12.1675-68.1989,12.6438-70.97,41.3523-231.9195,13.3367-74.824,16.7141-93.8329,38.0183-213.2135,2.035-11.3881,3.6374-20.3515,10.7386-60.3181Z" transform="translate(-787.5 -712.4676)"/><g class="cls-12"><path class="cls-3" d="M2017.4936,2175.6831h37.1887a34.2025,34.2025,0,0,1,34.2025,34.2025V2346.802a34.2024,34.2024,0,0,1-34.2024,34.2024h-37.1888a34.2025,34.2025,0,0,1-34.2025-34.2025V2209.8857A34.2025,34.2025,0,0,1,2017.4936,2175.6831Z" transform="translate(-395.7818 -1009.4981) rotate(9.2281)"/></g><g class="cls-8"><path class="cls-3" d="M2294.0625,2989.2041c-53.7366-7.0142-119.8138-20.8716-190.1343-41.05-27.323-7.793-53.6926-16.0645-78.4613-24.5947-32.735-11.2158-62.8729-22.8614-89.5025-34.4239-3.9405-1.7309-7.7515-3.42-11.5186-5.11-1.2555-.5615-2.4683-1.1255-3.68-1.6895-46.5479-21.1718-80.5823-41.8286-96.1279-58.8891-5.4993-6.062-8.66-11.604-9.2231-16.626a12.26,12.26,0,0,1,.3461-5.1953l12.168-68.2007,12.644-70.9692,41.3519-231.919,13.3368-74.8242,16.7139-93.833,38.0188-213.2129,2.0349-11.3892,3.6371-20.3515,9.0424-50.791-33.3039-9.5264-10.7385,60.3174-3.6371,20.3515-2.0349,11.3892L1876.9751,2261.88l-16.7139,93.833-13.3368,74.8242-41.3519,231.919-12.644,70.9692-12.168,68.2007a12.26,12.26,0,0,0-.3461,5.1953c.5634,5.022,3.7238,10.564,9.2231,16.626,15.5456,17.0605,49.58,37.7173,96.1279,58.8891,1.2121.564,2.4249,1.128,3.68,1.6895,3.7671,1.6894,7.5781,3.3789,11.5186,5.11,26.63,11.5625,56.7675,23.2081,89.5025,34.4239,24.7687,8.53,51.1383,16.8017,78.4613,24.5947,70.3205,20.1782,136.3977,34.0356,190.1343,41.05,34.3518,4.4946,63.6108,6.1084,85.863,4.7559C2329.64,2993.2153,2312.5879,2991.6284,2294.0625,2989.2041Z" transform="translate(-787.5 -712.4676)"/></g><g class="cls-4"><path class="cls-2" d="M2704.9542,2179.3479c-407.5909,987.52-250.0192,822.6733-559.1873,789.9378-244.217-64.2583-331.295-108.7284-358.4447-145.7939-6.8416-9.31-9.9158-18.1865-10.6952-26.8033l7.2745-40.7029c2.5979-8.8766,4.85-17.84,4.85-27.0631v-.2164l11.821-66.25,41.3523-231.9195c26.1972.1731,52.0044.6063,74.3911,4.2434,263.7455,42.9544,225.0779,269.2015,88.81,348.5287,109.1616,9.5263,220.2285,3.2042,261.3643-9.6993,134.6656-42.1317,163.98-148.2622,205.9389-253.0937,44.8163-111.8029-11.1283-238.1114-123.6242-281.1959-152.3755-58.4128-309.6443-134.9254-433.1385-222.3932l10.7386-60.3181C1979.6215,1971.85,2672.6953,2170.1248,2704.9542,2179.3479Z" transform="translate(-787.5 -712.4676)"/></g><g class="cls-4"><path class="cls-2" d="M1783.9015,2755.9856l-7.2745,40.7029C1775.3711,2782.7024,1780.0043,2769.409,1783.9015,2755.9856Z" transform="translate(-787.5 -712.4676)"/></g><path class="cls-2" d="M2324.1443,3011.8558c-19.0528,0-42.7491-1.6309-72.2657-5.4834-56.8432-7.3536-123.5034-21.7188-192.7563-41.5332-69.2139-19.795-133.396-42.8662-185.603-66.709-111.7115-50.918-119.5069-81.5088-114.6875-100.2344l150.5127-844.3164a17.319,17.319,0,0,1,21.8139-13.6084L2709.7326,2162.71a17.3161,17.3161,0,0,1,11.316,23.0908l-318.84,796.1572C2397.8039,2995.9329,2383.6535,3011.8558,2324.1443,3011.8558ZM1792.7087,2805.21c2.2534,6.45,22.7832,28.3984,95.19,61.4013,50.6739,23.1446,113.1714,45.5957,180.752,64.9268,67.6172,19.3457,132.5171,33.3447,187.69,40.4834,78.9112,10.2978,107.93,2.5146,113.2471-1.7676.0586-.1611.1172-.3174.1807-.4736l311.9873-779.0479L1940.0793,1978.55,1792.8015,2804.722C1792.7722,2804.8831,1792.7405,2805.0442,1792.7087,2805.21Zm-.3027,1.2207-.0025.0146Zm-16.6553-4.751h0Z" transform="translate(-787.5 -712.4676)"/><path class="cls-13" d="M1950.8418,1777.1374c-7.4,25.8669,48.9484,66.8819,142.498,109.5506,67.0216,30.5853,153.184,62.0118,248.6683,89.3285s185.2308,46.2153,258.287,55.7043c101.9625,13.2645,171.4441,8.2478,178.8443-17.6192,12.6927-44.3669-162.4283-133.4054-391.1423-198.8373C2159.2505,1749.8232,1963.5345,1732.7705,1950.8418,1777.1374Z" transform="translate(-787.5 -712.4676)"/><path class="cls-13" d="M2779.1482,2014.105c-7.4,25.8654-76.8956,30.8672-178.8491,17.6133-73.0526-9.4932-162.817-28.3831-258.3017-55.6989-40.34-11.5328-79.0132-23.8124-115.2613-36.4311-31.868-11.099-61.8623-22.4733-89.49-33.8881q-23.1141-9.5055-43.8979-19.0126c-44.25-20.1795-80.1574-39.9851-104.96-58.0115-27.6314-20.0577-41.4432-37.89-37.5441-51.5316,5.2659-18.4289,42.057-26.2677,99.6583-24.4342l.0225.0063c81.1673,2.5445,203.6584,24.2778,337.4863,62.5423C2616.7088,1880.691,2791.8338,1969.7433,2779.1482,2014.105Z" transform="translate(-787.5 -712.4676)"/><path class="cls-14" d="M2779.1482,2014.105c-7.4,25.8654-76.8956,30.8672-178.8491,17.6133-73.0526-9.4932-162.817-28.3831-258.3017-55.6989-40.34-11.5328-79.0132-23.8124-115.2613-36.4311-31.868-11.099-61.8623-22.4733-89.49-33.8881q-23.1141-9.5055-43.8979-19.0126c-44.25-20.1795-80.1574-39.9851-104.96-58.0115-27.6314-20.0577-41.4432-37.89-37.5441-51.5316,3.7979-13.2817,23.9936-21.0657,56.575-23.6766a383.3105,383.3105,0,0,1,43.0833-.7576l.0225.0063c81.1673,2.5445,203.6584,24.2778,337.4863,62.5423,136.583,39.0858,254.0588,86.5765,323.8271,127.9445C2758.8961,1971.1133,2784.2566,1996.2388,2779.1482,2014.105Z" transform="translate(-787.5 -712.4676)"/><g class="cls-4"><path class="cls-2" d="M2718.4987,1968.1819c-7.3777,25.8718-68.3664,33.2594-157.132,23.7044-63.6006-6.8419-141.4821-22.3989-224.0941-46.104-34.8934-10.0055-68.301-20.8079-99.5979-32.0379-27.5018-9.8743-53.3327-20.0811-77.1126-30.4164q-19.9074-8.606-37.7541-17.2893c-38.0166-18.4311-68.7475-36.785-89.837-53.77-23.468-18.89-34.9395-36.066-31.04-49.7075a21.2789,21.2789,0,0,1,5.4878-9.0935,383.3105,383.3105,0,0,1,43.0833-.7576l.0225.0063c81.1673,2.5445,203.6584,24.2778,337.4863,62.5423,136.583,39.0858,254.0588,86.5765,323.8271,127.9445C2718.2,1952.3677,2720.5917,1960.8066,2718.4987,1968.1819Z" transform="translate(-787.5 -712.4676)"/></g><path class="cls-2" d="M2694.823,2056.1575c-27.2144,0-59.6021-2.4267-96.7627-7.2607-77.0264-10.0049-167.2168-29.4483-260.8179-56.23-93.6084-26.7773-180.4346-57.9736-251.0937-90.22-48.6182-22.1778-86.4258-43.3838-112.3706-63.0274-11.9483-9.0478-48.3057-36.5771-39.59-67.0459h0c5.7715-20.1757,28.1885-45.7226,155.7153-34.6045,83.6451,7.29,191.2012,28.9014,302.8565,60.8448,111.6431,31.9385,214.3432,70.4834,289.1846,108.53,114.0991,58.0079,119.6215,91.543,113.8476,111.7237-8.7183,30.4687-54.1211,34.6045-69.043,35.9668Q2712.2327,2056.16,2694.823,2056.1575ZM1967.5061,1781.91c-.4224,7.28,22.9223,38.8037,133.02,89.0234,69.1187,31.5381,154.2676,62.1192,246.2451,88.4326,91.97,26.3135,180.4077,45.3907,255.7544,55.1758,120.542,15.6934,156.7993,1.0645,159.9951-5.293.459-5.6005-17.0044-31.5869-101.1108-73.6621-72.5122-36.2793-171.3037-73.0957-278.1763-103.6718-106.8945-30.5762-210.2222-51.587-290.9521-59.15C1999.1662,1764.0384,1970.4065,1776.6653,1967.5061,1781.91Zm-.0464.0879Zm-16.6187-4.8584h0Z" transform="translate(-787.5 -712.4676)"/><path class="cls-13" d="M1888.22,1903.1809c-13.4541,47.0281,172.0565,141.3564,414.3376,210.67s449.6112,87.371,463.0652,40.3429l.6469-6.5565,12.8528-133.54c-7.4,25.8669-76.8817,30.8837-178.8443,17.6192-73.0561-9.489-162.803-28.3877-258.2869-55.7043s-181.6467-58.7432-248.6684-89.3285c-93.55-42.6687-149.8981-83.6837-142.4979-109.5506l-59.6864,120.1416Z" transform="translate(-787.5 -712.4676)"/><path class="cls-14" d="M2765.6137,2154.1893c-13.4079,47.0235-220.7831,28.986-463.0267-40.3425-43.1691-12.3509-84.518-25.4777-123.2749-39.0187-36.1292-12.61-69.9868-25.5289-100.9229-38.4784-37.9367-15.86-71.4942-31.7535-99.4493-47.0227-15.58-8.4969-29.4362-16.8255-41.3671-24.8328-35.6289-24-53.911-45.3682-49.3395-61.3216l2.89-5.8893,31.5835-63.5308,28.143-56.63c-4.3193,15.053,12.936,35.2349,46.5,57.8549,11.8411,7.982,25.7318,16.2719,41.4152,24.7491,16.3144,8.8241,34.5845,17.8568,54.56,26.9553q19.8858,9.0733,41.92,18.1907c28.5965,11.8563,59.7518,23.6777,92.89,35.1815,35.8493,12.4826,74.0405,24.5782,113.8625,35.9659,95.4685,27.287,185.2269,46.1994,258.3017,55.6989,101.9473,13.2763,171.41,8.2169,178.8491-17.6133l-6.475,67.0532-6.3849,66.4717Z" transform="translate(-787.5 -712.4676)"/><g class="cls-4"><path class="cls-2" d="M2765.6137,2154.1893c-53.1086,92.4377-644.5311-72.8576-802.7258-173.9284,94.3449,34.1656,277.41,105.094,422.365,130.4778,102.3227,17.9182,236.0275-1.2053,216.8486-78.7821,100.9632,12.9762,169.6519,7.8211,177.0467-17.8516C2775.558,2050.8331,2769.2616,2117.3515,2765.6137,2154.1893Z" transform="translate(-787.5 -712.4676)"/></g><g class="cls-12"><path class="cls-15" d="M2220.0558,1936.9936l-40.7437,137.8345c-36.1292-12.61-69.9868-25.5289-100.9229-38.4784l56.8557-131.4777Z" transform="translate(-787.5 -712.4676)"/></g><g class="cls-8"><path class="cls-15" d="M1997.35,1834.9769l-59.777,129.5173c-35.6289-24-53.911-45.3682-49.3395-61.3216l2.89-5.8893,31.5835-63.5308,28.143-56.63C1946.53,1792.175,1963.7857,1812.3569,1997.35,1834.9769Z" transform="translate(-787.5 -712.4676)"/></g><path class="cls-2" d="M2676.4489,2197.7151q-25.84,0-58.0517-2.8076c-88.5376-7.7148-202.3975-30.5859-320.603-64.4043-118.21-33.8183-226.9385-74.624-306.1548-114.9072-90.2295-45.874-129.5044-84.2041-120.0708-117.1826a17.612,17.612,0,0,1,1.1255-2.91l2.9174-5.9033,59.7022-120.1709a17.3213,17.3213,0,0,1,32.1655,12.4707c-.6274,6.9922,22.4219,38.5742,133.0322,89.0283,69.1138,31.5381,154.2627,62.1192,246.2427,88.4326,91.9751,26.3135,180.4126,45.3956,255.7569,55.1758,120.5664,15.6983,156.8042,1.0645,159.99-5.2929a17.3133,17.3133,0,0,1,33.8623,6.5136L2782.86,2155.8938a17.3961,17.3961,0,0,1-.5835,3.0665C2774.8523,2184.9075,2740.072,2197.7151,2676.4489,2197.7151Zm-771.5283-289.2334c.6153,3.8623,8.5034,28.4864,102.4195,76.24,77.3022,39.3017,183.8379,79.248,299.98,112.48,116.1426,33.2227,227.6856,55.669,314.0821,63.1934,104.9707,9.15,124.6777-7.583,127.2436-10.5322l.3882-3.9258,9.2871-96.4941c-12.6172,3.6572-25.0391,4.79-31.5893,5.3857-32.4073,2.9541-75.7032.9521-128.6866-5.9375-77.0239-10.0049-167.2143-29.4482-260.8178-56.2305-93.6133-26.7773-180.4395-57.9736-251.0938-90.22-48.6206-22.1777-86.4282-43.3838-112.3706-63.0273-5.2441-3.97-15.1929-11.5039-23.9673-21.2793Z" transform="translate(-787.5 -712.4676)"/><path class="cls-13" d="M2093.4061,1675.2884c-5.5268,19.3185,36.5566,49.95,106.4233,81.8169,50.0544,22.8424,114.404,46.3129,185.7156,66.7141s138.3379,34.5155,192.8992,41.6023c76.15,9.9064,128.0414,6.16,133.5682-13.1588,9.4794-33.1349-121.308-99.6325-292.121-148.5C2249.0542,1654.8891,2102.8855,1642.1535,2093.4061,1675.2884Z" transform="translate(-787.5 -712.4676)"/><path class="cls-14" d="M2712.0008,1852.2648c-2.8729,10.07-18.3458,15.9012-43.3184,17.7817-22.8867,1.7129-53.8.1064-90.2442-4.6292-54.554-7.072-121.5768-21.1855-192.9-41.603-71.3072-20.3888-135.653-43.8743-185.7143-66.7032-33.2942-15.1887-60.2842-30.09-78.8172-43.6391-20.3505-14.86-30.5055-28.0736-27.5974-38.1819,9.49-33.1444,155.6487-20.4064,326.479,28.4794C2590.7022,1752.6263,2721.4912,1819.1205,2712.0008,1852.2648Z" transform="translate(-787.5 -712.4676)"/><g class="cls-8"><path class="cls-15" d="M2712.0008,1857.2648a14.8944,14.8944,0,0,1-5.5722,7.6618c-13.4238-35.2261-135.8137-94.3636-291.3884-138.8733-155.8674-44.5919-291.1821-59.1193-320.9074-36.1413a14.9563,14.9563,0,0,1-.7238-9.6219c9.49-33.1444,155.6487-20.4064,326.479,28.4794C2590.7022,1757.6263,2721.4912,1824.1205,2712.0008,1857.2648Z" transform="translate(-787.5 -712.4676)"/></g><g class="cls-4"><path class="cls-2" d="M2668.7743,1869.8052a.9556.9556,0,0,1-.0919.2413c-22.8867,1.7129-53.8.1064-90.2442-4.6292-54.554-7.072-121.5768-21.1855-192.9-41.603-71.3072-20.3888-135.653-43.8743-185.7143-66.7032-33.2942-15.1887-60.2842-30.09-78.8172-43.6391l.101-.36c8.3949-29.325,137.8024-18.0566,289.04,25.2125S2677.1755,1840.4578,2668.7743,1869.8052Z" transform="translate(-787.5 -712.4676)"/></g><path class="cls-2" d="M2649.447,1888.14c-19.2969,0-43.313-1.65-73.2373-5.5419-57.7149-7.4952-125.293-22.0655-195.4273-42.129-70.1147-20.0585-135.1733-43.4375-188.142-67.6074-115.1-52.4951-121.2623-83.5449-115.8863-102.3388,7.5293-26.3233,45.9473-35.5323,120.8887-29.004,62.7441,5.4688,143.3643,21.66,227.0117,45.5958,83.64,23.9257,160.62,52.8222,216.7554,81.3574,67.0605,34.0918,94.7876,62.2314,87.2558,88.5547C2724.5715,1871.3333,2711.0388,1888.14,2649.447,1888.14Zm-538.4937-207.9052c4.2627,7.8857,26.7212,29.4873,96.0645,61.1133,51.4282,23.4667,114.8071,46.2255,183.291,65.82,68.5034,19.5947,134.3286,33.7988,190.3662,41.0742,75.5835,9.8388,106.0523,3.3789,113.8306-1.06-9.7705-20.5029-106.1377-77.2021-279.3775-126.7676C2241.8835,1670.85,2130.0964,1668.013,2110.9533,1680.2347Zm-17.5463-4.9463h0Z" transform="translate(-787.5 -712.4676)"/><path class="cls-13" d="M2155.9991,1738.7788c-4.193,14.6561,27.734,37.8951,80.7391,62.0712,37.9743,17.33,86.7938,35.1357,140.895,50.6133s104.9515,26.1855,146.345,31.562c57.7718,7.5156,97.14,4.6732,101.3328-9.983,7.1917-25.1382-92.0315-75.5873-221.62-112.6609C2274.0831,1723.3026,2163.1907,1713.6406,2155.9991,1738.7788Z" transform="translate(-787.5 -712.4676)"/><path class="cls-2" d="M2577.9773,1899.639c-14.6192,0-32.8467-1.2549-55.61-4.2139-43.7695-5.6934-95.0073-16.7383-148.1714-31.9434-53.1591-15.205-102.4853-32.9345-142.6489-51.26-86.87-39.624-91.58-62.8565-87.5635-76.88,5.6153-19.6289,34.5557-26.4649,91.04-21.5479,47.5634,4.15,108.6841,16.4258,172.1045,34.57,63.4179,18.14,121.7773,40.0488,164.331,61.68,50.5542,25.7032,71.4844,46.8116,65.8692,66.4356C2634.281,1887.1341,2624.1491,1899.6341,2577.9773,1899.639ZM2168.47,1742.305c2.5806,5.6933,19.0625,22.3633,73.4546,47.1728,39.05,17.8174,87.1656,35.0977,139.1455,49.9707,51.99,14.8682,101.9629,25.6495,144.5191,31.1817,59.2822,7.72,82.0776,2.28,87.2754-1.1914-5.9107-15.22-78.8916-58.7842-212.6123-97.041C2266.53,1734.1409,2181.5417,1732.5052,2168.47,1742.305Zm-.4516-.0879h0ZM2156,1738.78h0Z" transform="translate(-787.5 -712.4676)"/><path class="cls-13" d="M2046.6379,1769.4229c-10.0481,35.1224,128.4988,105.5707,309.4441,157.3366s335.7879,65.2522,345.836,30.13l.4831-4.8967,9.599-99.7331c-5.5268,19.3185-57.4184,23.0652-133.5682,13.1588-54.5613-7.0868-121.5879-21.2011-192.8992-41.6023s-135.6611-43.8717-185.7156-66.7141c-69.8666-31.8667-111.95-62.4984-106.4233-81.8169l-44.5762,89.7267Z" transform="translate(-787.5 -712.4676)"/><path class="cls-14" d="M2701.9317,1956.8837c-10.075,35.1409-164.9052,21.6456-345.85-30.1256-23.0361-6.5825-45.3769-13.48-66.8105-20.5841-35.4859-11.7009-68.467-23.9374-97.9772-36.1714-39.4191-16.3726-72.61-32.7947-97.3-48.0218-33.4326-20.6654-51.1615-39.1595-47.3322-52.5535l2.1621-4.4186,22.0567-44.452,22.47-45.2343c-3.5853,12.7828,13.5874,30.49,45.8375,50.2651,16.5162,10.0944,36.9747,20.76,60.6285,31.5461q15.9226,7.2334,33.6695,14.5414c25.8811,10.6335,54.491,21.2312,85.1473,31.4562,21.3981,7.1428,43.7777,14.0753,66.9038,20.6831,71.3235,20.4175,138.33,34.5022,192.8715,41.6192,76.1718,9.8825,128.0791,6.1378,133.5689-13.175l-4.3175,45.2523-5.2326,54.4872Z" transform="translate(-787.5 -712.4676)"/><g class="cls-4"><path class="cls-2" d="M2701.9317,1956.8837c-10.075,35.1409-164.9052,21.6456-345.85-30.1256-23.0361-6.5825-45.3769-13.48-66.8105-20.5841-18.0853-5.9707-35.5261-12.0763-52.1934-18.2562q19.3509,6.0465,39.5317,11.8161c180.945,51.7712,335.7756,65.2668,345.85,30.1257l.4965-4.8857,5.2325-54.4872.0208-.3341c48.3837,2.5011,79.5891-3.166,83.7687-17.8941l-4.3175,45.2523-5.2326,54.4872Z" transform="translate(-787.5 -712.4676)"/></g><g class="cls-12"><path class="cls-15" d="M2318.6341,1803.1312l-29.363,103.0428c-35.4859-11.7009-68.467-23.9374-97.9772-36.1714l42.1929-98.3276C2259.3679,1782.3085,2287.9778,1792.9062,2318.6341,1803.1312Z" transform="translate(-787.5 -712.4676)"/></g><g class="cls-8"><path class="cls-15" d="M2139.1888,1725.5875l-45.1945,96.3933c-33.4326-20.6654-51.1615-39.1595-47.3322-52.5535l2.1621-4.4186,22.0567-44.452,22.47-45.2343C2089.766,1688.1052,2106.9387,1705.8122,2139.1888,1725.5875Z" transform="translate(-787.5 -712.4676)"/></g><path class="cls-2" d="M2635.7239,1993.804q-19.6437,0-44.1407-2.1435c-66.394-5.7813-151.7212-22.92-240.2636-48.252-88.5425-25.3272-170.0245-55.9131-229.4312-86.1182-70.52-35.8545-99.7241-65.2881-91.9043-92.6318a17.3413,17.3413,0,0,1,1.1231-2.9053l46.7749-94.1748a17.3213,17.3213,0,0,1,32.456,11.3037c2.1753,6.5039,22.8687,28.8037,96.6675,62.461,51.4038,23.4619,114.7827,46.2207,183.291,65.82,68.4619,19.59,134.29,33.7939,190.3662,41.0791,80.4224,10.4687,109.7705,2.4756,115.0537-1.8848a17.3213,17.3213,0,0,1,33.5254,7.5635l-10.0879,104.668a17.3786,17.3786,0,0,1-.5835,3.0664C2712.3718,1983.3206,2685.7336,1993.804,2635.7239,1993.804ZM2063.7,1773.99c6.7115,20.7959,108.667,82.1972,297.146,136.1181,188.4766,53.9209,307.4829,55.7422,324.1748,41.6309l6.482-67.3c-22.3218,4.834-57.9761,5.61-115.3052-1.8408-57.7588-7.51-125.3369-22.0752-195.43-42.1338-70.1392-20.0635-135.1978-43.4424-188.1421-67.6075-52.6074-23.9941-82.456-43.5058-98.8476-59.4189Zm631.6529,73.496-.0049.01Z" transform="translate(-787.5 -712.4676)"/><path class="cls-16" d="M2259.0756,2597.2528c-8.6811-45.2068-29.5538-85.2052-51.6825-125.0039a342.8783,342.8783,0,0,1-27.9324-63.7684c-9.3231-29.5309-13.8264-59.8552-12.2351-91.0826a221.9176,221.9176,0,0,1,2.3442-23.6545,253.4506,253.4506,0,0,1,6.7111-31.8381c3.0925-11.2127,7.727-15.315,19.5495-14.5831a138.0161,138.0161,0,0,1,59.1363,16.9784l.0255.0324a151.0471,151.0471,0,0,1,35.7338,27.7792c79.6272,82.6016,101.35,226.2646,49.6174,328.7963-18.5924,36.9082-43.8991,67.985-85.8786,84.392C2265.2083,2668.525,2265.9683,2633.031,2259.0756,2597.2528Z" transform="translate(-787.5 -712.4676)"/><path class="cls-16" d="M2128.3437,2259.4884c-13.6036,52.3587-12.17,101.204.1061,147.7277,9.6738,36.79,26.1553,72.1187,47.2322,106.5677,10.8966,17.7813,18.9912,37.1293,25.6143,57.0031,14.4692,43.4453,19.19,87.2035,5.56,132.0487-3.6208,11.9408-9.535,15.9459-21.6785,15.2049-38.4437-2.3205-70.3449-18.6626-96.4888-45.6878-53.2169-55.1031-79.4314-137.8494-75.49-217.4334,1.9031-39.1105,11.08-77.4845,27.9641-111.4317a6.1725,6.1725,0,0,1,.4335-.9157,233.3238,233.3238,0,0,1,12.17-21.4644C2071.324,2293.6967,2094.2889,2271.5185,2128.3437,2259.4884Z" transform="translate(-787.5 -712.4676)"/><g class="cls-1"><path class="cls-17" d="M1880.765,2212.5775a51.1315,51.1315,0,0,0-2.377,13.4179Z" transform="translate(-787.5 -712.4676)"/></g><g class="cls-1"><polygon class="cls-18" points="1927.701 1469.748 1927.695 1469.77 1871.528 1453.691 1927.701 1469.748"/></g><g class="cls-7"><path class="cls-16" d="M1935.2043,2541.68c-68.3064-5.875-93.6749,170.2689-25.964,207.7049S2025.0482,2549.4071,1935.2043,2541.68Z" transform="translate(-787.5 -712.4676)"/></g><path class="cls-3" d="M2640.9562,2358.5338s-10.7381,19.6907-55.3231,15.2322c-22.3336-2.2334-59.5506-16.1738-99.1173-10.738-96.385,13.2415-204.2738,232.4907-62.8576,335.7853,93.7252,68.46,179.5725-43.4094,196.6686-92.1531C2651.8613,2516.75,2640.9562,2358.5338,2640.9562,2358.5338Z" transform="translate(-787.5 -712.4676)"/><g class="cls-4"><path class="cls-2" d="M2641.21,2479.9859c-2.4248,43.4739-8.227,90.5422-20.8708,126.655-17.1039,48.7568-102.97,160.6461-196.6727,92.1875-74.4773-54.3859-79.8035-140.9443-54.0828-212.65,4.85,42.6945,24.8547,83.5706,66.8566,114.271,93.7031,68.4587,179.5688-43.4309,196.6725-92.1444A262.7682,262.7682,0,0,0,2641.21,2479.9859Z" transform="translate(-787.5 -712.4676)"/></g><path class="cls-2" d="M2484.8474,2737.681c-24.5776,0-48.8013-8.3692-71.4038-24.8829-64.47-47.09-89.1529-122.8125-67.72-207.7587,20.8837-82.7686,80.3979-151.1963,138.4326-159.17,30.7129-4.2285,59.9682,2.0508,81.3281,6.6309,8.6572,1.8555,16.1328,3.457,21.87,4.0283,27.1045,2.7246,36.7139-4.99,38.63-6.8848,2.998-7.2314,10.1025-10.498,17.9638-9.375,8.0738,1.167,13.7256,8.9356,14.2872,17.0752.4541,6.6065,10.7788,162.8321-21.565,255.0489-13.6206,38.8379-59.3115,101.7724-118.2471,120.0879A112.7449,112.7449,0,0,1,2484.8474,2737.681Zm20.4687-358.5743a121.3253,121.3253,0,0,0-16.4453,1.0791c-43.3642,5.9571-92.5122,65.7715-109.5605,133.33-8.42,33.374-19.961,116.875,54.5654,171.3135,24.3311,17.7734,48.6255,22.5342,74.2676,14.57,48.6206-15.1123,86.4111-71.5918,95.8374-98.4717,22.1387-63.1152,22.3779-163.7207,20.9473-212.6416-10.3272,2.9444-23.7476,4.4385-41.0181,2.7149-7.6611-.7666-16.0132-2.5586-25.686-4.6289C2542.7551,2383.0569,2524.342,2379.1067,2505.3161,2379.1067Zm120.4346-28.8623Z" transform="translate(-787.5 -712.4676)"/><g class="cls-4"><path class="cls-2" d="M1741.01,2818.0358a33.3682,33.3682,0,0,1-7.2311,1.3857c-.8661,0-1.7322-.0434-2.5982-.0434-103.0561-2.5115-215.0321-29.098-295.3985-90.9752,112.1491-29.3147,214.3394,20.4813,286.3921,74.7807C1728.7555,2808.12,1734.9909,2813.0994,1741.01,2818.0358Z" transform="translate(-787.5 -712.4676)"/></g><g class="cls-4"><path class="cls-2" d="M1729.102,2728.9225c0,9.2231-2.2517,18.1865-4.85,27.0631l4.027-22.56Z" transform="translate(-787.5 -712.4676)"/></g><path class="cls-3" d="M1635.1845,2346.0429c41.8839,43.1811,149.3944,21.59,221.4847,33.3249,290.4723,47.2827,214.1465,316.8789,44.6569,367.8058-204.5141,61.4509-646.9291,3.7195-589.3753-377.6853" transform="translate(-787.5 -712.4676)"/><g class="cls-4"><path class="cls-2" d="M1901.31,2747.1523c-202.475,60.8377-638.0819,4.85-590.9272-366.3255,40.0967,276.606,409.3233,316.01,590.9272,261.4506,68.4153-20.5679,121.632-76.729,141.7236-139.5152C2076.938,2597.8076,2007.3968,2715.2829,1901.31,2747.1523Z" transform="translate(-787.5 -712.4676)"/></g><path class="cls-2" d="M1741.781,2785.513a697.2591,697.2591,0,0,1-101.66-7.3779c-76.76-11.3868-184.46-41.1426-261.6211-118.2471-62.29-62.2412-124.0844-178.0029-64.7461-376.0254a17.32,17.32,0,1,1,33.1836,9.9414c-43.6987,145.83-24.8413,260.752,56.0474,341.582,127.7734,127.6807,369.9268,132.2852,493.3594,95.2,82.4267-24.7705,142.9223-106.5088,137.7221-186.0888-4.9829-76.25-70.6567-130.21-180.1806-148.0371-23.1519-3.77-51.5845-3.9063-79.0821-4.0381-67.705-.3321-137.7124-.6739-164.5434-51.5332a17.32,17.32,0,0,1,30.64-16.1621c17.1363,32.48,76.5821,32.7734,134.0723,33.0517,28.833.1416,58.6475.2881,84.48,4.4922,180.0976,29.3164,206.2842,135.625,209.1821,179.9707,6.2085,95-65.0928,192.3047-162.3218,221.5186C1858.5461,2778.1106,1800.9265,2785.513,1741.781,2785.513Z" transform="translate(-787.5 -712.4676)"/><path class="cls-2" d="M1463.5827,2715.3958a12.9752,12.9752,0,0,1-10.5566-5.41c-58.0322-80.708-49.7144-181.4111,24.0552-291.23,54.331-80.8838,124.0869-137.6514,127.0312-140.0293a12.99,12.99,0,0,1,16.3257,20.21c-2.7246,2.2022-271.0767,222.378-146.3184,395.8838a12.9941,12.9941,0,0,1-10.5371,20.5762Z" transform="translate(-787.5 -712.4676)"/><path class="cls-2" d="M1308.0792,2835.9644c5.4859,13.623,8.8288,27.2656,11.6492,41.2622a376.0876,376.0876,0,0,1,5.5536,42.3584,423.6081,423.6081,0,0,1,1.2659,42.83,270.055,270.055,0,0,1-4.4355,42.6953,2.183,2.183,0,0,1-4.2767.0439l-.0092-.0464c-2.9821-13.86-5.7952-27.417-9.0564-40.8838q-4.8723-20.1964-10.1513-40.11c-3.5193-13.3033-7.38-26.4893-10.6482-39.79-3.29-13.2348-6.59-26.7138-8.6908-39.956l-.0653-.41a15.0713,15.0713,0,0,1,28.8647-7.9931Z" transform="translate(-787.5 -712.4676)"/><path class="cls-2" d="M2633.2043,2844.3677c-2.1008,13.2422-5.4,26.7212-8.6908,39.956-3.2678,13.3008-7.1289,26.4868-10.6481,39.79q-5.312,19.9474-10.1514,40.11c-3.2611,13.4668-6.0742,27.024-9.0564,40.8838l-.0092.044a2.183,2.183,0,0,1-4.2767-.0415,270.0549,270.0549,0,0,1-4.4354-42.6953,423.6373,423.6373,0,0,1,1.2658-42.83,376.2487,376.2487,0,0,1,5.5536-42.3584c2.82-13.9966,6.1634-27.6392,11.6492-41.2622a15.0733,15.0733,0,0,1,28.87,7.9834Z" transform="translate(-787.5 -712.4676)"/></svg>