<svg id="Layer_1" data-name="Layer 1" xmlns="http://www.w3.org/2000/svg" width="4000" height="4000" viewBox="0 0 4000 4000"><defs><style>.cls-1{opacity:0.3;}.cls-2{fill:#371a45;}.cls-3{fill:#fff;}.cls-4{opacity:0.35;}.cls-5{fill:#bfc0c1;}.cls-6{fill:#f92323;}.cls-7{opacity:0.7;}.cls-8{fill:#e2e2e2;}.cls-9{fill:#5a9dff;}.cls-10{fill:#848484;}.cls-11{fill:#ededed;}.cls-12{fill:#606060;}.cls-13{fill:#d83d3d;}.cls-14{fill:none;stroke:#371a45;stroke-linecap:round;stroke-miterlimit:10;stroke-width:32px;}.cls-15{fill:#22a7f0;}</style></defs><title>about-us-2-01</title><g class="cls-1"><ellipse class="cls-2" cx="2052.5" cy="3500" rx="772.5" ry="95"/></g><path class="cls-3" d="M2017.44,1620.6188s-3.92,16.24-11.84,42.72c-22.44,74.96-77.08,232.2-166.4,336.64-52.4,61.28-116.76,104.32-193.52,101.92-19.36-.6-38.08-1.88-56.16-3.72-262.36-26.68-397.76-175.56-450-250.32-18.08-25.84-26.2-42.8-26.2-42.8l400.88-81.76,283.56-57.84Z"/><g class="cls-4"><path class="cls-2" d="M2017.44,1620.6188s-3.92,16.24-11.84,42.72c-22.44,74.96-77.08,232.2-166.4,336.64-52.4,61.28-116.76,104.32-193.52,101.92-19.36-.6-38.08-1.88-56.16-3.72-262.36-26.68-397.76-175.56-450-250.32-2.24-3.24-4.36-6.32-6.32-9.28-.84-1.24-1.64-2.4795-2.44-3.68-.44-.68-.88-1.36-1.28-2q-.9-1.38-1.68-2.64c-.68-1.04-1.28-2.04-1.92-3.04-.92-1.48-1.8-2.92-2.6-4.28-6.8-11.24-9.96-17.88-9.96-17.88l52.72-10.76,348.16-71,283.56-57.84-123.4442,132.7042L1405,1827.4164c-69.1367,7.51-84.1557,102.108-20.43,129.9528,57.4491,25.1023,125.36,44.44,204.95,52.53q27.12,2.76,56.16,3.68c76.76,2.4,141.12-40.64,193.52-101.92,72.16-84.32,121.68-203.16,149.88-285.24Z"/></g><path class="cls-2" d="M1651.948,2117.9757c-2.251,0-4.4824-.0342-6.7529-.1074-209.3995-6.6064-346.5821-89.0381-424.7852-157.0215-85.0928-73.97-120.0879-145.8642-121.5332-148.8916l-8.8574-18.4912,948.8574-193.5376-5.8936,24.4556C2028.0857,1644.6994,1910.9812,2117.9757,1651.948,2117.9757Zm-513.9307-301.6406c15.42,25.2393,48.8281,73.1982,104.5508,121.3721,74.1748,64.1308,204.4092,141.89,403.6328,148.1787,1.875.0586,3.7549.0879,5.6152.0879,202.6075,0,315.8594-347.8223,343.4131-444.4849Zm-24.7119-11.2891h0Z"/><path class="cls-5" d="M1836.0883,676.5859H1350.4937a75.5734,75.5734,0,0,0-75.5561,75.5938V1313.33h636.7445V752.18A75.5816,75.5816,0,0,0,1836.0883,676.5859Zm21.5177,582.6685H1329.0134V800.7353a39.185,39.185,0,0,1,39.2051-39.205h450.1824a39.2091,39.2091,0,0,1,39.2051,39.205Z"/><path class="cls-6" d="M1836.0776,676.5912H1350.4929a75.5818,75.5818,0,0,0-75.5693,75.6041v561.1193h636.7582V752.1953A75.5893,75.5893,0,0,0,1836.0776,676.5912ZM1329.001,800.7432a39.227,39.227,0,0,1,39.2281-39.228h450.182a39.22,39.22,0,0,1,39.1932,39.228v458.4941H1329.001Z"/><g class="cls-7"><path class="cls-3" d="M1836.0776,676.5912H1350.4929a75.5818,75.5818,0,0,0-75.5693,75.6041v20.9356a75.5818,75.5818,0,0,1,75.5693-75.6042h485.5847a75.5893,75.5893,0,0,1,75.6042,75.6042V752.1953A75.5893,75.5893,0,0,0,1836.0776,676.5912ZM1329.001,1280.1729h528.6033v-20.9356H1329.001Z"/></g><g class="cls-7"><path class="cls-3" d="M1274.9236,1313.3146V1334.25h636.7582v-20.9355Z"/></g><g class="cls-4"><path class="cls-2" d="M1813.8554,727.0363H1372.75a68.6358,68.6358,0,0,0-68.6489,68.6488v509.7543H1882.539V795.6851A68.6432,68.6432,0,0,0,1813.8554,727.0363Zm43.7489,542.201H1329.001V810.7432a39.227,39.227,0,0,1,39.2281-39.228h450.182a39.22,39.22,0,0,1,39.1932,39.228Z"/></g><path class="cls-2" d="M1927.6853,1329.3307h-668.75V752.18a91.6806,91.6806,0,0,1,91.5576-91.5942h485.5957a91.6984,91.6984,0,0,1,91.5967,91.5942Zm-636.7481-32.0019h604.7461V752.18a59.6608,59.6608,0,0,0-59.5947-59.5923H1350.4929a59.64,59.64,0,0,0-59.5557,59.5923Zm582.6709-22.0728H1313.0124V800.7345a55.2686,55.2686,0,0,1,55.2051-55.2051h450.1856a55.2686,55.2686,0,0,1,55.205,55.2051Zm-528.5937-32.002h496.5918V800.7345a23.23,23.23,0,0,0-23.2031-23.2031H1368.2175a23.2294,23.2294,0,0,0-23.2031,23.2031Z"/><path class="cls-5" d="M2357.96,1049.5788v198.04H833.16v-198.04a109.8867,109.8867,0,0,1,109.88-109.88H2248.08A109.8609,109.8609,0,0,1,2357.96,1049.5788Z"/><path class="cls-8" d="M1393.36,1247.6331v560.2153H935.9089a102.7578,102.7578,0,0,1-102.73-102.7646V1247.6331Z"/><rect class="cls-8" x="1393.3595" y="1247.6331" width="404.4165" height="560.2153"/><path class="cls-8" d="M2357.9558,1247.6331v457.4507a102.7343,102.7343,0,0,1-102.7292,102.7646H1797.776V1247.6331Z"/><g class="cls-4"><path class="cls-2" d="M2357.9558,1079.2452v625.8386a102.7343,102.7343,0,0,1-102.7292,102.7646H935.9089a102.7578,102.7578,0,0,1-102.73-102.7646V1494.0946c211.5111,146.0614,505.4424-15.1279,505.4424-15.1279,7.9292,43.8185,27.3,77.7257,54.7382,103.39,88.4713,82.8726,260.8588,80.4382,404.4165,49.5914,72.6826-15.6146,137.993-38.5322,181.2548-61.38,136.7764-72.231,262.6293-127.0214,331.4227-273.3836C2328.8718,1257.9987,2343.0353,1148.8865,2357.9558,1079.2452Z"/></g><path class="cls-2" d="M2373.9744,1263.64H817.1677v-214.065a126.0181,126.0181,0,0,1,125.874-125.8715H2248.1a126.0182,126.0182,0,0,1,125.8741,125.8715ZM849.17,1231.6378H2341.9724v-182.063a93.976,93.976,0,0,0-93.8721-93.87H943.0417a93.9759,93.9759,0,0,0-93.872,93.87Z"/><path class="cls-2" d="M2255.2341,1823.8351H935.9079a118.8788,118.8788,0,0,1-118.74-118.7451V1231.6378H2373.9744V1705.09A118.8789,118.8789,0,0,1,2255.2341,1823.8351ZM849.17,1263.64v441.45a86.8381,86.8381,0,0,0,86.7382,86.7431H2255.2341a86.8381,86.8381,0,0,0,86.7383-86.7431V1263.64Z"/><path class="cls-2" d="M1409.365,1823.8351H935.9079a118.8788,118.8788,0,0,1-118.74-118.7451V1231.6378H1409.365ZM849.17,1263.64v441.45a86.8381,86.8381,0,0,0,86.7382,86.7431H1377.363V1263.64Z"/><path class="cls-2" d="M1813.779,1823.8351H1377.363V1231.6378h436.416Zm-404.414-32.002h372.4121V1263.64H1409.365Z"/><path class="cls-2" d="M2255.2341,1823.8351h-473.457V1231.6378h592.1973V1705.09A118.8789,118.8789,0,0,1,2255.2341,1823.8351Zm-441.4551-32.002h441.4551a86.8381,86.8381,0,0,0,86.7383-86.7431V1263.64H1813.779Z"/><path class="cls-9" d="M1162.7351,1093.6792a110.6315,110.6315,0,1,1-110.64-110.64A110.63,110.63,0,0,1,1162.7351,1093.6792Z"/><path class="cls-2" d="M1052.0945,1220.3024a126.7663,126.7663,0,0,1-126.6211-126.6236c0-69.8291,56.8017-126.6406,126.6211-126.6406a126.785,126.785,0,0,1,126.6406,126.6406C1178.7351,1163.4982,1121.9236,1220.3024,1052.0945,1220.3024Zm0-221.2622a94.63,94.63,0,1,0,94.6386,94.6386A94.7356,94.7356,0,0,0,1052.0945,999.04Z"/><path class="cls-3" d="M1083.73,1093.6732a31.6268,31.6268,0,1,1-31.6292-31.6292A31.6264,31.6264,0,0,1,1083.73,1093.6732Z"/><path class="cls-9" d="M2232.6219,1093.6776a110.5978,110.5978,0,1,1-1.2524-16.6233A109.0652,109.0652,0,0,1,2232.6219,1093.6776Z"/><g class="cls-4"><path class="cls-2" d="M2232.6219,1093.6776a110.6244,110.6244,0,1,1-219.9964-16.6581c11.65,14.9886,13.7713,42.1493,40.1322,42.1493,20.866,0,26.1521-36.55,26.1521-36.55h86.1755s5.2861,36.55,26.152,36.55c26.326,0,28.5174-27.1259,40.1322-42.1145A109.0652,109.0652,0,0,1,2232.6219,1093.6776Z"/></g><path class="cls-2" d="M2121.9968,1220.3024a126.6321,126.6321,0,1,1,126.6406-126.6236C2248.6374,1163.4982,2191.8259,1220.3024,2121.9968,1220.3024Zm0-221.2622a94.63,94.63,0,1,0,94.6387,94.6386A94.7366,94.7366,0,0,0,2121.9968,999.04Z"/><path class="cls-10" d="M2153.6308,1093.6732a31.6268,31.6268,0,1,1-31.6292-31.6292A31.6264,31.6264,0,0,1,2153.6308,1093.6732Z"/><g class="cls-7"><path class="cls-3" d="M2153.6436,1093.6776a31.3465,31.3465,0,0,1-2.0512,11.1631,31.6153,31.6153,0,0,0-59.155,0,31.6067,31.6067,0,0,1,29.56-42.81A31.672,31.672,0,0,1,2153.6436,1093.6776Z"/></g><g class="cls-4"><path class="cls-2" d="M1162.1633,1093.6776A110.6244,110.6244,0,1,1,942.1669,1077.02c11.65,14.9886,13.7714,42.1493,40.1323,42.1493,20.8659,0,26.152-36.55,26.152-36.55h86.1755s5.2861,36.55,26.152,36.55c26.3261,0,28.5174-27.1259,40.1323-42.1145A109.0653,109.0653,0,0,1,1162.1633,1093.6776Z"/></g><g class="cls-7"><path class="cls-3" d="M1083.1851,1093.6776a31.3465,31.3465,0,0,1-2.0513,11.1631,31.6152,31.6152,0,0,0-59.1549,0,31.3273,31.3273,0,0,1-2.0521-11.1631,31.6292,31.6292,0,1,1,63.2583,0Z"/></g><path class="cls-2" d="M2122.0017,1141.2985a47.6282,47.6282,0,1,1,47.6318-47.6245A47.6812,47.6812,0,0,1,2122.0017,1141.2985Zm0-63.2544a15.6262,15.6262,0,1,0,15.63,15.63A15.6436,15.6436,0,0,0,2122.0017,1078.0441Z"/><rect class="cls-3" x="1253.3904" y="983.0394" width="677.2548" height="104.9037" rx="37.1864"/><g class="cls-4"><path class="cls-2" d="M1930.657,1021.5163v29.2469a37.3132,37.3132,0,0,1-37.2108,37.1761H1290.56a37.2832,37.2832,0,0,1-37.1759-37.1761v-29.2469a37.2832,37.2832,0,0,0,37.1759,37.1761h602.8863A37.3132,37.3132,0,0,0,1930.657,1021.5163Z"/></g><rect class="cls-3" x="1447.8268" y="1440.0435" width="295.4891" height="200.7828" rx="25.4072"/><g class="cls-4"><path class="cls-2" d="M1743.3162,1581.5923V1615.43a25.469,25.469,0,0,1-25.4218,25.387H1473.2411a25.469,25.469,0,0,1-25.4218-25.387v-33.8375a25.4689,25.4689,0,0,0,25.4218,25.3868h244.6533A25.4689,25.4689,0,0,0,1743.3162,1581.5923Z"/></g><path class="cls-2" d="M1717.91,1656.8283H1473.2322a41.4546,41.4546,0,0,1-41.4063-41.4087V1465.4513a41.4546,41.4546,0,0,1,41.4063-41.4087H1717.91a41.4545,41.4545,0,0,1,41.4062,41.4087V1615.42A41.4545,41.4545,0,0,1,1717.91,1656.8283Zm-244.6777-200.7837a9.5307,9.5307,0,0,0-9.4043,9.4067V1615.42a9.5307,9.5307,0,0,0,9.4043,9.4067H1717.91a9.5307,9.5307,0,0,0,9.4043-9.4067V1465.4513a9.5307,9.5307,0,0,0-9.4043-9.4067Z"/><path class="cls-11" d="M1461.4941,1685.4241h17.6144a13.6672,13.6672,0,0,1,13.6672,13.6672v44.49a13.6672,13.6672,0,0,1-13.6672,13.6672h-17.6144a13.6673,13.6673,0,0,1-13.6673-13.6673v-44.49A13.6673,13.6673,0,0,1,1461.4941,1685.4241Z"/><g class="cls-4"><path class="cls-2" d="M1492.7859,1714.5429v29.0385a13.7144,13.7144,0,0,1-13.6677,13.6672h-17.6311a13.7144,13.7144,0,0,1-13.6678-13.6672v-29.0385a13.6917,13.6917,0,0,0,13.6678,13.6671h17.6311A13.6917,13.6917,0,0,0,1492.7859,1714.5429Z"/></g><path class="cls-2" d="M1479.1062,1773.2492h-17.6123a29.7036,29.7036,0,0,1-29.668-29.668V1699.089a29.7015,29.7015,0,0,1,29.668-29.6655h17.6123a29.7025,29.7025,0,0,1,29.6728,29.6655v44.4922A29.7046,29.7046,0,0,1,1479.1062,1773.2492Zm-15.2783-32.002h12.9492V1701.423h-12.9492Z"/><path class="cls-11" d="M1545.0075,1685.4241h17.6143a13.6673,13.6673,0,0,1,13.6673,13.6673v44.49a13.6672,13.6672,0,0,1-13.6672,13.6672h-17.6145a13.6672,13.6672,0,0,1-13.6672-13.6672v-44.49a13.6673,13.6673,0,0,1,13.6673-13.6673Z"/><path class="cls-2" d="M1562.6218,1773.2492H1545.01a29.7036,29.7036,0,0,1-29.668-29.668V1699.089a29.7015,29.7015,0,0,1,29.668-29.6655h17.6123a29.7015,29.7015,0,0,1,29.668,29.6655v44.4922A29.7036,29.7036,0,0,1,1562.6218,1773.2492Zm-15.2783-32.002h12.9443V1701.423h-12.9443Z"/><path class="cls-11" d="M1628.5209,1685.4241h17.6143a13.6673,13.6673,0,0,1,13.6673,13.6673v44.49a13.6672,13.6672,0,0,1-13.6672,13.6672h-17.6144a13.6672,13.6672,0,0,1-13.6672-13.6672v-44.49A13.6672,13.6672,0,0,1,1628.5209,1685.4241Z"/><path class="cls-2" d="M1646.1374,1773.2492H1628.52a29.7036,29.7036,0,0,1-29.6679-29.668V1699.089a29.7014,29.7014,0,0,1,29.6679-29.6655h17.6172a29.7014,29.7014,0,0,1,29.668,29.6655v44.4922A29.7036,29.7036,0,0,1,1646.1374,1773.2492Zm-15.2832-32.002h12.9493V1701.423h-12.9493Z"/><path class="cls-11" d="M1712.0344,1685.4241h17.6143a13.6672,13.6672,0,0,1,13.6672,13.6672v44.49a13.6672,13.6672,0,0,1-13.6672,13.6672h-17.6144a13.6672,13.6672,0,0,1-13.6672-13.6672v-44.49A13.6673,13.6673,0,0,1,1712.0344,1685.4241Z"/><path class="cls-2" d="M1729.6482,1773.2492h-17.6123a29.7036,29.7036,0,0,1-29.668-29.668V1699.089a29.7015,29.7015,0,0,1,29.668-29.6655h17.6123a29.7014,29.7014,0,0,1,29.6679,29.6655v44.4922A29.7036,29.7036,0,0,1,1729.6482,1773.2492Zm-15.2783-32.002h12.9443V1701.423H1714.37Z"/><g class="cls-4"><circle class="cls-2" cx="1893.486" cy="1181.0241" r="47.6578" transform="translate(-280.521 1684.8107) rotate(-45)"/></g><circle class="cls-11" cx="1893.486" cy="1163.2092" r="37.1593" transform="translate(-267.9239 1679.5929) rotate(-45)"/><g class="cls-4"><path class="cls-2" d="M1930.657,1163.1958a37.1586,37.1586,0,1,1-74.3171,0,36.208,36.208,0,0,1,2.1209-12.3108,37.1522,37.1522,0,0,0,70.0744,0A36.1867,36.1867,0,0,1,1930.657,1163.1958Z"/></g><g class="cls-4"><circle class="cls-2" cx="1410.6675" cy="1181.0241" r="47.6578" transform="matrix(0.9239, -0.3827, 0.3827, 0.9239, -344.5776, 629.7389)"/></g><g class="cls-4"><circle class="cls-2" cx="1289.9242" cy="1181.0241" r="47.6578" transform="translate(-155.87 2165.0981) rotate(-76.7175)"/></g><path class="cls-2" d="M1893.4861,1216.3693a53.16,53.16,0,1,1,53.1591-53.1592A53.22,53.22,0,0,1,1893.4861,1216.3693Zm0-74.3189a21.1585,21.1585,0,1,0,21.1572,21.16A21.1832,21.1832,0,0,0,1893.4861,1142.05Z"/><path class="cls-2" d="M1536.1521,1218.0514a16.0015,16.0015,0,0,1-16.001-16.001v-72.583a16.001,16.001,0,1,1,32.002,0v72.583A16.0015,16.0015,0,0,1,1536.1521,1218.0514Z"/><path class="cls-2" d="M1613.4324,1218.0514a16.0015,16.0015,0,0,1-16.001-16.001v-72.583a16.0009,16.0009,0,1,1,32.0019,0v72.583A16.0015,16.0015,0,0,1,1613.4324,1218.0514Z"/><path class="cls-2" d="M1690.7175,1218.0514a16.0015,16.0015,0,0,1-16.001-16.001v-72.583a16.001,16.001,0,1,1,32.002,0v72.583A16.0015,16.0015,0,0,1,1690.7175,1218.0514Z"/><path class="cls-2" d="M1768.0027,1218.0514a16.0015,16.0015,0,0,1-16.001-16.001v-72.583a16.0009,16.0009,0,1,1,32.0019,0v72.583A16.0014,16.0014,0,0,1,1768.0027,1218.0514Z"/><path class="cls-2" d="M1009.7639,888.8282h83.55a23.9054,23.9054,0,0,1,23.9054,23.9054v26.97a0,0,0,0,1,0,0H985.8586a0,0,0,0,1,0,0v-26.97A23.9053,23.9053,0,0,1,1009.7639,888.8282Z"/><rect class="cls-12" x="1447.8268" y="1327.07" width="295.4891" height="68.3757" rx="20.8659"/><g class="cls-7"><path class="cls-3" d="M1743.3162,1347.9287v20.2052a20.8828,20.8828,0,0,0-20.8659-20.8659H1468.6852a20.8828,20.8828,0,0,0-20.8659,20.8659v-20.2052a20.8828,20.8828,0,0,1,20.8659-20.8659H1722.45A20.8828,20.8828,0,0,1,1743.3162,1347.9287Z"/></g><g class="cls-4"><path class="cls-2" d="M1743.3162,1347.9287v26.6388a20.8605,20.8605,0,0,1-20.8659,20.8659H1468.6852a20.8605,20.8605,0,0,1-20.8659-20.8659v-26.6388c0-.5563.0348-1.078.07-1.6a20.8866,20.8866,0,0,0,20.7963,19.2316H1722.45a20.8873,20.8873,0,0,0,20.7963-19.2316C1743.2806,1346.8507,1743.3162,1347.3724,1743.3162,1347.9287Z"/></g><path class="cls-2" d="M1722.4509,1411.4474h-253.76a36.908,36.908,0,0,1-36.8652-36.8677v-26.643a36.908,36.908,0,0,1,36.8652-36.8677h253.76a36.908,36.908,0,0,1,36.8652,36.8677v26.643A36.908,36.908,0,0,1,1722.4509,1411.4474Zm-253.76-68.3765a4.8706,4.8706,0,0,0-4.8632,4.8658v26.643a4.87,4.87,0,0,0,4.8632,4.8657h253.76a4.8705,4.8705,0,0,0,4.8633-4.8657v-26.643a4.8706,4.8706,0,0,0-4.8633-4.8658Z"/><rect class="cls-3" x="1495.18" y="1440.0435" width="200.7828" height="133.1157"/><g class="cls-4"><rect class="cls-2" x="1495.1853" y="1540.4516" width="200.7649" height="32.7248"/></g><path class="cls-2" d="M1711.9626,1589.16H1479.1794V1424.0426h232.7832Zm-200.7812-32.0019h168.7793V1456.0446H1511.1814Z"/><circle class="cls-2" cx="1544.4268" cy="1509.4887" r="18.2465"/><circle class="cls-2" cx="1646.7159" cy="1506.6013" r="18.2465"/><path class="cls-2" d="M1725.9275,1656.8283H1465.2146a33.43,33.43,0,0,1-33.3887-33.3912v-66.2792h327.49v66.2792A33.43,33.43,0,0,1,1725.9275,1656.8283Zm-262.1-67.6685v34.2773a1.3878,1.3878,0,0,0,1.3867,1.3892h260.7129a1.3878,1.3878,0,0,0,1.3867-1.3892V1589.16Z"/><rect class="cls-2" x="1575.3391" y="1494.1296" width="40.4645" height="30.7182"/><path class="cls-13" d="M1661.0057,1035.3334l-8.1177,52.61h24.1489l-8.1177-52.61A4.0036,4.0036,0,0,0,1661.0057,1035.3334Z"/><path class="cls-2" d="M1893.4568,1103.945H1290.5759a53.25,53.25,0,0,1-53.1885-53.1885v-30.53a53.25,53.25,0,0,1,53.1885-53.1885h602.8809a53.25,53.25,0,0,1,53.1884,53.1885v30.53A53.25,53.25,0,0,1,1893.4568,1103.945ZM1290.5759,999.04a21.2091,21.2091,0,0,0-21.1865,21.1865v30.53a21.2091,21.2091,0,0,0,21.1865,21.1865h602.8809a21.2092,21.2092,0,0,0,21.1865-21.1865v-30.53a21.2092,21.2092,0,0,0-21.1865-21.1865Z"/><path class="cls-2" d="M1297.6994,1027.612l3.814-44.5715h-11.5892l3.814,44.5715A1.9878,1.9878,0,0,0,1297.6994,1027.612Z"/><path class="cls-2" d="M1340.0279,1027.612l3.8139-44.5715h-11.5891l3.8139,44.5715A1.9879,1.9879,0,0,0,1340.0279,1027.612Z"/><path class="cls-2" d="M1382.3563,1027.612l3.814-44.5715h-11.5892l3.814,44.5715A1.9878,1.9878,0,0,0,1382.3563,1027.612Z"/><path class="cls-2" d="M1424.6847,1027.612l3.814-44.5715H1416.91l3.814,44.5715A1.9878,1.9878,0,0,0,1424.6847,1027.612Z"/><path class="cls-2" d="M1467.0131,1027.612l3.814-44.5715H1459.238l3.8139,44.5715A1.9878,1.9878,0,0,0,1467.0131,1027.612Z"/><path class="cls-2" d="M1509.3416,1027.612l3.8139-44.5715h-11.5891l3.814,44.5715A1.9878,1.9878,0,0,0,1509.3416,1027.612Z"/><path class="cls-2" d="M1551.67,1027.612l3.814-44.5715h-11.5892l3.814,44.5715A1.9878,1.9878,0,0,0,1551.67,1027.612Z"/><path class="cls-2" d="M1593.9984,1027.612l3.814-44.5715h-11.5892l3.814,44.5715A1.9878,1.9878,0,0,0,1593.9984,1027.612Z"/><path class="cls-2" d="M1636.3269,1027.612l3.8139-44.5715h-11.5891l3.8139,44.5715A1.9879,1.9879,0,0,0,1636.3269,1027.612Z"/><path class="cls-2" d="M1678.6553,1027.612l3.814-44.5715H1670.88l3.814,44.5715A1.9878,1.9878,0,0,0,1678.6553,1027.612Z"/><path class="cls-2" d="M1720.9837,1027.612l3.814-44.5715h-11.5892l3.814,44.5715A1.9878,1.9878,0,0,0,1720.9837,1027.612Z"/><path class="cls-2" d="M1763.3121,1027.612l3.814-44.5715H1755.537l3.8139,44.5715A1.9878,1.9878,0,0,0,1763.3121,1027.612Z"/><path class="cls-2" d="M1805.6406,1027.612l3.8139-44.5715h-11.5891l3.814,44.5715A1.9878,1.9878,0,0,0,1805.6406,1027.612Z"/><path class="cls-2" d="M1847.969,1027.612l3.814-44.5715h-11.5892l3.814,44.5715A1.9878,1.9878,0,0,0,1847.969,1027.612Z"/><path class="cls-2" d="M1890.2974,1027.612l3.814-44.5715h-11.5892l3.814,44.5715A1.9878,1.9878,0,0,0,1890.2974,1027.612Z"/><path class="cls-3" d="M1113.267,1297.1846c-127.3212,0-230.5249,103.2032-230.5249,230.5506,0,127.3217,103.2037,230.5249,230.5249,230.5249s230.5506-103.2032,230.5506-230.5249C1343.8176,1400.3878,1240.5888,1297.1846,1113.267,1297.1846Zm0,401.1a170.5627,170.5627,0,1,1,170.576-170.55A170.5554,170.5554,0,0,1,1113.267,1698.285Z"/><g class="cls-7"><path class="cls-3" d="M1283.327,1541.321a170.5831,170.5831,0,0,1-340.08,0c-.3481,4.4515-.5221,9.0072-.5221,13.5629a170.5617,170.5617,0,0,0,341.1233,0C1283.8483,1550.3282,1283.6742,1545.7725,1283.327,1541.321ZM1113.2692,1297.19c-127.3164,0-230.5338,103.1821-230.5338,230.5337,0,4.5558.1393,9.1115.4178,13.5976,6.99-121.0571,107.3547-217.0055,230.116-217.0055s223.1259,95.9484,230.1169,217.0055c.2776-4.4861.4169-9.0418.4169-13.5976C1343.803,1400.3718,1240.5865,1297.19,1113.2692,1297.19Zm0,401.1126A170.5788,170.5788,0,0,1,943.2471,1541.321c-.3481,4.4515-.5221,9.0072-.5221,13.5629a170.5617,170.5617,0,0,0,341.1233,0c0-4.5557-.1741-9.1114-.5213-13.5629A170.5885,170.5885,0,0,1,1113.2692,1698.3023Z"/></g><path class="cls-14" d="M1113.267,1297.1846c-127.3212,0-230.5249,103.2032-230.5249,230.5506,0,127.3217,103.2037,230.5249,230.5249,230.5249s230.5506-103.2032,230.5506-230.5249C1343.8176,1400.3878,1240.5888,1297.1846,1113.267,1297.1846Zm0,401.1a170.5627,170.5627,0,1,1,170.576-170.55A170.5554,170.5554,0,0,1,1113.267,1698.285Z"/><path class="cls-9" d="M1283.8483,1527.7234c0,.6608,0,1.3216-.0348,1.9823a170.55,170.55,0,0,1-341.0885-1.9823c0-3.8949.1392-7.79.3829-11.6154,5.9814-88.7844,79.8816-158.9634,170.1613-158.9634A170.5768,170.5768,0,0,1,1283.8483,1527.7234Z"/><g class="cls-4"><path class="cls-2" d="M1283.8135,1529.7057a170.55,170.55,0,0,1-341.0885-1.9823c0-3.8949.1392-7.79.3829-11.6154,11.5808,14.85,36.7242,42.7057,62.7022,43.7141,49.7645,1.8781,58.9808-37.3151,58.9808-37.3151l48.4783,5.2164h11.9977l48.4792-5.2164s9.25,39.1932,59.0156,37.3151C1251.9236,1559.0919,1270.6678,1543.6858,1283.8135,1529.7057Z"/></g><path class="cls-2" d="M1113.2663,1714.2843c-102.8613,0-186.5478-83.6865-186.5478-186.55,0-102.876,83.6865-186.5747,186.5478-186.5747,102.8809,0,186.5772,83.6987,186.5772,186.5747C1299.8435,1630.5978,1216.1472,1714.2843,1113.2663,1714.2843Zm0-341.123c-85.22,0-154.5459,69.3408-154.5459,154.5727,0,85.22,69.3262,154.5484,154.5459,154.5484,85.2344,0,154.5752-69.3286,154.5752-154.5484C1267.8415,1442.5021,1198.5007,1373.1613,1113.2663,1373.1613Z"/><path class="cls-10" d="M1161.6387,1521.3823a48.7729,48.7729,0,1,1-42.018-42.0184A48.7935,48.7935,0,0,1,1161.6387,1521.3823Z"/><g class="cls-7"><path class="cls-3" d="M1160.5308,1539.8952a48.797,48.797,0,0,0-94.4875-.07,40.2318,40.2318,0,0,1-1.1131-5.7728,48.7689,48.7689,0,1,1,96.7129-12.6587A49.58,49.58,0,0,1,1160.5308,1539.8952Z"/></g><path class="cls-2" d="M1113.2761,1592.4826a64.7608,64.7608,0,1,1,64.7656-64.7559A64.8289,64.8289,0,0,1,1113.2761,1592.4826Zm0-97.52a32.7588,32.7588,0,1,0,32.7637,32.7637A32.795,32.795,0,0,0,1113.2761,1494.963Z"/><circle class="cls-2" cx="962.1149" cy="1395.2483" r="10.5788"/><circle class="cls-2" cx="1264.4453" cy="1395.2483" r="10.5788"/><circle class="cls-2" cx="962.1149" cy="1658.2628" r="10.5788"/><circle class="cls-2" cx="1264.4453" cy="1658.2628" r="10.5788"/><path class="cls-2" d="M1113.2813,1407.7856c15.74-4.9633,33.186-4.3457,49.5019.4517a104.7862,104.7862,0,0,1,70.0244,69.9829c4.8071,16.3159,5.4175,33.7744.4224,49.5142-5.0513-15.6665-10.6153-29.5972-17.854-42.2852a155.98,155.98,0,0,0-59.7974-59.8388C1142.8882,1418.3643,1128.9478,1412.8076,1113.2813,1407.7856Z"/><path class="cls-2" d="M1113.2813,1647.6831c-15.7422,4.9658-33.1885,4.3482-49.5044-.4492a104.7866,104.7866,0,0,1-70.0245-69.9829c-4.8071-16.3159-5.4174-33.7744-.42-49.5166,5.0513,15.6689,10.6153,29.5971,17.8516,42.2876a155.981,155.981,0,0,0,59.7973,59.8388C1083.6719,1637.1069,1097.6123,1642.6636,1113.2813,1647.6831Z"/><path class="cls-5" d="M2079.9029,1297.1846c-127.3212,0-230.5249,103.2032-230.5249,230.5506,0,127.3217,103.2037,230.5249,230.5249,230.5249s230.5506-103.2032,230.5506-230.5249C2310.4535,1400.3878,2207.2248,1297.1846,2079.9029,1297.1846Zm0,401.1a170.5627,170.5627,0,1,1,170.576-170.55A170.5553,170.5553,0,0,1,2079.9029,1698.285Z"/><g class="cls-7"><path class="cls-3" d="M2249.9629,1541.321a170.583,170.583,0,0,1-340.08,0c-.3481,4.4515-.5222,9.0072-.5222,13.5629a170.5617,170.5617,0,0,0,341.1233,0C2250.4842,1550.3282,2250.31,1545.7725,2249.9629,1541.321ZM2079.9051,1297.19c-127.3164,0-230.5337,103.1821-230.5337,230.5337,0,4.5558.1392,9.1115.4177,13.5976,6.99-121.0571,107.3547-217.0055,230.116-217.0055s223.126,95.9484,230.1169,217.0055c.2777-4.4861.4169-9.0418.4169-13.5976C2310.4389,1400.3718,2207.2224,1297.19,2079.9051,1297.19Zm0,401.1126a170.5788,170.5788,0,0,1-170.022-156.9813c-.3481,4.4515-.5222,9.0072-.5222,13.5629a170.5617,170.5617,0,0,0,341.1233,0c0-4.5557-.174-9.1114-.5213-13.5629A170.5883,170.5883,0,0,1,2079.9051,1698.3023Z"/></g><path class="cls-14" d="M2079.9029,1297.1846c-127.3212,0-230.5249,103.2032-230.5249,230.5506,0,127.3217,103.2037,230.5249,230.5249,230.5249s230.5506-103.2032,230.5506-230.5249C2310.4535,1400.3878,2207.2248,1297.1846,2079.9029,1297.1846Zm0,401.1a170.5627,170.5627,0,1,1,170.576-170.55A170.5553,170.5553,0,0,1,2079.9029,1698.285Z"/><path class="cls-12" d="M2250.4842,1527.7234c0,.6608,0,1.3216-.0348,1.9823a170.55,170.55,0,0,1-341.0885-1.9823c0-3.8949.1392-7.79.3829-11.6154,5.9815-88.7844,79.8816-158.9634,170.1613-158.9634A170.5768,170.5768,0,0,1,2250.4842,1527.7234Z"/><g class="cls-4"><path class="cls-2" d="M2250.4494,1529.7057a170.55,170.55,0,0,1-341.0885-1.9823c0-3.8949.1392-7.79.3829-11.6154,11.5809,14.85,36.7242,42.7057,62.7022,43.7141,49.7646,1.8781,58.9809-37.3151,58.9809-37.3151l48.4782,5.2164h11.9978l48.4791-5.2164s9.25,39.1932,59.0157,37.3151C2218.56,1559.0919,2237.3038,1543.6858,2250.4494,1529.7057Z"/></g><path class="cls-2" d="M2079.9021,1714.2843c-102.8613,0-186.5479-83.6865-186.5479-186.55,0-102.876,83.6866-186.5747,186.5479-186.5747,102.8808,0,186.5771,83.6987,186.5771,186.5747C2266.4792,1630.5978,2182.7829,1714.2843,2079.9021,1714.2843Zm0-341.123c-85.22,0-154.5459,69.3408-154.5459,154.5727,0,85.22,69.3262,154.5484,154.5459,154.5484,85.2344,0,154.5752-69.3286,154.5752-154.5484C2234.4773,1442.5021,2165.1365,1373.1613,2079.9021,1373.1613Z"/><path class="cls-10" d="M2128.2746,1521.3823a48.7729,48.7729,0,1,1-42.018-42.0184A48.7934,48.7934,0,0,1,2128.2746,1521.3823Z"/><g class="cls-7"><path class="cls-3" d="M2127.1668,1539.8952a48.7971,48.7971,0,0,0-94.4876-.07,40.2456,40.2456,0,0,1-1.1131-5.7728,48.7689,48.7689,0,1,1,96.7129-12.6587A49.582,49.582,0,0,1,2127.1668,1539.8952Z"/></g><path class="cls-2" d="M2079.9119,1592.4826a64.7608,64.7608,0,1,1,64.7656-64.7559A64.8288,64.8288,0,0,1,2079.9119,1592.4826Zm0-97.52a32.7588,32.7588,0,1,0,32.7636,32.7637A32.795,32.795,0,0,0,2079.9119,1494.963Z"/><circle class="cls-2" cx="1928.7509" cy="1395.2483" r="10.5788"/><circle class="cls-2" cx="2231.0813" cy="1395.2483" r="10.5788"/><circle class="cls-2" cx="1928.7509" cy="1658.2628" r="10.5788"/><circle class="cls-2" cx="2231.0813" cy="1658.2628" r="10.5788"/><path class="cls-2" d="M2079.917,1407.7856c15.74-4.9633,33.1885-4.3457,49.5019.4517a104.7866,104.7866,0,0,1,70.0245,69.9829c4.8071,16.3159,5.4174,33.7744.4223,49.5142-5.0512-15.6665-10.6152-29.5972-17.854-42.2852a155.981,155.981,0,0,0-59.7973-59.8388C2109.5239,1418.3643,2095.5835,1412.8076,2079.917,1407.7856Z"/><path class="cls-2" d="M2079.917,1647.6831c-15.7422,4.9658-33.1885,4.3482-49.502-.4492a104.7833,104.7833,0,0,1-70.0268-69.9829c-4.8071-16.3159-5.4175-33.7744-.42-49.5166,5.0512,15.6689,10.6152,29.5971,17.8515,42.2876a155.98,155.98,0,0,0,59.7974,59.8388C2050.3076,1637.1069,2064.248,1642.6636,2079.917,1647.6831Z"/><path class="cls-2" d="M2122.0142,1021.582c9.46-3.3081,20.061-3.0981,29.9829-.3a62.33,62.33,0,0,1,42.4145,42.3877c2.8052,9.9219,3.01,20.53-.32,29.99a144.8,144.8,0,0,0-11.3013-25.1709,97.8426,97.8426,0,0,0-35.5957-35.625A142.6548,142.6548,0,0,0,2122.0142,1021.582Z"/><path class="cls-2" d="M2122.0142,1165.7373c-9.4605,3.3081-20.0586,3.1006-29.9829.3a62.33,62.33,0,0,1-42.4146-42.3877c-2.8052-9.9219-3.01-20.53.32-29.99a144.7492,144.7492,0,0,0,11.3013,25.1733,100.1248,100.1248,0,0,0,15.4663,20.1392,99.0632,99.0632,0,0,0,20.1294,15.4834A142.8176,142.8176,0,0,0,2122.0142,1165.7373Z"/><path class="cls-2" d="M1051.5381,1021.582c9.46-3.3081,20.061-3.0981,29.9829-.3a62.33,62.33,0,0,1,42.4145,42.3877c2.8077,9.9219,3.01,20.53-.32,29.99a144.6209,144.6209,0,0,0-11.3012-25.1709,97.8446,97.8446,0,0,0-35.5957-35.625A142.6559,142.6559,0,0,0,1051.5381,1021.582Z"/><path class="cls-2" d="M1051.5381,1165.7373c-9.46,3.3081-20.0586,3.1006-29.9829.3a62.33,62.33,0,0,1-42.4146-42.3877c-2.8052-9.9219-3.01-20.53.3223-29.99a144.3837,144.3837,0,0,0,11.3013,25.1733,100.1139,100.1139,0,0,0,15.4638,20.1392,99.0134,99.0134,0,0,0,20.1319,15.4834A142.7113,142.7113,0,0,0,1051.5381,1165.7373Z"/><g class="cls-4"><path class="cls-2" d="M1576.3031,1714.5429v29.0385a13.7144,13.7144,0,0,1-13.6678,13.6672h-17.631a13.7144,13.7144,0,0,1-13.6678-13.6672v-29.0385a13.6917,13.6917,0,0,0,13.6678,13.6671h17.631A13.6917,13.6917,0,0,0,1576.3031,1714.5429Z"/></g><g class="cls-4"><path class="cls-2" d="M1659.8184,1714.5429v29.0385a13.7144,13.7144,0,0,1-13.6677,13.6672H1628.52a13.7144,13.7144,0,0,1-13.6678-13.6672v-29.0385A13.6917,13.6917,0,0,0,1628.52,1728.21h17.6311A13.6917,13.6917,0,0,0,1659.8184,1714.5429Z"/></g><g class="cls-4"><path class="cls-2" d="M1743.3248,1714.5429v29.0385a13.7144,13.7144,0,0,1-13.6677,13.6672H1712.026a13.7144,13.7144,0,0,1-13.6678-13.6672v-29.0385a13.6917,13.6917,0,0,0,13.6678,13.6671h17.6311A13.6917,13.6917,0,0,0,1743.3248,1714.5429Z"/></g><path class="cls-2" d="M1052.0994,1141.2985a47.6282,47.6282,0,1,1,47.6318-47.6245A47.677,47.677,0,0,1,1052.0994,1141.2985Zm0-63.2544a15.6262,15.6262,0,1,0,15.63,15.63A15.6427,15.6427,0,0,0,1052.0994,1078.0441Z"/><circle class="cls-11" cx="1410.6675" cy="1163.2092" r="37.1593" transform="translate(-337.7601 628.3828) rotate(-22.5)"/><path class="cls-2" d="M1410.6687,1216.3693a53.16,53.16,0,1,1,53.1592-53.1592A53.22,53.22,0,0,1,1410.6687,1216.3693Zm0-74.3189a21.1585,21.1585,0,1,0,21.1572,21.16A21.1831,21.1831,0,0,0,1410.6687,1142.05Z"/><circle class="cls-11" cx="1290.5497" cy="1163.2092" r="37.1593" transform="translate(-444.5199 1253.2525) rotate(-45)"/><path class="cls-2" d="M1290.5515,1216.3693a53.16,53.16,0,1,1,53.1592-53.1592A53.2212,53.2212,0,0,1,1290.5515,1216.3693Zm0-74.3189a21.1585,21.1585,0,1,0,21.1572,21.16A21.1842,21.1842,0,0,0,1290.5515,1142.05Z"/><g class="cls-4"><path class="cls-2" d="M1447.8385,1163.1958a37.1585,37.1585,0,1,1-74.317,0,36.208,36.208,0,0,1,2.1209-12.3108,37.1522,37.1522,0,0,0,70.0744,0A36.189,36.189,0,0,1,1447.8385,1163.1958Z"/></g><g class="cls-4"><path class="cls-2" d="M1327.0952,1163.1958a37.1585,37.1585,0,1,1-74.317,0,36.208,36.208,0,0,1,2.1209-12.3108,37.1522,37.1522,0,0,0,70.0744,0A36.1866,36.1866,0,0,1,1327.0952,1163.1958Z"/></g><path class="cls-3" d="M1972.3646,2753.7528C2199.81,2802.73,2602.9287,2858.5567,2668.8,2636.7415a758.91,758.91,0,0,0,21.0423-95.0976c36.2791-225.6667,4.3425-537.085-75.4935-623.2111-45.5924-49.1533-139.39-74.8721-245.6025-79.2082-211.0694-8.61-471.384,66.9919-500.6485,210.4023C1839.8428,2187.6254,1744.9191,2704.7767,1972.3646,2753.7528Z"/><g class="cls-4"><path class="cls-2" d="M1972.3646,2753.7528C2199.81,2802.73,2602.9287,2858.5567,2668.8,2636.7415a758.91,758.91,0,0,0,21.0423-95.0976c-72.22,38.1761-152.2095-22.055-151.7729-84.7183,2.6938-386.8628-110.744-556.1635-169.3231-617.701-211.0694-8.61-471.384,66.9919-500.6485,210.4023C1839.8428,2187.6254,1744.9191,2704.7767,1972.3646,2753.7528Z"/></g><path class="cls-2" d="M2331.5183,2814.4357c-116.1231,0-244.99-19.7315-362.5147-45.044-105.0781-22.622-159.1308-135.0634-160.6542-334.1943-1.06-138.0713,23.3691-287.6367,44.0527-388.7939,17.1582-83.9454,105.4-152.2315,248.4668-192.2852,181.6162-50.8447,434.0576-44.8682,525.2,53.4326h0c46.02,49.6387,79.0332,167.3047,90.581,322.832,11.2061,150.8985-.957,304.5167-32.5341,410.9229C2645.41,2771.74,2502.2654,2814.4357,2331.5183,2814.4357Zm3.2471-960.0977c-72.8662,0-151.3184,9.8926-225.2686,30.5957-129.0381,36.128-211.3183,97.3145-225.7471,167.876-20.3711,99.6533-44.4384,246.8457-43.4033,382.1436,1.3965,182.1142,46.9483,284.1113,135.3955,303.1591,226.8653,48.8526,616.5723,100.0538,677.7-105.9082,30.5274-102.8906,42.2266-252.2168,31.2989-399.4531-10.6983-144.0625-42.1729-260.332-82.1387-303.4424C2557.49,1880.6466,2453.5642,1854.338,2334.7654,1854.338Z"/><path class="cls-3" d="M2523.0759,2293.9308l108.9508-21.7508a41.7336,41.7336,0,0,1,49.8374,37.8756c6.1618,86.1765,7.5724,262.7028-81.6212,282.3449-108.0944,23.8043-122.32-98.4483-110.6467-260.6572A41.7024,41.7024,0,0,1,2523.0759,2293.9308Z"/><g class="cls-4"><path class="cls-2" d="M2489.6244,2331.7341c-11.6911,162.203,2.5382,284.4939,110.631,260.6541,44.391-9.7279,66.3372-58.4146,76.38-115.44-11.3339,14.7824-25.6287,25.2248-43.6987,29.1819-96.7679,21.2946-118.3487-74.4958-113.3125-211.2724A41.3029,41.3029,0,0,0,2489.6244,2331.7341Z"/></g><path class="cls-2" d="M2574.9119,2611.3644c-22.29,0-41.3233-6.7285-56.8262-20.1318-41.1475-35.5811-54.8584-115.962-44.4483-260.6348a57.8225,57.8225,0,0,1,46.3086-52.3535l108.9453-21.753a57.7307,57.7307,0,0,1,68.9307,52.4219c7.3193,102.3535,4.8242,277.3194-94.1357,299.1114A134.033,134.033,0,0,1,2574.9119,2611.3644Zm65.4248-324.0137a26.354,26.354,0,0,0-5.1758.5176l-108.9551,21.7529a25.7564,25.7564,0,0,0-20.6543,23.2764c-5.9668,82.9248-8.9893,197.4219,33.4668,234.1309,13.9355,12.0507,32.8418,15.249,57.7832,9.7461,80.4736-17.7247,73.2373-207.7588,69.1064-265.5762a25.7693,25.7693,0,0,0-25.5712-23.8477Zm-117.2608,6.5821h0Z"/><path class="cls-2" d="M2731.7041,1906.57c-25.9619,4.7046-52.07,9.79-78.0176,15.1245-25.9619,5.3638-51.8554,11.03-77.5366,17.3658l-.0293.0048a8.0084,8.0084,0,0,1-4.6045-15.32c25.2344-8.9844,50.6494-17.2827,76.145-25.2832,25.5249-7.9785,51.03-15.664,76.8384-23.0688a16.0218,16.0218,0,0,1,8.8379,30.8007c-.5127.1465-1.0278.2662-1.5405.3614Z"/><path class="cls-3" d="M1981.9239,3437.9255c-41.7387,26.2558-112.4457,49.0275-212.4878,48.986-139.8636-.085-254.0636-6.7981-252.84-111.61.9383-83.1871,138.68-120.66,138.68-120.66-78.8262-121.5507-100.2464-327.3511-104.2447-480.13-2.9375-112.6719,3.59-196.4959,3.59-196.4959l496.0909-38.0243c-39.9844,198.8327-56.835,351.5256-61.8533,469.6358C1975.192,3330.2667,2048.4285,3396.1193,1981.9239,3437.9255Z"/><path class="cls-2" d="M1769.7947,3502.9025h-.3662c-104.7071-.0586-195.044-3.8135-240.0684-49.38-19.4629-19.6973-29.1406-46.0742-28.7744-78.4033.8447-74.0821,89.6289-114.6729,130.5029-129.4483-125.7471-219.6386-93.8867-650.205-92.4316-668.9111a16,16,0,0,1,31.9043,2.4805c-.3565,4.6045-34.2383,462.5195,98.1347,666.6845l11.9287,18.3936-21.1523,5.7519c-1.25.3418-126.0889,35.3028-126.8848,105.41-.2734,23.7988,6.1182,41.9678,19.5362,55.5518,36.2939,36.7285,123.5058,39.8144,217.3242,39.8681h.3515c112.8028.0049,175.9766-29.1357,203.6231-46.5185,25.459-16.0108,24.1357-33.4864,14.4189-104.9268-15.5273-114.248-44.4384-326.8994,47.1827-782.6367a16.0024,16.0024,0,1,1,31.3769,6.3086c-90.5664,450.459-62.1289,659.6387-46.8506,772.0166,9.8438,72.3926,14.7852,108.7305-29.0918,136.3281C1959.8972,3470.6857,1890.6052,3502.8976,1769.7947,3502.9025Z"/><g class="cls-4"><path class="cls-2" d="M2050.7133,2539.9923c-1.2648,6.2027-2.489,12.3634-3.6721,18.5236-1.02,5.1411-1.9992,10.2392-2.9783,15.2947q-2.6316,13.3836-5.0186,26.4684-2.3865,12.7458-4.6511,25.2368-5.2022,28.8691-9.71,56.2934c-.816,5.1411-1.6729,10.1966-2.4481,15.2521q-1.3463,8.1575-2.5705,16.1873c-.7752,4.9279-1.51,9.8144-2.2439,14.7q-2.57,16.9519-4.8553,33.3091c-.6935,4.7579-1.3465,9.5167-1.9992,14.19q-2.02,15.04-3.876,29.6548c-.49,3.6962-.9384,7.3925-1.3871,11.0462-.1225,1.1471-.2856,2.2943-.4082,3.399q-1.7133,14.2113-3.2639,27.9128c-.1223,1.2323-.2857,2.5065-.4079,3.7388-.8978,8.0723-1.7544,16.06-2.53,23.8768-.0409.51-.0817.9776-.1634,1.4869-.3671,3.9939-.7752,7.9453-1.1423,11.8537q-1.2853,13.1922-2.3665,25.9586-1.1015,12.7457-1.9991,25.0666c-.0409.34-.0409.6794-.0817.9771-.2856,3.7813-.5713,7.52-.8161,11.2588q-1.5912,22.5592-2.611,43.6328c-.1634,3.5686-.3265,7.0952-.49,10.6213-.0406,1.2318-.1223,2.464-.1631,3.6963-13.668,320.6386,59.5685,386.4912-6.9361,428.2974-41.7387,26.2558-112.4457,49.0275-212.4878,48.986-121.0138-.085-222.8106-5.0991-247.25-74.35,44.3091,11.0457,102.0008,12.4055,164.8333,12.448,100.0422.0425,170.7492-22.73,212.5286-48.986,47.6709-30.0049,23.4176-72.3721,10.9689-212.4048-7.7966-87.7022-65.53-161.2172-145.7005-189.2935-110.7377-38.7811-181.5351-107.8669-213.7844-199.8129-2.9375-112.6719,3.59-196.4959,3.59-196.4959l400.3734-30.6744Z"/></g><g class="cls-4"><path class="cls-2" d="M1994.1023,2848.7067q1.1164-21.7412,2.8022-44.97C1995.81,2819.2369,1994.8466,2834.2126,1994.1023,2848.7067Z"/></g><g class="cls-4"><path class="cls-2" d="M1997.868,2791.1253q.9849-12.6762,2.1456-25.8351C1999.2692,2774.0478,1998.5246,2782.6745,1997.868,2791.1253Z"/></g><g class="cls-4"><path class="cls-2" d="M2003.9546,2724.7862c.832-8.0568,1.7513-16.289,2.7148-24.6088C2005.7059,2708.4972,2004.83,2716.7294,2003.9546,2724.7862Z"/></g><g class="cls-4"><path class="cls-2" d="M2007.1072,2696.324c1.0947-9.4584,2.2771-19.0039,3.503-28.7685Q2008.7714,2682.2024,2007.1072,2696.324Z"/></g><path class="cls-3" d="M2467.88,2398.0192c-.04.8-.12,1.56-.16,2.36q-.54,8.22-1.32,16.68a821.2313,821.2313,0,0,1-19.4,123.88c-1.64,6.84-3.36,13.68-5.24,20.5195q-6.06,22.56-13.96,45a530.8209,530.8209,0,0,1-29.68,68.6006,447.7345,447.7345,0,0,1-32.24,52.96c-24.6,34.64-54.88,66.16-92.12,92.28a372.05,372.05,0,0,1-58,33.6c-47.16,22.04-102.84,36.76-168.68,41.64a688.1038,688.1038,0,0,1-81.72.92c-5.56-.2-11.12-.5195-16.64-.88-240.4-14.92-381.72-116.52-429.04-276.2-19.6-66.12-23.12-142.2-10.84-226.16,7.48-51.36,21.04-103.2,37.04-156.4,11.4-37.92,24-76.52,36.52-116.12.64-1.88,1.2-3.8,1.8-5.64,1.76-5.6006,3.56-11.2,5.32-16.88,19.28-61.6,37.72-125.64,50.6-193.32a1.1836,1.1836,0,0,0,.08-.52c1.24-6.44,2.44-12.88,3.56-19.36,4.12-23.72,7.52-47.92,10-72.68,2.28-23.16,23.36-44.56,57-63.96h.08c66.12-38,180.52-67.64,294.76-85,173.84-26.36,347.4-24.36,350.48,19.88.48,7.08,1.08,14.2,1.8,21.28a829.124,829.124,0,0,0,14,88.4q2.4,11.7,5.12,23.48c.72,3.16,1.44,6.32,2.2,9.52,2.4,10.16,4.92,20.44,7.48,30.72q7.02,27.48,14.6,55.4805c4.24,15.88,8.64,31.92,13,48.16,9.48,35.56,18.92,72.12,27.16,110.48,8.64,39.72,16.08,81.36,21.24,125.56,2.48,21.24,4.44,43.08,5.76,65.64A1106.7445,1106.7445,0,0,1,2467.88,2398.0192Z"/><g class="cls-4"><path class="cls-2" d="M1513.8,2597.1789c1.64,7.04,3.48,13.92,5.48,20.72C1517.24,2611.0993,1515.44,2604.2189,1513.8,2597.1789Z"/></g><g class="cls-4"><path class="cls-2" d="M2467.88,2398.0192c-.04.8-.12,1.56-.16,2.36-.2,3.0795-.44,6.2-.68,9.36-.2,2.44-.4,4.88-.64,7.32q-.6,7.32-1.32,14.76c-.52,4.96-1.04,10-1.6,15.04-.32,2.52-.6,5.08-.92,7.6-.32,2.5606-.64,5.12-1,7.68-1.36,10.24-2.96,20.64-4.76,31.12-2.24,13.08-4.84,26.36-7.92,39.68-.6,2.68-1.24,5.32-1.88,8q-16.32,3.36-35.72,6.2c20.16-47.44,33.56-97.04,42.4-144.76a1001.3891,1001.3891,0,0,0,14.04-114.32c.4-6.4.8-12.76,1.12-19.08A1109.4481,1109.4481,0,0,1,2467.88,2398.0192Z"/></g><path class="cls-2" d="M1621.2573,2009.248c-22.4,145.1465-85.8789,279.1358-100.0659,420.3638a551.511,551.511,0,0,0-1.0986,105.5908c3.2275,34.9244,10.2832,69.4336,22.49,101.9483,23.55,65.4053,68.4815,121.8457,126.5918,160.1343,58.0054,38.7158,126.4648,61.0864,196.3037,72.7392a844.8356,844.8356,0,0,0,106.1694,10.5835,649.2412,649.2412,0,0,0,105.962-4.4556c69.8657-8.5644,137.8271-32.3681,193.7255-73.8305,55.8814-41.4282,98.6426-99.2725,126.504-163.8306,28.34-64.5337,43.6938-134.7876,51.0473-205.63q2.86-26.59,3.7036-53.4326c.5664-17.8735,1.9922-35.7422,1.4014-53.6255l-.2466-26.8188c-.0879-4.4678.0293-8.9429-.227-13.4058l-.7813-13.3862c-1.16-17.8418-1.6748-35.73-3.9209-53.4912-6.8921-71.2427-21.1255-141.6577-38.8379-211.5406-8.999-34.9755-18.5058-69.8461-27.91-105.039-4.78-17.5195-9.1895-35.2832-13.711-52.9737-2.2656-8.8427-4.1845-17.8442-6.2915-26.76-2.0385-8.9453-4.2431-17.832-5.8984-26.9116l-5.3272-27.1118c-1.6772-9.0625-2.8686-18.2618-4.3212-27.3853l-2.0826-13.7134c-.6982-4.5727-.9839-9.2236-1.4917-13.8305l-2.727-27.7076-.083-.8667c-.0269-.3173-.0586-.6176-.09-.5175a.2671.2671,0,0,1-.0952-.0562c.0147-.0366.1514-.1269-.0537-.2173-.1684-.1025.0806-.2051-.1929-.4419a2.5761,2.5761,0,0,1-.5859-.7763,24.863,24.863,0,0,0-6.4624-4.5777c-5.9228-3.1689-13.74-5.6543-21.7285-7.5927-16.1694-3.87-33.689-5.7764-51.2036-7.0313-35.1782-2.3682-71.0571-1.6943-106.8091.249q-53.6755,3.0322-107.2168,9.9927c-71.2207,9.2041-142.2607,22.4438-210.5029,43.3984-34.0943,10.3125-67.8711,21.4649-99.7583,35.51-8.01,3.4619-15.6934,7.3462-23.4058,11.1719-3.7256,2.0483-7.5513,4.0478-11.1426,6.2549l-5.4809,3.225-5.2295,3.4693c-13.6939,9.4263-26.2988,20.3882-31.1426,35.8691l-.0781.2515a5.3963,5.3963,0,0,1-10.5371-1.3037c-.5933-10.3955,2.7685-20.8862,7.7441-29.8023a106.9446,106.9446,0,0,1,18.6255-23.5473c14.1406-13.7744,30.32-24.3262,46.9043-33.34,33.2935-17.9858,68.4521-30.4712,103.95-40.5517,17.7685-5.02,35.6616-9.38,53.584-13.4546q26.8615-6.2183,53.8916-11.3233,53.983-10.5981,108.5083-17.5683,54.51-7.002,109.519-10.2027c36.6895-1.9824,73.5205-2.72,110.7739-.2221,18.65,1.36,37.3511,3.2959,56.5088,7.8467,9.5948,2.39,19.2969,5.2,29.4214,10.54a55.2,55.2,0,0,1,15.2564,11.56c1.2158,1.5088,2.395,3.0688,3.5156,4.6533a35.0382,35.0382,0,0,1,2.8809,5.6006,23.5283,23.5283,0,0,1,1.86,6.2622c.2124,1.0913.3955,2.19.5518,3.2837l.1416,1.1645.083.8277,2.6123,26.46c.4883,4.4068.7446,8.8281,1.4184,13.2251l2.0118,13.1909c1.4038,8.7891,2.5292,17.6026,4.1552,26.3745l5.1709,26.2964c1.5918,8.7769,3.7622,17.5074,5.7544,26.2525,2.0679,8.74,3.9258,17.49,6.1646,26.2207,4.4677,17.4658,8.7939,34.9243,13.5669,52.4121,9.331,34.9219,18.916,70.0708,27.998,105.3833,17.9395,70.7593,32.5879,143.0176,39.6729,216.3037,2.2949,18.2666,2.8515,36.6894,4.0332,55.0537l.8007,13.7817c.2613,4.5948.1465,9.2017.2393,13.8013l.2539,27.61c.5908,18.4155-.8472,36.7822-1.44,55.1684q-.8973,27.5648-3.8306,55.1392c-7.6318,73.3179-23.501,146.6553-53.5889,215.2319-29.5288,68.4912-75.7592,131.5259-136.7773,176.687-60.9888,45.271-134.729,70.7837-208.5986,79.8243a680.7479,680.7479,0,0,1-111.2891,4.7045,876.38,876.38,0,0,1-110.3052-11.0058c-36.5576-6.13-72.8515-15.0049-108.0615-27.6441-35.1855-12.6269-69.292-29.0869-100.7422-50.0683a360.6408,360.6408,0,0,1-83.5327-76.6016c-23.894-29.6386-42.0972-63.5937-55.2661-99.0381-13.3252-35.4785-20.8106-72.727-24.3848-109.9926-3.6865-37.3047-3.1689-74.7583.1026-111.7725a742.547,742.547,0,0,1,18.0371-109.6094c8.42-35.8984,18.7793-71.0864,30.0586-105.7715,22.5439-69.4384,47.72-137.0092,74.59-204.6264a5.3671,5.3671,0,0,1,10.2954,2.7929Z"/><path class="cls-2" d="M1776.362,3127.0578c-68.14,0-141.9531-14.2481-204.9658-59.3409a16.0011,16.0011,0,0,1,18.6231-26.0254c153.0615,109.5362,388.7549,14.8536,391.1181,13.8819a15.9993,15.9993,0,0,1,12.168,29.5947C1986.8747,3087.8146,1889.4333,3127.0578,1776.362,3127.0578Z"/><path class="cls-3" d="M2932.5317,1844.4646s-9.1016,344.5492-287.73,392.4919c-79.8543,13.7457-140.494-10.9745-182.1066-40.6391-45.7325-32.5108-68.4678-70.9772-68.4678-70.9772l-48.2421-175.7764-51.4633-187.65a653.1618,653.1618,0,0,0,84.6859,63.9736c23.0348,14.6071,49.1411,28.9152,76.2585,39.59,88.0195,34.571,186.339,30.3386,222.4458-129.8194Z"/><g class="cls-4"><path class="cls-2" d="M2644.7893,2236.9642c-167.5182,28.8448-250.5582-111.6255-250.5582-111.6255h0c-5.3486-20.69,18.6482-36.5287,35.4-23.2612,41.63,32.97,105.8544,63.6762,192.8751,48.6922,196.8386-33.8657,301.3613-235.0367,100.3568-327.5216l209.657,21.2082S2923.4275,2189.0271,2644.7893,2236.9642Z"/></g><path class="cls-2" d="M2298.14,1758.0054c18.65,9.6972,36.2793,20.4052,53.6207,31.1059l25.8349,16.1524c8.6646,5.2368,17.2949,10.4712,26.0523,15.42a547.01,547.01,0,0,0,53.2837,27.3047,240.1849,240.1849,0,0,0,55.8032,16.9726c18.855,3.0152,37.8052,2.771,55.1562-2.0117a100.1527,100.1527,0,0,0,45.6665-27.3193,127.2917,127.2917,0,0,0,17.1924-21.89c2.666-3.8745,4.834-8.1787,7.229-12.29,2.08-4.353,4.4214-8.5278,6.2525-13.0518a307.3009,307.3009,0,0,0,18.0761-56.27l4.2359-18.7427,17.6611,7.5489,254.6191,108.8232,10.1319,4.3286-.4248,10.8081c-.3711,9.4458-1.1255,17.9-2.0386,26.7359-.8984,8.7378-2.0581,17.4145-3.3618,26.0669q-3.9258,25.9569-10.0391,51.499a550.4637,550.4637,0,0,1-33.7622,99.6167c-14.8364,31.9531-32.7173,62.93-55.64,90.3662-22.7442,27.4536-49.67,51.9775-80.4346,70.6738a324.5428,324.5428,0,0,1-99.5239,39.4678c-34.6778,8.0615-71.8286,10.0781-107.7368,3.667-36.0206-6.3086-69.9854-21.35-100.5372-40.8814a191.2113,191.2113,0,0,1-40.4223-36.04c-11.4624-13.97-20.9961-29.48-25.41-47.9956a5.5727,5.5727,0,0,1,8.7549-5.7544l.4273.3247c27.4975,20.7544,50.1147,42.7759,76.0791,61.4795,12.8442,9.3872,26.5332,17.7222,41.1914,23.87a212.395,212.395,0,0,0,45.52,13.4912c31.3061,5.54,63.6035,3.94,95.2514-3.4131a292.5255,292.5255,0,0,0,89.6851-35.498c27.5562-16.7407,51.731-38.75,72.4414-63.7158,20.8594-24.9219,37.3877-53.5181,51.2329-83.3057a518.7175,518.7175,0,0,0,31.7578-93.789q5.7642-24.1956,9.524-48.84c1.2353-8.1982,2.3339-16.4209,3.1787-24.6386.852-8.1128,1.5722-16.65,1.8725-24.2334l9.7071,15.1342-254.6192-108.8208,21.8945-11.1938a338.7742,338.7742,0,0,1-20.0439,62.2168c-2.09,5.11-4.7949,10.039-7.2241,15.0464-2.8028,4.8779-5.3589,9.8559-8.5571,14.5678a159.12,159.12,0,0,1-21.2647,27.0069c-16.1352,16.7065-37.2485,29.7021-60.0781,35.8056-22.82,6.2915-46.3867,6.2305-68.4937,2.8345-22.2387-3.2593-43.35-9.8657-63.6523-17.6855a381.0237,381.0237,0,0,1-57.9859-28.6914c-36.3769-22.5489-70.6176-48.5254-95.33-84.4336a5.4643,5.4643,0,0,1,7.0141-7.9493Z"/><path class="cls-2" d="M2697.2019,2228.6007c-25.9668,0-48.4668-8.73-67.124-26.0986-85.9522-79.99-56.9678-320.293-55.6934-330.4834a12.002,12.002,0,0,1,23.8184,2.9785c-.2979,2.3731-28.7744,238.2959,48.2324,309.9463,18.9307,17.6123,42.5,23.3105,72.0605,17.4365a11.9978,11.9978,0,0,1,4.6778,23.5352A133.0763,133.0763,0,0,1,2697.2019,2228.6007Z"/><path class="cls-3" d="M2630.7227,1490.1742h0a12.1872,12.1872,0,0,1-13.0612-11.2456l-26.15-350.0767a12.1873,12.1873,0,0,1,11.2456-13.0613h0A127.8583,127.8583,0,0,1,2739.7846,1233.77l8.9171,119.3773A127.8583,127.8583,0,0,1,2630.7227,1490.1742Z"/><path class="cls-2" d="M2629.8044,1493.0831a15.0836,15.0836,0,0,1-15.01-13.94l-26.1475-350.0757a15.058,15.058,0,0,1,13.8965-16.1425,130.7306,130.7306,0,0,1,140.1074,120.63l8.916,119.3775c5.3711,71.8872-48.7451,134.7387-120.63,140.11h0C2630.5564,1493.0709,2630.18,1493.0831,2629.8044,1493.0831ZM2612.48,1118.3q-4.7388,0-9.5068.3565a9.307,9.307,0,0,0-8.5938,9.98l26.1475,350.0757a9.3332,9.3332,0,0,0,9.9805,8.5962,125.129,125.129,0,0,0,115.3271-133.9477l-8.916-119.3775A125.0063,125.0063,0,0,0,2612.48,1118.3Z"/><g class="cls-4"><path class="cls-2" d="M2744.52,1297.1689l4.1945,55.9881A127.9151,127.9151,0,0,1,2630.7171,1490.2a12.2144,12.2144,0,0,1-13.0654-11.2716l-6.982-93.0609a12.21,12.21,0,0,0,11.5966,6.3843l8.3-.6436A127.7572,127.7572,0,0,0,2744.52,1297.1689Z"/></g><path class="cls-2" d="M2629.7947,1506.2106a28.2314,28.2314,0,0,1-28.0909-26.0864l-26.1474-350.0806a28.1852,28.1852,0,0,1,26.0107-30.2075,143.8533,143.8533,0,0,1,154.1748,132.7417l8.916,119.3774c5.9082,79.104-53.6425,148.2666-132.7441,154.1748h0C2631.2009,1506.1837,2630.4978,1506.2106,2629.7947,1506.2106Zm-22.0362-374.6851,25.5713,342.3462a111.9959,111.9959,0,0,0,99.4141-119.5337l-8.916-119.3774a111.8611,111.8611,0,0,0-116.0694-103.4351Z"/><path class="cls-3" d="M1447.2362,1202.1043h0a12.1873,12.1873,0,0,1,13.0613,11.2456l26.15,350.0767a12.1873,12.1873,0,0,1-11.2457,13.0613h0a127.8584,127.8584,0,0,1-137.0272-117.9791l-8.9171-119.3773A127.8583,127.8583,0,0,1,1447.2362,1202.1043Z"/><path class="cls-2" d="M1465.4734,1579.7262a130.7456,130.7456,0,0,1-130.166-121.0034l-8.9161-119.3774c-5.3662-71.8848,48.7452-134.7364,120.63-140.1075h0a15.0588,15.0588,0,0,1,16.1426,13.8965l26.1475,350.0781a15.0584,15.0584,0,0,1-13.8965,16.1426Q1470.427,1579.7286,1465.4734,1579.7262ZM1447.4509,1204.97a125.1266,125.1266,0,0,0-115.3271,133.9453l8.916,119.3774a124.9868,124.9868,0,0,0,133.9453,115.33,9.3108,9.3108,0,0,0,8.5937-9.98l-26.1474-350.0781a9.4,9.4,0,0,0-9.98-8.5937Z"/><g class="cls-4"><path class="cls-2" d="M1479.2207,1466.3063l7.2432,97.1188a12.2162,12.2162,0,0,1-11.2714,13.0661A127.805,127.805,0,0,1,1338.1891,1458.53l-3.76-50.3024a127.9058,127.9058,0,0,0,121.7479,66.2111l12.7751-.9564A12.3276,12.3276,0,0,0,1479.2207,1466.3063Z"/></g><path class="cls-2" d="M1465.4538,1592.8537a143.8783,143.8783,0,0,1-143.2373-133.1543l-8.916-119.3775c-5.9082-79.1015,53.6426-148.2641,132.7442-154.1723h0a28.21,28.21,0,0,1,30.21,26.0034l26.1475,350.083a28.186,28.186,0,0,1-26.0059,30.2075Q1470.91,1592.8536,1465.4538,1592.8537Zm-20.8252-374.4458a111.9918,111.9918,0,0,0-99.414,119.5312l8.916,119.3774A111.8654,111.8654,0,0,0,1470.2,1560.754Z"/><g class="cls-4"><path class="cls-2" d="M2455.4663,1865.4768a607.5127,607.5127,0,0,1-54.1974,46.6319,599.0377,599.0377,0,0,1-562.0884,87.8694c-72.588-25.6945-133.65-65.9007-183.7237-125.9477-44.36-53.1956-98.1966-122.69-109.9022-205.1888l471.8745-48.2086s-3.8952,16.2183-11.8357,42.6989c173.8289-26.3686,347.3959-24.3458,350.4672,19.8884.4869,7.079,1.0861,14.1956,1.8353,21.2747a832.4835,832.4835,0,0,0,13.9706,88.3939q2.4159,11.7426,5.1314,23.4844c.7116,3.1836,1.4608,6.33,2.21,9.5137C2402.2426,1840.4941,2428.3489,1854.8022,2455.4663,1865.4768Z"/></g><circle class="cls-3" cx="2039.0522" cy="1346.1339" r="598.221"/><path class="cls-2" d="M2039.0232,1947.2287c-330.4737,0-599.878-268.2154-601.0645-598.95-1.1767-331.4429,267.51-602.0533,598.95-603.2349.708-.0024,1.4746-.0049,2.1778-.0049,330.4736,0,599.873,268.2153,601.06,598.95h0c1.1768,331.44-267.51,602.0532-598.95,603.24Zm.0635-1196.44c-.7178,0-1.4356,0-2.1582.0025-328.2715,1.1718-594.39,269.1943-593.2178,597.4682,1.1719,327.5489,268.0273,593.2227,595.3125,593.2227.7178,0,1.4306,0,2.1533-.0049,328.2715-1.1719,594.39-269.1968,593.2178-597.4683C2633.2224,1016.4572,2366.3718,750.7882,2039.0867,750.7882Z"/><g class="cls-4"><path class="cls-2" d="M2631.2405,1261.21a594.543,594.543,0,0,1,6.04,82.7945c1.1339,330.3769-265.7261,599.1569-596.1014,600.3671-330.3771,1.135-599.1562-265.7255-600.367-596.1-.04-9.5008.147-19.0107.5684-28.376,41.37,291.0626,292.0367,514.3741,594.3269,513.3057C2356.5818,1832.0309,2617.4952,1578.4816,2631.2405,1261.21Z"/></g><path class="cls-2" d="M2039.0183,1960.3585c-337.6856,0-612.9736-274.0771-614.1846-612.0337-1.206-338.6792,273.35-615.1977,612.0264-616.4086.7226-.0025,1.5088-.0025,2.2314-.0025,337.6856,0,612.9688,274.0723,614.18,612.0288h0c1.2061,338.6768-273.35,615.2-612.0263,616.4112C2040.5222,1960.3537,2039.741,1960.3585,2039.0183,1960.3585Zm.0684-1196.4453q-1.0548,0-2.1094.0049c-321.0352,1.145-581.2842,263.2593-580.1416,584.2944,1.1426,320.3272,262.1191,580.1441,582.1875,580.1441.7031,0,1.4013,0,2.1045-.0049,321.0351-1.1475,581.2842-263.2617,580.1416-584.2969h0C2620.1267,1023.7252,2359.155,763.9132,2039.0867,763.9132Z"/><path class="cls-2" d="M2635.4112,1359.37c2.186,117.0426-33.7778,226.4147-97.0765,317.5341-47.4553,68.3126-245.5063,190.0159-492.7441,196.8568-229.2425,6.343-440.1373-112.0063-490.11-178.4991-66.6573-88.6922-106.68-196.6451-108.8663-313.6876-5.785-309.7287,257.9242-443.0994,586.2156-449.2312S2629.6263,1049.6415,2635.4112,1359.37Z"/><path class="cls-2" d="M2027.446,1890.0119c-230.1318.0048-433.5986-117.0655-484.7558-185.1368-71.1426-94.6606-109.8975-206.3525-112.07-323.0029-2.8418-152.0972,55.9619-270.5151,174.7753-351.96,103.5987-71.0108,251.2989-110.2832,427.1387-113.5645,175.669-3.335,324.8975,30.4395,431.0742,97.5366,121.7774,76.9507,184.961,193.0884,187.7979,345.188h0c2.1826,116.6553-32.3731,229.7168-99.9316,326.9605-46.86,67.456-243.2325,196.47-505.4395,203.7255Q2036.7186,1890.0142,2027.446,1890.0119Zm28.4717-941.8848c-7.5488,0-15.1269.0708-22.7881.2124-169.5654,3.1665-311.2207,40.5-409.6386,107.9663-109.38,74.9756-163.5059,184.3115-160.879,324.9707,2.0508,109.8755,38.584,215.127,105.6592,304.3726,46.3721,61.7016,242.7783,172.3462,459.4727,172.3608,5.8008,0,11.5771-.083,17.4023-.2441,247.72-6.8506,437.7686-129.126,480.0489-189.99,63.6914-91.6821,96.2695-198.2226,94.2187-308.1079h0c-2.6269-140.6567-60.7959-247.8955-172.9-318.7329C2350.2,980.07,2215.4978,948.1271,2055.9177,948.1271Z"/><g class="cls-7"><ellipse class="cls-3" cx="2441.4426" cy="1320.9024" rx="105.8662" ry="76.7127" transform="translate(747.1699 3519.7351) rotate(-80.7994)"/></g><g class="cls-7"><ellipse class="cls-3" cx="2351.4011" cy="1532.3315" rx="48.5917" ry="41.6992" transform="translate(194.0573 3327.6015) rotate(-72.8571)"/></g><path class="cls-2" d="M1486.46,1131.567a14.9824,14.9824,0,0,1-12.2168-23.6474c102.0264-155.9619,303.8428-248.0811,553.8086-252.7564,6.6748-.1245,13.3447-.1855,19.9609-.1855,239.2334,0,436.2061,81.1084,542.6807,224.0722a15.0021,15.0021,0,0,1-20.9131,21.3233l-1.4648-1.14-1.2256-1.65C2463.6472,958.13,2267.3679,880.73,2028.6081,885.1583c-240.0976,4.49-433.0957,91.814-529.5166,239.5826l-.9863,1.3379A15.0561,15.0561,0,0,1,1486.46,1131.567Z"/><g class="cls-7"><path class="cls-3" d="M1583.5452,1563.337S1481.91,1259.58,1644.3063,1134.7438s399.3183-128.77,394.0621-113.4727c0,0-261.094,68.3945-359.844,277.66C1602.376,1460.3,1583.5452,1563.337,1583.5452,1563.337Z"/></g><path class="cls-3" d="M2629.5833,1725.5284c33.5479,172.2848,206.2247,163.9929,254.0741,154.5615,99.7931-19.6875,137.7772-111.2362,137.7772-111.2362l-74.9865-108.765-32.8933-58.5174-41.7356-14.5833c-30.56-62.0385-98.32-133.86-140.0413-111.4195C2731.7779,1475.5685,2600.6554,1577.0251,2629.5833,1725.5284Z"/><g class="cls-4"><path class="cls-2" d="M3038.53,1714.4708c-2.3452,53.1131-74.0444,98.2291-223.0462,74.1578-52.4843-8.4789-94.2686-47.3029-91.9235-100.416a96.2635,96.2635,0,0,1,100.4161-91.9235C2877.09,1598.6342,3040.8751,1661.3578,3038.53,1714.4708Z"/></g><path class="cls-3" d="M3040.8351,1542.3536c-41.0656,37.7317-76.7746,65.3035-76.7746,65.3035l-115.3421,108.052-66.4439-185.16s1.1838-36.7234,6.19-85.18c9.8229-95.95,34.4514-237.8366,93.7329-231.5269,106.6192,11.3632,23.4453,289.8,23.4453,289.8s180.72-220.01,246.2309-152.3593C3190.205,1390.867,3108.2824,1480.3305,3040.8351,1542.3536Z"/><g class="cls-4"><path class="cls-2" d="M3040.8351,1542.3536c-41.0656,37.7317-76.7746,65.3035-76.7746,65.3035l-115.3421,108.052-66.4439-185.16s1.1838-36.7234,6.19-85.18c27.6552,23.9082,79.2894,67.3876,96.9065,92.7045C2915.7135,1581.6768,2998.05,1532.1087,3040.8351,1542.3536Z"/></g><path class="cls-2" d="M2848.7107,1731.7306a16.0119,16.0119,0,0,1-15.0586-10.6006l-66.4356-185.2a15.9151,15.9151,0,0,1-.9326-5.9277c.8692-26.521,10.42-260.752,76.3965-318.1421,12.2754-10.6763,26.5527-15.4907,41.2158-13.9282,20.3369,2.1679,37.1631,12.4487,48.667,29.7339,32.6026,48.9965,18.9209,149.5727,4.5654,216.5381,47.6221-50.0928,123.4522-119.4507,180.1026-121.7627,18.1152-.8082,34.1894,5.3857,46.1474,17.7294,10.41,10.752,15.2979,24.9683,14.1358,41.1109-6.0108,83.352-180.1611,220.82-203.0615,238.5522l-114.8,107.5708A16.0008,16.0008,0,0,1,2848.7107,1731.7306Zm-50.3369-203.7134L2855.5466,1687.4l97.583-91.4332c.3662-.3466.7569-.6787,1.1573-.9887,51.7626-39.9878,187.041-156.7432,191.3085-215.9986.6739-9.3212-2.6513-13.9087-5.205-16.5478-5.6641-5.8447-12.5977-8.418-21.8506-8.0176-59.0088,2.4-164.7754,115.8838-200.5469,159.4092a16.0019,16.0019,0,0,1-27.6953-14.7363c15.8887-53.2251,49.6631-202.5611,15.62-253.6988-6.3183-9.4946-14.3945-14.46-25.41-15.6347-3.6719-.3907-9.4336-.1758-16.8213,6.25C2817.3386,1276.3082,2800.991,1457.5,2798.3738,1528.0172Z"/><path class="cls-3" d="M3042.4974,1750.0616c-28.063,41.4147-140.1194,56.385-179.9683,22.5623-33.9009-28.7992,2.6874-61.9674,13.0655-70.3509,1.6128-1.3379,2.6156-2.0221,2.6156-2.0221s-42.1387-14.9775-48.0172-51.2839a49.4178,49.4178,0,0,1-.6462-7.3643c-.7859-41.62,111.6363-72.5573,161.607-62.238,37.3578,7.7221,51.033,23.6776,53.8488,40.2223,3.0114,17.6219-6.2979,35.9144-12.4115,45.6521-2.82,4.4421-4.9271,7.07-4.9271,7.07S3064.9962,1716.9026,3042.4974,1750.0616Z"/><g class="cls-4"><path class="cls-2" d="M3032.5911,1665.2391c-30.3937,13.9124-91.1268,37.1731-156.9965,37.0339,1.6128-1.3379,2.6156-2.0221,2.6156-2.0221s-42.1387-14.9775-48.0172-51.2839c39.0389,10.3709,147.2131,31.6162,214.81-29.38C3048.014,1637.2089,3038.7047,1655.5014,3032.5911,1665.2391Z"/></g><g class="cls-4"><path class="cls-2" d="M3042.4974,1750.0616c-28.063,41.4147-140.1194,56.385-179.9683,22.5623-16.6706-14.1444-16.2905-29.3334-10.3818-42.1408a53.0426,53.0426,0,0,0,6.465,6.5039c39.8,33.8206,151.858,18.85,179.9177-22.5162a40.0736,40.0736,0,0,0,5.9334-13.3405C3050.3651,1716.0137,3053.1512,1734.3059,3042.4974,1750.0616Z"/></g><path class="cls-2" d="M2930.2683,1807.3117c-32.8272.0048-60.8594-7.8663-78.0713-22.48-17.1045-14.5117-20.1611-30.2-19.7168-40.8057.6738-16.03,9.5117-30.0439,18.3545-40.166-16.6309-11.123-36.66-30.9131-37.2656-61.9189-.1905-9.7852,3.3349-24.57,21.2207-39.4336,38.33-31.8506,118.6719-47.2779,159.6142-38.8233h0c34.4971,7.1241,56.0254,21.9483,63.9844,44.0625,8.9844,24.9561-2.69,50.4639-11.1816,64.3457,11.499,17.5782,30.2734,54.9317,8.54,86.9727-15.5322,22.8857-51.0547,40.1318-95.0293,46.123A226.1793,226.1793,0,0,1,2930.2683,1807.3117Zm38.291-213.9771c-35.9814,0-88.74,13.3618-113.32,33.7842-6.3184,5.249-9.751,10.2905-9.6777,14.1968.5908,30.2319,37.6269,43.7256,38.0029,43.8574a15.9977,15.9977,0,0,1,3.94,28.1006c-5.791,4.1845-22.5439,19.1308-23.0566,32.1386-.127,3.2618.61,8.3692,8.4521,15.0245,15.0684,12.7832,47.8321,17.9052,83.4961,13.0468,34.0674-4.6435,62.6709-17.3584,72.8662-32.3877,15.1612-22.3388-13.6084-58.1689-13.9062-58.5254a16.0455,16.0455,0,0,1-.19-20.2587c5.5078-6.958,18.6621-28.4693,13.0908-43.7891-4.9268-13.56-24.6485-20.2637-40.3272-23.501h0A97.7968,97.7968,0,0,0,2968.5593,1593.3346Z"/><path class="cls-2" d="M2903.0661,1717.5119a258.8393,258.8393,0,0,1-26.4941-1.3428,16.0011,16.0011,0,1,1,3.2813-31.8335c75.4931,7.7856,139.6386-25.7984,140.2783-26.1377a16,16,0,0,1,15.0293,28.2519C3032.5144,1687.8585,2975.84,1717.5119,2903.0661,1717.5119Z"/><path class="cls-3" d="M2731.7862,1475.5855c55.3842-29.795,156.537,106.3622,155.8985,165.4344-.4874,45.0946-55.4759,80.3055-116.6726,20.0374C2709.0089,1599.9949,2644.812,1522.375,2731.7862,1475.5855Z"/><path class="cls-3" d="M3021.4409,1768.8777s-38.0027,91.5193-137.7608,111.2039c-47.862,9.4442-220.5442,17.74-254.1024-154.5648-28.92-148.4917,102.2085-249.9313,102.2085-249.9313,55.3842-29.795,156.537,106.3622,155.8985,165.4344-.4874,45.0946-68.5356,67.6731-121.0895-14.0343,0,0,26.3527,73.2737-38.863,119.5931l144.7816,92.13L2985.826,1821.74Z"/><path class="cls-3" d="M2758.6074,1713.382l-2.8832-1.8275c2.3072-1.6473,4.4194-3.2543,6.4376-4.9626C2761.0917,1708.8278,2759.9224,1711.1082,2758.6074,1713.382Z"/><g class="cls-4"><path class="cls-2" d="M2769.5162,1613.7387c-6.6182-29.4407,73.6713,48.3113,117.9857,31.2-3.6988,36.4668-52.7842,55.5779-98.9005,9.6731C2786.7743,1631.0666,2769.5162,1613.7387,2769.5162,1613.7387Z"/></g><g class="cls-4"><path class="cls-2" d="M2966.7233,1824.5908l19.1216-2.8479c-22.0468,23.9971-55.3164,49.1017-102.1672,58.3525-47.8807,9.4481-220.5614,17.71-254.1031-154.5817-19.6819-101.0426,34.78-180.3508,71.5871-220.6509-30.4659,44.1267-58.6215,108.5645-43.6126,185.645,33.54,172.291,206.2212,164.0295,254.1019,154.5816A181.1957,181.1957,0,0,0,2966.7233,1824.5908Z"/></g><path class="cls-3" d="M3021.4043,1768.951a153.381,153.381,0,0,1-9.5434,18.0879l-2.9342.4534Z"/><path class="cls-3" d="M3013.8182,1786.7369c-1.6333,1.774-3.3172,3.5941-5.0948,5.3617,1.0972-1.749,2.1438-3.4517,3.1375-5.06Z"/><path class="cls-2" d="M2693.6694,1846.3647a77.2418,77.2418,0,0,1-25.6469-12.9931,101.23,101.23,0,0,1-20.354-20.271,157.4132,157.4132,0,0,1-15.3345-24.292,179.0619,179.0619,0,0,1-10.5615-26.46,295.3974,295.3974,0,0,1-10.9815-55.1025,236.3872,236.3872,0,0,1,.85-56.2769,254.5868,254.5868,0,0,1,13.6841-54.3725,298.5319,298.5319,0,0,1,24.4336-49.9292,339.8255,339.8255,0,0,1,32.4976-44.5728q8.9685-10.4553,18.7451-20.2075c3.2812-3.2373,6.5918-6.44,10.039-9.56,3.5181-3.1885,6.7627-6.0621,10.9546-9.397a13.9985,13.9985,0,0,1,1.9019-1.2695l.31-.1661c11.2037-6.0962,24.5459-7.1167,35.4956-5.0708,11.13,1.9873,20.6495,6.25,29.2627,11.0913a156.7841,156.7841,0,0,1,23.4717,16.5772,227.0823,227.0823,0,0,1,20.1685,19.0723,323.91,323.91,0,0,1,33.8745,42.7124,291.718,291.718,0,0,1,26.1426,48.2446,165.94,165.94,0,0,1,8.7939,27.38,89.4643,89.4643,0,0,1,2.1167,15.4443,57.89,57.89,0,0,1-1.5039,17.3462,55.32,55.32,0,0,1-19.1186,30.2344,60.42,60.42,0,0,1-32.3267,12.7441c-11.37,1.13-22.3657-.8935-32.3242-4.3652a101.7492,101.7492,0,0,1-26.8384-14.7071c-15.9912-11.9751-28.0957-26.98-38.2813-42.5561l28.5108-14.07a98.5994,98.5994,0,0,1,2.7685,9.9609c.7276,3.1348,1.3135,6.272,1.7823,9.4116a146.4939,146.4939,0,0,1,1.6284,18.9893,149.8944,149.8944,0,0,1-4.6167,38.4155,56.1313,56.1313,0,0,1-3.0054,9.419c-1.23,3.0712-2.5073,6.14-4.0185,9.0795-1.6748,2.8614-3.5108,5.63-5.2784,8.4156-1.7016,2.8418-4.1455,5.1245-6.2915,7.5952a55.2457,55.2457,0,0,1-33.7988,18.0688,5.99,5.99,0,0,1-6.4819-7.7588l.3052-.9375a67.4709,67.4709,0,0,1,3.55-8.3618c1.2719-2.5024,2.7417-4.7168,3.7866-7.19,2.29-4.7656,5.0146-8.7818,7.0971-13.1006a167.3667,167.3667,0,0,0,12.0069-25.11,72.2955,72.2955,0,0,0,4.7485-28.0566,114.4639,114.4639,0,0,0-1.2549-14.5752c-.3588-2.4219-.8032-4.8071-1.3476-7.1484-.4859-2.2168-1.2427-4.9024-1.6895-6.2891l-.1318-.4077a16.008,16.008,0,0,1,28.6426-13.6621c8.6645,13.2886,18.7573,25.4931,30.5444,34.2505,11.604,8.8427,25.1611,14.0063,37.0093,12.83a28.4229,28.4229,0,0,0,15.2661-5.8326,23.177,23.177,0,0,0,8.0493-12.7856,25.9608,25.9608,0,0,0,.647-8.3691,58.0261,58.0261,0,0,0-1.4331-10.188,135.0613,135.0613,0,0,0-7.0825-21.8872c-12.4537-29.3873-31.521-57.5538-53.6744-81.1744a195.1043,195.1043,0,0,0-17.4633-16.5283,125.0908,125.0908,0,0,0-18.7818-13.32c-6.3965-3.63-12.9663-6.3428-18.8769-7.3682-5.9693-1.0253-10.7593-.42-14.8877,1.7188l2.207-1.4331c-2.6709,2.1265-6.0254,5.0366-8.9941,7.7515-3.0591,2.7636-6.0523,5.664-9.0161,8.5839-5.9107,5.8741-11.5918,12.0215-17.0313,18.3643a307.71,307.71,0,0,0-29.4458,40.376,266.4634,266.4634,0,0,0-21.78,44.46,222.5023,222.5023,0,0,0-11.9555,47.4756,204.2735,204.2735,0,0,0-.7325,48.6841,194.5134,194.5134,0,0,0,11.3282,47.5268,288.3335,288.3335,0,0,0,20.41,43.3912c8.0957,13.8256,16.9141,26.9311,25.8374,43.0712l.0415.0782a5.7706,5.7706,0,0,1-6.5674,8.3593Z"/><path class="cls-2" d="M3036.2183,1775.0146c-1.9532,4.6143-3.5645,8.1055-5.5982,11.8677-1.958,3.6865-4.0161,7.2681-6.2085,10.7593-2.1655,3.5132-4.5605,6.8506-6.8384,10.2734-2.4365,3.3081-4.9755,6.5357-7.4878,9.7779l-8.02,9.3384-8.6572,8.7622a175.5269,175.5269,0,0,1-18.8013,15.8862c-6.4428,5.0683-13.54,9.292-20.5151,13.5205-7.4072,3.5791-14.4751,7.644-22.2119,10.3271a84.02,84.02,0,0,1-47.9419,5.8619,1.4272,1.4272,0,0,1-.6006-2.5513l.0855-.0635c13.4326-9.9341,26.4306-15.7666,38.8476-23.3008,6.4063-3.2641,12.0776-7.8125,17.9956-11.7382,5.4639-4.67,11.294-8.7159,16.3257-13.8135,2.605-2.4219,5.2417-4.7876,7.605-7.4683,2.4267-2.605,5.0122-5.0244,7.3047-7.749l6.8676-8.1445,6.5259-8.4131,6.106-8.7158c1.8969-2.9859,3.9331-5.896,5.7251-8.9307,1.8042-3.0347,3.6841-6.0108,5.33-9.08,1.6479-2.9419,3.4594-6.3037,4.6093-8.6792l.4419-.9155a15.9847,15.9847,0,0,1,29.1114,13.1884Z"/><path class="cls-2" d="M1652.6343,3239.8633a142.9177,142.9177,0,0,1,21.9458-4.1626q5.4492-.7324,10.9277-1.023c3.6426-.2856,7.3-.4638,10.9595-.4687a247.4649,247.4649,0,0,1,43.8721,3.2324,226.9062,226.9062,0,0,1,42.7978,11.2476c13.7476,5.5444,26.9556,12.6684,38.042,22.1582a2.1787,2.1787,0,0,1-2.07,3.7329l-.09-.0293a216.2487,216.2487,0,0,0-40.2271-8.53,345.98,345.98,0,0,0-40.4468-1.6064c-13.4961.2319-26.96,1.4331-40.4028,2.3022-13.33.9351-27.1509,2.1777-40.0317,2.6807l-.6861.0244a15.0559,15.0559,0,0,1-4.59-29.5581Z"/><g class="cls-4"><path class="cls-2" d="M1367.28,1021.4186c-2.52,23.76-8.48,43.72-15.6,55.44-24.68,40.6-239,45.4-318.92,9.48-72.72-32.68-69.24-133.32-68.44-146.64h397.2C1368.84,967.6588,1369.92,996.5788,1367.28,1021.4186Z"/></g><path class="cls-3" d="M1431.56,1021.4186c-2.52,23.76-8.48,43.72-15.6,55.44-24.68,40.6-239,45.4-318.92,9.48-77.96-35.04-68.36-148.12-68.36-148.12h-56a158.8481,158.8481,0,0,1,19.16-38.4c78.72-115.24,292.32-94.12,363.36-55.48C1423.4,881.4586,1437.8,962.8991,1431.56,1021.4186Z"/><g class="cls-4"><path class="cls-2" d="M1431.56,1021.4186c-2.52,23.76-8.48,43.72-15.6,55.44-24.68,40.6-239,45.4-318.92,9.48-77.96-35.04-68.36-148.12-68.36-148.12h-56a158.8481,158.8481,0,0,1,19.16-38.4c19.2-11,41.36-18.48,60.28-11,44.28,17.56,6.12,128.52,85.04,158C1207.28,1073.0592,1376.36,1099.2589,1431.56,1021.4186Z"/></g><path class="cls-2" d="M1261.7038,1126.423c-66.6162,0-135.3759-9.38-171.2255-25.4883-68.462-30.7666-77.6123-111.0547-78.1641-146.7334H972.6951a15.9982,15.9982,0,0,1-15.1319-21.1938c17.8125-51.9,57.5781-91.14,115.0049-113.4766,101.5576-39.5093,236.1035-18.7085,290.2979,10.769,38.3886,20.8814,65.3759,56.79,78.0566,103.8428,15.4785,57.4512,6.416,121.8994-11.2842,151.0181C1412.0994,1114.0109,1338.32,1126.4205,1261.7038,1126.423Zm-217.0654-186.88c-.1172,1.4673-7.4463,102.3633,58.9551,132.2022,34.6924,15.5883,102.6953,24.458,173.1982,22.5463,77.0215-2.0654,119.7559-16.3037,125.503-25.7544,12.1142-19.9243,21.538-74.8193,7.73-126.0693-10.4932-38.9429-31.504-67.2241-62.4512-84.0576-49.9121-27.1533-174.2578-43.7354-263.4033-9.0576-40.669,15.82-69.9024,40.271-87.1778,72.8467h31.7041a16.0027,16.0027,0,0,1,15.9424,17.3437Z"/><g class="cls-4"><path class="cls-2" d="M2447,2540.9391c.64-2.68,1.28-5.32,1.88-8-41.52,182.96-160.04,378-483.52,363.5195-250.48-11.2-397.24-113.76-445.68-277.0795-.16-.48-.28-1-.4-1.48-2-6.8-3.84-13.68-5.48-20.72-.16-.6-.32-1.24-.44-1.88q-.54-2.4-1.08-4.8c-.32-1.3994-.64-2.84-.88-4.28-.44-1.96-.84-3.92-1.2-5.92-1.24-6.44-2.36-12.96-3.32-19.56-.4-2.48-.72-4.96-1.04-7.48-.32-2.6-.64-5.2-.96-7.84-.2-1.92-.44-3.88-.64-5.84-.04-.68-.12-1.36-.2-2.04-.4-4.08-.72-8.2-1-12.36-.32-4.36-.6-8.76-.8-13.2-.08-1.64-.12-3.24-.2-4.88-.08-2.24-.16-4.5205-.2-6.8-.08-4.4-.16-8.8-.16-13.24q0-5.64.12-11.28c.04-3.32.16-6.64.28-9.96v-.04c.08-2.4.2-4.8.32-7.2s.24-4.84.4-7.24q.18-3.66.48-7.32c.12-1.92.28-3.84.44-5.76.24-2.96.48-5.96.76-8.96q1.68-17.7606,4.36-36.08c7.48-51.36,21.04-103.2,37.04-156.4a92.2055,92.2055,0,0,1,50.92-11.8l430.48,25.64a90.1353,90.1353,0,0,1,18.44,2.96c41.68,11.16,71.44,50.56,68.76,95.24l-2.72,46.16c1.92-1.12,3.8-2.2,5.88-3.28,0,0,182.56,54.68,336.04,10.64-8.84,47.72-22.24,97.32-42.4,144.76-71.24,10.28-173.44,13.28-307.92-10.84l-2.48,41.68c-3.04,51.04-47.28,90.24-98.24,87.2l-284.3909-16.9006c-45.5663-2.7079-64.8629,57.6907-25.7812,81.2753,72.68,43.86,165.9755,77.1575,279.5722,82.2244,252.6,11.24,377.6-119.6392,439.24-264.6392Q2430.66,2544.319,2447,2540.9391Z"/></g><g class="cls-4"><path class="cls-2" d="M2467.88,2398.0192c-.04.8-.12,1.56-.16,2.36-.2,3.0795-.44,6.2-.68,9.36-.2,2.44-.4,4.88-.64,7.32q-.6,7.32-1.32,14.76c-.52,4.96-1.04,10-1.6,15.04-.32,2.52-.6,5.08-.92,7.6-.32,2.5606-.64,5.12-1,7.68-1.36,10.24-2.96,20.64-4.76,31.12-2.28,13.12-4.88,26.36-7.92,39.68-.6,2.68-1.24,5.32-1.88,8q-16.32,3.36-35.72,6.2c20.16-47.44,33.56-97.04,42.4-144.76C2458.44,2401.0592,2463.2,2399.5788,2467.88,2398.0192Z"/></g><circle class="cls-3" cx="1536.158" cy="2387.0965" r="71.4226" transform="translate(-362.5347 276.8886) rotate(-9.2175)"/><g class="cls-4"><path class="cls-2" d="M1464.75,2387.0864a71.427,71.427,0,1,0,142.8539,0,70.622,70.622,0,0,0-6.8675-30.5345,71.43,71.43,0,0,1-129.1189,0A70.6278,70.6278,0,0,0,1464.75,2387.0864Z"/></g><path class="cls-2" d="M1536.157,2474.5187a87.4219,87.4219,0,1,1,87.4267-87.4219A87.5228,87.5228,0,0,1,1536.157,2474.5187Zm0-142.8418a55.42,55.42,0,1,0,55.4248,55.42A55.479,55.479,0,0,0,1536.157,2331.6769Z"/><path class="cls-3" d="M1610.6114,2564.2771l376.9137,22.4181a81.5391,81.5391,0,0,0,85.9845-76.3359l11.9188-200.5746a81.59,81.59,0,0,0-60.2179-83.3736,79.0213,79.0213,0,0,0-16.1183-2.61l-376.857-22.4181a81.47,81.47,0,0,0-85.9844,76.3359l-9.4784,158.8587-2.4973,41.7152C1531.6078,2522.9589,1566.0016,2561.61,1610.6114,2564.2771Z"/><g class="cls-4"><path class="cls-2" d="M1610.6114,2564.2771l376.9137,22.4181a81.5391,81.5391,0,0,0,85.9845-76.3359l11.9188-200.5746a81.59,81.59,0,0,0-60.2179-83.3736c-22.248,12.9405-36.38,21.2266-36.38,21.2266-27.928,159.909-27.9516,279.6862-276.7724,248.2657-85.7821-10.8323-141.97-39.5755-175.2856-59.3263l-2.4973,41.7152C1531.6078,2522.9589,1566.0016,2561.61,1610.6114,2564.2771Z"/></g><path class="cls-2" d="M1992.3972,2602.8634q-2.9078,0-5.8447-.1758l-376.8848-22.4267a97.4161,97.4161,0,0,1-91.3525-102.9151l11.9384-200.6c3.1885-53.5645,49.3409-94.6143,102.91-91.3526l376.8848,22.4268a97.416,97.416,0,0,1,91.3525,102.915l-11.9385,200.6006A97.43,97.43,0,0,1,1992.3972,2602.8634Zm-3.94-32.1191a65.3917,65.3917,0,0,0,69.0625-61.3135l11.9384-200.6006a65.381,65.381,0,0,0-61.3134-69.0674L1631.26,2217.3361a65.5159,65.5159,0,0,0-69.0625,61.3135L1550.2585,2479.25a65.3811,65.3811,0,0,0,61.3135,69.0674Z"/><path class="cls-3" d="M1595.5714,2561.8938a72.3815,72.3815,0,0,0,15.04,2.3833l376.9137,22.4181a81.4629,81.4629,0,0,0,76.6768-43.3038,79.954,79.954,0,0,0,9.2509-33.0321l5.335-89.1059,1.7594-29.4,4.8812-82.069c2.6674-44.6659-31.7265-83.3167-76.3362-85.9841l-81.4444-4.8248a81.5285,81.5285,0,0,1,61.4095,83.6015l-6.4134,108.3462-5.5051,92.2845c-2.6677,44.61-41.3747,79.0033-85.9848,76.336Z"/><g class="cls-4"><path class="cls-2" d="M1595.5714,2561.8938a72.3815,72.3815,0,0,0,15.04,2.3833l376.9137,22.4181a81.4532,81.4532,0,0,0,85.9277-76.3359l7.0944-118.5056c-10.7265,20.375-29.2857,45.0643-56.6987,46.1423-15.04.6242-29.1156-11.01-41.2046-27.0725l-5.5051,92.2845c-2.6677,44.61-41.3747,79.0033-85.9848,76.336Z"/></g><path class="cls-2" d="M1992.4656,2602.8585q-2.937,0-5.8936-.1757l-376.9141-22.4366a91.1081,91.1081,0,0,1-18.164-2.8515l5.01-31.45,295.6153,17.6123a65.5064,65.5064,0,0,0,69.0283-61.2989l11.9336-200.61a65.3649,65.3649,0,0,0-49.3066-67.1826l4.8486-31.4893,81.4062,4.8291a97.4234,97.4234,0,0,1,91.3526,102.9346L2089.448,2511.33a97.5378,97.5378,0,0,1-96.9824,91.5283Zm-29.9073-33.6621,25.9229,1.543a65.5059,65.5059,0,0,0,69.0234-61.2988v-.0147l11.9336-200.5957a65.3824,65.3824,0,0,0-61.3135-69.082l-23.2275-1.377a97.0928,97.0928,0,0,1,20.127,65.1807l-11.9336,200.5957A96.4591,96.4591,0,0,1,1962.5583,2569.1964Z"/><path class="cls-15" d="M1834.3839,2395.681c-.3988,7.42,6.8145,67.8774,6.8145,67.8774l42.2735,2.2716c29.1084,1.5641,54.3249-27.3066,56.3227-64.4846s-19.98-68.5848-49.088-70.149l-42.2735-2.2716S1835.0334,2383.5932,1834.3839,2395.681Z"/><g class="cls-4"><path class="cls-2" d="M1834.3839,2395.681c-.3988,7.42,6.8145,67.8774,6.8145,67.8774l42.2735,2.2716c29.1084,1.5641,54.3249-27.3066,56.3227-64.4846s-19.98-68.5848-49.088-70.149l-42.2735-2.2716S1835.0334,2383.5932,1834.3839,2395.681Z"/></g><path class="cls-2" d="M1885.698,2477.8927q-1.4283,0-2.8711-.0781l-52.3535-2.8174-1.1914-10.0195c-1.7237-14.4239-7.3-62.085-6.88-69.9414h0c.6738-12.5733,12.0947-59.6582,14.375-68.97l2.3681-9.6582,52.2071,2.8077c17.8418.957,33.96,10.4834,45.3955,26.8212,10.8008,15.4346,16.1377,35.3077,15.0293,55.9522C1949.4919,2444.5382,1920.1413,2477.8927,1885.698,2477.8927Zm-33.7647-25.7764,32.1827,1.7334c22.5634,1.2159,42.0556-22.6318,43.6962-53.1494.82-15.3125-2.9882-29.8437-10.7275-40.9033-7.1094-10.1611-16.709-16.0644-27.0215-16.6162l-32.31-1.7383c-4.9218,20.6787-11.0009,47.9444-11.3867,54.8487C1846.2546,2400.5,1848.9451,2426.3693,1851.9333,2452.1163Zm-17.5488-56.4355h0Z"/><ellipse class="cls-15" cx="1844.8157" cy="2396.2416" rx="67.4139" ry="52.7814" transform="translate(-646.9629 4109.822) rotate(-86.9241)"/><g class="cls-4"><path class="cls-2" d="M1897.5178,2399.0864c-1.9824,37.1568-27.2036,66.0473-56.3051,64.4868-29.1435-1.56-51.1173-32.9814-49.0929-70.1809a82.2263,82.2263,0,0,1,2.0668-14.5928c6.1153,25.9378,24.42,45.17,47.0261,46.3514,25.137,1.35,47.4058-19.9914,54.2383-49.8523A84.5529,84.5529,0,0,1,1897.5178,2399.0864Z"/></g><path class="cls-3" d="M1897.5178,2399.0864a72.2229,72.2229,0,0,1-.7591,7.4647c-4.2176-29.4387-23.7451-52.0872-48.3338-53.3949-27.1191-1.4338-50.9065,23.5345-55.5457,57.0642a85.3707,85.3707,0,0,1-.7594-16.8281c1.9824-37.1573,27.2036-66.0473,56.3051-64.4873C1877.5262,2330.5082,1899.5,2361.8869,1897.5178,2399.0864Z"/><path class="cls-2" d="M1843.5105,2475.6173c-.9863,0-1.9678-.0244-2.959-.0781-17.8418-.957-33.96-10.4834-45.3955-26.8213-10.8008-15.4346-16.1377-35.3076-15.0293-55.9521,2.3486-43.7256,33.1982-77.8614,68.95-75.8252,17.8418.9619,33.9648,10.4882,45.4,26.8261,10.8008,15.4346,16.1377,35.3077,15.0244,55.9522-1.1084,20.6445-8.5449,39.8291-20.9375,54.0185S1860.2732,2475.6173,1843.5105,2475.6173Zm2.6465-134.7558c-21.7676,0-40.4639,23.4179-42.0655,53.1933-.82,15.3125,2.9883,29.8438,10.7276,40.9033,7.1094,10.1612,16.709,16.0645,27.0215,16.6163,10.2734.5419,20.4834-4.2823,28.6474-13.6231,8.8819-10.1709,14.2237-24.2041,15.0489-39.5215s-2.9834-29.8437-10.7276-40.9033c-7.1094-10.1611-16.7041-16.0644-27.0215-16.6211C1847.241,2340.8761,1846.699,2340.8615,1846.157,2340.8615Z"/><path class="cls-2" d="M1727.8757,2581.799c-.1465,0-.293-.0049-.4394-.01a12.0024,12.0024,0,0,1-11.5625-12.4219l4.7607-132.8662-56.89-40.6738a12.0025,12.0025,0,0,1-5.0049-10.43l10.1758-181.67a12.0011,12.0011,0,1,1,23.9648,1.3379l-9.81,175.0781,56.7627,40.5859a11.9861,11.9861,0,0,1,5.0147,10.19l-4.99,139.3066A12.0018,12.0018,0,0,1,1727.8757,2581.799Z"/><path class="cls-3" d="M2467.5894,2315.67s34.4206,27.6661,29.7769,69.6559c-5.3689,48.5472-42.5584,67.8121-42.5584,67.8121s-126.7633,69.3692-393.4194,18.1359c0,0-58.7353-80.1423,26.784-123.9435C2088.1725,2347.33,2328.6157,2419.3243,2467.5894,2315.67Z"/><g class="cls-4"><path class="cls-2" d="M2497.46,2384.378l.01.0041c-4.993,49.2313-42.68,68.7607-42.68,68.7607s-126.7416,69.3536-393.4051,18.14c0,0-44.88-61.2618.934-105.9279q.0119.4542.0289.9069c1.1655,30.8758,24.6159,56.5126,55.1253,61.3957,242.4392,38.8031,357.9614-24.39,357.9614-24.39S2486.5494,2397.5178,2497.46,2384.378Z"/></g><path class="cls-2" d="M2247.5339,2506.2326c-52.9053,0-115.85-5.1612-189.165-19.2481l-6.1719-1.1865-3.7158-5.0684c-1.27-1.7285-30.9326-42.8759-20.5567-86.709,6.05-25.5322,23.8624-46.03,52.9541-60.9326l5.7178-2.9248,6.1621,1.8408c2.3194.6836,234.4483,68.4082,365.2637-29.16l9.9316-7.4072,9.6582,7.7636c1.6846,1.3526,41.2061,33.7451,35.6592,83.8819-6.24,56.4111-49.2724,79.3164-51.1035,80.2636C2458.4861,2469.3624,2388.8865,2506.2326,2247.5339,2506.2326Zm-176.416-49.4043c252.0557,46.89,374.834-17.0948,376.06-17.7539,1.3769-.7422,29.98-16.5772,34.2871-55.5079,2.3193-20.9814-7.9395-37.6611-15.7373-47.0459-132.9785,87.8711-336.0156,38.7842-375.6348,27.9834-17.1,9.9317-27.5146,22.2754-30.9912,36.7383C2053.7351,2423.5861,2065.2244,2446.8527,2071.1179,2456.8283Z"/><path class="cls-3" d="M2425.8,3489.4987c-228.16,8.96-351.6,1.16-361.76-162.08-14.64-234.8-32.72-508.3594-32.72-508.3594l325.8-266.5205,85.84-70.2q.48,29.64.76,58.64c4.48,406.72-15.44,719.32-15.44,719.32s124.48,35.12,132.8,127.88C2567.28,3457.2589,2506.08,3486.339,2425.8,3489.4987Z"/><g class="cls-4"><path class="cls-2" d="M2443.72,2540.9792c-32.2,6.08-68.76,9.92-86.6,11.5595l85.84-70.2Q2443.44,2511.9795,2443.72,2540.9792Z"/></g><path class="cls-2" d="M2325.8005,3507.8976c-167.92,0-268.34-28.9209-277.72-179.4922-9.8877-158.7012-21.2842-333.8818-27.1973-424.18a16.001,16.001,0,1,1,31.9336-2.09c5.9131,90.3174,17.31,265.5371,27.1973,424.2773,9.0478,145.1074,112.1338,156.26,345.166,147.1,50.7178-1.9922,87.3682-14.2529,106.001-35.4492,11.1865-12.7246,15.7568-28.5693,13.9746-48.4375-7.2461-80.8691-120.0879-113.6279-121.2256-113.9453l-12.4072-3.501.7812-12.8711c.22-3.5937,21.7578-364.7754,14.6533-794.0429a15.997,15.997,0,0,1,15.7325-16.26c.0879-.0049.1806-.0049.2685-.0049a15.9969,15.9969,0,0,1,15.9912,15.7373c6.3916,386.02-10.3173,717.2022-14.0039,784.1992,33.711,12.168,124.4483,52.6465,132.085,137.8272,2.5684,28.667-4.7705,53.0322-21.8115,72.4267-24.5606,27.9395-69.0918,43.95-128.7793,46.294C2390.6638,3506.8917,2357.0505,3507.8976,2325.8005,3507.8976Z"/><path class="cls-2" d="M2032.28,2804.8291a196.8381,196.8381,0,0,1,8.8257,22.3242c2.4389,7.4854,4.6289,14.9927,6.4868,22.5269a183.8074,183.8074,0,0,1,4.5581,22.6782c.896,7.605,1.3281,15.2441.2221,22.9785a16.3524,16.3524,0,0,1-31.8872,2.2583l-.0439-.166c-2.1753-7.4951-2.81-15.0879-2.9834-22.7148a182.6686,182.6686,0,0,1,1.3574-23.01c.7886-7.6978,1.9092-15.42,3.2813-23.1665a199.3,199.3,0,0,1,5.6225-23.3667,2.4587,2.4587,0,0,1,3.0738-1.6211A2.5256,2.5256,0,0,1,2032.28,2804.8291Z"/><path class="cls-2" d="M2246.738,3098.5568a561.2806,561.2806,0,0,1-201.7529-37.7393,16.0016,16.0016,0,1,1,11.4551-29.8828c204.4384,78.3838,373.0029,1.26,374.6777.4688a15.9995,15.9995,0,0,1,13.6523,28.94C2439.9216,3062.6339,2361.9187,3098.5568,2246.738,3098.5568Z"/><path class="cls-2" d="M2426.7041,3275.2344c-12.8809-.5-26.7017-1.7432-40.0317-2.6782-13.4424-.8692-26.9068-2.07-40.4029-2.3047a345.8976,345.8976,0,0,0-40.4443,1.6089,216.4074,216.4074,0,0,0-40.23,8.5278l-.0879.0293a2.1779,2.1779,0,0,1-2.0727-3.7305c11.0864-9.4922,24.2944-16.6138,38.0444-22.1606a227.0079,227.0079,0,0,1,42.7954-11.2451,247.4668,247.4668,0,0,1,43.8721-3.2349c3.66.0073,7.3169.1831,10.9594.4712q5.4786.2965,10.9278,1.0229a142.63,142.63,0,0,1,21.9458,4.1626,15.0586,15.0586,0,0,1-4.58,29.563Z"/><g class="cls-4"><path class="cls-2" d="M2558.31,3421.1854c-13.26,45.5455-66.423,65.7261-132.4784,68.3171-228.1963,8.965-351.6172,1.1472-361.7764-162.082-14.6472-234.818-32.7217-508.3832-32.7217-508.3832s122.3,31.6278,139.3853,219.4818c5.695,62.618-31.2149,109.2519-43.354,240.0187-15.1186,162.8636,123.8413,166.525,352.0374,157.5611C2509.1454,3434.9082,2536.2775,3430.1928,2558.31,3421.1854Z"/></g><path class="cls-3" d="M2806.3709,836.0641c-.9036-6.4786-1.7654-12.6431-2.623-18.8081q-3.4938-25.1136-6.9848-50.2275-3.71-26.679-7.4218-53.3577c-.4974-3.5713-1.0635-7.1338-1.51-10.7112-.53-4.2457,1.4258-7.061,5.9414-8.5394q38.0768-12.4664,76.1649-24.8977,29.4155-9.6132,58.8309-19.227c5.8407-1.9084,9.8314.7481,10.676,6.8913,2.8961,21.0637,5.8713,42.1165,8.8,63.1757q4.1917,30.1388,8.352,60.2818c1.3607,9.8236,2.6162,19.6632,4.1136,29.4659a30.9108,30.9108,0,0,1-6.9758,25.0609c-11.0687,13.5869-25.412,20.2746-42.9538,17.2-19.24-3.3725-27.5648-20.9805-18.93-38.5159,8.7777-17.8258,31.0094-27.9838,50.1946-22.9357.3454.0908.6943.1682,1.2951.3128l-13.5514-97.4136c-6.86,2.2439-13.6162,4.4577-20.3753,6.6646q-50.1779,16.3841-100.37,32.7242c-1.7267.5606-2.1153,1.3092-1.87,3.0331q4.9487,34.8114,9.7759,69.64c2.3908,17.19,4.8306,34.3748,7.0551,51.587a27.4478,27.4478,0,0,1-4.9952,19.23c-10.4376,15.3212-24.9672,22.8486-43.5368,20.7238-20.2518-2.3174-29.9005-21.213-20.29-39.2736,7.2494-13.6231,19.0915-21.011,34.1467-23.4612A37.0916,37.0916,0,0,1,2806.3709,836.0641Z"/><path class="cls-3" d="M1078.266,2310.9877c-2.7515-5.3651-5.3711-10.47-7.9874-15.5758q-10.6577-20.8-21.313-41.6019-11.3207-22.0974-22.6429-44.194c-1.516-2.9577-3.0892-5.887-4.5632-8.8654-1.7493-3.5348-.9-6.5786,2.5819-9.2349q29.3628-22.3993,58.7462-44.7717,22.689-17.289,45.3778-34.5784c4.5052-3.4325,8.7845-2.3306,11.3829,2.7606q13.3636,26.1848,26.82,52.322,12.7893,24.9627,25.5524,49.9389c4.1638,8.1381,8.2408,16.3223,12.5172,24.4008a28.4924,28.4924,0,0,1,1.5285,23.93c-5.514,15.1836-15.9707,25.3549-32.1724,27.9987-17.7705,2.9-30.3567-9.9024-28.1589-27.7848,2.2343-18.1785,18.505-33.763,36.7356-35.1874.3282-.0257.6554-.0642,1.2222-.12-13.8054-26.9441-27.53-53.73-41.34-80.6832-5.29,4.0336-10.5,8.01-15.7143,11.9807q-38.7081,29.4794-77.4419,58.9252c-1.3329,1.0116-1.4441,1.7811-.708,3.2073q14.8652,28.8,29.63,57.6528c7.2947,14.2381,14.63,28.4563,21.7866,42.7639a25.3,25.3,0,0,1,1.484,18.2535c-4.4387,16.5019-14.8029,27.4606-31.6111,31.2429-18.3309,4.1249-32.46-9.3964-29.5721-28.0319,2.1785-14.0568,10.2458-24.079,22.6074-30.7778A34.1911,34.1911,0,0,1,1078.266,2310.9877Z"/><path class="cls-3" d="M3127.6431,914.3187c-1.1883,11.79-2.3954,23.5432-3.5538,35.3011q-6.903,70.0681-13.7987,140.1368c-.5928,5.9886-3.4195,11.0321-7.2642,15.5283-14.1859,16.59-42.9648,21.9682-62.1617,11.6452-11.8173-6.3547-17.5208-16.92-15.2736-28.8921,1.61-8.5781,6.5811-15.2543,13.5446-20.13,17.1536-12.0119,35.5228-14.5714,54.8631-5.6414,3.3554,1.5492,2.4326-.8114,2.5663-2.1631q6.4658-65.4056,12.8643-130.8179,2.7753-28.2855,5.5549-56.5705a24.2085,24.2085,0,0,1,.6746-4.129,7.7012,7.7012,0,0,1,6.3253-5.75c3.2085-.6228,6.2518.27,7.9751,3.0523,11.4052,18.4124,26.456,33.9223,39.9624,50.6636,8.2971,10.2843,15.4857,21.37,17.5755,34.7314,3.6646,23.429.3812,45.6434-12.95,65.7938a27.4709,27.4709,0,0,1-5.7525,6.5018c-1.1762.9319-2.4976,2.0607-4.0438.98s-1.01-2.785-.4837-4.1491c2.01-5.2057,4.351-10.29,6.2154-15.5445a96.99,96.99,0,0,0,5.6626-31.9582c.084-13.2182-5.2761-24.4024-13.625-34.3172C3152.7057,926.9342,3138.98,917.388,3127.6431,914.3187Z"/></svg>