<svg id="Layer_1" data-name="Layer 1" xmlns="http://www.w3.org/2000/svg" width="4000" height="4000" viewBox="0 0 4000 4000"><defs><style>.cls-1{opacity:0.35;}.cls-2{fill:#371a45;}.cls-3{fill:#f92323;}.cls-4{opacity:0.6;}.cls-5{fill:#fefefe;}.cls-6{fill:#ffdf00;}.cls-7{fill:#fa0;}.cls-8{fill:#fff;}.cls-9{fill:#e2e2e2;}.cls-10{opacity:0.5;}.cls-11{fill:#b3e5fc;}.cls-12{fill:#d329d3;}.cls-13{fill:#ff5722;}.cls-14{fill:#22a7f0;}.cls-15{opacity:0.7;}.cls-16{fill:#111a28;}</style></defs><title>clients-relax</title><g class="cls-1"><path class="cls-2" d="M2399.4232,1528.01c-252.4132-124.4027-528.0212-164.2636-776.01-112.2752-250.3983,52.4917-442.8673,192.1475-541.956,393.25-203.4042,412.7988,56.8648,958.4287,580.193,1216.2881q35.9994,17.7431,72.5762,33.1767c231.997,97.9575,479.0272,126.1424,703.4333,79.0984,250.3924-52.4941,442.8614-192.15,541.95-393.252C3183.0179,2331.5052,2922.7463,1785.8812,2399.4232,1528.01Z"/></g><path class="cls-3" d="M2971.278,2488.8354a644.6029,644.6029,0,0,1-42.4,140.32q-6.36,14.7-13.4795,29.16c-97.16,197.16-285.76,326.36-513.2,376.64-82.16,18.16-169.4,26.04-259.2,23.08-166.24-5.48-341.36-48.04-509.64-130.96-124.92-61.56-234.52-139.68-325.92-228.44-71.24-69.16-131.44-144.8-179.24-224.08-141.5206-234.88-174.16-501.8-62.8-727.8,197.16-400.16,771.16-520.52,1282-268.76C2788.7575,1695.4755,3038.5983,2119.4755,2971.278,2488.8354Z"/><g class="cls-1"><path class="cls-2" d="M2647.3484,1681.96c222.89,263.5862,298.0268,595.55,163.7565,868.0451-83.7773,170.0205-235.5825,289.5-421.6656,351.396-201.3941,66.9887-420.1744,53.7485-616.3717-27.2062q-40.4738-16.7-80.557-36.4287c-304.4643-150.0246-517.7489-398.34-598.6741-659.21-39.9057-128.64-35.0184-267.9849,21.0644-390.4407q3.6409-7.95,7.5239-15.8313c92.1713-187.0491,272.3877-317.2,507.4482-366.4775,207.4213-43.4819,435.4928-19.5181,651.6655,67.1294-4.7718-2.082-9.5215-4.268-14.3063-6.2884-222.6657-94.0174-459.2434-121.1656-673.737-76.201-235.06,49.2776-415.2769,179.4284-507.4482,366.4775-.5156,1.0477-.9828,2.1088-1.4922,3.1582a641.2972,641.2972,0,0,1,39.98-102.6656c4.1394-8.4011,8.5058-16.6315,12.9729-24.7844a641.5841,641.5841,0,0,0-72.1217,114.1118c-146.0155,296.3277-44.404,662.9825,225.5854,935.5459.2248.2274.4525.4544.6781.6822q10.5851,10.67,21.5065,21.1431c.147.1414.2926.284.4406.425q22.3549,21.4014,46.1121,41.9378c.2983.2585.6031.5131.9022.7714,4.2138,3.64,8.3664,7.3731,12.6931,10.8785,4.3232,3.5026,8.4979,6.979,12.7274,10.4332q10.7645,8.7885,21.7834,17.3933c.69.5372,1.3678,1.0834,2.0589,1.6193q24.1144,18.7278,49.4627,36.51c1.5709,1.1027,3.1549,2.1939,4.736,3.2883q10.059,6.963,20.2246,13.7729c2.2675,1.5114,4.5263,3.0266,6.8067,4.5276q11.0715,7.287,22.3539,14.39c1.115.7011,2.2095,1.42,3.3272,2.1183q13.0018,8.1243,26.2836,15.99c1.9795,1.1733,3.99,2.3169,5.9782,3.4817q10.1823,5.9633,20.5186,11.78,4.3032,2.4174,8.64,4.8038,9.6169,5.31,19.3719,10.4792c2.7481,1.4576,5.4812,2.93,8.2455,4.3719q13.6542,7.1242,27.5383,14.0057,11.8545,5.8413,23.7548,11.4132c2.5916,1.2146,5.1931,2.3645,7.7883,3.5606,5.3353,2.4577,10.6677,4.9281,16.0145,7.3069,3.2458,1.4438,6.502,2.8152,9.7521,4.23,4.7125,2.0509,9.4214,4.1272,14.1415,6.1167,3.4662,1.4609,6.94,2.849,10.4082,4.277,4.5151,1.8576,9.0275,3.74,13.5485,5.5427,3.6179,1.4422,7.242,2.812,10.8634,4.219,4.3739,1.6985,8.7446,3.421,13.1231,5.0675,3.7383,1.4049,7.4811,2.7411,11.2221,4.1087,4.2729,1.5618,8.5427,3.1475,12.8189,4.66,3.8091,1.3467,7.62,2.626,11.43,3.9333,4.2119,1.4462,8.4218,2.9133,12.6357,4.3115,3.8591,1.28,7.7206,2.4942,11.58,3.7347,4.1737,1.34,8.3459,2.7008,12.521,3.9944,3.9084,1.2126,7.8178,2.361,11.7287,3.5326,4.1157,1.232,8.2325,2.482,12.3483,3.67,3.9777,1.1476,7.9544,2.2337,11.9323,3.34,4.0528,1.1269,8.1036,2.2688,12.1553,3.3508,4.0268,1.0767,8.0524,2.0945,12.0779,3.1271,4.0017,1.0269,8.0013,2.0669,12.0017,3.0514,4.0622.9992,8.12,1.9436,12.1807,2.9,3.9629.9329,7.9261,1.8773,11.8871,2.7693,4.0965.9222,8.1914,1.7922,12.2862,2.6709,3.91.8391,7.82,1.6869,11.7281,2.485,4.15.8489,8.2959,1.6462,12.4427,2.4492,3.8453.7446,7.691,1.4964,11.5338,2.2015,4.1806.7685,8.3573,1.4882,12.5346,2.2107,3.8037.6573,7.607,1.32,11.4058,1.939,4.2288.6894,8.4514,1.3335,12.6747,1.976,3.7182.5663,7.4367,1.1343,11.15,1.6646,4.2929.6118,8.58,1.18,12.8668,1.744,3.6428.4786,7.2854.9579,10.9227,1.4019,4.329.5285,8.6507,1.0164,12.9711,1.495,3.5771.3968,7.1566.792,10.7289,1.1545,4.38.4453,8.7535.8513,13.1236,1.2454,3.4915.3144,6.9806.6261,10.4647.9086q6.6425.5391,13.2651.9887,5.1263.3567,10.2436.6765,6.6985.4059,13.3754.7231c3.34.1622,6.6777.3194,10.0106.4517q6.7734.2725,13.5242.4537,4.8636.1359,9.7184.235,6.8479.1326,13.672.1777,4.7263.0335,9.4424.03,6.9447-.01,13.864-.1075,4.5321-.0642,9.0554-.1653,7.0567-.157,14.0884-.4034,4.3578-.1535,8.7022-.3449,7.1523-.3092,14.2735-.71,4.181-.2361,8.3471-.5115,7.2564-.4692,14.4846-1.028,3.97-.3121,7.9284-.66,7.3783-.6336,14.722-1.3629c2.5115-.2519,5.015-.5221,7.5186-.7923q7.4875-.8059,14.9356-1.7079c2.3654-.29,4.7238-.6007,7.0835-.9063q7.6218-.9873,15.199-2.0754c2.2015-.3192,4.3945-.6594,6.59-.9934q7.7655-1.179,15.4866-2.4632c2.03-.3421,4.05-.7029,6.0744-1.0568q7.9023-1.3791,15.7545-2.8664c1.8674-.3583,3.7257-.7361,5.5886-1.1041q8.0635-1.5934,16.0722-3.3008c1.6441-.354,3.2777-.7282,4.9181-1.09,5.515-1.2188,11.016-2.4663,16.4859-3.7767,1.4228-.3419,2.8358-.7019,4.256-1.05,5.66-1.3851,11.3023-2.8015,16.91-4.2856,1.1706-.3106,2.3306-.6371,3.4995-.9519q8.7588-2.3543,17.4356-4.853c.8666-.2515,1.724-.5182,2.59-.7718q9.0721-2.6626,18.0523-5.4873c.56-.1771,1.1129-.3638,1.6695-.5421q9.4129-2.999,18.7164-6.18c.1793-.0612.3572-.1274.5365-.1886,182.202-62.6987,330.6876-181.0974,413.1871-348.5243C3068.8245,2346.94,2948.8432,1957.8783,2647.3484,1681.96Z"/></g><path class="cls-2" d="M2178.9343,3074.8392c-183.6572,0-373.9575-45.3418-552.6465-133.3936-250.2685-123.32-448.0273-315.7812-556.8481-541.9287-109.4532-227.4658-115.9912-461.8018-18.4058-659.8438s287.39-335.6347,534.4507-387.4267c245.62-51.4893,518.728-11.9385,768.9966,111.3867,250.2734,123.32,448.0322,315.7764,556.8506,541.9238,109.458,227.4659,115.9912,461.8018,18.4033,659.8438l-14.3506-7.07,14.3506,7.07c-97.583,198.0469-287.3877,335.6348-534.4483,387.4316A1054.6647,1054.6647,0,0,1,2178.9343,3074.8392ZM1801.886,1362.2269a1022.5261,1022.5261,0,0,0-209.8365,21.3378c-237.2241,49.7315-419.1674,181.2208-512.31,370.2491-192.9663,391.6113,58.56,911.5039,560.6933,1158.9306,243.877,120.1709,509.624,158.7989,748.2862,108.77,237.2265-49.7364,419.17-181.2256,512.3144-370.2539h0c93.1445-189.0284,86.5625-413.418-18.5351-631.8262-105.7325-219.7315-298.2764-406.9238-542.1582-527.1C2166.073,1406.4651,1980.6189,1362.2269,1801.886,1362.2269Z"/><g class="cls-4"><path class="cls-5" d="M1073.247,1787.2392c92.1713-187.0491,272.3878-317.2,507.4482-366.4775,214.4936-44.9646,451.0713-17.8164,673.737,76.201q35.25,14.8837,69.9977,31.9973c478.7437,235.9,728.2921,720.61,578.2241,1102.4052,176.0668-386.0811-73.9208-890.5324-565.4241-1132.72q-34.7187-17.1081-69.9977-31.9973c-222.6657-94.0174-459.2434-121.1656-673.737-76.201-235.06,49.2776-415.2769,179.4284-507.4482,366.4775-7.6347,15.4959-14.4883,31.2153-20.73,47.0919C1067.8786,1798.4,1070.5052,1792.8033,1073.247,1787.2392Z"/></g><g class="cls-4"><path class="cls-5" d="M2807.3728,2444.0588s-249.8351,660.0655-1150.7994,425.2549C1656.5734,2869.3137,2433.832,3049.1228,2807.3728,2444.0588Z"/></g><g class="cls-1"><path class="cls-2" d="M2858.1179,2375.3154c-79.56-304-259.6-303.36-325.24-292.12-56.96-115.48-157.04-221.56-289.44-295.96l-.0327-.0175-164.127-177.2625c-70.4-76-189.08-80.6-265.12-10.2L1687.0046,1717.487c-111.5049,37.283-202.4917,109.0383-252.7266,211.0283a389.2057,389.2057,0,0,0-22.68,57.04c-.0191.0608-.0333.1223-.0518.1831a188.2316,188.2316,0,0,0-16.9106,137.6933c.0014.0279.0009.0557.0024.0835a450.7288,450.7288,0,0,0,6.4253,57.6267c-68.46,134.8465-201.9361,213.6375-272.8652,293.4134,47.8,79.28,108,154.92,179.24,224.08,87.103-38.7705,178.0913-128.7,238.2-233.44h0q16.26,18.24,34.16,35.6c54.96,53.36,120.84,100.32,195.96,137.32a791.6364,791.6364,0,0,0,104.2,42.48c-19.88,72.92-29.12,239.6,247,346.76a342.9376,342.9376,0,0,0,16.04,30.68c89.8,2.96,177.04-4.92,259.2-23.08-4-74.92-58.68-160.12-102.64-218.56-32.08-42.64-47.8-80.16-52.16-115.64-3.76-30.4.88-59.28,10.72-88.52a152.4092,152.4092,0,0,1,43.08-64.96l74.4794-66.4c28.6407-25.52,65.88-40.2,104.28-38.96,24.32.84,47.68,7.6,72.64,21.56,23.32,13.08,48.0795,32.48,76.28,59.24,76.92,73,207.32,174.96,300,106.44l42.4-140.32C2940.6374,2423.6755,2858.1179,2375.3154,2858.1179,2375.3154Z"/></g><g class="cls-1"><path class="cls-2" d="M3030.195,974.8993c-16.119-18.9147-38.0351-27.2891-52.663-30.94-1.3111-20.6051-10.5982-32.18-19.0368-38.5107-22.9573-17.1987-59.5271-10.4375-81.54-3.94-22.0832-76.4108-71.61-100.8592-110.68-107.6268-46.9092-8.1278-94.0015,7.3408-128.4294,39.249a251.63,251.63,0,0,0-45.4085.4892,61.8109,61.8109,0,0,0-46.32,28.3239,62.7251,62.7251,0,0,0-6.5106,54.7c10.3153,29.8535,24.9625,52.04,43.55,65.9477.204.1522.445.2012.6555.34q2.6946,38.0216,17.8735,79.7275c23.0987,63.1455,74.2835,113.2184,136.9148,133.9519a239.5491,239.5491,0,0,0,75.736,12.115c69.63,0,129.5879-28.9023,164.011-49.9572,40.9273-25.0333,67.76-67.1752,71.777-112.7364C3052.6574,1017.3176,3045.9476,993.3834,3030.195,974.8993Z"/></g><path class="cls-6" d="M2603.9741,1017.5169c-16.069-43.9146-28.8444-106.2981-1.3525-165.94,26.1566-56.7454,86.117-91.6329,147.6843-80.9709,41.5236,7.191,85.3952,34.585,101.8728,112.8536,0,0,104.0691-43.3621,95.3967,34.69,0,0,80.1521,5.7251,72.9957,86.9507-3.6649,41.5964-28.3478,78.3579-63.97,100.1468-48.9644,29.95-134.1461,66.6589-225.997,36.2576C2671.84,1122.0542,2625.2445,1075.6466,2603.9741,1017.5169Z"/><path class="cls-7" d="M3012.3311,957.5424c-6.8432,36.7408-30.0656,68.7494-62.3116,88.4727-48.9642,29.95-134.1463,66.659-225.9964,36.2576-58.7638-19.45-105.36-65.8577-126.63-123.9872a312.3319,312.3319,0,0,1-10.7235-35.5386c-.7777,35.1927,7.6321,68.3352,17.3048,94.77,21.27,58.13,67.8661,104.537,126.63,123.9872,91.85,30.4014,177.0322-6.3077,225.9964-36.2576,35.6234-21.7888,60.3063-58.5506,63.97-100.1466C3022.346,984.9544,3018.742,969.4637,3012.3311,957.5424Z"/><path class="cls-8" d="M2445.4174,2241.6389l-405.2641,375.2367c-84.3038,78.0574-215.9236,72.9938-293.9811-11.31l-360.2432-389.071c-78.0574-84.3038-72.9937-215.9235,11.31-293.9809l405.2641-375.2367c84.3039-78.0575,215.9237-72.9938,293.9811,11.31l360.2432,389.071C2534.7849,2031.9617,2529.7212,2163.5815,2445.4174,2241.6389Z"/><path class="cls-2" d="M1898.8977,2688.1546a223.4593,223.4593,0,0,1-164.4654-71.7188l-360.2441-389.0722a224.0257,224.0257,0,0,1,12.18-316.5869l405.2637-375.2393a224.0286,224.0286,0,0,1,316.5918,12.1826l360.2417,389.0674c83.9257,90.64,78.4619,232.666-12.1778,316.5918h0l-405.2661,375.2344A223.1947,223.1947,0,0,1,1898.8977,2688.1546Zm44.7583-1180.2637a190.6623,190.6623,0,0,0-130.2832,51.1231l-405.2613,375.2392a192.0327,192.0327,0,0,0-10.4418,271.3721l360.2441,389.0723c71.9311,77.69,193.6719,82.3779,271.37,10.4394L2434.55,2229.9026c77.69-71.9433,82.3731-193.6816,10.4395-271.3769l-360.2466-389.0674a190.7761,190.7761,0,0,0-133.5205-61.4258Q1947.428,1507.8861,1943.656,1507.8909Zm501.7627,733.75h0Z"/><path class="cls-9" d="M842.1167,1788.1494a595.802,595.802,0,0,0-35.4565,71.853A630.0405,630.0405,0,0,0,780.614,1934.57a598.7317,598.7317,0,0,0-16.2585,76.5064,540.707,540.707,0,0,0-5.2076,77.5854,492.8667,492.8667,0,0,0,5.9742,77.4976c1.0827,6.4013,1.6467,12.91,3.1457,19.2456l3.866,19.1552c1.2219,6.4112,3.175,12.649,4.6887,19.0064,1.6052,6.3354,2.9956,12.749,5.1013,18.9551,14.7376,50.3442,35.8289,99.1723,60.1929,147.478-35.7837-40.5981-64.4092-87.93-84.7876-139.07-9.9573-25.6372-18.0762-52.1973-23.1055-79.4507-3.0127-13.54-4.31-27.3731-6.1633-41.1231-.9717-13.8427-2.0825-27.6879-1.958-41.582a453.8841,453.8841,0,0,1,7.3889-82.7685,461.7556,461.7556,0,0,1,22.5464-79.6192,443.7005,443.7005,0,0,1,36.26-73.7573C806.7749,1829.49,822.7026,1807.1484,842.1167,1788.1494Z"/><path class="cls-8" d="M1411.118,1955.282c-22.2747,340.5254-436.4441,407.062-349.9359,598.9342,117.6214,260.88,502.4168-82.1427,520.6254-368.7248"/><g class="cls-1"><path class="cls-2" d="M1581.7976,2185.4755c-17.92,282.12-391.04,618.92-514.88,380.56,48.504,40.3963,39.75-176.8305,105.2-212.0989,143.4451-77.2975,216.7325,328.0052,369.36-220.341l-130.52-176.08c.08-.76.12-1.48.16-2.24Z"/></g><path class="cls-2" d="M1189.9133,2662.9446c-63.0493.0049-113.2178-35.3955-143.3154-102.1533-46.15-102.3584,33.22-171.2207,125.122-250.957,99.4727-86.3086,212.2144-184.126,223.43-355.5957a16.001,16.001,0,1,1,31.9336,2.09c-12.0874,184.7949-135.3491,291.7432-234.3921,377.6758-97.8955,84.9365-151.5942,136.7383-116.9238,213.6328,29.4531,65.3223,77.2,92.4658,141.897,80.6934,70.6762-12.8662,154.541-72.1875,224.3359-158.6914,72.93-90.3809,118.0689-194.3213,123.84-285.1612a15.9991,15.9991,0,0,1,31.9336,2.0313c-6.1792,97.29-53.8794,207.8125-130.8691,303.2275-74.4751,92.2949-165.5054,155.874-243.5107,170.0733A186.5827,186.5827,0,0,1,1189.9133,2662.9446Z"/><path class="cls-6" d="M1197.6234,2512.5972l-12.9934,9.78a12.1694,12.1694,0,0,1-17.0412-2.4049l-220.3656-292.785a12.1693,12.1693,0,0,1,2.405-17.0411l12.9935-9.78a12.1692,12.1692,0,0,1,17.0411,2.405l220.3656,292.7849A12.1692,12.1692,0,0,1,1197.6234,2512.5972Z"/><path class="cls-2" d="M969.93,2197.92a12.1528,12.1528,0,0,1,9.7314,4.8486l220.3663,292.7881a12.1671,12.1671,0,0,1-2.4048,17.0411l-12.9932,9.78a12.167,12.167,0,0,1-17.041-2.4072L947.2229,2227.1878a12.1711,12.1711,0,0,1,2.4048-17.041l12.9931-9.78a12.1175,12.1175,0,0,1,7.31-2.4463m0-26.3379h-.0024a38.2021,38.2021,0,0,0-23.1446,7.7442l-12.9931,9.78a38.5527,38.5527,0,0,0-7.6123,53.9112l220.3686,292.7929a38.6976,38.6976,0,0,0,30.7739,15.3467,38.2016,38.2016,0,0,0,23.1348-7.7295l13.0054-9.79a38.4993,38.4993,0,0,0,7.6074-53.9209l-220.3638-292.7832a38.709,38.709,0,0,0-30.7739-15.3516Z"/><g class="cls-10"><path class="cls-8" d="M1197.9313,2504.7983,977.5657,2212.0132a12.1694,12.1694,0,0,0-17.0411-2.405l-12.9935,9.78a12.0334,12.0334,0,0,0-2.5109,2.6437,12.1273,12.1273,0,0,1,4.6081-11.8858l12.9933-9.7794a12.1694,12.1694,0,0,1,17.0413,2.4048l220.3655,292.7851a12.128,12.128,0,0,1,.1059,14.3974A12.0372,12.0372,0,0,0,1197.9313,2504.7983Z"/></g><path class="cls-11" d="M1036.1316,2410.5385l-.68-.5342,5.28-6.0259,4.6-6.56.68.5341,92.6932-105.7886c2.3722,3.7143,176.8015,172.847,239.6752,233.7656a34.4283,34.4283,0,0,1,3.1186,45.9892l-96.6993,123.19a34.4284,34.4284,0,0,1-45.414,7.8931c-74.1081-46.6065-279.8287-175.8756-284-177.2977Z"/><path class="cls-12" d="M1033.9064,2536.48c33.5227,20.49,153.8165,96.0831,201.2411,125.9084a25.4628,25.4628,0,0,0,33.585-5.8326l71.5-91.0874a25.4627,25.4627,0,0,0-2.3108-34.0093c-40.2353-38.9841-142.235-137.8826-170.1009-165.5795a9.0247,9.0247,0,0,0-13.4678.8356L1031.52,2523.1991A9.0247,9.0247,0,0,0,1033.9064,2536.48Z"/><g class="cls-4"><path class="cls-5" d="M1358.288,2601.0273a34.4279,34.4279,0,0,0-3.1182-45.989c-62.8738-60.919-237.3026-230.0514-239.6754-233.7655l-83.9574,95.819,4.5945-6.5533-.68-.5345,5.28-6.025,4.5993-6.5611.68.5345,92.6933-105.7885c2.3728,3.7142,176.8016,172.8465,239.6755,233.7656a34.428,34.428,0,0,1,3.1181,45.989l-96.6985,123.19c-.637.8108-1.3954,1.4622-2.09,2.2018Z"/></g><path class="cls-2" d="M1257.7258,2721.49a47.5,47.5,0,0,1-25.3491-7.3389c-168.457-105.9424-273.8257-171.7676-282.5244-176.499a13.1661,13.1661,0,0,1-5.2491-19.5069l78.0811-111.3623a13.1217,13.1217,0,0,1,2.8638-5.4541l4.81-5.4883,4.1895-5.9814a13.2235,13.2235,0,0,1,4.6265-4.082l89.6264-102.29a13.1685,13.1685,0,0,1,20.1978.4639c6.626,7.28,97.7759,96.1279,238.5449,232.5195a47.4953,47.4953,0,0,1,4.314,63.5791l-96.6993,123.1885A47.5034,47.5034,0,0,1,1257.7258,2721.49ZM974.2932,2521.67c23.9819,14.585,89.2993,55.2246,272.102,170.1856a21.2208,21.2208,0,0,0,28.0445-4.878l96.6992-123.1884a21.2152,21.2152,0,0,0-1.9214-28.4034c-155.1-150.2783-210.0781-204.0673-229.939-223.8964l-83.3618,95.1416a13.1642,13.1642,0,0,1-2.5317,2.2363l-1.87,2.6709a12.5775,12.5775,0,0,1-.8814,1.1181l-2.1533,2.461a13.0985,13.0985,0,0,1-1.5674,2.9785Z"/><path class="cls-8" d="M959.1934,2527.7019l182.3558-232.3128a24.0415,24.0415,0,0,0-4.0667-33.7558l-7.4218-5.8259a24.0415,24.0415,0,0,0-33.7558,4.0668L913.949,2492.187a24.0416,24.0416,0,0,0,4.0667,33.7558l7.4218,5.8258A24.0417,24.0417,0,0,0,959.1934,2527.7019Z"/><path class="cls-2" d="M940.2063,2550.0735a36.9289,36.9289,0,0,1-22.898-7.9492l-7.4219-5.8252a37.2493,37.2493,0,0,1-6.2963-52.2412l182.3559-232.3144a37.2027,37.2027,0,0,1,52.2437-6.294l7.4218,5.8252a37.2529,37.2529,0,0,1,6.2964,52.2461L969.552,2535.83a36.9841,36.9841,0,0,1-24.8194,13.97A38.1884,38.1884,0,0,1,940.2063,2550.0735Zm175.0219-286.2255a10.8557,10.8557,0,0,0-8.5644,4.1552l-182.356,232.3145a10.8737,10.8737,0,0,0,1.8384,15.2685l7.4219,5.8252a10.873,10.873,0,0,0,15.2661-1.8408h0l182.356-232.31a10.8789,10.8789,0,0,0-1.8384-15.2734l-7.4219-5.8252A10.832,10.832,0,0,0,1115.2282,2263.848Z"/><g class="cls-1"><path class="cls-2" d="M939.9206,2462.5987s36.7763,15.5162,199.4884-186.1016l2.0727,17.2038L955.0131,2531.2531l-17.6277,6.1034-28.4083-21.1628s-8.8535-11.4-4.53-16.9077S939.9206,2462.5987,939.9206,2462.5987Z"/></g><g class="cls-1"><path class="cls-2" d="M1153.385,2309.72l-81.0444,114.0232c-25.71,36.1716-12.6567,86.9171,27.4535,105.9052,84.3472,39.93,218.63,85.926,283.7529,14.1456l-.1361,22.975-110.4081,140.6548-28.1921-2.1893-285.6173-177.533,182.88-229.0856Z"/></g><g class="cls-1"><path class="cls-2" d="M945.02,2222.0315s85.8245,94.463,107.5712,66.7588l10.5718,8.2984s-41.1859,56.0987-41.565,52.9519-80.835-122.5859-80.835-122.5859Z"/></g><path class="cls-8" d="M994.7618,2553.6153s88.1753-109.39,179.9145-44.8781c84.7792,59.6173,71.9411,175.7321,35.5574,193.3812C1154.7007,2729.0565,987.5366,2716.9624,994.7618,2553.6153Z"/><g class="cls-1"><path class="cls-2" d="M1191.2134,2527.2437c7.3291,44.3481-5.636,85.0073-25.979,94.8754-35.5249,17.2315-116.6773,18.4107-168.6914-25.6787,18.302,127.1826,162.8076,135.3614,213.6914,110.6787C1244.0369,2690.72,1257.4634,2589.3555,1191.2134,2527.2437Z"/></g><path class="cls-2" d="M1151.7614,2729.3069c-35.2636,0-74.5-8.94-105.9643-29.6289-32.5879-21.4306-70.6665-64.2871-67.019-146.7724a15.981,15.981,0,0,1,3.5278-9.3311c33.7524-41.88,119.3066-105.7812,201.5747-47.9248,57.19,40.2149,73.6084,103.55,69.9048,149.4043-2.8272,35.01-16.499,61.7236-36.5674,71.46C1200.3528,2724.6976,1177.0788,2729.3069,1151.7614,2729.3069ZM1010.5725,2559.722c-1.0108,51.4258,16.7383,89.5019,52.8076,113.2177,46.5625,30.62,112.2583,28.1788,139.8706,14.7852,7.749-3.76,16.6406-20.5078,18.6377-45.249,2.9932-37.041-10.2563-88.1934-56.416-120.6543C1095.1623,2472.3733,1026.52,2541.7435,1010.5725,2559.722Z"/><path class="cls-13" d="M2625.853,806.99s-18.57-2.3458-45.3116.2437c-31.8568,3.0848-52.1116,35.3757-41.6565,65.6257,7.5569,21.8642,19.694,45.2626,38.9935,59.7038"/><path class="cls-2" d="M2577.865,948.5647a15.94,15.94,0,0,1-9.57-3.1884c-19.0381-14.2481-34.0186-36.8848-44.5313-67.2852a65.5644,65.5644,0,0,1,6.8066-57.168,64.65,64.65,0,0,1,48.4278-29.6142c28.1982-2.73,48.0273-.2979,48.8623-.1929a16,16,0,0,1-3.9942,31.75c-.5468-.0659-17.6464-2.0386-41.7822.293a32.8247,32.8247,0,0,0-24.5849,15.0512,33.7449,33.7449,0,0,0-3.4913,29.4239c8.3838,24.2407,19.6387,41.78,33.4571,52.1167a16.001,16.001,0,0,1-9.6,28.8134Z"/><path class="cls-2" d="M2801.1755,1168.7845a239.4309,239.4309,0,0,1-75.6006-12.09c-62.49-20.6836-113.5644-70.6591-136.626-133.6816-24.3652-66.5772-24.6533-126.5088-.8593-178.1323,29.81-64.67,97.6562-101.7163,164.9463-90.0391,39.0136,6.7554,88.4863,31.2183,110.4492,107.7344,21.875-6.5137,58.6133-13.4644,81.5771,3.75,8.4034,6.3012,17.6514,17.8637,18.877,38.5034,14.5556,3.5889,36.582,11.9043,52.749,30.8691,15.669,18.3936,22.3389,42.212,19.8193,70.8057-3.999,45.415-30.747,87.4316-71.5576,112.3877C2930.5749,1139.9222,2870.7019,1168.7845,2801.1755,1168.7845ZM2728.2361,784.71c-46.3184,0-90.2247,28.3154-111.084,73.5644-20.127,43.67-19.5069,95.3931,1.8457,153.7427h0c19.7363,53.9307,63.3349,96.66,116.6357,114.2969,83.5791,27.6562,161.7578-3.6084,212.6172-34.7168,32.1924-19.6875,53.2666-52.5489,56.3818-87.9,1.7383-19.7315-2.4023-35.62-12.3-47.2412-16.8359-19.751-45.61-22.3242-45.8935-22.3487a15.9974,15.9974,0,0,1-14.7656-17.7246c1.3671-12.31-.586-20.5371-5.8057-24.4531-12.7783-9.5752-47.8565-1.9092-67.5391,6.2988a16.0022,16.0022,0,0,1-21.8115-11.4746c-12.3144-58.5229-42.2412-92.2949-88.94-100.3808A113.292,113.292,0,0,0,2728.2361,784.71Z"/><g class="cls-4"><path class="cls-5" d="M2831.9986,1045.1273s61.2561-99.1681-58.2191-89.0716c0,0,77.9629,29.84,58.2191,89.0716"/></g><g class="cls-4"><path class="cls-5" d="M2948.0834,941.7809a16.567,16.567,0,0,0,11.408,5.9386c.2345.0156,19.3838,1.7124,35.5189,13.0476-.9046-1.3159-1.8382-2.61-2.87-3.8313-16.7231-19.8145-45.5226-22.36-45.8118-22.3789a16.283,16.283,0,0,1-1.6839-.3093A16.5436,16.5436,0,0,0,2948.0834,941.7809Z"/></g><g class="cls-4"><path class="cls-5" d="M2632.5875,1025.0236c-21.3055-58.2352-21.9354-109.8506-1.8574-153.3936,20.7786-45.092,64.5209-73.3066,110.6668-73.3066a112.9943,112.9943,0,0,1,19.2618,1.6518c17.7852,3.08,33.1056,9.937,45.96,20.456-15.0713-18.1073-34.7862-29.404-59.1221-33.6185a112.9943,112.9943,0,0,0-19.2618-1.6518c-46.146,0-89.8882,28.2146-110.6668,73.3066-20.078,43.543-19.4482,95.1584,1.8574,153.3936a190.832,190.832,0,0,0,50.751,75.35A190.6306,190.6306,0,0,1,2632.5875,1025.0236Z"/></g><g class="cls-4"><path class="cls-5" d="M2849.2423,900.0117a16.4479,16.4479,0,0,0,22.43,11.8c16.41-6.8415,43.5189-13.29,59.3181-9.6357-.8788-4.4969-2.6575-7.8305-5.3954-9.8831-12.6355-9.467-47.5085-1.806-67.0852,6.3563a16.3545,16.3545,0,0,1-9.3787.8909C2849.1652,899.7012,2849.2086,899.85,2849.2423,900.0117Z"/></g><path class="cls-2" d="M2769.7913,957.1753a65.258,65.258,0,0,1,14.0283-6.7481,75.01,75.01,0,0,1,15.4541-3.8012,62.7665,62.7665,0,0,1,33.4424,4.07,56.6627,56.6627,0,0,1,26.6967,24.2407c5.9644,10.5,8.9,21.8653,10.1783,32.82l.0232.1978a9.68,9.68,0,0,1,.0573,1.2573,61.0528,61.0528,0,0,1-1.0046,9.6021,83.881,83.881,0,0,1-2.0007,8.7109,76.5853,76.5853,0,0,1-7.1631,16.4331,65.5436,65.5436,0,0,1-25.8533,24.6289,74.6531,74.6531,0,0,1-32.8564,7.3633,131.0087,131.0087,0,0,1-15.9327-1.626c-5.1489-1.3159-10.1965-2.6928-15.07-4.4067,5.16-1.2256,10.1477-2.1094,15.0317-2.9321,4.8218-1.4673,9.5862-2.4121,14.0955-3.9014,8.99-3.103,17.113-7.0166,23.7487-12.1289a54.7021,54.7021,0,0,0,14.8267-18.9282c.9387-1.7578,1.5344-3.7451,2.3523-5.5762.6189-1.9385,1.2439-3.8892,1.7212-5.874a57.7407,57.7407,0,0,0,1.2427-5.9937c.332-1.8652.4736-4.3042.5481-5.3735l.0805,1.4526a81.1772,81.1772,0,0,0-6.0315-24.15,41.9169,41.9169,0,0,0-14.3335-17.644c-6.45-4.6436-14.8608-7.6563-24.0039-9.4263A143.0285,143.0285,0,0,0,2769.7913,957.1753Z"/><circle class="cls-2" cx="2678.7302" cy="883.4594" r="21.6811"/><path class="cls-9" d="M978.0017,2771.3354a241.9507,241.9507,0,0,0,8.7329,28.55c1.7359,4.6484,3.3875,9.2944,5.36,13.8354,1.82,4.5874,3.8208,9.0942,5.9485,13.5449a416.1911,416.1911,0,0,0,28.3264,51.44,473.11,473.11,0,0,0,74.8914,88.6328,576.4616,576.4616,0,0,0,92.6111,69.2675c33.1762,19.8755,68.1518,36.77,104.0771,51.565,72.2327,28.8428,148.1824,49.4116,225.7837,63.4985,77.5708,14.59,156.5234,23.35,236.2671,31.88a1160.3869,1160.3869,0,0,1-240.8484-1.0986c-80.2795-8.6231-160.1587-27.2119-236.1169-57.6343-37.7539-15.7129-74.5862-34.1113-109.115-56.521a514.5331,514.5331,0,0,1-94.6131-79.0527,428.9568,428.9568,0,0,1-69.801-101.0962c-8.6389-18.562-16.2378-37.5464-21.7041-57.1265C982.3853,2811.4771,978.3386,2791.46,978.0017,2771.3354Z"/><path class="cls-9" d="M932.5378,3004.7217a248.728,248.728,0,0,0,17.6844,35.2173,319.48,319.48,0,0,0,21.8676,32.3681c3.8282,5.2344,8.0066,10.2149,12.0533,15.2539,4.33,4.8316,8.3557,9.88,12.9333,14.4678,4.4556,4.6826,8.8428,9.4019,13.5242,13.85,2.3169,2.2437,4.5581,4.5557,6.9263,6.7407l7.2082,6.4429c38.6792,34.0674,83.0713,61.0449,130.4553,81.3965,47.3169,20.63,97.5269,34.6118,148.5633,45.3418,51.18,10.4126,103.4069,16.4453,156.1779,21.7114a705.5206,705.5206,0,0,1-159.3261-2.7734c-26.4783-3.6353-52.9212-8.3618-78.8526-15.4615-13.0676-3.1591-25.8166-7.51-38.6462-11.6064-6.427-2.0044-12.6282-4.707-18.9539-7.0337-6.3-2.4-12.6208-4.7559-18.7475-7.6147a443.3544,443.3544,0,0,1-71.283-38.55,380.6765,380.6765,0,0,1-62.59-51.5772,332.764,332.764,0,0,1-49.4348-63.916,282.6291,282.6291,0,0,1-17.948-36.0254C939.12,3030.564,934.7949,3017.832,932.5378,3004.7217Z"/><path class="cls-9" d="M3204.2444,2335.7153c8.219,16.3233,14.6008,33.5279,20.38,50.9229,5.8313,17.4023,10.3675,35.2124,14.4483,53.1763a581.6643,581.6643,0,0,1,13.21,110.0293c1.7871,74.2651-11.8237,149.8779-41.6577,219.1015-3.9429,8.55-7.6917,17.1948-11.8677,25.6275l-13.4045,24.8584c-2.1558,4.187-4.823,8.0761-7.3364,12.0507l-7.6148,11.88c-2.5647,3.94-5.0232,7.9492-7.677,11.8237l-8.4521,11.2793-8.4961,11.23c-2.8162,3.7525-5.6153,7.5147-8.79,10.9717l-18.5742,21.0791c-3.01,3.5864-6.4112,6.8018-9.7449,10.0757l-10.011,9.8c-6.7285,6.4673-13.2959,13.0835-20.6006,18.8794a589.48,589.48,0,0,1-190.5005,109.2016c61.2915-39.4116,118.761-82.5805,168.0628-133.0078,6.4526-6.0034,12.1118-12.7588,17.9248-19.3384l8.7744-9.8a129.8413,129.8413,0,0,0,8.5144-9.9975l16.1914-20.6275a125.3994,125.3994,0,0,0,7.7-10.5737l7.4011-10.7764c19.5191-28.8061,36.9483-59.0527,50.3211-91.1328,27.4878-63.7964,42.9467-132.7807,47.2436-203.2373a792.5733,792.5733,0,0,0-.7214-106.4624c-.4163-8.95-1.4649-17.8271-2.218-26.78l-3.2984-26.75c-1.1242-8.9429-2.5293-17.8565-4.11-26.7554C3207.94,2353.5083,3206.16,2344.6338,3204.2444,2335.7153Z"/><path class="cls-9" d="M2793.9685,1268.1128c-17.3389,4.39-35.2356,6.1035-53.1665,6.9775a319.5363,319.5363,0,0,1-53.9868-2.5439c-35.8923-4.5459-71.7078-15.835-103.2129-35.5371-15.6348-9.9024-30.4211-21.543-42.7466-35.53a195.93,195.93,0,0,1-30.8533-45.9961c-15.8386-33.3154-22.2461-69.9438-20.9167-105.481,7.69,34.773,18.5742,68.1568,35.8691,97.4585a226.5223,226.5223,0,0,0,30.9046,39.8633l9.0173,8.75,9.6631,8.042a204.0855,204.0855,0,0,0,20.59,14.4605c28.5071,17.9248,60.9888,29.6557,94.6411,37.3266a473.3522,473.3522,0,0,0,51.4295,8.5742C2758.5962,1266.5552,2776.1609,1267.7222,2793.9685,1268.1128Z"/><path class="cls-9" d="M3128.4021,1084.7241c-.542,2.4365.2087,4.856.6177,7.3316l1.35,7.4438c.9009,5.0049,1.4233,10.0806,1.9348,15.23a128.2872,128.2872,0,0,1-1.4819,31.3281c-3.5669,20.9424-13.8868,41.77-29.8243,57.0215a118.8224,118.8224,0,0,1-26.3549,19.0967c-4.8731,2.229-9.6,4.812-14.657,6.4331-2.5.8789-4.961,1.8677-7.4768,2.6416l-7.6087,2.0435a154.9412,154.9412,0,0,1-61.2866,2.7978c19.4373-6.24,38.2568-11.8286,55.6226-19.5972a198.0478,198.0478,0,0,0,24.7839-12.8784,136.054,136.054,0,0,0,21.2207-16.6479c12.8467-12.3389,22.2742-27.81,28.4875-45.3687a211.6826,211.6826,0,0,0,7.5867-27.5537c1.0852-4.7827,1.8775-9.6509,2.8406-14.59l1.4758-7.4732C3126.3367,1089.5752,3126.6089,1086.7212,3128.4021,1084.7241Z"/><path class="cls-9" d="M3176.3989,1195.8472c-1.0132,1.9458-.9021,4.1919-1.0949,6.3794l-.4322,6.6284c-.2917,4.4482-.8728,8.8867-1.4978,13.3667a117.999,117.999,0,0,1-7.467,26.3379,91.7286,91.7286,0,0,1-35.7166,42.8979,105.6049,105.6049,0,0,1-25.7312,11.6113,120.1894,120.1894,0,0,1-27.3169,4.4312,145.5622,145.5622,0,0,1-53.2812-7.019c17.8235-1.0279,35.1806-2.0093,51.82-5.2247a175.6331,175.6331,0,0,0,24.1552-6.4428,117.3788,117.3788,0,0,0,21.8579-10.6739c13.6866-8.53,24.75-20.6909,33.2141-35.0488a174.36,174.36,0,0,0,11.0254-22.9175c1.6687-3.999,3.12-8.1054,4.6814-12.2412l2.3755-6.2426C3173.938,1199.71,3174.59,1197.312,3176.3989,1195.8472Z"/><path class="cls-8" d="M2988.198,2538.7954c-102.5206,151.44-277.64,16.76-375.44-76.08-65.2-61.88-113.92-88.56-166.48-90.32-42.96-1.4-84.56,15-116.6006,43.56l-83.24,74.2a170.2457,170.2457,0,0,0-48.2,72.64c-23.8,70.76-20.28,139.72,46.36,228.24,81.0795,107.76,194.88,297.08,32.76,381.68-32.6006,17-62.96,16.52-90.12,6.2-82.16-31.12-135.6-152.04-135.6-152.04-404.48-156.96-261.2-428.16-261.2-428.16-209.88-241.64-404.76-664.04-404.76-664.04l474.2-422.92s63.88,36.56,154.4,95.52c0,.04,0,.04.04,0,117.8,76.72,280.68,191.28,406.64,312.44,20.08,19.24,39.2,38.72,57.04,58.2,0,0,281.2-99.72,391.04,320,0,0,116.84,68.48,136.36,155.16C3011.5573,2480.3554,3008.0378,2509.4755,2988.198,2538.7954Z"/><g class="cls-1"><path class="cls-2" d="M2988.198,2538.7954c-102.5206,151.44-277.64,16.76-375.44-76.08-65.2-61.88-113.92-88.56-166.48-90.32-42.96-1.4-84.56,15-116.6006,43.56l-83.24,74.2a170.2457,170.2457,0,0,0-48.2,72.64c-23.8,70.76-20.28,139.72,46.36,228.24,81.0795,107.76,194.88,297.08,32.76,381.68-32.6006,17-62.96,16.52-90.12,6.2,58.6-16.44,169.36-66.48,131.84-205.6-50.28-186.44-166.28-79.44-226.64-276s190.6239-439.7233,355.3922-427.6475c214.1409,15.6942,190.9677,158.1675,256.2079,226.2876,75.36,78.72,269.4,106.12,301.36-42.88C3011.5573,2480.3554,3008.0378,2509.4755,2988.198,2538.7954Z"/></g><path class="cls-2" d="M1862.5391,1507.1265c58.977,27.7978,115.2942,60.2148,170.5334,94.4311q82.6557,51.6321,161.5735,109.1333c52.3816,38.5889,103.7439,78.6548,153.2629,121.0938,49.3506,42.6587,97.1363,87.2949,141.8811,135.3369l-17.1472-4.2749c3.7647-1.2573,6.6028-2.0581,9.8145-2.898,3.1225-.8349,6.23-1.5429,9.3359-2.2241,6.2122-1.3574,12.4329-2.4145,18.6682-3.3325a299.2978,299.2978,0,0,1,37.5965-2.7734c25.1135-.0318,50.3588,2.7734,74.6936,9.4311,48.717,13.0981,93.5278,39.9121,128.5266,75.2881a368.1927,368.1927,0,0,1,47.25,57.1655c7.2522,10.0025,13.2337,20.7129,19.59,31.2134,3.3008,5.1953,5.8362,10.7544,8.7488,16.1353l8.4472,16.2768c21.16,44.021,36.8494,90.0928,49.22,136.7432l-7.3853-9.751c10.9949,6.6479,20.6885,13.3472,30.5982,20.5664q14.6941,10.7739,28.5534,22.7c18.4754,15.8887,35.8143,33.45,50.9339,53.3887,14.8486,20.0317,27.8418,42.7514,33.68,68.8794.62,3.2812,1.51,6.4892,1.87,9.8388l1.095,10.044c.1465,6.7651.3967,13.5693-.57,20.33a65.0361,65.0361,0,0,1-1.5271,10.0708c-.7629,3.3032-1.3635,6.67-2.3144,9.9121-2.1472,6.3965-4.18,12.8735-7.2644,18.7866-2.6233,6.2061-6.2671,11.6748-9.6656,17.3267-3.5424,5.4321-7.4121,10.2905-11.1254,15.4467-4.0918,4.88-8.2459,9.7412-12.6038,14.4361l-6.9714,6.726-3.4986,3.35-3.7976,3.0786-7.6636,6.0864c-2.6159,1.9556-5.4711,3.6352-8.2055,5.4517-5.38,3.789-11.4746,6.4941-17.3316,9.5458-12.157,5.1661-24.873,9.4825-37.959,11.15a157.8938,157.8938,0,0,1-38.9453.9545c-6.4611-.3735-12.6941-1.6308-19.0027-2.6074-6.1767-1.3476-12.4182-2.6-18.4265-4.38a323.2425,323.2425,0,0,1-68.22-28.6377c-42.7612-23.5644-80.896-53.12-116.8042-84.5556-8.9233-7.9248-17.7856-15.9107-26.4306-24.0991-8.6475-8.12-16.8787-15.8033-25.5494-23.3887-17.2107-15.0733-35.2014-28.9331-54.1149-40.4321-18.9808-11.2525-38.95-20.0147-59.8-23.5132a144.08,144.08,0,0,0-62.8356,2.8711,157.7527,157.7527,0,0,0-56.46,29.0088c-2.1,1.6528-4.0833,3.4521-6.1365,5.1611l-6.55,5.8276-13.1494,11.7261-26.3013,23.4546-26.3,23.4546-12.95,11.5991a149.3,149.3,0,0,0-11.2208,11.3965,151.8217,151.8217,0,0,0-31.49,55.0659c-6.8054,21.2134-11.5381,42.8149-11.731,64.4141l-.0769,8.0908.4871,8.0664c.1062,5.3931,1.2414,10.7007,1.8,16.06,1.0486,5.2978,1.9861,10.625,3.3508,15.874,1.5577,5.2124,2.6954,10.5176,4.7083,15.63,7.0972,20.6762,17.43,40.52,29.6435,59.3969,3.0164,4.7437,6.0975,9.4556,9.4947,14.0015,3.3593,4.6362,6.45,9.0918,10.1245,13.9526,7.1484,9.5215,14.0723,19.2383,20.9277,29.0064,27.135,39.26,52.1509,80.5151,70.6848,125.6836a323.3213,323.3213,0,0,1,20.6714,71.0425c1.0828,6.1718,1.615,12.5146,2.2486,18.8061.2514,6.377.791,12.7124.426,19.1748a157.9834,157.9834,0,0,1-5.3894,38.584c-3.1494,12.81-8.888,24.9487-15.4065,36.438-3.7,5.4712-7.0813,11.2183-11.46,16.13-2.1167,2.51-4.1113,5.1538-6.3525,7.5293l-6.92,6.9213-3.4912,3.4205-3.7268,3.0932-7.478,6.16c-5.16,3.7939-10.4639,7.3682-15.7776,10.8765-5.5457,3.1005-10.8142,6.3916-16.615,9.2919-6.0034,2.7295-11.8506,5.7276-18.3154,7.627-6.2281,2.39-12.8931,3.6694-19.4947,5.0732-3.3276.5762-6.7407.7886-10.111,1.1695a64.9784,64.9784,0,0,1-10.18.3686c-6.8262.188-13.5547-.8349-20.26-1.7529l-9.8535-2.2314c-3.2886-.74-6.3733-1.99-9.563-2.981-25.2918-8.7793-46.3806-24.28-64.59-41.3135-18.0848-17.2973-33.5535-36.5234-47.2327-56.6894q-10.2851-15.1209-19.2957-30.9571c-6.0412-10.6689-11.5918-21.062-16.9421-32.7441l8.8452,8.45c-44.9695-17.6294-88.9795-38.5693-130.199-64.9219l-15.1489-10.3955c-5.0146-3.5205-10.1965-6.7773-14.9548-10.7007-9.6851-7.5781-19.5313-14.934-28.562-23.4082-4.5264-4.209-9.4092-7.9883-13.6316-12.5561l-13.0237-13.2788c-4.3054-4.4605-8.1592-9.39-12.2522-14.07-2.0032-2.3828-4.0662-4.7119-6.0169-7.1411l-5.5566-7.5464c-30.2112-39.7338-50.1807-88.3032-55.2612-138.5839a292.2878,292.2878,0,0,1,2.51-75.2564,315.7077,315.7077,0,0,1,8.58-36.6675c1.84-6.0156,3.833-11.9922,6.1-17.9174,1.1218-2.9639,2.301-5.9229,3.58-8.877,1.3062-3.042,2.511-5.7324,4.2859-9.2358l2.0667,17.9638q-38.8752-44.978-74.281-92.4121c-23.8452-31.438-46.4-63.7646-68.0921-96.6089q-32.2009-49.486-60.7531-101.1108c-18.8636-34.4849-36.4588-69.668-51.438-106.1792a5.3746,5.3746,0,0,1,9.2907-5.2393c23.4644,31.6016,45.2625,63.9942,66.9287,96.4014l64.5484,97.251q32.1514,48.6034,66.0791,95.8471c22.83,31.316,46.56,61.9483,71.8774,91.0669a15.9883,15.9883,0,0,1,2.2412,17.6294l-.1745.3369c-.8985,1.7969-2.1607,4.5093-3.1812,6.9288-1.0815,2.4951-2.0984,5.0488-3.0786,7.6391-1.9763,5.1636-3.74,10.4566-5.3735,15.7935a283.8909,283.8909,0,0,0-7.6416,32.6513,260.3078,260.3078,0,0,0-2.2412,66.7334c4.5446,44.3311,21.886,86.919,49.1223,122.771l4.989,6.8067c1.7664,2.1948,3.6511,4.3066,5.4687,6.4648,3.7317,4.2456,7.1814,8.7158,11.1268,12.7905l11.9213,12.1485c3.8282,4.1846,8.4034,7.6782,12.5623,11.5576,8.2886,7.8174,17.5037,14.6606,26.5088,21.7285,4.4018,3.6548,9.3054,6.7114,14.0051,10.0147l14.2127,9.768c38.8623,24.8438,81.007,44.961,124.4348,61.9825a16.069,16.069,0,0,1,8.761,8.2617l.0854.188c4.4336,9.68,9.9133,20.0537,15.4651,29.8144,5.62,9.856,11.6187,19.4971,17.9749,28.8379,12.6745,18.7085,26.8786,36.2451,42.7709,51.44,15.9583,14.9707,33.7916,27.7,53.0835,34.3164a84.7465,84.7465,0,0,0,29.3641,5.1929,40.5582,40.5582,0,0,0,7.4023-.2637c2.4573-.3076,4.9353-.4028,7.384-.83,4.8706-1.1158,9.7925-1.941,14.55-3.8306,4.8657-1.3525,9.4727-3.811,14.1785-5.896,4.7-2.3389,9.4116-5.3027,14.132-7.8979,4.4617-2.9786,8.9222-5.9742,13.2251-9.1138l6.1121-5.0562,3.0676-2.5122,2.782-2.7612,5.553-5.5249c1.7908-1.8872,3.3057-3.9795,4.9853-5.9448,3.512-3.8428,6.01-8.34,8.9515-12.5464,4.9646-8.9307,9.497-18.1787,11.9189-28.2617a125.9625,125.9625,0,0,0,4.2932-31.0181c.3381-5.2832-.17-10.6787-.3467-16.0352-.5676-5.3784-.9851-10.7739-1.9433-16.167a291.7376,291.7376,0,0,0-18.6988-63.97c-17.1533-41.875-41.0668-81.5429-67.3254-119.4946-6.6406-9.458-13.35-18.8794-20.3076-28.147-3.4107-4.5068-7.0435-9.685-10.5713-14.5654-3.63-4.8755-6.9861-9.9878-10.2783-15.1563-13.2776-20.5395-24.8767-42.6318-33.0445-66.4209-2.2656-5.8471-3.6718-12.0483-5.4406-18.0981-1.5845-6.1108-2.7185-12.3755-3.916-18.5913-.7142-6.3135-1.96-12.5708-2.1375-18.94l-.5566-9.524.072-9.5263c.2673-25.4737,5.7776-50.3052,13.313-73.74a183.9763,183.9763,0,0,1,37.9907-66.3794,180.3967,180.3967,0,0,1,13.49-13.7011l13.2959-11.9141,26.3-23.4546,26.3-23.4521,13.1506-11.7286,6.6138-5.8837c2.4487-2.0606,4.8328-4.1968,7.345-6.1792a189.7547,189.7547,0,0,1,68.0639-34.9244,176.2083,176.2083,0,0,1,76.8152-3.5107c25.62,4.3335,49.3762,14.9146,70.697,27.583,21.25,12.9126,40.5738,27.9077,58.7012,43.7671,9.0161,7.8784,17.9578,16.23,26.4355,24.1919,8.4131,7.9687,17.0069,15.71,25.647,23.3862,34.7095,30.4151,71.3916,58.6939,111.0364,80.51a291.624,291.624,0,0,0,61.4221,25.8716c5.2478,1.5673,10.56,2.5976,15.84,3.7744,5.3015.7861,10.6018,1.9067,15.89,2.1728a126.0416,126.0416,0,0,0,31.3061-.7275c10.2942-1.2549,19.9976-4.7046,29.4348-8.6182,4.5166-2.4438,9.2676-4.4116,13.4863-7.4634,2.1448-1.4453,4.3958-2.71,6.4747-4.2749l6.1218-4.8877,3.06-2.4487,2.8467-2.7612,5.719-5.4956c3.61-3.916,7.0947-8.0054,10.5627-12.1,3.1177-4.3921,6.5979-8.7354,9.4592-13.1372,2.6062-4.4385,5.575-8.7354,7.4732-13.4131,2.4194-4.5117,3.8012-9.3067,5.4638-14.0186.7044-2.3852,1.08-4.8364,1.6663-7.2412a40.4041,40.4041,0,0,0,1.1072-7.3242,84.7078,84.7078,0,0,0-1.81-29.7656c-4.3738-19.9195-14.9866-39.0894-28.0384-56.65-13.2861-17.522-29.0856-33.6328-46.228-48.357-8.5559-7.38-17.45-14.4384-26.6-21.1474-9.0637-6.626-18.7464-13.2544-27.8577-18.7622l-.1428-.0879a16.1619,16.1619,0,0,1-7.2437-9.6655c-11.9543-45.0879-27.0556-89.2749-47.0532-130.8765l-7.9614-15.3174c-2.738-5.0513-5.1221-10.332-8.2117-15.1562-5.9472-9.7925-11.5283-19.8536-18.2495-29.0747a336.4046,336.4046,0,0,0-43.2812-52.417c-31.7579-32.0948-71.3416-55.5371-114.3287-67.1656-21.4831-5.896-43.8537-8.3545-66.1694-8.3471a267.7026,267.7026,0,0,0-33.3642,2.456c-5.5054.8154-10.99,1.7432-16.3746,2.92-2.69.5933-5.3686,1.2012-7.98,1.9019-2.533.6421-5.3967,1.499-7.2632,2.1094l-.2612.0854a16.2051,16.2051,0,0,1-16.8884-4.36c-43.4729-46.7481-90.7727-90.1563-139.6582-131.7578-24.8829-20.33-49.5826-40.8545-75.2271-60.293-25.1294-20.0488-51.1963-38.9673-76.969-58.2276-51.92-38.0834-104.7558-74.9707-157.8418-111.5991-53.0713-36.6357-106.3843-73.12-159.2541-110.4712l-.0684-.0488a5.349,5.349,0,0,1,5.3687-9.2065Z"/><path class="cls-8" d="M1882.3417,2352.3574c-28.5993,53.3343-98.3754,105.2041-148.4539,137.5521a63.5515,63.5515,0,0,1-88.744-20.3806h0a63.5351,63.5351,0,0,1,15.8857-83.752c44.2158-33.4117,108.8263-85.5848,141.7909-128.1847"/><g class="cls-1"><path class="cls-2" d="M1882.3461,2352.3412c-28.5914,53.37-98.3961,105.2074-148.4417,137.5831a63.67,63.67,0,0,1-96.62-40.0708,63.4222,63.4222,0,0,0,58.8985-5.27c50.0015-32.2739,119.6607-84.0543,148.3466-137.311Z"/></g><path class="cls-2" d="M1699.6472,2516.094a80.4481,80.4481,0,0,1-17.9273-2.0361,79.61,79.61,0,0,1-30.3369-141.0449c65.0537-49.16,114.3409-93.6279,138.7842-125.21,5.105-6.6015,20.564-19.6191,53.8306,1.9532,33.3691,21.6406,73.1128,71.621,52.4463,110.1611v.0049c-29.8658,55.6933-100.1636,108.7353-153.8745,143.4277A78.8513,78.8513,0,0,1,1699.6472,2516.094Zm113.6914-245.9912c-34.0039,42.7149-96.0815,93.2373-142.6636,128.4375a47.5921,47.5921,0,0,0,54.5313,77.93c71.4526-46.1523,122.251-92.915,143.0346-131.6748,5.6788-10.5859-3.1811-26.7724-7.2534-33.2422C1845.8166,2287.4612,1822.2009,2272.11,1813.3386,2270.1028Zm69.0039,82.2559h0Z"/><path class="cls-8" d="M2212.1827,2077.9408c57.647-18.42,121.3447-77.5955,162.263-120.9538a63.5514,63.5514,0,0,0-3.8966-90.9708h0a63.5351,63.5351,0,0,0-85.2444.3848c-40.8977,37.4-103.9539,91.4412-151.84,116.1061"/><g class="cls-1"><path class="cls-2" d="M2374.45,1957.0121c-40.94,43.321-104.6106,102.531-162.2916,120.9364l-37.7849-45.8028c57.5863-18.52,121.1746-77.5967,162.0067-120.8924a63.26,63.26,0,0,0,15.94-56.6723,63.5719,63.5719,0,0,1,22.13,102.4311Z"/></g><path class="cls-2" d="M2202.5525,2095.4446c-36.543,0-70.8374-41.3916-84.28-73.8672-15.1636-36.6357.4492-49.4775,7.8662-53.2959,35.4956-18.2812,88.186-58.6572,148.3716-113.6865a79.59,79.59,0,0,1,111.5722,113.374c-43.8867,46.504-108.8379,105.9815-169.0332,125.21A47.3651,47.3651,0,0,1,2202.5525,2095.4446Zm-58.6963-100.3222c.3564,9.082,11.1572,35.0976,32.09,54.3994,5.6153,5.1806,19.9121,16.8115,31.3672,13.1787h0c41.89-13.3887,97.1143-54.8291,155.4981-116.6943a47.591,47.591,0,0,0-66.7041-67.7979C2253.0114,1917.6126,2192.03,1969.4681,2143.8562,1995.1224Z"/><path class="cls-8" d="M2123.5824,1937.5474l126.7931,152.4017a67.0973,67.0973,0,0,1-8.6406,94.2027L1961.064,2417.6605a67.0869,67.0869,0,0,1-94.1647-8.6722l-126.793-152.4018a67.0442,67.0442,0,0,1,8.6342-94.1329l280.6709-233.5087a67.0359,67.0359,0,0,1,94.171,8.6025Z"/><path class="cls-2" d="M1918.38,2449.0677a82.7289,82.7289,0,0,1-63.7646-29.8291l-126.8091-152.4219a83.0477,83.0477,0,0,1,10.7031-116.6846l280.6787-233.5107a83.0536,83.0536,0,0,1,116.6846,10.6982l126.8066,152.4219a83.0531,83.0531,0,0,1-10.6982,116.6846L1971.3,2429.9417A82.4648,82.4648,0,0,1,1918.38,2449.0677Zm153.6475-519.5362a50.3369,50.3369,0,0,0-32.3731,11.6895l-280.6811,233.5107a51.0506,51.0506,0,0,0-6.5674,71.6163L1879.2151,2398.77a50.91,50.91,0,0,0,71.6211,6.5723l280.6762-233.5156h0a51.0446,51.0446,0,0,0,6.5674-71.6162l-126.8091-152.4219a50.4779,50.4779,0,0,0-34.4555-18.0371C2075.2136,1929.6048,2073.6145,1929.5315,2072.0276,1929.5315Z"/><circle class="cls-14" cx="2094.6764" cy="2090.5559" r="57.6556" transform="matrix(0.0536, -0.9986, 0.9986, 0.0536, -105.1426, 4070.1745)"/><g class="cls-1"><path class="cls-2" d="M2262.319,2111.43a67.1714,67.1714,0,0,1-20.586,72.7379l-280.6792,233.4766a67.0672,67.0672,0,0,1-94.1554-8.6505l-47.4112-57.0173c92.5339-5.1155,240.63-77.895,271.4051-203.9074a57.3715,57.3715,0,0,1-40.5486-20.6693,56.4859,56.4859,0,0,1-10.3138-18.5484,57.5734,57.5734,0,0,0,58.0571-1.2476,94.8837,94.8837,0,0,0-12.8918-56.6019c-34.4768-58.3482-12.1439-144.1448,29.4443-200.7464a83.4965,83.4965,0,0,0,4.4081-91.91c-15.72-26.6164-37.3462-57.9325-63.713-83.0517l-228.7771-98.8554s83.0105,0,186.8563,13.7241c0,.0416,0,.0416.0416,0,122.4773,79.7665,291.8246,198.8751,422.7861,324.8462C2427.342,2009.4554,2364.8347,2095.169,2262.319,2111.43Z"/></g><path class="cls-2" d="M2094.7986,2160.22q-3.23,0-6.4844-.2978a69.4551,69.4551,0,1,1,6.4844.2978Zm-.2027-115.3222a45.6594,45.6594,0,1,0,35.1782,16.46h-.0024a45.3462,45.3462,0,0,0-30.9253-16.2646Q2096.715,2044.8953,2094.5959,2044.8978Z"/><path class="cls-2" d="M2075.2429,2334.6585a11.9854,11.9854,0,0,1-9.2334-4.3262l-86.5845-104.0771-85.31,4.1553a11.9441,11.9441,0,0,1-9.8072-4.3116l-86.7529-104.2724a12,12,0,0,1,18.4473-15.3516l82.9248,99.6729,85.31-4.1553a11.9253,11.9253,0,0,1,9.81,4.3115l90.415,108.6768a12.0036,12.0036,0,0,1-9.2187,19.6777Z"/><path class="cls-8" d="M2253.4777,2102.9555c-200.96-11.4-147.6-219.04-61.76-287.56l-2.3194-1.6-116.4-80.08-1.56-1.2-188.88-146.44s388.84,0,523.84,142.16C2536.5979,1865.3154,2457.8376,2114.5153,2253.4777,2102.9555Z"/><g class="cls-1"><path class="cls-2" d="M2245.7175,1749.1154c-14.96,34.48-37.84,53.96-56.3194,64.68l-116.4-80.08-1.56-1.2c27.84,5.2,66.6,12.84,90.92,19.4C2205.7575,1763.6354,2244.0378,1749.7155,2245.7175,1749.1154Z"/></g><g class="cls-1"><path class="cls-2" d="M2253.4777,2102.9555c-78.92-4.48-118.6-39.2-132.48-83.88,21.76,23.32,56.68,39.32,108.52,42.24,174.84,9.88,257.76-171.08,196.52-309.4C2527.5178,1892.0353,2446.5578,2113.8754,2253.4777,2102.9555Z"/></g><path class="cls-2" d="M1882.54,1580.7593c15.5273-3.8623,30.9875-5.4932,46.4978-6.5552a428.7108,428.7108,0,0,1,46.4245-.227,808.088,808.088,0,0,1,92.3182,9.1235c61.1523,9.4971,122.2876,20.935,181.92,40.0024,29.7754,9.5533,59.19,20.9571,87.395,35.6592,28.1312,14.7,55.2747,32.6831,78.4876,56.1035,3.0615,2.7588,5.5469,6.0132,8.3142,9.0259,2.644,3.1152,5.5322,6.03,7.9614,9.3262,4.91,6.5454,10.0476,12.93,14.2774,19.9536,9.1015,13.6206,16.31,28.4228,22.4267,43.5718,6.1377,15.188,10.2173,31.0815,13.418,47.0874a275.6155,275.6155,0,0,1,3.9734,48.74,252.3936,252.3936,0,0,1-20.0794,95.3418c-12.8747,30.0977-32.1618,57.8662-57.1618,79.6973a196.0593,196.0593,0,0,1-41.012,27.9931,99.0241,99.0241,0,0,1-11.217,5.3833l-11.4807,4.8047c-7.9029,2.4487-15.6641,5.5-23.7818,7.085-16.029,4.248-32.5049,5.5786-48.8476,6.3916-16.3965-.11-32.5171-.7056-48.6939-3.6524-8.103-1.0522-16.15-3.3447-24.2016-5.2881-7.9615-2.6538-15.9888-5.0708-23.689-8.8476-15.4663-7.0313-30.2576-16.8677-42.334-29.7607a122.1934,122.1934,0,0,1-26.72-44.9756,153.9061,153.9061,0,0,1-7.6233-50.41c.41-33.6157,9.3287-65.769,23.1629-95.2222,14.115-29.3359,33.103-56.6235,59.4226-78.2934l.9167,25.8081c-19.8925-13.4546-40.59-25.7422-59.7985-40.19a351.531,351.531,0,0,1-28.003-22.854c-4.4555-4.1163-8.822-8.3619-12.95-12.9541a132.6686,132.6686,0,0,1-11.8872-14.502,5.6945,5.6945,0,0,1,6.0437-8.7866,132.53,132.53,0,0,1,17.7942,5.9106c5.7654,2.2119,11.2939,4.7681,16.7309,7.4561a352.0545,352.0545,0,0,1,31.3611,17.9712c20.3662,12.7685,39.2456,27.6977,58.927,41.46l.0659.044a16.1108,16.1108,0,0,1,3.97,22.4341,16.6612,16.6612,0,0,1-3.1177,3.33c-21.2756,17.0752-38.2446,41.2012-50.56,66.875-12.18,25.82-19.7925,54.087-20.0781,81.7627-.3711,27.6026,7.7063,54.4263,25.675,73.2373a101.6815,101.6815,0,0,0,32.3071,22.5586c6.045,3.0249,12.7381,4.9707,19.2615,7.2046,6.8323,1.5869,13.5132,3.584,20.6189,4.4727,13.9612,2.5927,28.5462,3.0859,42.72,3.22,14.1651-.7642,28.39-1.8359,41.9934-5.5005,6.9471-1.3013,13.4607-3.9746,20.1844-5.9863l9.6826-4.0723a76.3183,76.3183,0,0,0,9.4543-4.541,164.0537,164.0537,0,0,0,34.5874-23.6084c21.1377-18.4424,37.7088-42.1753,48.8684-68.2666a220.4266,220.4266,0,0,0,17.4927-83.1665,243.7632,243.7632,0,0,0-3.4692-42.6294c-2.8333-13.9673-6.3477-27.8467-11.709-41.06-5.343-13.1787-11.57-26.0644-19.5081-37.8882-3.6474-6.123-8.164-11.6479-12.4072-17.3584-2.0972-2.8808-4.65-5.3955-6.9433-8.1152-2.4122-2.6123-4.5606-5.5029-7.2217-7.8491-19.9292-20.11-44.3164-36.4917-70.354-50.0757-26.0877-13.6108-53.9417-24.4556-82.4207-33.5864-57.063-18.12-116.5722-30.12-176.6418-37.0972l-90.2722-9.9658c-30.1392-3.2373-60.2613-7.2559-90.47-15.083l-.0513-.0122a5.4965,5.4965,0,0,1,.0513-10.6543Z"/><path class="cls-2" d="M2182.9932,1801.9727c.9509-1.2134,2.7588-2.8638,4.23-4.336l4.77-4.4971c3.1775-3.0322,6.41-6.018,9.6631-9.0039,6.3989-6.062,12.9663-12.0507,19.0088-18.6621a160.0687,160.0687,0,0,0,16.7419-21.4135c5.4383-7.6441,9.2884-16.1573,13.7928-25.2808l.09-.1831a2.3586,2.3586,0,0,1,3.1616-1.0718,2.3832,2.3832,0,0,1,1.29,1.77,90.3759,90.3759,0,0,1-.5628,31.6529,114.3355,114.3355,0,0,1-10.5554,30.5932,119.8115,119.8115,0,0,1-18.1164,26.919,98.6389,98.6389,0,0,1-11.8128,11.1157,78.3865,78.3865,0,0,1-6.6028,4.8462,69.664,69.664,0,0,1-7.6367,4.3652,15.9217,15.9217,0,0,1-19.613-24.08Z"/><path class="cls-8" d="M1982.1781,1247.5783h0a12.1411,12.1411,0,0,1-17.1346-1.1042L1734.1665,983.7929a12.1412,12.1412,0,0,1,1.1042-17.1347h0a127.3741,127.3741,0,0,1,179.7612,11.5837l78.73,89.5753A127.374,127.374,0,0,1,1982.1781,1247.5783Z"/><path class="cls-2" d="M1974.1858,1253.4769c-.33,0-.6592-.01-.9888-.0342a14.9352,14.9352,0,0,1-10.3125-5.0684L1732.008,985.6937a15.0161,15.0161,0,0,1,1.3648-21.1915,130.2512,130.2512,0,0,1,183.8183,11.8409l78.7281,89.5752a130.2481,130.2481,0,0,1-11.8433,183.8183A14.89,14.89,0,0,1,1974.1858,1253.4769ZM1819.1833,937.8274a123.5664,123.5664,0,0,0-82.0166,30.9913,9.266,9.266,0,0,0-.84,13.081l230.874,262.6758a9.2732,9.2732,0,0,0,13.0811.8447h0a124.502,124.502,0,0,0,11.3208-175.7031l-78.7281-89.5752a123.6864,123.6864,0,0,0-85.51-42.0508C1824.63,937.9105,1821.8982,937.8274,1819.1833,937.8274Z"/><g class="cls-1"><path class="cls-2" d="M1956.8436,1025.814l36.9341,42.0034a127.4306,127.4306,0,0,1-11.5889,179.7844,12.1681,12.1681,0,0,1-17.1534-1.1224l-61.3984-69.81a12.1637,12.1637,0,0,0,13.0526-1.8825l6.2139-5.4927A127.2734,127.2734,0,0,0,1956.8436,1025.814Z"/></g><path class="cls-2" d="M1974.2053,1266.6019q-.9266,0-1.853-.0586a27.98,27.98,0,0,1-19.3262-9.502L1722.1472,994.3558a28.1384,28.1384,0,0,1,2.5635-39.7168A143.37,143.37,0,0,1,1927.05,967.681l78.73,89.5752a143.3758,143.3758,0,0,1-13.0371,202.3388A27.9241,27.9241,0,0,1,1974.2053,1266.6019Zm-225.43-290.4248,225.6958,256.7871a111.3811,111.3811,0,0,0,7.273-154.585l-78.7305-89.5752a111.3763,111.3763,0,0,0-154.2383-12.6269Z"/><path class="cls-8" d="M868.2211,1728.7286h0a12.1411,12.1411,0,0,1,17.1346,1.1041l230.8769,262.6814a12.1411,12.1411,0,0,1-1.1042,17.1346h0a127.374,127.374,0,0,1-179.7612-11.5837l-78.73-89.5752A127.374,127.374,0,0,1,868.2211,1728.7286Z"/><path class="cls-2" d="M1031.1169,2044.1653a129.9435,129.9435,0,0,1-97.9077-44.1992l-78.73-89.5752c-47.4121-53.95-42.0971-136.4062,11.8457-183.8183a15.0847,15.0847,0,0,1,10.8765-3.711,14.9122,14.9122,0,0,1,10.3149,5.0781L1118.39,1990.6155a15.0107,15.0107,0,0,1-1.3648,21.1914A129.706,129.706,0,0,1,1031.1169,2044.1653ZM876.2243,1728.5794a9.2066,9.2066,0,0,0-6.1059,2.31h0a124.6424,124.6424,0,0,0-11.3233,175.7031l78.7305,89.5752a124.6372,124.6372,0,0,0,175.7056,11.3232,9.2645,9.2645,0,0,0,.8423-13.0761L883.197,1731.7337a9.2173,9.2173,0,0,0-6.3647-3.1348C876.63,1728.5892,876.427,1728.5794,876.2243,1728.5794Zm-8.0029.1514h0Z"/><g class="cls-1"><path class="cls-2" d="M1052.2038,1919.6225l64.0412,72.88a12.17,12.17,0,0,1-1.1217,17.1539,127.3209,127.3209,0,0,1-179.7317-11.5838L902.2149,1960.33a127.4213,127.4213,0,0,0,136.5451-20.412l9.5845-8.427A12.2807,12.2807,0,0,0,1052.2038,1919.6225Z"/></g><path class="cls-2" d="M1031.1242,2057.2855a143.04,143.04,0,0,1-107.7734-48.6573l-78.73-89.5752c-52.19-59.38-46.34-150.1513,13.04-202.3388h0a28.1379,28.1379,0,0,1,39.7168,2.5586l230.874,262.6806a28.14,28.14,0,0,1-2.5561,39.7119A142.8164,142.8164,0,0,1,1031.1242,2057.2855Zm-155.1953-313.94a111.5164,111.5164,0,0,0-7.2729,154.585l78.728,89.5752a111.5166,111.5166,0,0,0,154.2383,12.622Zm-7.7075-14.6142h0Z"/><circle class="cls-8" cx="1425.2542" cy="1488.1055" r="595.9549"/><path class="cls-2" d="M1425.9582,2086.7044c-180.8813,0-359.7314-81.3965-477.4-236.167-199.8437-262.8516-148.5864-639.2822,114.2627-839.1309C1325.68,811.56,1702.1081,862.82,1901.9494,1125.6741c96.8116,127.3291,138.24,284.7412,116.6578,443.2324-21.5821,158.4864-103.5914,299.087-230.92,395.8985A595.8483,595.8483,0,0,1,1425.9582,2086.7044Zm-1.4013-1191.45a590.0074,590.0074,0,0,0-358.2544,120.7324c-260.3272,197.9248-311.0938,570.7422-113.169,831.0742,197.9248,260.3272,570.7422,311.0938,831.0718,113.1641,126.1084-95.8789,207.3315-235.1269,228.7061-392.0947,21.3745-156.9727-19.6583-312.8711-115.5372-438.98h0C1780.8459,975.8841,1603.68,895.2542,1424.5569,895.2542Z"/><g class="cls-1"><path class="cls-2" d="M1845.1871,1065.2a592.2741,592.2741,0,0,1,54.4887,62.2117c199.1629,262.0285,148.2578,635.9013-113.7237,835.1239-262.028,199.1639-635.9,148.2579-835.1234-113.723-5.7332-7.5308-11.2915-15.2051-16.5765-22.9051,207.5646,206.6209,540.9007,233.7668,780.6346,51.5109C1969.3372,1683.9294,2024.6537,1325.7364,1845.1871,1065.2Z"/></g><path class="cls-2" d="M1425.9729,2099.8245c-184.8438,0-367.6148-83.1836-487.8638-241.3428-204.2236-268.6132-151.8408-653.2959,116.77-857.5195,268.6133-204.2285,653.2959-151.8408,857.52,116.7676,98.9306,130.1221,141.27,290.9814,119.2138,452.9443-22.0532,161.9678-105.8618,305.6446-235.9839,404.58A608.8921,608.8921,0,0,1,1425.9729,2099.8245Zm-1.399-1191.45a576.9591,576.9591,0,0,0-350.33,118.0615c-254.563,193.545-304.2066,558.11-110.6617,812.6807,193.55,254.5654,558.1177,304.2139,812.6807,110.6592,123.3154-93.7549,202.7417-229.9219,223.6426-383.418s-19.2212-305.9424-112.981-429.2627C1772.9748,987.222,1599.7326,908.3743,1424.5739,908.3743Z"/><path class="cls-2" d="M1907.41,1140.752c71.9763,91.758,109.0135,200.3105,113.361,310.7529,3.2593,82.799-81.1919,298.4266-273.6851,452.2353-178.4825,142.6136-417.204,175.064-496.8443,152.1795-106.2293-30.5248-202.8379-92.3487-274.8142-184.1067-190.47-242.8184-60.8106-507.1256,196.56-709.0112S1716.94,897.9336,1907.41,1140.752Z"/><path class="cls-2" d="M1311.8005,2078.6087c-27.019,0-49.5483-2.5928-65.979-7.3145-113.3838-32.5781-211.2378-98.1445-282.9809-189.6093-93.55-119.253-117.8541-248.7256-72.2437-384.81,39.7656-118.6475,133.6548-238.52,271.5161-346.66s276.6455-170.7812,401.3477-181.1474c143.0444-11.87,262.9907,42.5537,356.5381,161.8115h0c71.7456,91.4648,112.1215,202.1143,116.76,319.9951,3.2178,81.7725-75.5176,302.2266-279.6851,465.3662C1608.3166,2035.1028,1422.4792,2078.6087,1311.8005,2078.6087Zm290.22-1079.585c-169.4091,0-334.9878,109.5606-420.1562,176.3672-132.9273,104.2725-223.1543,218.9551-260.9253,331.65-41.9751,125.2393-19.4067,244.6436,67.0776,354.8975,67.566,86.1328,159.7705,147.8955,266.6431,178.6035,75.8643,21.8017,308.4277-10.2637,482.439-149.3018,192.8515-154.0967,270.5883-365.3467,267.6831-439.1064-4.37-111.1133-42.3951-215.3711-109.9585-301.5088h0C1806.9153,1038.56,1703.7707,999.0237,1602.02,999.0237Z"/><g class="cls-15"><ellipse class="cls-8" cx="1730.0854" cy="1226.5649" rx="76.4221" ry="105.4652" transform="translate(-372.5654 949.9486) rotate(-27.8406)"/></g><g class="cls-15"><ellipse class="cls-8" cx="1785.3661" cy="1448.7235" rx="41.5412" ry="48.4077" transform="matrix(0.9403, -0.3403, 0.3403, 0.9403, -386.4827, 694.1346)"/></g><g class="cls-1"><path class="cls-16" d="M1639.0857,985.3179c99.6062,9.674,191.7955,57.91,268.3078,155.4244,71.9919,91.7759,109.0066,200.3369,113.3907,310.7532,3.2472,82.8077-81.2222,298.4425-273.696,452.2677-67.9522,54.3269-144.6364,92.6367-217.9952,118.0009,232.5663-194.1309,334.7739-457.647,330.7243-560.3357-5.5122-140.1756-52.5354-277.9586-143.8837-394.3788A603.332,603.332,0,0,0,1639.0857,985.3179Z"/></g><path class="cls-2" d="M848.1286,1653.2181c-.2465,0-.4907-.0049-.74-.02a15.9991,15.9991,0,0,1-15.2661-15.4638c-12.5025-185.61,92.8442-380.3174,289.0942-534.2676,194.8657-152.8467,407.18-211.06,582.6807-159.81a16.0033,16.0033,0,0,1-3.5913,31.5967c-.4834,0-1.0742-.0293-1.5552-.0732a15.9571,15.9571,0,0,1-3.0664-.5811c-165.6226-48.7353-367.8027,7.4316-554.7168,154.043-187.9468,147.4365-288.8672,332.3681-276.8872,507.3779.0268.3662.039.7275.039,1.0938,0,.2441-.01.5859-.02.83A16.0027,16.0027,0,0,1,848.1286,1653.2181Zm-.3173-16.0157.3051.0147Zm852.395-677.9541h0Z"/><g class="cls-15"><path class="cls-8" d="M1193.3893,1934.1736s-263.1047-180.5493-208.8855-377.2717,240.2541-342.0289,245.2545-326.71c0,0-166.5727,211.07-119.5152,436.7342C1146.53,1840.9406,1193.3893,1934.1736,1193.3893,1934.1736Z"/></g><path class="cls-2" d="M2766.676,2452.7759a351.8,351.8,0,0,0,34.7486-33.8086,246.625,246.625,0,0,0,27.9516-37.3584,172.4722,172.4722,0,0,0,17.5928-40.3491c4.07-13.7281,5.542-27.5708,6.145-41.9678l.0281-.6763a16.0514,16.0514,0,0,1,31.8542-2.063c3.1653,18.3179,1.1109,37.6978-4.9463,55.2173-5.9033,17.666-15.957,33.2349-27.3242,46.78a200.99,200.99,0,0,1-38.76,34.773c-14.1858,9.6337-29.0467,17.8369-45.1258,23.479a2.3117,2.3117,0,0,1-2.268-3.938Z"/><path class="cls-2" d="M2211.8225,2926.6187c-5.8935,15.9887-14.3274,30.72-24.1833,44.7534a200.8651,200.8651,0,0,1-35.3724,38.2129c-13.7219,11.1547-29.4458,20.9619-47.2021,26.5893-17.6135,5.7813-37.0215,7.5342-55.2869,4.082a16.0533,16.0533,0,0,1,2.5513-31.8212l.686-.0147c14.4043-.3784,28.2666-1.6333,42.0581-5.4883a172.4517,172.4517,0,0,0,40.62-16.96,246.6726,246.6726,0,0,0,37.7905-27.3633,352.2307,352.2307,0,0,0,34.3469-34.2163l.0855-.0977a2.3115,2.3115,0,0,1,3.9062,2.3243Z"/><path class="cls-2" d="M2448.0749,1801.3724a11.9535,11.9535,0,0,1-8.4521-3.4864c-86.4258-85.791-202.07-8.4375-206.9434-5.1025a12.001,12.001,0,0,1-13.5742-19.7949c1.3623-.9278,136.8457-91.9873,237.4219,7.8662a12.0019,12.0019,0,0,1-8.4522,20.5176Z"/><path class="cls-2" d="M1470.0671,2471.5579a12.0033,12.0033,0,0,1-10.7275-6.6016c-46.6968-92.7148-206.7652-200.01-208.3765-201.0791a12.0006,12.0006,0,0,1,13.2983-19.98c6.7945,4.5215,166.9581,111.875,216.5137,210.2588a12.0041,12.0041,0,0,1-10.708,17.4023Z"/><path class="cls-2" d="M2539.5056,2415.679a11.9975,11.9975,0,0,1-11.7627-9.707c-1.3379-6.8555-31.9287-169.3262,38.53-287.8809,73.789-124.1211,192.3388-66.8213,193.5205-66.2353a11.9992,11.9992,0,0,1-10.7129,21.4746c-4.0235-1.9873-99.9463-47.6807-162.1729,57.0263-65.7226,110.5811-35.9179,269.4385-35.61,271.03a12.0171,12.0171,0,0,1-11.792,14.292Z"/></svg>