<svg id="Layer_1" data-name="Layer 1" xmlns="http://www.w3.org/2000/svg" width="4000" height="4000" viewBox="0 0 4000 4000"><defs><style>.cls-1{fill:#ffb200;}.cls-2{fill:#d66b09;}.cls-3{fill:#371a45;}.cls-4{fill:#ffc943;}.cls-5{fill:#ffec90;}.cls-6{opacity:0.35;}.cls-7{opacity:0.41;}.cls-8{fill:#fff;}.cls-9{fill:#73befd;}.cls-10{fill:#1f9fff;}.cls-11{opacity:0.7;}.cls-12{fill:#293856;}.cls-13{fill:#371a46;}.cls-14{fill:#111a28;}.cls-15{fill:#f9195a;}.cls-16{opacity:0.5;}.cls-17{opacity:0.3;}.cls-18{fill:#102770;}.cls-19{fill:#fce5e5;}</style></defs><title>floating-on-planet</title><path class="cls-1" d="M2725.0368,2632.6237a723.6866,723.6866,0,0,1-49.8138,204.9922c-66.9654,165.4359-195.1808,306.3746-370.6359,385.7263-175.8374,79.5246-366.8139,82.5755-535.5286,23.2371a724.9363,724.9363,0,0,1-185.7422-97.5988c176.6006-44.4154,380.7081-116.049,591.9481-211.5848C2386.4788,2841.8714,2575.06,2735.9069,2725.0368,2632.6237Z"/><path class="cls-2" d="M2175.2644,2937.3957c211.2144-95.5243,399.7954-201.4888,549.7724-304.772a713.87,713.87,0,0,1-13.44,87.1255c-115.4185,83.8441-299.82,187.3653-514.5543,284.4813-205.6795,93.021-397.4025,161.2659-535.5,194.3512a720.3289,720.3289,0,0,1-78.2256-49.6012C1759.9169,3104.5651,1964.0244,3032.9315,2175.2644,2937.3957Z"/><path class="cls-1" d="M2695.8346,2354.6c-117.12,94.72-348.4795,227.28-624.8,352.28-276.36,124.96-528.72,211.16-677.2,236.56a730.3182,730.3182,0,0,1-41.96-79.4c-.6-1.32-1.16-2.56-1.76-3.92-5.44-12.2-10.52-24.44-15.2-36.84a720.6412,720.6412,0,0,1-27.2-87.48c-.28-1.2-.56-2.36-.84-3.56a721.361,721.361,0,0,1,137-612.68h.04c6.92-8.8,14.12-17.44,21.52-25.92a716.815,716.815,0,0,1,245.76-182.36q20.2193-9.12,40.72-16.96c183.08-69.84,379.08-59.84,547.4,14.6,1.04.48,2.12.92,3.16,1.44q23.7,10.56,46.6,22.96a718.6155,718.6155,0,0,1,153.32,110.4,709.4414,709.4414,0,0,1,80.2,89.64c2.64,3.48,5.24,7.04,7.88,10.6,2.16,2.92,4.24,5.88,6.32,8.84a715.1577,715.1577,0,0,1,47.72,78.2c5.4,10.16,10.52,20.48,15.44,30.96,1.32,2.88,2.68,5.76,3.96,8.68A726.578,726.578,0,0,1,2695.8346,2354.6Z"/><path class="cls-2" d="M2659.9364,2261.9928c1.3545,2.8591,2.6836,5.73,3.9986,8.6374a723.204,723.204,0,0,1,31.8861,83.9539c-117.1073,94.7155-348.4569,227.3039-624.8132,352.2893-276.331,124.9741-528.7,211.1534-677.16,236.5439a723.2,723.2,0,0,1-41.9863-79.3859c-.5883-1.3009-1.1651-2.5762-1.7279-3.8885,140.7728-15.5544,397.6689-98.9266,679.3813-226.3344C2322.3479,2501.3711,2561.7737,2357.634,2659.9364,2261.9928Z"/><path class="cls-2" d="M1298.1516,2617.4435q-5.5041,0-10.5469-.2588l1.709-32.998c99.3237,5.0879,357.3877-76.68,627.7734-198.9649,284.8829-128.8379,525.1368-276.1377,571.27-350.2392l28.0517,17.4609c-49.9975,80.3125-290.8471,229.5361-585.7055,362.8857C1660.5393,2537.5167,1409.69,2617.4435,1298.1516,2617.4435Z"/><path class="cls-2" d="M1322.0115,2372.3458l-4.8536-32.6855c111.0279-16.4893,303.1812-82.4463,501.4747-172.1289,207.7978-93.9746,387.7612-197.793,469.6606-270.9326l22.0093,24.6484c-84.231,75.22-267.41,181.1279-478.0542,276.3916C1631.3645,2288.4933,1435.8518,2355.4367,1322.0115,2372.3458Z"/><path class="cls-2" d="M1307.9636,2748.757c-.3931,0-.7764,0-1.1645-.0049l.1611-33.0371h1.0937c114.2359,0,379.961-85.5029,662.1192-213.1153,297.0434-134.3359,546.6235-285.8251,606.9385-368.3935l26.68,19.4922c-64.3408,88.081-313.5009,240.3906-620,379.0088C1697.7488,2662.0773,1426.5281,2748.757,1307.9636,2748.757Z"/><path class="cls-2" d="M1769.6506,3254.8165l-.5908-8.1933-3.0957-7.7051,1.1938-.4736,1.3062-.1026c97.8223-7.0507,284.0039-67.2216,474.3164-153.291,191.3647-86.5478,354.8633-183.6279,426.6895-253.3642l11.5087,11.8554c-73.1054,70.9766-238.4033,169.2823-431.3916,256.5576C2054.6921,3188.2492,1870.7908,3247.5314,1769.6506,3254.8165Z"/><path class="cls-3" d="M2008.3005,3303.1076a737.67,737.67,0,0,1-434.4067-141.1963l-27.6123-20.1123,33.1323-8.335c181.9971-45.7715,385.7593-118.6133,589.2554-210.6494,203.4668-92.0166,392.7173-196.919,547.2925-303.3692l28.1323-19.37-3.125,34.0137c-24.2017,263.5059-188.8867,494.8828-429.7876,603.833A734.7439,734.7439,0,0,1,2008.3005,3303.1076ZM1621.1741,3155.715c200.7617,131.665,456.914,152.5,676.8188,53.0469,219.9121-99.4532,373.4229-305.5616,407.1045-543.2666-150.498,100.708-330.6177,199.3652-523.24,286.4794C1989.2038,3039.1037,1796.1716,3109.2111,1621.1741,3155.715Z"/><path class="cls-4" d="M3078.177,2195.2383c43.4651,96.1061-99.8277,262.9429-353.14,437.3854-149.977,103.2832-338.558,209.2477-549.7724,304.772-211.24,95.5358-415.3475,167.1694-591.9481,211.5848-298.2773,75.0206-518.1629,72.4355-561.628-23.6705-39.4739-87.2811,75.04-232.8376,286.0411-389.496a718.9881,718.9881,0,0,0,27.1879,87.4919c-58.3354,47.7044-87.0581,85.55-77.08,107.612,10.1627,22.4708,59.1764,25.6194,136.01,12.4994,148.46-25.39,400.8294-111.57,677.16-236.5439,276.3563-124.9854,507.7059-257.5738,624.8132-352.2893,60.5663-49.0208,90.57-87.9059,80.407-110.3767-9.9664-22.0368-57.3647-25.4862-131.6855-13.1953a719.004,719.004,0,0,0-47.7457-78.1943C2853.7778,2097.8257,3038.7031,2107.9573,3078.177,2195.2383Z"/><path class="cls-5" d="M1291.55,3019.0109c-54.6753.0049-96.2744-11.3086-109.934-41.5137-19.5777-43.2812,25.6616-108.9795,134.4555-195.2637l15.4,19.4141c-93.1811,73.9014-140.7617,135.8252-127.2778,165.6348,16.1328,35.6689,134.5312,47.207,415.1611-37.6416,144.0137-43.584,306.8726-105.85,470.9692-180.0586,164.05-74.1944,318.3472-155.3711,446.2061-234.7461,249.0527-154.7022,318.5889-251.24,302.4585-286.9043-13.4863-29.8242-91.4063-34.98-208.4375-13.8086l-4.4092-24.3848c136.6333-24.7119,215.85-15.3076,235.4248,27.9785,38.2154,84.4971-179.05,235.6153-311.9629,318.1739-128.7646,79.9365-284.05,161.6357-449.07,236.2695-165.061,74.6484-328.97,137.31-474.0039,181.2012C1530.3074,2982.4533,1389.8215,3019.0109,1291.55,3019.0109Z"/><path class="cls-5" d="M1253.9084,3116.091c-88.9941.0048-145.8154-20.4639-164.3139-61.3672-38.3472-84.79,97.1191-211.4307,217.5122-302.7344l14.9756,19.7461c-155.3882,117.8418-233.86,219.8144-209.91,272.7734,30.1782,66.7285,215.5835,62.3731,483.8574-11.3672,164.0357-45.0732,348.5278-113.12,533.5376-196.792,184.9707-83.6523,357.898-177.2509,500.0879-270.6787,232.5513-152.7685,358.269-289.1211,328.0933-355.8447-23.9527-52.9541-152.3413-61.3721-343.4546-22.5049l-4.9365-24.2871c148.059-30.1172,332.6171-48.2129,370.9692,36.5772,36.6382,81.0156-86.2183,221.9873-337.063,386.7724-143.2544,94.1211-317.356,188.3692-503.4863,272.544-186.167,84.1992-371.9214,152.7-537.18,198.11C1459.3357,3096.4132,1341.1594,3116.091,1253.9084,3116.091Z"/><path class="cls-3" d="M1231.0129,3217.8341c-120.2661.0049-198.0737-28.8183-223.9013-85.9326C965.01,3038.82,1068.386,2893.591,1298.1907,2722.966l19.4043-14.4043,5.686,23.4863a706.0855,706.0855,0,0,0,26.582,85.5517l4.1211,10.7862-8.938,7.3095c-81.35,66.5186-73.0249,87.7588-72.6318,88.6329.4077.8935,11.1426,21.6992,118.74,3.3154,151.648-25.9375,409.6265-116.1182,673.2593-235.3516,263.645-119.2334,501.731-253.4033,621.3452-350.1513,84.8218-68.6475,76.294-90.4444,75.8911-91.3428-.3955-.8643-10.8423-21.1377-114.497-3.999l-11.3916,1.8847-5.376-10.22a705.0921,705.0921,0,0,0-46.6846-76.45l-13.8843-19.78,23.6328-5.0586c279.8829-59.9072,457.2071-41.6162,499.3042,51.47h0c46.0645,101.8506-84.6557,268.4765-358.6425,457.1582-156.1158,107.51-347.0826,213.3789-552.2534,306.1718-205.2027,92.8077-410.8252,166.294-594.6412,212.5245C1445.5076,3200.1388,1325.2292,3217.8341,1231.0129,3217.8341Zm67.2364-454.8828c-197.4634,150.1709-295.1563,282.4121-261.9825,355.7666,37.9126,83.8184,246.03,89.4775,543.1446,14.7461,182-45.7715,385.7617-118.6133,589.2578-210.6494,203.4668-92.0166,392.7173-196.919,547.2925-303.3692,252.3388-173.7744,385.5468-333.7939,347.6367-417.6171h0c-33.1763-73.3545-196.9947-87.3194-440.1636-38.208,10.5859,16.1914,20.5664,32.8564,29.8364,49.8193,80.8057-12.1192,124.6338-4.36,137.5342,24.1748,13.7061,30.3027-13.2764,71.4209-84.9194,129.4043-123.43,99.834-358.3033,232.3291-628.2837,354.4336-269.9707,122.1-524.5728,210.9717-681.0571,237.7344-90.8863,15.5127-139.5826,8.6328-153.2862-21.6748-12.9053-28.54,10.22-66.5674,72.6953-119.2579C1309.3406,2800.09,1303.4177,2781.589,1298.2493,2762.9513Z"/><g class="cls-6"><path class="cls-3" d="M2725.0368,2632.6237a723.6866,723.6866,0,0,1-49.8138,204.9922c-66.9654,165.4359-195.1808,306.3746-370.6359,385.7263-175.8374,79.5246-366.8139,82.5755-535.5286,23.2371a724.9363,724.9363,0,0,1-185.7422-97.5988c176.6006-44.4154,380.7081-116.049,591.9481-211.5848C2386.4788,2841.8714,2575.06,2735.9069,2725.0368,2632.6237Z"/></g><g class="cls-7"><path class="cls-8" d="M2695.8178,2354.5764q-20.4444,16.5442-45.41,34.5313c-6.7168-18.9384-14.2923-37.78-22.6949-56.3888-1.3309-2.9-2.6655-5.7574-4-8.6139q-7.3326-15.8-15.3929-30.9988a723.1953,723.1953,0,0,0-47.7377-78.21c-2.0837-2.974-4.2162-5.9068-6.3485-8.8407a710.4647,710.4647,0,0,0-88.0972-100.2562,719.2552,719.2552,0,0,0-203.0581-134.7679c-180.8774-79.9943-393.7468-85.5706-588.1232,2.3566a716.611,716.611,0,0,0-306.1089,262.1687,717.0081,717.0081,0,0,1,342.37-324.28c194.3721-87.8828,407.2452-82.35,588.0788-2.36a719.5842,719.5842,0,0,1,203.0982,134.8166,712.3282,712.3282,0,0,1,88.0571,100.2075c2.1768,2.9376,4.2605,5.9111,6.3443,8.8845a716.0863,716.0863,0,0,1,47.7414,78.1662q8.0556,15.2652,15.3935,30.9983c1.3789,2.8613,2.7135,5.7178,3.9952,8.6588A725.6944,725.6944,0,0,1,2695.8178,2354.5764Z"/></g><path class="cls-3" d="M1385.8567,2961.0128l-5.6592-9.248a742.0994,742.0994,0,0,1-42.915-81.1426c-6.2183-13.7451-12.0459-27.7539-17.3218-41.626a737.8215,737.8215,0,0,1-27.7832-89.4189c-82.8882-342.8223,90.5639-697.2949,412.4267-842.8613C2026.47,1751.14,2407.197,1854.9874,2609.89,2143.6251a737.3709,737.3709,0,0,1,48.811,79.9366c6.9336,13.12,13.6035,26.748,19.812,40.4785h0a741.0324,741.0324,0,0,1,32.59,85.8056l3.208,10.3565-8.43,6.8213c-123.4253,99.8291-358.2984,232.3242-628.2788,354.4287-269.9707,122.1-524.5728,210.9717-681.0571,237.7344Zm621.7651-1097.7246a702.12,702.12,0,0,0-289.8291,62.5879c-307.876,139.2383-473.7915,478.2861-394.5117,806.1768a705.8563,705.8563,0,0,0,26.582,85.5468c5.0537,13.2862,10.6275,26.6846,16.5747,39.8389a711.4062,711.4062,0,0,0,35.4517,68.2959c152.9028-28.2324,405.0244-116.9824,662.5244-233.4424,257.5147-116.46,490.6543-247.1826,612.82-343.35a712.2754,712.2754,0,0,0-27.8759-71.7187h0c-5.94-13.1348-12.3194-26.167-18.9625-38.7354a705.0727,705.0727,0,0,0-46.6943-76.4746C2448.7351,1969.8214,2231.2058,1863.2882,2007.6218,1863.2882Z"/><g class="cls-6"><path class="cls-3" d="M3072.315,2291.44c-39.7207,94.12-165.04,215.72-347.28,341.2-149.96,103.28-338.56,209.24-549.76,304.76-211.24,95.52-415.36,167.16-591.96,211.6-298.28,75-518.16,72.4-561.6406-23.68-26.3994-58.32,16-142.72,110.08-239.04-15.52,36.68-18.04,69.24-5.84,96.2,43.48,96.12,263.36,98.72,561.64,23.68,176.6-44.4,380.72-116.04,591.96-211.56,211.2-95.56,399.8-201.52,549.76-304.8C2928.8746,2421.24,3011.4347,2353.84,3072.315,2291.44Z"/></g><path class="cls-8" d="M1968.7767,1880.03c156.92,11.9475,432.1971,12.3613,455.983-142.3359a513.33,513.33,0,0,0,5.3735-65.6617c3.6008-154.5623-46.3842-360.3308-107.7918-410.7216-35.0654-28.756-100.2856-37.3827-171.8625-30.54-142.24,13.6024-309.7535,88.1594-316.203,186.9531C1828.0061,1512.7981,1811.857,1868.0839,1968.7767,1880.03Z"/><g class="cls-6"><path class="cls-3" d="M1968.7767,1880.03c156.92,11.9475,432.1971,12.3613,455.983-142.3359a513.33,513.33,0,0,0,5.3735-65.6617c-44.8951,32.2124-104.0288-.81-109.4874-42.8448-33.7016-259.5068-125.2615-362.5537-170.1669-398.4171-142.24,13.6024-309.7535,88.1594-316.203,186.9531C1828.0061,1512.7981,1811.857,1868.0839,1968.7767,1880.03Z"/></g><path class="cls-3" d="M2085.8078,1900.7589c-39.7949,0-79.79-1.8457-118.24-4.7754-156.4771-11.914-160.6909-305.4223-149.2749-479.3188,3.9307-59.8633,57.9-115.2905,151.9653-156.0742,118.4424-51.35,290.6031-70.4053,362.2242-11.65h0c80.8471,66.3281,131.0327,341.6919,108.0786,491.1889C2421.0642,1867.1066,2255.593,1900.7589,2085.8078,1900.7589Zm108.8868-656.4184c-64.6216,0-142.39,15.5566-211.7066,45.61-81.3135,35.2539-129.7021,82.2022-132.7612,128.8086-6.6846,101.8189-17.8027,434.8413,119.7705,445.32,154.7314,11.7774,417.5122,10.6983,438.9331-128.8037,22.8955-149.1089-31.3525-407.9467-96.7456-461.5942h0C2288.1345,1253.9474,2245.4709,1244.3405,2194.6946,1244.3405Z"/><path class="cls-8" d="M2295.4415,1521.4493l70.9621-24.7371a28.2292,28.2292,0,0,1,36.9223,20.7249c12.1684,57.159,29.5833,175.291-28.3393,196.772-70.1967,26.0328-91.1334-54.543-98.4469-164.3037A28.2081,28.2081,0,0,1,2295.4415,1521.4493Z"/><g class="cls-6"><path class="cls-3" d="M2276.6894,1549.736c7.0524,109.7748,27.8122,190.4232,98.0636,164.5258,28.8561-10.5935,39.095-45.2356,40.5912-84.3736-6.2387,10.9469-14.86,19.2569-26.6067,23.5672-62.8954,23.1523-86.15-39.0617-95.3282-131.186A27.9377,27.9377,0,0,0,2276.6894,1549.736Z"/></g><path class="cls-3" d="M2350.1413,1735.1535a60.0107,60.0107,0,0,1-33.3862-9.7852c-32.7856-21.333-49.5483-73.55-56.05-174.5947a44.2985,44.2985,0,0,1,29.7-44.5606l71.0181-24.5776a44.2273,44.2273,0,0,1,57.7637,32.6318c17.8857,84.9658,25.6542,191.2427-38.9112,215.0171Q2364.3308,1735.1583,2350.1413,1735.1535Zm25.7813-223.9722a12.2967,12.2967,0,0,0-4.0357.6933l-71.018,24.5777a12.22,12.22,0,0,0-8.23,12.2632c2.0386,31.6967,8.2446,128.1469,41.57,149.8315,8.982,5.84,20.4346,6.084,35.0073.708,38.4644-14.1626,34.856-101.44,18.6573-178.396a12.03,12.03,0,0,0-5.9082-8.0664A12.39,12.39,0,0,0,2375.9226,1511.1813Zm-80.2857,10.1514h0Z"/><path class="cls-3" d="M2342.8021,1292.1118a135.3308,135.3308,0,0,1-24.8846,9.88c-8.537,2.6391-17.36,4.4726-26.181,6.3452-8.8221,1.87-17.7314,3.5132-26.7261,4.9976-9.0265,1.4013-18.0829,2.7539-27.47,3.479a2.2462,2.2462,0,0,1-2.4237-2.0533,2.2932,2.2932,0,0,1,.805-1.9165,228.6075,228.6075,0,0,1,22.7491-16.2158c7.8253-4.8706,15.7769-9.4775,23.8641-13.7231a245.15,245.15,0,0,1,24.6564-11.6968,124.7025,124.7025,0,0,1,26.159-7.5684,15.2088,15.2088,0,0,1,9.6045,28.3936Z"/><path class="cls-8" d="M2056.211,1813.6519l-57.8538-17.577c-65.3055-19.8409-136.2109-16.536-198.1479,11.786-21.4557,9.811-42.1907,22.7289-59.3407,39.7347-62.68,62.1658-64.4381,186.9827-21.88,237.5733,16.7809,19.9481,34.8287,42.097,34.8287,42.097-11.9223,17.0856-94.0533,155.6744-27.9633,210.7688,57.8775,48.2483,164.6984,40.33,220.9764-35.5513,37.1963-50.1529,44.746-108.0138,42.6309-152.2363-2.473-51.7071-28.741-121.5141,14.0457-139.7081,63.7922-27.1261,121.7323-12.09,213.9807-82.6148,107.9513-82.53,124.8594-260.2868,76.8951-410.5661-34.4959-108.0808-244.4553-312.7351-244.4553-312.7351l66.2367,607.7592Z"/><path class="cls-8" d="M1730.315,1547.44l-211.24,192.32-2.2-3.52-90.52-145.76c106.88-45.52,173.3193-180.8,173.3193-180.8l8.48,8.96Z"/><g class="cls-6"><path class="cls-3" d="M1730.315,1547.44l-211.24,192.32-2.2-3.52c60.96-93.6,84.44-257.36,91.28-317.6Z"/></g><path class="cls-3" d="M1515.6052,1764.548l-112.666-181.4844,17.1631-7.31c100.2319-42.7,164.5947-171.8237,165.2319-173.1225l10.1441-20.647,157.6684,166.3086Zm-66.2012-167.31,73.1006,117.749,184.9536-168.374-104.226-109.9389C1581.3108,1474.5919,1527.2776,1556.4621,1449.404,1597.2384Z"/><path class="cls-8" d="M1491.3092,1570.1428s-126.5935-113.8816-207.2319-144.4147l-22.544,52.8918,169.08,166.4792Z"/><path class="cls-3" d="M1430.6125,1661.1007a16.0029,16.0029,0,0,1-11.2256-4.6l-169.08-166.4795a16.0043,16.0043,0,0,1-3.4937-17.6758l22.544-52.893a16.0108,16.0108,0,0,1,20.3857-8.689c82.4951,31.2378,207.0068,142.7539,212.2656,147.4854a15.9964,15.9964,0,0,1,1.7334,21.9629l-60.6958,74.956a15.9952,15.9952,0,0,1-11.5356,5.9058C1431.2107,1661.091,1430.91,1661.1007,1430.6125,1661.1007Zm-150.0879-186.2329,148.75,146.46,39.9146-49.292c-30.2271-26.1109-114.2261-96.2549-176.6528-125.3491Z"/><path class="cls-8" d="M1615.3014,1260.116c63.6005,253.5773-11.6646,485.5642-11.6646,485.5642-246.25,88.4421-111.8941,331.2241-111.8941,331.2241S1321.9545,2175.141,1402,2273.2977c69.7042,85.4754,303.8093-12.73,315.1311-137.432,0,0-40.2671-126.5935,22.1626-169.9475"/><g class="cls-6"><path class="cls-3" d="M2695.8346,2354.6c-266.76,219.6-1028.92,549.64-1302,588.84-142.9932-227.1944-140.5855-539.0027,9.124-766.7386q4.092-6.3461,8.3564-12.6213,15.36-22.8,32.56-44.52h.04c16.12-10,27.56-15.64,27.56-15.64s-2.36-3.68-6.04-10.28a716.815,716.815,0,0,1,245.76-182.36q20.2193-9.12,40.72-16.96c183.08-69.84,379.08-59.84,547.4,14.6,1.04.48,2.12.92,3.16,1.44q23.7,10.56,46.6,22.96a242.5964,242.5964,0,0,1-28.32,21.64c-107.92,70.52-175.72,55.48-250.36,82.6-25.6,9.32-30.12,32.08-27.96,59.04-3.04,30.16,9.68,70.56,11.52,103.72.04.64.04,1.28.08,1.92-1.92,39.72-14.2,86.12-50,127.28-63.56,73.24-182.24,83.16-251.32,40.32-2.48-1.52-4.88-3.12-7.24-4.8-17.96-12.76-26.6-30.08-29.04-49.28,5.36-49.48,37.4-103.76,53.8-127.92,3.52-5.2,6.32-9,7.96-11.08,0,0-3.6-3.88-9.24-9.84-4.24-4.56-9.68-10.32-15.6-16.6-5.12-5.4-10.6006-11.12-15.92-16.68a97.7765,97.7765,0,0,1-14.24-19.16,275.2359,275.2359,0,0,0,12.08,48.4c-12.96,122.24-259.2,269.24-363.6406,165.96-3.84,260.84,267.5605,475.32,539.6406,365.96,290.2-116.68,613.8-277.4,767.56-388.68Q2688.2549,2330.24,2695.8346,2354.6Z"/></g><path class="cls-8" d="M2319.7545,1684.6c-1.36,98.64-33.2,190.48-102.28,243.32-92.24,70.52-150.16,55.48-213.96,82.6-21.88,9.32-25.72,32.08-23.88,59.04-2.6,30.16,8.28,70.56,9.84,103.72.04.64.04,1.28.08,1.92-1.64,39.72-12.16,86.12-42.72,127.28-54.32,73.24-155.76,83.16-214.76,40.32-2.12-1.52-4.2-3.12-6.2-4.8-15.36-12.76-22.72-30.08-24.8-49.28,4.56-49.48,31.96-103.76,45.96-127.92,3-5.2,5.4-9,6.8-11.08,0,0-3.08-3.88-7.88-9.84-3.64-4.56-8.28-10.32-13.36-16.6-4.36-5.4-9.04-11.12-13.6-16.68a99.1923,99.1923,0,0,1-12.16-19.16,312.1212,312.1212,0,0,0,10.32,48.4c-11.32,124.72-245.44,222.92-315.16,137.44-12.68-15.52-19.08-31.04-20.88-46.16-9.72-80.6,110.64-150.24,110.64-150.24s-66.96-120.96-19.72-223.24c19.68-42.6,59.2-81.96,131.6-107.96,0,0,17.8-54.84,28.76-140.36,2.8-21.92,5.16-45.84,6.68-71.36a965.6672,965.6672,0,0,0-3.4-157.92l414.24-171.44.6.6c.2.2.44.44.76.76l.96.96c.36.4.76.8,1.24,1.24,2.12,2.16,5.12,5.2,8.92,9.12,17.68,18.2,52.16,54.44,89.48,97.48,58.8,67.8,124.52,152.44,142.52,210.2,5.16,16.52,9.56,33.4,13.16,50.44A547.9088,547.9088,0,0,1,2319.7545,1684.6Z"/><path class="cls-3" d="M1709.69,1988.0343a11.9991,11.9991,0,0,1-11.438-8.3838c-43.2617-136.8066-223.3276-113.0371-225.1392-112.8027a12,12,0,0,1-3.3545-23.7647c2.0191-.2636,202.063-26.6162,251.3746,129.3311a12.0076,12.0076,0,0,1-11.4429,15.62Z"/><path class="cls-8" d="M1635.6688,1376.0566l-20.36-115.96A838.9255,838.9255,0,0,1,1635.6688,1376.0566Z"/><path class="cls-3" d="M1483.9646,2321.5011c-40.6079.0049-73.8916-12.9883-94.3652-38.0908-20.96-25.7031-28.8331-53.7793-23.4009-83.4473,11.1279-60.7812,76.6064-110.1562,104.7851-128.8818-15.7812-34.0869-50.9692-126.001-18.74-211.5527,21.3452-56.66,67.8686-99.043,138.3423-126.0694,11.7138-40.9765,64.685-248.208,9.1968-469.4507a16,16,0,0,1,31.04-7.7832c63.9795,255.1-8.8355,484.7437-11.9653,494.3921l-2.4244,7.4658-7.3876,2.6563c-65.459,23.5107-108.1177,60.4883-126.7969,109.9121-34.5264,91.3574,22.9175,197.4609,23.501,198.5205l7.5561,13.7256-13.55,7.8564c-.8984.5225-90.8472,53.3692-102.09,115.0245-3.7012,20.2832,1.7724,39.0625,16.7334,57.4072,22.7246,27.8711,73.2568,34.0381,131.8823,16.1084,71.3672-21.8262,146.6333-77.334,154.5971-141.9043-6.3427-21.7676-36.6674-138.8086,29.29-184.6094a15.9979,15.9979,0,1,1,18.252,26.2793c-43.125,29.9512-26.1988,119.8535-16.0376,151.9678l.9692,3.0713-.2857,3.2129c-7.59,83.6132-97.2949,148.0761-177.4267,172.583C1530.18,2317.6779,1505.9934,2321.5011,1483.9646,2321.5011ZM1603.64,1745.6759h0Z"/><path class="cls-8" d="M2068.3551,1761.8l-47.84,40.64-509.28-232.28s34.6-20.32,128.48-47.96c62.68-18.48,151.8-40.24,274.72-61.44l26.84,52.48Z"/><path class="cls-3" d="M2023.115,1821.2228,1476.5964,1571.921l26.56-15.5786c4.0332-2.3657,102.2778-58.53,408.5693-111.3305l11.604-2.002,165.0269,322.7734ZM1549.6409,1570.07,2017.89,1783.6642l30.4419-25.8691-142.7662-279.231C1704.5163,1513.9035,1596.9651,1550.6784,1549.6409,1570.07Z"/><polygon class="cls-9" points="1678.902 1889.06 2030.632 1799.873 1884.963 1513.693 1533.233 1590.473 1678.902 1889.06"/><polygon class="cls-9" points="1678.902 1889.06 2030.632 1799.873 1884.963 1513.693 1533.233 1590.473 1678.902 1889.06"/><g class="cls-6"><path class="cls-3" d="M2014.6344,1839.88l-269.92,68.44c-3.2,62.32-8.76,168.56-12.12,214.96-4.36-5.4-9.04-11.12-13.6-16.68a99.1923,99.1923,0,0,1-12.16-19.16,312.1212,312.1212,0,0,0,10.32,48.4c-11.32,124.72-245.44,222.92-315.16,137.44-12.68-15.52-19.08-31.04-20.88-46.16,56,80.6,216.04,4.64,244.04-20.88,30.4795-27.76,34.56-42.6,15.4795-147.44-10.3194-56.64,3.88-99.4,24.96-130.44l-2.68.68h-53.2L1495.235,1888l-23.2-34.36c19.68-42.6,59.2-81.96,131.6-107.96,0,0,17.8-54.84,28.76-140.36l236.56-51.64Z"/></g><polygon class="cls-10" points="2030.634 1799.88 1678.915 1889.04 1669.235 1869.24 1533.235 1590.48 1884.955 1513.68 1918.435 1579.44 2030.634 1799.88"/><g class="cls-11"><path class="cls-8" d="M1584.3511,1639.2093,1687.7945,1886.8l-8.88,2.24-9.68-19.8-136-278.76,351.72-76.8,5.96,11.68L1602.14,1602.9635A26.8241,26.8241,0,0,0,1584.3511,1639.2093Z"/></g><g class="cls-6"><path class="cls-3" d="M2030.6344,1799.88l-351.72,89.16-9.68-19.8c6.04-80.4,172.28-121.64,172.28-121.64-28.6-101.48,48.84-153.12,76.92-168.16Z"/></g><path class="cls-3" d="M1678.8987,1904.06a15.0029,15.0029,0,0,1-13.479-8.4228L1519.7507,1597.05a15,15,0,0,1,10.2832-21.2329l351.731-76.78a15.0258,15.0258,0,0,1,16.5649,7.8516l145.669,286.1743a15.0026,15.0026,0,0,1-9.68,21.3477l-351.731,89.1894A14.9536,14.9536,0,0,1,1678.8987,1904.06Zm-123.8135-303.0029,131.9507,270.4638,321.7114-81.5771-131.8994-259.126Z"/><polygon class="cls-10" points="1533.233 1590.473 1466.162 1590.993 1625.706 1889.06 1678.902 1889.06 1533.233 1590.473"/><g class="cls-11"><polygon class="cls-8" points="1547.315 1619.32 1481.595 1619.84 1466.155 1591 1533.235 1590.48 1547.315 1619.32"/></g><path class="cls-3" d="M1678.9011,1904.06h-53.1958a14.9961,14.9961,0,0,1-13.2251-7.92l-159.5434-298.0689a15,15,0,0,1,13.1079-22.0776l67.07-.52a15.2582,15.2582,0,0,1,13.5986,8.4228l145.669,298.5865a14.9987,14.9987,0,0,1-13.4815,21.5771Zm-44.2114-30h20.2026l-130.9961-268.5132-32.7954.2539Z"/><polygon class="cls-10" points="1625.715 1889.04 1511.235 1848 1464.915 1779.44 1436.515 1737.44 1363.515 1629.52 1261.515 1478.6 1466.155 1591 1624.674 1887.08 1625.715 1889.04"/><g class="cls-11"><polygon class="cls-8" points="1625.715 1889.04 1604.595 1881.48 1448.915 1610.88 1287.475 1517 1261.515 1478.6 1466.155 1591 1624.674 1887.08 1625.715 1889.04"/></g><path class="cls-3" d="M1625.7029,1904.06a15.072,15.072,0,0,1-5.0635-.8789l-114.4531-41.0645a15.0367,15.0367,0,0,1-7.3609-5.7177l-249.7192-369.3775a14.9995,14.9995,0,0,1,19.646-21.5478l204.6289,112.373a14.99,14.99,0,0,1,6.0058,6.0694L1638.93,1881.98a15,15,0,0,1-13.2275,22.08Zm-104.7705-68.5254,73.1567,26.2451-139.05-259.7827-146.3061-80.3442Z"/><path class="cls-3" d="M1466.162,1590.9932s1.1761-37.1671,31.4335-41.49c25.0369-3.5767,42.6175,39.4457,42.6175,39.4457Z"/><path class="cls-8" d="M2319.7545,1681.72c.04.96,0,1.92,0,2.88-1.36,98.64-33.2,190.48-102.28,243.32-92.24,70.52-150.16,55.48-213.96,82.6-21.88,9.32-25.72,32.08-23.88,59.04,1.7207,25.8,8.6006,55.4,9.84,80.68.36,7.92.44,16.28.08,24.96-1.64,39.72-12.16,86.12-42.72,127.28-56.28,75.88-163.08,83.8-220.96,35.52-15.36-12.76-22.72-30.08-24.8-49.28-.08-.64-.12-1.32-.16-1.96-4.76-52.32,28.28-118.24,45.04-146.88,3.52-6,6.32-10.4,7.88-12.64,0,0-18.04-22.12-34.84-42.08-42.56-50.6-40.8-175.4,21.88-237.6,17.16-17,37.88-29.92,59.36-39.72a272.0086,272.0086,0,0,1,104.68-24.24,288.8872,288.8872,0,0,1,93.44,12.44l57.88,17.6,59.92-1.28-29.6-271.64c14.28-14.08,25.56-36.56,23.72-71.52l-7.6006-36.76-36.28-175.16-2.64-12.64s47.84,36.56,101.4805,92c52.5195,54.2,110.6,126.48,134.96,200.24a.8949.8949,0,0,0,.12.4c3.84,13.68,7.08,27.56,9.76,41.52A519.9787,519.9787,0,0,1,2319.7545,1681.72Z"/><g class="cls-6"><path class="cls-3" d="M2319.7545,1681.72c.04.96,0,1.92,0,2.88-1.36,98.64-33.2,190.48-102.28,243.32-92.24,70.52-150.16,55.48-213.96,82.6-21.88,9.32-25.72,32.08-23.88,59.04,1.7207,25.8,8.6006,55.4,9.84,80.68.36,7.92.44,16.28.08,24.96-1.64,39.72-12.16,86.12-42.72,127.28-56.28,75.88-163.08,83.8-220.96,35.52-15.36-12.76-22.72-30.08-24.8-49.28-.08-.64-.12-1.32-.16-1.96,61,51,165.2,68.68,222.96-38.88,66.04-123.08-8.88-173.44-10.4-232.4-1.56-58.96,107.48-44.2,264.44-116.2C2270.8746,1856.68,2306.315,1756.4,2319.7545,1681.72Z"/></g><path class="cls-3" d="M2054.6606,1818.7549c-13.5443-1.7261-26.8927-4.0967-40.1617-6.7285-6.6431-1.2818-13.2715-2.6392-19.8444-4.126-6.3659-1.2207-12.6757-2.49-19.024-3.5059-25.3656-4.0576-50.9015-5.64-76.19-3.8086a281.651,281.651,0,0,0-73.8647,15.5371c-23.6853,8.4913-46.474,20.1221-65.1453,35.7886a103.96,103.96,0,0,0-12.8546,12.6465c-1.9324,2.2632-4.1364,4.2676-5.88,6.7212l-5.2521,7.3462-2.6392,3.6694-2.25,3.9771-4.538,7.937c-2.6965,5.4956-5.2472,11.123-7.5671,16.8359a217.5386,217.5386,0,0,0-13.3869,73.4253c-.4095,25.0318,4.1584,50.2027,13.6109,71.8164,2.843,4.9829,5.2313,10.4175,8.7366,14.6045l2.4011,3.3789c.777,1.1231,2.0721,2.5537,3.0823,3.8159l6.4654,7.815,25.8606,31.2573,7.5958,9.1821-6.878,10.083c-2.1967,3.2178-4.718,7.356-7.0239,11.2769-2.3371,3.9966-4.6161,8.0688-6.825,12.1826q-6.6375,12.3414-12.44,25.1148c-7.6581,16.997-14.2785,34.4336-18.7219,52.0288-4.339,17.5024-6.9,35.4492-4.7223,51.6577a64.039,64.039,0,0,0,6.7951,22.124,50.1,50.1,0,0,0,14.6484,16.7847c26.51,20.7177,63.51,28.0444,98.067,23.0053,34.8914-4.7216,67.3969-22.788,90.2222-49.17,2.7264-3.4448,5.7025-6.5869,8.2715-10.2441,2.5518-3.6743,5.2-7.2852,7.4591-11.1524a192.84,192.84,0,0,0,12.5872-23.7207,215.2128,215.2128,0,0,0,15.2356-51.8213,256.4913,256.4913,0,0,0,2.9212-54.5581c-.9979-17.7832-4.6033-36.726-7.2888-56.4135a286.1527,286.1527,0,0,1-2.8327-30.72c-.1556-10.7007.15-22.0508,4.1925-34.2774a56.068,56.068,0,0,1,9.66-17.7759,51.524,51.524,0,0,1,16.3159-13.1054c1.4422-.6958,3.1927-1.5992,4.4061-2.0679l3.6536-1.4234,7.3132-2.8369c4.9017-1.7285,9.8511-3.2812,14.7785-4.8095,19.7924-5.7105,39.3-9.1187,57.8222-13.1739,18.5675-3.97,36.2616-8.8427,53.2691-15.6591a277.71,277.71,0,0,0,48.7854-25.5005c7.8863-4.8194,15.3045-10.51,22.87-15.9326,3.6963-2.7613,7.0154-5.6495,10.5506-8.4546,3.27-3.0811,6.6919-5.9937,9.8608-9.1846,25.5231-25.398,44.4421-57.5391,56.5784-92.334,12.26-34.812,18.4424-72.0117,19.9988-109.4214a498.1384,498.1384,0,0,0-8.4986-112.2217,526.2646,526.2646,0,0,0-13.4155-54.8486l-2.052-6.7554c-.7031-2.1923-1.4783-4.15-2.2064-6.2378-1.33-4.1162-3.3136-8.24-5.0342-12.3681-1.8158-4.1211-3.98-8.2105-5.943-12.3218l-6.6675-12.2c-18.6511-32.3608-41.5411-63.2275-65.4968-93.0811-48.3673-59.7607-104.78-112.27-147.8278-178.3642a5.4666,5.4666,0,0,1,7.4451-7.6392c17.1265,10.4541,32.4365,22.7368,47.2583,35.5689,14.8541,12.7954,28.6493,26.6528,42.1826,40.7666,27.0716,28.247,51.4441,58.9721,76.0065,89.6045,24.4018,30.7934,48.1091,62.3364,68.2263,97.2876l7.29,13.3422c2.2321,4.6363,4.6,9.1382,6.7017,13.8916,2.0282,4.8194,4.2371,9.4678,5.9345,14.5826.8758,2.49,1.8554,5.061,2.6312,7.4878l2.1808,7.17a558.2834,558.2834,0,0,1,14.2328,58.1884,530.0615,530.0615,0,0,1,9.0246,119.47c-1.6785,40.0756-8.269,80.31-21.806,118.7768-13.4,38.3862-34.6448,74.978-64.2407,104.4068-3.6707,3.6865-7.6282,7.0971-11.4405,10.6445-4.0423,3.25-8.0786,6.709-12.1545,9.7534-8.1946,5.896-16.2048,12.0068-24.8792,17.3364a309.77,309.77,0,0,1-54.2462,28.313c-19.04,7.6416-38.9166,13.0591-58.2879,17.1948-19.3854,4.2164-38.1672,7.5538-55.6867,12.6294-4.3317,1.355-8.6493,2.7051-12.8949,4.1968l-6.2536,2.4317-3.1293,1.2109c-1.05.4053-1.4215.6982-2.1784,1.0229-5.1056,2.6978-8.089,6.2867-10.3015,12.627-2.17,6.2476-2.7344,14.6313-2.539,23.2519a255.9106,255.9106,0,0,0,2.5482,27.2168c2.5116,18.7549,6.3025,38.0274,7.5372,59.0308a288.33,288.33,0,0,1-3.2995,61.4819c-6.615,40.7373-23.2245,80.5372-50.926,112.6734-27.8692,32.2656-67.6306,54.17-109.8162,59.9023a176.7951,176.7951,0,0,1-63.6457-2.2778c-20.93-4.69-41.3238-13.584-58.7487-27.1924l-3.3161-2.4683-3.3008-3.0542a55.3176,55.3176,0,0,1-6.2658-6.47,59.96,59.96,0,0,1-5.5335-7.1484,64.5822,64.5822,0,0,1-4.696-7.688,96.0053,96.0053,0,0,1-10.3437-33.1494c-2.8753-22.4365.5408-43.6109,5.4328-63.645,5.0787-20.0513,12.334-39.0284,20.6042-57.4q6.2421-13.7659,13.3936-27.0435,3.5724-6.65,7.4017-13.21c2.6251-4.4336,5.1184-8.6109,8.3893-13.4082l.7178,19.2626-25.625-30.9716-6.4063-7.7442c-1.0931-1.3623-2.077-2.4194-3.2611-4.0332l-3.51-4.8047c-5.0385-6.311-8.2361-13.2275-11.9336-19.9975-2.7155-6.9776-6.0315-13.8892-7.8034-21.0279-1.0009-3.55-2.1643-7.0874-3.0029-10.6543l-2.1588-10.7421a92.2935,92.2935,0,0,1-1.6626-10.7691l-1.27-10.791c-.28-7.1948-.8869-14.4092-.7148-21.5942a249.2952,249.2952,0,0,1,15.4993-84.6363c2.749-6.7334,5.6415-13.457,8.8263-20.0415l5.3571-9.6655,2.6983-4.8218,3.17-4.5874,6.4093-9.1357c2.1484-3.0371,4.8578-5.71,7.2778-8.5718,2.5275-2.7612,4.9133-5.7446,7.5873-8.2935,2.6318-2.61,5.3754-5.083,8.1421-7.5146,22.3169-19.3823,47.9431-33.2983,74.7638-43.1934a270.0532,270.0532,0,0,1,41.3049-11.6528,298.1781,298.1781,0,0,1,42.5287-4.9341c28.4772-.83,57.1136,2.0557,84.1943,10.2393,6.8207,1.8115,13.4278,4.3481,20.0244,6.7554,6.3092,2.4194,12.5586,4.98,18.7958,7.61,12.4915,5.1929,24.9024,10.6494,37.1173,16.7505a5.4091,5.4091,0,0,1-3.1006,10.2051Z"/><g class="cls-6"><path class="cls-3" d="M2311.5548,1615.4a155.2763,155.2763,0,0,1-8.12,41.08c-37.24,107.76-167.8,171.48-268.8,171.48-60.76,0-99.84-10.24-129.72-44.36a161.55,161.55,0,0,1-15.08-20.48c-35.12-55.92-17.4-130.2,56.96-165.04,6.04-2.84,19.16-4.36,19.16-4.36l-20.72-40.48-6.92-13.56s9.84,2.24,23.8,5.24c31.36,6.8,83.44,17.48,90.96,15.32a79.31,79.31,0,0,0,33.48-19.52c14.28-14.08,25.56-36.56,23.72-71.52l20.081-38.1256-51.2887-170.9586-15.3128-15.4756s47.84,36.56,101.4805,92c52.5195,54.2,110.6,126.48,134.96,200.24a.8949.8949,0,0,0,.12.4,235.6,235.6,0,0,1,9.76,41.52A181.3121,181.3121,0,0,1,2311.5548,1615.4Z"/></g><path class="cls-8" d="M2307.5548,1575.4a155.2763,155.2763,0,0,1-8.12,41.08c-37.24,107.76-167.8,171.48-268.8,171.48-71.56,0-113-14.2-144.8-64.84-35.12-55.92-17.4-130.2,56.96-165.04,6.04-2.84,19.16-4.36,19.16-4.36l-20.72-40.48-6.92-13.56s9.84,2.24,23.8,5.24c31.36,6.8,83.44,17.48,90.96,15.32,22.76-6.56,60.48-29.28,57.2-91.04l-7.6006-36.76-36.28-175.16-2.64-12.64s47.84,36.56,101.4805,92C2232.4347,1370.16,2313.8746,1476.88,2307.5548,1575.4Z"/><g class="cls-6"><path class="cls-3" d="M2307.5548,1575.4a155.2763,155.2763,0,0,1-8.12,41.08c-37.24,107.76-167.8,171.48-268.8,171.48-71.56,0-113-14.2-144.8-64.84a112.1413,112.1413,0,0,1-16.56-46.04c30.24,37.24,69.92,48.28,132.96,48.28,101,0,231.56-63.72,268.8-171.48a155.2808,155.2808,0,0,0,8.12-41.08c1.68-26-2.76-52.56-11.5205-78.92C2293.7545,1479.96,2310.5548,1528.6,2307.5548,1575.4Z"/></g><path class="cls-3" d="M2063.0115,1200.3857c12.4341,5.21,23.6523,11.8482,34.5508,19.0235a326.84,326.84,0,0,1,31.2066,23.3227,605.9886,605.9886,0,0,1,56.1182,53.938q26.2161,28.8867,50.0293,60.0366c15.8294,20.7764,30.932,42.2779,44.1626,65.1612,13.23,22.854,24.8047,47.0141,33.0322,72.7856,8.1873,25.7007,12.9547,53.2666,11.2482,81.2573-.0751,7-1.3751,13.9405-2.5061,20.8863-.7923,7.0093-3.2788,13.6938-5.0458,20.5127-.5115,1.68-.9027,3.43-1.52,5.0488l-1.9464,4.8071-3.92,9.6021c-2.3535,6.5356-5.9735,12.4145-9.17,18.5156-13.3618,24.08-31.01,45.3369-50.9943,63.5449a306.8413,306.8413,0,0,1-66.181,45.7642,359.4655,359.4655,0,0,1-74.6973,28.86,308.0461,308.0461,0,0,1-79.8864,10.4517,360.8107,360.8107,0,0,1-39.9921-2.207,194.9578,194.9578,0,0,1-40.7184-8.74,132.1336,132.1336,0,0,1-38.2605-20.3344,153.886,153.886,0,0,1-49.4488-69.0625,119.1151,119.1151,0,0,1-6.3874-43.2715c.5616-14.6436,3.3637-29.3823,9.2176-42.854a135.9056,135.9056,0,0,1,23.2464-36.76c2.417-2.6758,5.0537-5.122,7.5873-7.6782,1.2915-1.25,2.5372-2.5586,3.8727-3.75l4.1583-3.374c2.8021-2.2022,5.506-4.5728,8.4113-6.604l8.8842-5.8228a82.0742,82.0742,0,0,1,9.1578-5.2466l4.6618-2.4487,2.3334-1.2182,1.167-.61.5835-.3027.97-.4273a64.2994,64.2994,0,0,1,12.3676-3.6133c3.689-.7446,6.95-1.2719,10.7812-1.7553l-12.3736,23.1714-27.627-54.0333-15.5358-30.3881,33.3367,7.5024c18.8056,4.2334,37.8058,8.3423,56.695,12.1167,9.4525,1.9067,18.8983,3.689,28.2513,5.3,4.6949.8032,9.3024,1.438,13.8538,2.0435,2.1118.1611,4.494.4419,6.3751.5224l2.5934.0708.3235.0122c.0574-.0024-.1111-.0293-.1575-.0366a1.8113,1.8113,0,0,0-.46-.0049,1.7882,1.7882,0,0,0-.8142.2954,67.9635,67.9635,0,0,0,20.1056-10.94,75.2783,75.2783,0,0,0,15.6232-16.2744,118.97,118.97,0,0,0,11.2976-21.4087c3.4961-7.9517,5.7678-16.7725,9.3866-26.294l.1941-.5127a5.6039,5.6039,0,0,1,10.4577-.0488,69.1381,69.1381,0,0,1,4.527,15.4541c.3632,2.666.8606,5.3736,1.0864,8.1079.0928,2.7393.1123,5.5054.083,8.291a77.5483,77.5483,0,0,1-8.9135,33.0494,80.193,80.193,0,0,1-22.9718,27.0263,92.3934,92.3934,0,0,1-31.7469,15.2051,43.4348,43.4348,0,0,1-4.4446.6543l-2.2778.1611-1.0669.0318-.5877-.0366-4.6961-.33c-2.9712-.2832-5.4126-.6958-8.14-1.045-5.0879-.7568-10.105-1.5771-15-2.4462-9.8328-1.6944-19.52-3.5279-29.1517-5.4664-19.2926-3.8574-38.3526-7.9809-57.5341-12.2973l17.8-22.8833,27.6269,54.0356,10.3851,20.31-22.7587,2.8638c-2.5043.3149-5.553.7983-8.1214,1.3281a38.7065,38.7065,0,0,0-6.03,1.6137l-7.2809,3.8257a59.9721,59.9721,0,0,0-7.4518,4.2578l-7.1484,4.6656c-2.3261,1.6186-4.4068,3.5107-6.6346,5.2368l-3.2995,2.6367c-1.0443.9326-1.9855,1.96-2.9865,2.9321-1.9452,1.9922-4.03,3.87-5.8917,5.9229a103.9919,103.9919,0,0,0-17.5281,27.6806c-4.3988,9.983-6.3428,20.8252-6.7883,31.6065a87.138,87.138,0,0,0,4.7436,32.08,114.0277,114.0277,0,0,0,15.5451,29.5556c13.4131,18.8721,30.7184,32.6368,52.185,39.7364,91.2793,25.5883,197.9432-3.6109,269.62-67.5611,17.7393-16.167,33.07-34.7534,44.4946-55.3393,2.7075-5.2149,5.8954-10.2246,7.8174-15.774l3.3246-8.1323,1.676-4.0625c.5255-1.3574.7977-2.749,1.2122-4.1235,1.3647-5.5469,3.5235-10.8936,4.0875-16.6431.8948-5.664,2.0416-11.289,2.0453-17.1069,1.4142-23.0567-2.5067-46.7041-9.8023-69.58-7.3065-22.9175-17.8759-45.1294-30.227-66.4453-24.7717-42.7124-56.5418-81.9238-91.5369-117.81q-26.0733-27.1289-52.6916-53.9428c-8.8611-8.9576-17.5513-18.1324-26.02-27.6343-8.5041-9.4336-16.8775-19.1992-24.6118-29.6655l-.083-.1123a5.5134,5.5134,0,0,1,6.5637-8.3619Z"/><path class="cls-8" d="M1393.2227,1337.54c444.6795,418.6627,1048.0043-177.9977,665.639-624.9363C1613.8364,273.2429,990.7748,890.5815,1393.2227,1337.54Z"/><path class="cls-8" d="M1393.2227,1337.54c444.6795,418.6627,1048.0043-177.9977,665.639-624.9363C1613.8364,273.2429,990.7748,890.5815,1393.2227,1337.54Z"/><g class="cls-6"><path class="cls-3" d="M2161.235,1296.64q-4.44,9.18-9.36,18.12a466.2395,466.2395,0,0,1-193.76,190.16c-5.56,2.88-11.16,5.68-16.84,8.32l-26.84-52.48c-122.92,21.2-212.04,42.96-274.72,61.44a963.0675,963.0675,0,0,0-4.04-146.16l414.24-171.44.6.6c.2.2.44.44.76.76l.96.96c.36.4.76.8,1.24,1.24,2.12,2.16,5.12,5.2,8.92,9.12l-2.64-12.64S2107.5948,1241.2,2161.235,1296.64Z"/></g><path class="cls-8" d="M1393.2227,1337.54c444.6795,418.6627,1048.0043-177.9977,665.639-624.9363C1613.8364,273.2429,990.7748,890.5815,1393.2227,1337.54Z"/><path class="cls-3" d="M1723.4494,1491.047c-120.3564,0-236.9311-50.0024-338.0468-145.2l-.6568-.6738c-95.9692-106.5845-141.3256-230.271-131.1621-357.688,9.0674-113.6792,61.7749-221.8555,148.4156-304.6045,86.4648-82.5806,196.35-129.5557,309.4067-132.2729,127.373-3.0909,250.4,50.1489,355.4687,153.8794l.6543.7031c91.3135,106.7334,133.6475,229.3823,122.4268,354.6875-10.0366,112.063-62.4463,218.4814-147.5757,299.6557-84.9292,80.9815-193.1055,127.605-304.5972,131.2769C1733.0051,1490.9664,1728.2151,1491.047,1723.4494,1491.047ZM1401.384,1329.56c222.395,209.0967,474.2383,157.4536,625.2539,13.4619,147.544-140.686,217.8809-395.4932,23.87-622.6367-221.37-218.2495-483.1373-163.9063-632.7515-21.0059C1266.6575,843.6886,1197.1311,1102.3873,1401.384,1329.56Z"/><g class="cls-6"><path class="cls-3" d="M1393.2184,1337.5251c377.785,368.2983,948.67-47.8315,742.0784-510.93,15.62,164.63-36.6062,186.3371-96.29,289.5074-178.3493,333.539-630.3947,255.109-770.91-46.415A456.6351,456.6351,0,0,0,1393.2184,1337.5251Z"/></g><path class="cls-12" d="M1723.44,1495.6393c-121.54,0-239.2017-50.4321-341.1841-146.4478l-.9229-.9448c-96.8359-107.5439-142.5927-232.4194-132.3291-361.1255,9.1578-114.8071,62.3658-224.0356,149.8218-307.561,87.2949-83.374,198.2666-130.8008,312.4707-133.5449,128.7989-2.9859,252.83,50.5761,358.8062,155.2026l.9179.9863c92.1363,107.6954,134.8462,231.5186,123.5108,358.0811-10.1343,113.1763-63.0444,220.63-148.9795,302.5708-85.75,81.7627-194.9951,128.8354-307.6172,132.5439C1733.1,1495.5612,1728.259,1495.6393,1723.44,1495.6393Zm-318.7671-169.2944c220.166,206.8676,469.3848,155.82,618.7964,13.352,146.001-139.2139,215.6128-391.3354,23.6743-616.1792C1827.9953,507.612,1568.96,561.318,1420.9275,702.7,1271.4206,845.4928,1202.6462,1101.4889,1404.6726,1326.3449Z"/><path class="cls-3" d="M1723.44,1495.6393c-121.54,0-239.2017-50.4321-341.1841-146.4478l-.9229-.9448c-96.8359-107.5439-142.5927-232.4194-132.3291-361.1255,9.1578-114.8071,62.3658-224.0356,149.8218-307.561,87.2949-83.374,198.2666-130.8008,312.4707-133.5449,128.7989-2.9859,252.83,50.5761,358.8062,155.2026l.9179.9863c92.1363,107.6954,134.8462,231.5186,123.5108,358.0811-10.1343,113.1763-63.0444,220.63-148.9795,302.5708-85.75,81.7627-194.9951,128.8354-307.6172,132.5439C1733.1,1495.5612,1728.259,1495.6393,1723.44,1495.6393Zm-318.7671-169.2944c220.166,206.8676,469.3848,155.82,618.7964,13.352,146.001-139.2139,215.6128-391.3354,23.6743-616.1792C1827.9953,507.612,1568.96,561.318,1420.9275,702.7,1271.4206,845.4928,1202.6462,1101.4889,1404.6726,1326.3449Z"/><path class="cls-13" d="M1484.4384,1410.7927c510.47,164.19,774.33-447.7753,363.837-675.617C1372.9806,507.9087,1031.9569,1106.1564,1484.4384,1410.7927Z"/><g class="cls-6"><path class="cls-14" d="M1942.782,804.9756c135.9912,268.77-115.5188,643.6011-528.3435,510.8179-36.5656-24.6192-67.9187-51.1622-94.4684-79.0259,34.3292,62.7856,88.0743,122.5928,164.4684,174.0259C1949.0955,1560.2466,2209.3921,1066.6235,1942.782,804.9756Z"/></g><path class="cls-3" d="M1696.467,1487.6168q-6.3977,0-12.7905-.22c-106.3989-3.66-209.8779-52.41-299.2529-140.9766l-.0659-.0683c-146.8189-147.72-191.5015-432.4414-24.0088-620.8447l1.538-1.46c96.4917-77.1094,227.107-110.3174,358.3423-91.1279,130.7837,19.1308,245.8228,87.8589,315.6153,188.5571,65.0683,99.2334,88.1665,209.3652,66.9751,318.7549-19.2066,99.1553-73.584,189.5532-153.11,254.5459C1876.1252,1454.9093,1786.655,1487.6168,1696.467,1487.6168ZM1402.06,1328.7008c196.4941,194.6948,409.2969,146.8555,531.8286,46.7163,140.8374-115.0927,213.9648-337.5244,81.228-539.9658-65.6811-94.7607-174.5483-159.6631-298.5058-177.7954-124.0186-18.1421-247.2681,12.9321-338.2862,85.2588C1221.0007,920.8053,1263.4665,1189.2282,1402.06,1328.7008Z"/><path class="cls-3" d="M1651.3157,1454.37c-55.293,0-112.9859-9.4361-171.7774-28.3448l-2.1557-.6933-1.88-1.2671c-109.5166-73.73-181.4942-169.9292-208.1568-278.1958a385.6415,385.6415,0,0,1,39.7364-284.7876c48.396-84.6655,125.8569-146.875,218.1152-175.166,102.5-31.4331,216.604-19.39,329.9805,34.8266l.8642.4444c96.6675,53.6548,163.44,131.68,193.0957,225.6372,26.8555,85.083,21.3257,178.8208-15.5664,263.95a400.4849,400.4849,0,0,1-204.082,206.6382C1774.58,1442.0333,1714.5188,1454.37,1651.3157,1454.37Zm-159.8194-58.1177c259.1211,82.3413,444.15-40.0049,512.7124-198.2031,62.2119-143.5474,35.8081-337.8858-163.2739-448.65-235.1025-112.1827-423.55-16.8067-506.0718,127.561C1250.0705,1025.3,1265.781,1243.1491,1491.4963,1396.2521Z"/><path class="cls-8" d="M2247.6866,998.441c18.4967,214.5585-194.984,251.1551-233.29,48.1009C1986.7565,822.3773,2214.9526,783.2309,2247.6866,998.441Z"/><g class="cls-6"><path class="cls-3" d="M2150.237,1180.1948c-63.9114,11.44-127.9487-54.7366-137.2869-144.41,61.177,81.844,121.5324-91.2735,118.0923-135.9885C2302.72,902.46,2268.0756,1161.7005,2150.237,1180.1948Z"/></g><path class="cls-3" d="M2135.2244,1196.7038c-56.2891,0-117.0533-43.8428-136.55-147.1949l-.1563-1.0083c-15.2759-123.8891,44.9316-198.1006,112.3-207.3755,60.8814-8.3789,134.6777,36.5113,152.688,154.91l.1221,1.0327c10.7153,124.2969-51.45,190.0977-113.7451,198.6377A108.0218,108.0218,0,0,1,2135.2244,1196.7038Zm-105.01-152.6246c17.4048,91.3648,70.4028,126.0743,115.3223,119.9219,47.6953-6.5381,94.9731-60.5347,86.2548-163.667-14.8706-96.582-70.8032-133.8208-116.6113-127.5073C2063.43,879.9508,2017.6877,941.0543,2030.2146,1044.0792Z"/><path class="cls-8" d="M2258.5664,1008.0739c14.8055,173.8885-144.66,204.0066-175.6687,39.7778C2059.3944,864.2656,2232.7318,831.7272,2258.5664,1008.0739Z"/><path class="cls-3" d="M2174.9558,1172.0968c-43.8306,0-91.7139-36.1865-107.7808-121.2768l-.1489-.9375c-13.3374-104.1968,33.8721-166.1524,87.4024-173.4986,47.7075-6.58,105.5786,31.15,119.9682,129.37l.1123.962c8.8184,103.5839-39.873,157.9638-88.8476,164.6557A79.2463,79.2463,0,0,1,2174.9558,1172.0968Zm-76.2476-126.7505c13.5669,71.0938,51.2354,98.5962,82.6221,94.3189,35.4834-4.8487,67.8955-50.9619,61.3355-129.7534-11.3282-76.3135-51.4087-106.2793-83.8868-101.8262C2120.9324,913.2809,2088.1955,962.09,2098.7082,1045.3463Z"/><g class="cls-11"><path class="cls-8" d="M1952.554,965.7646c-3.7747,90.5829-106.7947,87.8891-116.7307,9.0348C1828.9094,874.6419,1950.38,875.8553,1952.554,965.7646Z"/></g><g class="cls-11"><path class="cls-8" d="M1932.7018,1111.3006c-3.4452,34.5592-48.522,34.2513-48.2594-3.6451C1887.8874,1073.0993,1932.9641,1073.4073,1932.7018,1111.3006Z"/></g><g class="cls-11"><path class="cls-8" d="M1348.3143,1150.65c-137.6312-317.9038,195.637-445.4935,317.1813-400.7144C1448.8236,819.25,1384.6959,979.3242,1348.3143,1150.65Z"/></g><g class="cls-6"><path class="cls-3" d="M2083.7665,1087.897c-8.8271-22.9079-11.4024-48.3181-8.5863-72.8194,57.6605,105.9619,159.3692,28.0268,165.8675-59.7294C2307.2906,1116.7329,2156.1721,1236.7924,2083.7665,1087.897Z"/></g><path class="cls-3" d="M1990.1633,923.1784a27.2534,27.2534,0,0,1-5.85-.64c-21.6528-4.751-30.498-34.1333-32.6953-43.0249a16.0005,16.0005,0,0,1,31.06-7.7051h0c1.6919,6.7212,5.1611,14.5264,7.8686,18.1324a28.5062,28.5062,0,0,0,2.605-2.8882,16,16,0,1,1,25,19.9756C2008.0027,919.7287,1998.0149,923.1784,1990.1633,923.1784Z"/><g class="cls-6"><path class="cls-3" d="M1625.7145,1889.04,1511.235,1848l-46.32-68.56-28.4-42-73-107.92c-.56-5.72-1.04-11.6-1.36-17.72,0,0,66.32,14.84,109,77.84,19.84,29.32,23.56,62.12,15.16,78.92,31.92,36.36,53.898,84.4766,138.3594,118.52Z"/></g><path class="cls-8" d="M1329.4148,1571.7815s66.3285,14.8546,109.0026,77.87c27.7446,40.9695,23.9632,88.8659-.3343,90.1154S1336.5375,1706.2281,1329.4148,1571.7815Z"/><g class="cls-6"><path class="cls-3" d="M1438.0748,1739.76c-23.16,1.2-94.64-30.44-107.28-150.28,25.08,72.36,75.92,93.16,94.8,92.2,10.12-.52,16.72-9.16,18.88-22.08C1465.4347,1698,1460.4347,1738.6,1438.0748,1739.76Z"/></g><path class="cls-3" d="M1436.6526,1755.8029c-37.1973,0-115.8716-44.58-123.2154-183.1739l-1.1181-21.0717,20.5908,4.6118c2.9614.6616,73.0493,17.0166,118.7549,84.5093,21.5747,31.8579,28.2617,70.93,16.2646,95.017-6.0278,12.1045-16.6064,19.4141-29.0234,20.0489C1438.1736,1755.7833,1437.4192,1755.8029,1436.6526,1755.8029Zm-89.0845-160.6983c13.7329,105.791,75.8594,128.6963,89.1748,128.6963.1831,0,.354-.0049.5176-.01.7593-.0391,1.5942-1.4991,2.0264-2.3633,4.8559-9.751,3.728-36.4527-14.1187-62.8052C1401.24,1623.2858,1368.7644,1604.37,1347.5681,1595.1046Z"/><path class="cls-3" d="M2262.0041,1693.7228a12.0039,12.0039,0,0,1-10.813-17.19c25.5787-53.3423-10.93-97.5757-34.9707-119.1968-46.0888-41.4527-107.83-57.5611-130.1928-43.7647a12.0012,12.0012,0,1,1-12.6074-20.4248c38.0664-23.4936,112.871,4.9927,158.85,46.3452,49.3995,44.4263,64.1822,98.1592,40.5616,147.417A11.9987,11.9987,0,0,1,2262.0041,1693.7228Z"/><path class="cls-3" d="M1979.7776,2059.7042a12.361,12.361,0,0,1-1.9751-.1611,12.0043,12.0043,0,0,1-9.878-13.8037c19.1065-115.3662-34.7412-167.8369-68.54-188.8477-46.6919-29.0283-109.126-31.372-145.2222-5.4687a11.9977,11.9977,0,1,1-13.9941-19.4922c44.2432-31.7578,116.5308-29.8389,171.8872,4.58,66.1743,41.1328,95.1685,118.8232,79.5459,213.1543A12.0011,12.0011,0,0,1,1979.7776,2059.7042Z"/><path class="cls-3" d="M1750.7642,2104.8853c3.9984,2.4414,8.8769,5.5835,13.4314,8.2495,4.6313,2.7636,9.3335,5.4126,14.0942,7.9028,9.5532,4.9023,19.2981,9.3628,29.5416,12.4023a100.296,100.296,0,0,0,31.7639,4.1651l8.2471-.459,8.205-1.5259c1.383-.2685,2.8137-.4492,4.1894-.7959l4.06-1.2915,8.38-2.5342.2271-.0708a1.7191,1.7191,0,0,1,1.5582,2.9981c-2.36,1.8506-4.7589,3.74-7.2467,5.5591l-3.7537,2.7588c-1.3135.8056-2.7093,1.46-4.0765,2.2-2.75,1.45-5.553,2.8955-8.418,4.248l-9.0076,3.01a98.0191,98.0191,0,0,1-38.2043,2.9882,122.7338,122.7338,0,0,1-36.8756-10.2539,90.3078,90.3078,0,0,1-8.5053-4.2846,89.1589,89.1589,0,0,1-8.1347-4.9195,91.4332,91.4332,0,0,1-15.185-12.2021,12.0042,12.0042,0,0,1,14.7266-18.7476Z"/><path class="cls-3" d="M1496.3879,2059.2212c-.0073-.1709.459.437.727.7324l1.0711,1.1939c.6525.84,1.5674,1.65,2.3273,2.5048a70.9039,70.9039,0,0,0,5.1941,4.8951,97.8737,97.8737,0,0,0,11.87,8.7329,112.5751,112.5751,0,0,0,28.5791,12.3388c10.3491,3.1861,21.496,4.458,32.8327,5.6983l17.2924.8227c5.8075-.11,11.69-.1049,17.6844.0391l.1245.0024a1.7332,1.7332,0,0,1,.57,3.3545q-8.4136,3.1715-17.1252,5.9522c-5.8508,1.5771-11.83,2.8149-17.8552,4.1089-12.1527,1.6552-24.7132,2.893-37.4781,1.2939-12.6861-1.3574-25.7794-4.4531-37.6446-11.0669a77.5439,77.5439,0,0,1-16.5637-12.0605,61.2489,61.2489,0,0,1-7.04-7.8028c-1.0675-1.4526-2.1082-2.8491-3.075-4.4726-.4986-.8081-.95-1.5283-1.42-2.4487-.4913-.962-.841-1.5821-1.524-3.0591a12,12,0,0,1,21.4538-10.7593Z"/><path class="cls-15" d="M2454.9436,1064.5407a12.9824,12.9824,0,0,1-11.2134-19.5264l31.6382-54.1919a30.7743,30.7743,0,0,0-3.5986-36.2793,193.7959,193.7959,0,0,1-49.9927-128.4692c-.8228-105.8692,84.5727-193.6573,190.3638-195.6958,1.2793-.0244,2.5512-.0367,3.8256-.0367a194.2,194.2,0,0,1,194.17,197.3389c-1.6675,105.3418-88.7867,191.05-194.1895,191.05l-1.6748-.0073a194.4173,194.4173,0,0,1-48.7036-6.6138,29.1,29.1,0,0,0-7.5586-.9961,29.9632,29.9632,0,0,0-15.0806,4.104l-81.4453,47.5513A12.9546,12.9546,0,0,1,2454.9436,1064.5407Z"/><path class="cls-3" d="M2615.9665,643.3224a181.2182,181.2182,0,0,1,181.1914,184.1528c-1.56,98.4912-82.8857,178.2764-181.2133,178.2764-.5176,0-1.04-.0024-1.56-.0073a181.1576,181.1576,0,0,1-45.4517-6.1719,42.13,42.13,0,0,0-10.9228-1.438,42.92,42.92,0,0,0-21.626,5.874l-81.4453,47.5513,31.6382-54.1919a43.89,43.89,0,0,0-5.1709-51.521,180.4153,180.4153,0,0,1-46.65-119.873c-.7666-98.7232,78.9258-180.7154,177.6343-182.6172,1.1963-.022,2.3852-.0342,3.5766-.0342m0-25.96c-1.3574,0-2.7124.0122-4.0771.0391-112.8638,2.1753-203.97,95.83-203.0933,208.7744a206.77,206.77,0,0,0,53.34,137.0654,17.8423,17.8423,0,0,1,2.0239,21.0352l-31.6406,54.1943a25.9607,25.9607,0,0,0,35.5078,35.5078l81.4453-47.5512a16.9449,16.9449,0,0,1,8.5376-2.334,16.13,16.13,0,0,1,4.1919.5517,207.54,207.54,0,0,0,51.96,7.0582l1.7823.0073c112.456,0,205.3906-91.4356,207.17-203.8257a207.1754,207.1754,0,0,0-207.1485-210.5225Z"/><g class="cls-16"><path class="cls-8" d="M2602.8763,657.6284a181.2151,181.2151,0,0,1,184.7665,184.1185,179.2884,179.2884,0,0,1-25.721,89.7246,180.8606,180.8606,0,0,0-149.5306-288.1154c-64.3927,1.24-120.6723,36.5752-151.8233,88.3913C2492.9419,687.8154,2544.5861,658.75,2602.8763,657.6284Z"/></g><g class="cls-17"><path class="cls-18" d="M2642.93,967.6865a181.1,181.1,0,0,1-45.4523-6.1744,37.7331,37.7331,0,0,0-6.6792-.8864c-26.9981-1.785-51.1391-16.29-67.6029-37.7614-4.0555-5.289-8.6778-10.0178-13.245-15.0778a180.3716,180.3716,0,0,1-23.3168-209.7872,180.6309,180.6309,0,0,0-5.6915,247.3311c12.8512,14.3447,15.5271,35.0954,5.8164,51.7276l-31.8207,54.5016,81.4456-47.5511a42.9605,42.9605,0,0,1,32.7655-4.3791,181.1041,181.1041,0,0,0,45.2363,6.1166c68.1593.5854,128.3358-37.1907,159.74-93.0836A180.8284,180.8284,0,0,1,2642.93,967.6865Z"/></g><path class="cls-8" d="M2549.886,763.9723h0c18.5139-18.5138,48.5307-15.1965,67.0447,3.3174l2.8814,2.8815,2.8815-2.8815c18.5139-18.5139,48.5308-21.8313,67.0447-3.3174h0a47.4076,47.4076,0,0,1,0,67.0446l-2.8815,2.8816L2628.65,892.1057a12.498,12.498,0,0,1-17.6749,0l-58.2073-58.2072-2.8815-2.8815A47.4077,47.4077,0,0,1,2549.886,763.9723Z"/><g class="cls-16"><path class="cls-19" d="M2555.9457,789.4757c5.6983-7.8463,16.757-8.2165,20.0981-5.79s-2.3,6.7307-7.9988,14.577-9.2955,16.2634-12.6366,13.837S2550.2474,797.322,2555.9457,789.4757Z"/></g><g class="cls-16"><path class="cls-19" d="M2591.3332,773.3027a5.3423,5.3423,0,0,1-9.48,3.6865c-1.3444-1.899-.1455-5.0381,3.0189-6.27C2588.037,769.49,2591.0415,770.9943,2591.3332,773.3027Z"/></g></svg>