<svg id="Layer_1" data-name="Layer 1" xmlns="http://www.w3.org/2000/svg" xmlns:xlink="http://www.w3.org/1999/xlink" width="2723" height="3101" viewBox="0 0 2723 3101"><defs><style>.cls-1{fill:none;}.cls-2{clip-path:url(#clip-path);}.cls-3{fill:#ec1c24;}.cls-4{fill:#ec1d24;}.cls-5{fill:#ec1e24;}.cls-6{fill:#ec1f24;}.cls-7{fill:#ec2024;}.cls-8{fill:#ed2124;}.cls-9{fill:#ed2224;}.cls-10{fill:#ed2324;}.cls-11{fill:#ed2424;}.cls-12{fill:#ed2524;}.cls-13{fill:#ed2624;}.cls-14{fill:#ed2724;}.cls-15{fill:#ed2824;}.cls-16{fill:#ed2924;}.cls-17{fill:#ed2a24;}.cls-18{fill:#ee2a24;}.cls-19{fill:#ee2b24;}.cls-20{fill:#ee2c24;}.cls-21{fill:#ee2d24;}.cls-22{fill:#ee2e24;}.cls-23{fill:#ee2f24;}.cls-24{fill:#ee3024;}.cls-25{fill:#ee3124;}.cls-26{fill:#ee3224;}.cls-27{fill:#ee3225;}.cls-28{fill:#ef3325;}.cls-29{fill:#ef3425;}.cls-30{fill:#ef3525;}.cls-31{fill:#ef3625;}.cls-32{fill:#ef3725;}.cls-33{fill:#ef3825;}.cls-34{fill:#ef3925;}.cls-35{fill:#ef3a25;}.cls-36{fill:#ef3b25;}.cls-37{fill:#ef3c25;}.cls-38{fill:#f03d25;}.cls-39{fill:#f03e25;}.cls-40{fill:#f03f25;}.cls-41{fill:#f04025;}.cls-42{fill:#f04125;}.cls-43{fill:#f04225;}.cls-44{fill:#f04325;}.cls-45{fill:#f04425;}.cls-46{fill:#f04525;}.cls-47{fill:#f14625;}.cls-48{fill:#f14725;}.cls-49{fill:#f14825;}.cls-50{fill:#f14925;}.cls-51{fill:#f14a25;}.cls-52{fill:#f14b25;}.cls-53{fill:#f14c25;}.cls-54{fill:#f14d25;}.cls-55{fill:#f14e25;}.cls-56{fill:#f24f25;}.cls-57{fill:#f25025;}.cls-58{fill:#f25125;}.cls-59{fill:#f25225;}.cls-60{fill:#f25325;}.cls-61{fill:#f25425;}.cls-62{fill:#f25525;}.cls-63{fill:#f25625;}.cls-64{fill:#f25725;}.cls-65{fill:#f35825;}.cls-66{fill:#f35925;}.cls-67{fill:#f35a25;}.cls-68{fill:#f35c25;}.cls-69{fill:#f35d25;}.cls-70{fill:#f35e26;}.cls-71{fill:#f35f26;}.cls-72{fill:#f36026;}.cls-73{fill:#f46126;}.cls-74{fill:#f46226;}.cls-75{fill:#f46426;}.cls-76{fill:#f46526;}.cls-77{fill:#f46626;}.cls-78{fill:#f46726;}.cls-79{fill:#f46826;}.cls-80{fill:#f46a26;}.cls-81{fill:#f56b26;}.cls-82{fill:#f56c26;}.cls-83{fill:#f56d26;}.cls-84{fill:#f56f26;}.cls-85{fill:#f57026;}.cls-86{fill:#f57126;}.cls-87{fill:#f57226;}.cls-88{fill:#f67426;}.cls-89{fill:#f67526;}.cls-90{fill:#f67626;}.cls-91{fill:#f67726;}.cls-92{fill:#f67926;}.cls-93{fill:#f67a26;}.cls-94{fill:#f67b26;}.cls-95{fill:#f77d26;}.cls-96{fill:#f77e26;}.cls-97{fill:#f77f26;}.cls-98{fill:#f78126;}.cls-99{fill:#f78226;}.cls-100{fill:#f78426;}.cls-101{fill:#f78526;}.cls-102{fill:#f88626;}.cls-103{fill:#f88826;}.cls-104{fill:#f88927;}.cls-105{fill:#f88a27;}.cls-106{fill:#f88c27;}.cls-107{fill:#f88d27;}.cls-108{fill:#f98f27;}.cls-109{fill:#f99027;}.cls-110{fill:#f99227;}.cls-111{fill:#f99327;}.cls-112{fill:#f99427;}.cls-113{fill:#f99627;}.cls-114{fill:#f99727;}.cls-115{fill:#fa9927;}.cls-116{fill:#fa9a27;}.cls-117{fill:#fa9c27;}.cls-118{fill:#fa9d27;}.cls-119{fill:#fa9f27;}.cls-120{fill:#faa027;}.cls-121{fill:#fba227;}.cls-122{fill:#fba327;}.cls-123{fill:#fba527;}.cls-124{fill:#fba627;}.cls-125{fill:#fba827;}.cls-126{fill:#fbaa27;}.cls-127{fill:#fcab27;}.cls-128{fill:#fcad27;}.cls-129{fill:#fcae27;}.cls-130{fill:#fcb027;}.cls-131{fill:#fcb127;}.cls-132{fill:#fcb327;}.cls-133{fill:#fdb528;}.cls-134{fill:#fdb628;}.cls-135{fill:#fdb828;}.cls-136{fill:#fdb928;}.cls-137{fill:#fdbb28;}.cls-138{fill:#febd28;}.cls-139{fill:#febe28;}.cls-140{fill:#fec028;}.cls-141{fill:#fec228;}.cls-142{fill:#fec328;}.cls-143{fill:#fec528;}.cls-144{fill:#ffc728;}.cls-145{fill:#ffc828;}.cls-146{fill:#ffca28;}.cls-147{opacity:0.5;}.cls-148{fill:#fff;}.cls-149{opacity:0.3;}.cls-150{fill:#371a45;}.cls-151{fill:#ffd553;}.cls-152{opacity:0.25;}.cls-153{opacity:0.35;}.cls-154{fill:#0af;}.cls-155{opacity:0.6;}.cls-156{fill:#d25658;}.cls-157{fill:#6bd6f0;}.cls-158{opacity:0.2;}.cls-159{opacity:0.7;}.cls-160{fill:#111a28;}.cls-161{fill:#22a7f0;}</style><clipPath id="clip-path"><path class="cls-1" d="M94.9877,2833.11c304.2433-132.0381,401.7675,78.5621,594.7022-5.1693s143.3477-307.3481,143.3477-307.3481-129.4627-188.9515-322.3975-105.22S399.231,2701.072,94.9877,2833.11Z"/></clipPath></defs><title>hero-svg</title><g class="cls-2"><polygon class="cls-3" points="94.988 2833.11 136.764 2911.672 94.988 2911.672 94.988 2833.11"/><polygon class="cls-3" points="94.988 2823.337 141.961 2911.672 136.764 2911.672 94.988 2833.11 94.988 2823.337"/><polygon class="cls-3" points="94.988 2813.565 147.157 2911.672 141.961 2911.672 94.988 2823.337 94.988 2813.565"/><polygon class="cls-3" points="94.988 2803.792 152.354 2911.672 147.157 2911.672 94.988 2813.565 94.988 2803.792"/><polygon class="cls-3" points="94.988 2794.019 157.551 2911.672 152.354 2911.672 94.988 2803.792 94.988 2794.019"/><polygon class="cls-3" points="94.988 2784.246 162.748 2911.672 157.551 2911.672 94.988 2794.019 94.988 2784.246"/><polygon class="cls-3" points="94.988 2774.474 167.944 2911.672 162.748 2911.672 94.988 2784.246 94.988 2774.474"/><polygon class="cls-4" points="94.988 2764.701 173.141 2911.672 167.944 2911.672 94.988 2774.474 94.988 2764.701"/><polygon class="cls-4" points="94.988 2754.928 178.338 2911.672 173.141 2911.672 94.988 2764.701 94.988 2754.928"/><polygon class="cls-4" points="94.988 2745.155 183.534 2911.672 178.338 2911.672 94.988 2754.928 94.988 2745.155"/><polygon class="cls-4" points="94.988 2735.383 188.731 2911.672 183.534 2911.672 94.988 2745.155 94.988 2735.383"/><polygon class="cls-4" points="94.988 2725.61 193.928 2911.672 188.731 2911.672 94.988 2735.383 94.988 2725.61"/><polygon class="cls-5" points="94.988 2715.837 199.125 2911.672 193.928 2911.672 94.988 2725.61 94.988 2715.837"/><polygon class="cls-5" points="94.988 2706.064 204.321 2911.672 199.125 2911.672 94.988 2715.837 94.988 2706.064"/><polygon class="cls-5" points="94.988 2696.292 209.518 2911.672 204.321 2911.672 94.988 2706.064 94.988 2696.292"/><polygon class="cls-6" points="94.988 2686.519 214.715 2911.672 209.518 2911.672 94.988 2696.292 94.988 2686.519"/><polygon class="cls-6" points="94.988 2676.746 219.912 2911.672 214.715 2911.672 94.988 2686.519 94.988 2676.746"/><polygon class="cls-6" points="94.988 2666.973 225.108 2911.672 219.912 2911.672 94.988 2676.746 94.988 2666.973"/><polygon class="cls-7" points="94.988 2657.2 230.305 2911.672 225.108 2911.672 94.988 2666.973 94.988 2657.2"/><polygon class="cls-7" points="94.988 2647.428 235.502 2911.672 230.305 2911.672 94.988 2657.2 94.988 2647.428"/><polygon class="cls-7" points="94.988 2637.655 240.699 2911.672 235.502 2911.672 94.988 2647.428 94.988 2637.655"/><polygon class="cls-8" points="94.988 2627.882 245.895 2911.672 240.699 2911.672 94.988 2637.655 94.988 2627.882"/><polygon class="cls-8" points="94.988 2618.11 251.092 2911.672 245.895 2911.672 94.988 2627.882 94.988 2618.11"/><polygon class="cls-8" points="94.988 2608.337 256.289 2911.672 251.092 2911.672 94.988 2618.11 94.988 2608.337"/><polygon class="cls-9" points="94.988 2606.21 98.157 2604.525 261.486 2911.672 256.289 2911.672 94.988 2608.337 94.988 2606.21"/><polygon class="cls-9" points="98.157 2604.525 102.209 2602.371 266.682 2911.672 261.486 2911.672 98.157 2604.525"/><polygon class="cls-10" points="102.209 2602.371 106.26 2600.216 271.879 2911.672 266.682 2911.672 102.209 2602.371"/><polygon class="cls-10" points="106.26 2600.216 110.311 2598.062 277.076 2911.672 271.879 2911.672 106.26 2600.216"/><polygon class="cls-11" points="110.311 2598.062 114.362 2595.908 282.273 2911.672 277.076 2911.672 110.311 2598.062"/><polygon class="cls-11" points="114.362 2595.908 118.413 2593.753 287.469 2911.672 282.273 2911.672 114.362 2595.908"/><polygon class="cls-12" points="118.413 2593.753 122.465 2591.599 292.666 2911.672 287.469 2911.672 118.413 2593.753"/><polygon class="cls-12" points="122.465 2591.599 126.516 2589.445 297.863 2911.672 292.666 2911.672 122.465 2591.599"/><polygon class="cls-13" points="126.516 2589.445 130.567 2587.291 303.06 2911.672 297.863 2911.672 126.516 2589.445"/><polygon class="cls-13" points="130.567 2587.291 134.618 2585.136 308.256 2911.672 303.06 2911.672 130.567 2587.291"/><polygon class="cls-14" points="134.618 2585.136 138.669 2582.982 313.453 2911.672 308.256 2911.672 134.618 2585.136"/><polygon class="cls-14" points="138.669 2582.982 142.721 2580.828 318.65 2911.672 313.453 2911.672 138.669 2582.982"/><polygon class="cls-15" points="142.721 2580.828 146.772 2578.674 323.847 2911.672 318.65 2911.672 142.721 2580.828"/><polygon class="cls-15" points="146.772 2578.674 150.823 2576.519 329.043 2911.672 323.847 2911.672 146.772 2578.674"/><polygon class="cls-16" points="150.823 2576.519 154.874 2574.365 334.24 2911.672 329.043 2911.672 150.823 2576.519"/><polygon class="cls-17" points="154.874 2574.365 158.925 2572.211 339.437 2911.672 334.24 2911.672 154.874 2574.365"/><polygon class="cls-18" points="158.925 2572.211 162.977 2570.057 344.634 2911.672 339.437 2911.672 158.925 2572.211"/><polygon class="cls-19" points="162.977 2570.057 167.028 2567.902 349.83 2911.672 344.634 2911.672 162.977 2570.057"/><polygon class="cls-19" points="167.028 2567.902 171.079 2565.748 355.027 2911.672 349.83 2911.672 167.028 2567.902"/><polygon class="cls-20" points="171.079 2565.748 175.13 2563.594 360.224 2911.672 355.027 2911.672 171.079 2565.748"/><polygon class="cls-21" points="175.13 2563.594 179.181 2561.44 365.421 2911.672 360.224 2911.672 175.13 2563.594"/><polygon class="cls-21" points="179.181 2561.44 183.233 2559.285 370.617 2911.672 365.421 2911.672 179.181 2561.44"/><polygon class="cls-22" points="183.233 2559.285 187.284 2557.131 375.814 2911.672 370.617 2911.672 183.233 2559.285"/><polygon class="cls-23" points="187.284 2557.131 191.335 2554.977 381.011 2911.672 375.814 2911.672 187.284 2557.131"/><polygon class="cls-23" points="191.335 2554.977 195.386 2552.823 386.208 2911.672 381.011 2911.672 191.335 2554.977"/><polygon class="cls-24" points="195.386 2552.823 199.437 2550.668 391.404 2911.672 386.208 2911.672 195.386 2552.823"/><polygon class="cls-25" points="199.437 2550.668 203.489 2548.514 396.601 2911.672 391.404 2911.672 199.437 2550.668"/><polygon class="cls-26" points="203.489 2548.514 207.54 2546.36 401.798 2911.672 396.601 2911.672 203.489 2548.514"/><polygon class="cls-27" points="207.54 2546.36 211.591 2544.206 406.995 2911.672 401.798 2911.672 207.54 2546.36"/><polygon class="cls-28" points="211.591 2544.206 215.642 2542.051 412.191 2911.672 406.995 2911.672 211.591 2544.206"/><polygon class="cls-29" points="215.642 2542.051 219.693 2539.897 417.388 2911.672 412.191 2911.672 215.642 2542.051"/><polygon class="cls-30" points="219.693 2539.897 223.745 2537.743 422.585 2911.672 417.388 2911.672 219.693 2539.897"/><polygon class="cls-30" points="223.745 2537.743 227.796 2535.588 427.782 2911.672 422.585 2911.672 223.745 2537.743"/><polygon class="cls-31" points="227.796 2535.588 231.847 2533.434 432.978 2911.672 427.782 2911.672 227.796 2535.588"/><polygon class="cls-32" points="231.847 2533.434 235.898 2531.28 438.175 2911.672 432.978 2911.672 231.847 2533.434"/><polygon class="cls-33" points="235.898 2531.28 239.949 2529.126 443.372 2911.672 438.175 2911.672 235.898 2531.28"/><polygon class="cls-34" points="239.949 2529.126 244.001 2526.971 448.569 2911.672 443.372 2911.672 239.949 2529.126"/><polygon class="cls-34" points="244.001 2526.971 248.052 2524.817 453.765 2911.672 448.569 2911.672 244.001 2526.971"/><polygon class="cls-35" points="248.052 2524.817 252.103 2522.663 458.962 2911.672 453.765 2911.672 248.052 2524.817"/><polygon class="cls-36" points="252.103 2522.663 256.154 2520.509 464.159 2911.672 458.962 2911.672 252.103 2522.663"/><polygon class="cls-37" points="256.154 2520.509 260.205 2518.354 469.355 2911.672 464.159 2911.672 256.154 2520.509"/><polygon class="cls-38" points="260.205 2518.354 264.257 2516.2 474.552 2911.672 469.355 2911.672 260.205 2518.354"/><polygon class="cls-39" points="264.257 2516.2 268.308 2514.046 479.749 2911.672 474.552 2911.672 264.257 2516.2"/><polygon class="cls-39" points="268.308 2514.046 272.359 2511.892 484.946 2911.672 479.749 2911.672 268.308 2514.046"/><polygon class="cls-40" points="272.359 2511.892 276.41 2509.737 490.142 2911.672 484.946 2911.672 272.359 2511.892"/><polygon class="cls-41" points="276.41 2509.737 280.461 2507.583 495.339 2911.672 490.142 2911.672 276.41 2509.737"/><polygon class="cls-42" points="280.461 2507.583 284.513 2505.429 500.536 2911.672 495.339 2911.672 280.461 2507.583"/><polygon class="cls-43" points="284.513 2505.429 288.564 2503.275 505.733 2911.672 500.536 2911.672 284.513 2505.429"/><polygon class="cls-44" points="288.564 2503.275 292.615 2501.12 510.93 2911.672 505.733 2911.672 288.564 2503.275"/><polygon class="cls-45" points="292.615 2501.12 296.666 2498.966 516.126 2911.672 510.93 2911.672 292.615 2501.12"/><polygon class="cls-46" points="296.666 2498.966 300.717 2496.812 521.323 2911.672 516.126 2911.672 296.666 2498.966"/><polygon class="cls-47" points="300.717 2496.812 304.769 2494.658 526.52 2911.672 521.323 2911.672 300.717 2496.812"/><polygon class="cls-48" points="304.769 2494.658 308.82 2492.503 531.717 2911.672 526.52 2911.672 304.769 2494.658"/><polygon class="cls-49" points="308.82 2492.503 312.871 2490.349 536.913 2911.672 531.717 2911.672 308.82 2492.503"/><polygon class="cls-50" points="312.871 2490.349 316.922 2488.195 542.11 2911.672 536.913 2911.672 312.871 2490.349"/><polygon class="cls-51" points="316.922 2488.195 320.973 2486.041 547.307 2911.672 542.11 2911.672 316.922 2488.195"/><polygon class="cls-52" points="320.973 2486.041 325.025 2483.886 552.503 2911.672 547.307 2911.672 320.973 2486.041"/><polygon class="cls-53" points="325.025 2483.886 329.076 2481.732 557.7 2911.672 552.503 2911.672 325.025 2483.886"/><polygon class="cls-54" points="329.076 2481.732 333.127 2479.578 562.897 2911.672 557.7 2911.672 329.076 2481.732"/><polygon class="cls-55" points="333.127 2479.578 337.178 2477.423 568.094 2911.672 562.897 2911.672 333.127 2479.578"/><polygon class="cls-56" points="337.178 2477.423 341.229 2475.269 573.29 2911.672 568.094 2911.672 337.178 2477.423"/><polygon class="cls-57" points="341.229 2475.269 345.281 2473.115 578.487 2911.672 573.29 2911.672 341.229 2475.269"/><polygon class="cls-58" points="345.281 2473.115 349.332 2470.961 583.684 2911.672 578.487 2911.672 345.281 2473.115"/><polygon class="cls-59" points="349.332 2470.961 353.383 2468.806 588.881 2911.672 583.684 2911.672 349.332 2470.961"/><polygon class="cls-60" points="353.383 2468.806 357.434 2466.652 592.958 2909.568 589.001 2911.672 588.881 2911.672 353.383 2468.806"/><rect class="cls-61" x="474.9277" y="2436.2112" width="4.5884" height="501.6432" transform="translate(-1205.6829 538.6107) rotate(-28.0015)"/><rect class="cls-62" x="478.9789" y="2434.057" width="4.5884" height="501.6432" transform="translate(-1204.2385 540.293) rotate(-28.0026)"/><rect class="cls-63" x="483.0301" y="2431.9027" width="4.5884" height="501.6432" transform="translate(-1202.7116 541.9104) rotate(-28.0015)"/><rect class="cls-64" x="487.0812" y="2429.7485" width="4.5884" height="501.6431" transform="translate(-1201.2617 543.5885) rotate(-28.0025)"/><rect class="cls-65" x="491.1325" y="2427.5942" width="4.5883" height="501.6432" transform="translate(-1199.7866 545.2468) rotate(-28.0028)"/><rect class="cls-66" x="495.1837" y="2425.4399" width="4.5883" height="501.6432" transform="translate(-1198.2764 546.8772) rotate(-28.0021)"/><rect class="cls-67" x="499.2348" y="2423.2857" width="4.5884" height="501.6432" transform="translate(-1196.8098 548.5423) rotate(-28.0026)"/><rect class="cls-68" x="503.286" y="2421.1314" width="4.5884" height="501.6432" transform="translate(-1195.2833 550.1595) rotate(-28.0015)"/><rect class="cls-69" x="507.3372" y="2418.9772" width="4.5884" height="501.6432" transform="translate(-1193.8384 551.8421) rotate(-28.0026)"/><rect class="cls-70" x="511.3884" y="2416.8229" width="4.5884" height="501.6433" transform="translate(-1192.3526 553.492) rotate(-28.0026)"/><rect class="cls-71" x="515.4396" y="2414.6686" width="4.5884" height="501.6432" transform="translate(-1190.8262 555.109) rotate(-28.0015)"/><rect class="cls-72" x="519.4908" y="2412.5144" width="4.5884" height="501.6432" transform="translate(-1189.3811 556.7917) rotate(-28.0026)"/><rect class="cls-73" x="523.542" y="2410.3601" width="4.5884" height="501.6432" transform="translate(-1187.8495 558.4042) rotate(-28.0014)"/><rect class="cls-74" x="527.5932" y="2408.2059" width="4.5884" height="501.6432" transform="translate(-1186.4096 560.0915) rotate(-28.0026)"/><rect class="cls-75" x="531.6444" y="2406.0516" width="4.5884" height="501.6432" transform="translate(-1184.9239 561.7414) rotate(-28.0026)"/><rect class="cls-76" x="535.6956" y="2403.8973" width="4.5884" height="501.6432" transform="translate(-1183.3979 563.3581) rotate(-28.0015)"/><rect class="cls-77" x="539.7468" y="2401.7431" width="4.5884" height="501.6432" transform="translate(-1181.9524 565.0411) rotate(-28.0026)"/><rect class="cls-78" x="543.798" y="2399.5888" width="4.5884" height="501.6432" transform="translate(-1180.4266 566.6578) rotate(-28.0015)"/><rect class="cls-79" x="547.8492" y="2397.4346" width="4.5884" height="501.6432" transform="translate(-1178.9809 568.3409) rotate(-28.0026)"/><rect class="cls-80" x="551.9004" y="2395.2803" width="4.5884" height="501.6433" transform="translate(-1177.4952 569.9908) rotate(-28.0026)"/><rect class="cls-81" x="555.9516" y="2393.126" width="4.5884" height="501.6432" transform="translate(-1175.9695 571.6073) rotate(-28.0015)"/><rect class="cls-82" x="560.0028" y="2390.9718" width="4.5884" height="501.6432" transform="translate(-1174.5237 573.2905) rotate(-28.0026)"/><rect class="cls-83" x="564.054" y="2388.8175" width="4.5884" height="501.6432" transform="translate(-1172.9982 574.9069) rotate(-28.0015)"/><rect class="cls-84" x="568.1052" y="2386.6633" width="4.5884" height="501.6432" transform="translate(-1171.5522 576.5903) rotate(-28.0026)"/><rect class="cls-85" x="572.1564" y="2384.509" width="4.5884" height="501.6433" transform="translate(-1170.0665 578.2402) rotate(-28.0026)"/><rect class="cls-86" x="576.2076" y="2382.3547" width="4.5884" height="501.6432" transform="translate(-1168.5412 579.8564) rotate(-28.0015)"/><rect class="cls-87" x="580.2588" y="2380.2005" width="4.5884" height="501.6432" transform="translate(-1167.095 581.5399) rotate(-28.0026)"/><rect class="cls-88" x="584.31" y="2378.0462" width="4.5884" height="501.6432" transform="translate(-1165.5699 583.1561) rotate(-28.0015)"/><rect class="cls-89" x="588.3612" y="2375.892" width="4.5884" height="501.6432" transform="translate(-1164.1235 584.8397) rotate(-28.0026)"/><rect class="cls-90" x="592.4124" y="2373.7377" width="4.5884" height="501.6433" transform="translate(-1162.6378 586.4896) rotate(-28.0026)"/><rect class="cls-91" x="596.4636" y="2371.5834" width="4.5884" height="501.6432" transform="translate(-1161.1129 588.1056) rotate(-28.0015)"/><rect class="cls-92" x="600.5148" y="2369.4292" width="4.5884" height="501.6432" transform="translate(-1159.6663 589.7893) rotate(-28.0026)"/><rect class="cls-93" x="604.566" y="2367.2749" width="4.5884" height="501.6432" transform="translate(-1158.1415 591.4052) rotate(-28.0015)"/><rect class="cls-94" x="608.6172" y="2365.1207" width="4.5884" height="501.6432" transform="translate(-1156.6948 593.0891) rotate(-28.0026)"/><rect class="cls-95" x="612.6684" y="2362.9664" width="4.5884" height="501.6433" transform="translate(-1155.209 594.739) rotate(-28.0026)"/><rect class="cls-96" x="616.7196" y="2360.8121" width="4.5884" height="501.6432" transform="translate(-1153.6845 596.3547) rotate(-28.0015)"/><rect class="cls-97" x="620.7708" y="2358.6579" width="4.5884" height="501.6432" transform="translate(-1152.2376 598.0387) rotate(-28.0026)"/><rect class="cls-98" x="624.822" y="2356.5036" width="4.5884" height="501.6432" transform="translate(-1150.7132 599.6544) rotate(-28.0015)"/><rect class="cls-99" x="628.8732" y="2354.3494" width="4.5884" height="501.6432" transform="translate(-1149.2661 601.3385) rotate(-28.0026)"/><rect class="cls-100" x="632.9244" y="2352.1951" width="4.5884" height="501.6433" transform="translate(-1147.7803 602.9884) rotate(-28.0026)"/><rect class="cls-101" x="636.9756" y="2350.0408" width="4.5884" height="501.6432" transform="translate(-1146.2562 604.6039) rotate(-28.0015)"/><rect class="cls-102" x="641.0268" y="2347.8866" width="4.5884" height="501.6432" transform="translate(-1144.8089 606.2881) rotate(-28.0026)"/><rect class="cls-103" x="645.078" y="2345.7323" width="4.5884" height="501.6432" transform="translate(-1143.2849 607.9035) rotate(-28.0015)"/><rect class="cls-104" x="649.1292" y="2343.5781" width="4.5884" height="501.6432" transform="translate(-1141.8374 609.5879) rotate(-28.0026)"/><rect class="cls-105" x="653.1804" y="2341.4238" width="4.5884" height="501.6433" transform="translate(-1140.3516 611.2378) rotate(-28.0026)"/><rect class="cls-106" x="657.2316" y="2339.2695" width="4.5884" height="501.6432" transform="translate(-1138.8278 612.853) rotate(-28.0015)"/><rect class="cls-107" x="661.2828" y="2337.1153" width="4.5884" height="501.6432" transform="translate(-1137.3801 614.5375) rotate(-28.0026)"/><rect class="cls-108" x="665.334" y="2334.961" width="4.5884" height="501.6432" transform="translate(-1135.8565 616.1527) rotate(-28.0015)"/><rect class="cls-109" x="669.3852" y="2332.8068" width="4.5884" height="501.6432" transform="translate(-1134.4087 617.8373) rotate(-28.0026)"/><rect class="cls-110" x="673.4364" y="2330.6525" width="4.5884" height="501.6433" transform="translate(-1132.9229 619.4872) rotate(-28.0026)"/><rect class="cls-111" x="677.4876" y="2328.4982" width="4.5884" height="501.6432" transform="translate(-1131.3995 621.1022) rotate(-28.0015)"/><rect class="cls-112" x="681.5388" y="2326.344" width="4.5884" height="501.6432" transform="translate(-1129.9514 622.7869) rotate(-28.0026)"/><rect class="cls-113" x="685.59" y="2324.1897" width="4.5884" height="501.6432" transform="translate(-1128.4282 624.4018) rotate(-28.0015)"/><rect class="cls-114" x="689.6412" y="2322.0355" width="4.5884" height="501.6432" transform="translate(-1126.98 626.0867) rotate(-28.0026)"/><rect class="cls-115" x="693.6924" y="2319.8812" width="4.5884" height="501.6432" transform="translate(-1125.4568 627.7015) rotate(-28.0015)"/><rect class="cls-116" x="697.7436" y="2317.727" width="4.5884" height="501.6432" transform="translate(-1124.0085 629.3864) rotate(-28.0026)"/><rect class="cls-117" x="701.7948" y="2315.5727" width="4.5884" height="501.6432" transform="translate(-1122.5227 631.0363) rotate(-28.0026)"/><rect class="cls-118" x="705.846" y="2313.4184" width="4.5884" height="501.6432" transform="translate(-1120.9998 632.651) rotate(-28.0015)"/><rect class="cls-119" x="709.8972" y="2311.2642" width="4.5884" height="501.6432" transform="translate(-1119.5513 634.3361) rotate(-28.0026)"/><rect class="cls-120" x="713.9484" y="2309.1099" width="4.5884" height="501.6432" transform="translate(-1118.0285 635.9507) rotate(-28.0015)"/><rect class="cls-121" x="717.9996" y="2306.9557" width="4.5884" height="501.6432" transform="translate(-1116.5798 637.6358) rotate(-28.0026)"/><rect class="cls-122" x="722.0508" y="2304.8014" width="4.5884" height="501.6432" transform="translate(-1115.094 639.2857) rotate(-28.0026)"/><polygon class="cls-123" points="608.609 2333.088 611.329 2331.641 613.036 2331.641 848.184 2773.849 844.133 2776.004 608.609 2333.088"/><polygon class="cls-124" points="618.233 2331.641 852.235 2771.695 848.184 2773.849 613.036 2331.641 618.233 2331.641"/><polygon class="cls-125" points="623.429 2331.641 856.286 2769.541 852.235 2771.695 618.233 2331.641 623.429 2331.641"/><polygon class="cls-126" points="628.626 2331.641 860.337 2767.387 856.286 2769.541 623.429 2331.641 628.626 2331.641"/><polygon class="cls-127" points="633.823 2331.641 864.389 2765.232 860.337 2767.387 628.626 2331.641 633.823 2331.641"/><polygon class="cls-128" points="639.02 2331.641 868.44 2763.078 864.389 2765.232 633.823 2331.641 639.02 2331.641"/><polygon class="cls-129" points="644.216 2331.641 872.491 2760.924 868.44 2763.078 639.02 2331.641 644.216 2331.641"/><polygon class="cls-130" points="649.413 2331.641 876.542 2758.77 872.491 2760.924 644.216 2331.641 649.413 2331.641"/><polygon class="cls-131" points="654.61 2331.641 880.593 2756.615 876.542 2758.77 649.413 2331.641 654.61 2331.641"/><polygon class="cls-132" points="659.807 2331.641 882.625 2750.663 882.625 2755.535 880.593 2756.615 654.61 2331.641 659.807 2331.641"/><polygon class="cls-133" points="665.003 2331.641 882.625 2740.89 882.625 2750.663 659.807 2331.641 665.003 2331.641"/><polygon class="cls-134" points="670.2 2331.641 882.625 2731.117 882.625 2740.89 665.003 2331.641 670.2 2331.641"/><polygon class="cls-135" points="675.397 2331.641 882.625 2721.344 882.625 2731.117 670.2 2331.641 675.397 2331.641"/><polygon class="cls-136" points="680.594 2331.641 882.625 2711.572 882.625 2721.344 675.397 2331.641 680.594 2331.641"/><polygon class="cls-137" points="685.79 2331.641 882.625 2701.799 882.625 2711.572 680.594 2331.641 685.79 2331.641"/><polygon class="cls-138" points="690.987 2331.641 882.625 2692.026 882.625 2701.799 685.79 2331.641 690.987 2331.641"/><polygon class="cls-139" points="696.184 2331.641 882.625 2682.253 882.625 2692.026 690.987 2331.641 696.184 2331.641"/><polygon class="cls-140" points="701.381 2331.641 882.625 2672.48 882.625 2682.253 696.184 2331.641 701.381 2331.641"/><polygon class="cls-141" points="706.577 2331.641 882.625 2662.708 882.625 2672.48 701.381 2331.641 706.577 2331.641"/><polygon class="cls-142" points="711.774 2331.641 882.625 2652.935 882.625 2662.708 706.577 2331.641 711.774 2331.641"/><polygon class="cls-143" points="716.971 2331.641 882.625 2643.162 882.625 2652.935 711.774 2331.641 716.971 2331.641"/><polygon class="cls-144" points="722.167 2331.641 882.625 2633.389 882.625 2643.162 716.971 2331.641 722.167 2331.641"/><polygon class="cls-145" points="727.364 2331.641 882.625 2623.617 882.625 2633.389 722.167 2331.641 727.364 2331.641"/><polygon class="cls-146" points="732.561 2331.641 882.625 2613.844 882.625 2623.617 727.364 2331.641 732.561 2331.641"/><polygon class="cls-146" points="882.625 2613.844 732.561 2331.641 882.625 2331.641 882.625 2613.844"/></g><g class="cls-147"><path class="cls-148" d="M235.61,2792.0948c140.5344-121.892,119.4777-264.2923,273.6461-331.1988,192.9337-83.7307,322.3967,105.2224,322.3967,105.2224s4.5122,20.3942,5.5158,51.1517c5.2027-54.5364-4.1308-96.6756-4.1308-96.6756s-129.463-188.9531-322.3966-105.2225C317.7046,2499.104,399.2323,2701.0725,94.9871,2833.11,147.5057,2810.3185,193.8579,2797.745,235.61,2792.0948Z"/></g><g class="cls-149"><path class="cls-150" d="M829.4607,2662.9131c-22.4862,35.7287-56.8294,68.4181-108.7767,90.9617-159.5724,69.2522-253.8841-62.8267-453.8629-35.8733-38.6481,40.9207-91.9221,80.4277-171.834,115.1081,304.2452-132.0371,401.7681,78.5616,594.7018-5.1691C776.5758,2790.2322,814.2646,2724.16,829.4607,2662.9131Z"/></g><path class="cls-151" d="M335.89,2733.19c177.126-76.8707,296.9767,45.6771,409.3006-3.07s71.7315-205.9467,71.7315-205.9467-87.0947-137.0179-199.4185-88.2707S513.016,2656.32,335.89,2733.19Z"/><path class="cls-150" d="M592.6247,2865.0829c-47.5195,0-91.9116-12.832-137.8247-26.0986-92.8882-26.8457-198.169-57.2608-362.1216,13.8867a16.4157,16.4157,0,1,1-13.0713-30.1172c164.1846-71.2549,215.43-165.4712,260.6421-248.5986,37.6148-69.1529,73.14-134.4727,163.855-173.84,84.1821-36.5429,170.3027-28.7548,249.04,22.5123,58.5474,38.1152,92.0386,86.4477,93.4351,88.4887a16.4,16.4,0,0,1,2.4829,5.7227c.5371,2.4145,12.9663,59.8852.8179,128.6841-16.34,92.5244-69.4727,160.7421-153.6548,197.2754C659.2385,2859.0478,625.1931,2865.078,592.6247,2865.0829Zm-306.75-89.3213c68.4058,0,125.1221,16.3916,178.04,31.68,74.6508,21.5723,139.1284,40.2,219.2407,5.4395,166.5649-72.2852,139.2138-259.3555,134.4507-285.6592-16.58-22.7051-132.3731-169.7388-300.43-96.79C436.8312,2465.3,405.44,2523.015,369.092,2589.8412c-33.7695,62.0874-70.7227,130.0318-151.2232,191.2915A437.4329,437.4329,0,0,1,285.8742,2775.7616Z"/><path class="cls-148" d="M1826.98,1535.2434s213.2679,89.6191,249.4193,145.0264-96.392,56.7584-96.392,56.7584"/><path class="cls-150" d="M1980.0075,1755.9618a18.9283,18.9283,0,0,1-15.0854-7.4927l-153.0274-201.7846a18.9336,18.9336,0,0,1,22.4195-28.8965c22.3779,9.4043,219.7216,93.56,257.9418,152.1362,13.4205,20.5664,9.9683,36.5991,4.712,46.4258-19.1748,35.8447-94.2237,39.3823-116.7676,39.6118ZM1886.863,1582.871,1989.2018,1717.82c35.4395-1.6772,69.5533-10.3027,74.3775-19.3335.459-.8569-.4517-3.9062-3.0371-7.8686C2042.4538,1662.893,1960.5446,1617.8539,1886.863,1582.871Z"/><path class="cls-148" d="M931.7033,1065.3518c-82.8457,62.09-158.7592,357.7335-139.5712,533.9724s330.7134,189.4354,508.8713,183.7193,177.54-408.54,175.2046-516.4475C1472.5611,1098.0952,1054.4629,973.3479,931.7033,1065.3518Z"/><g class="cls-152"><path class="cls-150" d="M1301.008,1783.0443c-178.1571,5.717-489.6685-7.5017-508.8919-183.7324A581.43,581.43,0,0,1,789.3,1524.745c49.2,38.6823,117.7544,4.2554,126.0211-43.0374,51.0379-291.97,159.7664-404.02,212.3623-442.3691,160.276,22.464,346.1191,115.1581,348.505,227.269C1478.5563,1374.5008,1479.1649,1777.3283,1301.008,1783.0443Z"/></g><path class="cls-150" d="M1238.904,1803c-215.2832,0-447.83-38.4741-465.5957-201.6284-18.562-170.4981,52.0776-480,147.041-551.1719,84.1992-63.1055,278.4424-32.9858,410.127,31.1084,104.707,50.9668,163.1836,116.6235,164.6606,184.8779,4.2749,197.6416-15.1807,530.0586-193.5254,535.7813C1281.0231,1802.6293,1260.0441,1803,1238.904,1803Zm-180.7959-750.1489c-49.0112,0-90.105,8.955-115.0488,27.6513h0c-76.4991,57.3316-150.5762,347.1094-132.1045,516.7725,17.2314,158.2788,314.05,172.4683,489.4409,166.8457,155.4394-4.99,159.38-381.7578,156.8848-497.1143-1.14-52.5781-53.3985-107.8515-143.3789-151.65C1230.3176,1074.67,1134.5851,1052.8515,1058.1081,1052.8515Zm-126.4038,12.5h0Z"/><path class="cls-148" d="M949.1983,1361.0489l-79.0675-31.52a31.9735,31.9735,0,0,0-42.81,21.6155c-16.6112,64.0734-42.1907,196.88,22.2838,224.0669,78.137,32.9479,105.8342-57.1869,119.5671-181.0234A31.95,31.95,0,0,0,949.1983,1361.0489Z"/><g class="cls-152"><path class="cls-150" d="M969.0108,1393.9892c-13.4381,123.8654-40.9389,214.091-119.1443,181.2938-32.1256-13.4218-41.9891-53.13-41.7361-97.4913,6.5152,12.6971,15.8576,22.529,28.9351,27.99,70.0184,29.3252,99.4252-39.917,114.3916-143.7041A31.6434,31.6434,0,0,1,969.0108,1393.9892Z"/></g><path class="cls-150" d="M880.0051,1599.5971c-11.58,0-23.9038-2.72-36.8946-8.1641-71.4672-29.9438-57.38-149.4922-32.9785-244.5068a49.4763,49.4763,0,0,1,66.1548-33.6328l79.1382,31.3427a49.5544,49.5544,0,0,1,31.0034,51.2525C974.07,1509.69,952.5954,1567.8,914.6242,1590.1977A67.0034,67.0034,0,0,1,880.0051,1599.5971Zm-21.9825-254.8023a14.4426,14.4426,0,0,0-6.582,1.604,14.2339,14.2339,0,0,0-7.4072,9.2334c-22.2217,86.5235-30.5811,185.4273,12.6025,203.5205,16.4209,6.8775,29.57,7.17,40.2075.8985,39.0528-23.0347,50.8985-132.1021,54.79-167.9419a14.4666,14.4666,0,0,0-9.0943-14.9341l-79.1381-31.34A14.6049,14.6049,0,0,0,858.0226,1344.7948Z"/><path class="cls-150" d="M920.1172,1065.7421l93.1616,43.0322c30.9912,14.5685,61.9092,28.9648,92.7051,44.6252a9.4743,9.4743,0,0,1-7.7539,17.2651l-.1587-.0641c-31.377-12.4616-63.5938-23.9923-95.6226-35.5713l-96.4355-34.1449-.1734-.0611a18.9581,18.9581,0,0,1,12.6563-35.7415C919.0405,1065.2751,919.6021,1065.5052,920.1172,1065.7421Z"/><path class="cls-148" d="M2351.3844,1008.7474c-30.72,104.7978-264.0287,298.8677-598.7291,308.5708a901.6265,901.6265,0,0,1-99.8743-2.5562l-29.868-127.5652-23.904-102.0994s51.9728-9.4668,123.0213-28.3531c56.1387-14.863,124.1573-35.5953,187.9173-62.1023,60.1141-24.9926,116.4886-55.1444,155.3971-90.4086,0,0,2.13-104.9868,31.9031-115.6843,36.3535-13.0643,63.2863,60.7774,63.2863,60.7774s82.6451-85.06,130.8783-76.8237C2363.1231,784.7148,2385.1342,893.82,2351.3844,1008.7474Z"/><g class="cls-153"><path class="cls-150" d="M2366.4374,923.0723a377.7524,377.7524,0,0,1-15.053,85.6751c-33.7013,114.9274-311.0323,337.2555-698.6034,306.0146l-53.772-229.6646s16.14-2.9347,42.6955-8.8041l62.8389,121.7282C2024.6741,1294.4712,2313.8487,1041.3133,2366.4374,923.0723Z"/></g><path class="cls-150" d="M1726.3063,1336.68q-36.826.0036-75.0244-3.03a18.9332,18.9332,0,1,1,3.042-37.7441c382.2437,30.7934,649.1309-191.0694,678.9014-292.51,21.2475-72.4048,19.17-144.4995-5.2954-183.667-10.1148-16.1938-23.4644-25.8032-39.6778-28.5644-26.4355-4.5093-82.6587,39.0283-114.1308,71.3769l-21.03,21.6187-10.3345-28.3277c-8.33-22.6684-27.4682-53.0176-38.8037-49.563-9.3872,6.6968-18.7475,53.335-19.6924,98.3374l-.1733,8.1568-6.0474,5.4834c-134.8608,122.1411-461.7651,182.9516-475.6152,185.4809a18.9336,18.9336,0,0,1-6.8042-37.2509c3.2373-.5909,320.1953-59.5508,451.0254-171.05,1.4819-38.8355,8.999-112.0289,44.1943-124.69,35.7154-12.876,61.7066,20.7105,75.774,46.499,30.2929-27.4878,85.6445-70.6054,127.9956-63.4008,26.9458,4.5874,49.5727,20.437,65.437,45.8325,30.3955,48.6621,34.0405,130.813,9.5117,214.3921C2335.2,1131.1327,2081.9533,1336.66,1726.3063,1336.68Zm377.815-530.5249"/><path class="cls-148" d="M2003.9051,1768.5072S1535.25,1949.75,1370.8115,1936.78c-164.3913-12.9695-341.4678-39.0033-351.1715-350.8883-6.0115-193.88,89.8874-384.637,163.35-501.173,44.7305-71.0011,81.13-114.5015,81.13-114.5015l452.5145,23.0991s1.7508,23.8566,5.3956,63.4278c2.2719,24.7083,5.302,55.5228,9.1363,90.4554,5.49,50.174,12.5905,108.8211,21.4887,170.1185,13.6328,93.9113,31.4779,193.9751,53.9616,279.0817C1816.32,1633.226,1970.8186,1643.3087,2003.9051,1768.5072Z"/><path class="cls-150" d="M1742.4707,1191.0521c16.9287,55.2027,26.6284,110.9992,36.4356,166.7566,9.9414,55.7062,18.8256,111.5253,30.3417,166.7011,2.9273,13.7823,6.05,27.5,9.2749,41.1859l5.0416,20.4553,1.2768,5.1086.0806.3107.0171-.0647.0146-.1269a.462.462,0,0,0-.0683-.2283.5594.5594,0,0,0-.1709-.163.47.47,0,0,1,.1416.0782c.0927.0708.0488.1318.1391.2948a6.8058,6.8058,0,0,1,.708.71c.232.4645,1.4185,1.2244,2.0728,1.8811,3.5473,2.8735,9.1577,6.0443,14.9292,8.98,5.8227,2.9761,12.102,5.8636,18.5132,8.7781,12.81,5.813,26.13,11.7566,39.3164,18.432,26.3305,13.2812,52.71,29.5129,74.7876,51.9641a185.8071,185.8071,0,0,1,28.7964,37.6086,182.4765,182.4765,0,0,1,18.11,43.9533l4.4141,16.4532-15.8887,6.0492c-74.5239,28.3734-149.3164,54.6784-224.9561,79.3994-75.6323,24.5795-151.9067,47.49-229.8291,65.8942-39.0136,9.0552-78.3447,17.2314-118.9672,21.8011-20.3,2.3151-40.8814,3.8483-62.4537,2.6172-5.5346-.1464-10.2661-.6652-15.288-1.0467l-14.9415-1.2976c-9.9731-.91-19.978-1.88-30.01-3.0823-40.044-4.6973-80.7593-11.7969-120.1416-26.2952a295.4819,295.4819,0,0,1-56.8384-27.9016,252.89,252.89,0,0,1-49.2358-40.9479,264.8765,264.8765,0,0,1-37.168-51.8072,320.1083,320.1083,0,0,1-24.9951-57.6654l-2.4976-7.4-2.0972-7.4817-4.1308-14.9744-3.3911-15.0836-1.6724-7.5446-1.3281-7.5781-2.6465-15.1581c-.7886-5.0579-1.35-10.1275-2.0337-15.191-1.4722-10.1282-2.3218-20.2643-3.1714-30.401a646.0751,646.0751,0,0,1,1.0645-122.09,759.2818,759.2818,0,0,1,22.6831-119.5526c21.1572-78.2165,53.1225-152.6715,90.7373-223.6065,18.8135-35.4627,37.6147-71.0865,60.4443-104.1846,22.8443-33.0231,48.1079-64.5813,81.3819-89.4049a6.4845,6.4845,0,0,1,9.7876,7.8656l-.1075.2356c-16.6259,36.6772-36.9262,70.0177-57.5439,103.1622-20.2661,33.3258-42.146,65.7239-60.4736,100.2014-36.6968,68.7879-67.4317,140.885-87.6807,215.6458a721.286,721.286,0,0,0-21.5649,113.5718,607.3385,607.3385,0,0,0-.9864,115.0763c.8057,9.5916,1.5991,19.1851,2.9883,28.6547.6421,4.7443,1.1621,9.52,1.8994,14.2395l2.4658,14.0931,1.2256,7.0471,1.55,6.9476,3.1153,13.8892,3.7719,13.6462,1.8994,6.8183,2.2608,6.6632a282.58,282.58,0,0,0,22.1264,51.1358,227.1321,227.1321,0,0,0,31.858,44.4873c24.7094,26.734,56.4257,46.2812,91.4331,59.0753,35.0341,12.9255,72.9,19.7095,111.3891,24.2,9.624,1.1548,19.3262,2.0959,29.065,2.9846l14.6435,1.2714c4.8438.37,9.9634.9088,14.3311.98,4.5678.0811,8.9746.58,13.6743.357l13.9722-.33c9.4506-.719,18.8671-1.2268,28.4155-2.4725,38.0981-4.2651,76.46-12.1844,114.5434-21.0382,76.23-17.9981,151.7847-40.6635,226.7408-65.03,74.8925-24.4708,149.541-50.7343,223.0224-78.7122l-11.4746,22.5012a143.6642,143.6642,0,0,0-37.251-64.65c-17.9028-18.2575-40.5444-32.4994-64.895-44.7559-12.1948-6.1767-24.8584-11.8383-37.9492-17.7752-6.5332-2.9737-13.1885-6.0193-20.0317-9.5118-6.8506-3.565-13.8379-7.1936-21.4356-13.19a54.9906,54.9906,0,0,1-5.7934-5.3027l-2.8931-3.222c-.9692-1.258-1.9263-2.7326-2.8272-4.1339-1.8042-2.3713-3.42-7.0984-4.3139-9.8859l-1.3623-5.2264-5.4395-20.9058c-3.4814-13.9588-6.8506-27.9346-10.0146-41.94-6.3941-27.9944-12.5171-56.0169-17.8955-84.16-5.4248-28.13-9.917-56.4038-13.9209-84.7229-7.8174-56.6528-13.1934-113.6553-9.6631-171.441a6.4137,6.4137,0,0,1,12.5366-1.4789Z"/><path class="cls-154" d="M1065.0679,2721.3863l-81.1024,12.6178a100.9339,100.9339,0,0,1-95.9736-38.789v0a605.9247,605.9247,0,0,1-119.64-302.849v0a100.9339,100.9339,0,0,1,43.5517-93.9083l67.8289-46.2173"/><g class="cls-155"><path class="cls-148" d="M894.15,2298.74l-67.1658,45.7743A111.5182,111.5182,0,0,0,778.8476,2448.35q2.4625,23.6269,6.6088,46.9661a603.8238,603.8238,0,0,1-17.1135-92.9618,100.9915,100.9915,0,0,1,43.5486-93.9072l67.842-46.2116Z"/></g><g class="cls-153"><path class="cls-150" d="M819.4468,2561.1174l.0025.0019a606.14,606.14,0,0,0,58.5375,94.1107A100.8819,100.8819,0,0,0,973.961,2694l75.6274-11.7712L879.7325,2252.2356l-14.4849,9.8706L991.19,2580.866l-81.128,12.633A100.8626,100.8626,0,0,1,819.4468,2561.1174Zm156.2769-19.3994L865.2476,2262.1062l4.5727-3.1165L981.19,2540.866Z"/></g><path class="cls-3" d="M1079.4037,2127.6333c-42.16-82.6046-186.63-191.9033-470.8119-11.5794a4.8682,4.8682,0,0,0,1.7424,8.8919c47.2881,8.4309,269.7493,46.3312,310.4772,162.0236"/><g class="cls-155"><path class="cls-148" d="M656.446,2128.8221c-20.3925-4.3623-36.7278-7.2032-46.1049-8.8793a4.859,4.859,0,0,1-1.7486-8.8823c284.1858-180.335,428.6522-71.0315,470.815,11.5788l-17.18,17.2481C1007.7241,2069.5125,879.5971,2005.3157,656.446,2128.8221Z"/></g><path class="cls-150" d="M920.8107,2305.9081a18.9384,18.9384,0,0,1-17.8589-12.6514c-13.6132-38.6718-69.873-109.4873-293.6987-149.2724l-2.2412-.398a23.8019,23.8019,0,0,1-8.5644-43.518c138.1494-87.6636,258.601-118.3448,357.9931-91.1768,87.6978,23.9624,127.002,85.0024,139.8291,110.1343a18.9352,18.9352,0,0,1-33.7305,17.2168C1052,2115.5907,1019.59,2065.4,946.46,2045.42c-80.2563-21.936-182.3144,1.5039-296.7016,67.7832C853.67,2155.3759,919.7072,2226.8163,938.67,2280.6835a18.9457,18.9457,0,0,1-17.8589,25.2246Z"/><path class="cls-156" d="M1292.4271,2666.8667c25.6777,89.1159-3.1873,272.4519-333.8826,335.0344a4.8682,4.8682,0,0,1-4.8051-7.682c28.7587-38.4731,163.2372-223.2866,113.9-335.5781"/><path class="cls-3" d="M958.5529,3001.9163a4.8815,4.8815,0,0,1-4.7986-7.7034c14.7134-19.7071,57.1833-77.811,88.4672-144.9054,29.5907-63.3878,49.16-134.8377,25.9147-189.4548-.1551-.3971-.3576-.8105-.5129-1.2076l1.3617.0429,223.4243,8.17c7.2073,25.016,10.126,57.4555,3.2364,92.5709C1278.1269,2849.392,1196.4412,2956.8694,958.5529,3001.9163Z"/><g class="cls-153"><path class="cls-150" d="M1042.2215,2849.3075c29.5907-63.3878,49.16-134.8377,25.9147-189.4548.288-.3779.5606-.7872.8488-1.1647l223.4243,8.17c7.2073,25.016,10.126,57.4555,3.2364,92.5709C1242.3382,2804.665,1161.5237,2840.1919,1042.2215,2849.3075Z"/></g><path class="cls-150" d="M957.5588,3020.9276a23.81,23.81,0,0,1-18.98-38.0468c37.0581-49.58,154.646-218.94,111.7261-316.6236a18.9337,18.9337,0,1,1,34.6679-15.2343c43.6719,99.3969-39.0429,244.3286-94.7436,324.8706,127.0752-29.5118,216.7578-82.1534,260.5322-153.2959,42.2363-68.6426,28.6426-132.5391,23.4717-150.4883a18.9334,18.9334,0,1,1,36.3867-10.4834c8.0225,27.8369,21.3916,101.1865-27.6074,180.8154-54.2139,88.11-162.1973,148.0176-320.9473,178.0615A24,24,0,0,1,957.5588,3020.9276Zm-2.5293-37.6318a.0363.0363,0,0,0-.022.0049A.0363.0363,0,0,1,955.03,2983.2958Z"/><path class="cls-148" d="M2628.3836,1830.4674s-74.3143,472.7257-686.58,764.7295c-521.6228,248.7409-882.2611,126.1935-882.2611,126.1935A726.3854,726.3854,0,0,1,874.23,2252.2142s80.0889-149.9542,297.5415-301.6128c7.4792-5.2067,15.1479-10.4607,22.9575-15.6679,84.9171-56.7062,189.2891-112.9859,316.1447-160.9833q44.8715-17.04,93.58-32.518c1.2781-.4264,2.5562-.8048,3.8332-1.1833,131.0216-41.3226,250.9181-62.0555,358.7927-68.9661,3.4553-.2369,6.8633-.4259,10.2712-.6154C2393.7019,1647.3788,2628.3836,1830.4674,2628.3836,1830.4674Z"/><path class="cls-3" d="M2316.1932,2349.3915A1751.3916,1751.3916,0,0,0,2047.291,1668.71c376.0146-2.5124,586.5669,161.76,586.5669,161.76S2592.4044,2094.2431,2316.1932,2349.3915Z"/><g class="cls-155"><path class="cls-148" d="M2626.063,1859.8c5.8447-21.9531,7.7954-34.3311,7.7954-34.3311s-210.5517-164.2718-586.5674-161.759q13.224,19.8926,25.879,40.119C2391.9029,1708.2,2585.9507,1831.682,2626.063,1859.8Z"/></g><path class="cls-150" d="M2303.301,2387.0775l-5.7813-34.5629c-40.5078-242.2266-130.0024-468.7647-265.9961-673.32l-19.4018-29.1821,35.0415-.2344c298.0517-2.0581,494.8925,99.856,565.7177,143.7378a70.025,70.025,0,0,1,30.9156,78.2691c-21.7212,80.43-95.8741,289.3237-314.7559,491.5161ZM2082.3683,1687.9a1756.7811,1756.7811,0,0,1,246.3184,623.5083c192.0776-187.6953,258.5425-375.4053,278.5523-449.4946a32.401,32.401,0,0,0-14.3018-36.211C2527.6955,1785.2831,2350.8522,1693.66,2082.3683,1687.9Z"/><path class="cls-150" d="M1307.1608,2770.5126c-154.6118,0-244.436-29.9268-248.2129-31.2109l-4.6923-1.5918-3.3106-3.6914a744.8272,744.8272,0,0,1-190.1611-481.3746l-.1074-4.956,2.3364-4.37c1.8945-3.5425,47.688-87.9932,162.4023-194.7534,105.1782-97.8907,290.9741-233.7622,578.8111-325.1612,150.9106-47.9223,299.9365-72.6928,442.9394-73.6255l10.2295-.0659,5.6616,8.5156c138.6353,208.53,229.9829,439.4263,271.5161,686.2842l3.76,10.2027-9.2725,8.63c-105.0341,97.0533-230.7544,180.82-373.6694,248.9722-272.5879,129.9976-501.0889,157.7759-644.7754,158.1909C1309.468,2770.5077,1308.301,2770.5126,1307.1608,2770.5126Zm-231.4819-65.6641c20.0366,5.918,104.9634,28.5352,236.8555,27.7832,139.3969-.6445,361.2548-27.9736,626.5576-154.4946,136.0547-64.88,256.018-144.1479,356.7163-235.6811-40.7031-235.0757-127.6733-455.2344-258.63-654.7022-136.0742,1.9946-277.8174,26.1157-421.4917,71.7407-504.3823,160.1612-694.17,458.9453-716.914,497.5489a706.9485,706.9485,0,0,0,176.9067,447.8051Z"/><path class="cls-150" d="M968.3693,2754.1454a119.6858,119.6858,0,0,1-95.4712-47.5,624.8261,624.8261,0,0,1-123.3764-312.312A119.7117,119.7117,0,0,1,801.2429,2282.81l67.8271-46.2159a18.9341,18.9341,0,0,1,21.3233,31.294l-67.8272,46.2158a81.8925,81.8925,0,0,0-35.3833,76.2915,586.9869,586.9869,0,0,0,115.9009,293.3887,81.8963,81.8963,0,0,0,77.9712,31.5088l81.1035-12.6172a18.9359,18.9359,0,0,1,5.82,37.4219l-81.1035,12.6171A120.972,120.972,0,0,1,968.3693,2754.1454Z"/><g class="cls-153"><circle class="cls-150" cx="1866.1056" cy="2163.668" r="260.4418" transform="translate(-983.3747 1953.2596) rotate(-45)"/></g><circle class="cls-3" cx="1871.8633" cy="2131.4816" r="234.2028"/><g class="cls-155"><path class="cls-148" d="M2102.2164,2093.9683c-1.5958-5.08-3.3769-10.106-5.3534-15.1155-47.5026-120.2891-183.57-179.2705-303.8594-131.7673-106.054,41.8832-164.4557,152.5558-144.2473,260.606-37.3125-116.4595,21.6919-243.4551,137.0357-289.04,120.3256-47.5138,256.3551,11.4789,303.9065,131.794A236.6254,236.6254,0,0,1,2102.2164,2093.9683Z"/></g><g class="cls-153"><path class="cls-150" d="M1957.8911,2349.2947c-120.268,47.5019-256.3334-11.4328-303.8573-131.7449a233.1408,233.1408,0,0,1-14.5941-114.9492,236.1791,236.1791,0,0,0,13.78,50.9744c47.5241,120.3126,183.567,179.3146,303.88,131.79a234.0652,234.0652,0,0,0,146.34-189.02C2119.5779,2201.8953,2061.44,2308.3758,1957.8911,2349.2947Z"/></g><path class="cls-150" d="M1871.8044,2384.7558a253.7539,253.7539,0,1,1,93.0639-17.8418h0A252.9414,252.9414,0,0,1,1871.8044,2384.7558Zm.1074-468.66a215.3254,215.3254,0,1,0,79.0454,415.5981h0a215.3808,215.3808,0,0,0-79.0454-415.5981Z"/><circle class="cls-157" cx="1873.4313" cy="2127.8657" r="148.9961" transform="translate(-955.9129 1947.9534) rotate(-45)"/><g class="cls-149"><path class="cls-148" d="M1928.1726,2266.4618a148.9885,148.9885,0,0,1-193.311-83.8536,147.3721,147.3721,0,0,1-10.38-50.48c.5432,1.5618,1.1317,3.1021,1.7416,4.6867a149.0133,149.0133,0,0,0,287.5445-58.9779A149.0123,149.0123,0,0,1,1928.1726,2266.4618Z"/></g><g class="cls-153"><path class="cls-150" d="M2024.0438,2135.5556c-.8481-2.41-1.6963-4.82-2.6555-7.2308a148.9986,148.9986,0,0,0-287.5534,51.8357,149.0028,149.0028,0,1,1,290.2089-44.6049Z"/></g><path class="cls-150" d="M1873.3913,2295.8861a168.2976,168.2976,0,0,1-156.145-106.3208c-34.021-86.1181,8.3642-183.86,94.4848-217.8833,86.1182-34.0258,183.8648,8.3618,217.8858,94.4849,34.0185,86.1206-8.3667,183.8623-94.4873,217.8833A167.8081,167.8081,0,0,1,1873.3913,2295.8861Zm-.1147-298.0859a130.0638,130.0638,0,1,0,47.9418,251.03h0c66.6993-26.35,99.5264-102.0508,73.1788-168.7525A130.2855,130.2855,0,0,0,1873.2766,1997.8Z"/><g class="cls-158"><path class="cls-148" d="M2359.6817,1808.4143c-1.13-35.5711-75.0284-63.4473-116.84-63.12-43.3063.3386-69.36,7.8011-69.5469,28.762-.2608,29.2717,33.4693,39.5895,73.5606,41.11C2275.2069,1816.2415,2361.0762,1852.3135,2359.6817,1808.4143Z"/></g><g class="cls-158"><path class="cls-148" d="M2468.2152,1853.35c-2.3226-30.8316-39.5968-59.5532-59.8834-61.8815-21.012-2.4115-33.2912,2.4148-32.3365,20.53,1.3331,25.2972,18.2265,36.3261,37.77,40.1449C2427.5859,1854.8436,2471.0817,1891.4,2468.2152,1853.35Z"/></g><g class="cls-153"><path class="cls-150" d="M1055.0523,2686.3781s360.6323,122.5518,882.2241-126.16c529.7046-252.6136,656.731-640.4358,681.3672-740.4822q3.761,2.5122,6.5967,4.4952c-7.6783-5.3448-20.43-13.7909-38.1446-24.0863-71.9189,163.443-243.1176,426.4124-637.4365,614.4654-246.2939,117.4414-456.6894,152.1075-610.1709,155.9851-196.0278,4.9518-372.2778-120.85-427.8027-308.9148q-.4578-1.5564-.9107-3.114c-2.1679-7.4634-4.1821-14.9836-6.1084-22.5281-.9985-3.1177-2.0483-6.2055-2.9809-9.3579q-.4578-1.5564-.9107-3.114c-.3222-1.1109-.603-2.2364-.92-3.3484.2344-.3443.4541-.67.6934-1.0181v-.0012c-14.3067,20.8642-20.8154,33.0371-20.8154,33.0371a725.293,725.293,0,0,0,22.8369,165.6134A725.6413,725.6413,0,0,0,1055.0523,2686.3781Z"/></g><path class="cls-3" d="M1029.4729,2557.8246c-107.38,42.3884-246.6837-.838-246.6837-.838s.2732-.4886.8027-1.34c8.0932-13.7428,77.8622-128,178.6656-167.8766,96.7515-38.2473,202.1355,1.0129,220.9021,8.6561,1.9255.7915,2.9355,1.2434,2.9355,1.2434S1136.1371,2515.7466,1029.4729,2557.8246Z"/><g class="cls-155"><path class="cls-148" d="M1191.11,2402.6524s-3.0529,7.193-9.2142,18.6227c-35.9052-12.43-124.7726-36.2724-207.3927-3.6041-81.0706,32.0576-142.0631,112.2313-167.0721,149.5-12.4219-2.94-19.66-5.1769-19.66-5.1769s.3-.489.81-1.36c8.1063-13.7216,77.8807-127.978,178.6924-167.857,96.7435-38.2555,202.0992,1.0041,220.868,8.6486C1190.1016,2402.2222,1191.11,2402.6524,1191.11,2402.6524Z"/></g><g class="cls-153"><path class="cls-150" d="M1029.4729,2557.8246c-107.38,42.3884-246.6837-.838-246.6837-.838s.2732-.4886.8027-1.34L1183.16,2396.4266c1.9255.7915,2.9355,1.2434,2.9355,1.2434S1136.1371,2515.7466,1029.4729,2557.8246Z"/></g><path class="cls-150" d="M918.9089,2595.4662c-74.7461,0-137.8028-19.1724-141.7383-20.3931l-22.49-6.98,11.6479-20.4688c3.0811-5.4126,76.7359-133.0713,188.9917-177.4536,112.7442-44.5728,233.374,7.9395,238.45,10.1953l16.9946,7.5513-7.2436,17.1264c-2.1655,5.12-54.3335,125.896-167.1069,170.41C998.423,2590.4491,957.134,2595.4662,918.9089,2595.4662Zm-106.106-50.354c43.2349,9.6753,135.6543,24.3506,209.7095-4.8828,74.0967-29.2456,119.3335-99.1553,137.2559-132.1387-35.6836-11.79-116.6968-31.8969-190.525-2.7051C895.027,2434.7265,837.7077,2508.52,812.8029,2545.1122ZM782.7834,2556.99h0Z"/><g class="cls-152"><path class="cls-150" d="M1563.0358,2171.5567c14.91,21.3951,117.9088,195.159,35.0267,264.2193-72.5635,60.4931-206.4719,50.5525-277.0466-44.541-46.6234-62.9072-56.09-135.4234-53.44-190.8988,3.1248-64.8,14.7214-126.6188-17.6081-175.1362-17.2292-25.939-45.63-48.9907-78.1961-74.5986,7.4792-5.2067,15.1479-10.4607,22.9575-15.6679,84.9171-56.7062,189.2891-112.9859,316.1447-160.9833,24.7556,11.9283,48.47,27.2645,68.3975,46.9556,78.574,77.96,80.7523,234.446,27.4067,297.8738C1585.6605,2143.7721,1563.0358,2171.5567,1563.0358,2171.5567Z"/></g><path class="cls-148" d="M1610.37,2124.2225c14.91,21.3952,117.9088,195.159,35.0268,264.2193-72.5636,60.4932-206.472,50.5525-277.0467-44.5409-46.6234-62.9072-56.09-135.4234-53.44-190.8988,3.1248-64.8,14.7214-126.6188-17.6081-175.1362-36.7787-55.2859-180.2949-75.9241-251.6751-157.765-42.0807-48.1858-64.6106-135.7065-60.7774-242.9183a756.1585,756.1585,0,0,1,11.0292-102.668c26.5064-151.5633,100.6324-325.8946,237.1432-480.2517,0,0,54.2458,216.98,111.0941,409.7717,39.6181,134.381,80.5142,257.0244,105.0815,286.04,3.2658,3.8817,6.2484,6.0589,8.8983,6.4379a338.6074,338.6074,0,0,1,94.1008,27.2645c26.8854,12.3062,52.8718,28.4947,74.4091,49.795,78.5739,77.96,80.7522,234.446,27.4066,297.8738C1632.9946,2096.438,1610.37,2124.2225,1610.37,2124.2225Z"/><g class="cls-152"><path class="cls-150" d="M1671.8568,2348.8232a83.4664,83.4664,0,0,1-26.46,39.6186c-72.5636,60.4932-206.472,50.5525-277.0467-44.5409-46.6234-62.86-56.09-135.4234-53.44-190.8988,3.1248-64.8,14.674-126.6188-17.6081-175.0889-36.7787-55.2859-180.2949-75.9714-251.7225-157.7649-42.0333-48.1858-64.5632-135.8013-60.73-242.9657,0-.4733.0474-.9939.0474-1.4671.1421-3.5974.3316-7.1949.5211-10.84.1884-3.3132.3779-6.6743.6148-10.0822.0948-1.5144.19-3.0768.3317-4.6386.6148-8,1.3255-16.0937,2.2246-24.2825.4264-3.8817.899-7.81,1.3728-11.7861.3317-2.7458.71-5.5383,1.0886-8.3309.2843-2.3193.616-4.6386.9465-6.9579.5212-3.6448,1.0886-7.29,1.6571-10.9819.6622-4.1654,1.3729-8.3782,2.0825-12.59q.071-.3554.1421-.7107a97.5032,97.5032,0,0,1,7.1949-7.3838s14.295,6.4847,44.8252,14.39c48.5175,12.591,138.0259,28.8737,276.29,28.6842l-2.1784-71.7107a36.2228,36.2228,0,0,1,22.1058-34.4594,34.9034,34.9034,0,0,1,10.2712-2.651l85.9109-9.1825,124.2047,300.7137-115.3053-2.8405-86.7164-2.13a36.2619,36.2619,0,0,1-33.9382-35.0748l-1.0886-36.0211c-75.8767,16.9933-201.4542,21.4424-282.7265-5.3488,6.0578,74.8823,26.9328,135.3754,59.3086,172.4858,71.38,81.8408,178.4032,37.9146,250.8246,122.3585,45.2505,52.825,21.5834,145.7413,18.46,210.542-2.651,55.4754-24.0935,136.8431,22.4837,199.7029C1457.4331,2399.7074,1590.7255,2392.3236,1671.8568,2348.8232Z"/></g><g class="cls-152"><path class="cls-150" d="M1909.9476,994.642A503.7535,503.7535,0,0,1,1731.1666,1147.2a502.56,502.56,0,0,1-439.5561,6.8846c-63.3618-29.7525-139.1324-1.3764-167.9948,62.3957-41.5285,91.7584-65.8914,182.6265-75.7174,265.0405-30.53-7.905-44.8252-14.39-44.8252-14.39a97.5032,97.5032,0,0,0-7.1949,7.3838c26.5064-151.5633,100.6324-325.8946,237.1432-480.2517l1.42,14.5319c18.1294-24.7556,29.6786-38.5774,29.6786-38.5774l452.5145,23.0991s1.7508,23.8566,5.3956,63.4278C1778.169,1041.8813,1846.1876,1021.149,1909.9476,994.642Z"/></g><path class="cls-150" d="M1467.1729,1691.5013c24.5751-.3247,49.2724,3.6622,73.1005,10.8832,23.7964,7.26,46.98,17.4518,68.3179,31.6718a240.0406,240.0406,0,0,1,30.3858,23.9654,203.01,203.01,0,0,1,25.7812,29.9317c15.1074,21.4947,25.61,45.43,32.8955,69.8944a308.7533,308.7533,0,0,1,11.7969,75.0641,287.6534,287.6534,0,0,1-6.6382,75.8435c-5.8032,24.9719-14.91,50.1678-32.29,72.2992l-45.4932,55.1184.85-22.7942c3.811,5.5853,6.7554,10.4816,9.8389,15.6543,2.9883,5.119,5.9155,10.2429,8.706,15.4211q8.4229,15.5136,15.8594,31.5058a458.3482,458.3482,0,0,1,25.2148,66.4685c6.4722,23.0877,11.2208,47.2607,10.6226,72.87-.3442,12.75-1.9018,25.893-6.1182,38.8343a105.562,105.562,0,0,1-19.8559,36.1584l-3.4009,3.9911c-1.1792,1.2811-2.4927,2.42-3.74,3.6292-2.5318,2.279-5.0806,5.0073-7.6587,6.712-5.188,3.7463-10.22,7.7936-15.6079,11.1969-5.5371,3.1341-11.023,6.4087-16.65,9.3371l-17.4317,7.4915a210.5134,210.5134,0,0,1-73.53,12.4011,231.8071,231.8071,0,0,1-72.9908-12.41c-23.562-7.8211-45.4736-20.35-65.0073-35.6354-4.8877-3.8452-9.8559-7.5983-14.15-12.1155-4.38-4.4037-9.0771-8.5229-13.1494-13.2043l-11.8774-14.347c-3.899-4.8144-7.1118-9.94-10.6836-14.9072a294.02,294.02,0,0,1-31.8091-65.5414,324.5465,324.5465,0,0,1-15.022-70.7086,344.676,344.676,0,0,1-1.8115-35.92c-.0537-5.99.1733-11.97.3833-17.95l1.001-17.34c1.4721-22.9681,3.479-45.332,3.5229-66.8829-.0293-21.4588-1.9507-42.2364-9.0429-60.1764a48.8312,48.8312,0,0,0-2.8077-6.6278c-1.101-2.1125-1.936-4.38-3.2153-6.3861l-3.6645-6.117a57.9937,57.9937,0,0,0-3.7574-4.9548c-5.559-6.471-13.2641-12.6172-21.8774-18.1836-17.3926-11.1426-37.6587-20.4743-58.13-29.7919-41.05-18.6194-84.3457-36.93-123.8135-65.0012-19.6118-14.1681-38.2177-30.6213-53.2226-51.3965-14.7827-20.4724-25.0757-42.95-32.8589-65.7452a420.4234,420.4234,0,0,1-16.6675-69.5417,599.0893,599.0893,0,0,1-5.7812-70.3369c-.8667-46.8756,3.3276-93.48,10.9985-139.3377,15.918-91.6529,46.1792-180.2423,87.3486-263.169,20.9522-41.2347,42.4048-82.4823,68.8745-120.5816,26.648-37.829,56.8579-73.5914,95.3858-100.6653a6.4892,6.4892,0,0,1,9.4848,8.3081l-.0293.0537c-21.5332,41.1841-47.1215,77.4243-71.3525,114.931-24.4141,37.229-48.9355,74.6369-68.4521,114.8059-39.6582,79.8523-68.7305,165.1349-83.9331,252.699-7.3218,43.78-11.2793,88.1116-10.4664,132.1564a562.3282,562.3282,0,0,0,5.3663,65.4913,383.0245,383.0245,0,0,0,15.0415,62.8961c6.8505,20.1636,15.8422,39.4446,27.7417,55.8661,11.6308,16.2006,27.3925,30.4181,44.58,42.7875,34.7974,24.8376,75.7764,42.5122,117.3926,61.2921,20.8423,9.5392,42.1,19.12,63.0567,32.4823,10.4174,6.7926,20.8837,14.7022,30.1831,25.4755a96.4764,96.4764,0,0,1,6.5112,8.6309l5.11,8.4974c1.7334,2.8186,2.9736,5.8807,4.46,8.8214a78.0443,78.0443,0,0,1,3.84,9.0527,159,159,0,0,1,9.3189,37.204,262.0985,262.0985,0,0,1,2.2461,36.6022c-.0708,23.9257-2.1875,46.89-3.6035,69.2749l-.9644,16.6967c-.1807,5.3778-.3955,10.755-.3393,16.1322a306.6947,306.6947,0,0,0,1.6186,32.146,286.7444,286.7444,0,0,0,13.2275,62.4085c13.77,39.8645,36.6456,77.4975,69.2261,102.4756,16.1743,12.6336,34.2969,23.1183,53.9551,29.5923a194.016,194.016,0,0,0,60.7935,10.3271,172.8168,172.8168,0,0,0,60.227-10.0574l13.8916-5.9759c4.4238-2.34,8.689-4.9341,13.0737-7.34,4.2041-2.6556,8.01-5.8289,12.0728-8.6658,2.2046-1.4148,3.4277-3.0224,5.1489-4.5007.791-.7666,1.6651-1.4624,2.4024-2.2723l2.0947-2.5232c11.3818-13.2105,16.7505-31.532,17.0386-51.5045.5273-19.9268-3.3667-40.9394-9.18-61.5247a421.6624,421.6624,0,0,0-23.1372-60.8948q-6.9361-14.9039-14.795-29.3884c-2.6-4.8267-5.3125-9.5709-8.0517-14.2658-2.7222-4.5953-5.6787-9.4189-8.2764-13.222l-8.1323-11.9135,8.9819-10.8819,45.2442-54.8108c12.1313-15.3406,20.22-35.7855,24.8388-56.9653,9.1895-42.7027,6.1548-89.087-6.8579-130.9485-6.6235-20.9046-15.6079-40.9333-27.5732-58.55a176.2,176.2,0,0,0-19.9732-24.5563,201.1041,201.1041,0,0,0-24.5556-21.3068,370.42,370.42,0,0,0-57.4756-34.6429c-20.4443-10.0385-41.8579-18.54-64.1748-26.5119l-.044-.0158a6.4083,6.4083,0,0,1,2.07-12.4427Z"/><path class="cls-150" d="M1316.6213,2042.8588a14.2034,14.2034,0,0,1-14.0552-12.3c-22.09-163.4009,74.6753-240.6494,117.3047-266.2744,70.6665-42.4878,155.8325-46.4551,207.102-9.646A14.2,14.2,0,0,1,1610.41,1777.71c-41.6577-29.91-115.6347-25.315-175.9082,10.9155-37.8125,22.7319-123.623,91.44-103.7915,238.13a14.21,14.21,0,0,1-14.0893,16.1035Z"/><path class="cls-150" d="M1636.4209,2121.8425c-2,1.9025-3.3521,3.0353-5.0146,4.444-1.5748,1.3568-3.2105,2.5745-4.8292,3.8153-3.22,2.497-6.5771,4.729-9.9682,6.92a174.6528,174.6528,0,0,1-21.2671,11.5374,158.0736,158.0736,0,0,1-47.0068,13.1867c-16.3306,1.7889-33.3472,1.0931-48.938-4.3042-15.5591-5.2033-29.4532-14.42-39.1773-26.7157,15.5249,2.7026,29.3946,4.7833,42.9663,4.115a142.7376,142.7376,0,0,0,19.7559-1.7261,117.0216,117.0216,0,0,0,19.0869-4.1986,189.5942,189.5942,0,0,0,36.3037-15.224c5.9033-3.0151,11.58-6.5076,17.2779-9.9329l8.3544-5.3778,7.6685-5.1672,1.1646-.7843a18.9285,18.9285,0,0,1,23.623,29.4122Z"/><path class="cls-148" d="M1998.8128,769.2724h0a10.2121,10.2121,0,0,1-10.8428-9.54l-18.7658-293.5584a10.2122,10.2122,0,0,1,9.54-10.8428h0a107.1366,107.1366,0,0,1,113.7531,100.0836l6.3992,100.1044A107.1366,107.1366,0,0,1,1998.8128,769.2724Z"/><path class="cls-150" d="M1998.1569,771.3231a12.2649,12.2649,0,0,1-12.2143-11.4624l-18.7647-293.5571a12.2566,12.2566,0,0,1,11.4356-12.998,109.3,109.3,0,0,1,115.9106,101.98l6.3989,100.105a109.167,109.167,0,0,1-101.98,115.9082h0C1998.6794,771.3134,1998.4157,771.3231,1998.1569,771.3231Zm.6568-2.0507h0Zm-13.086-312.1338q-3.4167,0-6.853.22a8.1769,8.1769,0,0,0-7.644,8.6865l18.7646,293.5572a8.16,8.16,0,0,0,8.689,7.644,105.1078,105.1078,0,0,0,98.186-111.5967l-6.3989-100.105a105.1142,105.1142,0,0,0-104.7437-98.4057Z"/><g class="cls-153"><path class="cls-150" d="M2095.8953,608.5786l3.0115,46.9492a107.184,107.184,0,0,1-100.0989,113.7657,10.2348,10.2348,0,0,1-10.846-9.5616l-5.0142-78.037a10.2311,10.2311,0,0,0,9.6593,5.4535l6.96-.4647A107.0519,107.0519,0,0,0,2095.8953,608.5786Z"/></g><path class="cls-150" d="M1998.1447,788.2274a29.19,29.19,0,0,1-29.07-27.2827L1950.31,467.3827a29.176,29.176,0,0,1,27.2266-30.9448,126.0684,126.0684,0,0,1,133.855,117.7685l6.3989,100.105a126.0684,126.0684,0,0,1-117.7685,133.855l-.0049.0024Q1999.0761,788.2275,1998.1447,788.2274Zm.669-18.955h0Zm-10.1319-295.1807L2006.28,749.3944a88.3271,88.3271,0,0,0,73.7231-92.666l-6.3989-100.105a88.2259,88.2259,0,0,0-84.9219-82.5317Z"/><path class="cls-148" d="M1009.7766,517.2726h0a10.2122,10.2122,0,0,1,10.8428,9.54l18.7658,293.5584a10.2122,10.2122,0,0,1-9.54,10.8428h0A107.1366,107.1366,0,0,1,916.0922,731.13L909.693,631.0257A107.1367,107.1367,0,0,1,1009.7766,517.2726Z"/><path class="cls-150" d="M1022.8591,833.4667A109.1809,109.1809,0,0,1,914.0651,731.26l-6.3989-100.105a109.1672,109.1672,0,0,1,101.98-115.9082h0a12.2717,12.2717,0,0,1,13,11.4355l18.7646,293.56a12.2449,12.2449,0,0,1-11.4355,12.9981Q1026.4052,833.4667,1022.8591,833.4667ZM1009.905,519.2992a105.108,105.108,0,0,0-98.1861,111.5967l6.399,100.105a105.1036,105.1036,0,0,0,111.5991,98.186,8.1774,8.1774,0,0,0,7.6416-8.6865l-18.7647-293.56a8.17,8.17,0,0,0-8.6889-7.6416Z"/><g class="cls-153"><path class="cls-150" d="M1034.2027,738.93l5.1965,81.4393a10.2362,10.2362,0,0,1-9.5615,10.8466A107.0918,107.0918,0,0,1,916.1044,731.1479l-2.6988-42.1813a107.1764,107.1764,0,0,0,101.4159,56.5708l10.7126-.6867A10.33,10.33,0,0,0,1034.2027,738.93Z"/></g><path class="cls-150" d="M1022.925,850.3686a126.2313,126.2313,0,0,1-125.7275-118.03l-6.399-100.105a126.0684,126.0684,0,0,1,117.7686-133.855h.0049a29.1548,29.1548,0,0,1,30.9423,27.2192l18.7647,293.5645a29.1417,29.1417,0,0,1-27.2266,30.9448Q1026.9655,850.371,1022.925,850.3686ZM1002.31,537.1508a88.3272,88.3272,0,0,0-73.7232,92.666l6.3989,100.105a88.2261,88.2261,0,0,0,84.9219,82.5317Z"/><circle class="cls-148" cx="1504.3557" cy="643.2686" r="501.2684" transform="translate(-14.244 1252.1491) rotate(-45)"/><path class="cls-150" d="M1504.4142,1146.5673c-1.2353,0-2.4218-.0049-3.6572-.0147-277.5122-1.9848-501.67-229.37-499.685-506.8823,1.9751-276.2768,227.4-499.7,503.2251-499.7,1.2353,0,2.4218.0049,3.6572.0147,134.4311.9594,260.4443,54.2138,354.8218,149.9511s145.8252,222.4976,144.8632,356.9312C2005.6642,923.1444,1780.2394,1146.5673,1504.4142,1146.5673Zm-.1611-1002.5366c-131.9873,0-256.2842,50.9472-350.3784,143.7085C1058.9089,381.3549,1006.0842,506.35,1005.13,639.7c-.9522,133.3472,50.0781,259.0869,143.6963,354.05,93.6157,94.9658,218.6108,147.7905,351.96,148.7451,133.2251.92,259.0869-50.0757,354.05-143.6963,94.9658-93.6157,147.79-218.6108,148.7451-351.96.9522-133.3472-50.0781-259.0869-143.6963-354.0528-93.6157-94.9658-218.6132-147.79-351.96-148.7426C1506.7043,144.0355,1505.4738,144.0307,1504.2531,144.0307Z"/><g class="cls-153"><path class="cls-150" d="M2001.3034,577.4318a498.2,498.2,0,0,1,4.3174,69.4265c-2.0176,276.8275-228.03,499.6368-504.8565,497.6832-276.8277-2.0166-499.6362-228.029-497.6831-504.8557.0518-7.9609.2939-15.9274.7312-23.7706,32.0483,244.2481,240.0723,433.6088,493.3659,435.429C1766.044,1053.246,1986.9365,843.1449,2001.3034,577.4318Z"/></g><path class="cls-150" d="M1504.4606,1163.4716c-1.2793,0-2.5439-.0049-3.8232-.0147-138.9478-.9936-269.1919-56.0376-366.7407-154.99S983.174,778.496,984.1677,639.5507c.9936-138.9478,56.0376-269.1919,154.99-366.7407,98.9526-97.5464,230.0659-150.7813,368.916-149.729,138.9478.9936,269.1919,56.0351,366.7407,154.9878,97.5489,98.955,150.7227,229.9731,149.729,368.9184-.9936,138.9478-56.0376,269.1919-154.99,366.7407C1771.5139,1110.3759,1641.98,1163.4716,1504.4606,1163.4716ZM1504.258,160.935c-127.5171,0-247.6074,49.2236-338.5156,138.8427-91.7505,90.4468-142.7881,211.2085-143.7085,340.0415s48.3838,250.315,138.83,342.063c90.4468,91.7505,211.2085,142.7881,340.0415,143.7085,128.9966.7569,250.3125-48.3813,342.063-138.83,91.75-90.4468,142.7881-211.2085,143.7085-340.0415.92-128.8355-48.3838-250.315-138.8305-342.0655s-211.2085-142.7856-340.0415-143.706C1506.6237,160.94,1505.4372,160.935,1504.258,160.935Z"/><path class="cls-150" d="M2003.9162,659.716c.78,98.0876-30.3356,189.4057-84.1911,265.1846-40.3756,56.8117-207.4124,157.0059-414.63,160.517-192.1355,3.2555-367.7777-97.8018-409.0521-153.9639-55.0543-74.9125-87.6193-165.7239-88.4-263.8116-2.0649-259.5686,220.0907-368.9489,495.2157-371.1377S2001.8512,400.1474,2003.9162,659.716Z"/><path class="cls-150" d="M1495.7985,1096.7919c-194.6118.0073-366.3891-100.8618-408.8574-158.65-58.4936-79.5923-89.8193-173.0982-90.5933-270.41C995.34,541.02,1045.3591,442.9247,1145.02,376.1718c87.0947-58.34,210.8008-89.7949,357.749-90.9644,147-1.1987,271.1426,28.3155,359.1529,85.2588,100.708,65.1611,152.2827,162.4487,153.291,289.16h0c.7739,97.3144-29.06,191.3061-86.2818,271.8164C1889.2775,987.2411,1724.3,1093,1505.2858,1096.7113,1502.1242,1096.765,1498.9479,1096.7919,1495.7985,1096.7919Zm14.5557-789.021c-2.5244,0-4.9829.01-7.4048.0293-146.3794,1.1645-486.5649,38.5522-484.0088,359.751.7349,92.5317,30.5444,181.4721,86.2036,257.2119,38.9258,52.9639,206.3062,149.4263,390.8472,149.436,2.9761,0,5.9277-.0244,8.9136-.0757,208.3642-3.53,369.4311-104.8584,405.6128-155.7666,54.4482-76.6137,82.8393-166.018,82.102-258.55h0C1990.1076,343.9184,1660.4909,307.7709,1510.3542,307.7709Z"/><g class="cls-159"><ellipse class="cls-148" cx="1841.7387" cy="625.7421" rx="88.7086" ry="64.28" transform="translate(911.2037 2333.8578) rotate(-80.1852)"/></g><g class="cls-159"><ellipse class="cls-148" cx="1764.3951" cy="802.0863" rx="40.7165" ry="34.9411" transform="translate(462.411 2237.7986) rotate(-72.2428)"/></g><g class="cls-153"><path class="cls-160" d="M1905.105,418.3326c61.3581,57.6244,97.9619,137.1169,98.8052,241.3684.7815,98.1077-30.3537,189.42-84.1714,265.2-40.3882,56.8113-207.4408,157.0009-414.6543,160.533-73.166,1.26-143.9164-12.6331-205.8-33.438,254.6225-9.7707,458.091-132.73,508.1606-203.193,68.3583-96.1771,107.8443-212.0913,106.8365-336.5562A507.4753,507.4753,0,0,0,1905.105,418.3326Z"/></g><path class="cls-150" d="M1058.3547,457.6317l-29.729-23.4545,13.9648,11.1743-14.8681-9.9317c88.0029-131.7627,259.9584-208.3008,471.7724-209.99,210.4859-1.5894,383.2422,69.585,474.7827,195.4907a18.9305,18.9305,0,0,1-27.334,25.8887,19.7091,19.7091,0,0,1-3.0737-3.3179c-84.1968-116.0864-246.1011-181.8652-444.0723-180.1953-199.0722,1.5869-359.6606,71.99-440.5859,193.1543C1058.9406,456.8554,1058.655,457.2509,1058.3547,457.6317Zm-14.9439-11.6259h0Z"/><g class="cls-159"><path class="cls-148" d="M1120.7429,821.1679s-82.43-255.4258,54.7605-358.5653,335.739-104.3075,331.1974-91.5373c0,0-219.3806,54.9613-304.0014,229.4144C1137.4464,735.0045,1120.7429,821.1679,1120.7429,821.1679Z"/></g><path class="cls-148" d="M1820.6544,1377.92l13.5586,104.6665,10.5651,81.4165a42.4885,42.4885,0,0,1-33.6971,47.133c-14.0855,2.88-31.5772,6.2485-51.7131,9.7237-71.65,12.3643-177.0614,26.1839-283.0264,24.5609a42.5358,42.5358,0,0,1-41.7744-41.4769l-5.4642-216.1182a42.5306,42.5306,0,0,1,43.5936-43.6082c73.6083,1.8963,220.2862,4.3195,302.0037-3.2012A42.4489,42.4489,0,0,1,1820.6544,1377.92Z"/><path class="cls-148" d="M1469.44,1344.27l-85.9165,9.1646a36.224,36.224,0,0,0-32.3649,37.1246l6.5432,214.403a36.2239,36.2239,0,0,0,33.9429,35.0481l79.3824,4.9714"/><g class="cls-152"><path class="cls-150" d="M1469.44,1344.27l-85.9165,9.1646a36.224,36.224,0,0,0-32.3649,37.1246l6.5432,214.403a36.2239,36.2239,0,0,0,33.9429,35.0481l79.3824,4.9714"/></g><path class="cls-150" d="M1493.7868,1662.2826q-8.8514,0-17.7173-.1367a59.0543,59.0543,0,0,1-58.2031-57.771l-5.4688-216.13a59.2512,59.2512,0,0,1,60.73-60.7373c77.7637,1.9825,220.1441,4.2115,300.0391-3.1445a59.0162,59.0162,0,0,1,64.06,51.3989l24.126,186.0742a59.4629,59.4629,0,0,1-46.9189,65.6836C1749.4167,1640.7567,1623.6672,1662.2826,1493.7868,1662.2826Zm-22.19-301.3672a25.8253,25.8253,0,0,0-25.7813,26.4844l5.4688,216.13a25.7114,25.7114,0,0,0,25.3027,25.1928c132.8491,1.99,264.5337-20.393,331.1768-33.9575a25.9173,25.9173,0,0,0,20.4394-28.6328l-24.126-186.0742a25.6583,25.6583,0,0,0-27.8491-22.41c-81.5991,7.5122-225.459,5.2784-303.95,3.2764h0C1472.051,1360.9179,1471.8215,1360.9154,1471.5969,1360.9154Z"/><path class="cls-150" d="M1471.0451,1661.6967c-.354,0-.7056-.01-1.062-.0318l-79.3823-4.9731a52.7009,52.7009,0,0,1-49.6045-51.2207l-6.543-214.4019a53.1672,53.1672,0,0,1,47.2974-54.2529l85.9179-9.165a16.7129,16.7129,0,1,1,3.545,33.2373l-85.918,9.165a19.5951,19.5951,0,0,0-17.4292,19.9951l6.543,214.4043a19.4178,19.4178,0,0,0,18.2788,18.8745l79.3847,4.9732a16.7143,16.7143,0,0,1-1.0278,33.396Z"/><path class="cls-150" d="M1652.2414,1654.3578a16.7118,16.7118,0,0,1-16.67-15.74l-6.3916-109.5069-55.4468-37.4023a16.7046,16.7046,0,0,1-7.3291-12.7075l-9.0723-131.8872a16.7142,16.7142,0,0,1,33.35-2.295l8.5108,123.7427,55.5371,37.4634a16.7062,16.7062,0,0,1,7.3389,12.8809l6.8725,117.7636a16.7109,16.7109,0,0,1-15.71,17.6587Q1652.7321,1654.3577,1652.2414,1654.3578Z"/><path class="cls-161" d="M1808.1571,1477.8814c.69,6.6319-3.066,61.1371-3.066,61.1371l-37.7837,3.93c-26.0169,2.706-49.9095-22.0382-53.3657-55.2676s14.8328-62.361,40.85-65.067l37.7838-3.93S1807.0334,1467.0774,1808.1571,1477.8814Z"/><path class="cls-148" d="M1808.1469,1477.8843c.7043,6.6259-3.0366,61.14-3.0366,61.14s-.4293.0419-1.25.1185c.9817-15.7347,1.96-34.4119,1.5732-38.1157-1.102-10.8053-15.56-59.1914-15.56-59.1914s-20.238,2.1024-37.7844,3.93c-18.175,1.869-32.6093,16.7046-38.4888,36.7917-1.22-31.063,16.5161-57.3833,41.202-59.9343,17.5463-1.8285,37.7844-3.93,37.7844-3.93S1807.0447,1467.0791,1808.1469,1477.8843Z"/><path class="cls-150" d="M1763.4743,1557.3485c-31.6431,0-59.6191-29.39-63.6572-68.1982-4.26-40.9668,19.7436-77.1484,53.5034-80.6592l26.3818-2.7441a27.9091,27.9091,0,0,1,29.751,20.0244c11.7969,40.7373,12.5733,48.1909,12.8272,50.64v.0025c.205,1.9678.6836,6.5722-2.251,51.9433a27.8771,27.8771,0,0,1-25.0073,25.9864l-26.2452,2.7295A51.0454,51.0454,0,0,1,1763.4743,1557.3485Zm18.8037-123.3154-26.018,2.7051c-17.8785,1.86-30.7911,24.5166-28.1958,49.4751,2.5976,24.9585,19.9218,44.4067,37.7734,42.6123l25.8765-2.6929c1.9531-30.2563,2.4633-44.1308,2.3071-46.88C1793.6037,1475.5517,1790.3078,1461.78,1782.278,1434.0331Z"/><ellipse class="cls-161" cx="1798.8331" cy="1478.8512" rx="47.3619" ry="60.4919" transform="translate(-143.3378 194.0269) rotate(-5.938)"/><path class="cls-148" d="M1845.9313,1473.9538a75.1446,75.1446,0,0,1,.3035,11.832c-7.1868-27.1041-28.3339-45.8646-51.1868-43.5033-22.884,2.4071-39.7826,25.1881-41.1625,53.2465a76.9516,76.9516,0,0,1-2.1658-11.7959c-3.46-33.2216,14.8542-62.3556,40.8667-65.04C1818.5914,1415.9705,1842.4712,1440.7324,1845.9313,1473.9538Z"/><path class="cls-150" d="M1801.0988,1553.4276c-15.0879,0-29.602-6.521-41.3672-18.7036-12.2729-12.7124-20.1318-30.2929-22.1289-49.5068-1.9995-19.209,2.0728-38.0322,11.47-52.9956,10.0854-16.0694,25.0146-25.8911,42.0361-27.6611,17.0166-1.7847,33.6474,4.77,46.8262,18.4179,12.2729,12.7124,20.1318,30.293,22.1289,49.5069v-.0025c2,19.2114-2.0728,38.0347-11.47,52.9981-10.0854,16.0693-25.0146,25.8911-42.0361,27.6611A52.5977,52.5977,0,0,1,1801.0988,1553.4276Zm-4.6606-120.7446a23.063,23.063,0,0,0-2.3926.1245c-8.147.8472-15.5762,6.001-20.92,14.5142-6.0376,9.6142-8.6206,22.0288-7.2754,34.9585s6.4282,24.5483,14.314,32.7148c6.9824,7.2315,15.3271,10.7691,23.457,9.9,8.147-.8471,15.5762-6.001,20.92-14.5141,6.0376-9.6143,8.6206-22.0288,7.2754-34.9585v-.0025c-1.3452-12.9272-6.4282-24.5459-14.314-32.7124C1811.2038,1436.184,1803.8063,1432.683,1796.4382,1432.683Z"/><path class="cls-148" d="M1003.0684,1419.7953s113.0295,51.1582,381.8573,41.9237c0,0,49.2509,47.1987,0,86.189s-326.4385,61.4324-400.4828-18.4691C937.5635,1478.8512,1003.0684,1419.7953,1003.0684,1419.7953Z"/><g class="cls-152"><path class="cls-150" d="M1384.9169,1547.93c-49.227,38.9565-326.4158,61.3928-400.4943-18.5072-22.2942-24.0461-19.1694-49.9851-9.7026-70.6227a68.2556,68.2556,0,0,0,9.7026,13.2064c74.0785,79.9,351.2673,57.4637,400.4943,18.5078a68.0771,68.0771,0,0,0,12.4957-12.6384C1407.7323,1495.058,1416.2053,1523.1268,1384.9169,1547.93Z"/></g><path class="cls-150" d="M1189.7683,1599.9853c-62.7759,0-170.19-8.042-217.5855-59.1871-15.0391-16.228-22.2-34.8266-21.2793-55.2783,1.9043-42.4487,39.38-76.7016,40.9741-78.14l8.1226-7.3218,9.9316,4.4971c1.7066.7519,114.6314,49.3994,374.419,40.459l7.0459-.2417,5.0927,4.8779c2.9248,2.8052,28.5376,28.3472,26.9727,61.4575-.62,13.0859-6.0083,32.3657-28.1641,49.9048-33.03,26.15-127.4609,38.5278-201.2182,38.96C1192.6711,1599.98,1191.2282,1599.9853,1189.7683,1599.9853ZM1007.361,1439.4188c-8.601,9.7828-22.2436,28.2471-23.0688,47.71-.4785,11.2964,3.5815,21.4209,12.41,30.95,67.8223,73.1885,336.2793,49.6338,377.8467,16.7237,10.0147-7.9273,15.0928-16.1939,15.5225-25.271.5566-11.7652-6.8164-23.85-12.3657-30.857C1156.8679,1485.4125,1041.8557,1451.8383,1007.361,1439.4188Z"/><g class="cls-152"><path class="cls-150" d="M1970.8186,1816.74c-40.4709,48.8965-170.2606,96.0885-240.1258,52.3044-58.3633-36.5418-60.2088-88.8936-101.5788-118.998-2.4141-1.7513-9.7037-4.9224-20.8277-9.7979,131.0216-41.3226,250.9181-62.0555,358.7927-68.9661C2013.5615,1728.51,2004.3315,1776.2227,1970.8186,1816.74Z"/></g><path class="cls-148" d="M1406.815,1198.0215c146.3845,182.6387,387.9,294.6116,532.1831,424.7889,79.0791,71.348,66.635,105.6842,27.1906,153.396-40.4418,48.9182-135.434,96.1119-205.3008,52.329-58.3566-36.57-61.9878-71.3111-103.3522-101.4391-16.3125-11.8814-278.7664-81.5283-424.4669-308.6076"/><g class="cls-152"><path class="cls-150" d="M1966.18,1776.2227c-40.4235,48.8959-135.4234,96.0879-205.2886,52.3038-58.3622-36.5418-62.007-71.2848-103.3769-101.4366-16.2827-11.8809-278.7512-81.5092-424.4446-308.6182l2.9815-3.7869c162.4984,170.8286,331.8808,181.0524,444.38,267.6371,40.5373,31.2,44.0608,41.549,102.4241,78.0914,69.8652,43.784,164.865-3.4085,205.2874-52.3045q3.9054-4.6863,7.3844-9.23C2002.2006,1726.4745,1988.5215,1749.1945,1966.18,1776.2227Z"/></g><path class="cls-150" d="M1411.7407,1194.0746c31.0767,21.9348,56.7212,46.8658,84.1455,70.7593,26.9214,24.1906,54.5948,47.7783,82.52,71.2426,28.4277,22.9505,57.8564,44.7235,88.0151,65.7465,29.9756,21.2073,60.5786,41.8249,91.1206,62.6178,30.5713,20.8838,61.3184,41.5485,91.5723,63.4192q11.4294,8.0136,22.6269,16.5088c7.4829,5.6207,15.0342,11.1175,22.461,16.8426,14.7021,11.723,29.5971,23.125,43.7622,35.7312a431.6778,431.6778,0,0,1,41.9067,39.8529c3.2471,3.8312,6.5405,7.566,9.7217,11.4978,3.0347,4.2011,6.1743,8.2141,9.0674,12.61l4.1455,6.8884,2.0508,3.4564c.6372,1.2122,1.2011,2.52,1.7993,3.7781l3.4814,7.6483c1.0279,2.6679,1.8262,5.5469,2.7075,8.3258,3.1983,11.21,4.46,24.1993,1.8189,36.1249a100.697,100.697,0,0,1-12.544,31.6632,217.7442,217.7442,0,0,1-17.561,24.78c-2.8882,3.7628-6.355,7.6459-9.873,11.5094-3.3814,3.996-7.2168,7.2986-10.8741,10.8856a231.1337,231.1337,0,0,1-49.3432,34.5514A216.6045,216.6045,0,0,1,1857.49,1861.11c-20.0854,4.0826-41.45,4.9719-62.5073.7745l-7.8516-1.8194a45.3241,45.3241,0,0,1-7.7392-2.2595c-5.022-1.9733-10.2466-3.5114-15.0562-5.9693-4.7387-2.5287-9.6435-5.0592-14.187-7.7087-4.1357-2.7918-8.3618-5.3882-12.4072-8.3643a224.1914,224.1914,0,0,1-23.4009-19.2157,243.2556,243.2556,0,0,1-20.4345-22.0422c-12.4756-15.2313-22.4244-29.8163-34.1114-40.8106-1.4062-1.4813-2.9809-2.72-4.4726-4.0741a58.415,58.415,0,0,0-4.6338-3.8665l-2.3853-1.8543-1.1889-.9308-.5957-.4657c-.2735-.2234-.0123.0476-.0342.0354a.6916.6916,0,0,0,.3393.2149l-.9912-.448c-.8032-.35-1.3989-.6677-2.4731-1.0877-7.7661-3.1946-16.6992-6.521-25.3076-9.86-17.4048-6.73-34.8414-13.7958-52.063-21.3464-68.8916-30.1667-135.0928-67.7259-194.7632-114.5081-14.9976-11.5759-29.37-23.9715-43.5059-36.63-13.8867-12.93-28.2007-25.4895-41.3623-39.2865a248.0781,248.0781,0,0,1-18.9013-21.4429c-3.0249-3.6841-6.0059-7.4-8.6744-11.3751-2.7685-3.8892-5.5029-7.8015-8.11-11.7993a198.9355,198.9355,0,0,1-13.7183-25.2637,153.0046,153.0046,0,0,1-9.1968-27.8082,6.73,6.73,0,0,1,10.3077-7.0282l.3173.2117c8.2691,5.5481,15.0416,11.89,21.8921,18.0951,6.9849,6.1072,13.0664,12.7625,19.4239,19.18,3.1469,3.2312,6.1694,6.5491,9.1552,9.889,2.9712,3.3532,6.1426,6.5362,9.1285,9.8712q4.5885,4.909,8.9477,10.0042c3.03,3.2941,6.0645,6.5863,9.0259,9.9457a517.872,517.872,0,0,0,37.3169,38.8056c13.35,12.0489,27.0166,23.7756,41.2768,34.7985,56.7481,44.5032,120.1661,80.5542,186.6236,109.6509,16.6333,7.2919,33.4619,14.1138,50.5322,20.7154,8.6206,3.3514,17.0215,6.4489,26.35,10.2813,1.0767.4187,2.5586,1.1157,3.8647,1.7066.7325.3466,1.2012.5273,2.1485,1.0156,1.1328.61,2.251,1.2592,3.3447,1.94.4663.2954,1.272.79,1.44.9424l.774.5975,1.5454,1.1963,3.0859,2.3993a154.6307,154.6307,0,0,1,11.7725,10.2728c15.2124,14.5209,26.1059,30.79,37.1118,44.05a186.654,186.654,0,0,0,36.6406,34.5337c3.3911,2.5079,7.0654,4.7363,10.5737,7.1313l10.1783,5.5042c3.3911,1.7883,7.1557,2.7429,10.6884,4.2261a25.7234,25.7234,0,0,0,5.542,1.61l5.6543,1.311c15.2222,3.0383,31.4942,2.5122,47.5537-.7581,32.1045-6.6448,63.6084-23.4082,88.1373-45.8428,2.9174-2.9,6.15-5.6092,8.7084-8.714,2.6978-2.9767,5.4273-5.951,8.169-9.5258a181.5447,181.5447,0,0,0,14.5215-20.3741,63.2521,63.2521,0,0,0,7.959-19.52c1.45-6.2042.6884-12.1942-1.045-18.65-3.73-12.9089-13.3129-26.7163-24.7827-39.3365a396.7965,396.7965,0,0,0-38.435-36.4374c-13.45-11.9928-27.9273-23.0622-42.1192-34.39-7.2094-5.5578-14.6045-10.9387-21.8994-16.4178q-10.9131-8.2425-22.1606-16.1707c-29.6582-21.4447-60.2784-42.0306-90.7495-62.8442-30.5665-20.81-61.2818-41.5-91.66-62.9907-30.5127-21.2262-60.3223-43.7067-90.3979-65.95-29.6119-22.9126-59.2066-46.2311-85.4151-73.48-26.9531-26.2585-50.5591-56.6528-66.9141-91.3836a6.4878,6.4878,0,0,1,9.6021-8.07Z"/><path class="cls-150" d="M1418.1862,1623.3959a16.733,16.733,0,0,1-16.25-20.6787c2.2754-9.3262,57.2022-227.2461,208.982-227.2461.83,0,1.6381.0049,2.4731.02a16.7135,16.7135,0,0,1-.5176,33.4229c-.6152-.01-1.2451-.0147-1.8554-.0147-125.9473,0-176.1109,199.7119-176.6065,201.7383A16.721,16.721,0,0,1,1418.1862,1623.3959Z"/><path class="cls-150" d="M2037.1267,1277.9613a16.6293,16.6293,0,0,1-8.1714-2.1435c-84.2725-47.334-90.43-275.1514-90.8545-300.9717a16.7144,16.7144,0,0,1,16.4331-16.9873c.0952,0,.19-.0025.2832-.0025a16.7162,16.7162,0,0,1,16.7065,16.4356c1.0864,64.8413,16.46,240.1733,73.8037,272.38a16.7158,16.7158,0,0,1-8.2006,31.289Z"/><path class="cls-150" d="M2175.5029,850.4491c.1685,1.0437.2491,2.9816.3589,4.59l.315,5.1246c.2929,3.446.4126,6.9354.7617,10.42.4663,7.0025,1.34,14.0021,2.3388,21.06.9693,7.09,2.4488,14.1021,3.8306,21.4563,1.0986,7.5537,3.0005,14.9133,3.9185,23.9a58.1632,58.1632,0,0,1-20.2222-15.9137,77.65,77.65,0,0,1-7.3511-10.4913,120.2742,120.2742,0,0,1-5.6347-11.4716,111.5121,111.5121,0,0,1-7.3487-24.5044,107.2413,107.2413,0,0,1-1.4135-12.7868c-.0855-2.1625-.1661-4.32-.0538-6.5265a60.1131,60.1131,0,0,1,.5811-7.0636,14.91,14.91,0,0,1,29.4995-.4346Z"/></svg>