<svg id="All_work" data-name="All  work" xmlns="http://www.w3.org/2000/svg" width="1288.2857" height="1539.257" viewBox="0 0 1288.2857 1539.257"><defs><style>.cls-1{fill:#fff;}</style></defs><title>logo</title><g id="logo"><path id="rocket" class="cls-1" d="M977.0693,755.2235A165.0028,165.0028,0,0,0,928.8087,638.7h.4279c0-496.7793-286.5033-618.8332-286.5033-618.8332S356.2567,141.9111,356.2377,638.6446a165.0089,165.0089,0,0,0-48.31,116.5789s-7.047,87.0175,34.1856,177.6741c73.6641-67.4485,181.0137-109.9769,300.6086-109.9769,119.4359,0,226.6454,42.407,300.2979,109.672C984.105,842.0459,977.0693,755.2235,977.0693,755.2235ZM642.4986,438.2005a83.2837,83.2837,0,1,1,83.28-83.2837A83.28,83.28,0,0,1,642.4986,438.2005Z"/><path id="hexa" class="cls-1" d="M1154.8966,391.3017,948.2372,271.9892a870.8174,870.8174,0,0,1,39.7967,138.8225l116.7,67.3694c32.34,18.6723,61.7979,69.6952,61.7979,107.0427v462.404c0,37.3456-29.4575,88.368-61.7979,107.0408l-41.6534,24.0527c-154.9359,89.452-312.7438-113.7091-336.556-266.8832a409.8719,409.8719,0,0,0-168.07.0927c-23.8614,153.1613-181.6313,356.2234-336.5408,266.79l-41.655-24.0527c-32.3462-18.6728-61.8-69.6952-61.8-107.0408V585.2238c0-37.3475,29.4536-88.37,61.8-107.0427L297.49,410.48a870.9193,870.9193,0,0,1,39.8666-138.8473L130.1005,391.3017C67.3138,427.5466,18.14,512.73,18.14,585.2238v462.404c0,72.4933,49.1738,157.6792,111.9605,193.9182l400.4317,231.1994c31.39,18.1214,71.675,27.1878,111.9625,27.1878,40.2816,0,80.571-9.0664,111.9566-27.1878l400.4453-231.1994c62.7794-36.2468,111.96-121.4249,111.96-193.9182V585.2238C1266.8571,512.73,1217.676,427.55,1154.8966,391.3017Z"/></g></svg>