<svg id="Layer_1" data-name="Layer 1" xmlns="http://www.w3.org/2000/svg" xmlns:xlink="http://www.w3.org/1999/xlink" width="1739.4286" height="4000" viewBox="0 0 1739.4286 4000"><defs><style>.cls-1{fill:none;}.cls-2{clip-path:url(#clip-path);}.cls-3{fill:#ec1c24;}.cls-4{fill:#ec1d24;}.cls-5{fill:#ec1e24;}.cls-6{fill:#ec1f24;}.cls-7{fill:#ec2024;}.cls-8{fill:#ed2124;}.cls-9{fill:#ed2224;}.cls-10{fill:#ed2324;}.cls-11{fill:#ed2424;}.cls-12{fill:#ed2524;}.cls-13{fill:#ed2624;}.cls-14{fill:#ed2724;}.cls-15{fill:#ed2824;}.cls-16{fill:#ed2924;}.cls-17{fill:#ed2a24;}.cls-18{fill:#ee2a24;}.cls-19{fill:#ee2b24;}.cls-20{fill:#ee2c24;}.cls-21{fill:#ee2d24;}.cls-22{fill:#ee2e24;}.cls-23{fill:#ee2f24;}.cls-24{fill:#ee3024;}.cls-25{fill:#ee3124;}.cls-26{fill:#ee3224;}.cls-27{fill:#ee3225;}.cls-28{fill:#ef3325;}.cls-29{fill:#ef3425;}.cls-30{fill:#ef3525;}.cls-31{fill:#ef3625;}.cls-32{fill:#ef3725;}.cls-33{fill:#ef3825;}.cls-34{fill:#ef3925;}.cls-35{fill:#ef3a25;}.cls-36{fill:#ef3b25;}.cls-37{fill:#ef3c25;}.cls-38{fill:#f03d25;}.cls-39{fill:#f03e25;}.cls-40{fill:#f03f25;}.cls-41{fill:#f04025;}.cls-42{fill:#f04125;}.cls-43{fill:#f04225;}.cls-44{fill:#f04325;}.cls-45{fill:#f04425;}.cls-46{fill:#f04525;}.cls-47{fill:#f14625;}.cls-48{fill:#f14725;}.cls-49{fill:#f14825;}.cls-50{fill:#f14925;}.cls-51{fill:#f14a25;}.cls-52{fill:#f14b25;}.cls-53{fill:#f14c25;}.cls-54{fill:#f14d25;}.cls-55{fill:#f14e25;}.cls-56{fill:#f24f25;}.cls-57{fill:#f25025;}.cls-58{fill:#f25125;}.cls-59{fill:#f25225;}.cls-60{fill:#f25325;}.cls-61{fill:#f25425;}.cls-62{fill:#f25525;}.cls-63{fill:#f25625;}.cls-64{fill:#f25725;}.cls-65{fill:#f35825;}.cls-66{fill:#f35925;}.cls-67{fill:#f35a25;}.cls-68{fill:#f35c25;}.cls-69{fill:#f35d25;}.cls-70{fill:#f35e26;}.cls-71{fill:#f35f26;}.cls-72{fill:#f36026;}.cls-73{fill:#f46126;}.cls-74{fill:#f46226;}.cls-75{fill:#f46426;}.cls-76{fill:#f46526;}.cls-77{fill:#f46626;}.cls-78{fill:#f46726;}.cls-79{fill:#f46826;}.cls-80{fill:#f46a26;}.cls-81{fill:#f56b26;}.cls-82{fill:#f56c26;}.cls-83{fill:#f56d26;}.cls-84{fill:#f56f26;}.cls-85{fill:#f57026;}.cls-86{fill:#f57126;}.cls-87{fill:#f57226;}.cls-88{fill:#f67426;}.cls-89{fill:#f67526;}.cls-90{fill:#f67626;}.cls-91{fill:#f67726;}.cls-92{fill:#f67926;}.cls-93{fill:#f67a26;}.cls-94{fill:#f67b26;}.cls-95{fill:#f77d26;}.cls-96{fill:#f77e26;}.cls-97{fill:#f77f26;}.cls-98{fill:#f78126;}.cls-99{fill:#f78226;}.cls-100{fill:#f78426;}.cls-101{fill:#f78526;}.cls-102{fill:#f88626;}.cls-103{fill:#f88826;}.cls-104{fill:#f88927;}.cls-105{fill:#f88a27;}.cls-106{fill:#f88c27;}.cls-107{fill:#f88d27;}.cls-108{fill:#f98f27;}.cls-109{fill:#f99027;}.cls-110{fill:#f99227;}.cls-111{fill:#f99327;}.cls-112{fill:#f99427;}.cls-113{fill:#f99627;}.cls-114{fill:#f99727;}.cls-115{fill:#fa9927;}.cls-116{fill:#fa9a27;}.cls-117{fill:#fa9c27;}.cls-118{fill:#fa9d27;}.cls-119{fill:#fa9f27;}.cls-120{fill:#faa027;}.cls-121{fill:#fba227;}.cls-122{fill:#fba327;}.cls-123{fill:#fba527;}.cls-124{fill:#fba627;}.cls-125{fill:#fba827;}.cls-126{fill:#fbaa27;}.cls-127{fill:#fcab27;}.cls-128{fill:#fcad27;}.cls-129{fill:#fcae27;}.cls-130{fill:#fcb027;}.cls-131{fill:#fcb127;}.cls-132{fill:#fcb327;}.cls-133{fill:#fdb528;}.cls-134{fill:#fdb628;}.cls-135{fill:#fdb828;}.cls-136{fill:#fdb928;}.cls-137{fill:#fdbb28;}.cls-138{fill:#febd28;}.cls-139{fill:#febe28;}.cls-140{fill:#fec028;}.cls-141{fill:#fec228;}.cls-142{fill:#fec328;}.cls-143{fill:#fec528;}.cls-144{fill:#ffc728;}.cls-145{fill:#ffc828;}.cls-146{fill:#ffca28;}.cls-147{fill:#390075;}.cls-148{opacity:0.5;}.cls-149{fill:#fff;}.cls-150{fill:#ffd553;}.cls-151{opacity:0.3;}.cls-152{fill:#0af;}.cls-153{opacity:0.6;}.cls-154{opacity:0.35;}.cls-155{fill:#d25658;}.cls-156{fill:#371a45;}.cls-157{fill:#6bd6f0;}.cls-158{opacity:0.2;}</style><clipPath id="clip-path"><path class="cls-1" d="M860.3269,3839.2079c8.1034-448.1668-305.28-461.4292-300.1418-745.6327s310.07-337.54,310.07-337.54,302.8038,64.3248,297.665,348.5281S868.43,3391.0411,860.3269,3839.2079Z"/></clipPath></defs><title>rocket</title><g class="cls-2"><polygon class="cls-3" points="860.327 3839.208 555.047 3809.394 555.047 3839.208 860.327 3839.208"/><polygon class="cls-3" points="924.127 3839.208 555.047 3803.164 555.047 3809.394 860.327 3839.208 924.127 3839.208"/><polygon class="cls-3" points="987.928 3839.208 555.047 3796.933 555.047 3803.164 924.127 3839.208 987.928 3839.208"/><polygon class="cls-3" points="1051.729 3839.208 555.047 3790.702 555.047 3796.933 987.928 3839.208 1051.729 3839.208"/><polygon class="cls-3" points="1115.529 3839.208 555.047 3784.472 555.047 3790.702 1051.729 3839.208 1115.529 3839.208"/><polygon class="cls-3" points="1138.121 3839.208 1138.51 3835.221 555.047 3778.241 555.047 3784.472 1115.529 3839.208 1138.121 3839.208"/><polygon class="cls-3" points="1138.51 3835.221 1139.112 3829.05 555.047 3772.01 555.047 3778.241 1138.51 3835.221"/><polygon class="cls-4" points="1139.112 3829.05 1139.715 3822.878 555.047 3765.78 555.047 3772.01 1139.112 3829.05"/><polygon class="cls-4" points="1139.715 3822.878 1140.318 3816.706 555.047 3759.549 555.047 3765.78 1139.715 3822.878"/><polygon class="cls-4" points="1140.318 3816.706 1140.921 3810.534 555.047 3753.318 555.047 3759.549 1140.318 3816.706"/><polygon class="cls-4" points="1140.921 3810.534 1141.523 3804.362 555.047 3747.088 555.047 3753.318 1140.921 3810.534"/><polygon class="cls-4" points="1141.523 3804.362 1142.126 3798.19 555.047 3740.857 555.047 3747.088 1141.523 3804.362"/><polygon class="cls-5" points="1142.126 3798.19 1142.729 3792.019 555.047 3734.626 555.047 3740.857 1142.126 3798.19"/><polygon class="cls-5" points="1142.729 3792.019 1143.332 3785.847 555.047 3728.395 555.047 3734.626 1142.729 3792.019"/><polygon class="cls-5" points="1143.332 3785.847 1143.934 3779.675 555.047 3722.165 555.047 3728.395 1143.332 3785.847"/><polygon class="cls-6" points="1143.934 3779.675 1144.537 3773.503 555.047 3715.934 555.047 3722.165 1143.934 3779.675"/><polygon class="cls-6" points="1144.537 3773.503 1145.14 3767.331 555.047 3709.703 555.047 3715.934 1144.537 3773.503"/><polygon class="cls-6" points="1145.14 3767.331 1145.743 3761.159 555.047 3703.473 555.047 3709.703 1145.14 3767.331"/><polygon class="cls-7" points="1145.743 3761.159 1146.345 3754.988 555.047 3697.242 555.047 3703.473 1145.743 3761.159"/><polygon class="cls-7" points="1146.345 3754.988 1146.948 3748.816 555.047 3691.011 555.047 3697.242 1146.345 3754.988"/><polygon class="cls-7" points="1146.948 3748.816 1147.551 3742.644 555.047 3684.781 555.047 3691.011 1146.948 3748.816"/><polygon class="cls-8" points="1147.551 3742.644 1148.153 3736.472 555.047 3678.55 555.047 3684.781 1147.551 3742.644"/><polygon class="cls-8" points="1148.153 3736.472 1148.756 3730.3 555.047 3672.319 555.047 3678.55 1148.153 3736.472"/><polygon class="cls-8" points="1148.756 3730.3 1149.359 3724.128 555.047 3666.088 555.047 3672.319 1148.756 3730.3"/><polygon class="cls-9" points="1149.359 3724.128 1149.962 3717.956 555.047 3659.858 555.047 3666.088 1149.359 3724.128"/><polygon class="cls-9" points="1149.962 3717.956 1150.564 3711.785 555.047 3653.627 555.047 3659.858 1149.962 3717.956"/><polygon class="cls-10" points="1150.564 3711.785 1151.167 3705.613 555.047 3647.396 555.047 3653.627 1150.564 3711.785"/><polygon class="cls-10" points="1151.167 3705.613 1151.77 3699.441 555.047 3641.166 555.047 3647.396 1151.167 3705.613"/><polygon class="cls-11" points="1151.77 3699.441 1152.373 3693.269 555.047 3634.935 555.047 3641.166 1151.77 3699.441"/><polygon class="cls-11" points="1152.373 3693.269 1152.975 3687.097 555.047 3628.704 555.047 3634.935 1152.373 3693.269"/><polygon class="cls-12" points="1152.975 3687.097 1153.578 3680.925 555.047 3622.474 555.047 3628.704 1152.975 3687.097"/><polygon class="cls-12" points="1153.578 3680.925 1154.181 3674.754 555.047 3616.243 555.047 3622.474 1153.578 3680.925"/><polygon class="cls-13" points="1154.181 3674.754 1154.784 3668.582 555.047 3610.012 555.047 3616.243 1154.181 3674.754"/><polygon class="cls-13" points="1154.784 3668.582 1155.386 3662.41 555.047 3603.781 555.047 3610.012 1154.784 3668.582"/><polygon class="cls-14" points="1155.386 3662.41 1155.989 3656.238 555.047 3597.551 555.047 3603.781 1155.386 3662.41"/><polygon class="cls-14" points="1155.989 3656.238 1156.592 3650.066 555.047 3591.32 555.047 3597.551 1155.989 3656.238"/><polygon class="cls-15" points="1156.592 3650.066 1157.195 3643.894 555.047 3585.089 555.047 3591.32 1156.592 3650.066"/><polygon class="cls-15" points="1157.195 3643.894 1157.797 3637.723 555.047 3578.859 555.047 3585.089 1157.195 3643.894"/><polygon class="cls-16" points="1157.797 3637.723 1158.4 3631.551 555.047 3572.628 555.047 3578.859 1157.797 3637.723"/><polygon class="cls-17" points="1158.4 3631.551 1159.003 3625.379 555.047 3566.397 555.047 3572.628 1158.4 3631.551"/><polygon class="cls-18" points="1159.003 3625.379 1159.606 3619.207 555.047 3560.167 555.047 3566.397 1159.003 3625.379"/><polygon class="cls-19" points="1159.606 3619.207 1160.208 3613.035 555.047 3553.936 555.047 3560.167 1159.606 3619.207"/><polygon class="cls-19" points="1160.208 3613.035 1160.811 3606.863 555.047 3547.705 555.047 3553.936 1160.208 3613.035"/><polygon class="cls-20" points="1160.811 3606.863 1161.414 3600.692 555.047 3541.474 555.047 3547.705 1160.811 3606.863"/><polygon class="cls-21" points="1161.414 3600.692 1162.016 3594.52 555.047 3535.244 555.047 3541.474 1161.414 3600.692"/><polygon class="cls-21" points="1162.016 3594.52 1162.619 3588.348 555.047 3529.013 555.047 3535.244 1162.016 3594.52"/><polygon class="cls-22" points="1162.619 3588.348 1163.222 3582.176 555.047 3522.782 555.047 3529.013 1162.619 3588.348"/><polygon class="cls-23" points="1163.222 3582.176 1163.825 3576.004 555.047 3516.552 555.047 3522.782 1163.222 3582.176"/><polygon class="cls-23" points="1163.825 3576.004 1164.427 3569.832 555.047 3510.321 555.047 3516.552 1163.825 3576.004"/><polygon class="cls-24" points="1164.427 3569.832 1165.03 3563.661 555.047 3504.09 555.047 3510.321 1164.427 3569.832"/><polygon class="cls-25" points="1165.03 3563.661 1165.633 3557.489 555.047 3497.859 555.047 3504.09 1165.03 3563.661"/><polygon class="cls-26" points="1165.633 3557.489 1166.236 3551.317 555.047 3491.629 555.047 3497.859 1165.633 3557.489"/><polygon class="cls-27" points="1166.236 3551.317 1166.838 3545.145 555.047 3485.398 555.047 3491.629 1166.236 3551.317"/><polygon class="cls-28" points="1166.838 3545.145 1167.441 3538.973 555.047 3479.167 555.047 3485.398 1166.838 3545.145"/><polygon class="cls-29" points="1167.441 3538.973 1168.044 3532.801 555.047 3472.937 555.047 3479.167 1167.441 3538.973"/><polygon class="cls-30" points="1168.044 3532.801 1168.647 3526.63 555.047 3466.706 555.047 3472.937 1168.044 3532.801"/><polygon class="cls-30" points="1168.647 3526.63 1169.249 3520.458 555.047 3460.475 555.047 3466.706 1168.647 3526.63"/><polygon class="cls-31" points="1169.249 3520.458 1169.852 3514.286 555.047 3454.245 555.047 3460.475 1169.249 3520.458"/><polygon class="cls-32" points="1169.852 3514.286 1170.455 3508.114 555.047 3448.014 555.047 3454.245 1169.852 3514.286"/><polygon class="cls-33" points="1170.455 3508.114 1171.058 3501.942 555.047 3441.783 555.047 3448.014 1170.455 3508.114"/><polygon class="cls-34" points="1171.058 3501.942 1171.66 3495.77 555.047 3435.552 555.047 3441.783 1171.058 3501.942"/><polygon class="cls-34" points="1171.66 3495.77 1172.263 3489.599 555.047 3429.322 555.047 3435.552 1171.66 3495.77"/><polygon class="cls-35" points="1172.263 3489.599 1172.866 3483.427 555.047 3423.091 555.047 3429.322 1172.263 3489.599"/><polygon class="cls-36" points="1172.866 3483.427 1173.059 3481.449 1173.059 3477.215 555.047 3416.86 555.047 3423.091 1172.866 3483.427"/><polygon class="cls-37" points="1173.059 3470.984 555.047 3410.63 555.047 3416.86 1173.059 3477.215 1173.059 3470.984"/><polygon class="cls-38" points="1173.059 3464.754 555.047 3404.399 555.047 3410.63 1173.059 3470.984 1173.059 3464.754"/><polygon class="cls-39" points="1173.059 3458.523 555.047 3398.168 555.047 3404.399 1173.059 3464.754 1173.059 3458.523"/><polygon class="cls-39" points="1173.059 3452.292 555.047 3391.938 555.047 3398.168 1173.059 3458.523 1173.059 3452.292"/><polygon class="cls-40" points="1173.059 3446.061 555.047 3385.707 555.047 3391.938 1173.059 3452.292 1173.059 3446.061"/><polygon class="cls-41" points="1173.059 3439.831 555.047 3379.476 555.047 3385.707 1173.059 3446.061 1173.059 3439.831"/><polygon class="cls-42" points="1173.059 3433.6 555.047 3373.245 555.047 3379.476 1173.059 3439.831 1173.059 3433.6"/><polygon class="cls-43" points="1173.059 3427.369 555.047 3367.015 555.047 3373.245 1173.059 3433.6 1173.059 3427.369"/><polygon class="cls-44" points="1173.059 3421.139 555.047 3360.784 555.047 3367.015 1173.059 3427.369 1173.059 3421.139"/><polygon class="cls-45" points="1173.059 3414.908 555.047 3354.554 555.047 3360.784 1173.059 3421.139 1173.059 3414.908"/><polygon class="cls-46" points="1173.059 3408.677 555.047 3348.323 555.047 3354.554 1173.059 3414.908 1173.059 3408.677"/><polygon class="cls-47" points="1173.059 3402.447 555.047 3342.092 555.047 3348.323 1173.059 3408.677 1173.059 3402.447"/><polygon class="cls-48" points="1173.059 3396.216 555.047 3335.861 555.047 3342.092 1173.059 3402.447 1173.059 3396.216"/><polygon class="cls-49" points="1173.059 3389.985 555.047 3329.631 555.047 3335.861 1173.059 3396.216 1173.059 3389.985"/><polygon class="cls-50" points="1173.059 3383.754 555.047 3323.4 555.047 3329.631 1173.059 3389.985 1173.059 3383.754"/><polygon class="cls-51" points="1173.059 3377.524 555.047 3317.169 555.047 3323.4 1173.059 3383.754 1173.059 3377.524"/><polygon class="cls-52" points="1173.059 3371.293 555.047 3310.939 555.047 3317.169 1173.059 3377.524 1173.059 3371.293"/><polygon class="cls-53" points="1173.059 3365.062 555.047 3304.708 555.047 3310.939 1173.059 3371.293 1173.059 3365.062"/><polygon class="cls-54" points="1173.059 3358.832 555.047 3298.477 555.047 3304.708 1173.059 3365.062 1173.059 3358.832"/><polygon class="cls-55" points="1173.059 3352.601 555.047 3292.246 555.047 3298.477 1173.059 3358.832 1173.059 3352.601"/><polygon class="cls-56" points="1173.059 3346.37 555.047 3286.016 555.047 3292.246 1173.059 3352.601 1173.059 3346.37"/><polygon class="cls-57" points="1173.059 3340.14 555.047 3279.785 555.047 3286.016 1173.059 3346.37 1173.059 3340.14"/><polygon class="cls-58" points="1173.059 3333.909 555.047 3273.554 555.047 3279.785 1173.059 3340.14 1173.059 3333.909"/><polygon class="cls-59" points="1173.059 3327.678 555.047 3267.324 555.047 3273.554 1173.059 3333.909 1173.059 3327.678"/><polygon class="cls-60" points="1173.059 3321.447 555.047 3261.093 555.047 3267.324 1173.059 3327.678 1173.059 3321.447"/><polygon class="cls-61" points="1173.059 3315.217 555.047 3254.862 555.047 3261.093 1173.059 3321.447 1173.059 3315.217"/><polygon class="cls-62" points="1173.059 3308.986 555.047 3248.632 555.047 3254.862 1173.059 3315.217 1173.059 3308.986"/><polygon class="cls-63" points="1173.059 3302.755 555.047 3242.401 555.047 3248.632 1173.059 3308.986 1173.059 3302.755"/><polygon class="cls-64" points="1173.059 3296.525 555.047 3236.17 555.047 3242.401 1173.059 3302.755 1173.059 3296.525"/><polygon class="cls-65" points="1173.059 3290.294 555.047 3229.939 555.047 3236.17 1173.059 3296.525 1173.059 3290.294"/><polygon class="cls-66" points="1173.059 3284.063 555.047 3223.709 555.047 3229.939 1173.059 3290.294 1173.059 3284.063"/><polygon class="cls-67" points="1173.059 3277.833 555.047 3217.478 555.047 3223.709 1173.059 3284.063 1173.059 3277.833"/><polygon class="cls-68" points="1173.059 3271.602 555.047 3211.247 555.047 3217.478 1173.059 3277.833 1173.059 3271.602"/><polygon class="cls-69" points="1173.059 3265.371 555.047 3205.017 555.047 3211.247 1173.059 3271.602 1173.059 3265.371"/><polygon class="cls-70" points="1173.059 3259.14 555.047 3198.786 555.047 3205.017 1173.059 3265.371 1173.059 3259.14"/><polygon class="cls-71" points="1173.059 3252.91 555.047 3192.555 555.047 3198.786 1173.059 3259.14 1173.059 3252.91"/><polygon class="cls-72" points="1173.059 3246.679 555.047 3186.325 555.047 3192.555 1173.059 3252.91 1173.059 3246.679"/><polygon class="cls-73" points="1173.059 3240.448 555.047 3180.094 555.047 3186.325 1173.059 3246.679 1173.059 3240.448"/><polygon class="cls-74" points="1173.059 3234.218 555.047 3173.863 555.047 3180.094 1173.059 3240.448 1173.059 3234.218"/><polygon class="cls-75" points="1173.059 3227.987 555.047 3167.632 555.047 3173.863 1173.059 3234.218 1173.059 3227.987"/><polygon class="cls-76" points="1173.059 3221.756 555.047 3161.402 555.047 3167.632 1173.059 3227.987 1173.059 3221.756"/><polygon class="cls-77" points="1173.059 3215.525 555.047 3155.171 555.047 3161.402 1173.059 3221.756 1173.059 3215.525"/><polygon class="cls-78" points="1173.059 3209.295 555.047 3148.94 555.047 3155.171 1173.059 3215.525 1173.059 3209.295"/><polygon class="cls-79" points="1173.059 3203.064 555.047 3142.71 555.047 3148.94 1173.059 3209.295 1173.059 3203.064"/><polygon class="cls-80" points="1173.059 3196.833 555.047 3136.479 555.047 3142.71 1173.059 3203.064 1173.059 3196.833"/><polygon class="cls-81" points="1173.059 3190.603 555.047 3130.248 555.047 3136.479 1173.059 3196.833 1173.059 3190.603"/><polygon class="cls-82" points="1173.059 3184.372 555.047 3124.018 555.047 3130.248 1173.059 3190.603 1173.059 3184.372"/><polygon class="cls-83" points="1173.059 3178.141 555.047 3117.787 555.047 3124.018 1173.059 3184.372 1173.059 3178.141"/><polygon class="cls-84" points="1173.059 3171.911 555.047 3111.556 555.047 3117.787 1173.059 3178.141 1173.059 3171.911"/><polygon class="cls-85" points="1173.059 3165.68 555.047 3105.325 555.047 3111.556 1173.059 3171.911 1173.059 3165.68"/><polygon class="cls-86" points="1173.059 3159.449 555.047 3099.095 555.047 3105.325 1173.059 3165.68 1173.059 3159.449"/><polygon class="cls-87" points="1173.059 3153.218 555.047 3092.864 555.047 3099.095 1173.059 3159.449 1173.059 3153.218"/><polygon class="cls-88" points="1173.059 3146.988 555.047 3086.633 555.047 3092.864 1173.059 3153.218 1173.059 3146.988"/><polygon class="cls-89" points="1173.059 3140.757 555.047 3080.403 555.047 3086.633 1173.059 3146.988 1173.059 3140.757"/><polygon class="cls-90" points="1173.059 3134.526 555.047 3074.172 555.047 3080.403 1173.059 3140.757 1173.059 3134.526"/><polygon class="cls-91" points="1173.059 3128.296 555.047 3067.941 555.047 3074.172 1173.059 3134.526 1173.059 3128.296"/><polygon class="cls-92" points="1173.059 3122.065 555.047 3061.71 555.047 3067.941 1173.059 3128.296 1173.059 3122.065"/><polygon class="cls-93" points="1173.059 3115.834 555.047 3055.48 555.047 3061.71 1173.059 3122.065 1173.059 3115.834"/><polygon class="cls-94" points="1173.059 3109.604 555.047 3049.249 555.047 3055.48 1173.059 3115.834 1173.059 3109.604"/><polygon class="cls-95" points="1173.059 3103.373 555.047 3043.018 555.047 3049.249 1173.059 3109.604 1173.059 3103.373"/><polygon class="cls-96" points="1173.059 3097.142 555.047 3036.788 555.047 3043.018 1173.059 3103.373 1173.059 3097.142"/><polygon class="cls-97" points="1173.059 3090.912 555.047 3030.557 555.047 3036.788 1173.059 3097.142 1173.059 3090.912"/><polygon class="cls-98" points="1173.059 3084.681 555.047 3024.326 555.047 3030.557 1173.059 3090.912 1173.059 3084.681"/><polygon class="cls-99" points="1173.059 3078.45 555.047 3018.096 555.047 3024.326 1173.059 3084.681 1173.059 3078.45"/><polygon class="cls-100" points="1173.059 3072.22 555.047 3011.865 555.047 3018.096 1173.059 3078.45 1173.059 3072.22"/><polygon class="cls-101" points="1173.059 3065.989 555.047 3005.634 555.047 3011.865 1173.059 3072.22 1173.059 3065.989"/><polygon class="cls-102" points="1173.059 3059.758 555.047 2999.403 555.047 3005.634 1173.059 3065.989 1173.059 3059.758"/><polygon class="cls-103" points="1173.059 3053.527 555.047 2993.173 555.047 2999.403 1173.059 3059.758 1173.059 3053.527"/><polygon class="cls-104" points="1173.059 3047.297 555.047 2986.942 555.047 2993.173 1173.059 3053.527 1173.059 3047.297"/><polygon class="cls-105" points="1173.059 3041.066 555.047 2980.711 555.047 2986.942 1173.059 3047.297 1173.059 3041.066"/><polygon class="cls-106" points="1173.059 3034.835 555.047 2974.481 555.047 2980.711 1173.059 3041.066 1173.059 3034.835"/><polygon class="cls-107" points="1173.059 3028.605 555.047 2968.25 555.047 2974.481 1173.059 3034.835 1173.059 3028.605"/><polygon class="cls-108" points="1173.059 3022.374 555.047 2962.019 555.047 2968.25 1173.059 3028.605 1173.059 3022.374"/><polygon class="cls-109" points="1173.059 3016.143 555.047 2955.789 555.047 2962.019 1173.059 3022.374 1173.059 3016.143"/><polygon class="cls-110" points="1173.059 3009.912 555.047 2949.558 555.047 2955.789 1173.059 3016.143 1173.059 3009.912"/><polygon class="cls-111" points="1173.059 3003.682 555.047 2943.327 555.047 2949.558 1173.059 3009.912 1173.059 3003.682"/><polygon class="cls-112" points="1173.059 2997.451 555.047 2937.097 555.047 2943.327 1173.059 3003.682 1173.059 2997.451"/><polygon class="cls-113" points="1173.059 2991.22 555.047 2930.866 555.047 2937.097 1173.059 2997.451 1173.059 2991.22"/><polygon class="cls-114" points="1173.059 2984.99 555.047 2924.635 555.047 2930.866 1173.059 2991.22 1173.059 2984.99"/><polygon class="cls-115" points="1173.059 2978.759 555.047 2918.405 555.047 2924.635 1173.059 2984.99 1173.059 2978.759"/><polygon class="cls-116" points="1173.059 2972.528 555.047 2912.174 555.047 2918.405 1173.059 2978.759 1173.059 2972.528"/><polygon class="cls-117" points="1173.059 2966.298 555.047 2905.943 555.047 2912.174 1173.059 2972.528 1173.059 2966.298"/><polygon class="cls-118" points="1173.059 2960.067 555.047 2899.712 555.047 2905.943 1173.059 2966.298 1173.059 2960.067"/><polygon class="cls-119" points="1173.059 2953.836 555.047 2893.482 555.047 2899.712 1173.059 2960.067 1173.059 2953.836"/><polygon class="cls-120" points="1173.059 2947.605 555.047 2887.251 555.047 2893.482 1173.059 2953.836 1173.059 2947.605"/><polygon class="cls-121" points="1173.059 2941.375 555.047 2881.02 555.047 2887.251 1173.059 2947.605 1173.059 2941.375"/><polygon class="cls-122" points="1173.059 2935.144 555.047 2874.79 555.047 2881.02 1173.059 2941.375 1173.059 2935.144"/><polygon class="cls-123" points="1173.059 2928.913 555.047 2868.559 555.047 2874.79 1173.059 2935.144 1173.059 2928.913"/><polygon class="cls-124" points="1173.059 2922.683 555.047 2862.328 555.047 2868.559 1173.059 2928.913 1173.059 2922.683"/><polygon class="cls-125" points="1173.059 2916.452 555.047 2856.097 555.047 2862.328 1173.059 2922.683 1173.059 2916.452"/><polygon class="cls-126" points="1173.059 2910.221 555.047 2849.867 555.047 2856.097 1173.059 2916.452 1173.059 2910.221"/><polygon class="cls-127" points="1173.059 2903.991 555.047 2843.636 555.047 2849.867 1173.059 2910.221 1173.059 2903.991"/><polygon class="cls-128" points="1173.059 2897.76 555.047 2837.405 555.047 2843.636 1173.059 2903.991 1173.059 2897.76"/><polygon class="cls-129" points="1173.059 2891.529 555.047 2831.175 555.047 2837.405 1173.059 2897.76 1173.059 2891.529"/><polygon class="cls-130" points="1173.059 2885.298 555.047 2824.944 555.047 2831.175 1173.059 2891.529 1173.059 2885.298"/><polygon class="cls-131" points="1173.059 2879.068 555.047 2818.713 555.047 2824.944 1173.059 2885.298 1173.059 2879.068"/><polygon class="cls-132" points="1173.059 2872.837 555.047 2812.483 555.047 2818.713 1173.059 2879.068 1173.059 2872.837"/><polygon class="cls-133" points="1173.059 2866.606 555.047 2806.252 555.047 2812.483 1173.059 2872.837 1173.059 2866.606"/><polygon class="cls-134" points="1173.059 2860.376 555.047 2800.021 555.047 2806.252 1173.059 2866.606 1173.059 2860.376"/><polygon class="cls-135" points="1173.059 2854.145 555.047 2793.79 555.047 2800.021 1173.059 2860.376 1173.059 2854.145"/><polygon class="cls-136" points="1173.059 2847.914 555.047 2787.56 555.047 2793.79 1173.059 2854.145 1173.059 2847.914"/><polygon class="cls-137" points="1173.059 2841.684 555.047 2781.329 555.047 2787.56 1173.059 2847.914 1173.059 2841.684"/><polygon class="cls-138" points="1173.059 2835.453 555.047 2775.098 555.047 2781.329 1173.059 2841.684 1173.059 2835.453"/><polygon class="cls-139" points="1173.059 2829.222 555.047 2768.868 555.047 2775.098 1173.059 2835.453 1173.059 2829.222"/><polygon class="cls-140" points="1173.059 2822.991 555.047 2762.637 555.047 2768.868 1173.059 2829.222 1173.059 2822.991"/><polygon class="cls-141" points="1173.059 2816.761 555.047 2756.406 555.047 2762.637 1173.059 2822.991 1173.059 2816.761"/><polygon class="cls-142" points="1173.059 2810.53 615.053 2756.036 555.047 2756.036 555.047 2756.406 1173.059 2816.761 1173.059 2810.53"/><polygon class="cls-143" points="1173.059 2804.299 678.854 2756.036 615.053 2756.036 1173.059 2810.53 1173.059 2804.299"/><polygon class="cls-144" points="1173.059 2798.069 742.654 2756.036 678.854 2756.036 1173.059 2804.299 1173.059 2798.069"/><polygon class="cls-145" points="1173.059 2791.838 806.455 2756.036 742.654 2756.036 1173.059 2798.069 1173.059 2791.838"/><polygon class="cls-146" points="1173.059 2785.607 870.255 2756.036 806.455 2756.036 1173.059 2791.838 1173.059 2785.607"/><polygon class="cls-146" points="870.255 2756.036 1173.059 2785.607 1173.059 2756.036 870.255 2756.036"/></g><path class="cls-147" d="M860.3259,3843.9583a4.75,4.75,0,0,0,4.7529-4.6685c4.4854-247.8089,97.3457-358.6854,179.2771-456.5147,64.803-77.371,126.0133-150.4587,128.3193-278.13,5.1521-284.8275-298.3675-352.6081-301.4343-353.2562a4.48,4.48,0,0,0-1.8035-.0377c-3.09.5448-308.855,57.3075-314.0071,342.1348-2.3108,127.7557,60.1582,203.0885,126.295,282.8453,83.5846,100.807,178.3282,215.0648,173.8477,462.7893a.582.582,0,0,0-.0046.0939,4.7552,4.7552,0,0,0,4.6731,4.7437Zm9.8394-1083.0635c18.1522,4.2362,297.87,74.29,293.0041,343.5813-2.25,124.3084-59.6464,192.8405-126.1073,272.1935-71.9513,85.9094-152.2294,181.7567-175.2051,369.6191-17.4571-188.6513-99.3838-287.4763-172.81-376.0252-67.8-81.7669-126.3562-152.3749-124.1112-276.6083C569.8112,2824.3734,851.8722,2764.4735,870.1653,2760.8948Z"/><g class="cls-148"><path class="cls-149" d="M839.07,3642.3822c79.8284-238.4126,268.5862-285.521,272.6914-512.6191,5.1382-284.2016-297.6677-348.5258-297.6677-348.5258s-27.8049,4.8772-66.7479,19.48c65.4506-34.616,122.9074-44.6806,122.9074-44.6806s302.8059,64.3244,297.6676,348.5259c-5.1386,284.2052-299.4917,286.4771-307.5928,734.6457C861.7251,3761.8465,853.5362,3697.4559,839.07,3642.3822Z"/></g><path class="cls-150" d="M860.96,3486.7324c4.7177-260.9162-210.1718-347.4672-207.18-512.9262s220.31-195.7913,220.31-195.7913,216.08,38.1685,213.0879,203.6275S865.6781,3225.8162,860.96,3486.7324Z"/><g class="cls-151"><path class="cls-147" d="M694.2969,2833.8779c-33.0433,46.5122-56.1769,106.2707-57.56,182.7914-4.25,235.0585,209.3806,284.7894,278.8069,548.521-31.1976,69.38-53.0886,156.3039-55.2164,274.0182,8.1011-448.1686-305.28-461.43-300.1418-745.632C562.5009,2965.5871,625.6149,2884.4385,694.2969,2833.8779Z"/></g><path class="cls-147" d="M859.02,3874.871a22.1883,22.1883,0,0,0,22.1725-21.7826c4.3726-241.8539,95.6595-354.4492,176.2006-453.7907,67.0059-82.65,130.2919-160.7067,132.7108-294.3332C1195.51,2805.9254,878.07,2735.0167,874.8665,2734.34a22.3551,22.3551,0,0,0-8.4349-.16c-3.2313.573-323.02,59.9468-328.43,358.9861-2.4233,133.9739,61.6518,214.407,129.4841,299.5556,81.4243,102.2065,173.7067,218.0517,169.3438,459.5581-.0048.1315-.0048.2631-.0048.3945a22.1913,22.1913,0,0,0,21.7873,22.196ZM869.846,2778.7136c36.619,8.9233,280.3749,77.7092,275.8944,325.4431-2.1415,118.3532-58.0635,187.3268-122.81,267.1964-60.1583,74.1963-125.99,155.39-161.0168,287.542-32.1244-133.6545-98.8014-217.3472-159.7252-293.8166-65.4371-82.1522-121.9555-153.0982-119.8233-271.1039C586.8454,2846.2875,832.8323,2786.3313,869.846,2778.7136Z"/><path class="cls-152" d="M499.778,2569.6775l26.0489,107.827a136.4128,136.4128,0,0,0,97.9389,99.9031h0a818.909,818.909,0,0,0,440.033-6.6668h0a136.4129,136.4129,0,0,0,94.8673-102.8242l22.77-108.5667"/><path class="cls-147" d="M831.8368,2809.0345a823.5834,823.5834,0,0,0,233.3107-33.7307,140.979,140.979,0,0,0,98.1721-106.4146l22.7737-108.5655a4.7558,4.7558,0,1,0-9.3087-1.9539l-22.7734,108.5657a131.4634,131.4634,0,0,1-91.56,99.2382,813.9088,813.9088,0,0,1-437.4794,6.6316,131.4813,131.4813,0,0,1-94.523-96.42l-26.0517-107.8235a4.7547,4.7547,0,1,0-9.2428,2.2355l26.0518,107.8236a140.9784,140.9784,0,0,0,101.3516,103.39A823.8263,823.8263,0,0,0,831.8368,2809.0345Z"/><g class="cls-153"><path class="cls-149" d="M1115.9113,2565.3111l-22.5589,107.51a150.717,150.717,0,0,1-104.9061,113.67q-30.7869,9.1046-62.0825,15.9572a816.0747,816.0747,0,0,0,124.9611-26.5466,136.4909,136.4909,0,0,0,94.8677-102.82l22.7566-108.58Z"/></g><g class="cls-154"><path class="cls-147" d="M826.6339,2793.9074l-.0035-.0021a819.2013,819.2013,0,0,1-147.7526-24.6127,136.3423,136.3423,0,0,1-97.9149-99.9136L556.679,2568.828l624.7639-9.4806-4.8637,23.1847-463.16,6.9962,26.0431,107.867A136.3165,136.3165,0,0,0,826.6339,2793.9074Zm-56.3329-205.24,406.2782-6.1357,1.5359-7.3193-409.5678,6.1865Z"/></g><path class="cls-3" d="M1234.1689,2245.6571c124.9345,10.0841,335.9643,134.2228,257.1942,582.22a6.58,6.58,0,0,1-12.0071,2.4074c-34.9122-54.7309-196.9516-313.1144-362.4849-304.3507"/><path class="cls-147" d="M1484.8411,2838.0592a10.8588,10.8588,0,0,0,2.2544-.2254,11.24,11.24,0,0,0,8.9516-9.13c36.713-208.7808,13.6764-374.0338-66.6159-477.903-70.0679-90.634-159.6266-107.0438-194.8789-109.89a4.759,4.759,0,0,0-.7655,9.4871c33.9937,2.7426,120.3727,18.5888,188.1205,106.2267,78.6063,101.69,101.0088,264.36,64.775,470.4258a1.715,1.715,0,0,1-1.4418,1.4559,1.6434,1.6434,0,0,1-1.8741-.78l-1.6673-2.6207c-164.7128-258.4515-289.3782-307.9156-365.082-303.9236a4.76,4.76,0,0,0,.5071,9.5059c73.0269-3.8888,194.32,44.9647,356.5532,299.5275l1.6673,2.6207A11.2035,11.2035,0,0,0,1484.8411,2838.0592Z"/><g class="cls-153"><path class="cls-149" d="M1441.2285,2774.6753c15.9631,23.2277,27.9342,42.1708,34.8624,53.0217a6.567,6.567,0,0,0,11.9982-2.3948c78.7819-448.0083-132.2519-572.14-257.1951-582.2246l-12.6911,30.355C1334.2224,2305.2429,1480.48,2432.2164,1441.2285,2774.6753Z"/></g><path class="cls-147" d="M1484.7426,2866.6142a40.8588,40.8588,0,0,0,7.9324-.7889,39.6231,39.6231,0,0,0,31.4812-32.19c38.6808-219.9962,14.4043-388.3208-72.1486-500.2866-77.0282-99.6422-176.13-117.7239-215.1586-120.88a33.2938,33.2938,0,1,0-5.3589,66.3717c30.213,2.4329,107.0533,16.5975,167.841,95.2368,64.8829,83.9369,88.4783,214.3507,69.26,379.7917-124.5856-179.1924-243.2066-267.2716-353.4817-261.1755a33.2889,33.2889,0,1,0,3.5223,66.4845c53.5409-2.7617,167.9772,30.5934,330.9806,286.3771l1.6765,2.63A39.5417,39.5417,0,0,0,1484.7426,2866.6142Zm-26.1645-44.5046h0Z"/><path class="cls-155" d="M450.6745,2257.5276c-124.5717,13.8643-338.7339,144.445-246.4282,589.8505a6.58,6.58,0,0,0,12.0746,2.0426c33.2382-55.7634,194.7969-319.05,360.52-315.3049"/><path class="cls-147" d="M210.736,2857.3619a11.22,11.22,0,0,0,9.67-5.5043c43.9692-73.7735,198.6361-313.0254,352.97-313.0254,1.1225,0,2.24.0094,3.358.0375a4.7541,4.7541,0,1,0,.2161-9.5058c-1.2118-.0281-2.4422-.047-3.6539-.047-154.9065,0-303.8861,221.7433-361.0618,317.6751a1.6949,1.6949,0,0,1-1.8458.8266,1.7143,1.7143,0,0,1-1.4842-1.4089c-41.9074-202.2056-23.9854-364.3119,51.8313-468.7728C327.8493,2285.1618,416.29,2266.1408,451.2,2262.252a4.7517,4.7517,0,0,0,4.1987-5.2508,4.6766,4.6766,0,0,0-5.2508-4.1986c-36.1634,4.02-127.77,23.6987-197.11,119.2455-77.4322,106.687-95.9131,271.3858-53.4515,476.2964a11.26,11.26,0,0,0,9.2287,8.8578A11.1243,11.1243,0,0,0,210.736,2857.3619Z"/><path class="cls-3" d="M204.2229,2847.3754a6.5974,6.5974,0,0,0,12.098,2.0233c17.0348-28.5415,67.729-111.5551,135.4224-185.2291,63.9353-69.6476,143.11-130.9319,223.3273-130.0492.5761-.0111,1.1971.0289,1.7733.0181l-.7557-1.679L450.6945,2257.5453c-34.9684,3.8928-77,16.9707-117.3184,43.6818C230.0162,2369.4942,137.8568,2526.955,204.2229,2847.3754Z"/><path class="cls-147" d="M210.7171,2857.3433a11.2382,11.2382,0,0,0,9.6844-5.5045c42.02-70.3918,88.6474-134.1711,134.8474-184.4432C433.5406,2582.0968,506.91,2538.86,573.3383,2538.86c.5635,0,1.1177.0094,1.6813.0094l1.9022.0189a4.7526,4.7526,0,0,0,4.26-6.7067l-.7514-1.6721L455.0178,2255.5735a4.7841,4.7841,0,0,0-4.8515-2.7523c-40.55,4.5088-82.96,20.2892-119.4147,44.4389-80.5929,53.2307-204.812,195.6116-131.1889,551.0844a.0727.0727,0,0,1,.0094.0378,11.2965,11.2965,0,0,0,9.2758,8.8107A11.4437,11.4437,0,0,0,210.7171,2857.3433Zm358.7465-327.9511c-68.0672,1.5686-142.4982,45.8008-221.222,131.5692-46.6273,50.7417-93.6587,115.0563-136.0074,185.9931a1.7018,1.7018,0,0,1-1.8458.8547,1.7659,1.7659,0,0,1-1.5123-1.4184c-72.4867-349.95,48.5341-489.2872,127.1216-541.2029,34.2-22.6469,73.7689-37.6759,111.811-42.5133ZM204.2217,2847.3771h0Z"/><g class="cls-154"><path class="cls-147" d="M351.7433,2664.17c63.9353-69.6476,143.11-130.9319,223.3273-130.0492.3238-.5548.6945-1.1063,1.0176-1.6609L450.6945,2257.5453c-34.9684,3.8928-77,16.9707-117.3184,43.6818C304.345,2391.1463,301.6249,2510.4246,351.7433,2664.17Z"/></g><path class="cls-147" d="M210.825,2885.9077a39.5282,39.5282,0,0,0,34.0878-19.4343c42.2924-70.9651,191.2719-302.2329,331.1776-299.0768a33.2883,33.2883,0,1,0,1.5029-66.56c-1.39-.0375-2.8086-.0469-4.194-.0469-141.54,0-273.8374,161.1387-348.4563,272.6914-23.7317-162.6793-3.6963-292.849,58.8855-379.0872,62.126-85.5995,146.2319-101.0794,170.5272-103.7751a33.2962,33.2962,0,0,0-7.3641-66.1839c-39.9349,4.4523-141.0237,26.094-217.0514,130.8554-83.4484,114.9811-103.0614,282.8172-58.2938,498.84a39.63,39.63,0,0,0,32.4345,31.2131A41.0819,41.0819,0,0,0,210.825,2885.9077Z"/><path class="cls-149" d="M806.8418,157.2959s-552.2681,336.5563-601.4166,1252.01c-41.8311,779.9076,297.1964,1167.2771,297.1964,1167.2771a981.7149,981.7149,0,0,0,681.6849-10.3719s146.0492-177.365,223.41-527.2188c2.649-12.0279,5.2593-24.3172,7.7383-36.7586,27.0645-135.3227,43.5661-294.7307,38.1291-477.9579q-1.8456-64.8434-7.62-133.6748c-.1262-1.8165-.3124-3.6084-.4978-5.3988-15.9237-184.9907-51.8348-345.4675-98.8164-483.7991-1.4853-4.439-3.0062-8.7939-4.5265-13.1492C1156.5668,356.0946,806.8418,157.2959,806.8418,157.2959Z"/><path class="cls-147" d="M830.4605,2637.2532a982.2726,982.2726,0,0,0,355.567-66.6065,4.7473,4.7473,0,0,0,1.9537-1.4089c1.4655-1.7849,147.66-182.264,224.378-529.2175,2.6536-12.0607,5.2742-24.3846,7.7587-36.8585,30.2975-151.464,43.1567-312.6311,38.2207-479.03-1.2258-43.1144-3.7949-88.1733-7.6366-133.9271-.127-1.8035-.3147-3.6539-.5073-5.5044-14.7754-171.6778-48.1021-334.8268-99.041-484.8255-1.4841-4.4428-3.0152-8.82-4.5415-13.1878C1162.5963,358.9536,812.703,155.1512,809.19,153.16a4.7228,4.7228,0,0,0-4.8233.075c-1.39.8455-140.5351,86.9145-283.6487,283.9726-131.9543,181.6911-294.5915,497.7881-320.042,971.84C159.2194,2181.95,495.6383,2575.8317,499.0435,2579.711a4.6978,4.6978,0,0,0,1.996,1.3526A992,992,0,0,0,830.4605,2637.2532Zm350.9362-75.0133a976.9284,976.9284,0,0,1-675.98,10.2853c-18.1944-21.6793-335.503-412.4045-295.2442-1162.9707C235.4868,938.0954,397.0342,623.83,528.1009,443.2192,659.8394,261.688,787.9662,175.121,806.9215,162.8724c31.3918,19.04,356.0178,225.942,530.7108,726.9517,1.5171,4.33,3.0293,8.67,4.5088,13.0847,50.6992,149.3036,83.8664,311.6918,98.5853,482.6934.1926,1.8315.3711,3.5692.4933,5.3258,3.8276,45.6506,6.3873,90.54,7.613,133.4762,4.9126,165.685-7.8854,326.1288-38.0421,476.8978-2.475,12.4175-5.077,24.6661-7.7212,36.6707C1329.7515,2369.5494,1192.88,2547.7368,1181.3967,2562.24Z"/><path class="cls-3" d="M319.495,814.851A2367.0188,2367.0188,0,0,1,1308.51,799.8667C1117.7943,328.8123,804.017,150.4581,804.017,150.4581S495.8534,338.2353,319.495,814.851Z"/><path class="cls-147" d="M319.4941,819.6012a4.6216,4.6216,0,0,0,1.0661-.1219c326.3731-74.91,658.4665-79.9542,987.0236-14.9445a4.838,4.838,0,0,0,4.5932-1.6344,4.7725,4.7725,0,0,0,.742-4.8187C1123.77,330.8965,809.5233,148.1158,806.3672,146.3218a4.723,4.723,0,0,0-4.8233.0752c-3.095,1.8785-311.5976,194.0992-486.5115,666.7983a4.7546,4.7546,0,0,0,4.4617,6.4059ZM848.58,749.754a2364.1467,2364.1467,0,0,0-521.5527,58.5C492.9942,366.75,775.1587,174.8111,804.1036,156.0342c29.4755,17.8657,317.4027,201.1629,496.6749,637.4731A2370.2112,2370.2112,0,0,0,848.58,749.754Z"/><g class="cls-154"><path class="cls-147" d="M270.4835,1396.9276c42.5017-792.0008,461.5227-1150.6387,573.81-1232.996q-5.0754-3.4032-9.0148-5.9241c10.6358,6.8373,27.76,18.413,49.7563,35.2366C734.2541,350.34,523.9773,650.2559,461.0585,1140.4229c53.602-122.4112,174.8348-208.815,317.1743-210.9717,194.3743-2.9446,354.335,152.2405,357.28,346.6163s-152.2393,354.3356-346.6157,357.2813c-164.9421,2.4988-305.0478-108.89-345.5129-261.4457-9.2076,336.1769,52.5129,595.1151,122.3243,777.1977,94.8775,247.4513,342.9072,402.7863,606.4866,375.1956q2.1806-.23,4.3587-.4668c10.4432-1.14,20.8747-2.5011,31.2945-3.9838,4.41-.3588,8.8083-.64,13.2276-1.0994,1.4538-.1545,2.9075-.3078,4.3588-.4692,1.5513-.1695,3.1-.3982,4.6492-.5737-18.1321,27.651-29.6178,41.6437-29.6178,41.6437a980.1571,980.1571,0,0,1-218.6765,56.852,980.7406,980.7406,0,0,1-414.0887-52.0577S228.6715,2176.782,270.4835,1396.9276Z"/></g><g class="cls-154"><path class="cls-147" d="M1230.0927,2517.7012l-.0092.0023c.2834-.43.5294-.7918.8151-1.2273C1230.6269,2516.8907,1230.3669,2517.288,1230.0927,2517.7012Z"/></g><g class="cls-154"><path class="cls-147" d="M1231.0078,2516.31c-.0373.0581-.07.1069-.1092.166.0371-.0556.0719-.1079.1092-.166Z"/></g><g class="cls-153"><path class="cls-149" d="M761.8805,184.83c24.4128-18.62,38.871-27.4384,38.871-27.4384s313.7769,178.3538,504.4933,649.41q-31.67-6.2652-63.463-11.6473C1071.998,399.2107,817.6888,220.4459,761.8805,184.83Z"/></g><path class="cls-147" d="M319.4941,848.1376a33.0143,33.0143,0,0,0,7.4487-.8453c322.4515-74.0273,650.5294-78.9962,975.1038-14.766a33.29,33.29,0,0,0,37.3188-45.1528C1187.4741,412.2127,957.38,217.6154,865.5063,151.3659a102.2476,102.2476,0,0,0-122.9277,1.8785c-89.798,68.9925-313.8427,270.4467-454.3073,650.0505a33.2887,33.2887,0,0,0,31.2228,44.8427ZM848.5705,721.2085a2387.5639,2387.5639,0,0,0-475.4888,47.9987c134.6269-326.42,329.426-501.2164,410.07-563.1641a36.0889,36.0889,0,0,1,43.4056-.6669c82.5045,59.4867,282.5543,228.3091,427.0062,550.4927A2393.1925,2393.1925,0,0,0,848.5705,721.2085Z"/><path class="cls-147" d="M826.5718,2659.0546q7.7563,0,15.5176-.1127A1010.5943,1010.5943,0,0,0,1193.49,2590.41a33.2616,33.2616,0,0,0,13.6624-9.8815c13.7091-16.6539,334.9584-416.9132,269.1268-1199.5851-17.9973-214.0126-64.0611-413.72-136.9141-593.579a33.299,33.299,0,0,0-24.394-20.1576C981.2765,701.1823,643.9979,706.264,312.4867,782.3013a33.3531,33.3531,0,0,0-24.2812,20.9936c-67.3674,181.9916-107.3632,383.004-118.8651,597.449C127.25,2185.0593,460.5458,2575.4,474.7528,2591.6309a33.3217,33.3217,0,0,0,13.9629,9.4683A1011.2335,1011.2335,0,0,0,826.5718,2659.0546Zm334.2493-127.4363a947.7354,947.7354,0,0,1-641.1974,9.7313c-42.1844-53.3155-321.4746-434.8919-283.7989-1137.0365,10.7928-201.1159,47.3319-389.73,108.66-560.9754C655.4059,774.43,971.4,769.6206,1284.3217,829.0884c66.4892,169.292,108.73,356.7315,125.6048,557.4343C1469.0327,2089.1745,1201.4041,2477.2885,1160.8211,2531.6183Zm-661.0168,38.089h0Zm0,0h0Z"/><path class="cls-147" d="M831.8368,2829.8683a844.5922,844.5922,0,0,0,239.21-34.5854,161.7841,161.7841,0,0,0,112.6611-122.12l22.7734-108.5657a25.5865,25.5865,0,1,0-50.0839-10.5013l-22.7737,108.5655a110.6724,110.6724,0,0,1-77.0705,83.533,793.32,793.32,0,0,1-426.2877,6.4623,110.6739,110.6739,0,0,1-79.5642-81.1659L524.649,2563.6675a25.5892,25.5892,0,0,0-49.746,12.0232l26.0519,107.8235a161.7854,161.7854,0,0,0,116.31,118.6446A844.5032,844.5032,0,0,0,831.8368,2829.8683Z"/><circle class="cls-3" cx="820.8072" cy="1257.613" r="316.5266" transform="translate(-648.8578 948.7446) rotate(-45)"/><path class="cls-147" d="M820.7341,1578.8936c1.6484,0,3.2876-.0094,4.9406-.0377A321.284,321.284,0,0,0,1044.52,1027.0106c-61.5907-59.75-142.841-92.2122-228.5767-90.6435A321.2752,321.2752,0,0,0,499.56,1262.4865C502.223,1437.9594,645.8343,1578.8936,820.7341,1578.8936Zm.202-633.0583a311.7753,311.7753,0,0,1,4.5978,623.5148c-1.5968.0189-3.2078.0377-4.7952.0377-169.7381,0-309.0851-136.7544-311.6635-307.0515l-4.7575.0752,4.7575-.0752A311.7652,311.7652,0,0,1,816.0845,945.873C817.7,945.8541,819.3251,945.8353,820.9361,945.8353Z"/><g class="cls-153"><path class="cls-149" d="M739.4019,950.4906c7.1691-.6254,14.3665-.9914,21.6441-1.1049,174.7684-2.67,318.6044,136.9129,321.2735,311.6819,2.3512,154.0874-105.8042,284.1065-251.2109,314.5655,164.7306-13.4261,292.9677-152.6136,290.4519-320.2155-2.6745-174.82-146.5051-314.3489-321.3312-311.7267A319.7849,319.7849,0,0,0,739.4019,950.4906Z"/></g><g class="cls-154"><path class="cls-156" d="M504.3393,1262.4317c2.66,174.7417,146.4362,314.3457,321.2444,311.6906a315.088,315.088,0,0,0,151.1311-41.03,319.2016,319.2016,0,0,1-70.7871,9.0645C731.1186,1544.812,587.27,1405.271,584.6153,1230.4619c-1.8052-119.8425,63.3041-225.1477,160.6986-280.2733C605.1288,984.4426,502.0747,1111.9707,504.3393,1262.4317Z"/><path class="cls-147" d="M820.7012,1578.9123c1.6578,0,3.2922-.0092,4.9549-.0375a321.5708,321.5708,0,0,0,153.4083-41.6491,4.7552,4.7552,0,0,0-3.4756-8.7544,315.6888,315.6888,0,0,1-69.7344,8.9329c-83.2089,1.0144-162.05-29.9641-221.8278-87.9572a311.7209,311.7209,0,0,1,63.629-495.12,4.7585,4.7585,0,0,0-3.4707-8.7638c-146.2931,35.75-246.8745,166.08-244.6014,316.9425h0C502.2559,1437.9781,645.8483,1578.9123,820.7012,1578.9123ZM943.85,1544.1014a312.78,312.78,0,0,1-118.3391,25.2676c-1.6015.0188-3.2078.0375-4.8093.0375-169.6866,0-309.0147-136.7542-311.6025-307.0514-2.0384-134.9134,80.6964-252.9,204.7887-297.7335A321.2275,321.2275,0,0,0,677.4,1456.2758c61.6,59.75,143.0948,92.2217,228.6,90.6342A324.409,324.409,0,0,0,943.85,1544.1014ZM504.3412,1262.43h0Z"/></g><path class="cls-147" d="M820.7293,1599.7276c1.7565,0,3.5036-.0094,5.265-.0377a342.1155,342.1155,0,0,0,233.0337-587.6236c-65.5875-63.6385-151.8351-98.0831-243.4039-96.5331a342.123,342.123,0,0,0-336.8933,347.2634C481.5627,1449.6538,634.4874,1599.7276,820.7293,1599.7276Zm.202-633.0584a290.94,290.94,0,0,1,4.2833,581.8471c-1.4842.0187-2.9871.0375-4.4711.0375-158.3961,0-288.43-127.6148-290.8391-286.5274l-25.5867.3851,25.5867-.3851A290.941,290.941,0,0,1,816.4038,966.7069C817.9114,966.6786,819.4236,966.6692,820.9313,966.6692Z"/><circle class="cls-157" cx="824.5162" cy="1253.79" r="201.3692" transform="translate(-645.0682 950.2476) rotate(-45)"/><g class="cls-151"><path class="cls-149" d="M623.1445,1256.8547c1.6852,111.2108,93.21,199.96,204.4212,198.2744a199.1769,199.1769,0,0,0,68.4158-13.0576c-2.2313.1266-4.459.1855-6.753.24-111.211,1.6853-202.7363-87.0636-204.4212-198.275a201.3572,201.3572,0,0,1,129.8588-191.3635C706.6662,1057.8665,621.5138,1147.9377,623.1445,1256.8547Z"/></g><g class="cls-154"><path class="cls-147" d="M737.2605,1069.5929c3.448-.183,6.8959-.3657,10.4024-.41,111.211-1.6854,202.7354,87.0638,204.4211,198.2748A201.2591,201.2591,0,0,1,831.1529,1455.15c106.3009-7.0543,189.514-96.3067,187.8727-204.0112-1.69-111.1442-93.1429-199.9559-204.3539-198.2706A200.5377,200.5377,0,0,0,737.2605,1069.5929Z"/></g><path class="cls-147" d="M824.4724,1478.9415c1.1554,0,2.2967-.0094,3.4567-.0282,124.1347-1.888,223.5889-104.4044,221.71-228.5344a225.1338,225.1338,0,0,0-228.5343-221.7056c-124.13,1.8692-223.5891,104.3951-221.7153,228.5249h0C601.2546,1380.1729,701.9065,1478.9415,824.4724,1478.9415Zm.127-402.7391a177.5737,177.5737,0,0,1,177.4828,174.89c1.4841,97.9137-76.9625,178.7791-174.8764,180.2725-97.9936,1.6627-178.7743-76.9578-180.2585-174.881-1.4841-97.9137,76.9672-178.7789,174.881-180.2631C822.7488,1076.2118,823.6787,1076.2024,824.5994,1076.2024Zm-201.4307,180.639h0Z"/><g class="cls-158"><path class="cls-149" d="M953.899,481.6186c45.0217-16.9271,117.9463,61.0233,139.0938,113.4271,21.9038,54.2774,26.013,90.6742-.0775,101.714-36.435,15.4168-66.7146-21.4032-89.2838-70.7058C987.6715,591.1892,898.3363,502.5087,953.899,481.6186Z"/></g><g class="cls-158"><path class="cls-149" d="M841.8056,369.1933c39.7158-12.9937,94.8147,18.766,108.1821,42.91,13.8457,25.0073,14.1466,42.836-8.9768,50.9825-32.2914,11.3767-54.7793-4.0424-69.6259-26.49C860.8861,420.722,792.7912,385.229,841.8056,369.1933Z"/></g><path class="cls-3" d="M722.4685,2529.8221c2.4035,156.004,128.225,307.7524,128.225,307.7524s.47-.5933,1.26-1.6933c12.9966-17.1962,119.77-163.2648,117.6185-309.758-2.0976-140.591-105.4766-252.0079-124.7006-271.5126-1.9815-1.9973-3.0668-3.0263-3.0668-3.0263S720.046,2374.8719,722.4685,2529.8221Z"/><path class="cls-147" d="M850.6982,2842.3237h.0421a4.7868,4.7868,0,0,0,3.6774-1.7942s.5213-.6575,1.4-1.8785c12.2956-16.269,120.692-164.0978,118.5129-312.5934-2.1229-141.9863-105.3955-253.8113-126.0744-274.7769-2.0524-2.0759-3.1749-3.1466-3.1749-3.1466a4.7461,4.7461,0,0,0-6.6643.1033c-1.2306,1.2493-123.13,126.5064-120.7062,281.6619,2.4046,155.8693,128.0515,309.1743,129.32,310.7054A4.7693,4.7693,0,0,0,850.6982,2842.3237Zm-8.7779-583.923c21.186,21.5854,120.847,130.3952,122.8946,267.7977,2.0338,138.2666-94.4006,276.6085-114.2437,303.576C829.6576,2802.92,729.339,2667.02,727.2256,2529.749h0C725.0793,2392.76,822.6643,2279.4038,841.92,2258.4007Z"/><g class="cls-153"><path class="cls-149" d="M823.4825,2247.8877S816.07,2255.41,804.9672,2269c34.0394,38.4486,109.6422,137.18,111.4243,257.24,1.7463,117.81-66.9707,235.3418-100.6371,285.8,10.0775,14.0029,16.6031,21.892,16.6031,21.892s.4561-.6273,1.2814-1.7136c12.9633-17.2012,119.7326-163.2764,117.58-309.7811-2.0832-140.5855-105.447-251.9669-124.6737-271.4739C824.54,2248.9259,823.4825,2247.8877,823.4825,2247.8877Z"/></g><g class="cls-154"><path class="cls-147" d="M722.4685,2529.8221c2.4035,156.004,128.225,307.7524,128.225,307.7524s.47-.5933,1.26-1.6933l-7.0821-581.2706c-1.9815-1.9973-3.0668-3.0263-3.0668-3.0263S720.046,2374.8719,722.4685,2529.8221Z"/></g><path class="cls-147" d="M850.6933,2863.1669h.39a25.5869,25.5869,0,0,0,19.7913-9.8534C876.05,2846.6727,997.5593,2688.85,995.136,2525.71c-2.4329-163.8252-130.2309-287.4574-135.6742-292.633a25.58,25.58,0,0,0-35.8535.5448c-5.2789,5.3447-129.2727,132.7716-126.7459,296.6156,2.522,163.1208,128.7608,317.1961,134.1337,323.6772A25.5764,25.5764,0,0,0,850.6933,2863.1669Zm-8.2988-573.28c33.1343,38.53,99.9757,129.3525,101.5678,236.5843,1.6063,107.8518-61.0318,217.5069-93.9076,267.4784-34.3694-49.0227-100.3561-156.912-102.0186-264.5007C746.3829,2422.2167,810.4251,2329.4127,842.3945,2289.8865Z"/></svg>