<svg id="Layer_1" data-name="Layer 1" xmlns="http://www.w3.org/2000/svg" width="4000" height="4000" viewBox="0 0 4000 4000"><defs><style>.cls-1{opacity:0.3;}.cls-2{fill:#371a45;}.cls-3{fill:#fff;}.cls-4{opacity:0.35;}.cls-5{fill:#4a83ff;}.cls-6{fill:#a34f31;}.cls-7{fill:#6b184e;}.cls-8{fill:#bf943d;}.cls-9{fill:#ec1c24;}.cls-10{fill:#ffce00;}.cls-11{opacity:0.7;}.cls-12{fill:#220f2d;}</style></defs><title>service-worker</title><g class="cls-1"><ellipse class="cls-2" cx="2065" cy="3430" rx="830" ry="150"/></g><path class="cls-3" d="M1775.347,1816.6351l-78.1428,247.5186c-119.837,33.8487-419.7589-19.9655-626.598-162.5442-89.2054-61.4389-161.0895-139.4054-193.7924-233.9438-95.6841-276.5631,151.7022-293.3994,246.9456-233.3268,74.0884,46.7184,128.74,108.8624,195.5119,170.2572C1415.1318,1692.7437,1536.026,1779.3488,1775.347,1816.6351Z"/><g class="cls-4"><path class="cls-2" d="M1723.8652,1979.7507l-26.6643,84.4012c-119.837,33.8489-419.7589-19.9653-626.5975-162.5442-89.2053-61.4387-161.0894-139.4052-193.7929-233.9436-35.4791-102.56-23.8-169.3756,9.8289-209.8353-1.9837,33.8486,4.1873,74.9254,21.2433,124.2438q.7489,2.1648,1.6107,4.4126c27.0474,70.6093,118.1882,89.495,172.8286,37.23,10.5548-10.096,17.684-15.1586,17.7123-10.4465.5677,94.4461-29.4281,168.6868,1.6408,202.7481C1268.9225,1999.3719,1601.208,2011.0871,1723.8652,1979.7507Z"/></g><path class="cls-5" d="M1775.3437,1816.6335l-36.0085,114.0189-42.1343,133.4995c-20.715,5.8619-46.8069,9.0792-76.865,9.6963-143.857,2.909-378.6382-54.299-549.7325-172.24,140.2426-69.6366,213.8021-206.9263,248.6646-297.0132,44.69,41.1207,94.891,81.8889,159.9876,117.5448,58.9708,32.2179,130.2383,60.2047,220.7655,80.3464Q1735.59,1810.4191,1775.3437,1816.6335Z"/><g class="cls-4"><path class="cls-2" d="M1775.3437,1816.6335l-78.1428,247.5184c-119.837,33.8489-419.7589-19.9653-626.5975-162.5442a416.4455,416.4455,0,0,0,61.3068-37.4187c107.064,61.2833,230.2033,101.8255,338.4794,121.7456a252.5216,252.5216,0,0,0,286.4873-172.342v0C1762.9587,1814.65,1769.085,1815.6637,1775.3437,1816.6335Z"/></g><path class="cls-2" d="M1608.5193,2090.7107c-115.1416.0049-272.1631-36.0327-406.7041-97-51.587-23.35-98.8916-49.8047-140.6006-78.623-101.2549-69.7388-168.53-151.1817-199.9365-242.0532-49.2383-142.3218-8.8672-212.4219,33.6767-246.167,65.6494-52.07,175.8447-45.3711,237.5733-6.4331,55.6689,35.1269,99.7851,77.8784,146.4892,123.14,16.6162,16.1035,33.8037,32.7564,51.6358,49.1358,34.0673,31.3427,64.4433,55.94,95.61,77.4194,96.3672,66.521,208.0908,107.91,351.6113,130.2637a16.4384,16.4384,0,1,1-5.0586,32.4853c-148.5937-23.1421-264.6435-66.2573-365.22-135.686-32.456-22.3657-63.9795-47.8784-99.1943-80.2783-18.1446-16.6651-35.4883-33.4742-52.2657-49.7315-45.4443-44.0381-88.3691-85.6372-141.1523-118.9429-51.123-32.2485-145.6836-38.3789-199.6,4.3872-49.0625,38.9136-57.0264,111.4161-23.0322,209.6631,29.0625,84.1016,92.1582,160.0489,187.5341,225.7373,40.1075,27.7149,85.6885,53.191,135.4932,75.7349,186.7041,84.6021,389.3164,109.4458,477.3584,84.57a16.4391,16.4391,0,0,1,8.9356,31.6406C1675.9411,2087.2415,1644.237,2090.7107,1608.5193,2090.7107Z"/><path class="cls-3" d="M1425.3187,1703.2926c-33.8944,125.4137-121.37,216.8528-198.8324,276.276a42.5715,42.5715,0,0,1-44.3662,4.5772c-22.9458-11.0407-45.4867-22.8847-67.3887-35.54-26.872-15.5275-28.3487-53.95-2.8144-71.5906a488.298,488.298,0,0,0,85.6588-74.9336c52.8508-58.7415,86.2228-114.7715,107.114-159.7415a42.5394,42.5394,0,0,1,65.8036-14.9365c12.3844,10.2945,25.2569,20.4792,38.7533,30.49A42.7485,42.7485,0,0,1,1425.3187,1703.2926Z"/><g class="cls-4"><path class="cls-2" d="M1399.0415,1774.4107c-42.1784,89.558-110.581,157.608-172.5491,205.1635a42.5722,42.5722,0,0,1-44.3826,4.5839c-22.9182-11.0626-45.4839-22.9184-67.3885-35.5676-26.8408-15.5141-28.34-53.9463-2.8208-71.5758,9.8725-6.7876,19.745-14.1478,29.4852-21.9928a41.8013,41.8013,0,0,0,17.2771,19.0838c21.9051,12.6491,44.47,24.4611,67.389,35.5234a42.562,42.562,0,0,0,44.3821-4.5836C1313.8911,1871.7258,1360.5205,1828.2691,1399.0415,1774.4107Z"/></g><path class="cls-2" d="M1200.6433,2004.844a59.13,59.13,0,0,1-25.6543-5.8837c-23.6719-11.3916-46.7139-23.5425-68.4815-36.1207a58.8988,58.8988,0,0,1-3.9355-99.3505,472.9272,472.9272,0,0,0,82.7881-72.4048c44.0381-48.9478,79.1748-101.3233,104.4238-155.6714A58.9745,58.9745,0,0,1,1381,1614.761c12.91,10.73,25.3516,20.52,38.042,29.9292a58.8668,58.8668,0,0,1,22.1485,62.8907v.0024c-36.0743,133.4619-131.2256,228.6646-204.6973,285.0269A58.7949,58.7949,0,0,1,1200.6433,2004.844Zm142.7783-370.8276a26.249,26.249,0,0,0-23.8232,15.2466c-26.626,57.3169-63.5694,112.4316-109.8,163.8135a506.1245,506.1245,0,0,1-88.5352,77.4633,26.016,26.016,0,0,0,1.6895,43.8331c21.06,12.163,43.3642,23.9257,66.2939,34.9609a26.0183,26.0183,0,0,0,27.2363-2.8076c69.4434-53.2764,159.2969-142.9346,192.9688-267.522v.0024a26.1734,26.1734,0,0,0-10-27.91c-13.1738-9.773-26.084-19.9292-39.4678-31.0523A25.8268,25.8268,0,0,0,1343.4216,1634.0164Zm81.8994,69.2774h0Z"/><path class="cls-3" d="M2743.953,2607.42c-94.5422,123.26-340.7115,80.534-340.7115,80.534l-2.1516-832.918-.4391-168.2263s140.43,3.7324,247.1353,47.82c51.4208,21.2092,94.9812,51.8156,111.2726,95.8592C2815.7926,1983.5222,2821.6329,2506.1162,2743.953,2607.42Z"/><g class="cls-4"><path class="cls-2" d="M2801.5431,2177.9992c3.3072,182.6423-13.9738,372.5072-57.5873,429.4-94.5314,123.2682-340.7344,80.5487-340.7344,80.5487L2400.6755,1686.84s2.6143.0555,7.4132.3222l1.9717,780.56s246.203,42.7186,340.7336-80.5487C2776.3924,2353.7667,2792.9217,2274.6014,2801.5431,2177.9992Z"/></g><path class="cls-2" d="M2500.1159,2711.7483c-54.3994.0025-95.5566-6.875-99.6923-7.5927a16.4387,16.4387,0,0,1,5.61-32.3951c2.3633.41,237.544,39.5166,324.8731-74.3554,71.9677-93.84,70.3906-605.6421,12.7392-761.1914-45.7666-123.4912-340.4492-132.8955-343.4228-132.9761a16.439,16.439,0,0,1,.8838-32.8662c13.0371.3491,319.9169,10.1807,373.3691,154.4165,27.4707,74.1235,45.0976,240.3686,43.8672,413.6792-.6494,90.73-7.92,309.2773-61.3526,378.9477C2696.9275,2695.7352,2583.114,2711.7483,2500.1159,2711.7483Z"/><path class="cls-3" d="M2783.4786,2254.7948l-167.7759,12.5974a32.948,32.948,0,0,0-29.9956,26.965c-9.7916,54.1255-25.9184,180.3085,26.7291,221.9776,43.6976,34.5855,114.6476,30.5257,156.2224-4.6619,46.5054-39.3608,51.0487-163.1193,50.2956-224.3861A32.986,32.986,0,0,0,2783.4786,2254.7948Z"/><g class="cls-4"><path class="cls-2" d="M2585.7185,2294.3765c-9.8191,54.1055-25.9221,180.2965,26.7317,221.9471,43.7047,34.6014,114.6372,30.537,156.2344-4.66,28.5808-24.2263,41.31-80.3641,46.6912-134.2324-7.5583,26.9139-19.4237,48.77-34.183,63.11-84.562,82.1614-147.6879-14.7088-147.6879-14.7088s-10.9559,23.5224-19.6873,24.8546c-36.5088,5.5705-28.9593-108.7212-23.6809-167.77A31.9215,31.9215,0,0,0,2585.7185,2294.3765Z"/></g><path class="cls-2" d="M2686.3611,2556.7654c-30.5909,0-60.85-9.1162-84.126-27.539-57.6319-45.6128-45.2246-168.5645-32.7051-237.793a49.3988,49.3988,0,0,1,44.9414-40.4321l167.7783-12.5977h0a49.4206,49.4206,0,0,1,53.14,48.6817c1.0547,85.625-7.8272,196.2719-56.1084,237.1337C2753.7439,2545.8328,2719.8523,2556.7654,2686.3611,2556.7654Zm98.35-285.5786-167.7784,12.5977a16.5247,16.5247,0,0,0-15.0488,13.501c-18.7988,103.9257-11.04,180.996,20.752,206.16,36.5039,28.8941,98.5156,26.9043,135.4052-4.3213,29.1749-24.69,45.8008-103.8061,44.4776-211.6333a16.5542,16.5542,0,0,0-17.8076-16.3037Z"/><path class="cls-2" d="M2648.4692,2391.3965c1.8677,21.0473,1.76,41.1206,3.14,61.0473,1.2695,19.8511,3.5132,39.4532,8.3813,57.8614,4.8243,18.35,12.4463,35.5053,23.9234,48.4131,11.372,13.0127,26.5918,21.228,43.6328,25.288l.061.0147a16.4491,16.4491,0,0,1-7.6269,32.0019c-.3467-.083-.73-.19-1.0669-.2929a124.2779,124.2779,0,0,1-31.6626-14.7241,107.0492,107.0492,0,0,1-25.7691-23.8892c-14.3506-18.55-21.8554-40.2148-26.0083-61.2207-4.1479-21.15-5.11-42.1606-5.1342-62.7783-.09-20.5762,1.2646-41.0718.7617-60.4981l-.0073-.2295a8.7062,8.7062,0,0,1,17.3754-.9936Z"/><path class="cls-2" d="M2684.3921,1824.4092c-15.4517,1.2012-31.1719,3.0127-46.6846,5.1343q-23.32,3.1713-46.4111,7.51-23.0859,4.2517-45.8106,9.7632c-15.1684,3.5474-30.0952,7.8394-44.9072,12.2607l-.2807.0831a16.4643,16.4643,0,1,1-9.419-31.5528c.5127-.1538,1.0523-.2856,1.5674-.3857,15.9228-3.0957,31.8286-6.001,47.8-8.1128q23.9282-3.3691,47.9-5.3662,23.9612-2.0764,47.9345-2.9712c16.0157-.5957,31.8873-.8643,48.0689-.5249a7.0868,7.0868,0,0,1,.4346,14.1479Z"/><g class="cls-4"><path class="cls-2" d="M2647.7861,1734.63A707.5494,707.5494,0,0,1,2401.09,1855.0364l-.4391-168.2263S2541.0806,1690.5425,2647.7861,1734.63Z"/></g><path class="cls-3" d="M2073.4617,3293.1517c-71.7523,166.2466-378.9465,138.8766-456.4721,70.0775-79.4211-70.5622,64.1711-158.6216,64.1711-158.6216-30.0139-50.9934-46.41-123.6273-54.6069-200.2273-9.3442-86.8695-8.1982-178.7636-4.628-249.6782,3.6585-73.1186,9.9166-123.9355,9.9166-123.9355l452.8142-245.05c-.3088,92.1584-15.7346,170.9624-29.5292,234.12-29.3974,134.2486-27.502,237.5135-15.6023,321.8708,5.7739,40.9445,13.8834,77.4377,21.9487,110.8458C2084.216,3146.9149,2106.3847,3216.8158,2073.4617,3293.1517Z"/><path class="cls-5" d="M2039.5251,2941.7072c5.7739,40.9445,13.8834,77.4377,21.9487,110.8458-203.2684,35.6555-358.8486-14.28-434.92-48.1727-9.3442-86.8695-8.1982-178.7636-4.628-249.6782,3.6585-73.1186,9.9166-123.9355,9.9166-123.9355l452.8142-245.05c-.3088,92.1584-15.7346,170.9624-29.5292,234.12C2025.73,2754.085,2027.6254,2857.35,2039.5251,2941.7072Z"/><g class="cls-4"><path class="cls-2" d="M2049.1369,2648.8688q-2.7,14.2936-5.0057,28.1037Q2046.3706,2663.14,2049.1369,2648.8688Z"/></g><path class="cls-2" d="M1821.1023,3433.5062c-91.7285,0-178.11-25.2344-215.0049-58.003-21.543-19.1357-31.3623-41.3574-29.18-66.0449,4.3652-49.4141,56.9189-92.1191,82.5879-110.1807-90.9717-177.8247-45.9668-554.16-43.9551-570.5053a16.4366,16.4366,0,1,1,32.627,4.0161c-.4883,3.999-48.0664,401.7407,47.1631,563.4887a16.4349,16.4349,0,0,1-5.5713,22.3536c-21.128,13-76.7286,55.1953-80.1075,93.7524-1.2207,13.9307,4.7559,26.5381,18.2715,38.54,43.8672,38.9624,174.2578,64.4825,283.1006,40.3052,51.5674-11.4526,118.9893-38.9013,147.3535-104.6191,27.8614-64.5581,13.2764-123.7964-6.9092-205.7837-26.9043-109.2749-60.3906-245.2734-12.4121-464.4849,14.9707-68.4106,28.8623-143.7085,29.1455-230.7055a16.4413,16.4413,0,0,1,16.44-16.3843h.0537a16.44,16.44,0,0,1,16.3867,16.4917c-.2978,90.0757-14.5508,167.4414-29.9072,237.6269-46.3428,211.7432-13.8721,343.628,12.2168,449.5972,20.9033,84.9,37.4121,151.96,5.1709,226.67-26.8067,62.1094-85.7324,104.88-170.41,123.6865A450.3725,450.3725,0,0,1,1821.1023,3433.5062Z"/><path class="cls-2" d="M1948.5534,3075.3812c-99.8388,0-236.0449-11.1182-328.3154-62.9834a12.3281,12.3281,0,0,1,12.08-21.4942c151.1377,84.9561,439.6,54.0772,442.4951,53.75a12.3289,12.3289,0,0,1,2.7246,24.5069C2072.4841,3069.7244,2019.7644,3075.3812,1948.5534,3075.3812Z"/><g class="cls-4"><path class="cls-2" d="M1615.1572,2230.1263c-10.6706,95.9471-16.8623,179.1163-18.1356,248.4971C1595.265,2413.9849,1601.5444,2330.5965,1615.1572,2230.1263Z"/></g><g class="cls-4"><path class="cls-2" d="M2567.6911,2349.61c-.439-37.2811-2.7225-77.2846-6.8942-119.66C2565.9785,2273.0282,2568.262,2313.0757,2567.6911,2349.61Z"/></g><path class="cls-3" d="M1978.8219,2874.2885c162.7705,11.4225,286.4439-39.0476,328.7711-57.8781,108.6742-48.3467,192.241-136.088,233.1036-251.8973,63.0974-178.8255,17.7259-574.2067-153.6449-1023.0887L1830.0078,1505.97c-253.45,484.3365-309.7412,1014.1631-205.283,1188.4144,10.532,17.5689,22.1054,34.5381,36.61,49.513,59.7139,61.65,154.1612,97.9648,230.6,116.1786"/><path class="cls-5" d="M2566.0714,2422.0312c-3.3937,56.3265-11.9438,104.3227-25.3865,142.4907-40.8565,115.782-124.42,203.5328-233.1059,251.8819-42.3113,18.8194-165.9821,69.3281-328.7469,57.8687l-86.9134-14.1916c-76.4239-18.2025-170.8743-54.5193-230.5945-116.1785-14.5-14.9852-26.0472-31.9535-36.5809-49.5389-63.3782-105.7333-67.565-342.4536-4.4074-620.5153,13.2663-58.4419,22.7522-116.3882,42.1-177.6509,9.52-30.2346,26.5226-63.0361,37.5851-93.7116a2370.5781,2370.5781,0,0,1,129.9737-296.5284l557.0494,35.4793c33.8925,88.8089,62.8934,175.5461,87.0458,258.89a.3338.3338,0,0,1,.0441.1765C2546.0623,2048.5057,2575.5038,2266.7593,2566.0714,2422.0312Z"/><path class="cls-2" d="M1654.4873,1962.0264a116.5566,116.5566,0,0,1,.6372,17.5c-.09,5.7373-.5737,11.3574-1.1548,16.9458-1.0058,11.2109-3.2885,22.0654-5.4516,32.9467-4.209,21.7823-9.9512,43.1665-15.2759,64.68-5.4,21.4942-9.707,43.2349-13.6914,65.0147-4.0943,21.7651-7.6367,43.6181-10.9912,65.4907-12.8418,87.49-20.1367,176.0742-15.8252,263.7768,2.27,43.7427,7.39,87.41,18.5425,128.9039,5.62,20.664,12.6538,40.8789,22.2924,59.18a307.2409,307.2409,0,0,0,16.4136,27.0411,220.56,220.56,0,0,0,19.1138,24.6191c28.3081,30.4492,64.9316,54.3774,103.7329,73.0566q14.59,7.0423,29.69,13.1519c10.0342,4.1284,20.4834,7.2266,30.857,10.4419a291.0066,291.0066,0,0,1,30.6372,11.3843,125.173,125.173,0,0,1,14.851,7.8222,84.7751,84.7751,0,0,1,14.3409,10.7642l.1928.188a6.2253,6.2253,0,0,1-2.7343,10.4712c-12.3658,3.32-24.1382,3.0664-35.5518,1.4331a168.1715,168.1715,0,0,1-33.1982-8.8965c-10.73-4.0747-21.2061-8.794-31.8287-13.1372-10.62-4.3555-21.1547-8.9819-31.5283-14.0064-41.438-20.0512-81.1523-45.5-113.8354-80.6079a253.55,253.55,0,0,1-21.9507-28.2324,337.3706,337.3706,0,0,1-18.3081-30.2075c-11.1694-21.2573-18.8257-43.523-24.9268-65.896-12.0263-44.8511-17.2583-90.43-19.6362-135.7959-4.4458-90.8423,3.0786-181.1768,16.14-270.2979,3.4131-22.268,7.0215-44.5019,11.1817-66.6259q3.0176-16.615,6.4038-33.1519l6.4307-33.1445c4.1479-22.1289,8.767-44.19,15.3442-65.74,6.35-21.5918,14.3823-42.7881,28.5425-62.0532a5.8479,5.8479,0,0,1,10.5151,2.7319Z"/><path class="cls-2" d="M2026.9763,2892.4148q-24.0821,0-49.3066-1.7285a16.4393,16.4393,0,0,1,2.3046-32.7978,676.3568,676.3568,0,0,0,320.9327-56.4966c106.1523-47.2241,185.8056-133.291,224.2871-242.3511,55.2685-156.6333,30.1318-526.5747-149.751-1001.8847l-546.4795-34.78a16.4395,16.4395,0,0,1,2.09-32.8125l557.0411,35.4541a16.44,16.44,0,0,1,14.3115,10.542c161.26,422.395,223.0664,838.0957,153.7939,1034.4214-41.5185,117.666-127.4365,210.5175-241.9287,261.45A710.6032,710.6032,0,0,1,2026.9763,2892.4148Z"/><path class="cls-2" d="M2026.9568,2892.4q-24.0675,0-49.2676-1.7261a16.4392,16.4392,0,0,1,2.3-32.7978,676.3963,676.3963,0,0,0,320.9131-56.4893c106.1523-47.2217,185.8056-133.2861,224.2822-242.3315,60.9277-172.7,15.0537-530.3565-116.87-911.1743a16.4379,16.4379,0,0,1,31.0644-10.7618c134.2139,387.4146,180.0635,753.5889,116.8116,932.8736-41.5186,117.6562-127.4366,210.5005-241.9288,261.4331A710.8551,710.8551,0,0,1,2026.9568,2892.4Z"/><path class="cls-2" d="M1903.64,3211.8652a318.0452,318.0452,0,0,0-55.332-12.7368,288.5892,288.5892,0,0,0-55.271-2.6733c-9.1138-.0049-18.1079,1.6382-27.0483,2.4341-8.8575,1.726-17.7588,2.7514-26.3941,5.1294-4.3066,1.1938-8.7622,1.7529-13.01,3.14-4.2456,1.377-8.5254,2.6367-12.8321,3.833a127.923,127.923,0,0,0-12.7148,4.2774c-4.2261,1.5014-8.501,2.9174-12.8589,4.2187l-1.5576.4639a16.4207,16.4207,0,0,1-12.4536-30.2075c18.13-9.7144,37.7661-17.2876,58.2519-20.6592,10.12-2.3242,20.5249-2.6831,30.7886-3.479,5.1489-.1807,10.3125.0879,15.4419.1782a140.8706,140.8706,0,0,1,15.3272,1.0474,240.3671,240.3671,0,0,1,59.1235,13.3081c18.8452,6.9262,36.8066,15.74,52.8613,27.644a2.3616,2.3616,0,0,1-2.1362,4.1431Z"/><g class="cls-4"><path class="cls-2" d="M2567.6918,2349.61c-.88,62.7493-216.1682-262.1148-216.1682-219.0378,0,94.5552,31.21,236.1742,23.3527,365.3654-2.0169,33.1926-5.1535,64.7217-8.27,92.8794-6.9752,62.9618-23.9855,109.3657-59.0047,122.1444-37.392,13.6537-138.2995,47.531-273.4945,48.7792-17.8556.1656-36.2871-.2151-55.2723-1.3125-79.4556-4.5554-264.3789-40.1331-341.4-130.6767a165.362,165.362,0,0,1-12.7046-16.867c-16.993-26.0839-26.0394-70.6538-27.7078-132.2611-2.0194,103.7623,6.8491,176.7445,27.7078,215.7826.2892.5388.6254,1.05.917,1.5868-1.3174,17.087-2.64,36.89-3.7273,58.7031.8775,1.9774,1.8439,3.8658,2.81,5.6652,47.1726,88.3561,161.4545,138.48,254.4253,162.4777,43.8259,11.313,78.4941,45.3114,89.8788,89.12,26.9935,103.8637,76.5067,157.0351,51.2088,233.9794-51.7279,157.1586-318.623,110.4359-423.3542,48.6975-7.8155,22.3937-4.9162,46.3693,20.1123,68.59,77.5054,68.81,384.7115,96.1667,456.4627-70.0829,44.6144-103.3693-11.8568-194.9238-33.9439-351.425-1.3175-9.3554-2.5014-18.9258-3.5568-28.8077-.2645-2.2839-.482-4.61-.702-6.9381-.2645-2.5014-.482-4.9607-.702-7.5091-.2644-2.8523-.4844-5.7516-.7464-8.693-.309-4.3922-.6155-8.8709-.922-13.3942-.01-.1631-.0148-.3361-.0247-.4992,135.8154-1.2829,237.23-42.7927,274.7353-59.4842,108.6811-48.3466,192.247-136.0823,233.0846-251.8769C2559.6118,2510.8988,2568.7892,2437.7856,2567.6918,2349.61Z"/></g><path class="cls-3" d="M2514.7292,3355.0754c-71.7964,166.2906-378.9906,138.9207-456.4727,70.1215-79.4211-70.5622,64.1276-158.6216,64.1276-158.6216-50.5967-59.1472-74.5731-140.5073-84.4456-220.8978-17.9819-146.1048,10.622-288.9479,10.622-288.9479l477.3189-309.09c-.3082,92.2023-15.69,171.0063-29.5292,234.208-34.9508,159.68-25.6507,275.55-7.8453,367.9283C2513.3626,3179.0446,2554.7916,3262.3,2514.7292,3355.0754Z"/><path class="cls-5" d="M2496.35,2681.848c-34.9508,159.68-25.6507,275.55-7.8453,367.9283-274.7118,96.2129-446.0713-1.5428-450.5664-4.0988-17.9819-146.1048,10.622-288.9479,10.622-288.9479l181.5757-141.8164L2525.8794,2447.64C2525.5712,2539.8423,2510.19,2618.6463,2496.35,2681.848Z"/><g class="cls-4"><path class="cls-2" d="M2496.3469,2681.8464c-34.9508,159.6793-25.6507,275.55-7.8447,367.928-274.7124,96.2132-446.0714-1.5424-450.567-4.0988-1.2336-9.8284-2.2037-19.6567-2.9972-29.3972q1.1265.3154,2.27.6293c174.3267,47.8446,350.5322-74.3622,365.063-254.55a1026.5859,1026.5859,0,0,1,20.8693-137.19c8.4618-38.5646,17.453-82.9028,23.2711-132.5741l79.4652-44.9553C2525.5679,2539.8407,2510.1862,2618.6444,2496.3469,2681.8464Z"/></g><g class="cls-4"><path class="cls-2" d="M2496.3345,2682.7691c-83.8277,383.13,87.0331,514.1622,18.3551,673.2989-71.752,166.25-378.9585,138.893-456.4629,70.083-20.8141-18.4866-26.3031-38.16-23.0537-57.1732,104.2465,55.0216,365.5655,64.4628,430.9941-87.1647,23.627-54.7468-119.1547-161.1783-120.1066-280.1626-.7977-99.714,27.11-201.5916,56.3519-280.4444,23.5333-63.46,37.9785-261.026,165.0152-330.231-1.8,67.6682-10.2754,124.8854-25.2932,169.28-7.3332,2.3274-15.5886,4.7428-24.6784,7.1142C2511.7036,2610.1389,2503.8,2648.7375,2496.3345,2682.7691Z"/></g><path class="cls-2" d="M2053.9453,2758.7524c.2661,44.3555-1.9458,87.9175-3.44,131.377-1.0376,43.457-1.3721,86.8677,1.8579,129.9609a586.266,586.266,0,0,0,8.164,64.08,462.5055,462.5055,0,0,0,15.51,62.2071c6.68,20.1635,14.2529,40.0634,24.2261,58.55a297.4727,297.4727,0,0,0,34.6313,51.9287,16.606,16.606,0,0,1-3.7793,24.6264l-.12.0733c-6.2647,3.9526-13.1714,8.86-19.5093,13.6841-6.4233,4.9-12.6465,10.0463-18.5669,15.42-11.7529,10.7617-22.7051,22.4072-30.6152,34.9658-7.9346,12.4805-12.7271,25.8179-11.3159,37.49,1.3672,11.5552,8.5937,22.7686,19.7949,32.0044,10.9106,9.0381,25.0708,16.3745,39.7827,22.2974a330.4385,330.4385,0,0,0,46.2769,14.3823,473.6951,473.6951,0,0,0,97.6684,11.68q24.6753.2856,49.209-1.8481c16.2769-1.7066,32.5147-3.877,48.3569-7.5074,31.6578-7.0556,62.29-18.4277,88.4839-35.8081a179.5575,179.5575,0,0,0,35.0025-30.4809,164.447,164.447,0,0,0,24.2675-38.8623c12.28-28.9527,16.9727-60.2,14.48-92.2681-2.2412-32.07-9.8559-64.6411-17.8174-97.5146-8.0517-32.9078-16.4965-66.24-23.0981-100.1612a904.8784,904.8784,0,0,1-14.5044-102.8833,830.4746,830.4746,0,0,1-1.7749-104.0137,1008.1206,1008.1206,0,0,1,10.2026-103.3105c5.2686-34.043,12.7735-68.2642,19.6241-100.9741,6.8188-33.03,10.6347-66.3672,15.3295-99.4409,4.7315-33.1543,8.8672-66.0889,18.13-99.812l.01-.0391a5.6676,5.6676,0,0,1,10.95.0757c8.9282,34.331,8.7988,69.4116,5.5322,103.8379-3.1469,34.5312-10.9643,68.3081-17.72,101.9506-7.1338,33.8819-14.187,66.1646-19.3579,99.3848a975.8425,975.8425,0,0,0-9.856,99.7485c-3.1665,66.7359,2.5367,133.4546,15.691,199.1187,6.3989,32.8882,14.663,65.5566,22.7856,98.74,8.0005,33.1958,16.1206,67.168,18.6768,103.0811a239.7773,239.7773,0,0,1-1.9922,54.4775,223.3629,223.3629,0,0,1-15.0635,52.9346,197.2024,197.2024,0,0,1-29.5874,47.39,212.2263,212.2263,0,0,1-41.6895,36.3868c-30.6372,20.2954-64.9609,32.7978-99.5825,40.5395-17.3462,3.9624-34.8926,6.3208-52.4414,8.147q-26.3562,2.3144-52.7466,1.9848a506.439,506.439,0,0,1-104.6557-12.539,363.4078,363.4078,0,0,1-51.0889-15.9058c-16.7407-6.8335-33.3374-15.02-48.7134-27.6831a55.8378,55.8378,0,0,1-5.5249-5.0024c-1.7651-1.7774-3.6035-3.42-5.2856-5.3345a93.1152,93.1152,0,0,1-9.3872-12.4487,73.223,73.223,0,0,1-11.04-30.6787,76.8953,76.8953,0,0,1,3.4473-31.9141,115.84,115.84,0,0,1,12.7856-26.8433c10.315-16.2451,23.03-29.5166,36.3013-41.7114,6.6773-6.06,13.5791-11.76,20.6812-17.18,7.2094-5.4614,14.1577-10.4565,22.28-15.5835l-3.8989,24.6973a330.1291,330.1291,0,0,1-38.772-58.042c-10.9912-20.437-19.2089-41.9971-26.3891-63.7085-7.2119-21.7407-12.3413-43.9575-16.6895-66.2134-2.2973-11.123-3.916-22.3169-5.6836-33.5009-1.3867-11.2134-2.9467-22.417-3.9917-33.6475a740.1645,740.1645,0,0,1-1.8383-134.7852,564.281,564.281,0,0,1,8.5571-66.6772c4.3945-22.0191,9.6118-43.8037,18.0957-65.0488a5.5726,5.5726,0,0,1,10.7471,2.0288Z"/><path class="cls-2" d="M2260.6677,3102.222c-73.1738,0-154.1553-10.9741-228.0518-45.4688a12.329,12.329,0,1,1,10.43-22.3437c190.3369,88.8452,439.6241,11.5356,442.1192,10.7446a12.3293,12.3293,0,1,1,7.4511,23.5059C2485.9753,3070.7645,2384.52,3102.222,2260.6677,3102.222Z"/><path class="cls-2" d="M2370.0281,3299.0823a16.3575,16.3575,0,0,1-9.0967-2.7588c-4.1651-2.7563-101.7969-65.6811-232.4268-13.5156a16.4392,16.4392,0,1,1-12.1973-30.5322c147.3194-58.8208,258.2276,13.5937,262.876,16.7041a16.4393,16.4393,0,0,1-9.1552,30.1025Z"/><path class="cls-2" d="M2644.8389,2735.271a8.5635,8.5635,0,0,0-.0244-2.1582l-.3125-2.7271c-.2442-1.8554-.5762-3.75-.9278-5.6469-.7837-3.7842-1.8213-7.5562-2.9956-11.2964a107.6321,107.6321,0,0,0-9.624-21.3843c-7.9883-13.3984-19.2554-24.78-33.2105-31.9336a100.7632,100.7632,0,0,0-11.1792-4.8657c-3.9917-1.6284-8.0639-3.0127-12.1435-4.3921-8.14-2.8125-16.4307-5.166-24.7974-7.1558a252.17,252.17,0,0,0-25.2929-4.7583,182.1,182.1,0,0,0-24.99-1.643l-.3393.0024-.459-.0024a183.2167,183.2167,0,0,0-24.9634,1.8725,252.4825,252.4825,0,0,0-25.2246,4.9829c-8.335,2.063-16.5942,4.4873-24.6973,7.3682-4.0576,1.4136-8.11,2.8345-12.0825,4.4971a98.9936,98.9936,0,0,0-11.0571,4.9365c-13.7818,7.1826-24.624,18.689-32.49,31.9043a106.34,106.34,0,0,0-9.2871,21.2427c-1.1206,3.7109-2.102,7.4536-2.8344,11.1987-.3247,1.88-.6324,3.7524-.8472,5.5835l-.271,2.6831c-.0269.7544-.1392,1.98.0269,2.0605a38.8169,38.8169,0,1,1-54.2725,23.4595l10.0146-32.6709a43.6085,43.6085,0,0,1,1.6309-4.375l1.5625-3.6914c1.0571-2.4072,2.1826-4.7168,3.33-7.0068,2.2656-4.5777,4.6728-9.0137,7.2925-13.3179a165.241,165.241,0,0,1,17.7026-24.3457c13.103-15.1733,29.8535-27.6831,48.5522-34.7632a115.6942,115.6942,0,0,1,13.76-4.4043c4.3945-1.2158,8.7891-2.4121,13.22-3.4863,8.8477-2.168,17.7344-4.16,26.7041-5.7544,8.9673-1.5942,17.9614-3.0737,27.0679-3.96a207.9319,207.9319,0,0,1,27.959-1.394h-.7959a206.9962,206.9962,0,0,1,27.9321,1.6235c9.0894.9644,18.0591,2.5171,26.9995,4.1846,8.9429,1.665,17.793,3.7305,26.604,5.9668,4.4116,1.1108,8.7866,2.3389,13.1592,3.5889a116.744,116.744,0,0,1,13.6377,4.4775c18.5254,7.1118,34.8511,19.7437,47.832,34.7339a163.5747,163.5747,0,0,1,17.3633,24.2065c2.5684,4.2749,4.9219,8.6792,7.1338,13.2178,1.123,2.2705,2.2217,4.5606,3.252,6.9434l1.521,3.645a45.4948,45.4948,0,0,1,1.5771,4.28l5.5273,18.1079a26.9363,26.9363,0,0,1-51.5258,15.7275A27.2222,27.2222,0,0,1,2644.8389,2735.271Z"/><path class="cls-6" d="M2187.7838,2731.0363h622.3156a77.8511,77.8511,0,0,1,77.8511,77.8511v411.3484a77.8511,77.8511,0,0,1-77.8511,77.8511H2187.7839a77.8511,77.8511,0,0,1-77.8511-77.8511V2808.8873A77.851,77.851,0,0,1,2187.7838,2731.0363Z"/><path class="cls-2" d="M2818.4851,3314.51H2179.4128a86.01,86.01,0,0,1-85.9131-85.9131V2800.53a86.0292,86.0292,0,0,1,85.9131-85.9522h639.0723a86.0292,86.0292,0,0,1,85.9131,85.9522v428.0664A86.01,86.01,0,0,1,2818.4851,3314.51Zm-639.0723-567.0557a53.1143,53.1143,0,0,0-53.0322,53.0762v428.0664a53.0935,53.0935,0,0,0,53.0322,53.0371h639.0723a53.0935,53.0935,0,0,0,53.0322-53.0371V2800.53a53.1143,53.1143,0,0,0-53.0322-53.0762Z"/><g class="cls-4"><path class="cls-2" d="M2828.7336,3070.9541v-11.2257a69.4629,69.4629,0,0,0,59.2218-68.711V2864.0591a69.4958,69.4958,0,0,0-69.473-69.5159H2278.4115v416.5015H2174.54a69.46,69.46,0,0,1-69.4735-69.4732v87.0535a69.4866,69.4866,0,0,0,69.4735,69.4732h639.0705a69.487,69.487,0,0,0,69.4735-69.4732v-87.0535a69.4145,69.4145,0,0,1-67.9486,69.4308V3092.5164A23.91,23.91,0,0,0,2828.7336,3070.9541Zm-81.5889,140.0906H2346.4019V3092.5164A23.91,23.91,0,0,0,2360,3070.9541v-10.4632h387.1443Z"/></g><g class="cls-1"><path class="cls-7" d="M2278.4115,2794.5432v265.9477h-99a69.46,69.46,0,0,1-69.473-69.4735V2864.0591a69.4958,69.4958,0,0,1,69.473-69.5159Z"/></g><path class="cls-6" d="M2887.9575,2800.5312v126.9582a69.4593,69.4593,0,0,1-69.473,69.4735h-639.07a69.461,69.461,0,0,1-69.4751-69.4735V2800.5312a69.4972,69.4972,0,0,1,69.4751-69.5159h639.07A69.4954,69.4954,0,0,1,2887.9575,2800.5312Z"/><g class="cls-1"><path class="cls-3" d="M2887.9554,2800.5164v58.29a69.4958,69.4958,0,0,0-69.473-69.5159H2698.81a6.2514,6.2514,0,0,1,.0424.89c0,31.8983-40.4133,57.7816-90.2309,57.7816s-90.1885-25.8833-90.1885-57.7816a6.2514,6.2514,0,0,1,.0424-.89H2179.4114a69.4958,69.4958,0,0,0-69.473,69.5159v-58.29a69.4958,69.4958,0,0,1,69.473-69.5159h639.071A69.4958,69.4958,0,0,1,2887.9554,2800.5164Z"/></g><path class="cls-2" d="M2818.4851,3013.4012H2179.4128a86.0094,86.0094,0,0,1-85.9131-85.9107V2800.53a86.0292,86.0292,0,0,1,85.9131-85.9522h639.0723a86.0292,86.0292,0,0,1,85.9131,85.9522v126.96A86.0094,86.0094,0,0,1,2818.4851,3013.4012Zm-639.0723-265.9473a53.1143,53.1143,0,0,0-53.0322,53.0762v126.96a53.093,53.093,0,0,0,53.0322,53.0347h639.0723a53.093,53.093,0,0,0,53.0322-53.0347V2800.53a53.1143,53.1143,0,0,0-53.0322-53.0762Z"/><path class="cls-8" d="M2262.9048,2729.1826h14.3019a26.8464,26.8464,0,0,1,26.8464,26.8464v515.1953a26.8465,26.8465,0,0,1-26.8465,26.8465h-14.3018a26.8465,26.8465,0,0,1-26.8465-26.8465V2756.0291a26.8465,26.8465,0,0,1,26.8465-26.8465Z"/><g class="cls-4"><path class="cls-2" d="M2346.4019,2753.1559v41.3873h-67.99v-41.3873a24.0635,24.0635,0,0,1,23.9764-23.977h20.0795A24.0272,24.0272,0,0,1,2346.4019,2753.1559Z"/></g><g class="cls-1"><path class="cls-7" d="M2278.4115,2940.1832v154.07a24.02,24.02,0,0,1-18.4278-23.299V2963.4822A24.02,24.02,0,0,1,2278.4115,2940.1832Z"/></g><path class="cls-9" d="M2262.9048,2729.1826h14.3019a26.8464,26.8464,0,0,1,26.8464,26.8464v515.1953a26.8465,26.8465,0,0,1-26.8465,26.8465h-14.3018a26.8465,26.8465,0,0,1-26.8465-26.8465V2756.0291a26.8465,26.8465,0,0,1,26.8465-26.8465Z"/><path class="cls-9" d="M2731.5359,2729.1826h14.3019a26.8465,26.8465,0,0,1,26.8465,26.8465v515.1952a26.8465,26.8465,0,0,1-26.8465,26.8465H2731.536a26.8465,26.8465,0,0,1-26.8465-26.8465V2756.029A26.8464,26.8464,0,0,1,2731.5359,2729.1826Z"/><path class="cls-2" d="M2277.2058,3314.51H2262.904a43.3363,43.3363,0,0,1-43.2861-43.2862V2756.0281a43.3341,43.3341,0,0,1,43.2861-43.2837h14.3018a43.3341,43.3341,0,0,1,43.2861,43.2837v515.1953A43.3363,43.3363,0,0,1,2277.2058,3314.51ZM2262.904,2745.62a10.5459,10.5459,0,0,0-10.4052,10.4077v515.1953a10.5481,10.5481,0,0,0,10.4052,10.41h14.3018a10.5481,10.5481,0,0,0,10.4053-10.41V2756.0281a10.546,10.546,0,0,0-10.4053-10.4077Z"/><path class="cls-2" d="M2745.8386,3314.51h-14.3018a43.3363,43.3363,0,0,1-43.2861-43.2862V2756.0281a43.3342,43.3342,0,0,1,43.2861-43.2837h14.3018a43.3341,43.3341,0,0,1,43.2861,43.2837v515.1953A43.3363,43.3363,0,0,1,2745.8386,3314.51ZM2731.5368,2745.62a10.5459,10.5459,0,0,0-10.4052,10.4077v515.1953a10.5481,10.5481,0,0,0,10.4052,10.41h14.3018a10.5481,10.5481,0,0,0,10.4053-10.41V2756.0281a10.546,10.546,0,0,0-10.4053-10.4077Z"/><path class="cls-10" d="M2715.5086,2938.7667h46.3565a26.8465,26.8465,0,0,1,26.8465,26.8465v101.7237a26.8465,26.8465,0,0,1-26.8465,26.8465h-46.3565a26.8464,26.8464,0,0,1-26.8464-26.8464V2965.6131A26.8464,26.8464,0,0,1,2715.5086,2938.7667Z"/><path class="cls-2" d="M2761.864,3110.62h-46.3574a43.3342,43.3342,0,0,1-43.2862-43.2837V2965.6131a43.3342,43.3342,0,0,1,43.2862-43.2837h46.3574a43.3341,43.3341,0,0,1,43.2861,43.2837v101.7236A43.3341,43.3341,0,0,1,2761.864,3110.62Zm-46.3574-155.415a10.5459,10.5459,0,0,0-10.4053,10.4077v101.7236a10.5459,10.5459,0,0,0,10.4053,10.4077h46.3574a10.546,10.546,0,0,0,10.4053-10.4077V2965.6131a10.546,10.546,0,0,0-10.4053-10.4077Z"/><rect class="cls-10" x="2217.6095" y="2939.5116" width="100.0495" height="155.4166" rx="26.8465"/><path class="cls-2" d="M2291.4587,3110.62h-46.3574a43.3341,43.3341,0,0,1-43.2861-43.2837V2965.6131a43.3341,43.3341,0,0,1,43.2861-43.2837h46.3574a43.3341,43.3341,0,0,1,43.2861,43.2837v101.7236A43.3341,43.3341,0,0,1,2291.4587,3110.62Zm-46.3574-155.415a10.5459,10.5459,0,0,0-10.4053,10.4077v101.7236a10.5459,10.5459,0,0,0,10.4053,10.4077h46.3574a10.5459,10.5459,0,0,0,10.4053-10.4077V2965.6131a10.5459,10.5459,0,0,0-10.4053-10.4077Z"/><path class="cls-3" d="M2728.7921,2501.5406c-3.3932,211.6863-97.9318,237.5135-217.4159,236.9405-99.7831-.5289-106.4383-76.9527-106.4383-76.9527s-36.6251-9.3-46.8505-51.0375c-9.2554-37.6831,29.9263-94.8908,41.9584-111.33,2.2036-2.9529,3.482-4.5836,3.482-4.5836s4.0985-24.9459,4.1426-68.0058c0-8.3742-.1323-17.4534-.4847-27.15-2.512-65.67-14.8087-160.5609-55.6652-268.85l98.593-356.6451c174.7969,188.2831,252.8956,365.9008,274.0071,616.7688.9695,11.3711,1.8507,22.9185,2.5561,34.5979.3524,5.5974.6612,11.239.97,16.9244Q2729.2989,2474.0825,2728.7921,2501.5406Z"/><g class="cls-4"><path class="cls-2" d="M2728.7921,2501.5406c-3.3932,211.6863-97.9318,237.5135-217.4159,236.9405-99.7831-.5289-106.4383-76.9527-106.4383-76.9527s-36.6251-9.3-46.8505-51.0375c-3.2614-13.2663-.5289-28.9565,4.9363-44.4706,13.8833,29.75,45.6065,9.8611,45.6065,9.8611s2.9629,103.4086,102.746,103.9375c116.5309.573,209.3065-23.9762,216.9753-221.5147Q2729.211,2481.112,2728.7921,2501.5406Z"/></g><path class="cls-5" d="M2726.6794,2425.2945c-115.87-6.8755-256.7735-1.6748-319.0057,1.2781.0442-65.0971-9.2559-171.6676-56.15-296l31.952-166.6167,66.64-190.0287C2632.8467,1970.7613,2709.8876,2155.9154,2726.6794,2425.2945Z"/><g class="cls-11"><path class="cls-3" d="M2726.6767,2425.2927c-115.87-6.8755-256.7741-1.6749-319.0063,1.2783,0-10.8864-.2647-22.9626-.9253-36.0524,71.62-2.5563,178.19-4.6279,269.2908.7933-15.3381-246.1965-81.0077-422.0508-231.74-600.77l5.8175-16.6159C2632.8439,1970.76,2709.8848,2155.9136,2726.6767,2425.2927Z"/></g><path class="cls-2" d="M2388.6523,2365.7153c-3.3862-19.4116-5.7519-38.833-8.4643-58.2788-2.7344-19.4287-5.1441-38.9721-8.2764-58.4814q-4.6545-29.26-10.4394-58.5791c-3.7671-19.58-8.0518-39.1284-12.146-58.9527a2.3757,2.3757,0,0,1,4.3945-1.6577,524.0222,524.0222,0,0,1,26.4941,54.9292c7.7613,18.8233,14.67,38.0469,20.5787,57.6074,5.8764,19.563,11.1157,39.4019,14.6215,59.5777,3.5279,20.1587,5.9913,40.5639,6.001,61.1035a16.4964,16.4964,0,0,1-32.7466,2.8467Z"/><path class="cls-2" d="M2515.5847,2754.9124q-2.1387,0-4.2774-.0122c-89.6923-.4395-114.2236-57.0557-120.6054-81.2207-14.3653-6.55-39.6973-22.9346-48.5987-59.2774-11.3085-46.1791,32.9883-109.4311,45.752-126.4062,1.5039-11.8311,5.4053-49.9194,2.0215-105.3418a16.4369,16.4369,0,1,1,32.8125-2.0068c4.3506,71.184-2.6319,114.7632-2.93,116.5844a16.44,16.44,0,0,1-3.3008,7.4952c-19.8584,25.271-48.9306,75.2685-42.4219,101.853,7.6319,31.1572,33.9942,38.7524,35.1123,39.06a16.67,16.67,0,0,1,12.1827,14.47c.64,6.1792,8.7158,61.5136,90.1416,61.914,56.5088.3076,113.76-4.8266,150.82-43.6865,39.082-40.9814,55.0927-117.93,48.95-235.2393-14.5264-277.3852-91.1231-461.8628-273.1934-657.9663a16.4374,16.4374,0,1,1,24.0918-22.3681c187.91,202.3925,266.958,392.6587,281.9336,678.6157,6.7334,128.5962-11.6943,211.1011-57.9932,259.6484C2641.4441,2747.8348,2578.0066,2754.91,2515.5847,2754.9124Z"/><path class="cls-2" d="M2417.793,2571.1475l3.5229,88.5254.0122.3051a16.5059,16.5059,0,1,1-32.9858,1.3111,17.6466,17.6466,0,0,1,.1147-2.6978l11.0108-88.35a9.1992,9.1992,0,0,1,18.32.769Z"/><path class="cls-3" d="M1103.5,1638.7519c-19.31-65.8626,47.48-119.7495,47.48-119.7495s-60.2615-108.3214-13.2663-137.6852c25.1693-15.7265,94.9987,58.417,111.2212,106.9886s16.25,95.2843,16.25,95.2843"/><path class="cls-2" d="M1100.8716,1639.5239c-1.3574-2.6391-2.7027-5.3662-3.9331-8.1787-.6055-1.4062-1.2842-2.8174-1.8335-4.2627-.4419-1.4624-.82-2.9492-1.1987-4.4482-.6983-2.9956-1.6773-6.0547-2.1167-9.1529l-.7984-9.4213a103.3836,103.3836,0,0,1,6.0523-37.417,142.45,142.45,0,0,1,17.5293-33.1641,178.7807,178.7807,0,0,1,11.5576-14.624c1.9848-2.3926,4.2309-4.5825,6.4062-6.836,2.3316-2.28,4.3482-4.27,7.31-6.8139l-4.36,22.4145a279.676,279.676,0,0,1-21.6748-49.707c-5.5127-17.3193-10.0683-35.293-10.5078-55.4321-.1489-10.0147,1.0449-20.9766,5.8032-32.0581,1.0206-2.7613,2.8345-5.43,4.3262-8.0884,1.9385-2.4829,3.6279-5.1856,5.9912-7.3291l3.4229-3.3106,3.7524-2.8222c1.7188-1.4917,7.2534-4.7095,11.3355-5.43,8.8867-2.0728,15.92-.4859,21.6284,1.1914a77.0889,77.0889,0,0,1,15.0757,6.6382,150.94,150.94,0,0,1,23.6059,16.7968,243.2739,243.2739,0,0,1,37.3975,40.0928,213.1205,213.1205,0,0,1,15.1172,22.981,156.3157,156.3157,0,0,1,12.0752,25.7446c.7934,2.2876,1.6308,4.8071,2.2705,7.0117l1.8066,6.5528c1.167,4.375,2.0679,8.7988,2.9785,13.2055a214.6279,214.6279,0,0,1,3.2227,26.6748c.769,17.854-.0855,35.6983-5.188,53.2569a2.8518,2.8518,0,0,1-5.4272.1562l-.0538-.1538c-5.7739-16.6138-10.5053-32.8271-15.5346-48.6377-2.5366-7.8955-4.9634-15.7226-7.6-23.4155-1.2964-3.8428-2.5977-7.6807-3.9722-11.46l-2.0386-5.6689c-.6958-1.8506-1.3427-3.3423-2.0727-5.0415a187.2044,187.2044,0,0,0-10.9522-19.9878c-4.1748-6.6138-8.7866-13.0957-13.5449-19.4873a276.5743,276.5743,0,0,0-31.7065-35.4,117.7191,117.7191,0,0,0-17.5391-13.63,40.9835,40.9835,0,0,0-8.1543-4.0478,35.0362,35.0362,0,0,0-3.5644-.9082,1.5,1.5,0,0,1,.5371-.2539c.0293.0146.3882-.3663.083-.1221l-.6885.5078-1.416.9619c-.3735.4053-.7593.791-1.167,1.16-.92.6372-1.355,1.748-2.1753,2.5146-.4834,1.1231-1.3086,1.9043-1.709,3.1958-2.1509,4.6-3.1323,11.0132-2.8589,18.0274.4541,14.1089,4.8413,29.5947,10.4077,44.5044,2.8394,7.4853,5.9595,14.9585,9.3189,22.3413,3.2324,7.3291,6.99,14.9365,10.376,21.6406l.4907.9692a17.2817,17.2817,0,0,1-4.8511,21.4478c-1.3989,1.0815-3.5376,2.9468-5.3271,4.5557l-5.5347,5.2661a145.5825,145.5825,0,0,0-10.564,11.1816,186.799,186.799,0,0,0-18.14,24.5606,127.2668,127.2668,0,0,0-12.3462,27.7319c-2.9736,9.9267-3.8184,20.3906-4.0723,31.8848l-.0073.332a2.7789,2.7789,0,0,1-5.249,1.2109Z"/><g class="cls-4"><path class="cls-2" d="M2728.7921,2501.5406a28.095,28.095,0,0,1-13.751,1.9831c-82.9031-8.4621-202.4748-9.4316-298.7765-1.0578a29.2855,29.2855,0,0,1-16.2188-3.3055c2.2036-2.9529,3.482-4.5836,3.482-4.5836s4.0985-24.9459,4.1426-68.0058c0-8.3742-.1323-17.4534-.4847-27.15,97.3589-12.87,221.515-16.8363,306.8418-11.2829a27.713,27.713,0,0,1,10.0931,2.5563c.9695,11.3711,1.8507,22.9185,2.5561,34.5979.3524,5.5974.6612,11.239.97,16.9244Q2729.2989,2474.0825,2728.7921,2501.5406Z"/></g><path class="cls-3" d="M2715.0435,2425.5958c-82.9059-8.4724-202.4875-9.4351-298.7815-1.0732a29.0375,29.0375,0,0,1-31.62-27.5113c-.6146-13.5926-1.6055-28.206-3.0856-43.7424a29.1038,29.1038,0,0,1,25.0367-31.7165c97.4718-12.9489,221.924-16.9158,307.448-11.3716a29.0253,29.0253,0,0,1,26.8836,25.5128q3.4662,28.6323,5.9595,58.41A29.0835,29.0835,0,0,1,2715.0435,2425.5958Z"/><g class="cls-4"><path class="cls-2" d="M2715.0411,2425.6012c-82.9031-8.4621-202.4748-9.4319-298.7765-1.0577a29.0243,29.0243,0,0,1-31.6006-27.5461c-.3088-7.14-.7494-14.5885-1.3224-22.3014,95.3317-7.8891,211.9954-6.7873,293.3555,1.4986a29.1068,29.1068,0,0,0,31.8653-31.5128q-1.52-17.7177-3.3055-35.0388c2.9526.1765,5.9057.3527,8.7706.5289a29.0668,29.0668,0,0,1,26.8849,25.5189q3.5041,28.6257,5.95,58.3978A29.0524,29.0524,0,0,1,2715.0411,2425.6012Z"/></g><path class="cls-2" d="M2718.0212,2442.1878a45.7382,45.7382,0,0,1-4.6484-.2393h0c-84.5752-8.6425-203.4033-9.0649-295.6885-1.05a45.947,45.947,0,0,1-34.0576-11.1328,44.9,44.9,0,0,1-15.4053-32.0093c-.64-14.0649-1.6553-28.5083-3.0273-42.93a45.4067,45.4067,0,0,1,39.2382-49.57c95.6788-12.7148,220.5372-17.3339,310.6739-11.48a45.4784,45.4784,0,0,1,42.1386,39.939c2.334,19.28,4.36,39.1358,6.0206,59.0186a45.5395,45.5395,0,0,1-45.2442,49.4531Zm-1.3086-32.9443a12.37,12.37,0,0,0,10.0049-3.5132,12.8082,12.8082,0,0,0,3.7842-10.2515c-1.626-19.4873-3.6133-38.9355-5.8936-57.81a12.592,12.592,0,0,0-11.6308-11.084c-88.2178-5.7227-210.4639-1.1939-304.2188,11.2646a12.6394,12.6394,0,0,0-10.84,13.8623c1.4258,14.961,2.4853,29.9512,3.1445,44.5581a12.3048,12.3048,0,0,0,4.2285,8.7647,12.6352,12.6352,0,0,0,9.5459,3.11c94.1406-8.1738,215.4541-7.7392,301.875,1.0987Z"/><path class="cls-3" d="M2423.8485,1642.5c-108.7739,94.1857-567.2136,587.4508-567.2136,587.4508L1724.6621,1736.95a2358.4344,2358.4344,0,0,1,105.336-230.9909l557.0489,35.4793Q2406.55,1592.476,2423.8485,1642.5Z"/><path class="cls-3" d="M2423.8485,1642.5c-108.7739,94.1857-567.2136,587.4508-567.2136,587.4508L1724.6621,1736.95a2358.4344,2358.4344,0,0,1,105.336-230.9909l557.0489,35.4793Q2406.55,1592.476,2423.8485,1642.5Z"/><path class="cls-2" d="M1856.6345,2246.39a16.4416,16.4416,0,0,1-15.8789-12.1875l-131.9727-493.0005a16.4463,16.4463,0,0,1,.5762-10.2613,2380.9673,2380.9673,0,0,1,106.0742-232.6025,16.5589,16.5589,0,0,1,15.61-8.7842L2388.09,1525.032a16.449,16.449,0,0,1,14.3115,10.5371c12.7783,33.4375,25.22,67.6026,36.9775,101.55a16.4357,16.4357,0,0,1-4.7705,17.8077c-106.86,92.5292-561.3525,581.289-565.9326,586.2158A16.4436,16.4436,0,0,1,1856.6345,2246.39Zm-114.6924-508.4546,122.8955,459.0844c88.3936-94.8339,432.52-462.8,539.8584-559.5239-9.3994-26.8579-19.2138-53.7939-29.2529-80.3247l-535.8057-34.126A2349.992,2349.992,0,0,0,1741.9421,1737.9349Z"/><path class="cls-2" d="M1856.6345,2246.39a16.4416,16.4416,0,0,1-15.8789-12.1875l-131.9727-493.0005a16.4463,16.4463,0,0,1,.5762-10.2613,2380.9673,2380.9673,0,0,1,106.0742-232.6025,16.5589,16.5589,0,0,1,15.61-8.7842L2388.09,1525.032a16.449,16.449,0,0,1,14.3115,10.5371c12.7783,33.4375,25.22,67.6026,36.9775,101.55a16.4357,16.4357,0,0,1-4.7705,17.8077c-24.8242,21.499-70.6054,66.3085-136.0644,133.1884-172.627,176.3477-427.3145,450.2808-429.8682,453.0274A16.4436,16.4436,0,0,1,1856.6345,2246.39Zm-114.6924-508.4546,122.8955,459.0918c63.94-68.56,265.7227-284.3018,410.21-431.9092,59.3994-60.6885,102.93-103.5327,129.6484-127.62-9.3994-26.858-19.2138-53.7964-29.2529-80.3272l-535.8057-34.126A2349.992,2349.992,0,0,0,1741.9421,1737.9349Z"/><path class="cls-9" d="M1880.5175,1828.2921l-30.7187,40.8053a26.3857,26.3857,0,0,0-2.9942,26.669l21.3667,47.63a26.3857,26.3857,0,0,0,22.8762,15.5588l34.1877,1.554a26.3858,26.3858,0,0,0,21.0019-8.9225l36.11-41.0133a26.3856,26.3856,0,0,0,1.9626-32.35l-33.5576-48.976a26.3859,26.3859,0,0,0-21.7665-11.4717h-27.3875A26.3857,26.3857,0,0,0,1880.5175,1828.2921Z"/><path class="cls-2" d="M1926.4685,1976.9754c-.6592,0-1.3184-.0147-1.9824-.0464l-34.1846-1.5527a42.6069,42.6069,0,0,1-37.1289-25.2515l-21.3672-47.6294a42.8321,42.8321,0,0,1,4.8584-43.2837l30.7178-40.8081h.0048a43.0318,43.0318,0,0,1,34.209-17.0654h27.3877a42.8041,42.8041,0,0,1,35.3321,18.623l33.5546,48.97a42.7928,42.7928,0,0,1-3.1835,52.5048l-36.1084,41.0132A42.6186,42.6186,0,0,1,1926.4685,1976.9754Zm-32.8223-138.7964-30.7129,40.8057a9.9365,9.9365,0,0,0-1.1279,10.0537l21.3672,47.6294a9.89,9.89,0,0,0,8.623,5.8667l34.1846,1.5527a9.82,9.82,0,0,0,7.9248-3.3667l36.1035-41.0083a9.9439,9.9439,0,0,0,.7422-12.1973l-33.56-48.9746a9.9386,9.9386,0,0,0-8.208-4.3261h-27.3877a10.0047,10.0047,0,0,0-7.9492,3.9648Z"/><path class="cls-2" d="M1872.1618,2871.4944a16.4461,16.4461,0,0,1-16.0791-13.0932c-69.8-335.3321-16.1523-628.5669-15.6054-631.4893a16.44,16.44,0,0,1,32.3144,6.0767c-.5371,2.8613-52.9345,290.0268,15.4785,618.7134a16.4573,16.4573,0,0,1-16.1084,19.7924Z"/><g class="cls-4"><path class="cls-2" d="M2474.09,1800.3261a.0433.0433,0,0,1-.0442.0442c-15.4258,15.1172-31.5569,29.3971-48.217,42.7516-126.58,101.59-285.9067,152.4511-445.8949,145.135q-18.9729-.9257-37.991-2.8208a660.0185,660.0185,0,0,1-187.6225-48.2167c-5.0245-2.1155-10.0049-4.2751-14.9852-6.567a645.9836,645.9836,0,0,1-70.1657-36.7577c-2.9085-1.7186-5.7734-3.4376-8.6383-5.2445-10.049-6.3466-19.9215-12.8256-29.4851-19.5249a671.66,671.66,0,0,1-56.15-43.8532,661.5182,661.5182,0,0,1-95.64-103.1328c58.9708,32.2179,130.2383,60.2047,220.7655,80.3464a2370.5781,2370.5781,0,0,1,129.9737-296.5284l557.0494,35.4793C2420.9367,1630.2455,2449.9376,1716.9827,2474.09,1800.3261Z"/></g><path class="cls-3" d="M1386.9025,1461.3936a658.9609,658.9609,0,0,0,187.9758,275.7225,668.8517,668.8517,0,0,0,56.1711,43.863c9.5546,6.7117,19.425,13.19,29.485,19.5287a663.1089,663.1089,0,0,0,93.7794,48.5431,658.5755,658.5755,0,0,0,187.6344,48.2293q19.0069,1.9227,37.9977,2.83c231.7554,10.5767,462.2578-100.9282,593.5792-311.8925,193.5133-310.7305,98.4407-719.4769-212.2349-912.9817a661.457,661.457,0,0,0-188.2951-80.1776c-7.568-1.9776-15.224-3.742-22.9043-5.3428q-30.7716-6.6336-61.7678-10.2673a666.4328,666.4328,0,0,0-282.0889,28.0537q-21.5193,6.97-42.5854,15.4137A662.2637,662.2637,0,0,0,1448.3,887.5261C1336.974,1066.2654,1321.1724,1277.4087,1386.9025,1461.3936Z"/><path class="cls-2" d="M2010.2234,1902.4563q-15.1392,0-30.3516-.6933c-12.6514-.6055-25.4639-1.56-38.0908-2.8369a660.18,660.18,0,0,1-188.11-48.3521,667.1584,667.1584,0,0,1-94.0088-48.6621c-11.0254-6.9458-20.6933-13.35-29.5654-19.5776a673.85,673.85,0,0,1-56.3037-43.97,662.8835,662.8835,0,0,1-188.4473-276.4136c-68.75-192.4268-46.3134-402.1143,61.5479-575.2979A663.9477,663.9477,0,0,1,1763.031,621.38c13.789-5.542,28.1494-10.7422,42.6953-15.4517a668.0335,668.0335,0,0,1,282.7881-28.1225c20.6152,2.4145,41.45,5.8789,61.9238,10.2929,8.1885,1.7066,15.708,3.46,22.9785,5.3589a662.9446,662.9446,0,0,1,188.7451,80.3711c310.9913,193.7012,406.4356,604.2847,212.7686,915.2637C2453.4167,1784.3069,2239.115,1902.4539,2010.2234,1902.4563ZM2011.83,576.6605a666.1411,666.1411,0,0,0-205.083,32.4169c-14.4727,4.6851-28.7646,9.8584-42.48,15.3736a660.5831,660.5831,0,0,0-314.5605,263.95c-107.3291,172.3218-129.6485,380.9668-61.2451,572.4365a659.63,659.63,0,0,0,187.5,275.0317,672.0065,672.0065,0,0,0,56.0351,43.7525c8.8281,6.2011,18.4522,12.5732,29.4239,19.4873a663.7812,663.7812,0,0,0,93.5351,48.4155,656.9733,656.9733,0,0,0,187.1631,48.11c12.5635,1.27,25.3174,2.2192,37.9053,2.8222,10.0781.459,20.1709.6885,30.2.6885,227.7685.0122,440.9814-117.5488,561.8945-311.8018,192.7051-309.4311,97.7344-717.9711-211.7041-910.7055a659.6324,659.6324,0,0,0-187.8223-79.9756c-7.2314-1.89-14.6972-3.63-22.8369-5.33-20.3857-4.3921-41.1133-7.8369-61.6211-10.2417A657.445,657.445,0,0,0,2011.83,576.6605Z"/><g class="cls-4"><path class="cls-2" d="M2573.5237,1588.2005c-131.3031,210.9917-361.84,322.5045-593.59,311.8916q-18.9938-.8826-37.9723-2.82a664.02,664.02,0,0,1-281.4423-96.75c-10.0294-6.3714-19.9023-12.8232-29.4815-19.5189a677.0258,677.0258,0,0,1-56.1567-43.8978,658.7276,658.7276,0,0,1-187.9866-275.73,666.7552,666.7552,0,0,1-37.2907-178.1163,661.3969,661.3969,0,0,0,238.82,305.2807c9.5376,6.7055,19.4105,13.1573,29.4815,19.5189a660.85,660.85,0,0,0,281.4,96.7613q19.0405,1.9206,38.0142,2.809c231.75,10.6129,462.2454-100.89,593.59-311.8916a659.5619,659.5619,0,0,0,98.6157-395.8347C2701.4209,1187.2312,2687.7576,1404.8032,2573.5237,1588.2005Z"/></g><path class="cls-2" d="M2010.2234,1913.5428q-15.3955,0-30.8594-.7032c-12.8711-.6152-25.8789-1.5844-38.7012-2.8808a671.394,671.394,0,0,1-191.3086-49.1724,678.167,678.167,0,0,1-95.5517-49.46c-11.2354-7.0777-21.0547-13.5816-30.0782-19.9195a686.3823,686.3823,0,0,1-57.2119-44.6752,674.0461,674.0461,0,0,1-191.6113-281.05c-69.8926-195.6323-47.08-408.8183,62.583-584.89A674.9931,674.9931,0,0,1,1758.89,611.094c14.0283-5.64,28.6328-10.9252,43.4179-15.7153a679.0808,679.0808,0,0,1,287.4951-28.5864c20.9668,2.456,42.1534,5.979,62.9737,10.4663,8.2959,1.7285,15.9912,3.5254,23.4424,5.4712a673.7863,673.7863,0,0,1,191.7968,81.6846c316.1866,196.936,413.2276,614.3725,216.3233,930.54C2460.8,1793.4231,2242.9284,1913.54,2010.2234,1913.5428ZM2011.83,587.7469a655.279,655.279,0,0,0-201.66,31.875c-14.2383,4.6118-28.2862,9.6972-41.7627,15.1147A649.544,649.544,0,0,0,1459.12,894.2605c-105.5322,169.4336-127.4755,374.5826-60.2148,562.8467h0a648.4641,648.4641,0,0,0,184.3408,270.4,658.8984,658.8984,0,0,0,55.0977,43.0225c8.7012,6.1108,18.1738,12.3852,28.9844,19.1968a652.9261,652.9261,0,0,0,91.9189,47.5756,645.9187,645.9187,0,0,0,184.0283,47.3047c12.3291,1.2476,24.8877,2.1826,37.28,2.7759,9.9072.4517,19.8291.6763,29.6875.6763,223.9355.0122,433.5742-115.5786,552.4609-306.5747,189.4776-304.2432,96.0987-705.9326-208.1543-895.4346a648.5365,648.5365,0,0,0-184.6582-78.6328c-7.1533-1.8677-14.4433-3.5693-22.4023-5.2295-20.1123-4.3335-40.4883-7.72-60.6494-10.083A645.8932,645.8932,0,0,0,2011.83,587.7469Z"/><path class="cls-2" d="M2010.2234,1917.2391q-15.4761,0-31.0254-.708c-12.9444-.6177-26.0205-1.5918-38.9063-2.8956a675.0759,675.0759,0,0,1-192.3779-49.4433,682.1162,682.1162,0,0,1-96.0645-49.729c-11.3037-7.1216-21.1767-13.66-30.249-20.0318a689.6213,689.6213,0,0,1-57.51-44.91,677.734,677.734,0,0,1-192.6661-282.5977h0c-70.2783-196.7016-47.3437-411.05,62.92-588.0884a678.718,678.718,0,0,1,323.164-271.1694c14.1113-5.6714,28.794-10.9888,43.6621-15.8032A682.821,682.821,0,0,1,2090.2331,563.12c21.084,2.4707,42.3877,6.0132,63.32,10.5249,8.335,1.7359,16.0889,3.5474,23.5987,5.5078A677.4958,677.4958,0,0,1,2369.97,661.2747c317.915,198.0151,415.4882,617.7344,217.51,935.6323C2463.2605,1796.4627,2244.198,1917.2366,2010.2234,1917.2391ZM2011.83,591.4432a651.534,651.534,0,0,0-200.5225,31.6943c-14.1552,4.585-28.125,9.6411-41.5234,15.0293a645.8465,645.8465,0,0,0-307.5293,258.0469c-104.9267,168.4717-126.748,372.456-59.873,559.6509h0a644.7633,644.7633,0,0,0,183.291,268.8549,656.4065,656.4065,0,0,0,54.7851,42.7808c8.6573,6.0815,18.0811,12.3193,28.8428,19.0991a648.6284,648.6284,0,0,0,91.3818,47.2949,642.0612,642.0612,0,0,0,182.9737,47.0362c12.2558,1.24,24.7461,2.17,37.0752,2.7588,9.8535.4516,19.7168.6738,29.5215.6738,222.6513.0122,431.1035-114.9219,549.3164-304.8316,188.3984-302.5146,95.5468-701.9189-206.9727-890.3442a644.8041,644.8041,0,0,0-183.6035-78.1836c-7.1289-1.8628-14.36-3.55-22.2559-5.1977-20.0244-4.314-40.2832-7.6807-60.3271-10.0293A642.3362,642.3362,0,0,0,2011.83,591.4432Z"/><path class="cls-2" d="M1464.08,1612.6894c342.3255,327.43,893.878,216.882,992.9228-241.724,67.3841-312.0083-186.0813-618.8763-489.8916-664.4057-221.1174-33.1369-451.4874,31.2424-596.7342,360.363,0,0-41.7984,155.6258-15.1688,267.65s71.4353,216.4794,71.4353,216.4794Z"/><path class="cls-12" d="M2456.9841,1370.9663c-99.0314,458.5959-650.5952,569.1365-992.9105,241.74l-7.577-12.5033c410.604,140.5887,870.4145-47.2254,979.1793-509.0435C2468.0409,1178.89,2477.7631,1274.6781,2456.9841,1370.9663Z"/><path class="cls-2" d="M1920.8874,1885.657a718.3691,718.3691,0,0,1-170.4736-20.6372,16.4708,16.4708,0,0,1-2.4658-.813,682.57,682.57,0,0,1-96.1035-49.7436c-11.2989-7.1216-21.1719-13.66-30.2442-20.0318a689.6213,689.6213,0,0,1-57.51-44.91,677.734,677.734,0,0,1-192.6661-282.5977h0c-70.2783-196.7016-47.3437-411.05,62.92-588.0884a677.7878,677.7878,0,0,1,259.79-241.8286,16.5772,16.5772,0,0,1,3.1543-1.26c84.1406-23.8941,178.2373-28.3057,279.6875-13.1031,180.6787,27.0777,353.5644,137.3291,462.4609,294.9268,100.0635,144.8144,136.2207,312.3047,101.8067,471.6186-37.417,173.1543-131.9287,311.4454-273.3252,399.9219C2166.2878,1852.7054,2045.37,1885.6546,1920.8874,1885.657Zm-161.4062-52.268c172.1191,41.7309,350.9961,15.459,490.9961-72.146,133.7011-83.6621,223.1347-214.7168,258.6279-378.9966,32.4756-150.3369-1.87-308.7256-96.7188-445.9863-103.8281-150.2613-268.4179-255.3467-440.2832-281.1011-96.1279-14.4068-185-10.4517-264.1894,11.7529a644.8993,644.8993,0,0,0-245.6592,229.3018c-104.9267,168.4717-126.748,372.456-59.873,559.6509h0a644.7633,644.7633,0,0,0,183.291,268.8549,656.4065,656.4065,0,0,0,54.7851,42.7808c8.6573,6.0815,18.0811,12.3193,28.8428,19.0991A648.9923,648.9923,0,0,0,1759.4812,1833.389Z"/><path class="cls-2" d="M1919.989,1817.8592c-167.4219,0-336.03-67.7612-467.2705-193.291a16.269,16.269,0,0,1-2.6856-3.3472l-37.4365-61.6357a16.1677,16.1677,0,0,1-1.06-2.0533c-1.8505-4.3164-45.6689-107.0459-72.3193-219.1577-27.28-114.751,13.53-269.1968,15.2832-275.7153a16.32,16.32,0,0,1,.835-2.3755C1482.24,772.7273,1688.8464,648.23,1969.55,690.303c161.2354,24.1626,315.503,122.5342,412.6612,263.1446,89.3115,129.2456,121.5771,278.7548,90.8593,420.9863-44.36,205.3906-181.538,357.4438-376.3623,417.17A602.3414,602.3414,0,0,1,1919.989,1817.8592Zm-442.9883-215.564c169.2774,160.9155,402.8369,221.4087,610.0732,157.876,183.11-56.1353,312.09-199.26,353.8575-392.6758,28.7842-133.2593-1.68-273.667-85.7666-395.3589C2263.07,838.8626,2117.0935,745.66,1964.6765,722.8177c-263.7793-39.5215-458.4961,78.0591-578.7305,349.5337-3.6865,14.3774-38.9013,156.8066-14.7461,258.42,24.585,103.4106,65.43,201.66,70.1123,212.7685Z"/><ellipse class="cls-3" cx="2579.4907" cy="1379.1685" rx="237.0258" ry="172.2299" transform="translate(843.2713 3733.1907) rotate(-81.7212)"/><path class="cls-2" d="M2563.4753,1631.47q-3.2447,0-6.499-.1489c-41.377-1.88-79.0625-21.03-108.9795-55.3735-43.877-50.3687-64.7705-125.5-57.3242-206.1353,12.7978-138.5962,107.4463-247.5732,211.333-242.7978,41.3769,1.8823,79.0625,21.03,108.9795,55.3759,43.8769,50.3687,64.7705,125.5005,57.3242,206.1353C2755.78,1524.2215,2664.6423,1631.47,2563.4753,1631.47Zm31.88-471.7309c-84.4287,0-160.9619,94.143-171.9482,213.0957-6.5235,70.6762,11.9336,138.5327,49.38,181.5161,23.8721,27.4048,53.501,42.6636,85.6836,44.1284,86.4551,3.9746,165.8985-91.6089,177.1045-212.9761l16.3672,1.5113-16.3672-1.5113c6.5235-70.6762-11.9336-138.5327-49.38-181.5161-23.872-27.4072-53.5009-42.666-85.6836-44.1308C2598.7927,1159.7781,2597.0691,1159.7391,2595.3552,1159.7391Z"/><ellipse class="cls-3" cx="2632.9514" cy="1403.9498" rx="188.1165" ry="140.3346" transform="translate(783.2263 3745.3224) rotate(-79.7582)"/><path class="cls-2" d="M2617.9822,1592.5662c-20.7178,0-40.7325-6.0205-59.0918-17.9272-67.8467-44.021-89.9854-156.3575-49.3457-250.4126,22.7539-52.666,61.0449-90.5078,105.0537-103.8208,32.3925-9.7974,64.3408-5.354,92.4121,12.8564,67.8515,44.021,89.99,156.355,49.3506,250.41-22.7539,52.666-61.05,90.5078-105.0635,103.8208A114.8444,114.8444,0,0,1,2617.9822,1592.5662Zm29.9072-373.7891a111.323,111.323,0,0,0-32.2949,4.9195c-43.042,13.02-80.5469,50.1587-102.8956,101.8921-40.0048,92.5879-18.4423,203.0176,48.0665,246.1645,27.1875,17.6416,58.1445,21.9434,89.541,12.4512,43.042-13.02,80.5468-50.1587,102.9-101.8945,40.0048-92.5879,18.4375-203.0152-48.0713-246.1621C2687.3572,1224.6121,2667.9626,1218.7771,2647.8894,1218.7771Z"/><g class="cls-4"><path class="cls-2" d="M2493.62,1471.1055c-5.474-35.2185-1.3079-72.063,10.2281-105.9591,19.2432,79.2532,86.22,117.0455,155.578,84.8378,44.8261-20.793,80.3152-66.0759,98.1374-118.5361,1.2463,4.99,2.2483,10.21,3.0891,15.549,13.8963,89.6878-34.612,190.18-108.3628,224.4457S2507.52,1560.7438,2493.62,1471.1055Z"/></g><path class="cls-2" d="M2618.9148,1607.7615q-1.9484,0-3.9014-.0757c-30.7422-1.1523-58.9014-15.3808-81.4355-41.145-35.4444-40.5249-52.6758-105.5249-46.0938-173.8745,11.0205-114.4433,85.1807-205.0806,165.7568-202.08,30.7422,1.1548,58.9014,15.3809,81.4356,41.1426,35.4443,40.5249,52.6807,105.5249,46.0986,173.8745l-16.3623-1.5747,16.3623,1.5747C2769.9353,1518.1937,2697.7868,1607.7615,2618.9148,1607.7615Zm30.249-384.3725c-62.2168,0-119.7168,76.46-128.9551,172.4292-5.7324,59.5092,8.5156,115.2392,38.1152,149.08,16.4258,18.7768,36.4551,29.1284,57.92,29.934.9472.0367,1.9043.0537,2.8467.0537,62.2167.0074,119.7216-76.4624,128.96-172.4316h0c5.7276-59.5093-8.5254-115.2393-38.125-149.08-16.4209-18.7768-36.45-29.126-57.915-29.9316C2651.0632,1223.4061,2650.1111,1223.389,2649.1638,1223.389Z"/><g class="cls-11"><path class="cls-3" d="M2105.8988,845.269s-300.02-25.5769-489.1192,121.01q-.2981.2312-.5957.4624a283.6258,283.6258,0,0,0-89.1711,118.7422c-24.7355,61.83-32.7244,108.0629-38.1868,149.0344-16.5565,124.6127-1.0036,186.1024-1.0036,186.1024-62.1289-75.261-92.1367-155.3141-79.375-259.2454q1.9277-15.363,5.0778-31.4929c.4725-2.4755.9966-4.9182,1.5617-7.3726-.0511-.0309-.0192-.0822.0542-.1432a703.2827,703.2827,0,0,1,26.7625-80.0065c37.2466-92.486,108.2009-210.1475,235.9913-252.144C1916.8411,711.6871,2117.892,833.6193,2105.8988,845.269Z"/></g><g class="cls-11"><ellipse class="cls-3" cx="2286.795" cy="1181.5398" rx="88.5945" ry="103.2384" transform="translate(-133.2647 304.7397) rotate(-7.4088)"/></g><g class="cls-11"><ellipse class="cls-3" cx="2310.9816" cy="1367.5452" rx="36.5834" ry="42.6303" transform="translate(-237.5539 521.5057) rotate(-12.2507)"/></g><path class="cls-2" d="M1854.3347,2260.1468a16.4438,16.4438,0,0,1-12.4609-5.7129l-142.1827-165.11a16.446,16.446,0,0,1-3.208-15.72l17.2022-53.9575-44.0821-24.07a16.4437,16.4437,0,0,1-8.5644-14.4287V1810.6961a16.44,16.44,0,0,1,32.8809,0v160.6982l47.4218,25.896a16.4431,16.4431,0,0,1,7.7881,19.4214l-18.53,58.1226,128.9161,149.7021,271.6406-93.53,10.7373-84.3213a16.45,16.45,0,0,1,11.0889-13.5108l182.6757-61.1841,8.2618-166.333a16.4362,16.4362,0,1,1,32.832,1.6309l-8.8135,177.5415a16.4292,16.4292,0,0,1-11.1963,14.7729l-183.5351,61.4722-10.7276,84.2261a16.4352,16.4352,0,0,1-10.957,13.4643l-291.8408,100.4834A16.3667,16.3667,0,0,1,1854.3347,2260.1468Z"/><polygon class="cls-9" points="1942.58 1954.974 1958.806 2120.637 1856.635 2229.951 1819.418 2090.922 1871.354 1948.627 1942.58 1954.974"/><path class="cls-2" d="M1856.6345,2246.39a16.4341,16.4341,0,0,1-15.8789-12.1875l-37.2168-139.0308a16.4406,16.4406,0,0,1,.4346-9.8877l51.9336-142.2949a16.4366,16.4366,0,0,1,16.9043-10.7373l71.23,6.3476a16.4443,16.4443,0,0,1,14.9024,14.773l16.2256,165.664a16.4584,16.4584,0,0,1-4.3506,12.8272l-102.1729,109.314A16.453,16.453,0,0,1,1856.6345,2246.39Zm-19.9951-154.7071,28.2129,105.4,76.87-82.2412-14.1748-144.7046-45.083-4.0161Z"/><path class="cls-2" d="M1988.9392,2024.8147a16.43,16.43,0,0,1-13.1494-6.5625l-42.69-56.7871a16.4385,16.4385,0,0,1,26.2793-19.7558L1993.72,1987.39l136.2158-70.4419a16.4379,16.4379,0,0,1,15.0976,29.2041l-148.5547,76.8238A16.3919,16.3919,0,0,1,1988.9392,2024.8147Z"/><path class="cls-2" d="M1828.0359,1997.1072a16.428,16.428,0,0,1-11.9532-5.1489l-53.2031-56.3208a16.4379,16.4379,0,1,1,23.8965-22.5781l44.0088,46.5844,29.4385-18.1909a16.4395,16.4395,0,0,1,17.2851,27.9688l-40.8349,25.2319A16.4138,16.4138,0,0,1,1828.0359,1997.1072Z"/><circle class="cls-2" cx="1902.8447" cy="2323.9011" r="25.709" transform="translate(-695.8507 3829.928) rotate(-80.7825)"/><circle class="cls-2" cx="1902.8447" cy="2462.1634" r="25.7089"/><circle class="cls-2" cx="1907.1439" cy="2604.9479" r="25.7089"/></svg>