<svg id="Layer_1" data-name="Layer 1" xmlns="http://www.w3.org/2000/svg" width="4000" height="4000" viewBox="0 0 4000 4000"><defs><style>.cls-1{fill:#fff;}.cls-2{opacity:0.35;}.cls-3{fill:#371a45;}.cls-4{opacity:0.3;}.cls-5{fill:#6b184e;}.cls-6{fill:#181558;}.cls-7{fill:#220f2d;}.cls-8{opacity:0.7;}</style></defs><title>service-nempel</title><path class="cls-1" d="M2424.1576,3189.9652s376.7843,60.4913,450.3042-62.042c108.073-180.1217,98.0662-804.5434,0-960.6489-84.3151-134.2159-494.5855-61.5094-494.5855-61.5094Z"/><path class="cls-1" d="M2424.1576,3189.9652s376.7843,60.4913,450.3042-62.042c108.073-180.1217,98.0662-804.5434,0-960.6489-84.3151-134.2159-494.5855-61.5094-494.5855-61.5094Z"/><g class="cls-2"><path class="cls-3" d="M2874.4579,3127.9127c-73.5282,122.5243-450.3169,62.0411-450.3169,62.0411V2933.937s376.7887,60.4836,450.3169-62.0409c41.0151-68.4014,65.0915-200.9848,73.7224-347.6508C2961.4187,2754.3681,2938.9647,3020.3792,2874.4579,3127.9127Z"/></g><path class="cls-3" d="M2618.3432,3229.65c-94.3388,0-179.5138-12.784-198.0232-15.7559a24.2308,24.2308,0,0,1-20.374-22.9382l-44.2812-1084.1995a24.2325,24.2325,0,0,1,19.9807-24.854c43.64-7.7323,428.9568-71.4114,519.3327,72.4823,58.063,92.4229,79.9231,310.6489,81.0159,484.0549,1.4423,227.6373-28.7511,415.28-80.7536,501.9524C2852.2486,3212.0544,2728.9987,3229.65,2618.3432,3229.65Zm-170.7873-60.7146c112.2216,15.421,355.9536,30.1533,406.1205-53.4774,46.9181-78.1932,75.2175-260.8574,73.8553-476.7124-1.3039-206.2981-30.878-390.5868-73.593-458.5782-58.3982-92.9656-326.416-72.8319-448.974-53.9766Z"/><path class="cls-1" d="M2679.1021,2676.5877l167.5292-3.6329a59.5414,59.5414,0,0,1,60.8417,56.8088c3.7,84.3595.1438,233.3018-68.5516,255.899-96.6935,31.8071-188.641,3.94-209.4993-23.8553-30.828-41.0805-18.2356-164.4915-7.99-234.4118A59.5374,59.5374,0,0,1,2679.1021,2676.5877Z"/><g class="cls-2"><path class="cls-3" d="M2838.8949,2985.6593c-96.6959,31.8-188.59,3.9587-209.4861-23.8818-19.7289-26.283-21.676-86.2474-17.8466-144.3948a68.1577,68.1577,0,0,0,9.41,18.4308c20.8966,27.7755,112.7911,55.6165,209.4862,23.817,46.2062-15.186,62.9493-87.61,67.8166-159.0614a59.0126,59.0126,0,0,1,9.2155,29.2035C2911.1888,2814.138,2907.62,2963.0755,2838.8949,2985.6593Z"/></g><path class="cls-3" d="M2750.99,3023.9816c-66.877.0038-121.8807-22.2133-140.951-47.6319-27.52-36.6691-31.752-121.6111-12.5872-252.4658a83.5242,83.5242,0,0,1,81.125-71.5243h0l167.5312-3.6312c44.9367-1.2311,83.6018,34.8917,85.5757,79.9741,4.9679,113.3069-5.7765,253.8607-85.19,279.9822A306.367,306.367,0,0,1,2750.99,3023.9816Zm-71.3641-323.1671a35.19,35.19,0,0,0-34.2143,30.0951c-19.1431,130.6726-10.7953,197.44,3.3945,216.35,13.1772,17.5624,93.4791,44.6927,182.5367,15.3807,37.7544-12.416,57.6479-101.2442,51.9151-231.8149a35.5,35.5,0,0,0-36.1009-33.6424Z"/><path class="cls-1" d="M2388.2389,1932.75v947.7609c0,145.6473-150.2255,242.8256-283.0695,183.1128L1725.396,2892.917c-71.0831-31.9516-476.1836-79.0764-119.29-236.9967s581.3716-923.9316,581.3716-923.9316C2298.3551,1731.9887,2388.2389,1821.8725,2388.2389,1932.75Z"/><g class="cls-2"><path class="cls-3" d="M1938.9537,3019.2727s238.4458-350.283,69.6346-681.5749-305.97,260.7459-305.97,260.7459Z"/></g><rect class="cls-1" x="1684.2839" y="2391.7876" width="263.7674" height="472.6712" transform="translate(213.7524 -135.5269) rotate(4.5405)"/><g class="cls-2"><rect class="cls-3" x="1684.2839" y="2391.7876" width="263.7674" height="472.6712" transform="translate(213.7524 -135.5269) rotate(4.5405)"/></g><path class="cls-3" d="M1928.959,2898.3933q-.9726,0-1.9449-.0764l-262.9407-20.88a24.2438,24.2438,0,0,1-22.2461-26.0777l37.4193-471.1909a24.237,24.237,0,0,1,26.0778-22.2389l262.94,20.884a24.2393,24.2393,0,0,1,22.2461,26.0778l-37.4193,471.1871A24.2392,24.2392,0,0,1,1928.959,2898.3933Zm-236.8922-67.354,214.6241,17.0416,33.5806-422.8707-214.6241-17.0452Z"/><g class="cls-4"><path class="cls-5" d="M988.3519,2007.8138a95.1643,95.1643,0,0,0,2.4844,25.24Z"/></g><path class="cls-1" d="M2629.2138,2748.3327q0,5.16-.1948,10.3188c-.065,3.3748-.13,6.7492-.2591,10.0589-.13,4.6727-.26,9.3451-.4538,13.9529-.195,5.2565-.4547,10.5133-.7146,15.64-.39,8.4364-.9079,16.8084-1.4926,24.9853-.3247,4.413-.6488,8.7609-.9728,13.1089-.5846,7.3983-1.2334,14.7316-1.9471,21.935-.39,3.8941-.8445,7.7227-1.2335,11.5518-.4539,4.4129-.9737,8.8259-1.5574,13.1738-.9087,8.047-2.0114,16.03-3.1149,23.8169q-.5835,3.8942-1.1686,7.7876-3.017,19.7615-6.62,38.3541c-.8429,4.3479-1.6874,8.631-2.5953,12.9144-.9085,4.218-1.7523,8.4364-2.7259,12.5249-2.1413,9.6046-4.4134,18.8848-6.7487,27.97-.9094,3.5692-1.8822,7.074-2.8559,10.5132-.3239,1.233-.6488,2.4011-.9736,3.6342-1.4924,5.2566-2.9849,10.3837-4.5424,15.4454-4.2184,13.9529-8.7616,27.3866-13.5639,40.1709-.9729,2.6606-1.9464,5.3216-2.985,7.9821-.8436,2.1418-1.6224,4.2186-2.4661,6.23-1.2976,3.31-2.661,6.5546-4.0235,9.8-1.1678,2.8553-2.3362,5.6459-3.57,8.4364-4.5425,10.3833-9.2148,20.3776-14.0821,29.8522-1.2326,2.4661-2.4661,4.8672-3.7646,7.2687-.9077,1.882-1.8814,3.6343-2.79,5.3212-1.2977,2.4661-2.66,4.8672-3.9587,7.2039-1.3633,2.4661-2.7909,4.9318-4.1533,7.2684-1.3627,2.4011-2.79,4.7373-4.2185,7.0735a467.5854,467.5854,0,0,1-29.1385,42.9614c-1.2983,1.7523-2.5961,3.44-3.9585,5.0621-4.2826,5.5161-8.6319,10.7727-13.0444,15.8347-.9728,1.1681-1.9471,2.3362-2.985,3.4394a394.6382,394.6382,0,0,1-63.0142,57.823c-2.726,2.0117-5.3869,3.8937-8.112,5.7759-.78.5839-1.6224,1.1681-2.4669,1.6869-1.6874,1.1686-3.3748,2.2716-4.9971,3.3748-5.3854,3.5692-10.7074,6.879-15.9643,9.9939-295.9929,174.7017-711.0057-105.9757-711.0057-105.9757s-210.6546,140.5007-336.2284,147.769c-222.4005,12.9149-431.8865-121.7455-371.3383-285.1552,1.0384-2.7255,2.1412-5.4511,3.44-8.047a42.5462,42.5462,0,0,1,1.9464-3.8288,43.1051,43.1051,0,0,1,2.1421-3.764,85.1853,85.1853,0,0,1,4.6723-7.2035c1.6874-2.3361,3.44-4.6078,5.322-6.8141.9079-1.1035,1.8815-2.2065,2.855-3.2447a112.7211,112.7211,0,0,1,12.72-12.1361c.9735-.8432,2.0121-1.6869,3.05-2.5306q1.6552-1.2655,3.31-2.5311c1.4275-1.0382,2.8559-2.0767,4.3484-3.1148,78.6546-54.5134,223.1791-54.124,230.4476-67.4927,106.3-193.6512,213.9634-282.4942,323.6388-298.5887,101.6273-14.9912,205.0085,32.5781,310.7244,117.138.13.13.259.1949.3241.3248,2.0121,1.5575,4.0892,3.2449,6.1006,4.8672a1.7059,1.7059,0,0,1,.3889.3245q20.1513,16.4513,40.43,34.525s47.3749,41.2741,79.1093,69.6337l21.87-54.0588,81.77-201.9578,178.9841-442.0751,62.43-154.259,101.2384-250.046c43.2213,135.244,77.5518,259.0017,104.0934,372.1163,47.18,200.8547,70.1536,368.3526,75.54,508.075.26,7.4628.519,14.7961.7131,22.13.1948,6.23.3248,12.46.39,18.6252Q2629.5063,2725.4249,2629.2138,2748.3327Z"/><g class="cls-2"><path class="cls-3" d="M2629.2138,2748.3327q0,5.16-.1948,10.3188c-.065,3.3748-.13,6.7492-.2591,10.0589-.13,4.6727-.26,9.3451-.4538,13.9529-.195,5.2565-.4547,10.5133-.7146,15.64-.39,8.5014-.9079,16.8084-1.4926,24.9853-.3247,4.413-.6488,8.7609-.9728,13.1089-.5846,7.3983-1.2334,14.7316-1.9471,21.935-.39,3.8941-.8445,7.7227-1.2335,11.5518-.4539,4.4129-.9737,8.8259-1.5574,13.1738-.9087,8.047-2.0114,16.03-3.1149,23.8169q-.5835,3.8942-1.1686,7.7876-3.017,19.7615-6.62,38.3541c-.8429,4.3479-1.6874,8.631-2.5953,12.9144-.9085,4.218-1.7523,8.4364-2.7259,12.5249-2.1413,9.6046-4.4134,18.8848-6.7487,27.97-.9094,3.5692-1.8822,7.074-2.8559,10.5132-.3239,1.233-.6488,2.4011-.9736,3.6342-1.4924,5.2566-2.9849,10.3837-4.5424,15.4454-4.2184,13.9529-8.7616,27.3866-13.5639,40.1709-.9729,2.6606-1.9464,5.3216-2.985,7.9821-.8436,2.1418-1.6224,4.2186-2.4661,6.23-1.2976,3.31-2.661,6.5546-4.0235,9.8-1.1678,2.8553-2.3362,5.6459-3.57,8.4364-4.5425,10.3833-9.2148,20.3776-14.0821,29.8522-1.2326,2.4661-2.4661,4.8672-3.7646,7.2687-.9077,1.882-1.8814,3.6343-2.79,5.3212-1.2977,2.4661-2.66,4.8672-3.9587,7.2039-1.3633,2.4661-2.7909,4.9318-4.1533,7.2684-1.3627,2.4011-2.79,4.7373-4.2185,7.0735a467.5854,467.5854,0,0,1-29.1385,42.9614c-1.2983,1.7523-2.5961,3.44-3.9585,5.0621-4.2826,5.5161-8.6319,10.7727-13.0444,15.8347-.9728,1.1681-1.9471,2.3362-2.985,3.4394a394.6382,394.6382,0,0,1-63.0142,57.823c-2.726,2.0117-5.3869,3.8937-8.112,5.7759-.78.5839-1.6224,1.1681-2.4669,1.6869-1.6874,1.1686-3.3748,2.2716-4.9971,3.3748-5.3854,3.5692-10.7074,6.879-15.9643,9.9939-295.9929,174.7017-711.0057-105.9757-711.0057-105.9757s-210.6546,140.5007-336.2284,147.769c-222.4005,12.9149-431.8865-121.7455-371.3383-285.1552,1.0384-2.7255,2.1412-5.4511,3.44-8.047a42.5462,42.5462,0,0,1,1.9464-3.8288,43.1051,43.1051,0,0,1,2.1421-3.764,85.1853,85.1853,0,0,1,4.6723-7.2035c1.6874-2.3361,3.44-4.6078,5.322-6.8141.9079-1.1035,1.8815-2.2065,2.855-3.2447a112.7211,112.7211,0,0,1,12.72-12.1361c.9735-.8432,2.0121-1.6869,3.05-2.5306q1.6552-1.2655,3.31-2.5311c1.4275-1.0382,2.8559-2.0767,4.3484-3.1148-66,211.7572,182.5539,238.17,359.202,227.9164,121.2911-7.009,244.4654-265.4739,422.8038-175.1488,155.0257,82.2955,309.6838,270.222,595.4224,101.556,60.7431-35.8875,127.5868-104.3537,158.7373-217.1434,15.6395-56.59-27.7759-112.2713-86.4424-110.26-114.2186,3.959-299.6267,4.9972-436.6889-20.2476l81.77-201.9578c62.6244,4.2833,135.8279,9.7344,214.7414,14.2773,162.696,9.28,271.9173-5.646,271.9173-5.646a194.6644,194.6644,0,0,1,30.8259,2.0766c1.2326.1946,2.4653.3894,3.7637.5839.389,7.5933.7137,15.121,1.0385,22.5194.26,7.4628.519,14.7961.7131,22.13.1948,6.23.3248,12.46.39,18.6252Q2629.5063,2725.4249,2629.2138,2748.3327Z"/></g><g class="cls-4"><polygon class="cls-6" points="1946.446 1284.658 1946.446 1284.72 1784.236 1283.851 1946.446 1284.658"/></g><path class="cls-3" d="M2456.191,1777.8962c42.3726,91.1919,73.4437,186.54,100.0278,283.1035,26.1468,96.7243,46.7541,195.0221,62.9433,294.1247,16.31,99.07,28.4269,199.09,32.9178,299.9375,1.679,50.4437,2.3491,101.04-.8887,151.6914-2.8446,50.615-8.1658,101.3207-18.2,151.4766-9.83,50.1342-23.652,99.8494-43.3087,147.7253-4.5017,12.11-10.5112,23.6739-15.8433,35.4816-5.5361,11.7314-12.0773,23.0366-18.178,34.5166l-10.2343,16.6957-5.1246,8.34-5.587,8.0709-11.2432,16.1055-12.1867,15.4682c-32.8521,40.9195-73.5093,76.39-119.728,102.3186-46.0913,25.9758-97.012,42.97-148.7742,51.0737-51.864,7.736-104.2708,7.3572-155.512,1.486-51.2158-6.3044-101.3571-17.8756-150.0926-33.045a1140.4567,1140.4567,0,0,1-141.9888-55.8742q-34.4509-16.2639-67.8968-34.5421c-22.3955-12.3467-43.946-24.8247-66.09-39.3787l27.0247.0837c-39.4444,25.7281-79.151,48.9286-120.3181,70.909-41.1343,21.78-83.456,41.8043-128.2579,57.8189l-16.87,5.8892-17.3621,5.059c-11.378,3.7077-23.7322,5.7327-35.6711,8.4316-6.0423,1.2164-12.5144,1.6462-18.7534,2.473a165.4906,165.4906,0,0,1-18.5021,1.5333c-11.9718.6374-23.9508.5391-35.93.4626-47.8687-1.3549-95.6317-8.49-141.6611-22.6-45.9164-14.2152-90.4926-34.8589-129.8313-64.9138-19.5948-15.0494-37.8092-32.55-53.1534-52.975a197.4572,197.4572,0,0,1-33.9521-69.78c-3.4965-12.7765-4.8951-26.0958-5.5179-39.3569.1894-6.6177.1166-13.2975.7868-19.8642.9541-6.5122,1.271-13.2027,2.9391-19.5328,1.4241-6.3956,2.6989-12.8568,4.88-18.9573l2.99-9.2693c1.0671-3.1214,2.7171-6.5523,4.0937-9.7937a129.1522,129.1522,0,0,1,23.7759-34.7351,180.9416,180.9416,0,0,1,30.9874-25.2728,267.5073,267.5073,0,0,1,33.6352-17.8465c22.847-9.91,46.0877-17.0015,69.27-22.5521,23.1823-5.62,46.4008-9.6953,69.259-13.323l33.6132-5.3248c5.4268-.8995,10.6606-1.9085,15.0567-2.95l2.8772-.7647.7212-.27.3679-.1093c.1711-.0437.2913-.08-.0766.04a4.04,4.04,0,0,0-1.2638.7467c-.24.1675.1493-.0291-.6009.4515a16.0767,16.0767,0,0,0-4.72,4.9715,10.608,10.608,0,0,0-.7175,1.3549l.27-.4733.5389-.9506,1.0818-1.8976a1113.05,1113.05,0,0,1,74.9407-118.5444c27.8294-37.9184,58.835-74.1941,95.1617-105.9208,36.5744-31.18,78.6266-58.5291,126.63-73.0941,23.8415-7.1968,48.7173-12.03,73.7571-12.5981a337.5183,337.5183,0,0,1,74.1065,6.5121c24.1438,5.0844,47.3478,12.85,69.9255,21.6745a533.6042,533.6042,0,0,1,64.5788,31.9488c41.1853,24.162,78.4407,53.412,112.67,85.1933,17.016,16.0072,32.9759,32.59,48.5971,49.4165,15.5519,16.9833,30.8562,34.2361,45.0058,52.7491a8.2261,8.2261,0,0,1-10.69,12.0956l-.0765-.0473c-40.0817-23.4919-77.17-51.42-112.7606-78.8706-35.7585-27.083-71.7539-53.2116-109.2387-75.8658a560.0127,560.0127,0,0,0-57.5933-30.39,354.1125,354.1125,0,0,0-60.6087-20.1338,261.4333,261.4333,0,0,0-62.2442-5.842c-20.7712.4334-41.2181,4.4982-61.0933,10.4567-39.896,12.0263-76.3684,35.4489-109.22,63.4241-32.6554,28.5108-61.5631,62.146-87.8083,97.9373a1064.4933,1064.4933,0,0,0-71.6227,113.3506l-1.0416,1.8284-.5209.9141-.2586.4589c.1529-.2294-.9142,1.4969-1.4132,2.16a34.079,34.079,0,0,1-4.44,5.1028c-.82.772-1.6682,1.4969-2.5313,2.167a12.4533,12.4533,0,0,1-1.508,1.0089c-1.6352.9906-3.3324,1.9157-5.0552,2.75a16.6369,16.6369,0,0,1-2.0469.8742l-1.6535.6045-3.3289,1.1546-5.405,1.4641c-6.7306,1.6062-12.7439,2.7062-18.6005,3.69l-34.1668,5.4195c-22.319,3.54-44.2083,7.4043-65.5,12.569-21.2956,5.0844-41.9539,11.4982-61.1006,19.7985a220.4583,220.4583,0,0,0-26.9519,14.2519,133.5375,133.5375,0,0,0-22.1186,17.9521,80.47,80.47,0,0,0-14.8345,21.5832c-.8086,2.04-1.77,3.7295-2.5422,6.0205l-2.2509,7.0657c-1.7409,4.6766-2.5822,9.48-3.6785,14.2408-1.344,4.742-1.384,9.5861-2.1816,14.3682-.5062,4.7968-.3642,9.6007-.5936,14.4011.5463,9.5606,1.4239,19.1322,4.0353,28.4378,9.2913,37.6124,36.3924,70.8651,69.6524,96.2617,33.45,25.6007,73.1232,44.23,114.4907,57.0032,41.4985,12.7328,85.04,19.2451,128.6,20.4906,10.8973.051,21.7981.16,32.6808-.43a126.0628,126.0628,0,0,0,15.6686-1.3258c5.0844-.7139,10.0887-.9251,15.2495-1.985,10.3475-2.4257,20.6729-3.9555,31.0748-7.3826l15.5848-4.5235,15.5228-5.4341c41.3856-14.7762,82.0537-33.9192,121.7458-54.9563,39.5573-21.0952,78.9142-44.1391,116.1187-68.4031a24.6157,24.6157,0,0,1,26.9518.0292l.0728.0546c19.4746,12.7985,41.0215,25.3676,62.2479,37.03q32.08,17.5916,65.238,33.1945a1092.8094,1092.8094,0,0,0,135.8445,53.4739c46.3353,14.4229,93.64,25.2836,141.3042,31.1657,47.6536,5.445,95.6716,5.6891,142.3893-1.26,46.6012-7.328,91.5744-22.4392,132.2863-45.3446,40.65-22.8036,76.4922-53.962,105.9461-90.642l10.941-13.8584,10.1251-14.5321,5.0516-7.277,4.64-7.5756,9.2984-15.1441c5.5433-10.5148,11.5346-20.7783,16.6118-31.5664,4.88-10.8936,10.442-21.445,14.5941-32.71,18.1851-44.2884,31.2241-90.9626,40.5442-138.5179,9.5278-47.5409,14.6451-96.16,17.38-144.939,3.136-48.7791,2.48-97.9079.8523-146.9712-4.2321-98.2031-16.1492-196.3186-33.4494-293.5492-17.4933-97.2379-40.1837-193.5324-63.1621-289.8488-23.43-96.2763-48.7718-192.0245-66.2395-290.8358l-.0109-.0692a8.1427,8.1427,0,0,1,15.4026-4.8477Z"/><path class="cls-1" d="M1552.7675,1415A780.02,780.02,0,0,0,1693.13,1784.2293a791.6884,791.6884,0,0,0,52.567,65.981c9.1481,10.3608,18.7243,20.54,28.5569,30.6105a784.9579,784.9579,0,0,0,94.5692,81.7385A779.5708,779.5708,0,0,0,2071.52,2069.8152q21.35,7.4543,42.9609,13.7344c263.8687,76.078,559.957,11.2763,769.2973-195.3656,308.4412-304.3393,311.7031-801.0823,7.4247-1109.4984A782.9728,782.9728,0,0,0,2696.5543,634.47c-8.1665-4.3632-16.4932-8.5053-24.8931-12.4658q-33.5934-16.1209-68.2729-28.8506a788.8636,788.8636,0,0,0-332.4617-45.487q-26.6938,2.09-53.2723,6.0013a783.9281,783.9281,0,0,0-435.9759,217.6544C1604.2419,946.3819,1527.8329,1185.0824,1552.7675,1415Z"/><path class="cls-3" d="M2331.9544,2116.4042a786.6125,786.6125,0,0,1-218.0622-30.8126c-14.3792-4.1775-28.8748-8.81-43.0718-13.7709A781.7706,781.7706,0,0,1,1867.56,1964.2719a790.8606,790.8606,0,0,1-94.82-81.959c-10.7881-11.05-20.1557-21.0881-28.6417-30.696a799.9216,799.9216,0,0,1-52.7019-66.1522A784.8468,784.8468,0,0,1,1550.6572,1415.23c-26.0851-240.5269,57.5748-475.7727,229.5276-645.4236a786.0237,786.0237,0,0,1,437.1587-218.2406c17.4167-2.5824,35.3871-4.6074,53.4157-6.0206a791.1273,791.1273,0,0,1,333.3577,45.6105c23.0985,8.4789,46.1315,18.2144,68.4651,28.9333,8.9595,4.2212,17.1325,8.3149,24.9777,12.5034a784.9754,784.9754,0,0,1,195.1605,144.6c304.643,308.7916,301.3069,807.8594-7.4519,1112.5062C2736.13,2036.918,2536.2712,2116.4,2331.9544,2116.4042ZM2332.69,547.363q-30.8453,0-61.5959,2.422c-17.9339,1.4059-35.8022,3.42-53.1243,5.9877a781.7572,781.7572,0,0,0-434.7986,217.0606c-171.02,168.733-254.2287,402.7115-228.2894,641.938h0a780.5071,780.5071,0,0,0,139.982,368.2241,793.8346,793.8346,0,0,0,52.4178,65.8024c8.4424,9.5606,17.7662,19.5475,28.496,30.5358a786.1048,786.1048,0,0,0,94.3023,81.5111,777.2729,777.2729,0,0,0,202.146,106.9624c14.1243,4.935,28.5472,9.546,42.8461,13.698,272.046,78.4335,566.0031,3.7842,767.21-194.8326,307.0833-303.0006,310.4123-799.3733,7.4081-1106.493A780.5353,780.5353,0,0,0,2695.5711,636.355c-7.7942-4.1666-15.9015-8.2275-24.81-12.427-22.2317-10.6641-45.1407-20.345-68.108-28.78A787.3778,787.3778,0,0,0,2332.69,547.363Z"/><g class="cls-2"><path class="cls-3" d="M2883.7809,1888.1641c-209.3267,206.6786-505.4568,271.48-769.3094,195.3618q-21.6211-6.2531-42.9343-13.7162a786.0062,786.0062,0,0,1-297.3049-188.977c-9.7886-10.1-19.3747-20.2491-28.5557-30.5983a801.3821,801.3821,0,0,1-52.5406-66.017,779.7422,779.7422,0,0,1-140.3728-369.2408,789.2434,789.2434,0,0,1,6.1852-215.3207A782.9014,782.9014,0,0,0,1749.69,1616.93c9.13,10.3489,18.7166,20.498,28.5557,30.5981a782.2528,782.2528,0,0,0,297.2536,188.978q21.389,7.461,42.9855,13.7154c263.8527,76.1182,559.9321,11.3165,769.31-195.3618A780.7327,780.7327,0,0,0,3110.46,1226.3864C3141.57,1461.854,3065.85,1708.5445,2883.7809,1888.1641Z"/></g><path class="cls-3" d="M2331.9471,2130.6522a800.7791,800.7791,0,0,1-222.003-31.37c-14.6486-4.2539-29.3847-8.9633-43.8222-14.0076a796.0515,796.0515,0,0,1-207.0192-109.53,804.6363,804.6363,0,0,1-96.5021-83.4232c-11.0139-11.2725-20.5344-21.4814-29.1808-31.2678a812.9378,812.9378,0,0,1-53.62-67.31,799.1288,799.1288,0,0,1-143.311-376.9762h0c-26.5584-244.8756,58.6166-484.3826,233.687-657.104a800.3376,800.3376,0,0,1,445.0695-222.1923c17.7518-2.63,36.05-4.6948,54.399-6.1333a805.3717,805.3717,0,0,1,339.3818,46.441c23.521,8.6391,46.9764,18.5493,69.7252,29.4612,9.0835,4.2831,17.4677,8.4825,25.5241,12.7838a798.8537,798.8537,0,0,1,198.5767,147.1535c310.1793,314.39,306.77,822.4972-7.5756,1132.6654C2743.4361,2049.7274,2539.957,2130.6485,2331.9471,2130.6522Zm.7431-1569.0375q-30.2772,0-60.4741,2.3747c-17.6134,1.38-35.1613,3.358-52.1555,5.8783A767.5472,767.5472,0,0,0,1793.18,782.9767c-167.91,165.6628-249.6032,395.38-224.13,630.2577h0a766.2291,766.2291,0,0,0,137.418,361.49,779.9645,779.9645,0,0,0,51.4706,64.6116c8.3114,9.4076,17.4677,19.2232,28.03,30.044a771.4334,771.4334,0,0,0,92.5394,79.9741,763.2271,763.2271,0,0,0,198.46,105.0174c13.8475,4.8368,28.0226,9.3676,42.0814,13.4506,267.0634,76.9984,555.6885,3.7076,753.2236-191.2926,301.4963-297.4827,304.76-784.8118,7.2769-1086.341A766.5306,766.5306,0,0,0,2688.9789,648.986c-7.7068-4.1157-15.61-8.0711-24.3005-12.1684-21.9038-10.5112-44.39-20.0136-66.9351-28.2922A773.0592,773.0592,0,0,0,2332.69,561.6147Z"/><path class="cls-3" d="M2331.94,2138.5119a808.709,808.709,0,0,1-224.1736-31.6793c-14.7944-4.2978-29.6689-9.0507-44.2374-14.1388a804.1615,804.1615,0,0,1-209.088-110.6227,813.204,813.204,0,0,1-97.4346-84.2282c-11.13-11.4-20.7455-21.7034-29.4794-31.5882a822.7572,822.7572,0,0,1-54.1222-67.9441,806.9964,806.9964,0,0,1-144.7313-380.6984c-26.8136-247.2721,59.1993-489.1247,235.9815-663.5433a808.3152,808.3152,0,0,1,449.4327-224.374c17.9339-2.6551,36.4141-4.7384,54.9454-6.1916A813.19,813.19,0,0,1,2611.7291,570.4c23.7613,8.7265,47.45,18.7351,70.4171,29.7563,9.1636,4.3158,17.657,8.5735,25.83,12.9367a806.7055,806.7055,0,0,1,200.4705,148.563c313.2168,317.478,309.786,830.5718-7.6484,1143.7775C2747.4643,2056.7895,2541.9893,2138.5046,2331.94,2138.5119Zm.7431-1569.0411q-29.9712,0-59.8477,2.3529c-17.4386,1.3693-34.8043,3.3252-51.6237,5.8164a759.7963,759.7963,0,0,0-422.51,210.9272c-166.198,163.9692-247.0535,391.3407-221.8353,623.8222h0A758.3842,758.3842,0,0,0,1712.8636,1770.16a771.7186,771.7186,0,0,0,50.9462,63.956c8.2385,9.3238,17.3147,19.0484,27.7822,29.7709a763.5228,763.5228,0,0,0,91.5635,79.1327A755.53,755.53,0,0,0,2079.5833,2046.96c13.6872,4.782,27.7312,9.2692,41.6588,13.3157,264.3246,76.208,549.9923,3.6566,745.51-189.3367,298.4152-294.4452,301.6421-776.7884,7.2042-1075.2326a758.4919,758.4919,0,0,0-188.6191-139.7525c-7.6485-4.09-15.4354-7.9872-24.009-12.0263-21.729-10.4276-43.9825-19.8351-66.2941-28.0263a765.3113,765.3113,0,0,0-262.3507-46.43Z"/><path class="cls-3" d="M1599.8931,1610.4449c303.7846,471.3113,969.1858,496.1349,1209.6535-4.4794,163.6-340.5881-43.563-763.7278-380.74-899.9092-245.4023-99.1149-528.3441-88.5252-786.2942,250.2926,0,0-91.0271,167.6235-91.2612,303.9225s22.5422,268.897,22.5422,268.897Z"/><path class="cls-7" d="M2809.525,1605.9614c-240.45,500.6063-905.8618,475.7709-1209.644,4.5009l-5.2746-16.4823c433.9016,275.0554,1014.9987,185.6381,1267.5415-315.9936C2875.2146,1387.9018,2859.9944,1500.8487,2809.525,1605.9614Z"/><path class="cls-3" d="M2239.597,2076.1075c-128.91.0072-260.3255-31.6066-381.0042-93.6467a22.4365,22.4365,0,0,1-3.0084-1.8575,811.868,811.868,0,0,1-97.26-84.0642c-11.1012-11.3709-20.6947-21.6526-29.3993-31.5155a817.3092,817.3092,0,0,1-54.0057-67.7912,805.0944,805.0944,0,0,1-144.3963-379.82h0c-26.7552-246.7078,59.0609-488.0032,235.4352-662.0209a805.2253,805.2253,0,0,1,367.07-207.4964,22.3394,22.3394,0,0,1,4.5745-.67c103.83-4.3087,213.8228,16.619,326.7873,62.2478,201.2646,81.2853,370.4857,256.49,452.6743,468.6742,75.5525,195.0511,70.9562,398.65-12.9369,573.2874-91.1628,189.7409-238.684,323.3928-426.6183,386.5111C2401.4684,2063.4838,2321.0207,2076.1038,2239.597,2076.1075ZM1880.6277,1943.468c185.8585,95.0381,398.1078,114.0318,582.6332,52.05,176.214-59.1848,314.7173-184.8677,400.5261-363.4637,78.4807-163.3682,82.5819-354.3439,11.5383-537.7438-77.8034-200.864-237.6861-366.6-427.6893-443.3394-106.1755-42.8863-209.0732-62.7578-305.8523-59.1229a760.5469,760.5469,0,0,0-344.3861,195.3971c-166.5988,164.37-247.651,392.2985-222.3818,625.3445h0a760.291,760.291,0,0,0,136.3325,358.6488,772.8166,772.8166,0,0,0,51.0774,64.1089c8.2531,9.3494,17.3439,19.0922,27.8405,29.8364A765.66,765.66,0,0,0,1880.6277,1943.468Z"/><path class="cls-3" d="M2235.1246,1996.9784c-257.2153,0-505.2741-140.1714-655.6-373.4031a24.1484,24.1484,0,0,1-2.71-5.7219l-26.1-81.2779a24.5461,24.5461,0,0,1-.8086-3.3035c-.947-5.5-23.1277-136.227-22.8872-273.0439.24-140.8125,90.3615-308.38,94.193-315.4422a24.2341,24.2341,0,0,1,2.0178-3.1176c226.847-297.9562,500.9253-384.7739,814.652-258.0857,180.14,72.7591,331.5948,229.5459,405.1443,419.407,67.6564,174.6516,63.5189,357.0062-11.6329,513.469-108.47,225.8089-309.764,364.0027-552.2869,379.1467Q2257.1011,1996.982,2235.1246,1996.9784Zm-613.14-397.0042c149.5973,230.1323,400.0235,363.2015,654.1065,347.2562,224.4869-14.0187,410.9645-142.2293,511.6113-351.7579,69.2954-144.2615,72.8938-312.9472,10.1253-474.9752-68.8-177.6052-210.1442-324.1357-378.0979-391.9706-290.4024-117.2915-545.01-36.1993-756.7492,240.9493-9.0034,17.0854-87.28,169.17-87.4915,290.8359-.2186,124.4992,19.3616,247.6181,21.9184,263.1263Z"/><ellipse class="cls-1" cx="2948.2868" cy="1649.1825" rx="280.5702" ry="203.8706" transform="translate(324.0393 3776.5101) rotate(-68.251)"/><path class="cls-3" d="M2900.6309,1944.6882a176.8409,176.8409,0,0,1-49.1106-6.8582c-48.3967-13.9457-87.4988-47.1986-113.0885-96.1707-37.2227-71.2293-40.6681-164.8469-9.44-256.8437,53.7579-158.4,195.561-258.9853,316.0649-224.283,48.3967,13.9458,87.4988,47.2022,113.0958,96.1744,37.2152,71.2293,40.6607,164.8469,9.4331,256.8437C3121.0022,1850.8157,3008.3071,1944.6882,2900.6309,1944.6882Zm94.1128-542.7263c-86.9451,0-180.0163,81.0414-219.8613,198.4275-26.5877,78.35-24.1547,160.1522,6.5047,218.8234,19.3035,36.9422,48.2,61.8544,83.5508,72.0415,95.97,27.6439,211.1858-59.0354,256.7563-193.2774,26.5875-78.35,24.1547-160.1522-6.5049-218.8234-19.3033-36.9458-48.2-61.8582-83.5506-72.0452A132.8336,132.8336,0,0,0,2994.7437,1401.9619Z"/><ellipse class="cls-1" cx="3002.9949" cy="1692.4504" rx="222.6756" ry="166.1157" transform="translate(245.8026 3761.3287) rotate(-66.288)"/><path class="cls-3" d="M2964.9,1909.2246c-36.5306,0-69.0039-13.9312-94.3532-40.588-66.0175-69.4446-60.5324-204.9613,12.223-302.0936,40.7556-54.3918,95.3148-87.4223,149.6992-90.6129,40.0781-2.3674,75.6473,11.5967,102.9706,40.3332,66.0175,69.4409,60.54,204.9578-12.223,302.0936l-1.77-1.3258,1.77,1.3258c-40.7483,54.3916-95.3075,87.4186-149.6992,90.6127Q2969.18,1909.221,2964.9,1909.2246Zm76.1645-429.1314q-4.13,0-8.3332.2476c-53.0878,3.1141-106.4524,35.5-146.4213,88.8536-71.5316,95.4823-77.1625,228.4461-12.5581,296.3974,26.3982,27.7677,60.8237,41.2508,99.51,38.9673,53.0878-3.1178,106.4524-35.5037,146.414-88.8537h0c71.5317-95.4859,77.1625-228.4495,12.5581-296.3973C3107.7521,1493.5545,3076.3641,1480.0932,3041.0645,1480.0932Z"/><g class="cls-2"><path class="cls-3" d="M2824.0871,1731.3384c3.4094-42.0511,18.3644-83.3159,40.99-119.1545.2992,96.5382,66.9791,158.5105,155.7011,140.5589,57.3349-11.5758,110.6742-53.9177,145.6551-109.3931.0586,6.0884-.2272,12.3731-.7314,18.751-8.7331,107.0758-92.2825,209.3825-186.6287,228.4914S2815.371,1838.3581,2824.0871,1731.3384Z"/></g><path class="cls-3" d="M2961.5348,1931.62a135.6677,135.6677,0,0,1-36.6545-4.9861c-36.3631-10.1688-65.8718-35.1321-85.3354-72.1944-30.23-57.5677-32.2548-138.5543-5.4122-216.6382,45.8108-133.2877,156.6485-216.7291,252.342-189.9667,36.3631,10.1688,65.8718,35.132,85.3353,72.1945,30.23,57.5677,32.2548,138.5543,5.4123,216.6382C3137.1733,1853.19,3047.4092,1931.62,2961.5348,1931.62Zm89.0357-440.178c-64.313,0-138.2848,68.1007-170.6052,162.1152-22.5812,65.7007-21.6489,132.3736,2.4913,178.3483,9.1345,17.3985,26.18,39.86,55.4771,48.0508,68.6179,19.1577,157.2166-53.6487,193.4559-159.0449,22.5812-65.7007,21.6488-132.3737-2.4912-178.3483-9.1346-17.3985-26.18-39.86-55.4771-48.0508A84.632,84.632,0,0,0,3050.5705,1491.4421Z"/><g class="cls-8"><path class="cls-1" d="M2535.8847,919.5266S2208.2,810.8831,1958.2093,923.8214q-.3944.1783-.7877.3565a325.1815,325.1815,0,0,0-131.1363,108.58c-44.0924,62.333-65.3472,111.7481-82.38,155.9716-51.74,134.5188-50.8211,207.2322-50.8211,207.2322-49.1727-100.5071-61.2509-197.7788-19.2651-310.2518q6.2522-16.6144,14.0723-33.7577c1.1881-2.6339,2.4247-5.2176,3.71-7.8032-.0487-.0481.0005-.0967.0986-.1452a806.3811,806.3811,0,0,1,51.2069-82.0582c66.2293-93.1725,176.7655-205.4129,330.4651-218.1093C2360.7649,720.0944,2552.3681,909.7405,2535.8847,919.5266Z"/></g><g class="cls-8"><ellipse class="cls-1" cx="2665.8429" cy="1340.9765" rx="122.2046" ry="104.8704" transform="translate(1050.8648 3850.3155) rotate(-83.9386)"/></g><g class="cls-8"><ellipse class="cls-1" cx="2642.3975" cy="1561.7656" rx="50.4621" ry="43.3042" transform="matrix(0.0213, -0.9998, 0.9998, 0.0213, 1024.7531, 4170.329)"/></g><path class="cls-1" d="M1334.1945,2126.6342s-43.7044-119.6017,13.4147-155.9952c77.2343-49.21,135.0686,208.0854,199.9028,243.3748S1334.1945,2126.6342,1334.1945,2126.6342Z"/><path class="cls-3" d="M1557.7448,2244.3015c-7.59,0-14.9109-2.6951-18.9537-4.1849-6.2645-2.3054-14.8818-5.7072-26.34-10.3947-18.7206-7.663-44.6235-18.6112-77.0021-32.5424-54.9963-23.6667-110.4734-48.1273-111.027-48.3712a24.2266,24.2266,0,0,1-12.9879-13.8547c-5.1573-14.1134-48.3238-139.2062,23.1494-184.7512,15.2388-9.7027,31.898-12.42,48.1638-7.8853,44.3612,12.3833,75.88,76.1317,109.25,143.6242,21.1753,42.8278,47.53,96.1343,67.1028,106.7875,8.3551,4.549,30.5649,16.6373,19.9443,38.2388C1573.9449,2241.3477,1565.6992,2244.3015,1557.7448,2244.3015Zm-203.96-135.5167c42.0668,18.5093,85.9618,37.5832,122.6017,53.2262-9.1271-16.743-18.269-35.2341-27.8405-54.5884-23.3388-47.2058-55.3022-111.8538-78.8305-118.42-1.9593-.5536-4.4507-.8778-9.0834,2.076C1332.7115,2008.8663,1342.6983,2072.6183,1353.7849,2108.7848Z"/><path class="cls-1" d="M2458.3433,2169.52a343.6648,343.6648,0,0,0-28.6458-31.9191c-72.2766-72.1194-164.6918-121.4951-265.0694-140.188-213.26-39.7145-245.4107,99.6088-515.1717,131.01-58.0782,6.76-154.7923,2.9543-211.6971-7.8138l-82.954-18.1257c-52.7681-12.0445-105.3058-23.0458-157.2549-21.5891-37.6308,1.055-75.138,25.2794-94.6045,51.6982-29.5419,40.0927-26.3767,203.6286,100.4271,318.5352,77.137,69.9,344.0935,207.9447,886.3993-30.501Z"/><g class="cls-2"><path class="cls-3" d="M2089.7942,2420.6054c-542.34,238.4947-809.259,100.3951-886.421,30.5015-126.8081-114.8669-129.988-278.4058-100.3948-318.5122.5189-.6488.9728-1.3624,1.5575-2.0117a394.4243,394.4243,0,0,0,117.1385,191.5745c77.7395,70.459,328.6088,203.0724,823.1659,30.9193,40.94-14.2512,73.9807,35.3311,44.9539,67.5285Z"/></g><path class="cls-3" d="M1352.109,2114.2952c-32.3567-3.2962-64.0543-7.8816-95.2092-9.8848-15.5555-1.2018-30.969-1.4168-46.1312-1.18-3.8024.0255-7.5648.2987-11.3344.4589a76.0863,76.0863,0,0,0-9.404,1.1838,98.6444,98.6444,0,0,0-18.4439,5.2155,122.49,122.49,0,0,0-33.9556,20.9242,101.6572,101.6572,0,0,0-13.4431,14.0877l-1.4423,1.85c-.3388.5463-.4589.9761-.7175,1.4567a27.129,27.129,0,0,1-1.526,2.688c-1.0673,2.04-1.8685,5.2737-2.9356,7.805-3.4491,11.9973-4.8987,26.4347-5.0991,40.8576.1968,7.288.3424,14.6341,1.0054,21.9839,1.0269,7.3645,1.2674,14.7653,2.9136,22.0933a323.1183,323.1183,0,0,0,27.4727,85.3316c3.5256,6.6251,6.5522,13.5234,10.4347,19.9517l11.72,19.2268,13.2428,18.2071c4.3051,6.1515,9.67,11.48,14.4266,17.2747,2.4875,2.808,4.7967,5.7765,7.4226,8.457l8.0783,7.8634c5.4524,5.0444,10.5477,10.9993,16.3022,15.21,5.6125,4.56,11.032,9.2837,17.3876,13.2828,6.2026,4.0937,11.99,8.65,18.7279,12.1429,25.4549,15.9125,54.2205,27.0174,82.957,37.31,58.4637,18.8663,120.5585,27.95,183.1013,29.5013,31.3443-.5391,62.7213-.0656,94.0948-3.7805l23.5354-2.0687c3.919-.3717,7.8489-.6229,11.7642-1.0891l11.7094-1.8392,46.8524-7.3317c124.9473-21.3538,246.369-63.7047,364.4-113.0447l.7357-.3059a24.2314,24.2314,0,0,1,18.7753,44.678l-90.5364,38.2426c-7.4955,3.3179-15.2641,5.9839-22.9964,8.7338l-23.1968,8.2786-46.4045,16.5462c-7.6739,2.9246-15.5848,5.2047-23.4919,7.4955l-23.6884,6.9747-47.3988,13.9312c-16.0109,3.9481-32.16,7.4736-48.24,11.2287l-24.1764,5.4123c-4.0356.87-8.0419,1.8648-12.1029,2.6368l-12.2741,1.9486-49.096,7.7542L1663.65,2573.93c-4.1192.499-8.2712.7831-12.4086,1.1838l-24.8394,2.2362c-33.0124,3.908-66.5055,3.5729-99.8711,4.1157-66.8442-1.6682-134.2858-10.8645-199.05-32.2111-32.0109-11.75-63.9087-24.5006-93.3772-43.1958-7.594-4.1046-14.6123-9.5534-21.8419-14.4811-7.2953-4.764-14.1207-10.6642-20.9861-16.4116l-5.1463-4.3122-4.6546-4.5672-9.2256-9.1819-9.2-9.1965c-2.9939-3.1322-5.6708-6.57-8.5153-9.8446-5.4742-6.738-11.5128-13.0206-16.47-20.1629l-15.0893-21.23-13.3521-22.3627c-4.3888-7.4882-7.8852-15.4645-11.8406-23.1821a373.3365,373.3365,0,0,1-30.82-99.2374c-5.2666-34.5931-6.9383-69.7034,3.73-107.6471,1.9158-4.9752,3.2561-9.6407,5.86-14.7908q2.18-3.9554,4.5272-7.8305c.7758-1.2566,1.5808-2.637,2.3638-3.766l2.3055-2.9283a150.3467,150.3467,0,0,1,20.203-20.8112,158.1779,158.1779,0,0,1,49.1-28.46,128.9136,128.9136,0,0,1,28.5106-6.7817,123.9136,123.9136,0,0,1,14.7762-.8122c4.3231.0984,8.6537.0948,12.944.346a369.3684,369.3684,0,0,1,50.684,5.8311c33.118,6.1042,64.7792,15.37,95.5371,26.431a12.2064,12.2064,0,0,1-5.3941,23.6266Z"/><path class="cls-3" d="M2439.19,2184.3663c-12.8131-16.0035-28.995-31.2823-45.1844-45.7634a487.7054,487.7054,0,0,0-51.6091-39.9871,501.1905,501.1905,0,0,0-116.5886-57.4585c-40.9559-13.9858-84.4758-22.2679-126.4733-23.4662-2.6332-.0874-5.2921-.386-7.9035-.3024l-7.8086.4445-15.6176.8267c-5.2555-.0292-10.2818,1.4095-15.4281,2.05l-15.3625,2.48c-20.2249,5.0771-40.293,10.9774-60.2956,19.9261-40.009,16.9652-80.6334,39.9653-124.4265,58.2707-43.651,18.4765-89.7023,32.7938-136.369,41.2909-5.8275,1.1035-11.6111,2.5713-17.4713,3.369l-17.5733,2.4512c-11.8115,1.486-23.1968,3.58-35.3544,4.5381a559.0157,559.0157,0,0,1-71.2037,1.038c-11.7313-.4226-23.4226-1.2457-35.0774-2.3966-11.6586-1.0817-23.2879-2.3419-34.8809-4.1447-23.1821-3.3144-46.3025-7.9-69.0549-15.02a12.199,12.199,0,0,1,4.2249-23.8269l.28.0146c44.6818,2.1744,90.0192,2.1489,134.7629.75,22.3117-.9651,44.7291-1.7774,66.1266-4.4,10.6532-1.2675,21.8383-3.34,32.7283-4.9569l16.4333-2.575c5.4814-.8377,10.8025-2.32,16.2111-3.4455,43.3962-8.7011,85.1824-22.5375,125.6212-40.49,40.6827-17.4349,79.8321-40.1763,124.0038-59.56,21.8019-9.9685,45.6726-17.6134,69.9364-23.4882,6.1553-1.14,12.3687-2.0688,18.553-3.0922,6.2063-.8122,12.3616-2.3965,18.6151-2.4694l18.706-1.0489,9.3531-.4917c3.11-.0874,6.1733.2076,9.2619.2986,49.6241,1.253,97.15,10.8938,142.8046,26.7552a525.5055,525.5055,0,0,1,128.4511,65.5039,538.7956,538.7956,0,0,1,56.2273,45.1589c17.6206,16.3969,34.3308,33.3073,49.69,53.5249a24.2347,24.2347,0,0,1-38.1951,29.8327Z"/><path class="cls-3" d="M1804.1533,3125.3313c-21.4487,16.8012-42.2852,34.8589-62.4263,53.2663q-30.2226,27.6931-58.3472,57.1124a24.3742,24.3742,0,0,1-35.2266-33.697,25.8548,25.8548,0,0,1,3.959-3.34q35.0517-23.7649,71.28-44.9841c24.2094-14.1314,48.568-27.52,73.819-39.8013a6.7222,6.7222,0,0,1,7.0875,11.3344Z"/><path class="cls-3" d="M1274.7973,2943.5194c-1.2346,2.7206-2.7279,7.0548-3.9589,10.7662-1.2639,3.8824-2.44,7.8414-3.5257,11.8332-2.1852,7.991-3.9552,16.1384-5.3429,24.3442a209.0991,209.0991,0,0,0-2.5933,49.61c1.3622,16.4441,5.0079,32.7718,12.1138,47.8176a118.0048,118.0048,0,0,0,30.7433,39.9433l.0765.0692a4.77,4.77,0,0,1-5.4923,7.7505,132.5513,132.5513,0,0,1-41.8773-37.933c-11.2943-15.7048-19.0631-33.8791-24.1074-52.5778a242.6952,242.6952,0,0,1-7.5028-57.3346c-.1385-9.6371.1711-19.2779.987-28.9222q.6065-7.2333,1.5625-14.5066c.7212-5.0154,1.3147-9.3822,2.63-15.2352l.24-1.0707a24.4125,24.4125,0,1,1,47.6356,10.7116A25.7445,25.7445,0,0,1,1274.7973,2943.5194Z"/><path class="cls-1" d="M2599.2511,2777.4473c56.9654-9.7885,126.6893-43.069,126.6893-103.853,0-108.1717-133.4353-103.1168-133.4353-103.1168s-109.231,14.9137-271.92,5.6064c-177.0863-10.131-325.0676-25.0916-390.3166-20.1495-29.7353,2.2522-82.4958,13.2887-85.23,90.291-1.3134,36.9886,27.7867,68.4966,75.5764,88.8224C2102.9318,2812.59,2554.1166,2785.2028,2599.2511,2777.4473Z"/><g class="cls-2"><path class="cls-3" d="M2725.91,2673.5722c0,60.8081-69.6988,94.1-126.6781,103.8995-45.1027,7.7223-496.3282,35.1088-678.6223-42.4426-47.7645-20.3126-76.903-51.7873-75.54-88.7784.6488-18.56,4.2185-33.2919,9.7345-44.9733,12.1356,20.7671,35.1743,38.4187,65.8052,51.4629,182.2941,77.5514,633.52,50.1649,678.6223,42.4423,44-7.5929,95.6582-29.1385,116.8137-66.6486C2722.2111,2640.7992,2725.91,2655.5958,2725.91,2673.5722Z"/></g><path class="cls-3" d="M2350.77,2813.0361c-152.5692,0-335.8562-11.5455-439.6354-55.6883-59.0318-25.1052-91.9494-65.9226-90.3178-111.9811,2.4257-68.1772,40.6463-108.5213,107.618-113.5984,45.68-3.4455,127.5549,2.2691,231.2468,9.51,48.9867,3.4236,104.5,7.3025,162.2864,10.61,158.0835,9.0326,266.1968-5.281,267.2674-5.423.78-.1057,1.5662-.1749,2.3529-.204,3.1906-.1421,78.4225-2.44,124.2844,41.7207,22.7633,21.9112,34.3017,50.7169,34.3017,85.6122,0,75.6617-79.0928,116.1005-146.8147,127.7407h-.0073C2580.5378,2805.253,2476.001,2813.0361,2350.77,2813.0361Zm248.4814-35.5872h0Zm-637.8553-198.2673c-11.1741,0-20.9714.2878-29.2973.918-29.9748,2.2726-60.8894,12.0081-62.8416,66.99-1.2528,35.3686,42.1323,57.6986,60.8457,65.6568,173.0161,73.593,619.9214,48.5715,665.0475,40.8174,39.5754-6.8,106.5544-31.3005,106.5544-79.97,0-21.4487-6.3227-37.9949-19.3252-50.5784-28.649-27.7277-80.4476-28.4342-88.0524-28.3322-14.1243,1.8137-120.14,14.4592-275.1272,5.5943-58.0921-3.3217-113.7733-7.2152-162.8983-10.6461C2074.6664,2583.9237,2006.7914,2579.1816,1961.3958,2579.1816Z"/><path class="cls-3" d="M1635.3223,2568.259a18.1724,18.1724,0,0,1-13.09-30.7834c103.1673-107.1336,47.0346-407.8214,46.4518-410.848a18.1788,18.1788,0,0,1,35.7077-6.8436c2.5129,13.1007,60.2262,322.242-55.98,442.91A18.1072,18.1072,0,0,1,1635.3223,2568.259Z"/><path class="cls-3" d="M1641.3391,3251.9578a18.1047,18.1047,0,0,1-7.5246-1.6427c-190.0759-86.6464-246.6676-223.89-260.668-323.7643-15.093-107.6544,14.4449-193.8238,15.7123-197.4405a18.1765,18.1765,0,0,1,34.3162,11.9973c-.4881,1.4205-28.0517,82.9752-13.8329,181.7865,18.9173,131.474,99.5178,230.5073,239.5509,294.3432a18.1807,18.1807,0,0,1-7.5539,34.7205Z"/><path class="cls-3" d="M2789.8875,2163.0452c-36.7856.51-73.2143,5.7583-109.0784,13.3012q-26.89,5.7471-53.3538,13.0679c-17.4932,4.8769-35.38,10.3109-51.82,16.16l-.23.08a24.3263,24.3263,0,1,1-16.3023-45.84,26.144,26.144,0,0,1,3.8644-1.0271c19.5837-3.5073,38.1114-5.9,57.1779-7.9835q28.42-3.0377,56.9194-4.3523c37.9656-1.65,76.19-.8377,113.7258,4.844a5.9084,5.9084,0,0,1-.8013,11.7495Z"/></svg>