<svg id="Layer_1" data-name="Layer 1" xmlns="http://www.w3.org/2000/svg" width="4000" height="4000" viewBox="0 0 4000 4000"><defs><style>.cls-1{opacity:0.35;}.cls-2{fill:#371a45;}.cls-3{fill:#fff;}.cls-4{fill:#ef962b;}.cls-5{fill:#f9a528;}.cls-6{opacity:0.3;}.cls-7{opacity:0.7;}.cls-8{fill:#111a28;}.cls-9{fill:#fff2bd;}.cls-10{fill:#f9195a;}.cls-11{opacity:0.5;}.cls-12{fill:#102770;}.cls-13{fill:#fce5e5;}</style></defs><title>work-with-us</title><g class="cls-1"><path class="cls-2" d="M3192.3625,3483.6c0,42.45-533.85,76.8-1192.3624,76.8-658.5506,0-1192.3626-34.35-1192.3626-76.8,0-14.1,58.8761-27.3,161.5977-38.6h2061.53C3133.5242,3456.35,3192.3625,3469.5,3192.3625,3483.6Z"/></g><path class="cls-3" d="M2517.2345,2643.2721l-731.7438,84.8662a141.3024,141.3024,0,0,1-156.6726-124.1213l-62.8311-541.5941-11.5955-100.044-7.6274-65.759a141.3133,141.3133,0,0,1,124.1594-156.7111l159.9474-18.53,515.4373-59.7491,56.3205-6.5487A141.22,141.22,0,0,1,2559.34,1779.202l8.6677,74.7346,25.4631,219.6195,47.8843,413.043A141.3024,141.3024,0,0,1,2517.2345,2643.2721Z"/><path class="cls-2" d="M1769.1,2744.5071c-78.4326,0-146.3525-58.96-155.6055-138.7158l-82.0312-707.3877c-9.9512-85.874,51.8066-163.8281,137.6709-173.7842l731.7285-84.8584c85.8887-9.9707,163.833,51.8018,173.7842,137.6709l82.0312,707.3828a156.7685,156.7685,0,0,1-137.6611,173.7842l-731.7383,84.8535A157.8005,157.8005,0,0,1,1769.1,2744.5071Zm650.0635-1074.9853a128.2718,128.2718,0,0,0-14.751.8545l-731.7285,84.8584a126.0914,126.0914,0,0,0-110.6055,139.6191l82.0313,707.3828c8.0029,68.9844,70.6592,118.6328,139.6142,110.6006l731.7383-84.8535a126.0817,126.0817,0,0,0,110.6006-139.6143l-82.0312-707.3877a125.98,125.98,0,0,0-124.8682-111.46Zm98.0762,973.7695h0Z"/><path class="cls-3" d="M2700.9508,2074.7115l-107.48-1.1554L1565.987,2062.4229l-65.6047-.6932s13.4059-40.8347,54.0092-99.3508c27.0047-38.9857,66.1055-85.8293,121.3088-133.5979,41.8363-36.25,92.9949-73.0393,155.1706-107.402,25.2712-13.9453,52.353-27.505,81.3609-40.4491,163.7606-73.0779,306.835-79.6652,434.0764-19.3a471.3968,471.3968,0,0,1,70.6124,41.4893q79.627,56.1663,151.0874,150.8174Q2637.7535,1946.0455,2700.9508,2074.7115Z"/><path class="cls-2" d="M2700.9314,2090.1224h-.166l-1200.5567-12.9981a15.4126,15.4126,0,0,1-14.4726-20.2246c3.1884-9.6924,81.9336-239.0869,420.2148-390.0439,173.3008-77.3291,322.8272-81.9727,457.1387-14.1944,131.8017,66.5088,246.831,202.3389,351.665,415.2442a15.41,15.41,0,0,1-13.8232,22.2168ZM1523.4021,2046.553l1152.4463,12.4756c-98.6573-193.7549-205.6495-317.7978-326.6407-378.8525C2223.695,1616.8362,2082.8113,1621.69,1918.51,1695,1650.4626,1814.6146,1550.5847,1988.1644,1523.4021,2046.553Z"/><path class="cls-3" d="M2353.3051,1955.95s-132.3938,0-163.9212,53.76c-28.543,48.6709,8.3644,67.0366,8.3644,67.0366l128.6616,5.0747Z"/><path class="cls-3" d="M2353.32,1955.9454l-6.6263,31.0107-20.3016,94.8825-128.6283-5.0853a38.1462,38.1462,0,0,1-16.4493-18.6064c-4.3527-10.71-4.8154-26.5038,8.0516-48.4232C2220.9158,1955.9454,2353.32,1955.9454,2353.32,1955.9454Z"/><g class="cls-1"><path class="cls-2" d="M2346.6933,1986.9561l-20.3016,94.8825-128.6283-5.0853a38.1462,38.1462,0,0,1-16.4493-18.6064,86.3865,86.3865,0,0,1,8.0516-17.5662C2216.6784,1994.0446,2319.5349,1987.7654,2346.6933,1986.9561Z"/></g><path class="cls-2" d="M2326.4148,2097.2317c-.2,0-.4053-.0048-.61-.0146l-128.6621-5.0733a15.3347,15.3347,0,0,1-6.26-1.6015,53.1808,53.1808,0,0,1-25.5127-31.3233c-5.1123-17.1777-1.5039-36.455,10.7227-57.3046,34.98-59.6485,162.7588-61.3721,177.2119-61.3721a15.4049,15.4049,0,0,1,15.0684,18.6279l-26.8946,125.8692A15.4073,15.4073,0,0,1,2326.4148,2097.2317Zm-123.8672-35.7129,111.5039,4.3946,20.0635-93.8965c-41.9532,2.5635-112.6319,13.418-131.44,45.4883-7.622,12.998-10.3076,24.3847-7.7685,32.9248A22.6806,22.6806,0,0,0,2202.5476,2061.5188Z"/><path class="cls-3" d="M1654.81,1955.95s132.3939,0,163.9213,53.76c28.543,48.6709-8.3644,67.0366-8.3644,67.0366l-128.6616,5.0747Z"/><path class="cls-3" d="M1826.8258,2058.07a38.1247,38.1247,0,0,1-16.449,18.6835l-128.6667,5.0853-20.3017-95.0363-6.5873-30.8569s132.3649,0,163.9154,53.7783C1831.5645,2031.6045,1831.1793,2047.36,1826.8258,2058.07Z"/><g class="cls-1"><path class="cls-2" d="M1826.8258,2058.07a38.1247,38.1247,0,0,1-16.449,18.6835l-128.6667,5.0853-20.3017-95.0363c27.0818.8093,130.015,7.0495,157.3281,53.5855A86.2189,86.2189,0,0,1,1826.8258,2058.07Z"/></g><path class="cls-2" d="M1681.698,2097.2317a15.4074,15.4074,0,0,1-15.0635-12.1923L1639.74,1959.17a15.4047,15.4047,0,0,1,15.0683-18.6279c14.4531,0,142.2364,1.7236,177.2119,61.3769,12.2266,20.8448,15.835,40.1221,10.7227,57.3a53.18,53.18,0,0,1-25.5127,31.3233,15.3339,15.3339,0,0,1-6.26,1.6015l-128.6621,5.0733C1682.1032,2097.2269,1681.8982,2097.2317,1681.698,2097.2317Zm128.667-20.4834h0Zm-136.3672-104.7314,20.0635,93.8965,111.5087-4.3994a22.47,22.47,0,0,0,7.7393-11.45c2.3633-8.4912-.3613-19.7461-7.8711-32.5537C1786.63,1985.4349,1715.9509,1974.5755,1673.9978,1972.0169Z"/><path class="cls-4" d="M2867.1939,2485.5644l23.8322,155.458a18.6093,18.6093,0,0,1-23.7757,20.6343l-69.6606-21.0426H1202.7767l-69.3471,21.0111a18.6094,18.6094,0,0,1-23.7907-20.63l23.8281-155.431"/><g class="cls-1"><path class="cls-2" d="M2867.1939,2485.5644l23.8322,155.458a18.6093,18.6093,0,0,1-23.7757,20.6343l-69.6606-21.0426H1202.7767l-69.3471,21.0111a18.6094,18.6094,0,0,1-23.7907-20.63l23.8281-155.431"/></g><path class="cls-2" d="M2872.6989,2677.8763a34.301,34.301,0,0,1-9.9072-1.47l-67.4756-20.3808H1205.0622l-67.1631,20.3467a34.0178,34.0178,0,0,1-43.4912-37.71l23.8282-155.43a15.4073,15.4073,0,1,1,30.4589,4.668l-23.8281,155.43a3.2082,3.2082,0,0,0,4.0967,3.55l69.3457-21.0108a15.4015,15.4015,0,0,1,4.4678-.664H2797.5915a15.495,15.495,0,0,1,4.458.6592l69.6534,21.04a3.2024,3.2024,0,0,0,4.0918-3.55l-23.8282-155.4541a15.4073,15.4073,0,0,1,30.459-4.668l23.8281,155.4541a34.0413,34.0413,0,0,1-33.5547,39.1895Z"/><path class="cls-2" d="M2824.2315,2218.3741l-28.8125,456.7545-44.6765,708.9182a64.55,64.55,0,0,1-64.4225,60.49H1314.0656a64.55,64.55,0,0,1-64.4226-60.4905l-44.6763-708.9181-28.8124-456.7545Z"/><g class="cls-1"><path class="cls-2" d="M2824.2315,2218.3741l-28.8125,456.7545-44.7983,710.8523a62.4865,62.4865,0,0,1-62.3627,58.5563H1316.7027a67.3618,67.3618,0,0,1-67.2282-63.1223H2226.814c239.84,0,438.3748-186.4179,453.4588-425.7829l10.26-162.8113a110.7282,110.7282,0,0,0-110.509-117.6921H1204.9667l-28.8124-456.7545Z"/></g><path class="cls-5" d="M2082.1711,2334.6485h13.1376c-2.7446,15.0038-5.1233,30.1174-7.0994,45.1578A403.5326,403.5326,0,0,1,2082.1711,2334.6485Z"/><path class="cls-2" d="M2697.9431,3459.9319H1302.4255a67.8385,67.8385,0,0,1-67.5391-63.2812l-86.1279-1320.6836a15.4068,15.4068,0,0,1,15.376-16.4111h1672.1a15.4068,15.4068,0,0,1,15.376,16.4111l-86.1279,1320.6836A67.8385,67.8385,0,0,1,2697.9431,3459.9319ZM1180.58,2090.3763l85.0586,1304.2724a36.9455,36.9455,0,0,0,36.7871,34.4629H2697.9431a36.9455,36.9455,0,0,0,36.7871-34.4629l85.0586-1304.2724Z"/><path class="cls-4" d="M2907.626,2485.5589H1092.386a25.1554,25.1554,0,0,1-24.5391-30.6256l88.5256-393.165a42.17,42.17,0,0,1,41.1813-32.9373H2802.4582a42.17,42.17,0,0,1,41.1813,32.9373l88.4875,393.165A25.112,25.112,0,0,1,2907.626,2485.5589Z"/><g class="cls-6"><path class="cls-3" d="M2833.8982,2042.8537a42.195,42.195,0,0,0-31.4392-14.0386H1197.5512a42.2261,42.2261,0,0,0-41.1951,32.9525l-2.9144,12.9464h1615.37a47.76,47.76,0,0,1,46.6177,37.3755l39.6681,178.0711c17.0854,76.6968-41.2694,149.4815-119.8461,149.4815H1071.3034l-3.44,15.2834a25.0238,25.0238,0,0,0,7.0343,23.54H2925.1094a25.3692,25.3692,0,0,0,5.189-7.2009Z"/></g><path class="cls-2" d="M2907.6355,2500.972H2082.1716a15.8,15.8,0,0,1-1.67-.0879,15.6408,15.6408,0,0,1-1.6651.0879H1092.3718a40.5316,40.5316,0,0,1-39.541-49.4287l88.4912-393.1592a57.3182,57.3182,0,0,1,56.2256-44.9805H2802.46a57.3183,57.3183,0,0,1,56.2256,44.9805l88.4912,393.1592a40.5316,40.5316,0,0,1-39.541,49.4287ZM1197.5476,2044.2239a26.6644,26.6644,0,0,0-26.1572,20.9278l-88.4913,393.1591a9.7066,9.7066,0,0,0,9.4727,11.8409h986.4648a15.6408,15.6408,0,0,1,1.6651.0879,15.8,15.8,0,0,1,1.67-.0879h825.4639a9.7064,9.7064,0,0,0,9.4726-11.8409l-88.4912-393.1591a26.6645,26.6645,0,0,0-26.1572-20.9278Z"/><g class="cls-1"><path class="cls-2" d="M1505.2362,2252.8416c-208.5243-9.7079-208.91-184.4089-206.2516-224.0106h467.2446C1775.5519,2200.181,1693.6907,2261.5864,1505.2362,2252.8416Z"/></g><g class="cls-1"><path class="cls-2" d="M2499.633,2252.8416c208.5243-9.7079,208.91-184.4089,206.2516-224.0106H2238.64C2229.3173,2200.181,2311.1786,2261.5864,2499.633,2252.8416Z"/></g><path class="cls-3" d="M1308.2648,2028.8154s-26.2712,184.9716,181.6338,194.1068c169.0831,7.43,241.0679-45.6308,230.1853-194.1068-7.0188-95.7612-199.1175-88.6524-199.1175-88.6524S1321.2838,1943.8149,1308.2648,2028.8154Z"/><path class="cls-2" d="M1519.4128,2239.0042q-14.5312,0-30.1953-.6885c-69.7168-3.0615-122.31-25.3808-156.3086-66.3379-51.1084-61.5527-40.3808-141.9384-39.8975-145.332.0049-.0537.0147-.1074.0245-.166,14.56-95.0879,205.8789-101.3281,227.6464-101.7236,8.1836-.3321,206.7579-6.3916,214.7657,102.93,5.2783,71.9825-8.4326,123.73-41.9141,158.2032C1658.5779,2221.8851,1602.821,2239.0042,1519.4128,2239.0042Zm-195.8984-207.9834c-.3321,2.6074-8.54,71.3379,33.2861,121.4893,28.2227,33.8476,73.2324,52.3584,133.7695,55.0146,90.9668,4.0137,148.418-9.6973,180.8594-43.1055,26.9922-27.7978,37.8809-71.7822,33.2862-134.4775-5.7569-78.584-181.3721-74.4678-183.1885-74.38C1472.8454,1956.48,1332.7087,1972.31,1323.5144,2031.0208Z"/><g class="cls-1"><path class="cls-2" d="M1489.9238,2222.9229c169.0462,7.4307,241.0257-45.6451,230.1787-194.1054a66.9586,66.9586,0,0,0-3.5045-17.098c-18.245,89.4705-91.3371,122.3017-226.6742,116.35-117.1475-5.1181-159.9236-66.1172-174.9979-118.359a55.0147,55.0147,0,0,0-6.6751,19.1074S1281.9953,2213.7864,1489.9238,2222.9229Z"/></g><path class="cls-3" d="M2699.85,2028.8154s26.2712,184.9716-181.6339,194.1068c-169.083,7.43-241.0678-45.6308-230.1852-194.1068,7.0188-95.7612,199.1175-88.6524,199.1175-88.6524S2686.8313,1943.8149,2699.85,2028.8154Z"/><path class="cls-2" d="M2488.7,2239.0042c-83.4179,0-139.16-17.1143-174.1211-53.1152-33.4814-34.4727-47.1924-86.2207-41.914-158.2032,8.0127-109.3115,206.6064-103.2177,215.0537-102.9248,21.4795.3907,212.7978,6.6309,227.3633,101.7188.01.0537.0195.1123.0244.166.4834,3.3936,11.2109,83.7744-39.8975,145.332-34.0039,40.9571-86.5967,63.2764-156.3183,66.3379Q2503.2385,2239.0042,2488.7,2239.0042Zm-7.5244-283.4912c-30.43,0-172.6025,3.8525-177.7783,74.4287-4.5947,62.69,6.2939,106.68,33.291,134.4775,32.4365,33.4082,89.9268,47.1045,180.85,43.1055,60.542-2.6562,105.5518-21.167,133.7793-55.0146,41.836-50.1661,33.6133-118.9161,33.2813-121.4942-9.1944-58.7109-149.3311-74.5361-197.7393-75.4492C2486.654,1955.5618,2484.6325,1955.513,2481.1755,1955.513Z"/><g class="cls-1"><path class="cls-2" d="M2518.1913,2222.9229c-169.0462,7.4307-241.0257-45.6451-230.1787-194.1054a66.9629,66.9629,0,0,1,3.5044-17.098c18.2451,89.4705,91.3372,122.3017,226.6743,116.35,117.1475-5.1181,159.9235-66.1172,174.9979-118.359a55.0147,55.0147,0,0,1,6.6751,19.1074S2726.12,2213.7864,2518.1913,2222.9229Z"/></g><g class="cls-6"><path class="cls-3" d="M1673.3836,2364.8889s-52.5579-17.3861-11.9355-49.55,394.4672-44.7765,441.766-17.3861c63.3678,36.6959-18.0568,55.5178-113.1006,63.6313S1759.6828,2382.7369,1673.3836,2364.8889Z"/></g><g class="cls-6"><path class="cls-3" d="M2324.9338,2365.0611s-141.2617.2706-125.6142-43.0645c21.2894-58.96,108.3958-45.7359,147.7814-31.2609C2397.9551,2309.4257,2394.8486,2369.8627,2324.9338,2365.0611Z"/></g><path class="cls-3" d="M2528.0511,1209.7327h0a11.6929,11.6929,0,0,1-15.3333-6.1915L2381.054,893.534a11.6928,11.6928,0,0,1,6.1914-15.3333h0a122.6706,122.6706,0,0,1,160.8631,64.9553l44.8978,105.7136A122.6706,122.6706,0,0,1,2528.0511,1209.7327Z"/><path class="cls-2" d="M2523.48,1213.4378a14.4962,14.4962,0,0,1-13.3105-8.8135L2378.5046,894.6194a14.4856,14.4856,0,0,1,7.6563-18.97,125.5832,125.5832,0,0,1,164.497,66.4209l44.8975,105.7129a125.5878,125.5878,0,0,1-66.4209,164.4971A14.4641,14.4641,0,0,1,2523.48,1213.4378Zm-88.4473-342.2315a119.2339,119.2339,0,0,0-46.7041,9.5411,8.9339,8.9339,0,0,0-4.7265,11.7041l131.665,310.0048a8.9159,8.9159,0,0,0,11.6992,4.7266h0a119.8988,119.8988,0,0,0,63.4912-157.2314L2545.56,944.2386A120.09,120.09,0,0,0,2435.0329,871.2063Z"/><g class="cls-1"><path class="cls-2" d="M2571.9527,999.2988l21.0683,49.576a122.725,122.725,0,0,1-64.9672,160.8826,11.7188,11.7188,0,0,1-15.345-6.2138l-35.028-82.4a11.7144,11.7144,0,0,0,12.5041,2.2261l7.3428-3.1431A122.5736,122.5736,0,0,0,2571.9527,999.2988Z"/></g><path class="cls-2" d="M2523.48,1226.0843a27.15,27.15,0,0,1-24.9463-16.5235l-131.665-310a27.1419,27.1419,0,0,1,14.3506-35.5444c70.0781-29.7681,151.3086,3.042,181.0742,73.1128l44.8974,105.7129a138.0875,138.0875,0,0,1-73.1152,181.0742h0A27.1022,27.1022,0,0,1,2523.48,1226.0843Zm-1.4551-30.5371ZM2396.7126,890.9866l128.711,303.0518a107.2673,107.2673,0,0,0,53.3984-139.1455L2533.9245,949.18A107.4,107.4,0,0,0,2396.7126,890.9866Z"/><path class="cls-3" d="M1363.9842,1312.7919h0a11.6929,11.6929,0,0,1,15.3333,6.1915l131.6638,310.0072a11.6929,11.6929,0,0,1-6.1915,15.3333h0a122.6706,122.6706,0,0,1-160.8632-64.9554l-44.8978-105.7135A122.6705,122.6705,0,0,1,1363.9842,1312.7919Z"/><path class="cls-2" d="M1456.8493,1656.9192a125.7285,125.7285,0,0,1-115.4736-76.4648l-44.8975-105.7178a125.4451,125.4451,0,0,1,66.4209-164.4922h0a14.49,14.49,0,0,1,18.97,7.6563l131.66,310.0049a14.4649,14.4649,0,0,1-7.6562,18.9648A125.1938,125.1938,0,0,1,1456.8493,1656.9192Zm-91.7822-341.5771a119.8958,119.8958,0,0,0-63.4912,157.2266l44.8975,105.7177a119.9022,119.9022,0,0,0,157.2314,63.4864,8.9117,8.9117,0,0,0,4.7266-11.6993l-131.66-310.0048a8.9331,8.9331,0,0,0-11.7041-4.7266Z"/><g class="cls-1"><path class="cls-2" d="M1474.48,1542.9779l36.5161,86.0061a11.72,11.72,0,0,1-6.2134,15.3456,122.6194,122.6194,0,0,1-160.8361-64.9465l-18.9212-44.544a122.7161,122.7161,0,0,0,131.0243,22.63l11.3122-4.8067A11.8273,11.8273,0,0,0,1474.48,1542.9779Z"/></g><path class="cls-2" d="M1456.8493,1669.5657a138.4131,138.4131,0,0,1-127.1093-84.17l-44.8975-105.7178a138.0842,138.0842,0,0,1,73.1152-181.0693h.0049a27.1555,27.1555,0,0,1,35.5371,14.3457l131.6651,310.01a27.1366,27.1366,0,0,1-14.3555,35.542A137.79,137.79,0,0,1,1456.8493,1669.5657Zm-90.2343-341.0791a107.26,107.26,0,0,0-53.4034,139.1406l44.8975,105.7178a107.2587,107.2587,0,0,0,137.2119,58.1885Zm3.3886-1.5088h0Z"/><g class="cls-1"><path class="cls-2" d="M2450.6282,1657.7005a558.3008,558.3008,0,0,1-33.7076,45.4187,570.9271,570.9271,0,0,1-256.8327,178.0144c-167.7286,57.5921-343.7788,32.9759-484.3876-52.3526a571.0316,571.0316,0,0,1-78.6636-57.3607,140.6967,140.6967,0,0,1,73.8868-31.5115l159.9474-18.53c25.2712-13.9453,52.353-27.505,81.3609-40.4491,163.7606-73.0779,306.835-79.6652,434.0764-19.3l56.3205-6.5487A140.4313,140.4313,0,0,1,2450.6282,1657.7005Z"/></g><circle class="cls-3" cx="1946.082" cy="1261.235" r="573.9486" transform="translate(-321.8336 1745.495) rotate(-45)"/><path class="cls-2" d="M1945.5945,1838.2522a574.48,574.48,0,0,1-252.837-58.916c-138.3886-67.666-242.1435-185.1709-292.1533-330.874-103.2373-300.7764,57.4707-629.4678,358.2471-732.7051,300.7666-103.24,629.4678,57.4683,732.71,358.2471,103.2373,300.7764-57.4756,629.4727-358.252,732.71A577.5472,577.5472,0,0,1,1945.5945,1838.2522Zm.0048-1148.24a568.7551,568.7551,0,0,0-184.9511,30.979c-297.8858,102.2485-457.0508,427.7832-354.81,725.6738,102.2461,297.8858,427.7637,457.0655,725.6738,354.8145,297.8907-102.251,457.0606-427.7881,354.8145-725.6787C2405.0866,839.1312,2182.88,690.0125,1945.5993,690.0125Z"/><g class="cls-1"><path class="cls-2" d="M2457.9473,1001.5444a570.4119,570.4119,0,0,1,31.0081,73.3624c102.8632,299.8194-56.75,626.2785-356.5441,729.21-299.8192,102.8644-626.2776-56.7492-729.21-356.5432-2.9648-8.62-5.7261-17.3177-8.23-25.9566,127.3019,251.6978,423.8813,377.327,698.2023,283.18C2384.3478,1604.8309,2543.2523,1294.0428,2457.9473,1001.5444Z"/></g><path class="cls-2" d="M1946.5808,1850.64c-244.8535,0-474.1113-153.8525-557.9346-398.0712-105.498-307.3731,58.7354-643.2666,366.0986-748.77,307.378-105.5029,643.2666,58.7329,748.7745,366.0987v.0048c105.498,307.3682-58.7354,643.2666-366.1036,748.77A586.9909,586.9909,0,0,1,1946.5808,1850.64Zm-.9717-1147.9858A556.1033,556.1033,0,0,0,1764.7546,732.95c-291.2988,99.9854-446.9385,418.3154-346.958,709.6094,48.4326,141.1133,148.9209,254.917,282.9492,320.4492,134.0186,65.5274,285.542,74.9512,426.66,26.5137,291.2988-99.9854,446.9433-418.32,346.9629-709.6192C2394.93,848.472,2177.64,702.6541,1945.6091,702.6541Z"/><path class="cls-2" d="M2491.9928,1089.4436c38.0626,105.667,39.0992,216.1238,9.6742,318.4226-22.06,76.6937-164.4892,248.3148-387.0123,330.7371-206.3266,76.423-434.4173,33.9-500.3164-11.11-87.9-60.0366-157.5385-145.7824-195.601-251.4494-100.7245-279.6255,97.7631-482.0853,394.1472-588.8466S2391.2683,809.8181,2491.9928,1089.4436Z"/><path class="cls-2" d="M1868.5632,1796.4017c-120.3564,0-221.1035-27.6221-262.915-56.1817-93.8233-64.082-163.4668-153.6279-201.4063-258.9551-49.4726-137.3339-32.539-263.0664,50.3223-373.706,72.2412-96.4551,194.3408-177.6709,353.0957-234.8584,158.7646-57.1875,304.5947-72.49,421.7627-44.2554,134.38,32.3853,227.5976,118.44,277.0654,255.7788v-.0049c37.9443,105.3272,41.3965,218.711,9.99,327.9053-21.7871,75.7471-160.4492,253.5059-396.47,340.9278C2035.1843,1784.473,1947.6355,1796.3968,1868.5632,1796.4017Zm237.4414-950.9595c-86.7285,0-184.248,18.916-287.8955,56.2524-156.9922,56.5528-508.76,225.21-384.873,569.1309,35.7275,99.1846,101.3574,183.54,189.7949,243.9453,62.7783,42.8809,285.1123,83.8818,486.2744,9.3848,222.9394-82.5782,357.9053-252.2315,377.5537-320.5469,29.6045-102.9248,26.3672-209.7559-9.3652-308.94v-.0049c-45.7325-126.9629-131.626-206.4551-255.293-236.2573C2186.2683,849.7464,2147.3572,845.4422,2106.0046,845.4422Z"/><g class="cls-7"><ellipse class="cls-3" cx="2303.9028" cy="1114.2806" rx="73.6002" ry="101.5707" transform="translate(-152.803 397.2128) rotate(-9.5391)"/></g><g class="cls-7"><ellipse class="cls-3" cx="2287.2636" cy="1334.1314" rx="40.0073" ry="46.6202" transform="translate(-36.2891 64.2557) rotate(-1.5968)"/></g><g class="cls-1"><path class="cls-8" d="M2293.6548,866.1739c88.15,38.9686,157.8565,110.954,198.3259,223.2559,38.0714,105.688,39.0849,216.1458,9.7013,318.4318-22.0738,76.698-164.5219,248.32-387.0321,330.7634-78.5623,29.124-160.265,40.962-235.0119,41.9686,271.3584-107.1722,444.506-317.2107,471.8584-412.33,37.3521-129.8378,36.0246-270.0417-12.2926-404.1174A581.0457,581.0457,0,0,0,2293.6548,866.1739Z"/></g><path class="cls-2" d="M1373.27,1238.4476a15.4259,15.4259,0,0,1-14.7656-19.8145c44.7119-173.4814,199.9121-319.6338,425.8985-401.0425,224.5751-80.8911,436.4941-69.8242,581.4746,30.3467a15.4059,15.4059,0,0,1-13.4571,27.4634,16.3271,16.3271,0,0,1-3.7744-1.9092c-136.6894-94.6338-338.54-104.4385-553.7988-26.9067-216.4356,77.9712-364.6387,216.54-406.6113,380.188-.0538.2-.1075.4-.1661.6005a17.8169,17.8169,0,0,1-.7128,1.9239A15.4077,15.4077,0,0,1,1373.27,1238.4476Z"/><g class="cls-7"><path class="cls-3" d="M1599.1735,1598.98s-185.97-244.6555-76.9011-408.1332,323.1155-240.0792,323.055-224.56c0,0-216.1394,142.6185-241.3577,363.1879C1584.5233,1499.5607,1599.1735,1598.98,1599.1735,1598.98Z"/></g><path class="cls-9" d="M1645.6479,3136.0139l-19.5186,3.0138a9.0739,9.0739,0,0,0-7.5829,7.583l-3.0138,19.5186-3.0138-19.5186a9.0741,9.0741,0,0,0-7.5829-7.583l-19.5187-3.0138L1604.9359,3133a9.0739,9.0739,0,0,0,7.5829-7.5829l3.0138-19.5181,3.0138,19.5181a9.0737,9.0737,0,0,0,7.5829,7.5829Z"/><path class="cls-9" d="M1525.4006,3289.12l-18.3134,2.8277a8.5135,8.5135,0,0,0-7.1146,7.1147l-2.8278,18.3134-2.8277-18.3134a8.5136,8.5136,0,0,0-7.1146-7.1147l-18.3134-2.8277,18.3134-2.8277a8.5137,8.5137,0,0,0,7.1147-7.1147l2.8276-18.3129,2.8277,18.3129a8.5137,8.5137,0,0,0,7.1147,7.1147Z"/><path class="cls-9" d="M1453.4928,3064.701l-13.6574,2.1088a6.349,6.349,0,0,0-5.3058,5.3058l-2.1088,13.6573-2.1087-13.6573a6.3491,6.3491,0,0,0-5.3059-5.3058l-13.6573-2.1088,13.6574-2.1088a6.349,6.349,0,0,0,5.3058-5.3058l2.1087-13.657,2.1088,13.657a6.349,6.349,0,0,0,5.3058,5.3058Z"/><path class="cls-9" d="M2559.7731,3176.01l19.5186,3.0138a9.0737,9.0737,0,0,1,7.5829,7.5829l3.0138,19.5186,3.0138-19.5186a9.0739,9.0739,0,0,1,7.5829-7.5829l19.5187-3.0138-19.5187-3.0138a9.074,9.074,0,0,1-7.5829-7.5829l-3.0138-19.5181-3.0138,19.5181a9.0739,9.0739,0,0,1-7.5829,7.5829Z"/><path class="cls-9" d="M2347.3563,3296.5967l18.3134,2.8277a8.5136,8.5136,0,0,1,7.1147,7.1146l2.8277,18.3134,2.8277-18.3134a8.5135,8.5135,0,0,1,7.1147-7.1146l18.3134-2.8277-18.3135-2.8278a8.5133,8.5133,0,0,1-7.1146-7.1146l-2.8277-18.3129-2.8277,18.3129a8.5135,8.5135,0,0,1-7.1147,7.1146Z"/><path class="cls-9" d="M2444.2309,3024.6844l13.6574,2.1087a6.3491,6.3491,0,0,1,5.3058,5.3059l2.1088,13.6573,2.1087-13.6573a6.3491,6.3491,0,0,1,5.3059-5.3059l13.6573-2.1087-13.6574-2.1088a6.349,6.349,0,0,1-5.3058-5.3058l-2.1087-13.657-2.1088,13.657a6.349,6.349,0,0,1-5.3058,5.3058Z"/><path class="cls-9" d="M1466.2314,2621.1925l-13.7889,2.1291a6.41,6.41,0,0,0-5.3569,5.3569l-2.1291,13.7888-2.1291-13.7888a6.41,6.41,0,0,0-5.3569-5.3569l-13.7889-2.1291,13.7889-2.1291a6.41,6.41,0,0,0,5.3569-5.3569l2.1291-13.7886,2.1291,13.7886a6.41,6.41,0,0,0,5.3569,5.3569Z"/><path class="cls-9" d="M1383.0115,2749.6694l-14.3115,2.21a6.6531,6.6531,0,0,0-5.56,5.56l-2.21,14.3116-2.21-14.3116a6.6531,6.6531,0,0,0-5.56-5.56l-14.3115-2.21,14.3116-2.21a6.6532,6.6532,0,0,0,5.56-5.56l2.21-14.3112,2.21,14.3112a6.6532,6.6532,0,0,0,5.56,5.56Z"/><path class="cls-9" d="M2532.04,2593.6572l13.7889,2.129a6.41,6.41,0,0,1,5.3569,5.357l2.1291,13.7888,2.1291-13.7888a6.41,6.41,0,0,1,5.3569-5.357l13.7889-2.129-13.7889-2.1291a6.41,6.41,0,0,1-5.3569-5.3569l-2.1291-13.7886-2.1291,13.7886a6.41,6.41,0,0,1-5.3569,5.3569Z"/><path class="cls-9" d="M2615.26,2722.1133l14.3115,2.21a6.6531,6.6531,0,0,1,5.56,5.56l2.21,14.3115,2.21-14.3116a6.6531,6.6531,0,0,1,5.56-5.56l14.3115-2.21-14.3116-2.21a6.6531,6.6531,0,0,1-5.56-5.56l-2.21-14.3113-2.21,14.3113a6.6531,6.6531,0,0,1-5.56,5.56Z"/><path class="cls-9" d="M1912.4151,3316.0877l17.0421,2.6314a7.9227,7.9227,0,0,1,6.6208,6.6208l2.6314,17.0421,2.6315-17.0421a7.9227,7.9227,0,0,1,6.6207-6.6208l17.0421-2.6314-17.0421-2.6314a7.9227,7.9227,0,0,1-6.6208-6.6208l-2.6314-17.0416-2.6314,17.0416a7.9225,7.9225,0,0,1-6.6207,6.6208Z"/><path class="cls-9" d="M2062.4151,3221.0877l17.0421,2.6314a7.9227,7.9227,0,0,1,6.6208,6.6208l2.6314,17.0421,2.6315-17.0421a7.9227,7.9227,0,0,1,6.6207-6.6208l17.0421-2.6314-17.0421-2.6314a7.9227,7.9227,0,0,1-6.6208-6.6208l-2.6314-17.0416-2.6314,17.0416a7.9225,7.9225,0,0,1-6.6207,6.6208Z"/><path class="cls-3" d="M1897.68,2613.3359a14.9914,14.9914,0,0,1,1.0742-2.8808,3.75,3.75,0,0,1,2.6367-1.6113l28.8086-6.6407a1.599,1.599,0,0,0,.4883-.0976,1.6217,1.6217,0,0,1,.4883-.0977,1.9234,1.9234,0,0,1,1.9043,1.1719,5.399,5.399,0,0,1,.5371,2.2461c0,.1308-.0166.3906-.0488.7812a2.5423,2.5423,0,0,1-.1465.7813l-40.43,122.8515q-1.563,4.005-2.5879,6.4942a26.6038,26.6038,0,0,1-2.0508,4.1015,11.1237,11.1237,0,0,1-2.3437,2.6856,18.3728,18.3728,0,0,1-3.5157,2.1484q-2.1972,1.0739-5.5175,2.49t-8.3985,3.8574a6.7712,6.7712,0,0,1-2.7343.8789,2.6282,2.6282,0,0,1-2.3438-1.1719,10.9353,10.9353,0,0,1-1.27-2.6367l-16.6992-59.4727-20.8985,43.0665a12.57,12.57,0,0,1-2.2461,3.125q-1.7578,1.954-3.9551,4.0039t-4.3945,3.955q-2.1972,1.9044-3.5644,3.0762-1.27,1.0737-2.6856,2.1484a32.1733,32.1733,0,0,1-2.8808,1.9532,20.4941,20.4941,0,0,1-2.7833,1.416,6.6246,6.6246,0,0,1-2.49.5371q-2.5407,0-3.32-2.832L1758.4219,2616.07q-.1971-.7808-.4395-1.5625a4.91,4.91,0,0,1-.2441-1.4648,6.9362,6.9362,0,0,1,1.1719-4.1016,8.9288,8.9288,0,0,1,4.1015-2.832,35.9911,35.9911,0,0,1,7.8125-1.9043q4.8823-.7324,12.4024-1.2207,3.5156-.4878,5.9082-.6836t4.0527-.1953q2.8315,0,3.7109.8789a7.559,7.559,0,0,1,1.5625,2.93l20.1172,77.4414,16.6992-28.711-6.7382-29.3945a11.885,11.885,0,0,1-.4883-3.5156,5.3615,5.3615,0,0,1,1.1719-3.6133,8.472,8.472,0,0,1,3.9062-2.2461,48.1323,48.1323,0,0,1,7.1777-1.5625q4.443-.6827,10.8887-1.5625,2.8316-.39,4.8828-.5859t3.5157-.1953q2.93,0,4.0039.8789a5.1583,5.1583,0,0,1,1.5625,2.832l13.2812,60.1562Z"/><path class="cls-3" d="M1981.8594,2750.9336q-13.77,0-24.17-4.4922a51.7338,51.7338,0,0,1-17.4317-11.9629,49.2612,49.2612,0,0,1-10.5469-17.1875,58.8188,58.8188,0,0,1-3.5156-20.166,57.8075,57.8075,0,0,1,3.418-19.873,56.8173,56.8173,0,0,1,9.57-16.8946,54.7361,54.7361,0,0,1,14.7461-12.5,55.5851,55.5851,0,0,1,18.9453-6.7871q1.5615-.0966,1.5625-.6836a7.88,7.88,0,0,0-.2441-2.0019,6.4436,6.4436,0,0,1-.2442-1.6114,2.0786,2.0786,0,0,1,.3906-1.4648,1.2148,1.2148,0,0,1,.879-.3906q18.6517,0,31.7382,4.248t21.2891,11.5723a43.0711,43.0711,0,0,1,11.9141,17.2851,60.7779,60.7779,0,0,1,3.7109,21.3868,65.5433,65.5433,0,0,1-4.8828,25.9765,56.5554,56.5554,0,0,1-13.33,19.336,57.6318,57.6318,0,0,1-19.7266,12.0605A69.1643,69.1643,0,0,1,1981.8594,2750.9336Zm-18.0664-54.8828a49.1174,49.1174,0,0,0,1.123,10.4492,29.6985,29.6985,0,0,0,3.711,9.375,20.4815,20.4815,0,0,0,6.7871,6.7871,19.5768,19.5768,0,0,0,10.4492,2.5879,18.083,18.083,0,0,0,7.8613-2.002,19.8166,19.8166,0,0,0,5.8106-4.6875,26.9655,26.9655,0,0,0,4.0527-6.4941,43.0034,43.0034,0,0,0,2.5391-7.4707,58.6829,58.6829,0,0,0,1.3183-7.5684,65.0319,65.0319,0,0,0,.3906-6.7382,33.4717,33.4717,0,0,0-1.5136-9.961,26.293,26.293,0,0,0-4.4434-8.5937,22.5848,22.5848,0,0,0-7.2754-6.0059,21.1281,21.1281,0,0,0-10.01-2.2949,14.5411,14.5411,0,0,0-9.8633,3.4668,25.5265,25.5265,0,0,0-6.3965,8.5449,44.6457,44.6457,0,0,0-3.4668,10.6934A53.472,53.472,0,0,0,1963.793,2696.0508Z"/><path class="cls-3" d="M2136.2539,2666.3633q-2.0508-.1948-4.59-.4395-2.54-.2431-5.3711-.2441a53.67,53.67,0,0,0-8.74.7324,24.9049,24.9049,0,0,0-8.2519,2.8809,20.5212,20.5212,0,0,0-6.543,5.9082,20.8877,20.8877,0,0,0-3.5156,9.7168q-.6842,7.2274-1.1231,11.8652t-.6347,7.6172q-.1963,2.9795-.3418,4.7851-.1466,1.8077-.2442,3.3692,0,.391-.1464,2.1484t-.4395,4.1016q-.293,2.3438-.5371,5.0781t-.5371,5.0781q-.293,2.3438-.4395,4.1016t-.1465,2.1484q0,.7822.0489,1.3184t.0488,1.0254a1.5887,1.5887,0,0,1-.7324,1.3183,11.6063,11.6063,0,0,1-3.2715,1.2208l-25.8789,9.2773q-1.0752.39-2.832.9766a10.7824,10.7824,0,0,1-3.418.5859,4.2155,4.2155,0,0,1-2.3926-.6836,2.6067,2.6067,0,0,1-1.0254-2.3437l8.3985-96.7774a20.6273,20.6273,0,0,1,.7324-4.4434,2.72,2.72,0,0,1,2.1972-1.6113q8.8858-1.7578,18.3594-3.5644a157.5705,157.5705,0,0,0,18.3594-4.6387q.7808,0,.9277.2441a1.454,1.454,0,0,1,.1465.7325,5.242,5.242,0,0,1-.0488.5859q-.05.3911-.293,1.7578t-.6836,4.15q-.4393,2.7832-1.2207,7.7637a70.1657,70.1657,0,0,1,9.9121-6.4453,93.0537,93.0537,0,0,1,10.8887-5.0293,84.9218,84.9218,0,0,1,10.5469-3.32,38.7155,38.7155,0,0,1,8.8867-1.2207Z"/><path class="cls-3" d="M2197.2891,2597.6133l-3.5157,33.8867q-.684,6.8364-1.416,13.8672t-1.416,13.4766q-.684,6.4452-1.27,11.914t-.9766,8.9844l6.7383-7.4219,10.9375-12.793q2.0508-2.3437,4.0039-4.6875t3.5156-4.15q1.5615-1.8061,2.5391-3.0274.9756-1.22,1.1719-1.416l39.2578-2.7344a2.0123,2.0123,0,0,1,.6347-.0976h.6348q1.66,0,1.66.8789,0,.684-2.0508,3.0273l-30.5664,34.18q-2.0508,2.247-4.834,5.2246-2.7832,2.9795-6.2012,6.5918l14.2578,16.9922,24.6094,26.4648a1.7834,1.7834,0,0,0,.8789.7325q.5859.2445,1.1231.4394a6.9626,6.9626,0,0,1,.9765.4395.7894.7894,0,0,1,.4395.7324.97.97,0,0,1-.1465.5859,6.056,6.056,0,0,1-.9277.7813,29.9938,29.9938,0,0,1-3.0762,1.9531q-2.1973,1.27-5.127,2.832t-6.25,3.1739q-3.3207,1.6113-6.4453,2.93t-5.7617,2.1485a14.7979,14.7979,0,0,1-4.1016.83,4.9058,4.9058,0,0,1-2.2949-.586,9.2565,9.2565,0,0,1-2.49-2.1484q-1.8559-2.1489-4.6387-5.6152t-6.0058-7.6172q-3.2228-4.15-6.5918-8.5938t-6.4454-8.4961q-3.076-4.0516-5.5664-7.3242-2.49-3.271-3.8574-5.2246a3.8128,3.8128,0,0,1-.9765.7324,4.2915,4.2915,0,0,0-.9278.6348,3.4343,3.4343,0,0,0-.7324.9277,3.2055,3.2055,0,0,0-.293,1.5137q0,.391-.1953,2.1973t-.4394,4.2968q-.2447,2.49-.5371,5.3223t-.5372,5.3223q-.2445,2.49-.4394,4.2968t-.1953,2.1973a10.3489,10.3489,0,0,0,.0488,1.123,7.6323,7.6323,0,0,1,.0488.83,1.8674,1.8674,0,0,1-.7324,1.6114,13.4587,13.4587,0,0,1-3.5644,1.3183l-25.586,8.3008q-1.0752.39-2.832.9766a10.7819,10.7819,0,0,1-3.418.5859,4.2155,4.2155,0,0,1-2.3926-.6836,2.8338,2.8338,0,0,1-1.0253-2.5391l12.3046-140.7226a4.3142,4.3142,0,0,0-.0976-.9278,4.2437,4.2437,0,0,1-.0977-.9277,2.24,2.24,0,0,1,.7324-1.6113,8.1624,8.1624,0,0,1,3.3692-1.416l27.4414-6.543a16.3587,16.3587,0,0,0,2.832-.8789,9.4116,9.4116,0,0,1,3.418-.6836,5.1022,5.1022,0,0,1,2.3926.5859,2.2958,2.2958,0,0,1,1.123,2.2461,1.617,1.617,0,0,1-.0488.3907A1.5792,1.5792,0,0,0,2197.2891,2597.6133Z"/><path class="cls-3" d="M1698.07,2886.4414a1.9492,1.9492,0,0,1,1.66-1.3672q7.91-1.7578,16.2109-3.6133a132.7172,132.7172,0,0,0,15.918-4.59q1.3667,0,1.3672.9766l9.9609,66.6015,18.6523-66.6015a1.4483,1.4483,0,0,1,1.4649-.9766,1.024,1.024,0,0,1,.3906.0488.9985.9985,0,0,0,.3906.0489,113.0934,113.0934,0,0,0,15.0391,4.6386q7.7132,1.8077,15.332,3.4668a2.0406,2.0406,0,0,1,1.8555,2.1485,11.03,11.03,0,0,1-1.1719,3.9062l-31.4453,87.1094q-.783,1.6611-1.3672,2.7832a8.1828,8.1828,0,0,1-1.1718,1.7578,4.43,4.43,0,0,1-1.27.9766,6.6111,6.6111,0,0,1-1.66.5371q-7.4225,1.563-15.0391,3.4179t-15.82,4.6875a.6636.6636,0,0,0-.293.0489.4424.4424,0,0,1-.1953.0488h-.6836a.9768.9768,0,0,1-.7812-.3418,1.9609,1.9609,0,0,1-.3907-.6348q-1.0758-4.2-2.4414-10.4492-1.3689-6.249-2.93-13.8672-1.5629-7.6172-3.32-16.3086t-3.6132-17.8711l-12.4024,43.6524a18.1359,18.1359,0,0,1-1.0254,2.8808,5.778,5.778,0,0,1-1.2207,1.7579,4.4427,4.4427,0,0,1-1.4648.9277,11.4052,11.4052,0,0,1-1.7578.4883q-7.4225,1.4647-15.0391,3.3691t-15.82,4.7363a.6636.6636,0,0,0-.293.0489.4424.4424,0,0,1-.1953.0488h-.6836a1.1293,1.1293,0,0,1-.83-.3418.9492.9492,0,0,1-.3418-.6348q-1.3689-4.2978-3.125-10.8886-1.7577-6.5919-3.76-14.7461t-4.15-17.4317q-2.1489-9.2768-4.3946-18.8476-2.2477-9.57-4.4433-18.9942-2.1974-9.4233-4.2481-17.92a8.8652,8.8652,0,0,1-.7812-2.5879q-.0981-1.0254-.0977-1.709a1.7449,1.7449,0,0,1,1.5625-1.7578q7.6173-1.66,15.82-3.4668a106.4129,106.4129,0,0,0,15.5274-4.6386,2.9827,2.9827,0,0,1,.8789-.0977q1.2678,0,1.3672.9766l10.9375,67.5781Z"/><path class="cls-3" d="M1804.2227,2944.4492q1.2678-13.3783,2.539-26.4648,1.2678-13.0856,2.2461-26.8555a18.3519,18.3519,0,0,1,.6348-4.4434,2.72,2.72,0,0,1,2.1972-1.6113q8.2992-1.66,17.3829-3.4668a144.81,144.81,0,0,0,17.5781-4.6386,2.9827,2.9827,0,0,1,.8789-.0977q1.0737,0,1.0742.7812l-8.7891,95.1172a24.1614,24.1614,0,0,1-.6835,4.4434,2.5877,2.5877,0,0,1-2.1485,1.6113q-8.3013,2.54-16.7969,5.6641t-17.9687,6.3476a2.9827,2.9827,0,0,1-.8789.0977c-.7173,0-1.0742-.3262-1.0742-.9766q0-.0981.1953-2.6367t.5371-6.543q.3412-4.0034.7324-8.9843.389-4.98.83-9.961.4395-4.98.83-9.57Q1803.9279,2947.6723,1804.2227,2944.4492Zm7.3242-77.93q.2929-4.1982.4394-6.4453t.2442-3.3691c.0639-.7481.0976-1.2207.0976-1.416a1.4438,1.4438,0,0,1,.0489-.4395,3.62,3.62,0,0,0,.0976-.5859q.0483-.4395.1465-1.8555.096-1.4151.293-4.15.1947-2.7334.5859-7.5195a18.3511,18.3511,0,0,1,.6348-4.4434,2.72,2.72,0,0,1,2.1972-1.6113q8.299-1.66,17.3828-3.4668a144.7883,144.7883,0,0,0,17.5782-4.6387,2.9867,2.9867,0,0,1,.8789-.0976,1.5145,1.5145,0,0,0,.7812.7812l.293.1953-2.1484,26.7578a21.6415,21.6415,0,0,1-.7325,4.4922,2.4426,2.4426,0,0,1-2.1,1.5625q-8.3013,1.563-16.7968,3.418t-17.9688,3.7109a2.949,2.949,0,0,1-.8789.0977C1811.9038,2867.4961,1811.5469,2867.1709,1811.5469,2866.52Z"/><path class="cls-3" d="M1914.0859,2910.5625q-1.3689,10.2539-2.5879,20.459-1.2224,10.2056-1.5136,19.0918a28.8463,28.8463,0,0,0,.5859,6.3476,10.3721,10.3721,0,0,0,1.709,4.0039,6.3855,6.3855,0,0,0,2.6855,2.1,9.2478,9.2478,0,0,0,3.5157.6347,28.321,28.321,0,0,0,6.8359-.9277,59.5329,59.5329,0,0,0,7.4219-2.3926,20.28,20.28,0,0,1,2.0019-.7324,5.1824,5.1824,0,0,1,1.4161-.2442,1.2949,1.2949,0,0,1,1.3183.879,16.76,16.76,0,0,1,.6836,3.0761q.3412,2.1973,1.0254,5.9082.6826,3.7119,2.2461,9.375.0966.4893.1465.83a4.5684,4.5684,0,0,1,.0488.6348,2.0686,2.0686,0,0,1-1.0254,1.9531,20.3492,20.3492,0,0,1-3.3691,1.3672q-4.005,1.3682-8.4473,2.7832-4.4451,1.415-8.7891,2.5879-4.3461,1.1718-8.35,1.9043a39.7122,39.7122,0,0,1-7.0312.7324q-16.31,0-23.7793-8.1055-7.4708-8.105-7.4707-24.707,0-2.8315.1953-5.8106t.4883-6.2011q.9748-9.7647,1.709-18.5059.7323-8.7393,1.5136-16.748h-10.2539a46.2633,46.2633,0,0,1-7.6172-.4395q-2.3437-.44-2.3437-1.8066a7.21,7.21,0,0,1,.9766-2.1q.9748-1.7081,2.49-4.1016,1.5132-2.392,3.2715-5.1269t3.3691-5.127q1.6113-2.3921,2.7832-4.15t1.4649-2.1484h6.9336q.8788-7.421,1.416-12.4512.5353-5.0287.8789-8.35.3412-3.3194.6347-5.127a14.1684,14.1684,0,0,1,.6348-2.6855,1.902,1.902,0,0,1,.8789-1.1231,7.4294,7.4294,0,0,1,1.416-.4394q4.3946-.8789,8.4961-1.6113t8.2031-1.5137q4.1016-.7808,8.35-1.8067t8.8378-2.3925a1.0039,1.0039,0,0,0,.3907-.0489,1.0187,1.0187,0,0,1,.3906-.0488q1.1718,0,1.1719.7813v.1953q-.49,5.3715-1.5137,14.9414-1.0254,9.5712-2.2949,21.68h26.1719a2.5348,2.5348,0,0,1,1.5136.5371,2.0933,2.0933,0,0,1,.7324,1.8066,19.1235,19.1235,0,0,1-1.1718,3.5156q-1.1719,3.0279-3.32,7.91l-3.5157,7.91a6.9869,6.9869,0,0,1-1.416,2.1484,5.2555,5.2555,0,0,1-2.9785.8789Z"/><path class="cls-3" d="M1963.793,2843.8633q0-.5859-.0489-1.0742a9.6034,9.6034,0,0,1-.0488-.9766,1.9966,1.9966,0,0,1,.6836-1.5137,8.9291,8.9291,0,0,1,3.32-1.3183l27.4414-6.543a16.3619,16.3619,0,0,0,2.8321-.8789,9.4107,9.4107,0,0,1,3.4179-.6836q3.4174,0,3.418,3.125,0,.1964-.293,4.0039t-.7812,9.4727q-.4893,5.6645-1.0742,12.3535t-1.1719,12.7441q-.5859,6.0557-1.0742,10.5957t-.7813,5.9082q4.5894-2.5386,9.57-4.7851a102.6624,102.6624,0,0,1,10.01-3.9063,76.2506,76.2506,0,0,1,10.0586-2.5879,53.5808,53.5808,0,0,1,9.7168-.9277,35.32,35.32,0,0,1,11.1328,1.709,22.1686,22.1686,0,0,1,9.0332,5.664,27.2453,27.2453,0,0,1,6.0547,10.3516,48.6379,48.6379,0,0,1,2.1973,15.6738q0,2.3438-.0977,4.834t-.3906,5.127l-4.1992,39.9414q-.4893,4.1016-.586,8.5449t-.0976,9.1309q0,.7821.0488,1.3183t.0488.9278a1.5523,1.5523,0,0,1-.7324,1.3671,15.1356,15.1356,0,0,1-3.2715,1.27l-23.9258,6.6406q-1.0752.293-2.832.9277a10.042,10.042,0,0,1-3.418.6348,3.8694,3.8694,0,0,1-2.539-.7324,3.6652,3.6652,0,0,1-.8789-2.8809q.6825-7.3242,1.123-11.8164t.6836-7.1777q.2432-2.6852.44-4.1016.1947-1.4149.2929-2.5391.0967-1.122.293-2.539.1949-1.4151.4394-4.15.2433-2.7334.6836-7.2266.44-4.4911,1.1231-11.8164.39-3.9053.83-7.7636a62.9386,62.9386,0,0,0,.4394-7.08,58.0757,58.0757,0,0,0-.4394-7.4707,19.53,19.53,0,0,0-1.5625-5.7617,9.3015,9.3015,0,0,0-3.0762-3.76,8.4932,8.4932,0,0,0-4.98-1.3672,26.5007,26.5007,0,0,0-6.1035.9766,29.9612,29.9612,0,0,0-7.7148,3.2226,24.9968,24.9968,0,0,0-6.836,5.9082,15.73,15.73,0,0,0-3.3691,9.0332q-.7823,7.5205-1.2207,12.3047t-.7324,7.91q-.2931,3.126-.4395,4.98-.1466,1.8559-.2441,3.418-.0983.4893-.293,2.3926-.1964,1.9043-.4883,4.541t-.5859,5.6152q-.293,2.98-.5371,5.6153t-.3907,4.541q-.1464,1.9043-.1464,2.3926,0,.7821.0488,1.3183t.0488,1.0254a1.5889,1.5889,0,0,1-.7324,1.3184,11.6071,11.6071,0,0,1-3.2715,1.2207l-25.4883,8.8867q-1.0752.39-2.832.9766a10.7819,10.7819,0,0,1-3.418.5859,3.6405,3.6405,0,0,1-2.4414-.83,3.4775,3.4775,0,0,1-.9765-2.7832Z"/><path class="cls-3" d="M2228.5391,2973.7461a18.0951,18.0951,0,0,1-.7813,4.4434,2.7922,2.7922,0,0,1-2.1484,1.6113q-8.3013,2.3438-17.334,4.7363a108.1333,108.1333,0,0,0-17.5293,6.2988,2.9827,2.9827,0,0,1-.8789.0977q-.7823,0-.9277-.3906a2.49,2.49,0,0,1-.1465-.8789c0-.1309.0156-.3584.0488-.6836s.1133-.9278.2441-1.8067.3086-2.1.5371-3.6621.5372-3.6455.9278-6.25a108.2765,108.2765,0,0,1-19.3848,10.4,42.2559,42.2559,0,0,1-14.99,3.2715q-16.31,0-23.7793-7.8613t-7.4707-23.4864q0-2.8316.0976-5.8105a49.9485,49.9485,0,0,1,.586-6.1035q1.0737-11.5225,1.8554-19.7754t1.27-14.0137q.4878-5.7612.83-9.4238t.5859-6.1035q.2431-2.4405.3906-4.0528t.3418-3.1738a36.7869,36.7869,0,0,1,.7324-4.3945q.3414-1.2685,2.1973-1.66,4.5894-.8789,8.74-1.6113t8.2032-1.5625q4.0516-.8291,8.2519-1.8066,4.1982-.9756,8.8867-2.3438a1.5805,1.5805,0,0,0,.3907-.0488,1.6108,1.6108,0,0,1,.3906-.0489q1.1718,0,1.1719.7813v.1953q-.3912,3.3208-.6836,6.25t-.586,6.0059q-.293,3.0761-.6347,6.5918t-.83,8.1543q-.4893,4.639-1.1719,10.6933t-1.66,14.0625q-.586,5.8594-1.1719,11.67a108.0357,108.0357,0,0,0-.586,10.7911,30,30,0,0,0,.3907,5.0293,10.4656,10.4656,0,0,0,1.416,3.9062,7.04,7.04,0,0,0,2.6855,2.49,9.1618,9.1618,0,0,0,4.2969.8789,23.1919,23.1919,0,0,0,5.5664-.9277,24.176,24.176,0,0,0,7.0313-3.2226,23.2545,23.2545,0,0,0,6.2011-6.0547,18.1729,18.1729,0,0,0,3.0762-9.5215q.6827-9.668,1.2207-16.1621.5361-6.4936.9277-10.9375.39-4.4428.6836-7.4707t.5371-5.8106q.2433-2.7831.4395-5.957t.3906-7.959a20.6337,20.6337,0,0,1,.7324-4.4434,2.72,2.72,0,0,1,2.1973-1.6113q8.8857-1.7578,18.1641-3.5644a161.1492,161.1492,0,0,0,18.164-4.6387q.7808,0,.9278.2441a1.455,1.455,0,0,1,.1465.7325Z"/><path class="cls-3" d="M2250.8047,2958.9023a.2024.2024,0,0,0-.0488-.1464.1955.1955,0,0,1-.0489-.1465q0-1.2685,1.3672-1.27a2.154,2.154,0,0,1,1.5625.6836,33.2471,33.2471,0,0,0,8.9356,6.0547,25.4559,25.4559,0,0,0,10.8886,2.3438,22.2376,22.2376,0,0,0,3.6133-.3418,17.3566,17.3566,0,0,0,3.9063-1.1231,8.7533,8.7533,0,0,0,3.0761-2.1,4.6327,4.6327,0,0,0,1.2207-3.2715,7.6036,7.6036,0,0,0-1.0742-3.955,9.1815,9.1815,0,0,0-2.832-2.9786q-.9771-.6825-3.418-2.3925-2.4418-1.7081-5.2246-3.6621t-5.2734-3.711q-2.49-1.7578-3.4668-2.539a35.5041,35.5041,0,0,1-6.9824-6.7383,27.8627,27.8627,0,0,1-3.9551-7.08,30.142,30.142,0,0,1-1.7578-7.666q-.3912-4.0035-.3907-8.4961a24.7443,24.7443,0,0,1,3.6133-12.8906,38.2741,38.2741,0,0,1,9.5215-10.6446,48.0647,48.0647,0,0,1,13.4277-7.2754,45.2775,45.2775,0,0,1,15.3321-2.6855,42.3436,42.3436,0,0,1,12.6953,1.9531,32.23,32.23,0,0,1,11.6211,6.6406q.4878,6.1524.6836,12.1094t.5859,12.5a2.0361,2.0361,0,0,1-.5859,1.709,2.2162,2.2162,0,0,1-1.3672.4395,1.595,1.595,0,0,1-1.1719-.4883q-2.247-2.1475-4.59-4.2481a35.6,35.6,0,0,0-4.9317-3.7109,27.752,27.752,0,0,0-5.5175-2.6367,18.788,18.788,0,0,0-6.25-1.0254,24.9378,24.9378,0,0,0-4.1016.3418,11.3945,11.3945,0,0,0-3.7109,1.2695,7.5948,7.5948,0,0,0-2.6856,2.49,7.17,7.17,0,0,0-1.0254,4.004,15.4928,15.4928,0,0,0,.6836,4.8828,8.8508,8.8508,0,0,0,3.2227,4.0039l18.164,12.3047a49.5887,49.5887,0,0,1,8.0567,6.6894,31.9343,31.9343,0,0,1,4.834,6.4942,22.67,22.67,0,0,1,2.3925,6.3964,32.08,32.08,0,0,1,.6348,6.2989,29.2841,29.2841,0,0,1-4.0527,15.4785,36.0831,36.0831,0,0,1-10.4981,11.1328,48.7885,48.7885,0,0,1-14.6,6.7383,60.1539,60.1539,0,0,1-16.3574,2.2949,54.34,54.34,0,0,1-12.0606-1.3184,41.2875,41.2875,0,0,1-10.791-4.0527Z"/><path class="cls-3" d="M2371.41,2952.457q-.2931,4.2-.4395,6.4453-.1465,2.2471-.2441,3.3692t-.0977,1.416a1.494,1.494,0,0,1-.0488.4395,3.3474,3.3474,0,0,0-.0977.5859q-.05.4395-.1465,1.8555t-.2929,4.15q-.1964,2.7348-.586,7.5195a18.394,18.394,0,0,1-.6347,4.4433,2.7162,2.7162,0,0,1-2.1973,1.6114q-8.3013,1.6611-17.3828,3.4668a144.8,144.8,0,0,0-17.5781,4.6386,2.9827,2.9827,0,0,1-.8789.0977l-.8789-.7813-.1954-.1953,2.1485-26.7578a18.709,18.709,0,0,1,.6347-4.3945,2.7041,2.7041,0,0,1,2.1973-1.66q8.3-1.4647,16.7969-3.32t17.9687-3.8086a2.9867,2.9867,0,0,1,.8789-.0976Q2371.41,2951.4805,2371.41,2952.457Zm3.4179-80.8593q-3.126,15.2343-6.1035,30.42-2.9795,15.186-5.5176,30.7129a19.2087,19.2087,0,0,1-.6347,4.4922,2.5074,2.5074,0,0,1-2.1973,1.5625q-3.8086.684-7.5195,1.4648t-7.8125,1.8555c-.5215,0-.83-.0811-.9278-.2442a1.45,1.45,0,0,1-.1464-.7324l-.9766-96.4844a16.5542,16.5542,0,0,1,.6836-4.3945,2.7757,2.7757,0,0,1,2.1484-1.66q8.3-1.8545,16.7969-4.248t17.9687-4.834a2.9875,2.9875,0,0,1,.879-.0976q1.0737,0,1.0742.9765,0,.0981-.3907,2.3926t-1.0253,5.9082q-.6358,3.6138-1.4161,8.1543-.7821,4.5409-1.66,9.082t-1.709,8.6914Q2375.5113,2868.7666,2374.8281,2871.5977Z"/><path class="cls-10" d="M2498.126,764.5282a12.9824,12.9824,0,0,1-11.2134-19.5264l31.6382-54.1919a30.7743,30.7743,0,0,0-3.5986-36.2793A193.7959,193.7959,0,0,1,2464.96,526.0614c-.8228-105.8692,84.5727-193.6573,190.3638-195.6958,1.2793-.0244,2.5512-.0367,3.8256-.0367a194.2,194.2,0,0,1,194.17,197.3389c-1.6675,105.3418-88.7867,191.05-194.19,191.05l-1.6748-.0073a194.4173,194.4173,0,0,1-48.7036-6.6138,29.1,29.1,0,0,0-7.5586-.9961,29.9632,29.9632,0,0,0-15.0806,4.104l-81.4453,47.5513A12.9546,12.9546,0,0,1,2498.126,764.5282Z"/><path class="cls-2" d="M2659.1489,343.31A181.2182,181.2182,0,0,1,2840.34,527.4627c-1.56,98.4912-82.8857,178.2764-181.2133,178.2764-.5176,0-1.04-.0024-1.56-.0073a181.1576,181.1576,0,0,1-45.4517-6.1719,42.13,42.13,0,0,0-10.9228-1.438,42.92,42.92,0,0,0-21.626,5.874l-81.4453,47.5513,31.6382-54.1919a43.89,43.89,0,0,0-5.1709-51.521,180.4153,180.4153,0,0,1-46.65-119.873c-.7666-98.7232,78.9258-180.7154,177.6343-182.6172,1.1963-.022,2.3852-.0342,3.5766-.0342m0-25.96c-1.3574,0-2.7124.0122-4.0771.0391-112.8638,2.1753-203.97,95.83-203.0933,208.7744a206.77,206.77,0,0,0,53.34,137.0654,17.8423,17.8423,0,0,1,2.0239,21.0352l-31.6406,54.1943a25.9607,25.9607,0,0,0,35.5078,35.5078l81.4453-47.5512a16.9449,16.9449,0,0,1,8.5376-2.334,16.13,16.13,0,0,1,4.1919.5517,207.54,207.54,0,0,0,51.96,7.0582l1.7823.0073c112.456,0,205.3906-91.4356,207.17-203.8257A207.1754,207.1754,0,0,0,2659.1489,317.35Z"/><g class="cls-11"><path class="cls-3" d="M2646.0587,357.6159a181.2151,181.2151,0,0,1,184.7665,184.1185,179.2884,179.2884,0,0,1-25.721,89.7246,180.8606,180.8606,0,0,0-149.5306-288.1154c-64.3927,1.24-120.6723,36.5752-151.8233,88.3913C2536.1243,387.8029,2587.7685,358.7379,2646.0587,357.6159Z"/></g><g class="cls-6"><path class="cls-12" d="M2686.1125,667.674A181.1,181.1,0,0,1,2640.66,661.5a37.7331,37.7331,0,0,0-6.6792-.8864c-26.9981-1.785-51.1391-16.29-67.6029-37.7614-4.0555-5.289-8.6778-10.0178-13.245-15.0778a180.3716,180.3716,0,0,1-23.3168-209.7872,180.6309,180.6309,0,0,0-5.6915,247.3311c12.8512,14.3447,15.5271,35.0954,5.8164,51.7276l-31.8207,54.5016,81.4456-47.5511a42.9605,42.9605,0,0,1,32.7655-4.3791,181.1041,181.1041,0,0,0,45.2363,6.1166c68.1593.5854,128.3358-37.1907,159.74-93.0836A180.8284,180.8284,0,0,1,2686.1125,667.674Z"/></g><path class="cls-3" d="M2593.0684,463.96h0c18.5139-18.5138,48.5307-15.1965,67.0447,3.3174l2.8814,2.8815,2.8815-2.8815c18.5139-18.5139,48.5308-21.8313,67.0447-3.3174h0a47.4076,47.4076,0,0,1,0,67.0446l-2.8815,2.8816-58.2073,58.2072a12.498,12.498,0,0,1-17.6749,0L2595.95,533.886l-2.8815-2.8815A47.4077,47.4077,0,0,1,2593.0684,463.96Z"/><g class="cls-11"><path class="cls-13" d="M2599.1281,489.4632c5.6983-7.8463,16.757-8.2165,20.0981-5.79s-2.3005,6.7307-7.9988,14.577-9.2955,16.2634-12.6366,13.837S2593.43,497.31,2599.1281,489.4632Z"/></g><g class="cls-11"><path class="cls-13" d="M2634.5156,473.29a5.3423,5.3423,0,0,1-9.48,3.6865c-1.3444-1.899-.1455-5.0381,3.0189-6.27C2631.2194,469.4774,2634.2239,470.9818,2634.5156,473.29Z"/></g><path class="cls-2" d="M981.25,3439.5825c42.4487-8.3349,84.895-10.5517,127.3438-11.46,42.4487-1.1622,84.895-.5469,127.3437.0878q63.673.74,127.3438.54H2764.0625l63.6719-.0171c21.2231.0122,42.4487-.7349,63.6719-1.0766,42.4487-.1905,84.895.2954,127.3437,11.9262a5.6172,5.6172,0,0,1,0,10.835c-42.4487,11.6308-84.895,12.1167-127.3437,11.9263-21.2232-.3418-42.4488-1.0889-63.6719-1.0767l-63.6719-.0171H1363.2813q-63.6732-.1172-127.3438.54c-42.4487.6347-84.895,1.25-127.3437.0878-42.4488-.9082-84.8951-3.125-127.3438-11.46a5.5211,5.5211,0,0,1,0-10.835Z"/></svg>